<?xml version="1.0" encoding="utf-8"?>
<!-- Generator: Adobe Illustrator 18.1.1, SVG Export Plug-In . SVG Version: 6.00 Build 0)  -->
<!DOCTYPE svg PUBLIC "-//W3C//DTD SVG 1.1//EN" "http://www.w3.org/Graphics/SVG/1.1/DTD/svg11.dtd">
<svg version="1.1" id="Done" xmlns="http://www.w3.org/2000/svg" xmlns:xlink="http://www.w3.org/1999/xlink"
	 x="0px" y="0px" viewBox="0 0 20 20" enable-background="new 0 0 20 20" xml:space="preserve">
<path fill="#FFFFFF" transform="scale(0.9) translate(1,1)" d="M 10 0.4 c -5.302 0 -9.6 4.298 -9.6 9.6 s 4.298 9.6 9.6 9.6 c 5.301 0 9.6 -4.298 9.6 -9.601 C 19.6 4.698 15.301 0.4 10 0.4 z M 10 17.599 c -4.197 0 -7.6 -3.402 -7.6 -7.6 S 5.802 2.4 10 2.4 c 4.197 0 7.601 3.402 7.601 7.6 S 14.197 17.599 10 17.599 z M 8.294 16.998 c -0.435 0 -0.847 -0.203 -1.111 -0.553 L 3.61 11.724 c -0.465 -0.613 -0.344 -1.486 0.27 -1.951 c 0.615 -0.467 1.488 -0.344 1.953 0.27 l 2.351 3.104 l 4.816 -7.147 c 0.407 -0.652 1.267 -0.852 1.921 -0.445 c 0.653 0.406 0.854 1.266 0.446 1.92 L 9.478 16.34 c -0.242 0.391 -0.661 0.635 -1.12 0.656 C 8.336 16.998 8.316 16.998 8.294 16.998 z"/>
</svg>
