<?xml version="1.0" encoding="UTF-8" standalone="no"?>
<svg
   xmlns="http://www.w3.org/2000/svg"
   id="Hour_glass"
   x="0px"
   y="0px"
   viewBox="0 0 20 20"
   enable-background="new 0 0 20 20"
   xml:space="preserve"
   version="1.1"
  >
<path
   fill="#FFFFFF"
   d="m 15.6,5.5296878 c 0,-1.7629051 0,-1.9351574 0,-1.9351574 0,-0.6502722 -2.508,-1.8362565 -5.6,-1.8362565 -3.093,0 -5.6,1.1859843 -5.6,1.8362565 0,0 0,0.1722523 0,1.9351574 C 4.4,7.2942414 8.277,8.7505545 8.277,10 c 0,1.247797 -3.877,2.70411 -3.877,4.468663 0,1.764555 0,1.936807 0,1.936807 0,0.649447 2.507,1.836256 5.6,1.836256 3.092,0 5.6,-1.186809 5.6,-1.837081 0,0 0,-0.172252 0,-1.936806 0,-1.764553 -3.877,-3.220866 -3.877,-4.4686629 0,-1.2486216 3.877,-2.7049347 3.877,-4.4694883 z M 5.941,3.6769479 c 0.696,-0.3618119 2,-0.8917548 4.114,-0.8917548 2.113,0 4.006,0.8917548 4.006,0.8917548 0.142,0.070879 0.698,0.315658 0.317,0.501921 C 13.54,4.5884827 11.9,5.0195249 10,5.0195249 8.1,5.0195249 6.516,4.5448016 5.676,4.1343636 5.295,3.9489248 5.941,3.6769479 5.941,3.6769479 Z M 10.501,10 c 0,0.983237 0.996,1.616202 2.051,2.460979 0.771,0.616481 1.826,1.461258 1.826,2.00686 v 1.094502 c -0.97,-0.398075 -3.872,-0.787085 -3.872,-2.063728 0,-0.645328 -1.013,-0.645328 -1.013,0 0,1.276643 -2.902,1.665653 -3.872,2.063728 v -1.094502 c 0,-0.545602 1.056,-1.391203 1.826,-2.00686 C 8.502,11.616202 9.498,10.983237 9.498,10 9.498,9.0167618 8.502,8.3837976 7.447,7.5390207 6.676,6.9208912 5.621,6.0761143 5.621,5.5296878 L 5.575,4.7071636 c 1.026,0.4557675 2.652,0.888458 4.425,0.888458 1.772,0 3.406,-0.4326905 4.433,-0.888458 l -0.055,0.8225243 c 0,0.5456023 -1.056,1.3912033 -1.826,2.0093328 C 11.498,8.3837976 10.501,9.0167618 10.501,10 Z"
   id="path73"
   style="stroke-width:0.967657" />
</svg>
