<?xml version="1.0" standalone="no"?>
<!DOCTYPE svg PUBLIC "-//W3C//DTD SVG 1.1//EN" "http://www.w3.org/Graphics/SVG/1.1/DTD/svg11.dtd" >
<svg xmlns="http://www.w3.org/2000/svg" xmlns:xlink="http://www.w3.org/1999/xlink" version="1.1">
<metadata></metadata>
<defs>
<font id="bunday_sansthin_up_italic" horiz-adv-x="495" >
<font-face units-per-em="1000" ascent="750" descent="-250" />
<missing-glyph horiz-adv-x="233" />
<glyph unicode="&#xfb00;" horiz-adv-x="529" d="M146 470h-78l5 24h77l20 105q15 76 47 103t91 27q41 0 65 -6l-8 -24q-28 4 -56 4q-48 0 -73 -21.5t-37 -84.5l-20 -103h221l21 105q14 76 46 103t91 27q48 0 88 -8l-9 -24q-57 6 -77 6q-47 0 -72 -21.5t-38 -84.5l-20 -103h143l-8 -24h-139l-105 -540q-14 -70 -39.5 -97 t-71.5 -40q-2 0 -8.5 -2t-17.5 -4.5t-22 -4.5l-2 25q44 10 57 15q30 10 47.5 34t27.5 76l104 538h-221l-107 -550q-13 -70 -38.5 -97t-71.5 -40q-2 0 -8.5 -2t-17.5 -4.5t-22 -4.5l-3 25q41 9 57 15q30 10 47.5 34t27.5 76z" />
<glyph unicode="&#xfb01;" horiz-adv-x="472" d="M179 494h253l-96 -494h-29l90 470h-222l-107 -550q-13 -70 -38.5 -97t-71.5 -40q-2 0 -8.5 -2t-17.5 -4.5t-22 -4.5l-3 25q41 9 57 15q30 10 47.5 34t27.5 76l107 548h-78l5 24h77l20 105q15 75 48 102.5t91 27.5q80 0 151 -17l-9 -24q-66 15 -140 15q-47 0 -73.5 -22 t-38.5 -84z" />
<glyph unicode="&#xfb02;" horiz-adv-x="498" d="M179 494h118l-8 -24h-114l-107 -550q-13 -70 -38.5 -97t-71.5 -40q-2 0 -8.5 -2t-17.5 -4.5t-22 -4.5l-3 25q41 9 57 15q30 10 47.5 34t27.5 76l107 548h-78l5 24h77l20 105q15 75 47.5 102.5t89.5 27.5q88 0 167 -18l-119 -612q-3 -28 -4 -44t7.5 -24t16.5 -10t23 -2 q8 0 35 3l-1 -24q-17 -5 -41 -5q-42 0 -60 21t-6 84l115 593q-86 12 -130 12q-48 0 -73.5 -21.5t-37.5 -84.5z" />
<glyph unicode="&#xfb03;" horiz-adv-x="724" d="M432 494h252l-96 -494h-29l91 470h-223l-105 -540q-13 -70 -38.5 -97t-71.5 -40q-2 0 -8.5 -2t-17.5 -4.5t-22 -4.5l-3 25q41 9 57 15q30 10 47.5 34t27.5 76l105 538h-223l-107 -550q-13 -70 -38.5 -97t-71.5 -40q-2 0 -8.5 -2t-17.5 -4.5t-22 -4.5l-3 25q41 9 57 15 q30 10 47.5 34t27.5 76l107 548h-78l5 24h77l20 105q15 76 47 103t91 27q41 0 65 -6l-8 -24q-28 4 -56 4q-48 0 -73 -21.5t-37 -84.5l-20 -103h223l20 105q15 75 48 102.5t90 27.5q78 0 153 -17l-9 -24q-69 15 -141 15q-47 0 -73 -22t-38 -84z" />
<glyph unicode="&#xfb04;" horiz-adv-x="750" d="M432 494h117l-8 -24h-114l-105 -540q-13 -70 -38.5 -97t-71.5 -40q-2 0 -8.5 -2t-17.5 -4.5t-22 -4.5l-3 25q41 9 57 15q30 10 47.5 34t27.5 76l105 538h-223l-107 -550q-13 -70 -38.5 -97t-71.5 -40q-2 0 -8.5 -2t-17.5 -4.5t-22 -4.5l-3 25q41 9 57 15q30 10 47.5 34 t27.5 76l107 548h-78l5 24h77l20 105q15 76 47 103t91 27q41 0 65 -6l-8 -24q-28 4 -56 4q-48 0 -73 -21.5t-37 -84.5l-20 -103h223l20 105q15 75 47 102.5t89 27.5q89 0 168 -18l-119 -612q-3 -28 -4 -44t7.5 -24t16.5 -10t23 -2q8 0 35 3l-1 -24q-17 -5 -42 -5 q-41 0 -58.5 21t-5.5 84l115 593q-86 12 -131 12q-48 0 -73 -21.5t-37 -84.5z" />
<glyph unicode="fb" horiz-adv-x="766" d="M179 494h118l-8 -24h-114l-107 -550q-13 -70 -38.5 -97t-71.5 -40q-2 0 -8.5 -2t-17.5 -4.5t-22 -4.5l-3 25q41 9 57 15q30 10 47.5 34t27.5 76l107 548h-78l5 24h77l20 105q15 75 48 102.5t92 27.5q85 0 164 -18l-40 -203q-4 -17 -9 -42.5t-8 -39.5l-3 -15h1 q42 41 93 66.5t97 25.5q29 0 48.5 -4.5t37 -19.5t25 -41t7 -70.5t-12.5 -106.5q-17 -87 -41 -143t-56.5 -82.5t-63 -35.5t-73.5 -9q-77 0 -163 38l128 662q-84 12 -131 12q-48 0 -73.5 -21.5t-37.5 -84.5zM475 17q35 0 60 7t54.5 29.5t52.5 74.5t39 133q11 57 12.5 97t-4 63 t-19.5 36t-29.5 16.5t-39.5 3.5q-44 0 -96 -26.5t-96 -73.5l-64 -330q57 -30 130 -30z" />
<glyph unicode="fh" horiz-adv-x="780" d="M179 494h118l-8 -24h-114l-107 -550q-13 -70 -38.5 -97t-71.5 -40q-2 0 -8.5 -2t-17.5 -4.5t-22 -4.5l-3 25q41 9 57 15q30 10 47.5 34t27.5 76l107 548h-78l5 24h77l20 105q15 75 47 102.5t89 27.5q89 0 168 -18l-42 -215l-18 -86h1q93 93 207 93q23 0 41 -5t37 -20.5 t23 -43.5t-2 -74l-69 -360h-29l68 359q23 118 -75 118q-114 0 -206 -100l-73 -377h-29l133 691q-86 12 -131 12q-48 0 -73.5 -21.5t-37.5 -84.5z" />
<glyph unicode="fj" horiz-adv-x="472" d="M179 494h253l-107 -549q-14 -70 -39 -97t-71 -40q-2 0 -8.5 -2t-17.5 -4.5t-22 -4.5v25q39 9 55 15q30 11 46.5 33.5t26.5 76.5l102 523h-222l-107 -550q-13 -70 -38.5 -97t-71.5 -40q-2 0 -8.5 -2t-17.5 -4.5t-22 -4.5l-3 25q41 9 57 15q30 10 47.5 34t27.5 76l107 548 h-78l5 24h77l20 105q15 75 48 102.5t91 27.5q80 0 151 -17l-9 -24q-66 15 -140 15q-47 0 -73.5 -22t-38.5 -84z" />
<glyph unicode="ffj" horiz-adv-x="724" d="M432 494h252l-107 -549q-14 -70 -39 -97t-71 -40q-2 0 -8.5 -2t-17.5 -4.5t-21 -4.5v25q40 9 54 15q30 11 47 33.5t27 76.5l102 523h-223l-105 -540q-13 -70 -38.5 -97t-71.5 -40q-2 0 -8.5 -2t-17.5 -4.5t-22 -4.5l-2 25q44 10 56 15q30 10 47.5 34t28.5 76l104 538 h-223l-107 -550q-13 -70 -38.5 -97t-71.5 -40q-2 0 -8.5 -2t-17.5 -4.5t-22 -4.5l-3 25q41 9 57 15q30 10 47.5 34t27.5 76l107 548h-78l5 24h77l20 105q15 76 47 103t91 27q41 0 65 -6l-8 -24q-28 4 -56 4q-48 0 -73 -21.5t-37 -84.5l-20 -103h223l20 105q15 75 48 102.5 t91 27.5q77 0 152 -17l-9 -24q-69 15 -141 15q-47 0 -73 -22t-38 -84z" />
<glyph unicode="fk" horiz-adv-x="765" d="M179 494h118l-8 -24h-114l-107 -550q-13 -70 -38.5 -97t-71.5 -40q-2 0 -8.5 -2t-17.5 -4.5t-22 -4.5l-3 25q41 9 57 15q30 10 47.5 34t27.5 76l107 548h-78l5 24h77l20 105q15 75 47.5 102.5t89.5 27.5q87 0 166 -18l-56 -291q42 34 101 58.5t114 24.5q125 0 105 -106 q-12 -64 -64.5 -104t-146.5 -69l30 -81q12 -31 17.5 -44t16 -32.5t19.5 -26.5t23.5 -13t32.5 -6q22 0 49 10l5 -23q-32 -13 -62 -13q-27 0 -45.5 8t-33.5 29t-23.5 40t-24.5 60l-41 106q103 28 155 63.5t65 95.5q8 41 -10.5 60.5t-70.5 19.5t-112 -25t-105 -62l-76 -390h-28 l133 691q-86 12 -130 12q-48 0 -73.5 -21.5t-37.5 -84.5z" />
<glyph unicode="ft" horiz-adv-x="567" d="M146 470h-78l5 24h77l20 105q15 76 47 103t91 27q41 0 65 -6l-8 -24q-28 4 -56 4q-48 0 -73 -21.5t-37 -84.5l-20 -103h223l29 139l28 3l-27 -142h149l-8 -24h-146l-72 -371q-10 -51 2.5 -65.5t48.5 -14.5q33 0 80 10v-24q-42 -12 -85 -12q-49 0 -68.5 20.5t-7.5 84.5 l73 372h-223l-107 -550q-13 -70 -38.5 -97t-71.5 -40q-2 0 -8.5 -2t-17.5 -4.5t-22 -4.5l-3 25q41 9 57 15q30 10 47.5 34t27.5 76z" />
<glyph horiz-adv-x="500" />
<glyph horiz-adv-x="500" />
<glyph horiz-adv-x="333" />
<glyph unicode="&#xd;" horiz-adv-x="0" />
<glyph unicode=" "  horiz-adv-x="233" />
<glyph unicode="&#x09;" horiz-adv-x="233" />
<glyph unicode="&#xa0;" horiz-adv-x="233" />
<glyph unicode="!" horiz-adv-x="212" d="M71 145l108 552h28l-108 -552h-28zM43 0l13 75h30l-13 -75h-30z" />
<glyph unicode="&#x22;" horiz-adv-x="323" d="M271 545l33 177h28l-36 -177h-25zM143 545l34 177h27l-36 -177h-25z" />
<glyph unicode="#" horiz-adv-x="800" d="M91 188l7 22h180l53 173h-181l6 21h181l56 190h23l-57 -190h167l57 190h21l-56 -190h180l-6 -21h-180l-52 -173h179l-6 -22h-180l-55 -189h-22l55 189h-167l-55 -189h-22l55 189h-181zM301 210h166l53 173h-167z" />
<glyph unicode="$" horiz-adv-x="548" d="M53 23l10 26q75 -22 162 -22q86 0 127.5 34.5t56.5 107.5q13 72 -12 108.5t-87 66.5l-45 22q-21 10 -34.5 18t-30 20.5t-23.5 25t-15.5 31.5t-6.5 40.5t5 51.5q27 138 186 142l18 93h24l-18 -93q79 -3 132 -18l-10 -24q-71 16 -135 16q-145 0 -169 -122 q-12 -65 10.5 -96.5t81.5 -60.5l44 -22q18 -9 30.5 -15.5t28 -17.5t25 -21.5t18.5 -26t12.5 -32.5t3.5 -40t-5 -50q-16 -81 -62.5 -122t-139.5 -42l-18 -92h-24l18 92q-99 1 -158 22z" />
<glyph unicode="%" horiz-adv-x="793" d="M89 485q25 123 63 173.5t108 50.5q71 0 91.5 -51.5t-3.5 -172.5q-24 -123 -62.5 -173t-109.5 -50t-90.5 51t3.5 172zM179 285q57 0 89.5 45.5t53.5 154.5q15 72 13 116.5t-20 64t-57 19.5q-57 0 -89 -45t-54 -155q-21 -109 -7 -154.5t71 -45.5zM485 216q24 122 62.5 173 t108.5 51q71 0 91 -51t-4 -173q-23 -122 -61.5 -172.5t-109.5 -50.5t-90.5 50.5t3.5 172.5zM574 16q58 0 90.5 45.5t52.5 154.5q22 110 8 155t-72 45q-57 0 -89 -45t-53 -155q-21 -109 -7.5 -154.5t70.5 -45.5zM163 -22l483 740h26l-483 -740h-26z" />
<glyph unicode="&#x26;" horiz-adv-x="562" d="M515 428l2 -26l-83 -20q1 -4 9.5 -36t10.5 -44.5t6.5 -39.5t3.5 -50t-5 -47q-15 -83 -76 -129.5t-163 -46.5q-205 0 -173 178q24 131 172 178l1 1q-105 30 -84 145q15 76 62 111t132 35q68 0 106 -12l-9 -25q-39 11 -95 11q-74 0 -114 -29t-53 -94q-7 -37 1 -63.5 t26.5 -39t34 -18t31.5 -7.5q111 30 257 68zM406 373q-67 -17 -165 -46q-47 -14 -80 -34.5t-49.5 -45t-24 -42.5t-12.5 -40q-14 -74 20.5 -112.5t126.5 -38.5q90 0 142 40.5t67 113.5q14 73 -25 205z" />
<glyph unicode="'" horiz-adv-x="195" d="M143 545l34 177h27l-36 -177h-25z" />
<glyph unicode="(" horiz-adv-x="338" d="M198 -27h-28q-59 139 -52 289q13 250 197 461h35q-191 -215 -205 -463q-8 -146 53 -287z" />
<glyph unicode=")" horiz-adv-x="338" d="M182 723h28q59 -139 52 -289q-13 -249 -198 -461h-34q191 215 205 463q8 146 -53 287z" />
<glyph unicode="*" d="M179 362l-19 14l122 136l-146 50l12 22l145 -53l31 166h25l-33 -165l164 55l3 -22l-164 -55l71 -133l-21 -14l-69 135z" />
<glyph unicode="+" horiz-adv-x="508" d="M221 119l35 182h-174l5 24h174l37 188h24l-36 -188h174l-5 -24h-174l-35 -182h-25z" />
<glyph unicode="," horiz-adv-x="196" d="M5 -105h-31q60 72 80 181h30q-22 -117 -79 -181z" />
<glyph unicode="-" horiz-adv-x="362" d="M52 275l6 25h268l-5 -25h-269z" />
<glyph unicode="." horiz-adv-x="197" d="M32 0l14 78h37l-15 -78h-36z" />
<glyph unicode="/" horiz-adv-x="321" d="M341 698h27l-347 -698h-28z" />
<glyph unicode="0" horiz-adv-x="533" d="M84 349q38 194 99 277t171 83q111 0 142 -84.5t-7 -275.5q-38 -195 -99 -278t-172 -83q-110 0 -141 84.5t7 276.5zM221 14q97 0 150 76.5t89 258.5q36 179 12 256.5t-121 77.5q-96 0 -149.5 -76.5t-88.5 -257.5q-36 -179 -12 -257t120 -78z" />
<glyph unicode="1" horiz-adv-x="287" d="M118 0l129 671h-124l5 26h154l-135 -697h-29z" />
<glyph unicode="2" horiz-adv-x="464" d="M7 0l24 125q9 47 25 80t43.5 57t54 39t70.5 35l40 17q84 38 120.5 75t51.5 118q15 76 -10.5 105t-102.5 29q-62 0 -162 -25l1 25q104 26 163 26q90 0 123.5 -36.5t16.5 -123.5q-10 -50 -24.5 -83.5t-41 -58t-53.5 -40t-76 -36.5l-40 -18q-41 -19 -64 -32t-47.5 -34 t-38.5 -50.5t-22 -71.5l-18 -96h322l-4 -26h-351z" />
<glyph unicode="3" horiz-adv-x="451" d="M-18 25l12 25q91 -32 162 -32q79 0 126 42t67 141q18 93 -19 126.5t-115 34.5h-76l6 26h76q74 1 122 35t64 118q16 82 -16 110.5t-102 28.5q-71 0 -165 -32l-2 24q83 34 166 34q86 0 126.5 -34.5t21.5 -129.5q-15 -79 -56 -118t-87 -49q17 -4 29 -9.5t28 -18.5t22.5 -31 t11 -47.5t-5.5 -69.5q-23 -111 -77.5 -159t-146.5 -48q-86 0 -172 33z" />
<glyph unicode="4" horiz-adv-x="486" d="M22 211v28l327 464l25 -11l-137 -193l-187 -262h320l37 183h27l-81 -420h-29l41 211h-343z" />
<glyph unicode="5" horiz-adv-x="484" d="M30 22l11 25q1 0 12 -4t24.5 -7.5t32 -8t41.5 -7t46 -2.5q76 0 124.5 39.5t68.5 143.5q20 106 -14.5 142.5t-112.5 36.5q-66 0 -140 -16l-11 9l62 324h295l-5 -26h-266l-54 -280q63 15 128 15q31 0 54.5 -4.5t47.5 -17.5t35 -35.5t16.5 -59t-6.5 -88.5 q-24 -120 -79 -164.5t-141 -44.5q-71 0 -169 30z" />
<glyph unicode="6" horiz-adv-x="506" d="M356 680q-99 0 -152 -72t-89 -248q95 66 193 65q82 -1 120 -47.5t14 -166.5q-42 -223 -226 -223q-109 0 -139.5 84.5t7.5 276.5q39 196 99.5 276.5t174.5 80.5q61 0 131 -21l-10 -25q-70 20 -123 20zM302 399q-54 0 -106.5 -21.5t-86.5 -47.5q-32 -169 -7.5 -242.5 t116.5 -73.5q157 0 195 196q22 110 -8 149.5t-103 39.5z" />
<glyph unicode="7" horiz-adv-x="448" d="M103 0h-31q66 170 157 323.5t233 347.5h-339l5 26h371l-5 -29q-153 -209 -239 -353.5t-152 -314.5z" />
<glyph unicode="8" horiz-adv-x="518" d="M46 189q31 160 164 184q-105 24 -79 157q35 179 214 179q189 0 153 -179q-13 -68 -50 -109t-92 -52q125 -26 95 -180q-22 -107 -77.5 -154t-160.5 -47t-146.5 48t-20.5 153zM286 382q80 0 125 35.5t59 111.5q31 154 -126 154q-81 0 -125.5 -38.5t-59.5 -115.5 q-15 -76 16 -111.5t111 -35.5zM214 14q92 0 141 39.5t67 134.5q33 168 -142 168q-172 0 -205 -167q-18 -95 15 -135t124 -40z" />
<glyph unicode="9" horiz-adv-x="506" d="M190 17q99 0 152 72t88 247q-33 -23 -85 -44t-107 -20q-82 1 -120 47.5t-14 166.5q42 223 226 223q109 0 139.5 -84.5t-7.5 -276.5q-39 -196 -99.5 -276.5t-174.5 -80.5q-61 0 -131 21l10 25q70 -20 123 -20zM244 298q53 0 106 21t86 48q32 169 7.5 242.5t-115.5 73.5 q-157 0 -195 -196q-22 -110 8 -149.5t103 -39.5z" />
<glyph unicode=":" horiz-adv-x="197" d="M102 358l15 78h37l-15 -78h-37zM33 0l15 78h36l-14 -78h-37z" />
<glyph unicode=";" horiz-adv-x="196" d="M5 -105h-31q60 72 80 181h30q-22 -117 -79 -181zM101 358l15 78h37l-15 -78h-37z" />
<glyph unicode="&#x3c;" horiz-adv-x="510" d="M124 299l5 22l333 263l-7 -35l-303 -241l210 -237l-5 -30z" />
<glyph unicode="=" horiz-adv-x="508" d="M72 200l5 24h346l-4 -24h-347zM112 404l5 24h346l-5 -24h-346z" />
<glyph unicode="&#x3e;" horiz-adv-x="510" d="M419 321l-4 -22l-333 -258l7 36l302 237l-210 240l7 30z" />
<glyph unicode="?" horiz-adv-x="407" d="M145 145l13 70q14 73 31.5 104t65.5 69l64 52q56 45 71 116q14 74 -18.5 99.5t-107.5 25.5q-60 0 -129 -19v23q56 21 134 21q87 0 126 -32.5t23 -118.5q-17 -81 -79 -132l-70 -57q-41 -33 -55.5 -60t-27.5 -94l-13 -67h-28zM117 0l13 75h29l-14 -75h-28z" />
<glyph unicode="@" horiz-adv-x="762" d="M67 256q70 357 381 357q129 0 197 -61.5t67 -181.5q0 -52 -11 -104q-19 -96 -55.5 -142t-96.5 -46q-75 0 -79 61q-68 -70 -149 -70q-19 0 -33 3.5t-27.5 14.5t-19.5 29.5t-6 51t9 77.5q21 113 66.5 153.5t112.5 40.5q62 0 87 -30t9 -109l-26 -132q-7 -38 10.5 -52.5 t45.5 -14.5q50 0 81 40.5t48 129.5q10 49 10 99q1 111 -60 166t-180 55q-292 0 -357 -335q-12 -58 -12 -107q-1 -117 59 -172.5t179 -55.5q27 0 91 8l-2 -21q-45 -9 -89 -9q-130 0 -196.5 62.5t-65.5 189.5q0 35 12 105zM324 91q71 0 143 72l27 137q13 68 -4 92.5t-67 24.5 q-60 0 -97.5 -37t-56.5 -135q-15 -64 -8 -98t21.5 -45t41.5 -11z" />
<glyph unicode="A" horiz-adv-x="505" d="M-24 0l341 697h43l75 -697h-29l-21 195h-283l-94 -195h-32zM113 221h271l-49 449h-2z" />
<glyph unicode="B" horiz-adv-x="545" d="M240 0h-195l136 697h169q112 0 146.5 -43.5t17.5 -130.5q-15 -73 -50 -111t-96 -47q62 -7 92 -51t14 -127q-19 -100 -77.5 -143.5t-156.5 -43.5zM147 375h143q91 0 135 33.5t60 115.5q15 78 -12.5 112.5t-124.5 34.5h-144zM78 26h160q84 0 136.5 36t70.5 125 q17 87 -16 124.5t-129 37.5h-158z" />
<glyph unicode="C" horiz-adv-x="461" d="M372 37v-25q-50 -21 -140 -21q-114 0 -148.5 78.5t1.5 277.5q36 192 102 275.5t183 83.5q70 0 129 -16l-10 -24q-56 14 -118 14q-105 0 -163.5 -74t-94.5 -259q-34 -184 -6 -257t127 -73q76 0 138 20z" />
<glyph unicode="D" horiz-adv-x="549" d="M126 0h-81l134 697h81q54 0 87.5 -2.5t68.5 -10t53.5 -22.5t34.5 -40.5t18.5 -63t-1 -90t-17.5 -122.5q-16 -80 -34 -137t-43.5 -95.5t-51.5 -61t-67.5 -34t-80.5 -15t-101 -3.5zM79 26h48q49 0 78.5 1.5t65 8.5t57.5 20t46 36t40.5 58t32 84t28.5 115q11 58 16.5 102.5 t3 78t-7.5 57t-22 39.5t-33 25t-46.5 13.5t-57 5.5t-71.5 1h-54z" />
<glyph unicode="E" horiz-adv-x="481" d="M45 0l136 697h336l-5 -26h-307l-58 -295h251l-5 -26h-250l-64 -324h315l-4 -26h-345z" />
<glyph unicode="F" horiz-adv-x="463" d="M45 0l136 697h342l-6 -26h-313l-60 -311h247l-5 -26h-246l-66 -334h-29z" />
<glyph unicode="G" horiz-adv-x="528" d="M83 347q21 113 51 186.5t68.5 110t77 49.5t91.5 13q65 0 149 -20l-10 -24q-76 18 -141 18q-47 0 -81 -11.5t-68.5 -45t-61 -102t-46.5 -174.5q-16 -84 -19 -143.5t4.5 -95.5t28 -56.5t44.5 -27.5t61 -7q85 0 158 22l65 347h28l-68 -365q-76 -30 -184 -30q-41 0 -69.5 7 t-53 29.5t-35 60.5t-8.5 103.5t19 155.5z" />
<glyph unicode="H" horiz-adv-x="575" d="M45 0l136 697h29l-63 -321h336l63 321h29l-136 -697h-29l69 350h-336l-69 -350h-29z" />
<glyph unicode="I" horiz-adv-x="215" d="M45 0l136 697h29l-136 -697h-29z" />
<glyph unicode="J" horiz-adv-x="381" d="M-28 1l9 25q50 -9 100 -9q74 0 114 34.5t56 114.5l102 531h29l-102 -531q-19 -94 -66 -134.5t-133 -40.5q-67 0 -109 10z" />
<glyph unicode="K" horiz-adv-x="510" d="M45 0l136 697h29l-63 -322q36 -2 62 -15l319 337h36l-331 -349q30 -24 61 -73l173 -275h-32l-164 259q-30 50 -55.5 68t-74.5 22l-67 -349h-29z" />
<glyph unicode="L" horiz-adv-x="426" d="M45 0l136 697h29l-131 -671h276l-5 -26h-305z" />
<glyph unicode="M" horiz-adv-x="741" d="M621 0h-28l69 528l21 142h-2q-35 -59 -70 -120l-250 -421h-25l-92 417l-26 124h-2q-16 -73 -34 -144l-132 -526h-28l175 697h42l92 -418l22 -114h2q26 48 63 110l250 422h46z" />
<glyph unicode="N" horiz-adv-x="597" d="M45 0l134 697h42l148 -469q57 -174 64 -203h1l21 114l107 558h28l-134 -697h-42l-139 439q-71 218 -73 232h-2q-8 -55 -22 -123l-105 -548h-28z" />
<glyph unicode="O" horiz-adv-x="566" d="M83 344q39 196 105 280.5t185 84.5q117 0 152 -83t-2 -272q-38 -197 -104 -281.5t-185 -84.5q-117 0 -152 83.5t1 272.5zM237 14q106 0 164 78t93 262q36 176 8 252.5t-132 76.5q-105 0 -163.5 -78t-94.5 -262q-35 -175 -6.5 -252t131.5 -77z" />
<glyph unicode="P" horiz-adv-x="509" d="M45 0l136 697h182q103 0 138.5 -41t15.5 -149q-19 -94 -73 -143.5t-156 -49.5h-153l-62 -314h-28zM141 340h148q85 0 133 38t66 129q18 96 -9.5 130t-117.5 34h-157z" />
<glyph unicode="Q" horiz-adv-x="566" d="M83 344q39 196 105 280.5t185 84.5q117 0 152 -83t-2 -272q-33 -169 -85 -254t-140 -105q21 -43 62.5 -69t107.5 -44l-10 -24q-78 21 -122 49.5t-68 82.5q-22 -2 -34 -2q-117 0 -152 83.5t1 272.5zM237 14q106 0 164 78t93 262q36 176 8 252.5t-132 76.5 q-105 0 -163.5 -78t-94.5 -262q-35 -175 -6.5 -252t131.5 -77z" />
<glyph unicode="R" horiz-adv-x="533" d="M45 0l136 697h182q103 0 138.5 -40.5t15.5 -148.5q-34 -167 -170 -189q32 -14 46.5 -42t24.5 -83l32 -194h-29l-29 184q-10 64 -32.5 94.5t-78.5 30.5h-147l-60 -309h-29zM140 335h149q84 0 132.5 40.5t66.5 132.5q18 96 -9.5 129.5t-117.5 33.5h-157z" />
<glyph unicode="S" horiz-adv-x="474" d="M15 13l10 26q75 -22 162 -22t128.5 35t55.5 112q9 31 5 57.5t-8.5 43.5t-21 32.5t-32 25.5t-40.5 23l-44 23q-21 11 -34.5 19t-30.5 21t-24.5 25.5t-16 32t-6.5 40.5t5 51q28 148 195 148q87 0 148 -18l-10 -24q-71 16 -136 16q-77 0 -116.5 -32t-52.5 -94 q-8 -47 2.5 -78t30 -47t60.5 -37l45 -22q19 -9 32 -17t27.5 -19t24 -22.5t18 -27t12 -33t3 -40t-5.5 -49.5q-17 -87 -64.5 -129t-146.5 -42q-103 0 -174 22z" />
<glyph unicode="T" horiz-adv-x="433" d="M154 0l131 671h-181l6 26h392l-6 -26h-183l-131 -671h-28z" />
<glyph unicode="U" horiz-adv-x="564" d="M71 171l103 526h29l-103 -526q-16 -81 17 -119t119 -38t134 38t64 119l103 526h29l-103 -526q-19 -94 -74 -138.5t-152 -44.5q-202 0 -166 183z" />
<glyph unicode="V" horiz-adv-x="452" d="M159 0l-62 697h29l45 -508q12 -127 12 -162h1q4 12 73 159l237 511h31l-327 -697h-39z" />
<glyph unicode="W" horiz-adv-x="729" d="M119 0l-5 697h28l4 -535v-36.5v-35.5t-0.5 -29.5t-0.5 -22v-9.5h1q2 8 53 127l233 531h35l31 -532q6 -116 3 -127h2q3 13 47 128l207 541h30l-269 -697h-39l-25 446q-10 199 -8 213h-2q-7 -23 -91 -214l-196 -445h-38z" />
<glyph unicode="X" horiz-adv-x="503" d="M272 343h-3q-66 -87 -129 -166l-138 -177h-33l285 363l-135 334h30l58 -143l67 -171h3q75 97 132 168l115 146h33l-265 -335l149 -362h-30l-71 170z" />
<glyph unicode="Y" horiz-adv-x="461" d="M169 0l58 305l-139 392h31l98 -278q6 -19 13 -40.5t11 -32.5t4 -13h1q2 3 63 86l202 278h33l-288 -392l-58 -305h-29z" />
<glyph unicode="Z" horiz-adv-x="451" d="M-7 0l1 12l446 659h-296l5 26h335l-2 -13l-445 -658h327l-4 -26h-367z" />
<glyph unicode="[" horiz-adv-x="375" d="M218 -86h-146l168 864h146l-5 -24h-121l-159 -817h121z" />
<glyph unicode="\" horiz-adv-x="322" d="M129 698h24l80 -698h-25z" />
<glyph unicode="]" horiz-adv-x="375" d="M173 -86h-146l4 21h120l160 822h-120l4 21h146z" />
<glyph unicode="^" horiz-adv-x="527" d="M94 397l244 300h26l125 -300h-27l-114 274l-223 -274h-31z" />
<glyph unicode="_" horiz-adv-x="437" d="M-72 -129l5 23h436l-5 -23h-436z" />
<glyph unicode="`" horiz-adv-x="232" d="M249 640l-31 125h29l29 -125h-27z" />
<glyph unicode="a" horiz-adv-x="507" d="M55 233q13 69 33 120t42 79t50.5 44.5t52.5 21.5t55 5q79 0 163 -39l-70 -367q-10 -52 6 -68t66 0l2 -22q-28 -10 -52 -10q-64 0 -51 84h-2q-93 -90 -201 -90q-25 0 -42.5 4.5t-34 19.5t-24 40.5t-6.5 70.5t13 107zM288 477q-33 0 -57 -7t-54 -29.5t-54 -75t-39 -132.5 q-13 -69 -13.5 -114t12 -66.5t29 -28.5t42.5 -7q106 0 202 99l63 331q-57 30 -131 30z" />
<glyph unicode="b" horiz-adv-x="497" d="M178 722h29l-41 -214q-17 -91 -20 -94h1q41 39 93 64t98 25q28 0 47.5 -4.5t37 -19.5t25 -41t6.5 -70.5t-13 -106.5q-17 -87 -41 -143t-56.5 -82.5t-63 -35.5t-73.5 -9q-77 0 -163 38zM206 17q29 0 49 3.5t45.5 17.5t44 39.5t36.5 71.5t31 112q11 57 13 97t-3.5 63 t-19.5 36t-29 16.5t-39 3.5q-44 0 -97.5 -27t-96.5 -73l-64 -330q58 -30 130 -30z" />
<glyph unicode="c" horiz-adv-x="393" d="M56 238q27 135 82 200t151 65q40 0 105 -15l-11 -24q-44 13 -95 13q-82 0 -130.5 -58.5t-72.5 -180.5q-23 -122 3 -171.5t111 -49.5q43 0 101 14l2 -24q-55 -16 -105 -16q-100 0 -133 57.5t-8 189.5z" />
<glyph unicode="d" horiz-adv-x="497" d="M56 232q17 87 41.5 143.5t56.5 83t62 35.5t72 9q76 0 137 -32h1q6 30 14 73l34 178h29l-140 -722h-26l14 80h-2q-91 -89 -198 -89q-25 0 -43 4.5t-35 19.5t-24 40.5t-6 70t13 106.5zM357 116l64 331q-57 30 -131 30q-35 0 -60 -7t-54.5 -29.5t-52 -75t-38.5 -133.5 q-11 -56 -13 -96.5t3 -63t18 -35.5t27 -16.5t35 -3.5q50 0 104 26.5t98 72.5z" />
<glyph unicode="e" horiz-adv-x="474" d="M57 239q28 148 84.5 207.5t152.5 59.5q78 0 119 -38.5t27 -109.5t-46 -92.5t-105 -21.5q-109 0 -196 29q-1 -2 -7 -36q-9 -48 -10.5 -84.5t5 -60t16.5 -39t27.5 -23.5t35 -10.5t41.5 -2.5q74 0 160 27v-25q-81 -28 -165 -28q-35 0 -60 6t-47 22.5t-31 44t-12 71t11 104.5 zM99 298l7 -2q8 -2 17.5 -4.5t23 -6t29.5 -6.5t34 -5.5t38.5 -4t40.5 -1.5q62 0 87 19t36 73q11 55 -20 88t-97 33q-76 0 -122.5 -42.5t-73.5 -140.5z" />
<glyph unicode="f" horiz-adv-x="276" d="M-87 -228l-2 25q44 10 55 15q29 10 46 34t28 76l104 548h-77l4 24h78l20 105q14 76 46.5 103t92.5 27q47 0 85 -8l-9 -24q-54 6 -78 6q-47 0 -71.5 -21.5t-36.5 -84.5l-20 -103h143l-8 -24h-140l-105 -550q-13 -70 -38 -96.5t-70 -40.5q-2 0 -8.5 -2t-17.5 -4.5t-21 -4.5 z" />
<glyph unicode="g" horiz-adv-x="497" d="M168 71v1q-60 -10 -94 38t-12 157q14 70 36.5 118t54 73t64 35t75.5 10q78 0 161 -39l-92 -474q-21 -110 -81.5 -166.5t-146.5 -56.5q-57 0 -94 33.5t-23 101.5q19 101 152 169zM366 163l56 284q-62 30 -130 30q-34 0 -60 -7t-55 -27.5t-51 -65.5t-35 -113 q-22 -111 18.5 -152.5t130.5 -3.5zM333 -10l28 144q-7 0 -128 -55q-82 -38 -130 -78.5t-59 -98.5q-11 -59 18.5 -84t73.5 -25q75 0 126.5 50t70.5 147z" />
<glyph unicode="h" horiz-adv-x="512" d="M38 0l140 722h28l-43 -226l-18 -85h1q92 92 207 92q23 0 41 -5t37 -20.5t23 -43.5t-2 -74l-70 -360h-29l69 359q22 118 -75 118q-115 0 -207 -100l-73 -377h-29z" />
<glyph unicode="i" horiz-adv-x="206" d="M42 0l95 494h29l-95 -494h-29zM154 591l15 78h33l-15 -78h-33z" />
<glyph unicode="j" horiz-adv-x="204" d="M-106 -228l-2 25q44 10 57 15q30 10 47 34t28 76l111 572h29l-111 -574q-14 -70 -39 -96.5t-72 -40.5q-2 0 -8.5 -2t-17.5 -4.5t-22 -4.5zM151 592l15 77h33l-15 -77h-33z" />
<glyph unicode="k" horiz-adv-x="497" d="M68 0h-29l140 722h29l-59 -302q43 34 102 58.5t114 24.5q125 0 105 -106q-12 -64 -65 -104t-147 -69l31 -81q15 -38 22 -53.5t20 -35.5t28.5 -26.5t37.5 -6.5q23 0 50 10l4 -23q-30 -13 -61 -13q-27 0 -45.5 8t-33.5 29t-23.5 40t-24.5 60l-41 106q103 28 154.5 63.5 t64.5 95.5q9 40 -10 60t-71 20q-51 0 -111 -25t-105 -62z" />
<glyph unicode="l" horiz-adv-x="231" d="M165 20l-1 -25q-22 -4 -39 -4q-43 0 -61.5 20.5t-5.5 84.5l121 626h29l-121 -625q-10 -52 1.5 -66t42.5 -14q19 0 34 3z" />
<glyph unicode="m" horiz-adv-x="754" d="M39 0l95 494h27l-15 -81h1q92 90 184 90q41 0 65.5 -23.5t23.5 -73.5q46 47 89.5 72t96.5 25q45 0 74.5 -31.5t14.5 -109.5l-71 -362h-28l70 360q22 117 -66 117t-180 -101l-74 -376h-29l72 369q11 56 -7.5 82t-56.5 26q-41 0 -91 -26.5t-94 -73.5l-73 -377h-28z" />
<glyph unicode="n" horiz-adv-x="512" d="M38 0l96 494h26l-15 -81h2q90 90 205 90q18 0 33 -3t31.5 -12t25.5 -24.5t14 -41t-3 -61.5l-71 -361h-29l70 359q13 69 -10 93.5t-66 24.5q-115 0 -207 -100l-73 -377h-29z" />
<glyph unicode="o" d="M201 -12q-104 0 -137.5 58t-7.5 191q26 138 82.5 203.5t157.5 65.5t132.5 -66t5.5 -203q-26 -135 -78.5 -192t-154.5 -57zM204 14q87 0 132.5 50t69.5 173q24 126 -1.5 184.5t-110.5 58.5q-86 0 -135.5 -58.5t-73.5 -184.5q-24 -122 3.5 -172.5t115.5 -50.5z" />
<glyph unicode="p" horiz-adv-x="497" d="M443 262q-17 -87 -41 -143.5t-56.5 -83t-63 -35.5t-73.5 -9q-77 0 -137 31h-1q-5 -30 -12 -66l-34 -179h-29l139 717h26l-15 -81h2q39 39 91 64.5t99 25.5q29 0 48.5 -4.5t37 -19.5t25 -41t7 -70t-12.5 -106zM141 377l-64 -329q56 -31 130 -31q36 0 61.5 7t55 29.5 t52.5 74.5t38 133q11 57 12.5 97t-4 63t-19.5 36t-29.5 16.5t-39.5 3.5q-45 0 -97.5 -27t-95.5 -73z" />
<glyph unicode="q" horiz-adv-x="497" d="M320 -223h-29l43 220q15 81 17 83h-2q-91 -89 -196 -89q-26 0 -44.5 4.5t-35 19.5t-24 40.5t-6.5 70t13 106.5q16 87 40 143.5t56.5 83t63.5 35.5t75 9q79 0 163 -39zM291 477q-29 0 -49.5 -3.5t-46 -17.5t-44 -39.5t-36.5 -71.5t-30 -112q-11 -57 -13 -97.5t3 -63 t18 -35.5t27.5 -16.5t35.5 -3.5q50 0 103.5 26t97.5 73l65 331q-57 30 -131 30z" />
<glyph unicode="r" horiz-adv-x="328" d="M38 0l96 494h26l-15 -81h2q86 89 172 89q33 0 44 -3l-9 -27q-22 2 -39 2q-87 0 -175 -97l-73 -377h-29z" />
<glyph unicode="s" horiz-adv-x="430" d="M-5 22l10 24q98 -29 172 -29q63 0 98.5 20.5t47.5 85.5q9 51 -14.5 76.5t-87.5 47.5l-37 13q-64 21 -89 46.5t-14 84.5q12 64 51.5 88t107.5 24q84 0 159 -23l-9 -24q-73 21 -150 21q-57 0 -88.5 -18.5t-41.5 -68.5q-9 -44 10 -65.5t76 -40.5l38 -13q74 -24 101.5 -55.5 t15.5 -96.5q-14 -73 -55.5 -100.5t-118.5 -27.5q-89 0 -182 31z" />
<glyph unicode="t" horiz-adv-x="306" d="M63 96l75 374h-73l5 24h72l29 139l27 3l-27 -142h150l-8 -24h-147l-74 -374q-10 -51 3 -65t49 -14q33 0 80 10v-24q-38 -12 -82 -12q-49 0 -70 20.5t-9 84.5z" />
<glyph unicode="u" horiz-adv-x="512" d="M129 494h29l-70 -360q-22 -117 77 -117q113 0 206 99l74 378h29l-97 -494h-26l14 80h-1q-91 -89 -204 -89q-52 0 -84.5 30.5t-16.5 111.5z" />
<glyph unicode="v" horiz-adv-x="485" d="M159 494l-65 -331q-15 -78 5 -113.5t77 -35.5q68 0 130 51q69 60 94 192q19 101 -1 237h29q22 -130 1 -237q-30 -148 -111 -214q-67 -55 -149 -55q-71 0 -96 43t-8 131l65 332h29z" />
<glyph unicode="w" horiz-adv-x="756" d="M373 252l46 232h29l-64 -326q-27 -144 73 -144q79 0 136.5 70t77.5 173q19 101 -1 237h29q21 -136 1 -237q-21 -112 -86 -190.5t-158 -78.5q-16 0 -30.5 3t-31 12.5t-25 26.5t-13 44t5.5 66q-57 -152 -193 -152q-137 0 -105 167l66 339h29l-66 -339q-29 -141 80 -141 q154 0 200 238z" />
<glyph unicode="x" horiz-adv-x="439" d="M-22 0l227 263l-112 231h31l80 -165l22 -50q23 31 41 52l138 163h33l-199 -235l129 -259h-32l-91 181l-26 59q-23 -27 -49 -58l-157 -182h-35z" />
<glyph unicode="y" horiz-adv-x="516" d="M130 494h29l-54 -274q-16 -81 25.5 -113.5t130.5 2.5l123 54l64 331h29l-98 -504q-21 -110 -81 -166.5t-147 -56.5q-58 0 -94.5 33t-23.5 100q12 62 54 101t102 70h-1q-59 -8 -93 31t-18 118zM350 -10l28 145q-71 -30 -128 -56q-82 -38 -129.5 -78.5t-58.5 -98.5 q-11 -59 18 -84t73 -25q75 0 127 50.5t70 146.5z" />
<glyph unicode="z" horiz-adv-x="430" d="M1 0l3 15l366 453h-256l5 26h296l-3 -16l-366 -452h296l-4 -26h-337z" />
<glyph unicode="{" horiz-adv-x="354" d="M200 -86h-16q-64 0 -90.5 30.5t-10.5 109.5l37 189q11 58 -1.5 78t-50.5 20l4 23q38 0 58.5 20.5t31.5 77.5l35 176q15 80 52 110t109 30h10l-5 -22h-10q-58 0 -88 -25t-42 -89l-35 -180q-11 -52 -28 -77t-43 -33q45 -18 28 -110l-37 -192q-12 -64 6.5 -89t71.5 -25h18z " />
<glyph unicode="|" horiz-adv-x="257" d="M29 -196l212 1088h27l-212 -1088h-27z" />
<glyph unicode="}" horiz-adv-x="354" d="M233 243l-37 -189q-16 -80 -50 -110t-100 -30h-21l3 22h19q53 0 81.5 25t41.5 89l37 192q19 98 70 111q-46 17 -28 109l36 180q12 64 -8.5 89t-78.5 25h-10l5 22h8q69 0 96.5 -30.5t12.5 -109.5l-35 -176q-11 -57 1.5 -77.5t50.5 -20.5l-4 -23q-38 0 -58.5 -20t-31.5 -78 z" />
<glyph unicode="~" horiz-adv-x="510" d="M145 298l-14 17q32 30 64 30q24 0 43.5 -14t30.5 -30.5t27.5 -30.5t34.5 -14q19 0 47 22l14 -17q-30 -30 -64 -30q-23 0 -42.5 14t-30.5 30.5t-27.5 30.5t-36.5 14q-19 0 -46 -22z" />
<glyph unicode="&#xa1;" horiz-adv-x="212" d="M142 355l-108 -551h-29l109 551h28zM171 501l-15 -75h-30l15 75h30z" />
<glyph unicode="&#xa2;" horiz-adv-x="549" d="M112 328q24 127 74.5 192t138.5 71l21 106h23l-21 -105q42 -1 100 -15l-10 -25q-49 14 -94 14q-83 0 -131 -58t-72 -180t2 -172t111 -50q45 0 101 14l2 -24q-55 -16 -106 -16h-2l-19 -97h-23l19 98q-85 6 -112 64t-2 183z" />
<glyph unicode="&#xa3;" horiz-adv-x="547" d="M178 369l30 154q18 95 67 139t132 44q77 0 126 -15l-11 -24q-50 13 -115 13q-73 0 -114 -39t-56 -119l-31 -153h88l-4 -22h-88l-62 -321h300l-5 -26h-416l4 26h88l63 321h-74l4 22h74z" />
<glyph unicode="&#xa4;" horiz-adv-x="676" d="M109 129l-14 16l63 55q-41 64 -24 153q16 87 87 154l-45 56l20 17l44 -56q81 63 170 63q90 0 143 -64l67 56l14 -17l-68 -57q44 -66 27 -152q-16 -88 -85 -153l42 -54l-19 -16l-43 52q-79 -66 -170 -66q-92 0 -147 66zM322 140q85 0 157 62t90 151q17 86 -31.5 148 t-132.5 62q-86 0 -158 -61.5t-89 -148.5q-17 -88 31 -150.5t133 -62.5z" />
<glyph unicode="&#xa5;" horiz-adv-x="546" d="M151 314h116l-138 383h30l100 -278q29 -84 29 -86h2q3 7 63 86l207 278h33l-288 -383h117l-4 -22h-122l-14 -72h122l-4 -23h-122l-38 -197h-29l38 197h-120l4 23h120l14 72h-120z" />
<glyph unicode="&#xa6;" horiz-adv-x="257" d="M154 444l87 448h27l-87 -448h-27zM29 -196l87 447h27l-87 -447h-27z" />
<glyph unicode="&#xa7;" horiz-adv-x="499" d="M7 -88l9 26q75 -22 164 -22q91 0 128 24.5t51 98.5q2 22 3.5 37.5t-6.5 29.5t-15.5 24t-23.5 20t-30 17t-36 16l-47 19q-65 26 -91.5 59.5t-13.5 95.5q16 74 78 104q-51 39 -35 117q12 65 59.5 96t134.5 31q64 0 144 -20l-10 -24q-96 18 -137 18q-76 0 -114.5 -25.5 t-49.5 -79.5q-10 -53 12.5 -78t82.5 -48l53 -20q66 -25 96.5 -64t16.5 -107q-16 -78 -63 -114q32 -40 20 -108q-15 -82 -58 -113.5t-148 -31.5q-89 0 -174 22zM249 425q-25 9 -48 21q-62 -22 -75 -94q-10 -51 11.5 -76.5t80.5 -49.5l52 -21q54 -22 79 -43q38 26 54 99 q11 57 -16 88.5t-89 56.5z" />
<glyph unicode="&#xa8;" horiz-adv-x="968" d="M491 640h-32l15 75h32zM663 640h-31l15 75h31z" />
<glyph unicode="&#xa9;" horiz-adv-x="824" d="M765 350q-33 -171 -135.5 -266.5t-257.5 -95.5q-154 0 -222 96t-35 266q32 171 134 266.5t255 95.5q156 0 224.5 -96t36.5 -266zM742 350q32 161 -30 251t-206 90q-145 0 -241 -89.5t-128 -251.5q-32 -161 29 -251t206 -90t241.5 90t128.5 251zM488 163l-1 -20 q-36 -13 -96 -13q-26 0 -44.5 4.5t-34 18.5t-22 38t-5.5 64t12 95q18 92 45 141.5t59 65t84 15.5q42 0 82 -10l-7 -20q-40 8 -78 8q-42 0 -68.5 -12.5t-51 -57.5t-41.5 -130q-12 -64 -12.5 -104t11 -60.5t29 -27.5t47.5 -7q46 0 92 12z" />
<glyph unicode="&#xaa;" horiz-adv-x="326" d="M70 408q20 103 56 136t94 33q62 0 106 -24l-43 -221q-6 -32 4 -42t40 0l1 -20q-18 -6 -37 -6q-33 0 -36 40h-1q-63 -45 -117 -45q-30 0 -46.5 10t-26 43t5.5 96zM220 555q-46 0 -75.5 -27t-47.5 -118q-14 -56 -7 -84.5t18.5 -36t35.5 -7.5q47 0 112 46l41 209 q-33 18 -77 18z" />
<glyph unicode="&#xab;" horiz-adv-x="423" d="M132 54l-57 200l135 199h30l-139 -202l57 -197h-26zM274 54l-58 200l136 199h29l-139 -202l57 -197h-25z" />
<glyph unicode="&#xac;" horiz-adv-x="508" d="M101 300l6 25h337l-31 -163h-26l26 138h-312z" />
<glyph unicode="&#xad;" horiz-adv-x="362" d="M52 275l6 25h268l-5 -25h-269z" />
<glyph unicode="&#xae;" horiz-adv-x="503" d="M492 499q-18 -97 -77 -151.5t-149 -54.5q-91 0 -132 55t-23 151q19 97 78.5 152.5t149.5 55.5t131.5 -56.5t21.5 -151.5zM474 499q17 90 -18 140.5t-117 50.5t-137 -50.5t-72 -140.5t18 -139.5t118 -49.5t137 49.5t71 139.5zM222 391l45 229h63q36 0 48.5 -14.5 t5.5 -51.5q-9 -51 -51 -60q14 -6 19 -37l12 -66h-21l-10 60q-5 36 -32 36h-40l-18 -96h-21zM265 505h41q25 0 38.5 10.5t19.5 38.5q5 29 -2.5 38.5t-34.5 9.5h-43z" />
<glyph unicode="&#xaf;" horiz-adv-x="525" d="M458 693h-227l5 23h227z" />
<glyph unicode="&#xb0;" horiz-adv-x="347" d="M134 593q11 55 47.5 85t81.5 30q46 0 73.5 -30t16.5 -85q-11 -56 -46.5 -85.5t-82.5 -29.5q-48 0 -74.5 30t-15.5 85zM225 497q40 0 68.5 25.5t37.5 70.5t-10.5 70.5t-58.5 25.5q-38 0 -68 -26t-38 -70q-9 -44 10 -70t59 -26z" />
<glyph unicode="&#xb1;" horiz-adv-x="508" d="M232 179l35 180h-161l5 24h161l37 186h24l-36 -186h161l-5 -24h-161l-35 -180h-25zM37 0l5 24h346l-4 -24h-347z" />
<glyph unicode="&#xb2;" horiz-adv-x="303" d="M58 380l15 80q11 56 40.5 83.5t87.5 50.5l25 10q54 23 76 43.5t32 68.5q8 45 -7.5 61.5t-64.5 16.5q-40 0 -100 -15l-2 22q64 17 105 17q61 0 83 -23t11 -79q-11 -57 -38.5 -83t-87.5 -51l-27 -11q-49 -20 -73.5 -43.5t-33.5 -70.5l-11 -54h209l-4 -23h-235z" />
<glyph unicode="&#xb3;" horiz-adv-x="280" d="M43 396l10 21q44 -19 100 -19q48 0 76.5 24.5t40.5 82.5q10 55 -12.5 75t-70.5 20h-46l4 22l48 1q95 0 113 90q10 48 -10 64.5t-62 16.5q-45 0 -103 -18l-1 21q54 21 107 21q55 0 81 -22t15 -82q-9 -47 -34.5 -71t-52.5 -30q13 -4 21.5 -9t19.5 -18t11 -31.5t-3 -50.5 q-13 -69 -48 -99t-93 -30q-63 0 -111 21z" />
<glyph unicode="&#xb4;" horiz-adv-x="231" d="M236 766l-81 -126h-28l78 126h31z" />
<glyph unicode="&#xb5;" horiz-adv-x="500" d="M129 494h29l-70 -360q-5 -38 -3 -61t16.5 -35.5t29.5 -16.5t37 -4q84 0 188 80l76 397h29l-96 -494h-26l12 66h-1q-104 -75 -189 -75q-73 0 -93 48l-11 -65l-34 -172h-28l71 369z" />
<glyph unicode="&#xb6;" horiz-adv-x="593" d="M435 0l135 697h22l-135 -697h-22zM334 0l62 322h-105q-93 0 -129 37t-19 126l10 50q18 91 64.5 126.5t138.5 35.5h135l-135 -697h-22z" />
<glyph unicode="&#xb7;" horiz-adv-x="183" d="M84 305l7 39h38l-8 -39h-37z" />
<glyph unicode="&#xb8;" horiz-adv-x="408" d="M27 -228l9 21q37 -11 73 -11q66 0 74 45q4 20 -8.5 35t-30 22.5t-30 22t-8.5 35.5q4 25 31 50l21 -3q-22 -21 -29 -48q-3 -15 10.5 -27.5t30.5 -20.5t29 -25.5t8 -42.5q-13 -65 -97 -65q-19 0 -40 3t-32 6z" />
<glyph unicode="&#xb9;" horiz-adv-x="198" d="M128 380l79 409h-77l4 23h103l-83 -432h-26z" />
<glyph unicode="&#xba;" horiz-adv-x="316" d="M165 258q-68 0 -89.5 36t-4.5 119q16 85 50.5 125.5t100.5 40.5q65 0 85.5 -41t4.5 -125q-17 -84 -49.5 -119.5t-97.5 -35.5zM166 280q52 0 79 30t41 103q14 74 -1 109t-65 35q-51 0 -80 -35t-43 -109t1.5 -103.5t67.5 -29.5z" />
<glyph unicode="&#xbb;" horiz-adv-x="423" d="M211 254l-135 -200h-29l138 204l-57 195h26zM353 254l-136 -200h-29l138 204l-57 195h26z" />
<glyph unicode="&#xbc;" horiz-adv-x="572" d="M106 265l79 409h-77l4 23h103l-83 -432h-26zM277 128v23l200 285l22 -10l-83 -118l-112 -157h189l23 110h24l-51 -261h-25l24 128h-211zM30 -22l483 740h26l-483 -740h-26z" />
<glyph unicode="&#xbd;" horiz-adv-x="628" d="M106 265l79 409h-77l4 23h103l-83 -432h-26zM311 0l14 80q12 56 41.5 83.5t86.5 50.5l25 10q55 23 77 43.5t31 68.5q8 45 -7 61.5t-64 16.5q-41 0 -101 -15l-2 22q64 17 106 17q60 0 82 -23t11 -79q-11 -57 -38.5 -83t-87.5 -51l-27 -11q-49 -20 -73.5 -43.5t-33.5 -70.5 l-10 -54h208l-4 -23h-234zM30 -22l483 740h26l-483 -740h-26z" />
<glyph unicode="&#xbe;" horiz-adv-x="644" d="M21 281l10 21q44 -19 100 -19q48 0 76.5 24.5t40.5 82.5q10 55 -12.5 75t-70.5 20h-46l4 22l48 1q95 0 113 90q10 48 -10 64.5t-62 16.5q-45 0 -103 -18l-1 21q54 21 107 21q55 0 81 -22t15 -82q-9 -47 -34.5 -71t-52.5 -30q13 -4 21.5 -9t19.5 -18t11 -31.5t-3 -50.5 q-13 -69 -48 -99t-93 -30q-63 0 -111 21zM348 128v23l201 285l21 -10l-83 -118l-112 -157h189l23 110h24l-50 -261h-26l24 128h-211zM102 -22l483 740h26l-483 -740h-26z" />
<glyph unicode="&#xbf;" horiz-adv-x="407" d="M264 356l-14 -70q-15 -74 -32 -105.5t-64 -69.5l-64 -52q-57 -45 -71 -114q-14 -74 18.5 -99.5t107.5 -25.5q56 0 130 19l-1 -23q-56 -21 -135 -21q-86 0 -125 32.5t-23 118.5q17 81 81 132l70 56q39 32 52.5 59t27.5 96l14 67h28zM292 501l-14 -75h-29l16 75h27z" />
<glyph unicode="&#xc0;" horiz-adv-x="505" d="M-24 0l341 697h43l75 -697h-29l-21 195h-283l-94 -195h-32zM113 221h271l-49 449h-2zM336 748l-31 125h29l29 -125h-27z" />
<glyph unicode="&#xc1;" horiz-adv-x="505" d="M-24 0l341 697h43l75 -697h-29l-21 195h-283l-94 -195h-32zM113 221h271l-49 449h-2zM444 874l-81 -126h-28l78 126h31z" />
<glyph unicode="&#xc2;" horiz-adv-x="505" d="M-24 0l341 697h43l75 -697h-29l-21 195h-283l-94 -195h-32zM113 221h271l-49 449h-2zM230 748l137 126h13l92 -126h-28l-73 101l-110 -101h-31z" />
<glyph unicode="&#xc3;" horiz-adv-x="505" d="M-24 0l341 697h43l75 -697h-29l-21 195h-283l-94 -195h-32zM113 221h271l-49 449h-2zM263 765l-9 15q28 25 57 25q22 0 49.5 -19t44.5 -19q24 0 44 19l10 -15q-27 -27 -58 -27q-22 0 -49.5 19t-45.5 19q-19 0 -43 -17z" />
<glyph unicode="&#xc4;" horiz-adv-x="505" d="M-24 0l341 697h43l75 -697h-29l-21 195h-283l-94 -195h-32zM113 221h271l-49 449h-2zM282 748h-32l15 75h32zM454 748h-31l15 75h31z" />
<glyph unicode="&#xc5;" horiz-adv-x="505" d="M-24 0l341 697h43l75 -697h-29l-21 195h-283l-94 -195h-32zM113 221h271l-49 449h-2zM276 837q8 45 38.5 71t74.5 26t64 -26t11 -71q-8 -44 -38.5 -70t-73.5 -26q-44 0 -64.5 26t-11.5 70zM297 837q-7 -35 8.5 -55.5t49.5 -20.5t58 21t30 55q7 35 -8.5 56t-49.5 21 t-57.5 -21t-30.5 -56z" />
<glyph unicode="&#xc6;" horiz-adv-x="725" d="M-32 0l366 697h425l-5 -26h-372l20 -295h240l-4 -26h-235l22 -324h216l-4 -26h-239l-14 195h-282l-103 -195h-31zM114 221h270l-31 451h-2z" />
<glyph unicode="&#xc7;" horiz-adv-x="461" d="M72 -218l9 21q37 -11 73 -11q66 0 74 45q4 20 -8.5 35t-30 22.5t-30 22t-8.5 35.5t25 45q-79 17 -101 97t10 253q36 192 102 275.5t183 83.5q70 0 129 -16l-10 -24q-56 14 -118 14q-105 0 -163.5 -74t-94.5 -259q-34 -184 -6 -257t127 -73q76 0 138 20v-25 q-50 -21 -140 -21q-13 0 -35 2q-19 -19 -23 -42q-3 -15 10.5 -27.5t30.5 -20.5t29 -25.5t8 -42.5q-13 -65 -97 -65q-19 0 -40 3t-32 6z" />
<glyph unicode="&#xc8;" horiz-adv-x="481" d="M45 0l136 697h336l-5 -26h-307l-58 -295h251l-5 -26h-250l-64 -324h315l-4 -26h-345zM348 748l-31 125h29l29 -125h-27z" />
<glyph unicode="&#xc9;" horiz-adv-x="481" d="M45 0l136 697h336l-5 -26h-307l-58 -295h251l-5 -26h-250l-64 -324h315l-4 -26h-345zM457 874l-81 -126h-28l78 126h31z" />
<glyph unicode="&#xca;" horiz-adv-x="481" d="M45 0l136 697h336l-5 -26h-307l-58 -295h251l-5 -26h-250l-64 -324h315l-4 -26h-345zM241 748l137 126h13l92 -126h-28l-73 101l-110 -101h-31z" />
<glyph unicode="&#xcb;" horiz-adv-x="481" d="M45 0l136 697h336l-5 -26h-307l-58 -295h251l-5 -26h-250l-64 -324h315l-4 -26h-345zM292 748h-32l15 75h32zM464 748h-31l15 75h31z" />
<glyph unicode="&#xcc;" horiz-adv-x="215" d="M45 0l136 697h29l-136 -697h-29zM191 748l-31 125h29l29 -125h-27z" />
<glyph unicode="&#xcd;" horiz-adv-x="215" d="M45 0l136 697h29l-136 -697h-29zM298 874l-81 -126h-28l78 126h31z" />
<glyph unicode="&#xce;" horiz-adv-x="215" d="M45 0l136 697h29l-136 -697h-29zM83 748l137 126h13l92 -126h-28l-73 101l-110 -101h-31z" />
<glyph unicode="&#xcf;" horiz-adv-x="215" d="M45 0l136 697h29l-136 -697h-29zM134 748h-32l15 75h32zM306 748h-31l15 75h31z" />
<glyph unicode="&#xd0;" horiz-adv-x="549" d="M49 352l5 23h63l62 322h81q54 0 87.5 -2.5t68.5 -10t53.5 -22.5t34.5 -40.5t18.5 -63t-1 -90t-17.5 -122.5q-16 -80 -34 -137t-43.5 -95.5t-51.5 -61t-67.5 -34t-80.5 -15t-101 -3.5h-81l67 352h-63zM79 26h48q49 0 78.5 1.5t65 8.5t57.5 20t46 36t40.5 58t32 84 t28.5 115q11 58 16.5 102.5t3 78t-7.5 57t-22 39.5t-33 25t-46.5 13.5t-57 5.5t-71.5 1h-54l-57 -296h136l-5 -23h-136z" />
<glyph unicode="&#xd1;" horiz-adv-x="597" d="M45 0l134 697h42l148 -469q57 -174 64 -203h1l21 114l107 558h28l-134 -697h-42l-139 439q-71 218 -73 232h-2q-8 -55 -22 -123l-105 -548h-28zM309 764l-9 15q28 25 57 25q22 0 49.5 -19t44.5 -19q24 0 44 19l10 -15q-27 -27 -58 -27q-22 0 -49.5 19t-45.5 19 q-19 0 -43 -17z" />
<glyph unicode="&#xd2;" horiz-adv-x="566" d="M83 344q39 196 105 280.5t185 84.5q117 0 152 -83t-2 -272q-38 -197 -104 -281.5t-185 -84.5q-117 0 -152 83.5t1 272.5zM237 14q106 0 164 78t93 262q36 176 8 252.5t-132 76.5q-105 0 -163.5 -78t-94.5 -262q-35 -175 -6.5 -252t131.5 -77zM371 748l-31 125h29l29 -125 h-27z" />
<glyph unicode="&#xd3;" horiz-adv-x="566" d="M83 344q39 196 105 280.5t185 84.5q117 0 152 -83t-2 -272q-38 -197 -104 -281.5t-185 -84.5q-117 0 -152 83.5t1 272.5zM237 14q106 0 164 78t93 262q36 176 8 252.5t-132 76.5q-105 0 -163.5 -78t-94.5 -262q-35 -175 -6.5 -252t131.5 -77zM479 874l-81 -126h-28 l78 126h31z" />
<glyph unicode="&#xd4;" horiz-adv-x="566" d="M83 344q39 196 105 280.5t185 84.5q117 0 152 -83t-2 -272q-38 -197 -104 -281.5t-185 -84.5q-117 0 -152 83.5t1 272.5zM237 14q106 0 164 78t93 262q36 176 8 252.5t-132 76.5q-105 0 -163.5 -78t-94.5 -262q-35 -175 -6.5 -252t131.5 -77zM263 748l137 126h13l92 -126 h-28l-73 101l-110 -101h-31z" />
<glyph unicode="&#xd5;" horiz-adv-x="566" d="M83 344q39 196 105 280.5t185 84.5q117 0 152 -83t-2 -272q-38 -197 -104 -281.5t-185 -84.5q-117 0 -152 83.5t1 272.5zM237 14q106 0 164 78t93 262q36 176 8 252.5t-132 76.5q-105 0 -163.5 -78t-94.5 -262q-35 -175 -6.5 -252t131.5 -77zM297 764l-9 15q28 25 57 25 q22 0 49.5 -19t44.5 -19q24 0 44 19l10 -15q-27 -27 -58 -27q-22 0 -49.5 19t-45.5 19q-19 0 -43 -17z" />
<glyph unicode="&#xd6;" horiz-adv-x="566" d="M83 344q39 196 105 280.5t185 84.5q117 0 152 -83t-2 -272q-38 -197 -104 -281.5t-185 -84.5q-117 0 -152 83.5t1 272.5zM237 14q106 0 164 78t93 262q36 176 8 252.5t-132 76.5q-105 0 -163.5 -78t-94.5 -262q-35 -175 -6.5 -252t131.5 -77zM315 748h-32l15 75h32z M487 748h-31l15 75h31z" />
<glyph unicode="&#xd7;" horiz-adv-x="508" d="M74 127l-16 16l196 168l-132 166q4 3 10 8.5t8 7.5l132 -166l192 166l16 -17l-193 -165l128 -164l-17 -17l-128 164z" />
<glyph unicode="&#xd8;" horiz-adv-x="566" d="M35 -30l-16 12l65 85q-38 85 -1 277q39 196 105 280.5t185 84.5q101 0 140 -61l59 80l17 -11l-65 -88q36 -83 -1 -275q-38 -197 -104 -281.5t-185 -84.5q-100 0 -140 60zM112 343q-35 -174 -7 -251q152 210 157 217l232 315q-32 59 -124 59q-105 0 -164 -78t-94 -262z M237 14q106 0 164 78t94 262q35 174 7 251q-167 -229 -174 -239l-214 -295q34 -57 123 -57z" />
<glyph unicode="&#xd9;" horiz-adv-x="564" d="M71 171l103 526h29l-103 -526q-16 -81 17 -119t119 -38t134 38t64 119l103 526h29l-103 -526q-19 -94 -74 -138.5t-152 -44.5q-202 0 -166 183zM368 748l-31 125h29l29 -125h-27z" />
<glyph unicode="&#xda;" horiz-adv-x="564" d="M71 171l103 526h29l-103 -526q-16 -81 17 -119t119 -38t134 38t64 119l103 526h29l-103 -526q-19 -94 -74 -138.5t-152 -44.5q-202 0 -166 183zM477 874l-81 -126h-28l78 126h31z" />
<glyph unicode="&#xdb;" horiz-adv-x="564" d="M71 171l103 526h29l-103 -526q-16 -81 17 -119t119 -38t134 38t64 119l103 526h29l-103 -526q-19 -94 -74 -138.5t-152 -44.5q-202 0 -166 183zM260 748l137 126h13l92 -126h-28l-73 101l-110 -101h-31z" />
<glyph unicode="&#xdc;" horiz-adv-x="564" d="M71 171l103 526h29l-103 -526q-16 -81 17 -119t119 -38t134 38t64 119l103 526h29l-103 -526q-19 -94 -74 -138.5t-152 -44.5q-202 0 -166 183zM312 748h-32l15 75h32zM484 748h-31l15 75h31z" />
<glyph unicode="&#xdd;" horiz-adv-x="461" d="M169 0l58 305l-139 392h31l98 -278q6 -19 13 -40.5t11 -32.5t4 -13h1q2 3 63 86l202 278h33l-288 -392l-58 -305h-29zM426 874l-81 -126h-28l78 126h31z" />
<glyph unicode="&#xde;" horiz-adv-x="524" d="M109 205h149q87 0 133.5 38t64.5 129q18 96 -10 130t-118 34h-155zM179 562h145q105 0 143 -41t18 -149q-18 -95 -69.5 -144t-153.5 -49h-158l-34 -179h-28l132 697h28z" />
<glyph unicode="&#xdf;" horiz-adv-x="512" d="M23 -78l112 574q16 85 60 131.5t139 46.5q74 0 111.5 -34t27.5 -88q-7 -39 -33.5 -71.5t-52 -61.5t-30.5 -57q-5 -24 5 -45t27.5 -38t34 -36.5t25.5 -50t2 -68.5q-12 -68 -48 -99t-104 -31q-40 0 -74 8l9 24q37 -7 64 -7q56 0 84.5 25t40.5 83q7 35 -2 62.5t-26 45.5 t-34.5 35.5t-27.5 41.5t-4 54q7 37 56.5 91t58.5 96q9 41 -19.5 68t-91.5 27q-82 0 -118.5 -40.5t-50.5 -113.5l-112 -574q-14 -70 -39 -97t-71 -40q-2 0 -8.5 -2t-17.5 -4.5t-22 -4.5l-3 25q41 9 57 15q30 10 47.5 34t27.5 76z" />
<glyph unicode="&#xe0;" horiz-adv-x="507" d="M55 233q13 69 33 120t42 79t50.5 44.5t52.5 21.5t55 5q79 0 163 -39l-70 -367q-10 -52 6 -68t66 0l2 -22q-28 -10 -52 -10q-64 0 -51 84h-2q-93 -90 -201 -90q-25 0 -42.5 4.5t-34 19.5t-24 40.5t-6.5 70.5t13 107zM288 477q-33 0 -57 -7t-54 -29.5t-54 -75t-39 -132.5 q-13 -69 -13.5 -114t12 -66.5t29 -28.5t42.5 -7q106 0 202 99l63 331q-57 30 -131 30zM304 577l-31 125h29l29 -125h-27z" />
<glyph unicode="&#xe1;" horiz-adv-x="507" d="M55 233q13 69 33 120t42 79t50.5 44.5t52.5 21.5t55 5q79 0 163 -39l-70 -367q-10 -52 6 -68t66 0l2 -22q-28 -10 -52 -10q-64 0 -51 84h-2q-93 -90 -201 -90q-25 0 -42.5 4.5t-34 19.5t-24 40.5t-6.5 70.5t13 107zM288 477q-33 0 -57 -7t-54 -29.5t-54 -75t-39 -132.5 q-13 -69 -13.5 -114t12 -66.5t29 -28.5t42.5 -7q106 0 202 99l63 331q-57 30 -131 30zM412 703l-81 -126h-28l78 126h31z" />
<glyph unicode="&#xe2;" horiz-adv-x="507" d="M55 233q13 69 33 120t42 79t50.5 44.5t52.5 21.5t55 5q79 0 163 -39l-70 -367q-10 -52 6 -68t66 0l2 -22q-28 -10 -52 -10q-64 0 -51 84h-2q-93 -90 -201 -90q-25 0 -42.5 4.5t-34 19.5t-24 40.5t-6.5 70.5t13 107zM288 477q-33 0 -57 -7t-54 -29.5t-54 -75t-39 -132.5 q-13 -69 -13.5 -114t12 -66.5t29 -28.5t42.5 -7q106 0 202 99l63 331q-57 30 -131 30zM196 577l137 126h13l92 -126h-28l-73 101l-110 -101h-31z" />
<glyph unicode="&#xe3;" horiz-adv-x="507" d="M55 233q13 69 33 120t42 79t50.5 44.5t52.5 21.5t55 5q79 0 163 -39l-70 -367q-10 -52 6 -68t66 0l2 -22q-28 -10 -52 -10q-64 0 -51 84h-2q-93 -90 -201 -90q-25 0 -42.5 4.5t-34 19.5t-24 40.5t-6.5 70.5t13 107zM288 477q-33 0 -57 -7t-54 -29.5t-54 -75t-39 -132.5 q-13 -69 -13.5 -114t12 -66.5t29 -28.5t42.5 -7q106 0 202 99l63 331q-57 30 -131 30zM231 593l-9 15q28 25 57 25q22 0 49.5 -19t44.5 -19q24 0 44 19l10 -15q-27 -27 -58 -27q-22 0 -49.5 19t-45.5 19q-19 0 -43 -17z" />
<glyph unicode="&#xe4;" horiz-adv-x="507" d="M55 233q13 69 33 120t42 79t50.5 44.5t52.5 21.5t55 5q79 0 163 -39l-70 -367q-10 -52 6 -68t66 0l2 -22q-28 -10 -52 -10q-64 0 -51 84h-2q-93 -90 -201 -90q-25 0 -42.5 4.5t-34 19.5t-24 40.5t-6.5 70.5t13 107zM288 477q-33 0 -57 -7t-54 -29.5t-54 -75t-39 -132.5 q-13 -69 -13.5 -114t12 -66.5t29 -28.5t42.5 -7q106 0 202 99l63 331q-57 30 -131 30zM248 577h-32l15 75h32zM420 577h-31l15 75h31z" />
<glyph unicode="&#xe5;" horiz-adv-x="507" d="M55 233q13 69 33 120t42 79t50.5 44.5t52.5 21.5t55 5q79 0 163 -39l-70 -367q-10 -52 6 -68t66 0l2 -22q-28 -10 -52 -10q-64 0 -51 84h-2q-93 -90 -201 -90q-25 0 -42.5 4.5t-34 19.5t-24 40.5t-6.5 70.5t13 107zM288 477q-33 0 -57 -7t-54 -29.5t-54 -75t-39 -132.5 q-13 -69 -13.5 -114t12 -66.5t29 -28.5t42.5 -7q106 0 202 99l63 331q-57 30 -131 30zM241 665q8 45 38.5 71t74.5 26t64 -26t11 -71q-8 -44 -38.5 -70t-73.5 -26q-44 0 -64.5 26t-11.5 70zM262 665q-7 -35 8.5 -55.5t49.5 -20.5t58 21t30 55q7 35 -8.5 56t-49.5 21 t-57.5 -21t-30.5 -56z" />
<glyph unicode="&#xe6;" horiz-adv-x="800" d="M298 503q65 0 98.5 -26t30.5 -96q29 66 76 95.5t115 29.5q76 0 117.5 -38.5t27.5 -107.5q-13 -70 -44 -93t-105 -23q-112 0 -199 29l-8 -36q-9 -48 -10.5 -84.5t5 -60t16.5 -39t27.5 -23.5t35 -10.5t41.5 -2.5q81 0 159 26v-24q-74 -28 -163 -28q-63 0 -100.5 22.5 t-48.5 79.5q-99 -102 -226 -102q-134 0 -106 139l1 8q15 78 58 112.5t114 44.5q52 9 184 11l3 21q14 91 -10.5 120.5t-90.5 29.5q-81 0 -171 -30l-2 24q88 32 175 32zM378 239l9 43q-127 -2 -180 -12q-62 -11 -95 -42t-46 -94q-13 -69 9.5 -93.5t72.5 -24.5q56 0 114.5 27.5 t103.5 77.5q-2 52 12 118zM421 298q1 0 8 -2t16 -4.5t22.5 -6t29.5 -6.5t34 -5.5t38 -4t40 -1.5q63 0 88.5 18t36.5 74q11 55 -19.5 88t-96.5 33q-75 0 -123 -42.5t-74 -140.5z" />
<glyph unicode="&#xe7;" horiz-adv-x="393" d="M45 -216l9 21q37 -11 73 -11q66 0 74 45q4 20 -8.5 35t-30 22.5t-30 22t-8.5 35.5q2 17 22 42q-70 13 -91 70.5t1 171.5q27 135 82 200t151 65q40 0 105 -15l-11 -24q-44 13 -95 13q-82 0 -130.5 -58.5t-72.5 -180.5q-23 -122 3 -171.5t111 -49.5q43 0 101 14l2 -24 q-55 -16 -105 -16q-20 0 -30 1q-16 -18 -20 -39q-3 -15 10.5 -27.5t30.5 -20.5t29 -25.5t8 -42.5q-13 -65 -97 -65q-19 0 -40 3t-32 6z" />
<glyph unicode="&#xe8;" horiz-adv-x="474" d="M57 239q28 148 84.5 207.5t152.5 59.5q78 0 119 -38.5t27 -109.5t-46 -92.5t-105 -21.5q-109 0 -196 29q-1 -2 -7 -36q-9 -48 -10.5 -84.5t5 -60t16.5 -39t27.5 -23.5t35 -10.5t41.5 -2.5q74 0 160 27v-25q-81 -28 -165 -28q-35 0 -60 6t-47 22.5t-31 44t-12 71t11 104.5 zM99 298l7 -2q8 -2 17.5 -4.5t23 -6t29.5 -6.5t34 -5.5t38.5 -4t40.5 -1.5q62 0 87 19t36 73q11 55 -20 88t-97 33q-76 0 -122.5 -42.5t-73.5 -140.5zM301 577l-31 125h29l29 -125h-27z" />
<glyph unicode="&#xe9;" horiz-adv-x="474" d="M57 239q28 148 84.5 207.5t152.5 59.5q78 0 119 -38.5t27 -109.5t-46 -92.5t-105 -21.5q-109 0 -196 29q-1 -2 -7 -36q-9 -48 -10.5 -84.5t5 -60t16.5 -39t27.5 -23.5t35 -10.5t41.5 -2.5q74 0 160 27v-25q-81 -28 -165 -28q-35 0 -60 6t-47 22.5t-31 44t-12 71t11 104.5 zM99 298l7 -2q8 -2 17.5 -4.5t23 -6t29.5 -6.5t34 -5.5t38.5 -4t40.5 -1.5q62 0 87 19t36 73q11 55 -20 88t-97 33q-76 0 -122.5 -42.5t-73.5 -140.5zM410 703l-81 -126h-28l78 126h31z" />
<glyph unicode="&#xea;" horiz-adv-x="474" d="M57 239q28 148 84.5 207.5t152.5 59.5q78 0 119 -38.5t27 -109.5t-46 -92.5t-105 -21.5q-109 0 -196 29q-1 -2 -7 -36q-9 -48 -10.5 -84.5t5 -60t16.5 -39t27.5 -23.5t35 -10.5t41.5 -2.5q74 0 160 27v-25q-81 -28 -165 -28q-35 0 -60 6t-47 22.5t-31 44t-12 71t11 104.5 zM99 298l7 -2q8 -2 17.5 -4.5t23 -6t29.5 -6.5t34 -5.5t38.5 -4t40.5 -1.5q62 0 87 19t36 73q11 55 -20 88t-97 33q-76 0 -122.5 -42.5t-73.5 -140.5zM194 577l137 126h13l92 -126h-28l-73 101l-110 -101h-31z" />
<glyph unicode="&#xeb;" horiz-adv-x="474" d="M57 239q28 148 84.5 207.5t152.5 59.5q78 0 119 -38.5t27 -109.5t-46 -92.5t-105 -21.5q-109 0 -196 29q-1 -2 -7 -36q-9 -48 -10.5 -84.5t5 -60t16.5 -39t27.5 -23.5t35 -10.5t41.5 -2.5q74 0 160 27v-25q-81 -28 -165 -28q-35 0 -60 6t-47 22.5t-31 44t-12 71t11 104.5 zM99 298l7 -2q8 -2 17.5 -4.5t23 -6t29.5 -6.5t34 -5.5t38.5 -4t40.5 -1.5q62 0 87 19t36 73q11 55 -20 88t-97 33q-76 0 -122.5 -42.5t-73.5 -140.5zM245 577h-32l15 75h32zM417 577h-31l15 75h31z" />
<glyph unicode="&#xec;" horiz-adv-x="206" d="M42 0l95 494h29l-96 -494h-28zM154 577l-31 125h29l29 -125h-27z" />
<glyph unicode="&#xed;" horiz-adv-x="206" d="M42 0l95 494h29l-96 -494h-28zM261 703l-81 -126h-28l78 126h31z" />
<glyph unicode="&#xee;" horiz-adv-x="206" d="M42 0l95 494h29l-96 -494h-28zM46 577l137 126h13l92 -126h-28l-73 101l-110 -101h-31z" />
<glyph unicode="&#xef;" horiz-adv-x="206" d="M42 0l95 494h29l-96 -494h-28zM96 577h-32l15 75h32zM268 577h-31l15 75h31z" />
<glyph unicode="&#xf0;" horiz-adv-x="488" d="M440 653l-73 -32q38 -38 58.5 -82.5t22.5 -97.5t-2.5 -95.5t-17.5 -105.5q-27 -135 -80 -193.5t-154 -58.5q-100 0 -131.5 58.5t-5.5 190.5q27 137 82.5 201.5t151.5 64.5q38 0 74 -12t54 -24l-2 9q-2 9 -3 12t-4 13t-6 16t-7 16t-9.5 18.5t-12.5 18.5t-16 19.5t-19 19.5 l-134 -58l-7 20l124 54q-41 33 -96 59l12 21q66 -30 111 -69l84 37zM401 246q25 123 19 194q-54 38 -127 39q-85 1 -134 -57.5t-73 -184.5q-24 -122 1 -172.5t109 -50.5q87 0 133.5 52.5t71.5 179.5z" />
<glyph unicode="&#xf1;" horiz-adv-x="512" d="M38 0l96 494h26l-15 -81h2q90 90 205 90q18 0 33 -3t31.5 -12t25.5 -24.5t14 -41t-3 -61.5l-71 -361h-29l70 359q13 69 -10 93.5t-66 24.5q-115 0 -207 -100l-73 -377h-29zM238 593l-9 15q28 25 57 25q22 0 49.5 -19t44.5 -19q24 0 44 19l10 -15q-27 -27 -58 -27 q-22 0 -49.5 19t-45.5 19q-19 0 -43 -17z" />
<glyph unicode="&#xf2;" d="M201 -12q-104 0 -137.5 58t-7.5 191q26 138 82.5 203.5t157.5 65.5t132.5 -66t5.5 -203q-26 -135 -78.5 -192t-154.5 -57zM204 14q87 0 132.5 50t69.5 173q24 126 -1.5 184.5t-110.5 58.5q-86 0 -135.5 -58.5t-73.5 -184.5q-24 -122 3.5 -172.5t115.5 -50.5zM303 577 l-31 125h29l29 -125h-27z" />
<glyph unicode="&#xf3;" d="M201 -12q-104 0 -137.5 58t-7.5 191q26 138 82.5 203.5t157.5 65.5t132.5 -66t5.5 -203q-26 -135 -78.5 -192t-154.5 -57zM204 14q87 0 132.5 50t69.5 173q24 126 -1.5 184.5t-110.5 58.5q-86 0 -135.5 -58.5t-73.5 -184.5q-24 -122 3.5 -172.5t115.5 -50.5zM412 703 l-81 -126h-28l78 126h31z" />
<glyph unicode="&#xf4;" d="M201 -12q-104 0 -137.5 58t-7.5 191q26 138 82.5 203.5t157.5 65.5t132.5 -66t5.5 -203q-26 -135 -78.5 -192t-154.5 -57zM204 14q87 0 132.5 50t69.5 173q24 126 -1.5 184.5t-110.5 58.5q-86 0 -135.5 -58.5t-73.5 -184.5q-24 -122 3.5 -172.5t115.5 -50.5zM195 577 l137 126h13l92 -126h-28l-73 101l-110 -101h-31z" />
<glyph unicode="&#xf5;" d="M201 -12q-104 0 -137.5 58t-7.5 191q26 138 82.5 203.5t157.5 65.5t132.5 -66t5.5 -203q-26 -135 -78.5 -192t-154.5 -57zM204 14q87 0 132.5 50t69.5 173q24 126 -1.5 184.5t-110.5 58.5q-86 0 -135.5 -58.5t-73.5 -184.5q-24 -122 3.5 -172.5t115.5 -50.5zM230 593 l-9 15q28 25 57 25q22 0 49.5 -19t44.5 -19q24 0 44 19l10 -15q-27 -27 -58 -27q-22 0 -49.5 19t-45.5 19q-19 0 -43 -17z" />
<glyph unicode="&#xf6;" d="M201 -12q-104 0 -137.5 58t-7.5 191q26 138 82.5 203.5t157.5 65.5t132.5 -66t5.5 -203q-26 -135 -78.5 -192t-154.5 -57zM204 14q87 0 132.5 50t69.5 173q24 126 -1.5 184.5t-110.5 58.5q-86 0 -135.5 -58.5t-73.5 -184.5q-24 -122 3.5 -172.5t115.5 -50.5zM247 577h-32 l15 75h32zM419 577h-31l15 75h31z" />
<glyph unicode="&#xf7;" horiz-adv-x="508" d="M280 465l7 37h32l-8 -37h-31zM213 125l8 36h31l-7 -36h-32zM82 301l5 24h365l-5 -24h-365z" />
<glyph unicode="&#xf8;" d="M203 -12q-89 0 -126 40l-50 -58l-16 13l53 63q-34 60 -8 191q26 138 82 203.5t157 65.5q84 0 120 -47l54 62l16 -12l-58 -69q33 -64 7 -203q-26 -135 -77.5 -192t-153.5 -57zM204 14q87 0 132.5 50t69.5 173q23 126 -1 182q-8 -10 -48.5 -57.5t-77 -90.5t-44.5 -54 l-139 -165q28 -38 108 -38zM85 237q-24 -117 1 -169l167 199l143 169q-28 44 -102 44q-86 0 -135.5 -58.5t-73.5 -184.5z" />
<glyph unicode="&#xf9;" horiz-adv-x="512" d="M129 494h29l-70 -360q-22 -117 77 -117q113 0 206 99l74 378h29l-97 -494h-26l14 80h-1q-91 -89 -204 -89q-52 0 -84.5 30.5t-16.5 111.5zM304 577l-31 125h29l29 -125h-27z" />
<glyph unicode="&#xfa;" horiz-adv-x="512" d="M129 494h29l-70 -360q-22 -117 77 -117q113 0 206 99l74 378h29l-97 -494h-26l14 80h-1q-91 -89 -204 -89q-52 0 -84.5 30.5t-16.5 111.5zM413 703l-81 -126h-28l78 126h31z" />
<glyph unicode="&#xfb;" horiz-adv-x="512" d="M129 494h29l-70 -360q-22 -117 77 -117q113 0 206 99l74 378h29l-97 -494h-26l14 80h-1q-91 -89 -204 -89q-52 0 -84.5 30.5t-16.5 111.5zM197 577l137 126h13l92 -126h-28l-73 101l-110 -101h-31z" />
<glyph unicode="&#xfc;" horiz-adv-x="512" d="M129 494h29l-70 -360q-22 -117 77 -117q113 0 206 99l74 378h29l-97 -494h-26l14 80h-1q-91 -89 -204 -89q-52 0 -84.5 30.5t-16.5 111.5zM248 577h-32l15 75h32zM420 577h-31l15 75h31z" />
<glyph unicode="&#xfd;" horiz-adv-x="516" d="M130 494h29l-54 -274q-16 -81 25.5 -113.5t130.5 2.5l123 54l64 331h29l-98 -504q-21 -110 -81 -166.5t-147 -56.5q-58 0 -94.5 33t-23.5 100q12 62 54 101t102 70h-1q-59 -8 -93 31t-18 118zM350 -10l28 145q-71 -30 -128 -56q-82 -38 -129.5 -78.5t-58.5 -98.5 q-11 -59 18 -84t73 -25q75 0 127 50.5t70 146.5zM417 703l-81 -126h-28l78 126h31z" />
<glyph unicode="&#xfe;" horiz-adv-x="497" d="M56 -60l-32 -163h-29l184 946h29l-44 -226q-3 -14 -7.5 -35.5t-7.5 -35.5l-3 -15h1q42 41 93.5 66.5t100.5 25.5q29 0 48.5 -4.5t36.5 -19.5t23.5 -41t5.5 -70.5t-13 -106.5q-17 -86 -42 -142.5t-57.5 -83t-62 -35.5t-69.5 -9q-76 0 -140 31q-5 -29 -15 -82zM210 17 q26 0 45 3.5t44.5 17.5t44.5 39t37.5 72t31.5 112q14 71 15 115.5t-12 65.5t-31 28t-48 7q-45 0 -98.5 -27t-97.5 -73l-64 -329q57 -31 133 -31z" />
<glyph unicode="&#xff;" horiz-adv-x="516" d="M130 494h29l-54 -274q-16 -81 25.5 -113.5t130.5 2.5l123 54l64 331h29l-98 -504q-21 -110 -81 -166.5t-147 -56.5q-58 0 -94.5 33t-23.5 100q12 62 54 101t102 70h-1q-59 -8 -93 31t-18 118zM350 -10l28 145q-71 -30 -128 -56q-82 -38 -129.5 -78.5t-58.5 -98.5 q-11 -59 18 -84t73 -25q75 0 127 50.5t70 146.5zM248 577h-32l15 75h32zM420 577h-31l15 75h31z" />
<glyph unicode="&#x152;" horiz-adv-x="787" d="M82 349q38 193 102.5 276.5t180.5 83.5q74 0 118 -36l5 24h335l-5 -26h-306l-57 -295h251l-5 -26h-250l-62 -324h316l-5 -26h-345l4 22q-53 -34 -124 -34q-118 0 -153.5 84.5t0.5 276.5zM239 14q76 0 125 38l113 591q-35 40 -112 40q-104 0 -161.5 -76.5t-92.5 -257.5 q-35 -179 -6 -257t134 -78z" />
<glyph unicode="&#x153;" horiz-adv-x="816" d="M198 -12q-101 0 -134 58t-8 191q27 138 81.5 203.5t153.5 65.5q141 0 146 -146q32 79 80.5 112.5t120.5 33.5q78 0 118.5 -38.5t26.5 -107.5q-13 -69 -44 -92.5t-107 -23.5q-24 0 -49.5 2t-45 5t-38.5 7t-31 7t-21.5 5.5t-10.5 2.5l-8 -36q-9 -48 -11 -84.5t4.5 -60 t17 -39t28 -23.5t35 -10.5t41.5 -2.5q76 0 159 26v-24q-77 -28 -163 -28q-69 0 -106.5 27.5t-41.5 99.5q-27 -67 -73.5 -98.5t-119.5 -31.5zM200 14q86 0 131 50t68 173q26 124 1 183.5t-110 59.5q-84 0 -132 -58.5t-73 -184.5q-24 -122 2.5 -172.5t112.5 -50.5zM442 298 q1 0 8 -2t16 -4.5t22.5 -6t29.5 -6.5t34 -5.5t38 -4t40 -1.5q67 0 91 19.5t33 72.5q11 55 -19 88t-96 33q-76 0 -123.5 -42.5t-73.5 -140.5z" />
<glyph unicode="&#x178;" horiz-adv-x="461" d="M169 0l58 305l-139 392h31l98 -278q6 -19 13 -40.5t11 -32.5t4 -13h1q2 3 63 86l202 278h33l-288 -392l-58 -305h-29zM261 748h-32l15 75h32zM433 748h-31l15 75h31z" />
<glyph unicode="&#x2c6;" horiz-adv-x="307" d="M109 640l137 126h13l92 -126h-28l-73 101l-110 -101h-31z" />
<glyph unicode="&#x2dc;" horiz-adv-x="510" d="M259 716l-9 15q28 25 57 25q22 0 49.5 -19t44.5 -19q24 0 44 19l10 -15q-27 -27 -58 -27q-22 0 -49.5 19t-45.5 19q-19 0 -43 -17z" />
<glyph unicode="&#x1e9e;" horiz-adv-x="579" d="M38 0l103 520q18 94 68 140t161 46q102 0 195 -28l-5 -26q-87 -81 -108 -107q-32 -42 -41 -88q-6 -31 0.5 -57t20.5 -43t30.5 -37.5t30 -41t18.5 -53.5t-3 -75q-16 -82 -59 -119t-123 -37q-45 0 -87 10l9 24q60 -9 81 -9q65 0 101 32t49 102q9 46 0 81t-28 57t-37.5 43.5 t-28.5 54t-2 74.5q7 35 29 69.5t45.5 58t73.5 69.5q-71 21 -163 21q-98 0 -140.5 -41t-57.5 -120l-103 -520h-29z" />
<glyph unicode="&#x2000;" horiz-adv-x="467" />
<glyph unicode="&#x2001;" horiz-adv-x="934" />
<glyph unicode="&#x2002;" horiz-adv-x="467" />
<glyph unicode="&#x2003;" horiz-adv-x="934" />
<glyph unicode="&#x2004;" horiz-adv-x="311" />
<glyph unicode="&#x2005;" horiz-adv-x="233" />
<glyph unicode="&#x2006;" horiz-adv-x="155" />
<glyph unicode="&#x2007;" horiz-adv-x="155" />
<glyph unicode="&#x2008;" horiz-adv-x="116" />
<glyph unicode="&#x2009;" horiz-adv-x="186" />
<glyph unicode="&#x200a;" horiz-adv-x="51" />
<glyph unicode="&#x2010;" horiz-adv-x="362" d="M52 275l6 25h268l-5 -25h-269z" />
<glyph unicode="&#x2011;" horiz-adv-x="362" d="M52 275l6 25h268l-5 -25h-269z" />
<glyph unicode="&#x2012;" horiz-adv-x="362" d="M52 275l6 25h268l-5 -25h-269z" />
<glyph unicode="&#x2013;" horiz-adv-x="498" d="M52 276l6 25h404l-5 -25h-405z" />
<glyph unicode="&#x2014;" horiz-adv-x="988" d="M52 276l6 25h894l-5 -25h-895z" />
<glyph unicode="&#x2018;" horiz-adv-x="193" d="M201 722h28q-51 -76 -70 -177h-27q20 103 69 177z" />
<glyph unicode="&#x2019;" horiz-adv-x="193" d="M144 545h-28q49 74 69 177h28q-22 -109 -69 -177z" />
<glyph unicode="&#x201a;" horiz-adv-x="193" d="M18 -102h-28q19 27 39 76.5t30 100.5h28q-23 -113 -69 -177z" />
<glyph unicode="&#x201c;" horiz-adv-x="297" d="M304 722h29q-51 -73 -71 -177h-28q21 103 70 177zM201 722h28q-51 -76 -70 -177h-27q20 103 69 177z" />
<glyph unicode="&#x201d;" horiz-adv-x="297" d="M246 545h-28q51 73 71 177h28q-11 -54 -31.5 -102.5t-39.5 -74.5zM144 545h-28q49 74 69 177h28q-22 -109 -69 -177z" />
<glyph unicode="&#x201e;" horiz-adv-x="297" d="M121 -102h-28q50 73 70 177h28q-23 -112 -70 -177zM18 -102h-28q19 27 39 76.5t30 100.5h28q-23 -113 -69 -177z" />
<glyph unicode="&#x2022;" horiz-adv-x="210" d="M86 316l13 66h65l-13 -66h-65z" />
<glyph unicode="&#x2026;" horiz-adv-x="608" d="M50 0l15 78h36l-14 -78h-37zM240 0l14 78h37l-15 -78h-36zM427 0l15 78h36l-14 -78h-37z" />
<glyph unicode="&#x202f;" horiz-adv-x="186" />
<glyph unicode="&#x2039;" horiz-adv-x="284" d="M132 54l-57 200l135 199h30l-139 -202l57 -197h-26z" />
<glyph unicode="&#x203a;" horiz-adv-x="284" d="M211 254l-135 -200h-29l138 204l-57 195h26z" />
<glyph unicode="&#x205f;" horiz-adv-x="233" />
<glyph unicode="&#x20ac;" horiz-adv-x="547" d="M293 398h-103q-1 -5 -4.5 -23t-5.5 -28q-7 -38 -8 -44h103l-5 -23h-102q-10 -67 -10 -114.5t8 -76.5t27 -45t40.5 -21.5t54.5 -5.5q75 0 135 20l1 -25q-55 -21 -138 -21q-38 0 -63.5 6t-49 24t-32.5 50t-12.5 83.5t10.5 125.5h-55l5 23h54q1 6 8 44q2 10 5.5 28t4.5 23 h-54l5 23h55q22 89 49 147t61.5 87.5t69.5 40t83 10.5q71 0 122 -16l-9 -24q-53 14 -114 14q-42 0 -72.5 -9.5t-61 -36t-55 -79t-44.5 -134.5h102z" />
<glyph unicode="&#x2116;" horiz-adv-x="886" d="M751 357q-71 0 -94 35.5t-7 121.5q16 83 54.5 122.5t108.5 39.5q71 0 93 -39t6 -122q-17 -86 -53 -122t-108 -36zM41 0l132 697h42l151 -471q62 -188 63 -199h1l21 112l105 558h28l-132 -697h-42l-152 471q-58 178 -62 199h-1l-22 -122l-104 -548h-28zM755 380 q57 0 86 29.5t44 105.5q14 72 -3.5 105t-72.5 33q-56 0 -86.5 -33t-44.5 -106q-15 -75 2.5 -104.5t74.5 -29.5zM611 271l4 23h246l-4 -23h-246z" />
<glyph unicode="&#x2122;" horiz-adv-x="657" d="M609 348h-20l35 248l11 77h-1q-13 -24 -35 -62l-119 -203h-15l-41 200l-10 65h-2q-9 -40 -18 -78l-64 -247h-21l90 349h28l42 -205l9 -55h1q12 23 30 55l119 205h30zM150 348l64 330h-89l4 19h201l-4 -19h-91l-64 -330h-21z" />
<glyph unicode="&#x25fc;" d="M0 495h495v-495h-495v495z" />
<glyph unicode="&#xfb06;" horiz-adv-x="725" d="M482 96l75 374h-73l5 24h72l35 170q-43 16 -101 16q-52 0 -86 -25t-44 -72q-12 -66 34 -103l-9 -25q-77 22 -150 22q-57 0 -88.5 -18.5t-41.5 -68.5q-9 -44 10 -65.5t76 -40.5l38 -13q74 -24 101.5 -55.5t15.5 -96.5q-14 -73 -55.5 -100.5t-118.5 -27.5q-89 0 -182 31 l10 25q101 -30 172 -30q63 0 98.5 20.5t47.5 85.5q9 51 -14.5 76.5t-87.5 47.5l-37 13q-64 21 -89 46.5t-14 84.5q12 64 51.5 88t107.5 24q52 0 119 -13q-30 44 -19 97q23 116 156 116q75 0 131 -23l-37 -186h150l-8 -24h-147l-74 -374q-10 -51 3 -65t49 -14q33 0 80 10v-24 q-38 -12 -82 -12q-49 0 -70 20.5t-9 84.5z" />
<glyph horiz-adv-x="362" d="M63 331l6 25h268l-5 -25h-269z" />
<glyph horiz-adv-x="498" d="M63 331l6 25h404l-5 -25h-405z" />
<glyph horiz-adv-x="988" d="M63 331l6 25h894l-5 -25h-895z" />
<glyph horiz-adv-x="4" d="M-7 360l8 39h35l-8 -39h-35z" />
<glyph horiz-adv-x="2" d="M-91 350l8 39h35l-8 -39h-35z" />
<glyph horiz-adv-x="573" d="M537 474v-27l-84 -24q1 -6 7 -33t8.5 -39.5t6.5 -38.5t5 -44t0 -42t-5 -44q-34 -194 -250 -194q-104 0 -148.5 51t-25.5 147q28 143 183 197v2q-110 31 -87 156q16 82 65 123.5t139 41.5q69 0 108 -13l-10 -24q-48 11 -97 11q-80 0 -121.5 -35.5t-54.5 -105.5 q-8 -40 -0.5 -68.5t28 -43t34 -20t33.5 -10.5q7 2 266 77zM425 415q-161 -47 -172 -51q-148 -49 -174 -181q-32 -169 148 -169q186 0 220 172q5 23 5 50t-1 45.5t-7.5 50.5t-8.5 41.5t-10 41.5z" />
<glyph horiz-adv-x="461" d="M372 37v-25q-50 -21 -140 -21q-114 0 -148.5 78.5t1.5 277.5q36 192 102 275.5t183 83.5q70 0 129 -16l-10 -24q-56 14 -118 14q-105 0 -163.5 -74t-94.5 -259q-34 -184 -6 -257t127 -73q76 0 138 20zM159 -185h-29q3 2 8 6.5t17 17.5t20.5 27t14 34.5t2.5 40.5h29 q4 -34 -11.5 -65.5t-33.5 -45.5z" />
<glyph horiz-adv-x="566" d="M83 344q39 196 105 280.5t185 84.5q117 0 152 -83t-2 -272q-38 -197 -104 -281.5t-185 -84.5q-117 0 -152 83.5t1 272.5zM237 14q106 0 164 78t93 262q36 176 8 252.5t-132 76.5q-105 0 -163.5 -78t-94.5 -262q-35 -175 -6.5 -252t131.5 -77zM460 874l-61 -126h-26 l58 126h29z" />
<glyph horiz-adv-x="482" d="M353 0h-26l14 80h-1q-92 -89 -196 -89q-64 0 -92.5 31t-14.5 108l1 8q15 82 57 114.5t116 42.5q55 9 173 11l3 21q17 90 -7 120t-86 30q-82 0 -172 -30l-1 24q88 32 179 32q69 0 102 -36.5t14 -138.5zM347 116l32 166q-110 -2 -173 -12q-64 -11 -95.5 -40t-44.5 -96 q-14 -70 8.5 -94t73.5 -24q49 0 102 26.5t97 73.5z" />
<glyph horiz-adv-x="477" d="M57 239q28 146 85 206.5t157 60.5q58 0 92 -18t44 -53t5.5 -77.5t-22.5 -100.5h-328q-29 -139 -2.5 -189.5t114.5 -50.5q85 0 164 28v-25q-87 -29 -167 -29q-101 0 -134.5 57.5t-7.5 190.5zM95 282h300q14 46 17.5 79t-4 62t-35 43.5t-74.5 14.5q-83 -1 -130 -47 t-74 -152z" />
<glyph horiz-adv-x="276" d="M56 0l89 470h-78l4 24h78l21 105q14 75 46.5 102.5t88.5 27.5q47 0 89 -8l-9 -24q-54 6 -78 6q-47 0 -71.5 -21.5t-37.5 -84.5l-20 -103h143l-8 -24h-139l-90 -470h-28z" />
<glyph horiz-adv-x="497" d="M80 -233l1 25q57 9 118 28q23 7 39.5 16t36 26t34 47t22.5 72l21 108h-1q-91 -89 -198 -89q-25 0 -43 4.5t-34.5 19t-24 40t-7 69.5t12.5 105q16 85 39.5 140t55 81t62.5 35t75 9q81 0 164 -39l-94 -484q-18 -89 -55.5 -127.5t-97.5 -56.5q-65 -19 -126 -29zM86 238 q-11 -56 -12.5 -95.5t3.5 -62t18 -35t27.5 -16t35.5 -3.5q50 0 103 26.5t97 72.5l63 322q-60 30 -132 30q-36 0 -61 -7t-54 -29t-51 -73t-37 -130z" />
<glyph horiz-adv-x="202" d="M38 0l141 722h29l-141 -722h-29z" />
<glyph horiz-adv-x="296" d="M52 95l104 537l30 4l-28 -142h149l-4 -24h-150l-73 -374q-10 -51 3.5 -65t49.5 -14q51 0 79 10l1 -24q-38 -12 -82 -12q-50 0 -71 20t-8 84z" />
<glyph horiz-adv-x="513" d="M161 0q-23 0 -41 5t-37.5 20.5t-23.5 43.5t2 74l68 351h29l-68 -350q-23 -118 77 -118q112 0 206 99l72 369h29l-100 -514q-17 -89 -51 -125.5t-101 -57.5q-48 -17 -126 -30v25q82 16 122 30q37 12 56.5 24.5t39.5 45t31 88.5l22 110h-1q-92 -90 -205 -90z" />
<glyph horiz-adv-x="482" d="M353 0h-26l14 80h-1q-92 -89 -196 -89q-64 0 -92.5 31t-14.5 108l1 8q15 82 57 114.5t116 42.5q55 9 173 11l3 21q17 90 -7 120t-86 30q-82 0 -172 -30l-1 24q88 32 179 32q69 0 102 -36.5t14 -138.5zM347 116l32 166q-110 -2 -173 -12q-64 -11 -95.5 -40t-44.5 -96 q-14 -70 8.5 -94t73.5 -24q49 0 102 26.5t97 73.5zM304 577l-31 125h29l29 -125h-27z" />
<glyph horiz-adv-x="482" d="M353 0h-26l14 80h-1q-92 -89 -196 -89q-64 0 -92.5 31t-14.5 108l1 8q15 82 57 114.5t116 42.5q55 9 173 11l3 21q17 90 -7 120t-86 30q-82 0 -172 -30l-1 24q88 32 179 32q69 0 102 -36.5t14 -138.5zM347 116l32 166q-110 -2 -173 -12q-64 -11 -95.5 -40t-44.5 -96 q-14 -70 8.5 -94t73.5 -24q49 0 102 26.5t97 73.5zM413 703l-81 -126h-28l78 126h31z" />
<glyph horiz-adv-x="482" d="M353 0h-26l14 80h-1q-92 -89 -196 -89q-64 0 -92.5 31t-14.5 108l1 8q15 82 57 114.5t116 42.5q55 9 173 11l3 21q17 90 -7 120t-86 30q-82 0 -172 -30l-1 24q88 32 179 32q69 0 102 -36.5t14 -138.5zM347 116l32 166q-110 -2 -173 -12q-64 -11 -95.5 -40t-44.5 -96 q-14 -70 8.5 -94t73.5 -24q49 0 102 26.5t97 73.5zM197 577l137 126h13l92 -126h-28l-73 101l-110 -101h-31z" />
<glyph horiz-adv-x="482" d="M353 0h-26l14 80h-1q-92 -89 -196 -89q-64 0 -92.5 31t-14.5 108l1 8q15 82 57 114.5t116 42.5q55 9 173 11l3 21q17 90 -7 120t-86 30q-82 0 -172 -30l-1 24q88 32 179 32q69 0 102 -36.5t14 -138.5zM347 116l32 166q-110 -2 -173 -12q-64 -11 -95.5 -40t-44.5 -96 q-14 -70 8.5 -94t73.5 -24q49 0 102 26.5t97 73.5zM231 593l-9 15q28 25 57 25q22 0 49.5 -19t44.5 -19q24 0 44 19l10 -15q-27 -27 -58 -27q-22 0 -49.5 19t-45.5 19q-19 0 -43 -17z" />
<glyph horiz-adv-x="482" d="M353 0h-26l14 80h-1q-92 -89 -196 -89q-64 0 -92.5 31t-14.5 108l1 8q15 82 57 114.5t116 42.5q55 9 173 11l3 21q17 90 -7 120t-86 30q-82 0 -172 -30l-1 24q88 32 179 32q69 0 102 -36.5t14 -138.5zM347 116l32 166q-110 -2 -173 -12q-64 -11 -95.5 -40t-44.5 -96 q-14 -70 8.5 -94t73.5 -24q49 0 102 26.5t97 73.5zM248 577h-32l15 75h32zM420 577h-31l15 75h31z" />
<glyph horiz-adv-x="482" d="M353 0h-26l14 80h-1q-92 -89 -196 -89q-64 0 -92.5 31t-14.5 108l1 8q15 82 57 114.5t116 42.5q55 9 173 11l3 21q17 90 -7 120t-86 30q-82 0 -172 -30l-1 24q88 32 179 32q69 0 102 -36.5t14 -138.5zM347 116l32 166q-110 -2 -173 -12q-64 -11 -95.5 -40t-44.5 -96 q-14 -70 8.5 -94t73.5 -24q49 0 102 26.5t97 73.5zM241 665q8 45 38.5 71t74.5 26t64 -26t11 -71q-8 -44 -38.5 -70t-73.5 -26q-44 0 -64.5 26t-11.5 70zM262 665q-7 -35 8.5 -55.5t49.5 -20.5t58 21t30 55q7 35 -8.5 56t-49.5 21t-57.5 -21t-30.5 -56z" />
<glyph horiz-adv-x="806" d="M299 503q65 0 98.5 -26t30.5 -96q55 122 193 122q91 0 122 -41.5t17 -121.5q-9 -45 -20 -83h-328q-23 -91 -14.5 -144.5t38.5 -74.5t87 -21q75 0 158 26v-24q-77 -28 -162 -28q-66 0 -102 24.5t-46 78.5q-48 -50 -108.5 -76.5t-118.5 -26.5q-134 0 -106 139l1 8 q15 78 58.5 112.5t112.5 44.5q52 9 185 11l3 21q14 91 -10.5 120.5t-91.5 29.5q-78 0 -171 -30l-1 24q88 32 175 32zM379 239l9 43q-127 -2 -180 -12q-62 -11 -95.5 -42.5t-45.5 -93.5q-14 -68 8.5 -93t73.5 -25q56 0 115 28.5t104 78.5q-3 45 11 116zM417 282h300 q8 25 15 59q13 69 -12.5 103.5t-98.5 33.5q-83 -1 -130 -45.5t-74 -150.5z" />
<glyph horiz-adv-x="477" d="M57 239q28 146 85 206.5t157 60.5q58 0 92 -18t44 -53t5.5 -77.5t-22.5 -100.5h-328q-29 -139 -2.5 -189.5t114.5 -50.5q85 0 164 28v-25q-87 -29 -167 -29q-101 0 -134.5 57.5t-7.5 190.5zM95 282h300q14 46 17.5 79t-4 62t-35 43.5t-74.5 14.5q-83 -1 -130 -47 t-74 -152zM302 577l-31 125h29l29 -125h-27z" />
<glyph horiz-adv-x="477" d="M57 239q28 146 85 206.5t157 60.5q58 0 92 -18t44 -53t5.5 -77.5t-22.5 -100.5h-328q-29 -139 -2.5 -189.5t114.5 -50.5q85 0 164 28v-25q-87 -29 -167 -29q-101 0 -134.5 57.5t-7.5 190.5zM95 282h300q14 46 17.5 79t-4 62t-35 43.5t-74.5 14.5q-83 -1 -130 -47 t-74 -152zM411 703l-81 -126h-28l78 126h31z" />
<glyph horiz-adv-x="477" d="M57 239q28 146 85 206.5t157 60.5q58 0 92 -18t44 -53t5.5 -77.5t-22.5 -100.5h-328q-29 -139 -2.5 -189.5t114.5 -50.5q85 0 164 28v-25q-87 -29 -167 -29q-101 0 -134.5 57.5t-7.5 190.5zM95 282h300q14 46 17.5 79t-4 62t-35 43.5t-74.5 14.5q-83 -1 -130 -47 t-74 -152zM195 577l137 126h13l92 -126h-28l-73 101l-110 -101h-31z" />
<glyph horiz-adv-x="477" d="M57 239q28 146 85 206.5t157 60.5q58 0 92 -18t44 -53t5.5 -77.5t-22.5 -100.5h-328q-29 -139 -2.5 -189.5t114.5 -50.5q85 0 164 28v-25q-87 -29 -167 -29q-101 0 -134.5 57.5t-7.5 190.5zM95 282h300q14 46 17.5 79t-4 62t-35 43.5t-74.5 14.5q-83 -1 -130 -47 t-74 -152zM246 577h-32l15 75h32zM418 577h-31l15 75h31z" />
<glyph horiz-adv-x="261" d="M24 -78l130 677q14 75 46.5 102.5t92.5 27.5q45 0 85 -8l-8 -24q-57 6 -78 6q-47 0 -72.5 -22t-36.5 -84l-20 -103h143l-8 -24h-139l-106 -550q-13 -70 -38 -97t-71 -40q-2 0 -8.5 -2t-17 -4.5t-21.5 -4.5l-2 25q42 9 55 15q30 10 47 34t27 76z" />
<glyph horiz-adv-x="818" d="M194 -12q-99 2 -131 59.5t-7 189.5q27 138 82 203.5t153 65.5q73 0 108 -36t37 -110q32 78 82 112t125 34q169 0 137 -170q-7 -37 -19 -79h-328q-29 -139 -3.5 -189.5t113.5 -50.5q84 0 165 28l1 -25q-91 -29 -169 -29q-74 0 -110.5 29.5t-39.5 95.5q-29 -66 -75.5 -97 t-120.5 -31zM200 14q84 0 130 50.5t69 172.5q26 124 1 183.5t-110 59.5q-84 0 -132 -58.5t-73 -184.5q-24 -122 2.5 -172.5t112.5 -50.5zM438 282h300q4 12 14 59q13 69 -12 105t-97 35q-83 -1 -131 -47t-74 -152z" />
<glyph horiz-adv-x="513" d="M161 0q-23 0 -41 5t-37.5 20.5t-23.5 43.5t2 74l68 351h29l-68 -350q-23 -118 77 -118q112 0 206 99l72 369h29l-100 -514q-17 -89 -51 -125.5t-101 -57.5q-48 -17 -126 -30v25q82 16 122 30q37 12 56.5 24.5t39.5 45t31 88.5l22 110h-1q-92 -90 -205 -90zM408 703 l-81 -126h-28l78 126h31z" />
<glyph horiz-adv-x="513" d="M161 0q-23 0 -41 5t-37.5 20.5t-23.5 43.5t2 74l68 351h29l-68 -350q-23 -118 77 -118q112 0 206 99l72 369h29l-100 -514q-17 -89 -51 -125.5t-101 -57.5q-48 -17 -126 -30v25q82 16 122 30q37 12 56.5 24.5t39.5 45t31 88.5l22 110h-1q-92 -90 -205 -90zM243 577h-32 l15 75h32zM415 577h-31l15 75h31z" />
<glyph horiz-adv-x="393" d="M56 238q27 135 82 200t151 65q40 0 105 -15l-11 -24q-44 13 -95 13q-82 0 -130.5 -58.5t-72.5 -180.5q-23 -122 3 -171.5t111 -49.5q43 0 101 14l2 -24q-55 -16 -105 -16q-100 0 -133 57.5t-8 189.5zM125 -185h-29q3 2 8 6.5t17 17.5t20.5 27t14 34.5t2.5 40.5h29 q4 -34 -11.5 -65.5t-33.5 -45.5z" />
<glyph d="M201 -12q-104 0 -137.5 58t-7.5 191q26 138 82.5 203.5t157.5 65.5t132.5 -66t5.5 -203q-26 -135 -78.5 -192t-154.5 -57zM204 14q87 0 132.5 50t69.5 173q24 126 -1.5 184.5t-110.5 58.5q-86 0 -135.5 -58.5t-73.5 -184.5q-24 -122 3.5 -172.5t115.5 -50.5zM392 703 l-61 -126h-26l58 126h29z" />
<glyph horiz-adv-x="470" d="M179 494h118l-8 -24h-114l-107 -550q-13 -70 -38.5 -97t-71.5 -40q-2 0 -8.5 -2t-17.5 -4.5t-22 -4.5l-3 25q41 9 57 15q30 10 47.5 34t27.5 76l107 548h-78l5 24h77l20 105q15 75 47.5 102.5t89.5 27.5q88 0 167 -18l-139 -711h-29l135 691q-86 12 -131 12 q-48 0 -73.5 -21.5t-37.5 -84.5z" />
<glyph horiz-adv-x="941" d="M468 0l133 690q-38 15 -101 15q-54 0 -91.5 -28t-47.5 -84q-14 -72 38 -113l-9 -25q-77 22 -150 22q-57 0 -88.5 -18.5t-41.5 -68.5q-9 -44 10 -65.5t76 -40.5l38 -13q74 -24 101.5 -55.5t15.5 -96.5q-14 -73 -55.5 -100.5t-118.5 -27.5q-89 0 -182 31l10 25 q101 -30 172 -30q63 0 98.5 20.5t47.5 85.5q9 51 -14.5 76.5t-87.5 47.5l-37 13q-64 21 -89 46.5t-14 84.5q12 64 51.5 88t107.5 24q59 0 117 -13q-32 46 -21 108q11 63 55.5 96.5t109.5 33.5q75 0 132 -23l-41 -209l-18 -85h1q94 92 207 92q23 0 41 -5t37 -20.5t23 -43.5 t-2 -74l-70 -360h-28l69 359q12 69 -10.5 93.5t-65.5 24.5q-113 0 -207 -100l-72 -377h-29z" />
<glyph horiz-adv-x="698" d="M455 96l74 374h-72l4 24h72l36 173q-39 13 -86 13q-48 0 -80 -25t-41 -72q-12 -60 32 -95l-11 -25q-54 14 -95 14q-82 0 -130.5 -58.5t-72.5 -180.5q-23 -122 3 -171.5t111 -49.5q43 0 101 14l2 -24q-55 -16 -105 -16q-100 0 -133 57.5t-8 189.5q27 135 82 200t151 65 q28 0 65 -7q-29 35 -18 92q12 56 50.5 85.5t95.5 29.5q69 0 118 -20l-38 -189h150l-8 -24h-146l-75 -374q-10 -51 3 -65t50 -14q32 0 79 10l1 -24q-38 -12 -83 -12q-49 0 -70 20.5t-8 84.5z" />
<glyph horiz-adv-x="905" d="M432 0l134 694q-35 11 -72 11q-55 0 -89 -28.5t-44 -79.5q-13 -67 33 -109l-11 -25q-54 14 -95 14q-82 0 -130.5 -58.5t-72.5 -180.5q-23 -122 3 -171.5t111 -49.5q43 0 101 14l2 -24q-55 -16 -105 -16q-100 0 -133 57.5t-8 189.5q27 135 82 200t151 65q25 0 69 -8 q-34 44 -22 106q12 59 52.5 93t107.5 34q61 0 102 -19l-42 -213l-18 -85h1q94 92 207 92q23 0 41 -5t37 -20.5t23 -43.5t-2 -74l-70 -360h-28l69 359q12 69 -10.5 93.5t-65.5 24.5q-113 0 -207 -100l-72 -377h-29z" />
<glyph horiz-adv-x="326" d="M70 408q20 103 56 136t94 33q62 0 106 -24l-43 -221q-6 -32 4 -42t40 0l1 -20q-18 -6 -37 -6q-33 0 -36 40h-1q-63 -45 -117 -45q-30 0 -46.5 10t-26 43t5.5 96zM220 555q-46 0 -75.5 -27t-47.5 -118q-14 -56 -7 -84.5t18.5 -36t35.5 -7.5q47 0 112 46l41 209 q-33 18 -77 18z" />
<glyph horiz-adv-x="407" d="M302 552l-13 -70q-14 -73 -31.5 -104.5t-64.5 -69.5l-64 -51q-58 -48 -71 -116q-14 -74 18 -99.5t107 -25.5q59 0 130 19l-1 -23q-56 -21 -135 -21q-86 0 -125 32.5t-22 118.5q15 79 80 132l70 57q40 32 54 59.5t27 94.5l13 67h28zM330 697l-14 -75h-29l15 75h28z" />
<glyph horiz-adv-x="212" d="M180 552l-107 -552h-29l107 552h29zM209 697l-15 -75h-30l15 75h30z" />
</font>
</defs>
</svg>
