<?xml version="1.0" standalone="no"?>
<!DOCTYPE svg PUBLIC "-//W3C//DTD SVG 1.1//EN" "http://www.w3.org/Graphics/SVG/1.1/DTD/svg11.dtd" >
<svg xmlns="http://www.w3.org/2000/svg" xmlns:xlink="http://www.w3.org/1999/xlink" version="1.1">
<metadata></metadata>
<defs>
<font id="bunday_sansregular_up_italic" horiz-adv-x="502" >
<font-face units-per-em="1000" ascent="750" descent="-250" />
<missing-glyph horiz-adv-x="226" />
<glyph unicode="&#xfb00;" horiz-adv-x="586" d="M134 438h-71l12 62h71l19 95q15 80 52 107t103 27q57 0 87 -9l-23 -65q-29 4 -54 4q-38 0 -57.5 -14t-28.5 -60l-16 -85h184l19 95q15 80 51.5 107t102.5 27q64 0 116 -12l-24 -65q-54 7 -82 7q-38 0 -57 -14t-28 -60l-16 -85h139l-22 -62h-129l-88 -455 q-19 -98 -52 -135t-111 -53q-33 -8 -64 -13l-4 66q8 2 33 7.5t33 8.5q40 11 55.5 34.5t27.5 84.5l88 455h-184l-90 -465q-19 -98 -52 -135t-111 -53q-33 -8 -64 -13l-4 66q8 2 33 7.5t33 8.5q40 11 55.5 34.5t27.5 84.5z" />
<glyph unicode="&#xfb01;" horiz-adv-x="526" d="M228 500h266l-97 -500h-81l85 438h-185l-90 -465q-19 -98 -52 -135t-111 -53q-33 -8 -64 -13l-4 66q8 2 33 7.5t33 8.5q40 11 55.5 34.5t27.5 84.5l90 465h-71l12 62h71l19 95q15 79 52.5 106.5t103.5 27.5q94 0 180 -22l-25 -65q-85 17 -148 17q-36 0 -55.5 -14.5 t-28.5 -59.5z" />
<glyph unicode="&#xfb02;" horiz-adv-x="546" d="M228 500h111l-23 -62h-100l-90 -465q-19 -98 -52 -135t-111 -53q-33 -8 -64 -13l-4 66q8 2 33 7.5t33 8.5q40 11 55.5 34.5t27.5 84.5l90 465h-71l12 62h71l19 95q15 80 53 107t106 27q46 0 113 -7t97 -15l-115 -593q-7 -33 0 -42.5t27 -9.5q5 0 10.5 0.5t10 1t8.5 0.5h7 l2 1l-2 -65q-29 -9 -69 -9q-46 0 -67.5 25t-8.5 93l104 541q-76 9 -111 9q-38 0 -57.5 -13.5t-27.5 -57.5z" />
<glyph unicode="&#xfb03;" horiz-adv-x="792" d="M494 500h266l-97 -500h-81l85 438h-185l-88 -455q-18 -97 -51.5 -134.5t-111.5 -53.5q-27 -7 -63 -13l-5 66q9 2 34 7.5t33 8.5q40 11 55.5 34.5t27.5 84.5l88 455h-185l-90 -465q-19 -98 -52 -135t-111 -53q-33 -8 -64 -13l-4 66q8 2 33 7.5t33 8.5q40 11 55.5 34.5 t27.5 84.5l90 465h-71l12 62h71l19 95q15 80 52 107t103 27q57 0 87 -9l-23 -65q-29 4 -54 4q-38 0 -57.5 -14t-28.5 -60l-16 -85h185l18 95q15 79 52.5 106.5t103.5 27.5q94 0 180 -22l-26 -65q-83 17 -148 17q-35 0 -54.5 -14.5t-28.5 -59.5z" />
<glyph unicode="&#xfb04;" horiz-adv-x="812" d="M494 500h110l-22 -62h-100l-88 -455q-18 -97 -51.5 -134.5t-111.5 -53.5q-27 -7 -63 -13l-5 66q9 2 34 7.5t33 8.5q40 11 55.5 34.5t27.5 84.5l88 455h-185l-90 -465q-19 -98 -52 -135t-111 -53q-33 -8 -64 -13l-4 66q8 2 33 7.5t33 8.5q40 11 55.5 34.5t27.5 84.5 l90 465h-71l12 62h71l19 95q15 80 52 107t103 27q57 0 87 -9l-23 -65q-29 4 -54 4q-38 0 -57.5 -14t-28.5 -60l-16 -85h185l18 95q15 80 53 107t105 27q47 0 113.5 -7t97.5 -15l-115 -593q-7 -33 0 -42.5t27 -9.5q7 0 16.5 1t15.5 1l7 1l-3 -65q-29 -9 -70 -9q-46 0 -67 25 t-8 93l105 541q-76 9 -111 9q-39 0 -58.5 -13.5t-27.5 -57.5z" />
<glyph unicode="fb" horiz-adv-x="789" d="M228 500h111l-23 -62h-100l-90 -465q-19 -98 -52 -135t-111 -53q-33 -8 -64 -13l-4 66q8 2 33 7.5t33 8.5q40 11 55.5 34.5t27.5 84.5l90 465h-71l12 62h71l19 95q15 80 54.5 107t109.5 27q46 0 110.5 -7t94.5 -15l-36 -185q-14 -78 -19 -87h2q70 74 150 74 q38 0 62.5 -10t42.5 -37t17.5 -74.5t-12.5 -122.5q-31 -160 -85 -217t-153 -57q-84 0 -183 33l121 626q-76 9 -111 9q-38 0 -57.5 -13.5t-27.5 -57.5zM506 61q60 0 95 41t59 163q17 74 11.5 113t-18.5 50t-41 11q-35 0 -76.5 -25.5t-70.5 -59.5l-54 -279q48 -14 95 -14z" />
<glyph unicode="fh" horiz-adv-x="800" d="M228 500h111l-23 -62h-100l-90 -465q-19 -98 -52 -135t-111 -53q-33 -8 -64 -13l-4 66q8 2 33 7.5t33 8.5q40 11 55.5 34.5t27.5 84.5l90 465h-71l12 62h71l19 95q15 80 53 107t106 27q46 0 113 -7t97 -15l-36 -189l-23 -85h2q76 76 168 76q21 0 40 -6t38.5 -23t25 -46.5 t-0.5 -76.5l-69 -357h-81l66 350q17 89 -45 89q-40 0 -82 -25t-72 -60l-68 -354h-81l126 650q-76 9 -112 9q-38 0 -57.5 -13.5t-27.5 -57.5z" />
<glyph unicode="fj" horiz-adv-x="524" d="M228 500h266l-98 -502q-18 -97 -51 -134.5t-110 -53.5q-35 -8 -63 -13l-1 67q52 11 63 15q39 11 54 34.5t27 84.5l86 440h-185l-90 -465q-19 -98 -52 -135t-111 -53q-33 -8 -64 -13l-4 66q8 2 33 7.5t33 8.5q40 11 55.5 34.5t27.5 84.5l90 465h-71l12 62h71l19 95 q15 79 52.5 106.5t103.5 27.5q94 0 180 -22l-25 -65q-85 17 -148 17q-36 0 -55.5 -14.5t-28.5 -59.5z" />
<glyph unicode="ffj" horiz-adv-x="790" d="M494 500h266l-98 -502q-18 -97 -51 -134.5t-109 -53.5q-29 -7 -64 -13l-1 67q51 11 62 15q40 11 55 34.5t27 84.5l86 440h-185l-87 -455q-19 -98 -52 -135t-111 -53q-33 -8 -64 -13l-4 66q8 2 33 7.5t33 8.5q41 11 56.5 34.5t26.5 84.5l88 455h-185l-90 -465 q-19 -98 -52 -135t-111 -53q-33 -8 -64 -13l-4 66q8 2 33 7.5t33 8.5q40 11 55.5 34.5t27.5 84.5l90 465h-71l12 62h71l19 95q15 80 52 107t103 27q57 0 87 -9l-23 -65q-29 4 -54 4q-38 0 -57.5 -14t-28.5 -60l-16 -85h185l18 95q15 79 53 106.5t103 27.5q94 0 180 -22 l-26 -65q-83 17 -148 17q-35 0 -54.5 -14.5t-28.5 -59.5z" />
<glyph unicode="fk" horiz-adv-x="813" d="M228 500h111l-23 -62h-100l-90 -465q-19 -98 -52 -135t-111 -53q-33 -8 -64 -13l-4 66q8 2 33 7.5t33 8.5q40 11 55.5 34.5t27.5 84.5l90 465h-71l12 62h71l19 95q15 79 54 106.5t107 27.5q46 0 111.5 -7t96.5 -15l-51 -267q86 69 179 69q65 0 95.5 -29.5t19.5 -87.5 q-11 -53 -49 -95.5t-126 -80.5l22 -58q20 -50 37 -71t48 -21q25 0 47 9l11 -59q-38 -21 -83 -21q-50 0 -75.5 27t-56.5 101l-52 126q99 31 143.5 64t53.5 78q4 23 -8.5 36t-44.5 13q-47 0 -95.5 -23.5t-81.5 -53.5l-70 -363h-81l125 650q-76 9 -111 9q-38 0 -57.5 -13.5 t-27.5 -57.5z" />
<glyph unicode="ft" horiz-adv-x="604" d="M134 438h-71l12 62h71l19 95q15 80 52 107t103 27q57 0 87 -9l-23 -65q-29 4 -54 4q-38 0 -57.5 -14t-28.5 -60l-16 -85h185l32 131l76 9l-27 -140h131l-22 -62h-121l-64 -327q-6 -32 3 -40.5t36 -8.5q11 0 28.5 2.5t30.5 5.5l12 2l1 -63q-36 -18 -98 -18q-59 0 -83.5 24 t-10.5 94l64 329h-185l-90 -465q-19 -98 -52 -135t-111 -53q-33 -8 -64 -13l-4 66q8 2 33 7.5t33 8.5q40 11 55.5 34.5t27.5 84.5z" />
<glyph horiz-adv-x="500" />
<glyph horiz-adv-x="500" />
<glyph horiz-adv-x="333" />
<glyph unicode="&#xd;" horiz-adv-x="0" />
<glyph unicode=" "  horiz-adv-x="226" />
<glyph unicode="&#x09;" horiz-adv-x="226" />
<glyph unicode="&#xa0;" horiz-adv-x="226" />
<glyph unicode="!" horiz-adv-x="239" d="M63 163l104 534h79l-104 -534h-79zM31 0l16 85h80l-16 -85h-80z" />
<glyph unicode="&#x22;" horiz-adv-x="374" d="M288 530l31 192h77l-44 -192h-64zM133 530l32 192h76l-44 -192h-64z" />
<glyph unicode="#" horiz-adv-x="784" d="M74 172l16 54h179l39 128h-179l15 52h179l57 188h52l-57 -188h126l56 188h52l-56 -188h171l-14 -52h-172l-38 -128h171l-16 -54h-171l-52 -176h-52l52 176h-126l-52 -176h-52l51 176h-179zM321 226h127l38 128h-126z" />
<glyph unicode="$" horiz-adv-x="549" d="M41 28l29 70q86 -25 158 -25q66 0 97.5 24.5t42.5 82.5q10 51 -5.5 84t-71.5 61l-35 15q-23 12 -39 22t-31.5 23t-23.5 28t-13.5 35t-4.5 45t7 57q25 129 179 142l19 96h59l-19 -95q84 -4 131 -20l-27 -67q-72 16 -134 16q-113 0 -130 -92q-9 -47 8.5 -73.5t63.5 -49.5 l34 -17q24 -12 39.5 -21.5t32.5 -23t26 -29t15.5 -36.5t6 -49t-6.5 -62q-16 -81 -61 -122t-132 -46l-18 -92h-59l18 93q-105 5 -155 26z" />
<glyph unicode="%" horiz-adv-x="843" d="M80 481q24 121 61.5 172.5t116.5 51.5q80 0 100.5 -55.5t-4.5 -168.5q-23 -120 -60.5 -171.5t-116.5 -51.5q-80 0 -101 54.5t4 168.5zM185 315q42 0 62.5 36.5t38.5 129.5q19 89 12.5 128t-48.5 39t-63 -37t-39 -130q-19 -89 -12 -127.5t49 -38.5zM528 216 q24 120 61.5 172t116.5 52t100 -56t-4 -169q-24 -120 -61.5 -171t-116.5 -51q-80 0 -100.5 54.5t4.5 168.5zM633 50q41 0 61.5 36.5t38.5 129.5q20 88 13 127t-49 39t-62.5 -36t-39.5 -130q-12 -63 -13.5 -96.5t10.5 -51.5t41 -18zM166 -22l483 740h66l-483 -740h-66z" />
<glyph unicode="&#x26;" horiz-adv-x="550" d="M519 445l5 -67l-72 -19q1 -4 7.5 -41.5t8 -52.5t2 -46.5t-4.5 -58.5q-15 -81 -78 -126t-163 -45q-221 0 -183 190q20 113 149 164v2q-44 19 -59 53.5t-5 91.5q29 147 195 147q70 0 127 -15l-25 -66q-48 11 -94 11q-57 0 -86 -21.5t-37 -69.5q-8 -41 12 -66.5t61 -30.5z M374 335q-99 -26 -152 -49q-85 -34 -103 -118q-9 -54 17 -82t96 -28q65 0 105 31.5t50 82.5q11 61 -13 163z" />
<glyph unicode="'" horiz-adv-x="220" d="M133 530l32 192h76l-44 -192h-64z" />
<glyph unicode="(" horiz-adv-x="366" d="M237 -27h-77q-56 135 -54 277q1 120 52.5 244t144.5 229h90q-214 -235 -215 -482q-3 -137 59 -268z" />
<glyph unicode=")" horiz-adv-x="366" d="M168 723h77q56 -135 54 -277q-1 -120 -53.5 -244t-146.5 -229h-87q214 235 215 482q3 134 -59 268z" />
<glyph unicode="*" horiz-adv-x="503" d="M190 339l-48 35l114 123l-136 41l30 57l131 -52l28 154h59l-31 -153l151 51l8 -57l-152 -46l69 -118l-52 -35l-62 123z" />
<glyph unicode="+" horiz-adv-x="508" d="M199 107l34 175h-164l12 63h164l33 173h64l-34 -173h164l-13 -63h-163l-34 -175h-63z" />
<glyph unicode="," horiz-adv-x="242" d="M46 -107h-78q26 31 54.5 88t40.5 119h79q-12 -65 -39.5 -120t-56.5 -87z" />
<glyph unicode="-" horiz-adv-x="362" d="M43 253l13 67h279l-13 -67h-279z" />
<glyph unicode="." horiz-adv-x="243" d="M23 0l19 100h103l-19 -100h-103z" />
<glyph unicode="/" horiz-adv-x="349" d="M331 697h71l-344 -697h-71z" />
<glyph unicode="0" horiz-adv-x="534" d="M74 348q18 92 38 153t51 111t77.5 73.5t111.5 23.5q86 0 126.5 -43.5t40.5 -123.5t-21 -194q-18 -92 -38 -153t-51 -110.5t-77.5 -73t-111.5 -23.5q-86 0 -126 43t-40.5 123t20.5 194zM230 60q79 0 117.5 66t69.5 222q15 78 19.5 127.5t-1.5 88.5t-29 56t-64 17 q-79 0 -117.5 -66t-68.5 -223q-33 -145 -19 -216.5t93 -71.5z" />
<glyph unicode="1" horiz-adv-x="300" d="M89 0l121 625h-103l14 72h184l-135 -697h-81z" />
<glyph unicode="2" horiz-adv-x="473" d="M5 0l28 146q18 94 58.5 135.5t134.5 81.5l45 20q54 23 82.5 56t39.5 95q11 53 -6.5 76.5t-68.5 23.5q-62 0 -170 -26l1 68q120 30 178 30q93 0 129 -42.5t19 -129.5q-10 -52 -26 -88t-42.5 -60.5t-52 -39t-70.5 -34.5l-45 -20q-61 -26 -86.5 -55t-39.5 -96l-13 -69h285 l-14 -72h-366z" />
<glyph unicode="3" horiz-adv-x="454" d="M-23 22l31 69q82 -29 160 -29q66 0 98 34t43 99q12 68 -11 101.5t-102 37.5l-66 1l14 71l65 2q73 2 108 31t47 89q11 53 -5.5 79.5t-73.5 26.5q-73 0 -167 -30l-4 65q82 37 171 37q101 0 140 -41.5t22 -131.5q-13 -67 -50 -107t-81 -54q105 -33 74 -180 q-22 -103 -75.5 -152.5t-155.5 -49.5q-93 0 -182 32z" />
<glyph unicode="4" horiz-adv-x="495" d="M21 198l3 71l300 440l70 -29l-121 -176l-165 -234h234l37 157h75l-83 -427h-82l39 198h-307z" />
<glyph unicode="5" horiz-adv-x="486" d="M18 20l25 70q84 -28 152 -28q69 0 104.5 33t50.5 111q15 75 -6.5 111t-103.5 36q-51 0 -119 -13l-21 20l65 337h312l-14 -72h-230l-41 -207q39 8 80 8q202 0 159 -221q-23 -116 -80.5 -165.5t-147.5 -49.5q-95 0 -185 30z" />
<glyph unicode="6" horiz-adv-x="506" d="M353 634q-80 0 -120 -54.5t-67 -181.5q76 42 147 42q84 0 122 -54.5t16 -167.5q-45 -230 -240 -230q-82 0 -120 43t-38 123t21 194q15 75 30 127t38 98.5t52.5 74t71 43t96.5 15.5q62 0 135 -23l-25 -66q-74 17 -119 17zM296 368q-35 0 -77 -13.5t-69 -35.5 q-13 -69 -16.5 -114t3 -79.5t27 -50t56.5 -15.5q60 0 96 35.5t53 122.5q16 83 -3 116.5t-70 33.5z" />
<glyph unicode="7" horiz-adv-x="444" d="M129 0h-88q76 188 151 320t202 305h-287l14 72h380l-15 -78q-139 -188 -214.5 -317.5t-142.5 -301.5z" />
<glyph unicode="8" horiz-adv-x="522" d="M38 198q29 144 135 183q-32 12 -46 52t-5 87q19 93 71.5 141t150.5 48q100 0 140.5 -49t22.5 -140q-9 -48 -40 -92.5t-68 -56.5q94 -41 66 -173q-21 -104 -79.5 -157t-168.5 -53q-220 0 -179 210zM292 404q116 0 136 116q24 117 -91 117q-113 0 -136 -117 q-22 -116 91 -116zM225 60q132 0 158 136q28 136 -106 136q-129 0 -157 -136q-14 -69 11.5 -102.5t93.5 -33.5z" />
<glyph unicode="9" horiz-adv-x="506" d="M191 63q79 0 119 54.5t68 180.5q-76 -41 -147 -41q-84 0 -122 54.5t-16 167.5q45 230 240 230q82 0 120 -43t38 -123t-21 -194q-15 -75 -30 -127t-38 -98.5t-52.5 -74t-71 -43t-96.5 -15.5q-62 0 -135 23l25 66q74 -17 119 -17zM248 329q34 0 76 13.5t69 34.5 q28 131 14 195.5t-83 64.5q-60 0 -96 -35.5t-53 -122.5q-16 -83 3 -116.5t70 -33.5z" />
<glyph unicode=":" horiz-adv-x="243" d="M88 336l19 100h103l-20 -100h-102zM23 0l20 100h102l-19 -100h-103z" />
<glyph unicode=";" horiz-adv-x="242" d="M46 -107h-78q26 31 54.5 88t40.5 119h79q-12 -65 -39.5 -120t-56.5 -87zM87 336l19 100h103l-20 -100h-102z" />
<glyph unicode="&#x3c;" horiz-adv-x="509" d="M101 280l12 61l369 262l-17 -88l-294 -209l212 -208l-14 -77z" />
<glyph unicode="=" horiz-adv-x="508" d="M96 385l12 63h371l-12 -63h-371zM56 181l12 63h371l-12 -63h-371z" />
<glyph unicode="&#x3e;" horiz-adv-x="509" d="M443 341l-12 -61l-368 -259l17 89l294 208l-212 209l14 76z" />
<glyph unicode="?" horiz-adv-x="407" d="M125 161l20 97q11 58 32.5 89.5t72.5 73.5l43 35q28 22 39 42t17 52q11 54 -12.5 71t-74.5 17q-63 0 -142 -21l1 62q88 27 159 27q85 0 125.5 -35.5t22.5 -124.5q-17 -86 -84 -141l-51 -41q-37 -30 -50.5 -53t-21.5 -65l-16 -85h-80zM95 0l16 85h79l-16 -85h-79z" />
<glyph unicode="@" horiz-adv-x="759" d="M59 256q33 176 130.5 266.5t252.5 90.5q133 0 203 -64t70 -186q0 -48 -10 -105q-19 -97 -58 -141.5t-110 -44.5q-69 0 -83 49q-62 -57 -130 -57q-20 0 -34.5 3.5t-30.5 14.5t-22.5 31t-9.5 53.5t9 81.5q21 110 68 153.5t115 43.5q70 0 97.5 -37t9.5 -128l-19 -96 q-6 -31 5.5 -43.5t29.5 -12.5q43 0 66.5 30t37.5 101q11 59 11 100q0 199 -217 199q-133 0 -212.5 -73.5t-109.5 -228.5q-10 -45 -12 -95q-2 -106 51.5 -157t164.5 -51q49 0 96 9l-4 -52q-44 -11 -93 -11q-136 0 -205.5 66.5t-66.5 195.5q0 38 10 95zM335 118q49 0 105 52 l21 110q12 71 2 90.5t-49 19.5q-42 0 -70.5 -31t-43.5 -112q-14 -61 -6.5 -95t41.5 -34z" />
<glyph unicode="A" d="M-29 0l305 697h122l41 -697h-81l-10 172h-219l-73 -172h-85zM157 240h191l-20 387h-4z" />
<glyph unicode="B" horiz-adv-x="545" d="M225 0h-190l136 697h152q125 0 170.5 -44.5t27.5 -138.5q-23 -115 -117 -144q47 -14 72.5 -55.5t9.5 -115.5q-21 -108 -82 -153.5t-179 -45.5zM193 398h81q81 0 116.5 24.5t49.5 92.5q12 62 -13 86t-107 24h-82zM129 72h100q79 0 120.5 27.5t54.5 99.5q16 76 -10 101.5 t-114 25.5h-101z" />
<glyph unicode="C" horiz-adv-x="467" d="M392 81v-67q-75 -23 -133 -23q-54 0 -90 9t-63 32t-38 64t-9.5 103.5t17.5 151.5q17 89 37 149.5t53.5 109.5t84 72.5t121.5 23.5q86 0 143 -18l-25 -66q-57 12 -117 12t-97 -21t-67 -83t-52 -179q-17 -90 -18.5 -146.5t13.5 -87.5t41 -42.5t71 -11.5q34 0 128 18z" />
<glyph unicode="D" horiz-adv-x="554" d="M163 0h-128l134 697h113q72 0 116.5 -7.5t79 -28t47.5 -59.5t12 -99.5t-19 -151.5q-23 -119 -46.5 -185t-66 -105t-95.5 -50t-147 -11zM130 72h40q48 0 77 3t58 13t45.5 28t33.5 50.5t29 77t25 110.5q12 65 16.5 110t-1.5 75.5t-16 47t-36 25.5t-51 11t-71 2h-42z" />
<glyph unicode="E" horiz-adv-x="483" d="M36 0l136 697h354l-15 -72h-272l-44 -226h222l-14 -72h-222l-50 -255h279l-14 -72h-360z" />
<glyph unicode="F" horiz-adv-x="466" d="M35 0l136 697h356l-15 -72h-274l-47 -246h212l-13 -72h-213l-60 -307h-82z" />
<glyph unicode="G" horiz-adv-x="527" d="M77 351q21 110 48.5 182t65.5 109t78.5 50.5t97.5 13.5q40 0 94 -7t71 -12l-25 -68q-75 15 -145 15q-40 0 -66 -9t-53 -37t-47 -86t-38 -151t-20 -151.5t13 -88t37.5 -39t61.5 -9.5q47 0 105 11l58 311h78l-68 -362q-27 -12 -78 -22t-97 -10q-47 0 -79.5 7.5t-60 30 t-39 62t-10.5 104.5t18 156z" />
<glyph unicode="H" horiz-adv-x="577" d="M35 0l136 697h82l-59 -300h247l60 300h81l-136 -697h-82l64 325h-248l-63 -325h-82z" />
<glyph unicode="I" horiz-adv-x="248" d="M35 0l136 697h82l-136 -697h-82z" />
<glyph unicode="J" horiz-adv-x="400" d="M-31 8l24 67q60 -12 118 -12q53 0 79.5 28t38.5 87l100 519h81l-100 -521q-19 -98 -67 -141.5t-135 -43.5q-85 0 -139 17z" />
<glyph unicode="K" horiz-adv-x="533" d="M35 0l136 697h82l-61 -309q10 0 52 -9l247 318h100l-278 -350q44 -36 65 -86l113 -261h-85l-95 220q-22 54 -53 74t-80 22l-61 -316h-82z" />
<glyph unicode="L" horiz-adv-x="424" d="M35 0l136 697h82l-123 -625h237l-13 -72h-319z" />
<glyph unicode="M" horiz-adv-x="742" d="M635 0h-77l62 487l21 132h-4q-20 -47 -59 -127l-187 -381h-93l-42 383l-9 125h-5q-18 -80 -32 -134l-117 -485h-80l172 697h121l41 -371q4 -37 6 -70.5t2 -48.5v-15h5q25 59 62 134l178 371h128z" />
<glyph unicode="N" horiz-adv-x="606" d="M35 0l134 697h118l95 -461q10 -45 28 -160h4q5 31 44 241l72 380h79l-134 -697h-120l-88 437q-21 97 -33 183h-4q-9 -58 -51 -279l-65 -341h-79z" />
<glyph unicode="O" horiz-adv-x="564" d="M74 342q18 92 39.5 155t55.5 113.5t84 74.5t118 24q89 0 132.5 -42.5t45.5 -121.5t-19 -191q-18 -93 -39.5 -155.5t-55 -112.5t-83 -74t-118.5 -24q-89 0 -132.5 42.5t-46 121t18.5 190.5zM245 60q87 0 130.5 68t74.5 227q31 141 12.5 211.5t-103.5 70.5 q-86 0 -129.5 -68.5t-74.5 -227.5q-32 -141 -13.5 -211t103.5 -70z" />
<glyph unicode="P" horiz-adv-x="509" d="M35 0l136 697h165q120 0 162.5 -45t21.5 -160q-19 -96 -80 -152t-168 -56h-101l-55 -284h-81zM186 356h91q72 0 109 30t52 107q15 78 -8 105t-100 27h-92z" />
<glyph unicode="Q" horiz-adv-x="562" d="M74 342q18 92 39.5 155t55.5 113.5t84 74.5t118 24q89 0 132.5 -42.5t45.5 -121.5t-19 -191q-29 -145 -70.5 -229t-115.5 -116q39 -51 154 -87l-28 -62q-153 35 -209 129q-5 0 -14 -0.5t-13 -0.5q-89 0 -132.5 42.5t-46 121t18.5 190.5zM245 60q87 0 130.5 68t74.5 227 q31 141 12.5 211.5t-103.5 70.5q-86 0 -129.5 -68.5t-74.5 -227.5q-32 -141 -13.5 -211t103.5 -70z" />
<glyph unicode="R" horiz-adv-x="535" d="M35 0l136 697h165q120 0 162.5 -45t21.5 -160q-31 -152 -148 -178q50 -22 66 -129l27 -185h-85l-20 163q-10 70 -33.5 94.5t-78.5 24.5h-77l-54 -282h-82zM186 354h91q72 0 109 31t52 108q15 78 -8 105t-101 27h-91z" />
<glyph unicode="S" horiz-adv-x="477" d="M3 18l28 69q86 -24 159 -24q67 0 98 25t42 86q11 55 -4 90.5t-72 64.5l-34 17q-69 36 -96 79.5t-11 121.5q32 159 208 159q97 0 163 -22l-27 -67q-77 17 -134 17q-58 0 -89.5 -22t-41.5 -75q-10 -51 6.5 -76.5t65.5 -49.5l34 -18q73 -37 101.5 -87t10.5 -140 q-17 -91 -65 -133t-148 -42q-113 0 -194 27z" />
<glyph unicode="T" horiz-adv-x="443" d="M134 0l121 625h-161l15 72h403l-15 -72h-161l-121 -625h-81z" />
<glyph unicode="U" horiz-adv-x="565" d="M62 176l102 521h82l-103 -518q-20 -119 101 -119q127 0 148 119l102 518h83l-102 -521q-20 -98 -78 -143t-157 -45q-102 0 -149.5 46t-28.5 142z" />
<glyph unicode="V" horiz-adv-x="469" d="M133 0l-38 697h82l19 -432q3 -99 3 -187h4q11 32 75 188l182 431h85l-303 -697h-109z" />
<glyph unicode="W" horiz-adv-x="734" d="M99 0l10 697h78l-11 -469q-4 -121 -8 -145h4q11 43 50 142l180 463h97l4 -467q3 -81 -4 -138h4q8 28 47 142l165 472h84l-254 -697h-108l-3 395q-2 144 5 209h-4q-25 -72 -78 -210l-156 -394h-102z" />
<glyph unicode="X" horiz-adv-x="499" d="M267 309h-5q-63 -96 -104 -157l-102 -152h-95l258 364l-112 333h85l39 -124l44 -150h7q61 89 98 140l93 134h91l-241 -336l122 -361h-85l-46 140z" />
<glyph unicode="Y" horiz-adv-x="473" d="M150 0l57 307l-124 390h87l70 -235q16 -56 19 -71h3q0 1 47 69l160 237h95l-276 -390l-57 -307h-81z" />
<glyph unicode="Z" horiz-adv-x="470" d="M-11 0l6 37l384 588h-250l14 72h361l-8 -36l-383 -589h281l-14 -72h-391z" />
<glyph unicode="[" horiz-adv-x="376" d="M229 -86h-172l168 864h172l-12 -62h-105l-146 -743h105z" />
<glyph unicode="\" horiz-adv-x="349" d="M125 697h64l75 -697h-63z" />
<glyph unicode="]" horiz-adv-x="376" d="M189 -86h-173l11 51h105l149 762h-105l8 51h173z" />
<glyph unicode="^" horiz-adv-x="539" d="M82 385l234 312h82l112 -312h-71l-90 248l-189 -248h-78z" />
<glyph unicode="_" horiz-adv-x="437" d="M-75 -147l12 60h436l-12 -60h-436z" />
<glyph unicode="`" horiz-adv-x="280" d="M226 640l-44 140h85l31 -140h-72z" />
<glyph unicode="a" horiz-adv-x="506" d="M48 236q30 156 86.5 214.5t146.5 58.5q88 0 187 -33l-68 -362q-8 -39 1.5 -50.5t51.5 -0.5v-58q-30 -10 -65 -10q-38 0 -52.5 17.5t-17.5 52.5h-3q-78 -74 -170 -74q-32 0 -54 10t-38.5 37.5t-16.5 75t12 122.5zM283 439q-56 0 -93.5 -42.5t-60.5 -161.5 q-17 -107 -8 -140.5t44 -33.5q82 0 159 85l53 279q-48 14 -94 14z" />
<glyph unicode="b" d="M169 722h81l-39 -200q-13 -71 -18 -81h2q70 68 149 68q30 0 51.5 -6t39 -22.5t25.5 -43.5t7 -70.5t-13 -101.5q-31 -160 -84.5 -217t-153.5 -57q-82 0 -183 33zM219 61q60 0 95.5 41t58.5 163q11 56 12.5 91.5t-6.5 53t-20.5 23.5t-33.5 6q-35 0 -75.5 -25t-71.5 -60 l-54 -279q48 -14 95 -14z" />
<glyph unicode="c" horiz-adv-x="406" d="M51 247q27 136 83 199t164 63q66 0 120 -18l-27 -64q-47 12 -98 12q-66 0 -103 -45.5t-57 -146.5q-20 -107 -0.5 -146.5t88.5 -39.5q46 0 102 17l4 -66q-57 -21 -122 -21q-110 0 -145 61.5t-9 194.5z" />
<glyph unicode="d" d="M49 233q31 159 83.5 217.5t141.5 58.5q68 0 116 -21h2q6 36 16 87l29 147h81l-140 -722h-71l4 60h-3q-69 -69 -157 -69q-72 0 -100.5 52.5t-1.5 189.5zM324 146l54 278q-45 15 -93 15q-61 0 -96.5 -41.5t-58.5 -163.5q-17 -74 -12.5 -112.5t16.5 -49.5t35 -11 q40 0 81.5 25t73.5 60z" />
<glyph unicode="e" horiz-adv-x="478" d="M51 251q27 140 80.5 200.5t160.5 60.5q95 0 132.5 -46t24.5 -114q-15 -76 -45.5 -100t-105.5 -24q-95 0 -165 22q0 -5 -3 -11q-19 -104 2.5 -141t88.5 -37q65 0 150 26l2 -65q-66 -31 -168 -31q-108 0 -144 61.5t-10 198.5zM149 316q72 -22 139 -22q42 0 58 14t23 51 q8 39 -12.5 63t-67.5 24q-57 0 -90.5 -32t-49.5 -98z" />
<glyph unicode="f" horiz-adv-x="319" d="M-97 -228l-4 66q8 2 32.5 7.5t32.5 8.5q39 11 53.5 34t27.5 85l88 465h-72l12 62h72l19 95q15 79 52.5 106.5t104.5 27.5q61 0 113 -12l-24 -65q-54 7 -86 7q-35 0 -53.5 -14.5t-27.5 -59.5l-16 -85h139l-22 -62h-129l-88 -465q-20 -99 -51 -135t-109 -53q-29 -7 -64 -13 z" />
<glyph unicode="g" d="M145 80v2q-126 11 -89 190q25 122 82 179.5t150 57.5q82 0 181 -33l-92 -478q-44 -231 -236 -231q-73 0 -109 40t-23 109q18 98 136 164zM328 168l51 257q-48 14 -91 14q-54 0 -93 -37t-59 -139q-16 -85 17 -116t124 1zM296 -5l19 98q-28 -8 -86 -34q-124 -58 -141 -141 q-7 -40 12 -60.5t54 -20.5q110 0 142 158z" />
<glyph unicode="h" horiz-adv-x="515" d="M29 0l140 722h81l-39 -204l-22 -83h2q74 74 167 74q21 0 40 -6t39 -23t25.5 -46.5t-1.5 -76.5l-68 -357h-82l67 350q17 89 -46 89q-40 0 -82 -25t-72 -60l-68 -354h-81z" />
<glyph unicode="i" horiz-adv-x="243" d="M33 0l97 500h81l-97 -500h-81zM142 596l18 98h95l-18 -98h-95z" />
<glyph unicode="j" horiz-adv-x="241" d="M-118 -228l-5 66q9 2 34 7.5t33 8.5q40 11 55 34.5t28 84.5l102 527h81l-102 -527q-20 -100 -50 -135.5t-112 -52.5q-29 -7 -64 -13zM140 598l19 96h95l-19 -96h-95z" />
<glyph unicode="k" horiz-adv-x="527" d="M111 0h-81l140 722h81l-54 -280q89 67 180 67q64 0 94.5 -29.5t19.5 -87.5q-10 -53 -48 -95.5t-126 -80.5l22 -58q20 -50 37 -71t48 -21q25 0 46 9l11 -59q-38 -21 -82 -21q-51 0 -76.5 27.5t-55.5 100.5l-53 126q99 31 143.5 64t53.5 78q5 23 -8 36t-45 13 q-47 0 -95 -23.5t-82 -53.5z" />
<glyph unicode="l" horiz-adv-x="259" d="M197 65l-3 -66q-30 -8 -65 -8q-47 0 -70 25t-9 92l119 614h82l-119 -608q-7 -34 0 -43.5t26 -9.5q5 0 11 0.5t10.5 1t8.5 1t6 0.5z" />
<glyph unicode="m" horiz-adv-x="750" d="M30 0l97 500h71l-8 -62h3q71 71 154 71q88 0 91 -86q83 86 168 86q45 0 76.5 -34t16.5 -115l-70 -360h-81l69 355q16 84 -33 84q-33 0 -75 -26t-70 -59l-69 -354h-80l69 356q9 43 1 63t-35 20q-35 0 -75.5 -25t-70.5 -60l-69 -354h-80z" />
<glyph unicode="n" horiz-adv-x="514" d="M29 0l97 500h71l-8 -62h3q67 71 163 71q22 0 41.5 -6t40 -23t26 -46.5t-0.5 -76.5l-69 -357h-82l68 350q17 89 -46 89q-41 0 -83 -25t-72 -60l-68 -354h-81z" />
<glyph unicode="o" horiz-adv-x="498" d="M202 -12q-111 0 -144.5 59t-6.5 194q27 140 81.5 205.5t163.5 65.5q110 0 143.5 -66.5t6.5 -204.5q-26 -136 -80 -194.5t-164 -58.5zM213 58q64 0 98 39.5t54 143.5q20 107 2 154t-80 47t-98 -47t-56 -154q-20 -106 -2 -144.5t82 -38.5z" />
<glyph unicode="p" d="M456 267q-21 -109 -54.5 -171t-75.5 -83.5t-105 -21.5q-58 0 -109 17h-2q-7 -45 -12 -71l-30 -160h-82l140 723h71l-8 -62h3q67 71 153 71q37 0 61.5 -10t42.5 -37t18.5 -74t-11.5 -121zM178 354l-53 -278q45 -15 94 -15q61 0 96.5 41.5t58.5 163.5q17 74 11.5 112.5 t-18.5 49.5t-42 11q-35 0 -76.5 -25.5t-70.5 -59.5z" />
<glyph unicode="q" d="M335 -223h-81l38 202q11 61 19 80h-3q-72 -68 -149 -68q-38 0 -62.5 10t-42.5 37t-18 74t12 121q30 161 85 218.5t155 57.5q83 0 182 -33zM285 439q-61 0 -97 -41.5t-59 -162.5q-11 -56 -12 -91.5t7 -53t19.5 -23.5t30.5 -6q73 0 150 85l55 279q-42 14 -94 14z" />
<glyph unicode="r" horiz-adv-x="351" d="M29 0l97 500h71l-8 -62h3q66 70 145 70q38 0 51 -5l-28 -77q-24 4 -43 4q-73 0 -138 -76l-69 -354h-81z" />
<glyph unicode="s" horiz-adv-x="433" d="M-7 21l24 67q90 -27 165 -27q45 0 69 14t32 57q7 37 -6.5 56t-59.5 35l-35 12q-47 16 -70 29.5t-35 41.5t-3 73q13 71 54.5 100.5t114.5 29.5q100 0 170 -24l-24 -65q-82 19 -145 19q-79 0 -90 -58q-4 -29 7 -46.5t57 -33.5l36 -12q73 -25 97.5 -59t10.5 -109 q-24 -130 -181 -130q-103 0 -188 30z" />
<glyph unicode="t" horiz-adv-x="333" d="M65 108l64 330h-73l12 62h73l33 131l75 9l-27 -140h132l-22 -62h-122l-64 -327q-6 -32 2.5 -41t36.5 -9q11 0 28.5 2.5t30.5 5.5l12 3l2 -64q-36 -17 -97 -17q-59 0 -84.5 23.5t-11.5 93.5z" />
<glyph unicode="u" horiz-adv-x="514" d="M123 500h81l-68 -350q-16 -89 47 -89q40 0 82 25t72 60l68 354h81l-97 -500h-71l5 59h-2q-68 -68 -163 -68q-51 0 -85.5 34.5t-19.5 117.5z" />
<glyph unicode="v" horiz-adv-x="498" d="M203 500l-65 -335q-10 -56 5 -81.5t54 -25.5q51 0 95 39q55 47 77 162q19 100 -2 241h84q20 -135 -1 -241q-32 -165 -136 -231q-63 -40 -139 -40q-78 0 -106.5 46.5t-12.5 127.5l66 338h81z" />
<glyph unicode="w" horiz-adv-x="755" d="M339 232l51 258h81l-61 -316q-24 -116 56 -116q58 0 101 59t59 142q19 104 -1 241h79q22 -134 3 -241q-8 -47 -27.5 -93t-49 -87t-73.5 -66t-95 -25q-50 0 -82 24.5t-37 67.5q-64 -92 -163 -92q-74 0 -106.5 46.5t-17.5 126.5l66 339h81l-65 -336q-23 -106 54 -106 q60 0 96.5 49.5t50.5 124.5z" />
<glyph unicode="x" horiz-adv-x="438" d="M-32 0l210 261l-93 239h86l37 -107l24 -77l54 81l76 103h91l-184 -239l108 -261h-89l-41 111l-30 92q-36 -47 -69 -92l-84 -111h-96z" />
<glyph unicode="y" horiz-adv-x="514" d="M123 500h81l-55 -280q-12 -63 27.5 -83t107.5 6q13 4 27 10t22 9l8 4l64 334h82l-98 -502q-44 -231 -235 -231q-74 0 -111 37.5t-24 101.5q21 106 144 169v1q-53 2 -80 38.5t-14 108.5zM307 -5l20 101q-40 -14 -86 -36q-125 -62 -140 -142q-8 -40 11 -60.5t53 -20.5 q111 0 142 158z" />
<glyph unicode="z" horiz-adv-x="426" d="M-4 0l6 35l292 395h-198l14 70h315l-7 -31l-293 -399h232l-13 -70h-348z" />
<glyph unicode="{" horiz-adv-x="367" d="M222 -86h-23q-68 0 -96.5 30.5t-12.5 109.5l33 169q12 62 -2.5 80t-63.5 18l12 63q48 0 70 18t35 80l30 156q15 81 49.5 110.5t105.5 29.5h31l-11 -54h-33q-33 0 -49 -17t-23 -49l-35 -177q-23 -119 -91 -129q23 -5 38.5 -36t2.5 -96l-36 -186q-12 -66 45 -66h34z" />
<glyph unicode="|" horiz-adv-x="275" d="M17 -196l212 1088h69l-212 -1088h-69z" />
<glyph unicode="}" horiz-adv-x="367" d="M235 223l-33 -169q-16 -81 -47.5 -110.5t-96.5 -29.5h-42l10 54h35q58 0 72 66l36 186q24 125 91 132q-13 3 -23.5 13.5t-19.5 39t2 76.5l35 177q12 66 -47 66h-34l11 54h23q67 0 95.5 -30.5t13.5 -109.5l-30 -156q-13 -62 2.5 -80t63.5 -18l-12 -63q-48 0 -70.5 -18 t-34.5 -80z" />
<glyph unicode="~" horiz-adv-x="548" d="M143 262l-39 41q21 24 31.5 34t32 20t47.5 10q28 0 50 -13.5t34 -30.5t27.5 -30.5t31.5 -13.5q21 0 60 39l40 -41q-21 -24 -31.5 -34t-32 -20.5t-46.5 -10.5q-29 0 -52 14t-34.5 30.5t-27 30.5t-31.5 14q-9 0 -18.5 -5t-15.5 -10t-15 -13.5t-11 -10.5z" />
<glyph unicode="&#xa1;" horiz-adv-x="239" d="M178 338l-106 -534h-79l106 534h79zM208 501l-17 -85h-79l17 85h79z" />
<glyph unicode="&#xa2;" horiz-adv-x="549" d="M100 333q23 118 68 181.5t130 77.5l21 105h59l-20 -101q61 -4 109 -19l-27 -66q-56 14 -96 14q-67 0 -104.5 -45.5t-57.5 -146.5q-20 -107 -0.5 -146t88.5 -39q43 0 103 16l4 -65q-63 -22 -120 -22l-18 -94h-59l19 98q-78 14 -100.5 76.5t1.5 175.5z" />
<glyph unicode="&#xa3;" horiz-adv-x="547" d="M173 385l23 122q18 94 71 146.5t160 52.5q79 0 124 -19l-27 -63q-51 12 -94 12q-68 0 -104 -31.5t-48 -97.5l-24 -122h126l-11 -55h-126l-50 -258h265l-14 -72h-433l14 72h87l50 258h-74l12 55h73z" />
<glyph unicode="&#xa4;" horiz-adv-x="721" d="M114 88l-33 41l82 69q-40 68 -24 154q16 84 84 153l-58 70l50 40l55 -69q81 55 164 55q86 0 144 -58l81 69l33 -41l-83 -69q39 -70 23 -150q-16 -84 -81 -150l54 -68l-47 -40l-55 66q-80 -57 -166 -57q-81 0 -142 53zM349 164q76 0 141 55t81 133q15 78 -28.5 133 t-120.5 55t-141.5 -55t-79.5 -133q-16 -78 28 -133t120 -55z" />
<glyph unicode="&#xa5;" horiz-adv-x="546" d="M142 337h91l-116 360h87l72 -235q16 -56 19 -71h4q0 1 47 69l165 237h94l-259 -360h95l-11 -57h-110l-11 -56h109l-11 -57h-109l-32 -167h-82l32 167h-107l11 57h107l11 56h-107z" />
<glyph unicode="&#xa6;" horiz-adv-x="275" d="M142 444l87 448h69l-87 -448h-69zM17 -196l87 448h69l-87 -448h-69z" />
<glyph unicode="&#xa7;" horiz-adv-x="504" d="M-2 -84l26 70q86 -24 161 -24q70 0 98.5 17t38.5 66q8 39 -6.5 63.5t-70.5 47.5l-50 20q-72 29 -95 64.5t-9 107.5q11 60 74 95q-49 39 -32 125q13 67 67 102t139 35q42 0 92.5 -8t71.5 -16l-28 -67q-87 19 -144 19q-103 0 -118 -75q-7 -35 9.5 -53.5t63.5 -37.5l52 -20 q69 -26 95.5 -67.5t10.5 -124.5q-10 -52 -57 -97q29 -44 13 -126q-15 -77 -61 -109.5t-149 -32.5q-118 0 -192 26zM241 403l-7 2q-52 -13 -64 -66q-7 -37 8 -57.5t60 -37.5l52 -20q31 -14 44 -21q23 19 33 65q8 38 -6.5 65.5t-67.5 49.5z" />
<glyph unicode="&#xa8;" horiz-adv-x="968" d="M518 640h-87l18 95h88zM691 640h-87l18 95h88z" />
<glyph unicode="&#xa9;" horiz-adv-x="825" d="M773 349q-33 -170 -136.5 -265.5t-260.5 -95.5q-159 0 -230 96t-39 265q32 172 134.5 266.5t259.5 94.5q160 0 232.5 -95.5t39.5 -265.5zM719 349q29 150 -26 232t-188 82q-138 0 -227.5 -82t-118.5 -232q-29 -151 26 -232t190 -81q136 0 225.5 82t118.5 231zM495 195 l-1 -49q-49 -14 -91 -14q-37 0 -60 9t-38 33.5t-13.5 67t12.5 109.5q25 129 63.5 173t120.5 44q48 0 83 -11l-17 -49q-44 7 -70 7q-51 0 -74.5 -29.5t-44.5 -134.5q-11 -55 -13 -88t6 -50.5t21.5 -23t39.5 -5.5q18 0 76 11z" />
<glyph unicode="&#xaa;" horiz-adv-x="328" d="M61 404q20 102 56 139.5t99 37.5q70 0 122 -23l-40 -208q-4 -25 2 -31.5t30 -1.5v-47q-26 -8 -51 -8q-42 0 -50 37h-2q-54 -40 -97 -40q-47 0 -65.5 31.5t-3.5 113.5zM215 525q-33 0 -51.5 -22t-31.5 -90q-10 -65 -4 -81t28 -16q35 0 73 32l33 169q-21 8 -47 8z" />
<glyph unicode="&#xab;" horiz-adv-x="474" d="M123 54l-57 200l135 199h74l-143 -204l58 -195h-67zM293 54l-57 200l135 199h75l-144 -204l58 -195h-67z" />
<glyph unicode="&#xac;" horiz-adv-x="509" d="M84 278l14 69h362l-40 -201h-70l26 132h-292z" />
<glyph unicode="&#xad;" horiz-adv-x="362" d="M43 253l13 67h279l-13 -67h-279z" />
<glyph unicode="&#xae;" horiz-adv-x="499" d="M497 501q-19 -101 -78.5 -154.5t-152.5 -53.5q-94 0 -135.5 54t-22.5 154q20 101 78.5 153.5t150.5 52.5q94 0 136.5 -53.5t23.5 -152.5zM462 501q33 173 -127 173q-158 0 -191 -173q-34 -175 124 -175q160 0 194 175zM213 389l45 230h67q38 0 53 -16.5t7 -54.5 q-8 -47 -44 -58q14 -10 20 -42l8 -59h-44l-6 49q-4 20 -10 27t-20 7h-16l-15 -83h-45zM281 509h20q19 0 28 8.5t13 29.5t-1 28.5t-25 7.5h-20z" />
<glyph unicode="&#xaf;" horiz-adv-x="516" d="M470 693h-251l12 60h252z" />
<glyph unicode="&#xb0;" horiz-adv-x="337" d="M123 593q11 56 47.5 85t86.5 29t79 -29t18 -85q-11 -57 -48 -86t-86 -29q-50 0 -79 29.5t-18 85.5zM224 520q31 0 52 19.5t28 53.5t-7 54t-44 20t-52 -20t-28 -53q-7 -34 7 -54t44 -20z" />
<glyph unicode="&#xb1;" horiz-adv-x="508" d="M212 174l32 165h-154l12 63h154l33 171h64l-34 -171h154l-12 -63h-154l-32 -165h-63zM25 0l12 63h371l-12 -63h-371z" />
<glyph unicode="&#xb2;" horiz-adv-x="307" d="M56 380l18 95q12 61 39.5 89t87.5 52l28 11q33 13 48.5 28.5t21.5 47.5q6 33 -4.5 45t-41.5 12t-106 -13v53q72 18 120 18q62 0 86 -26.5t13 -85.5q-12 -59 -40.5 -87t-82.5 -49l-30 -13q-35 -14 -49.5 -31.5t-21.5 -56.5l-6 -31h178l-11 -58h-247z" />
<glyph unicode="&#xb3;" horiz-adv-x="289" d="M39 395l25 53q44 -16 94 -16q69 0 82 70q8 39 -6 57.5t-60 20.5l-41 1l10 53l43 2q41 1 60.5 17t25.5 50q6 29 -4 43t-40 14q-42 0 -101 -17l-3 52q58 23 113 23q64 0 90 -27t15 -85q-8 -37 -29 -62t-46 -33q57 -23 40 -110q-14 -66 -48.5 -96.5t-101.5 -30.5 q-68 0 -118 21z" />
<glyph unicode="&#xb4;" horiz-adv-x="280" d="M278 780l-100 -140h-76l88 140h88z" />
<glyph unicode="&#xb5;" horiz-adv-x="504" d="M123 500h80l-68 -350q-17 -89 49 -89q64 0 138 66l73 373h79l-97 -500h-69l5 52h-3q-77 -61 -147 -61q-38 0 -58 14l-16 -90l-22 -113h-80l74 378z" />
<glyph unicode="&#xb6;" horiz-adv-x="589" d="M413 0l135 697h50l-135 -697h-50zM292 0l61 317h-103q-151 0 -121 149l16 83q28 148 178 148h155l-135 -697h-51z" />
<glyph unicode="&#xb7;" horiz-adv-x="220" d="M72 278l17 92h89l-18 -92h-88z" />
<glyph unicode="&#xb8;" horiz-adv-x="406" d="M14 -226l20 49q42 -11 60 -11q46 0 51 27q2 13 -9 24t-25 18t-24.5 21.5t-6.5 35.5q6 28 41 55h54q-32 -25 -37 -50q-2 -12 9.5 -22.5t26 -18.5t24.5 -27t5 -45q-9 -40 -33 -55t-71 -15q-16 0 -37.5 3.5t-34.5 6.5z" />
<glyph unicode="&#xb9;" horiz-adv-x="210" d="M108 380l72 374h-62l11 58h129l-83 -432h-67z" />
<glyph unicode="&#xba;" horiz-adv-x="314" d="M166 258q-75 0 -97.5 37t-6.5 121q17 86 51 126.5t106 40.5q73 0 94.5 -41.5t4.5 -125.5q-16 -85 -48 -121.5t-104 -36.5zM171 314q34 0 52 22t29 81q12 57 3 83.5t-42 26.5q-34 0 -52.5 -26t-29.5 -84q-12 -60 -3.5 -81.5t43.5 -21.5z" />
<glyph unicode="&#xbb;" horiz-adv-x="474" d="M241 254l-135 -200h-75l144 205l-58 194h67zM411 254l-135 -200h-75l145 205l-58 194h66z" />
<glyph unicode="&#xbc;" horiz-adv-x="652" d="M86 265l72 374h-62l11 58h129l-83 -432h-67zM343 116l2 55l180 267l58 -24l-70 -102l-97 -138h122l22 91h63l-51 -265h-67l22 116h-184zM47 -22l483 740h66l-483 -740h-66z" />
<glyph unicode="&#xbd;" horiz-adv-x="697" d="M86 265l72 374h-62l11 58h129l-83 -432h-67zM373 0l18 95q12 61 39.5 89t87.5 52l27 11q33 14 48.5 29t21.5 47q7 32 -3.5 44.5t-41.5 12.5q-34 0 -106 -13l-1 53q76 18 121 18q62 0 86 -26.5t13 -85.5q-12 -59 -41 -87t-83 -49l-29 -13q-35 -14 -49.5 -31.5t-22.5 -56.5 l-5 -31h178l-12 -58h-246zM47 -22l483 740h66l-483 -740h-66z" />
<glyph unicode="&#xbe;" horiz-adv-x="720" d="M17 280l25 53q44 -16 94 -16q69 0 82 70q8 39 -6 57.5t-60 20.5l-41 1l10 53l43 2q41 1 60.5 17t25.5 50q6 29 -4 43t-40 14q-42 0 -101 -17l-3 52q57 23 113 23q64 0 90 -27t15 -85q-8 -37 -29 -62t-46 -33q57 -23 40 -110q-14 -66 -48.5 -96.5t-101.5 -30.5 q-68 0 -118 21zM412 116l2 55l179 267l59 -24l-70 -102l-98 -138h123l22 91h63l-51 -265h-68l22 116h-183zM116 -22l483 740h66l-483 -740h-66z" />
<glyph unicode="&#xbf;" horiz-adv-x="407" d="M284 340l-19 -97q-11 -58 -33 -90.5t-73 -74.5l-42 -35q-47 -36 -58 -92q-11 -54 12.5 -71t75.5 -17q60 0 142 21l-2 -62q-86 -27 -157 -27q-86 0 -126.5 35.5t-23.5 124.5q7 36 23 64.5t29.5 43t35.5 31.5l49 41q36 29 49 53t21 67l17 85h80zM315 501l-17 -85h-79l17 85 h79z" />
<glyph unicode="&#xc0;" d="M-29 0l305 697h122l41 -697h-81l-10 172h-219l-73 -172h-85zM157 240h191l-20 387h-4zM314 748l-44 140h85l31 -140h-72z" />
<glyph unicode="&#xc1;" d="M-29 0l305 697h122l41 -697h-81l-10 172h-219l-73 -172h-85zM157 240h191l-20 387h-4zM485 888l-100 -140h-76l88 140h88z" />
<glyph unicode="&#xc2;" d="M-29 0l305 697h122l41 -697h-81l-10 172h-219l-73 -172h-85zM157 240h191l-20 387h-4zM210 749l143 140h45l90 -140h-69l-51 81l-82 -81h-76z" />
<glyph unicode="&#xc3;" d="M-29 0l305 697h122l41 -697h-81l-10 172h-219l-73 -172h-85zM157 240h191l-20 387h-4zM244 767l-20 37q40 43 88 43q32 0 60.5 -22.5t47.5 -22.5q25 0 53 28l25 -35q-22 -26 -42.5 -39t-49.5 -13q-32 0 -61 22t-50 22q-22 0 -51 -20z" />
<glyph unicode="&#xc4;" d="M-29 0l305 697h122l41 -697h-81l-10 172h-219l-73 -172h-85zM157 240h191l-20 387h-4zM307 748h-87l18 95h88zM480 748h-87l18 95h88z" />
<glyph unicode="&#xc5;" d="M-29 0l305 697h122l41 -697h-81l-10 172h-219l-73 -172h-85zM157 240h191l-20 387h-4zM269 846q10 48 43 76.5t81 28.5q47 0 69.5 -28.5t12.5 -76.5q-9 -48 -42 -76.5t-81 -28.5q-47 0 -69.5 28.5t-13.5 76.5zM316 846q-5 -28 7 -44t38 -16t44 16t23 44t-6.5 44t-37.5 16 t-44.5 -16t-23.5 -44z" />
<glyph unicode="&#xc6;" horiz-adv-x="704" d="M347 0l-1 172h-220l-81 -172h-84l335 697h447l-14 -72h-305l2 -226h211l-15 -72h-196l2 -255h203l-13 -72h-271zM159 240h188l-1 387h-4z" />
<glyph unicode="&#xc7;" horiz-adv-x="467" d="M77 -214l20 49q42 -11 60 -11q46 0 51 27q2 13 -9 24t-25 18t-24.5 21.5t-6.5 35.5q3 22 32 49q-83 18 -106.5 94t7.5 258q17 89 37 149.5t53.5 109.5t84 72.5t121.5 23.5q86 0 143 -18l-25 -66q-57 12 -117 12t-97 -21t-67 -83t-52 -179q-17 -90 -18.5 -146.5 t13.5 -87.5t41 -42.5t71 -11.5q34 0 128 18v-67q-75 -23 -133 -23q-7 0 -18.5 0.5t-17.5 0.5q-19 -19 -22 -37q-2 -12 9.5 -22.5t26 -18.5t24.5 -27t5 -45q-9 -40 -33 -55t-71 -15q-16 0 -37.5 3.5t-34.5 6.5z" />
<glyph unicode="&#xc8;" horiz-adv-x="483" d="M36 0l136 697h354l-15 -72h-272l-44 -226h222l-14 -72h-222l-50 -255h279l-14 -72h-360zM323 748l-44 140h85l31 -140h-72z" />
<glyph unicode="&#xc9;" horiz-adv-x="483" d="M36 0l136 697h354l-15 -72h-272l-44 -226h222l-14 -72h-222l-50 -255h279l-14 -72h-360zM495 888l-100 -140h-76l88 140h88z" />
<glyph unicode="&#xca;" horiz-adv-x="483" d="M36 0l136 697h354l-15 -72h-272l-44 -226h222l-14 -72h-222l-50 -255h279l-14 -72h-360zM219 748l143 140h45l90 -140h-69l-51 81l-82 -81h-76z" />
<glyph unicode="&#xcb;" horiz-adv-x="483" d="M36 0l136 697h354l-15 -72h-272l-44 -226h222l-14 -72h-222l-50 -255h279l-14 -72h-360zM316 748h-87l18 95h88zM489 748h-87l18 95h88z" />
<glyph unicode="&#xcc;" horiz-adv-x="248" d="M35 0l136 697h82l-136 -697h-82zM185 748l-44 140h85l31 -140h-72z" />
<glyph unicode="&#xcd;" horiz-adv-x="248" d="M35 0l136 697h82l-136 -697h-82zM356 888l-100 -140h-76l88 140h88z" />
<glyph unicode="&#xce;" horiz-adv-x="248" d="M35 0l136 697h82l-136 -697h-82zM80 748l143 140h45l90 -140h-69l-51 81l-82 -81h-76z" />
<glyph unicode="&#xcf;" horiz-adv-x="248" d="M35 0l136 697h82l-136 -697h-82zM177 748h-87l18 95h88zM350 748h-87l18 95h88z" />
<glyph unicode="&#xd0;" horiz-adv-x="554" d="M37 330l11 57h61l60 310h113q72 0 116.5 -7.5t79 -28t47.5 -59.5t12 -99.5t-19 -151.5q-23 -119 -46.5 -185t-66 -105t-95.5 -50t-147 -11h-128l63 330h-61zM130 72h40q48 0 77 3t58 13t45.5 28t33.5 50.5t29 77t25 110.5q12 65 16.5 110t-1.5 75.5t-16 47t-36 25.5 t-51 11t-71 2h-42l-46 -238h124l-11 -57h-124z" />
<glyph unicode="&#xd1;" horiz-adv-x="606" d="M35 0l134 697h118l95 -461q10 -45 28 -160h4q5 31 44 241l72 380h79l-134 -697h-120l-88 437q-21 97 -33 183h-4q-9 -58 -51 -279l-65 -341h-79zM298 767l-20 37q40 43 88 43q32 0 60.5 -22.5t47.5 -22.5q25 0 53 28l25 -35q-22 -26 -42.5 -39t-49.5 -13q-32 0 -61 22 t-50 22q-22 0 -51 -20z" />
<glyph unicode="&#xd2;" horiz-adv-x="564" d="M74 342q18 92 39.5 155t55.5 113.5t84 74.5t118 24q89 0 132.5 -42.5t45.5 -121.5t-19 -191q-18 -93 -39.5 -155.5t-55 -112.5t-83 -74t-118.5 -24q-89 0 -132.5 42.5t-46 121t18.5 190.5zM245 60q87 0 130.5 68t74.5 227q31 141 12.5 211.5t-103.5 70.5 q-86 0 -129.5 -68.5t-74.5 -227.5q-32 -141 -13.5 -211t103.5 -70zM347 748l-44 140h85l31 -140h-72z" />
<glyph unicode="&#xd3;" horiz-adv-x="564" d="M74 342q18 92 39.5 155t55.5 113.5t84 74.5t118 24q89 0 132.5 -42.5t45.5 -121.5t-19 -191q-18 -93 -39.5 -155.5t-55 -112.5t-83 -74t-118.5 -24q-89 0 -132.5 42.5t-46 121t18.5 190.5zM245 60q87 0 130.5 68t74.5 227q31 141 12.5 211.5t-103.5 70.5 q-86 0 -129.5 -68.5t-74.5 -227.5q-32 -141 -13.5 -211t103.5 -70zM519 888l-100 -140h-76l88 140h88z" />
<glyph unicode="&#xd4;" horiz-adv-x="564" d="M74 342q18 92 39.5 155t55.5 113.5t84 74.5t118 24q89 0 132.5 -42.5t45.5 -121.5t-19 -191q-18 -93 -39.5 -155.5t-55 -112.5t-83 -74t-118.5 -24q-89 0 -132.5 42.5t-46 121t18.5 190.5zM245 60q87 0 130.5 68t74.5 227q31 141 12.5 211.5t-103.5 70.5 q-86 0 -129.5 -68.5t-74.5 -227.5q-32 -141 -13.5 -211t103.5 -70zM242 748l143 140h45l90 -140h-69l-51 81l-82 -81h-76z" />
<glyph unicode="&#xd5;" horiz-adv-x="564" d="M74 342q18 92 39.5 155t55.5 113.5t84 74.5t118 24q89 0 132.5 -42.5t45.5 -121.5t-19 -191q-18 -93 -39.5 -155.5t-55 -112.5t-83 -74t-118.5 -24q-89 0 -132.5 42.5t-46 121t18.5 190.5zM245 60q87 0 130.5 68t74.5 227q31 141 12.5 211.5t-103.5 70.5 q-86 0 -129.5 -68.5t-74.5 -227.5q-32 -141 -13.5 -211t103.5 -70zM277 767l-20 37q40 43 88 43q32 0 60.5 -22.5t47.5 -22.5q25 0 53 28l25 -35q-22 -26 -42.5 -39t-49.5 -13q-32 0 -61 22t-50 22q-22 0 -51 -20z" />
<glyph unicode="&#xd6;" horiz-adv-x="564" d="M74 342q18 92 39.5 155t55.5 113.5t84 74.5t118 24q89 0 132.5 -42.5t45.5 -121.5t-19 -191q-18 -93 -39.5 -155.5t-55 -112.5t-83 -74t-118.5 -24q-89 0 -132.5 42.5t-46 121t18.5 190.5zM245 60q87 0 130.5 68t74.5 227q31 141 12.5 211.5t-103.5 70.5 q-86 0 -129.5 -68.5t-74.5 -227.5q-32 -141 -13.5 -211t103.5 -70zM340 748h-87l18 95h88zM513 748h-87l18 95h88z" />
<glyph unicode="&#xd7;" horiz-adv-x="508" d="M81 113l-39 42l184 158l-124 159q6 6 21.5 20.5t25.5 22.5l126 -159l184 158l40 -43l-186 -158l122 -156l-48 -43l-121 156z" />
<glyph unicode="&#xd8;" horiz-adv-x="564" d="M51 -41l-43 27l64 87q-35 82 2 269q18 92 39.5 155t55.5 113.5t84 74.5t118 24q86 0 129 -40l52 71l44 -26l-65 -90q36 -81 -1 -270q-18 -93 -39.5 -155.5t-55 -112.5t-83 -74t-118.5 -24q-90 0 -133 43zM245 60q87 0 131.5 68.5t75.5 226.5q26 135 14 197l-128 -192 l-179 -268q26 -32 86 -32zM154 341q-27 -134 -16 -196l114 171l194 286q-27 35 -87 35q-87 0 -131 -69t-74 -227z" />
<glyph unicode="&#xd9;" horiz-adv-x="565" d="M62 176l102 521h82l-103 -518q-20 -119 101 -119q127 0 148 119l102 518h83l-102 -521q-20 -98 -78 -143t-157 -45q-102 0 -149.5 46t-28.5 142zM345 748l-44 140h85l31 -140h-72z" />
<glyph unicode="&#xda;" horiz-adv-x="565" d="M62 176l102 521h82l-103 -518q-20 -119 101 -119q127 0 148 119l102 518h83l-102 -521q-20 -98 -78 -143t-157 -45q-102 0 -149.5 46t-28.5 142zM517 888l-100 -140h-76l88 140h88z" />
<glyph unicode="&#xdb;" horiz-adv-x="565" d="M62 176l102 521h82l-103 -518q-20 -119 101 -119q127 0 148 119l102 518h83l-102 -521q-20 -98 -78 -143t-157 -45q-102 0 -149.5 46t-28.5 142zM240 748l143 140h45l90 -140h-69l-51 81l-82 -81h-76z" />
<glyph unicode="&#xdc;" horiz-adv-x="565" d="M62 176l102 521h82l-103 -518q-20 -119 101 -119q127 0 148 119l102 518h83l-102 -521q-20 -98 -78 -143t-157 -45q-102 0 -149.5 46t-28.5 142zM338 748h-87l18 95h88zM511 748h-87l18 95h88z" />
<glyph unicode="&#xdd;" horiz-adv-x="473" d="M150 0l57 307l-124 390h87l70 -235q16 -56 19 -71h3q0 1 47 69l160 237h95l-276 -390l-57 -307h-81zM475 888l-100 -140h-76l88 140h88z" />
<glyph unicode="&#xde;" horiz-adv-x="522" d="M159 240h90q73 0 110 29.5t52 106.5q14 79 -9.5 106t-100.5 27h-91zM224 581h73q121 0 168 -45.5t27 -159.5q-19 -102 -75 -155.5t-164 -53.5h-108l-32 -167h-81l132 697h81z" />
<glyph unicode="&#xdf;" horiz-adv-x="525" d="M25 -27l99 514q18 92 63 139.5t149 47.5q84 0 123.5 -38t27.5 -96q-6 -34 -31 -66.5t-48 -59.5t-27 -48q-4 -19 6.5 -37.5t27 -34t32.5 -39t23.5 -52.5t-0.5 -74q-14 -72 -49.5 -104t-111.5 -32q-69 0 -111 18l28 65q52 -13 80 -13q41 0 58 18t26 60q7 31 -2 56.5 t-25.5 43l-33 35t-25.5 43.5t-2 58q5 27 28 53.5t46.5 54.5t30.5 56q5 25 -12.5 44t-62.5 19q-65 0 -90 -29.5t-36 -87.5l-100 -514q-19 -98 -52 -135t-110 -53q-29 -7 -64 -13l-5 66q9 2 34 7.5t33 8.5q40 11 55.5 34.5t27.5 84.5z" />
<glyph unicode="&#xe0;" horiz-adv-x="506" d="M48 236q30 156 86.5 214.5t146.5 58.5q88 0 187 -33l-68 -362q-8 -39 1.5 -50.5t51.5 -0.5v-58q-30 -10 -65 -10q-38 0 -52.5 17.5t-17.5 52.5h-3q-78 -74 -170 -74q-32 0 -54 10t-38.5 37.5t-16.5 75t12 122.5zM283 439q-56 0 -93.5 -42.5t-60.5 -161.5 q-17 -107 -8 -140.5t44 -33.5q82 0 159 85l53 279q-48 14 -94 14zM280 577l-44 140h85l31 -140h-72z" />
<glyph unicode="&#xe1;" horiz-adv-x="506" d="M48 236q30 156 86.5 214.5t146.5 58.5q88 0 187 -33l-68 -362q-8 -39 1.5 -50.5t51.5 -0.5v-58q-30 -10 -65 -10q-38 0 -52.5 17.5t-17.5 52.5h-3q-78 -74 -170 -74q-32 0 -54 10t-38.5 37.5t-16.5 75t12 122.5zM283 439q-56 0 -93.5 -42.5t-60.5 -161.5 q-17 -107 -8 -140.5t44 -33.5q82 0 159 85l53 279q-48 14 -94 14zM452 717l-100 -140h-76l88 140h88z" />
<glyph unicode="&#xe2;" horiz-adv-x="506" d="M48 236q30 156 86.5 214.5t146.5 58.5q88 0 187 -33l-68 -362q-8 -39 1.5 -50.5t51.5 -0.5v-58q-30 -10 -65 -10q-38 0 -52.5 17.5t-17.5 52.5h-3q-78 -74 -170 -74q-32 0 -54 10t-38.5 37.5t-16.5 75t12 122.5zM283 439q-56 0 -93.5 -42.5t-60.5 -161.5 q-17 -107 -8 -140.5t44 -33.5q82 0 159 85l53 279q-48 14 -94 14zM175 577l143 140h45l90 -140h-69l-51 81l-82 -81h-76z" />
<glyph unicode="&#xe3;" horiz-adv-x="506" d="M48 236q30 156 86.5 214.5t146.5 58.5q88 0 187 -33l-68 -362q-8 -39 1.5 -50.5t51.5 -0.5v-58q-30 -10 -65 -10q-38 0 -52.5 17.5t-17.5 52.5h-3q-78 -74 -170 -74q-32 0 -54 10t-38.5 37.5t-16.5 75t12 122.5zM283 439q-56 0 -93.5 -42.5t-60.5 -161.5 q-17 -107 -8 -140.5t44 -33.5q82 0 159 85l53 279q-48 14 -94 14zM211 596l-20 37q40 43 88 43q32 0 60.5 -22.5t47.5 -22.5q25 0 53 28l25 -35q-22 -26 -42.5 -39t-49.5 -13q-32 0 -61 22t-50 22q-22 0 -51 -20z" />
<glyph unicode="&#xe4;" horiz-adv-x="506" d="M48 236q30 156 86.5 214.5t146.5 58.5q88 0 187 -33l-68 -362q-8 -39 1.5 -50.5t51.5 -0.5v-58q-30 -10 -65 -10q-38 0 -52.5 17.5t-17.5 52.5h-3q-78 -74 -170 -74q-32 0 -54 10t-38.5 37.5t-16.5 75t12 122.5zM283 439q-56 0 -93.5 -42.5t-60.5 -161.5 q-17 -107 -8 -140.5t44 -33.5q82 0 159 85l53 279q-48 14 -94 14zM273 577h-87l18 95h88zM446 577h-87l18 95h88z" />
<glyph unicode="&#xe5;" horiz-adv-x="506" d="M48 236q30 156 86.5 214.5t146.5 58.5q88 0 187 -33l-68 -362q-8 -39 1.5 -50.5t51.5 -0.5v-58q-30 -10 -65 -10q-38 0 -52.5 17.5t-17.5 52.5h-3q-78 -74 -170 -74q-32 0 -54 10t-38.5 37.5t-16.5 75t12 122.5zM283 439q-56 0 -93.5 -42.5t-60.5 -161.5 q-17 -107 -8 -140.5t44 -33.5q82 0 159 85l53 279q-48 14 -94 14zM232 675q10 48 43 76.5t81 28.5q47 0 69.5 -28.5t12.5 -76.5q-9 -48 -42 -76.5t-81 -28.5q-47 0 -69.5 28.5t-13.5 76.5zM279 675q-5 -28 7 -44t38 -16t44 16t23 44t-6.5 44t-37.5 16t-44.5 -16t-23.5 -44z " />
<glyph unicode="&#xe6;" horiz-adv-x="773" d="M307 509q100 0 122 -67q51 70 157 70q94 0 131 -44.5t25 -106.5q-15 -77 -47 -105t-104 -28q-99 0 -167 22q0 -2 -1.5 -6t-1.5 -5q-20 -104 1 -141t88 -37q66 0 150 26l2 -65q-66 -31 -171 -31q-124 0 -153 84q-92 -84 -201 -84q-68 0 -93.5 39.5t-13.5 101.5l2 10 q17 87 65.5 122.5t142.5 41.5q39 4 115 5l3 18q13 67 -0.5 88.5t-66.5 21.5q-83 0 -171 -30l-3 65q99 35 190 35zM329 145q0 42 11 103q-89 -2 -126 -9q-45 -8 -69 -31t-34 -69q-9 -44 5 -62t46 -18q47 0 92 24.5t75 61.5zM439 316q72 -22 136 -22q40 0 58.5 14.5t26.5 50.5 q7 40 -13 63.5t-67 23.5q-57 0 -90.5 -32t-50.5 -98z" />
<glyph unicode="&#xe7;" horiz-adv-x="406" d="M56 -214l20 49q42 -11 60 -11q46 0 51 27q2 13 -9 24t-25 18t-24.5 21.5t-6.5 35.5q3 20 29 46q-77 13 -100.5 75.5t0.5 175.5q27 136 83 199t164 63q66 0 120 -18l-27 -64q-47 12 -98 12q-66 0 -103 -45.5t-57 -146.5q-20 -107 -0.5 -146.5t88.5 -39.5q46 0 102 17 l4 -66q-57 -21 -122 -21h-4q-18 -18 -21 -36q-2 -12 9.5 -22.5t26 -18.5t24.5 -27t5 -45q-9 -40 -33 -55t-71 -15q-16 0 -37.5 3.5t-34.5 6.5z" />
<glyph unicode="&#xe8;" horiz-adv-x="478" d="M51 251q27 140 80.5 200.5t160.5 60.5q95 0 132.5 -46t24.5 -114q-15 -76 -45.5 -100t-105.5 -24q-95 0 -165 22q0 -5 -3 -11q-19 -104 2.5 -141t88.5 -37q65 0 150 26l2 -65q-66 -31 -168 -31q-108 0 -144 61.5t-10 198.5zM149 316q72 -22 139 -22q42 0 58 14t23 51 q8 39 -12.5 63t-67.5 24q-57 0 -90.5 -32t-49.5 -98zM283 577l-44 140h85l31 -140h-72z" />
<glyph unicode="&#xe9;" horiz-adv-x="478" d="M51 251q27 140 80.5 200.5t160.5 60.5q95 0 132.5 -46t24.5 -114q-15 -76 -45.5 -100t-105.5 -24q-95 0 -165 22q0 -5 -3 -11q-19 -104 2.5 -141t88.5 -37q65 0 150 26l2 -65q-66 -31 -168 -31q-108 0 -144 61.5t-10 198.5zM149 316q72 -22 139 -22q42 0 58 14t23 51 q8 39 -12.5 63t-67.5 24q-57 0 -90.5 -32t-49.5 -98zM456 717l-100 -140h-76l88 140h88z" />
<glyph unicode="&#xea;" horiz-adv-x="478" d="M51 251q27 140 80.5 200.5t160.5 60.5q95 0 132.5 -46t24.5 -114q-15 -76 -45.5 -100t-105.5 -24q-95 0 -165 22q0 -5 -3 -11q-19 -104 2.5 -141t88.5 -37q65 0 150 26l2 -65q-66 -31 -168 -31q-108 0 -144 61.5t-10 198.5zM149 316q72 -22 139 -22q42 0 58 14t23 51 q8 39 -12.5 63t-67.5 24q-57 0 -90.5 -32t-49.5 -98zM179 577l143 140h45l90 -140h-69l-51 81l-82 -81h-76z" />
<glyph unicode="&#xeb;" horiz-adv-x="478" d="M51 251q27 140 80.5 200.5t160.5 60.5q95 0 132.5 -46t24.5 -114q-15 -76 -45.5 -100t-105.5 -24q-95 0 -165 22q0 -5 -3 -11q-19 -104 2.5 -141t88.5 -37q65 0 150 26l2 -65q-66 -31 -168 -31q-108 0 -144 61.5t-10 198.5zM149 316q72 -22 139 -22q42 0 58 14t23 51 q8 39 -12.5 63t-67.5 24q-57 0 -90.5 -32t-49.5 -98zM276 577h-87l18 95h88zM449 577h-87l18 95h88z" />
<glyph unicode="&#xec;" horiz-adv-x="243" d="M33 0l97 500h81l-97 -500h-81zM150 577l-44 140h85l31 -140h-72z" />
<glyph unicode="&#xed;" horiz-adv-x="243" d="M33 0l97 500h81l-97 -500h-81zM322 717l-100 -140h-76l88 140h88z" />
<glyph unicode="&#xee;" horiz-adv-x="243" d="M33 0l97 500h81l-97 -500h-81zM46 577l143 140h45l90 -140h-69l-51 81l-82 -81h-76z" />
<glyph unicode="&#xef;" horiz-adv-x="243" d="M33 0l97 500h81l-97 -500h-81zM316 577h-87l18 95h88zM143 577h-87l18 95h88z" />
<glyph unicode="&#xf0;" horiz-adv-x="492" d="M452 636l-63 -28q32 -35 49 -78t19.5 -93t-2 -94t-16.5 -102q-28 -137 -81 -195t-162 -58q-106 0 -139 59t-7 191q50 263 228 263q56 0 100 -22q-12 53 -59 98l-115 -50l-17 44l89 39q-34 23 -76 39l30 56q76 -28 120 -62l86 38zM360 252q21 114 17 159q-27 24 -96 24 q-58 0 -93.5 -45.5t-56.5 -151.5q-18 -103 -1 -141.5t75 -38.5q63 0 98 41.5t57 152.5z" />
<glyph unicode="&#xf1;" horiz-adv-x="514" d="M29 0l97 500h71l-8 -62h3q67 71 163 71q22 0 41.5 -6t40 -23t26 -46.5t-0.5 -76.5l-69 -357h-82l68 350q17 89 -46 89q-41 0 -83 -25t-72 -60l-68 -354h-81zM222 596l-20 37q40 43 88 43q32 0 60.5 -22.5t47.5 -22.5q25 0 53 28l25 -35q-22 -26 -42.5 -39t-49.5 -13 q-32 0 -61 22t-50 22q-22 0 -51 -20z" />
<glyph unicode="&#xf2;" horiz-adv-x="498" d="M202 -12q-111 0 -144.5 59t-6.5 194q27 140 81.5 205.5t163.5 65.5q110 0 143.5 -66.5t6.5 -204.5q-26 -136 -80 -194.5t-164 -58.5zM213 58q64 0 98 39.5t54 143.5q20 107 2 154t-80 47t-98 -47t-56 -154q-20 -106 -2 -144.5t82 -38.5zM280 577l-44 140h85l31 -140h-72z " />
<glyph unicode="&#xf3;" horiz-adv-x="498" d="M202 -12q-111 0 -144.5 59t-6.5 194q27 140 81.5 205.5t163.5 65.5q110 0 143.5 -66.5t6.5 -204.5q-26 -136 -80 -194.5t-164 -58.5zM213 58q64 0 98 39.5t54 143.5q20 107 2 154t-80 47t-98 -47t-56 -154q-20 -106 -2 -144.5t82 -38.5zM452 717l-100 -140h-76l88 140h88 z" />
<glyph unicode="&#xf4;" horiz-adv-x="498" d="M202 -12q-111 0 -144.5 59t-6.5 194q27 140 81.5 205.5t163.5 65.5q110 0 143.5 -66.5t6.5 -204.5q-26 -136 -80 -194.5t-164 -58.5zM213 58q64 0 98 39.5t54 143.5q20 107 2 154t-80 47t-98 -47t-56 -154q-20 -106 -2 -144.5t82 -38.5zM175 577l143 140h45l90 -140h-69 l-51 81l-82 -81h-76z" />
<glyph unicode="&#xf5;" horiz-adv-x="498" d="M202 -12q-111 0 -144.5 59t-6.5 194q27 140 81.5 205.5t163.5 65.5q110 0 143.5 -66.5t6.5 -204.5q-26 -136 -80 -194.5t-164 -58.5zM213 58q64 0 98 39.5t54 143.5q20 107 2 154t-80 47t-98 -47t-56 -154q-20 -106 -2 -144.5t82 -38.5zM211 596l-20 37q40 43 88 43 q32 0 60.5 -22.5t47.5 -22.5q25 0 53 28l25 -35q-22 -26 -42.5 -39t-49.5 -13q-32 0 -61 22t-50 22q-22 0 -51 -20z" />
<glyph unicode="&#xf6;" horiz-adv-x="498" d="M202 -12q-111 0 -144.5 59t-6.5 194q27 140 81.5 205.5t163.5 65.5q110 0 143.5 -66.5t6.5 -204.5q-26 -136 -80 -194.5t-164 -58.5zM213 58q64 0 98 39.5t54 143.5q20 107 2 154t-80 47t-98 -47t-56 -154q-20 -106 -2 -144.5t82 -38.5zM273 577h-87l18 95h88zM446 577 h-87l18 95h88z" />
<glyph unicode="&#xf7;" horiz-adv-x="508" d="M252 449l15 76h82l-15 -76h-82zM184 100l15 76h82l-15 -76h-82zM66 282l12 63h390l-12 -63h-390z" />
<glyph unicode="&#xf8;" horiz-adv-x="498" d="M208 -12q-75 0 -116 26l-45 -55l-41 29l51 64q-31 60 -6 189q27 141 79.5 206t160.5 65q73 0 115 -31l47 59l42 -29l-56 -69q33 -66 7 -201q-27 -137 -77.5 -195t-160.5 -58zM213 58q64 0 98 39.5t54 143.5q17 92 7 137q-56 -80 -126 -170l-103 -129q21 -21 70 -21z M133 241q-18 -83 -9 -124q32 44 117 155l114 144q-22 26 -68 26q-62 0 -98 -47t-56 -154z" />
<glyph unicode="&#xf9;" horiz-adv-x="514" d="M123 500h81l-68 -350q-16 -89 47 -89q40 0 82 25t72 60l68 354h81l-97 -500h-71l5 59h-2q-68 -68 -163 -68q-51 0 -85.5 34.5t-19.5 117.5zM282 577l-44 140h85l31 -140h-72z" />
<glyph unicode="&#xfa;" horiz-adv-x="514" d="M123 500h81l-68 -350q-16 -89 47 -89q40 0 82 25t72 60l68 354h81l-97 -500h-71l5 59h-2q-68 -68 -163 -68q-51 0 -85.5 34.5t-19.5 117.5zM454 717l-100 -140h-76l88 140h88z" />
<glyph unicode="&#xfb;" horiz-adv-x="514" d="M123 500h81l-68 -350q-16 -89 47 -89q40 0 82 25t72 60l68 354h81l-97 -500h-71l5 59h-2q-68 -68 -163 -68q-51 0 -85.5 34.5t-19.5 117.5zM177 577l143 140h45l90 -140h-69l-51 81l-82 -81h-76z" />
<glyph unicode="&#xfc;" horiz-adv-x="514" d="M123 500h81l-68 -350q-16 -89 47 -89q40 0 82 25t72 60l68 354h81l-97 -500h-71l5 59h-2q-68 -68 -163 -68q-51 0 -85.5 34.5t-19.5 117.5zM448 577h-87l18 95h88zM275 577h-87l18 95h88z" />
<glyph unicode="&#xfd;" horiz-adv-x="514" d="M123 500h81l-55 -280q-12 -63 27.5 -83t107.5 6q13 4 27 10t22 9l8 4l64 334h82l-98 -502q-44 -231 -235 -231q-74 0 -111 37.5t-24 101.5q21 106 144 169v1q-53 2 -80 38.5t-14 108.5zM307 -5l20 101q-40 -14 -86 -36q-125 -62 -140 -142q-8 -40 11 -60.5t53 -20.5 q111 0 142 158zM459 717l-100 -140h-76l88 140h88z" />
<glyph unicode="&#xfe;" d="M98 -68l-31 -155h-81l184 945h81l-39 -201q-13 -70 -21 -86h3q72 74 154 74q38 0 62.5 -10t41.5 -37t16 -74.5t-13 -122.5q-30 -157 -84.5 -215.5t-145.5 -58.5q-61 0 -114 17q-6 -39 -13 -76zM223 61q57 0 92.5 42t58.5 162q17 74 13.5 113t-16 50t-41.5 11 q-36 0 -77.5 -25t-73.5 -60l-53 -278q47 -15 97 -15z" />
<glyph unicode="&#xff;" horiz-adv-x="514" d="M123 500h81l-55 -280q-12 -63 27.5 -83t107.5 6q13 4 27 10t22 9l8 4l64 334h82l-98 -502q-44 -231 -235 -231q-74 0 -111 37.5t-24 101.5q21 106 144 169v1q-53 2 -80 38.5t-14 108.5zM307 -5l20 101q-40 -14 -86 -36q-125 -62 -140 -142q-8 -40 11 -60.5t53 -20.5 q111 0 142 158zM276 577h-87l18 95h88zM449 577h-87l18 95h88z" />
<glyph unicode="&#x152;" horiz-adv-x="763" d="M73 348q35 185 96 273t185 88q53 0 97 -22l2 10h353l-14 -72h-271l-43 -226h222l-15 -72h-222l-47 -255h278l-13 -72h-361l1 6q-44 -18 -91 -18q-87 0 -130 43t-45.5 123t18.5 194zM251 60q47 0 84 20l102 534q-33 23 -84 23q-86 0 -127.5 -66.5t-71.5 -222.5 q-32 -145 -13 -216.5t110 -71.5z" />
<glyph unicode="&#x153;" horiz-adv-x="785" d="M202 -12q-110 0 -144 59.5t-7 193.5q27 141 80 206t160 65q110 0 137 -89q55 89 176 89q94 0 131 -44.5t24 -106.5q-14 -72 -45.5 -102.5t-108.5 -30.5q-93 0 -164 22q-2 -10 -2 -11q-21 -103 0.5 -140.5t88.5 -37.5q66 0 150 26l1 -65q-66 -31 -170 -31q-115 0 -143 77 q-55 -80 -164 -80zM210 58q61 0 94.5 39.5t53.5 143.5q21 107 3.5 154t-77.5 47q-61 0 -96 -46.5t-56 -154.5q-20 -106 -2 -144.5t80 -38.5zM457 316q72 -22 136 -22q44 0 60.5 15.5t23.5 49.5q8 40 -12.5 63.5t-67.5 23.5q-107 0 -140 -130z" />
<glyph unicode="&#x178;" horiz-adv-x="473" d="M150 0l57 307l-124 390h87l70 -235q16 -56 19 -71h3q0 1 47 69l160 237h95l-276 -390l-57 -307h-81zM296 748h-87l18 95h88zM469 748h-87l18 95h88z" />
<glyph unicode="&#x2c6;" horiz-adv-x="306" d="M91 640l143 140h45l90 -140h-69l-51 81l-82 -81h-76z" />
<glyph unicode="&#x2dc;" horiz-adv-x="488" d="M241 719l-20 37q40 43 88 43q32 0 60.5 -22.5t47.5 -22.5q25 0 53 28l25 -35q-22 -26 -42.5 -39t-49.5 -13q-32 0 -61 22t-50 22q-22 0 -51 -20z" />
<glyph unicode="&#x1e9e;" horiz-adv-x="586" d="M29 0l90 454q14 72 29.5 115t44.5 76.5t74.5 47t114.5 13.5q98 0 197 -33l-15 -71q-71 -53 -98.5 -86t-35.5 -74q-5 -26 2 -48t20.5 -37.5t28.5 -35t27.5 -41t17 -55t-4.5 -77.5q-15 -74 -59 -114.5t-132 -40.5q-74 0 -120 20l26 66q80 -16 99 -16q51 0 74.5 24.5 t32.5 70.5q8 41 -1.5 72.5t-27 51.5t-35.5 40.5t-27 53t0 75.5q9 48 39.5 88.5t89.5 86.5q-40 13 -108 13q-86 0 -119 -40t-53 -145l-90 -454h-81z" />
<glyph unicode="&#x2000;" horiz-adv-x="475" />
<glyph unicode="&#x2001;" horiz-adv-x="951" />
<glyph unicode="&#x2002;" horiz-adv-x="475" />
<glyph unicode="&#x2003;" horiz-adv-x="951" />
<glyph unicode="&#x2004;" horiz-adv-x="317" />
<glyph unicode="&#x2005;" horiz-adv-x="237" />
<glyph unicode="&#x2006;" horiz-adv-x="158" />
<glyph unicode="&#x2007;" horiz-adv-x="158" />
<glyph unicode="&#x2008;" horiz-adv-x="118" />
<glyph unicode="&#x2009;" horiz-adv-x="190" />
<glyph unicode="&#x200a;" horiz-adv-x="52" />
<glyph unicode="&#x2010;" horiz-adv-x="362" d="M43 253l13 67h279l-13 -67h-279z" />
<glyph unicode="&#x2011;" horiz-adv-x="362" d="M43 253l13 67h279l-13 -67h-279z" />
<glyph unicode="&#x2012;" horiz-adv-x="362" d="M43 253l13 67h279l-13 -67h-279z" />
<glyph unicode="&#x2013;" horiz-adv-x="498" d="M43 253l13 68h415l-13 -68h-415z" />
<glyph unicode="&#x2014;" horiz-adv-x="988" d="M43 253l13 68h905l-13 -68h-905z" />
<glyph unicode="&#x2018;" horiz-adv-x="233" d="M204 722h74q-5 -7 -19 -31t-35 -72t-29 -89h-75q8 41 28.5 89t36 73.5t19.5 29.5z" />
<glyph unicode="&#x2019;" horiz-adv-x="233" d="M178 530h-74l4 7q4 7 10 17t13.5 24.5t15.5 31.5t15.5 35t13.5 38t10 39h76q-18 -93 -84 -192z" />
<glyph unicode="&#x201a;" horiz-adv-x="233" d="M57 -93h-74l4 7q4 7 10 17t13.5 24.5t15 31.5t15 35t14 38t9.5 39h76q-8 -41 -30 -90.5t-34 -70t-19 -31.5z" />
<glyph unicode="&#x201c;" horiz-adv-x="379" d="M348 722h75q-5 -7 -19 -31t-35 -72t-29 -89h-76q18 93 84 192zM204 722h74q-5 -7 -19 -31t-35 -72t-29 -89h-75q8 41 28.5 89t36 73.5t19.5 29.5z" />
<glyph unicode="&#x201d;" horiz-adv-x="379" d="M322 530h-74q5 7 19 31t35 72t29 89h76q-8 -41 -28.5 -88.5t-36.5 -74t-20 -29.5zM178 530h-74l4 7q4 7 10 17t13.5 24.5t15.5 31.5t15.5 35t13.5 38t10 39h76q-18 -93 -84 -192z" />
<glyph unicode="&#x201e;" horiz-adv-x="379" d="M203 -93h-75q5 6 19 30.5t34.5 72.5t28.5 89h77q-8 -41 -29 -89t-36 -73.5t-19 -29.5zM57 -93h-74l4 7q4 7 10 17t13.5 24.5t15 31.5t15 35t14 38t9.5 39h76q-8 -41 -30 -90.5t-34 -70t-19 -31.5z" />
<glyph unicode="&#x2022;" horiz-adv-x="273" d="M71 275l29 147h142l-29 -147h-142z" />
<glyph unicode="&#x2026;" horiz-adv-x="744" d="M38 0l19 100h103l-20 -100h-102zM274 0l19 100h103l-20 -100h-102zM509 0l20 100h102l-19 -100h-103z" />
<glyph unicode="&#x202f;" horiz-adv-x="190" />
<glyph unicode="&#x2039;" horiz-adv-x="306" d="M123 54l-57 200l135 199h74l-143 -204l58 -195h-67z" />
<glyph unicode="&#x203a;" horiz-adv-x="306" d="M241 254l-135 -200h-75l144 205l-58 194h67z" />
<glyph unicode="&#x205f;" horiz-adv-x="237" />
<glyph unicode="&#x20ac;" horiz-adv-x="548" d="M337 393h-106l-8 -42q-7 -37 -8 -41h106l-12 -60h-103q-8 -48 -5 -81.5t8.5 -54t22.5 -32t35.5 -15.5t47.5 -4q18 0 38.5 2.5t33 4.5t30.5 6t22 5v-67q-81 -23 -133 -23q-37 0 -63 4t-50.5 14.5t-38 28.5t-24.5 47t-10 69.5t5 95.5h-61l13 60h56q1 4 8 41l8 42h-56l11 60 h60q27 103 66 159.5t85.5 75t119.5 18.5q72 0 129 -18l-25 -66q-57 12 -112 12q-73 0 -112 -34.5t-69 -146.5h103z" />
<glyph unicode="&#x2116;" horiz-adv-x="898" d="M606 247l11 59h267l-11 -59h-267zM32 0l132 697h117l98 -461q11 -49 28 -158h4q5 33 43 239l71 380h79l-132 -697h-120l-92 441q-17 77 -31 178h-4q-4 -28 -50 -278l-64 -341h-79zM760 359q-81 0 -105 37t-8 121q17 85 56.5 126t119.5 41q81 0 104 -41t6 -126 q-16 -84 -53.5 -121t-119.5 -37zM771 417q39 0 58.5 21.5t30.5 79.5q12 56 1 81.5t-49 25.5t-58.5 -25t-31.5 -82q-11 -58 -0.5 -79.5t49.5 -21.5z" />
<glyph unicode="&#x2122;" horiz-adv-x="655" d="M618 348h-44l31 225l12 75h-3q-9 -24 -29 -64l-88 -181h-48l-19 181l-3 64h-3q-9 -44 -17 -76l-56 -224h-45l88 349h67l17 -181l3 -67h2q12 30 30 67l87 181h67zM140 348l61 311h-81l7 38h207l-7 -38h-80l-61 -311h-46z" />
<glyph unicode="&#x25fc;" horiz-adv-x="500" d="M0 500h500v-500h-500v500z" />
<glyph unicode="&#xfb06;" horiz-adv-x="755" d="M487 108l65 330h-73l12 62h73l31 132q-42 12 -93 12q-47 0 -75 -20t-35 -57q-2 -10 -2 -19.5t1.5 -17t3 -13t4.5 -11.5t5 -9t5.5 -7t3.5 -5l-24 -67q-91 21 -145 21q-79 0 -90 -58q-4 -29 7 -46.5t57 -33.5l36 -12q73 -25 97.5 -59t10.5 -109q-24 -130 -181 -130 q-103 0 -188 30l26 69q97 -29 163 -29q45 0 69 14t32 57q7 37 -6.5 56t-59.5 35l-35 12q-47 16 -70 29.5t-35 41.5t-3 73q13 71 54.5 100.5t114.5 29.5q39 0 90 -7q-17 38 -8 82q11 55 56 87.5t123 32.5q82 0 175 -29l-34 -175h131l-22 -62h-121l-64 -327q-6 -32 2 -41 t36 -9q8 0 18 1t18.5 2.5t16.5 3.5t13 3l5 1l2 -64q-36 -17 -96 -17q-59 0 -84.5 23.5t-12.5 93.5z" />
<glyph horiz-adv-x="362" d="M54 308l13 68h279l-13 -68h-279z" />
<glyph horiz-adv-x="498" d="M54 309l13 68h415l-13 -68h-415z" />
<glyph horiz-adv-x="988" d="M54 309l13 68h905l-13 -68h-905z" />
<glyph horiz-adv-x="19" d="M-25 330l18 91h80l-18 -91h-80z" />
<glyph horiz-adv-x="1" d="M-103 323l18 92h80l-18 -92h-80z" />
<glyph horiz-adv-x="566" d="M543 491l6 -71l-76 -22q1 -4 7.5 -47.5t8.5 -61.5t2.5 -51.5t-4.5 -59.5q-37 -190 -257 -190q-227 0 -187 207q25 127 160 186l1 2q-89 39 -67 156q33 167 210 167q57 0 124 -15l-24 -67q-44 10 -96 10q-60 0 -91.5 -25t-42.5 -79q-17 -90 75 -112q34 9 128 37t123 36z M395 374q-121 -35 -161 -53q-93 -41 -112 -136q-12 -63 15 -94t101 -31q144 0 169 129q13 63 -12 185z" />
<glyph horiz-adv-x="467" d="M392 81v-67q-75 -23 -133 -23q-54 0 -90 9t-63 32t-38 64t-9.5 103.5t17.5 151.5q17 89 37 149.5t53.5 109.5t84 72.5t121.5 23.5q86 0 143 -18l-25 -66q-57 12 -117 12t-97 -21t-67 -83t-52 -179q-17 -90 -18.5 -146.5t13.5 -87.5t41 -42.5t71 -11.5q34 0 128 18z M184 -199h-73q8 7 19.5 20t29 49.5t13.5 70.5h81q3 -39 -14.5 -74t-36.5 -51z" />
<glyph horiz-adv-x="564" d="M74 342q18 92 39.5 155t55.5 113.5t84 74.5t118 24q89 0 132.5 -42.5t45.5 -121.5t-19 -191q-18 -93 -39.5 -155.5t-55 -112.5t-83 -74t-118.5 -24q-89 0 -132.5 42.5t-46 121t18.5 190.5zM245 60q87 0 130.5 68t74.5 227q31 141 12.5 211.5t-103.5 70.5 q-86 0 -129.5 -68.5t-74.5 -227.5q-32 -141 -13.5 -211t103.5 -70zM493 888l-77 -140h-68l64 140h81z" />
<glyph horiz-adv-x="488" d="M367 0h-69l4 60h-3q-71 -69 -157 -69q-70 0 -97 39t-16 102l2 11q14 85 60.5 119.5t143.5 43.5q53 4 112 5l3 18q13 67 -0.5 88.5t-64.5 21.5q-80 0 -168 -30l-4 65q99 35 195 35q73 0 107 -38t15 -141zM315 146l20 101q-79 -1 -125 -9q-49 -7 -70 -28.5t-30 -70.5 q-9 -44 5 -62t48 -18q73 0 152 87z" />
<glyph horiz-adv-x="482" d="M50 251q27 140 81 200.5t163 60.5q113 0 143.5 -67t-16.5 -207h-292q-20 -101 2.5 -139t89.5 -38q72 0 157 30l4 -66q-91 -34 -176 -34q-111 0 -146 61.5t-10 198.5zM144 304h211q23 70 8 106t-73 36q-60 -1 -93.5 -35.5t-52.5 -106.5z" />
<glyph horiz-adv-x="319" d="M51 0l82 438h-72l12 62h72l20 95q14 79 51.5 106.5t96.5 27.5q58 0 122 -12l-24 -65q-54 7 -88 7q-35 0 -52.5 -14t-26.5 -60l-17 -85h139l-22 -62h-129l-83 -438h-81z" />
<glyph d="M75 -233l1 68q90 15 119 23q41 11 65.5 39t35.5 87l17 84h-2q-72 -68 -160 -68q-33 0 -55.5 10t-40 36.5t-18 72.5t11.5 118q29 158 83.5 215t154.5 57q92 0 182 -33l-94 -496q-18 -95 -55.5 -133.5t-108.5 -54.5q-85 -17 -136 -25zM130 239q-11 -54 -12 -88.5t7 -51.5 t19.5 -23t29.5 -6q38 0 79 24.5t72 59.5l53 271q-46 14 -94 14q-61 0 -96 -40.5t-58 -159.5z" />
<glyph horiz-adv-x="236" d="M29 0l141 722h81l-141 -722h-81z" />
<glyph horiz-adv-x="315" d="M47 108l100 522l83 10l-28 -140h132l-22 -62h-122l-62 -327q-6 -32 3 -41t36 -9q11 0 28.5 2.5t30.5 5.5l12 3l2 -64q-34 -17 -97 -17q-60 0 -85 23.5t-11 93.5z" />
<glyph horiz-adv-x="515" d="M157 1q-50 0 -84 34t-19 117l69 348h81l-67 -341q-16 -88 47 -88q77 0 153 84l68 345h81l-100 -520q-19 -98 -52 -133t-111 -54q-43 -12 -136 -26l1 68q79 13 119 24q50 14 69 36.5t32 84.5l18 93h-2q-68 -72 -167 -72z" />
<glyph horiz-adv-x="488" d="M367 0h-69l4 60h-3q-71 -69 -157 -69q-70 0 -97 39t-16 102l2 11q14 85 60.5 119.5t143.5 43.5q53 4 112 5l3 18q13 67 -0.5 88.5t-64.5 21.5q-80 0 -168 -30l-4 65q99 35 195 35q73 0 107 -38t15 -141zM315 146l20 101q-79 -1 -125 -9q-49 -7 -70 -28.5t-30 -70.5 q-9 -44 5 -62t48 -18q73 0 152 87zM290 577l-44 140h85l31 -140h-72z" />
<glyph horiz-adv-x="488" d="M367 0h-69l4 60h-3q-71 -69 -157 -69q-70 0 -97 39t-16 102l2 11q14 85 60.5 119.5t143.5 43.5q53 4 112 5l3 18q13 67 -0.5 88.5t-64.5 21.5q-80 0 -168 -30l-4 65q99 35 195 35q73 0 107 -38t15 -141zM315 146l20 101q-79 -1 -125 -9q-49 -7 -70 -28.5t-30 -70.5 q-9 -44 5 -62t48 -18q73 0 152 87zM462 717l-100 -140h-76l88 140h88z" />
<glyph horiz-adv-x="488" d="M367 0h-69l4 60h-3q-71 -69 -157 -69q-70 0 -97 39t-16 102l2 11q14 85 60.5 119.5t143.5 43.5q53 4 112 5l3 18q13 67 -0.5 88.5t-64.5 21.5q-80 0 -168 -30l-4 65q99 35 195 35q73 0 107 -38t15 -141zM315 146l20 101q-79 -1 -125 -9q-49 -7 -70 -28.5t-30 -70.5 q-9 -44 5 -62t48 -18q73 0 152 87zM185 577l143 140h45l90 -140h-69l-51 81l-82 -81h-76z" />
<glyph horiz-adv-x="488" d="M367 0h-69l4 60h-3q-71 -69 -157 -69q-70 0 -97 39t-16 102l2 11q14 85 60.5 119.5t143.5 43.5q53 4 112 5l3 18q13 67 -0.5 88.5t-64.5 21.5q-80 0 -168 -30l-4 65q99 35 195 35q73 0 107 -38t15 -141zM315 146l20 101q-79 -1 -125 -9q-49 -7 -70 -28.5t-30 -70.5 q-9 -44 5 -62t48 -18q73 0 152 87zM221 596l-20 37q40 43 88 43q32 0 60.5 -22.5t47.5 -22.5q25 0 53 28l25 -35q-22 -26 -42.5 -39t-49.5 -13q-32 0 -61 22t-50 22q-22 0 -51 -20z" />
<glyph horiz-adv-x="488" d="M367 0h-69l4 60h-3q-71 -69 -157 -69q-70 0 -97 39t-16 102l2 11q14 85 60.5 119.5t143.5 43.5q53 4 112 5l3 18q13 67 -0.5 88.5t-64.5 21.5q-80 0 -168 -30l-4 65q99 35 195 35q73 0 107 -38t15 -141zM315 146l20 101q-79 -1 -125 -9q-49 -7 -70 -28.5t-30 -70.5 q-9 -44 5 -62t48 -18q73 0 152 87zM283 577h-87l18 95h88zM456 577h-87l18 95h88z" />
<glyph horiz-adv-x="488" d="M367 0h-69l4 60h-3q-71 -69 -157 -69q-70 0 -97 39t-16 102l2 11q14 85 60.5 119.5t143.5 43.5q53 4 112 5l3 18q13 67 -0.5 88.5t-64.5 21.5q-80 0 -168 -30l-4 65q99 35 195 35q73 0 107 -38t15 -141zM241 675q10 48 43 76.5t81 28.5q47 0 69.5 -28.5t12.5 -76.5 q-9 -48 -42 -76.5t-81 -28.5q-47 0 -69.5 28.5t-13.5 76.5zM315 146l20 101q-79 -1 -125 -9q-49 -7 -70 -28.5t-30 -70.5q-9 -44 5 -62t48 -18q73 0 152 87zM288 675q-5 -28 7 -44t38 -16t44 16t23 44t-6.5 44t-37.5 16t-44.5 -16t-23.5 -44z" />
<glyph horiz-adv-x="774" d="M307 509q101 0 123 -70q53 70 157 70q91 0 128.5 -41.5t21.5 -129.5q-9 -51 -26 -100h-291q-20 -101 2 -139t89 -38q63 0 147 26l3 -65q-66 -31 -169 -31q-126 0 -154 85q-92 -85 -201 -85q-68 0 -93.5 39.5t-13.5 101.5l2 10q17 86 66 122t137 42q38 4 120 5l3 18 q13 67 -0.5 88.5t-66.5 21.5q-83 0 -171 -30l-3 65q99 35 190 35zM329 145q0 42 11 103q-89 -2 -126 -9q-46 -8 -70 -31t-33 -69q-17 -80 51 -80q47 0 92 24.5t75 61.5zM435 304h210q11 36 12 42q9 52 -10.5 74.5t-65.5 22.5q-60 -1 -94 -34.5t-52 -104.5z" />
<glyph horiz-adv-x="482" d="M50 251q27 140 81 200.5t163 60.5q113 0 143.5 -67t-16.5 -207h-292q-20 -101 2.5 -139t89.5 -38q72 0 157 30l4 -66q-91 -34 -176 -34q-111 0 -146 61.5t-10 198.5zM144 304h211q23 70 8 106t-73 36q-60 -1 -93.5 -35.5t-52.5 -106.5zM283 577l-44 140h85l31 -140h-72z " />
<glyph horiz-adv-x="482" d="M50 251q27 140 81 200.5t163 60.5q113 0 143.5 -67t-16.5 -207h-292q-20 -101 2.5 -139t89.5 -38q72 0 157 30l4 -66q-91 -34 -176 -34q-111 0 -146 61.5t-10 198.5zM144 304h211q23 70 8 106t-73 36q-60 -1 -93.5 -35.5t-52.5 -106.5zM456 717l-100 -140h-76l88 140h88z " />
<glyph horiz-adv-x="482" d="M50 251q27 140 81 200.5t163 60.5q113 0 143.5 -67t-16.5 -207h-292q-20 -101 2.5 -139t89.5 -38q72 0 157 30l4 -66q-91 -34 -176 -34q-111 0 -146 61.5t-10 198.5zM144 304h211q23 70 8 106t-73 36q-60 -1 -93.5 -35.5t-52.5 -106.5zM179 577l143 140h45l90 -140h-69 l-51 81l-82 -81h-76z" />
<glyph horiz-adv-x="482" d="M50 251q27 140 81 200.5t163 60.5q113 0 143.5 -67t-16.5 -207h-292q-20 -101 2.5 -139t89.5 -38q72 0 157 30l4 -66q-91 -34 -176 -34q-111 0 -146 61.5t-10 198.5zM144 304h211q23 70 8 106t-73 36q-60 -1 -93.5 -35.5t-52.5 -106.5zM277 577h-87l18 95h88zM450 577 h-87l18 95h88z" />
<glyph horiz-adv-x="299" d="M26 -27l118 622q15 79 53 106.5t105 27.5q59 0 113 -12l-24 -65q-54 7 -87 7q-35 0 -53 -14.5t-26 -59.5l-17 -85h140l-23 -62h-129l-89 -465q-18 -97 -50.5 -134.5t-108.5 -53.5q-29 -7 -64 -13l-4 66q9 2 33 7.5t32 8.5q39 11 54.5 34.5t26.5 84.5z" />
<glyph horiz-adv-x="790" d="M196 -12q-106 1 -139 60.5t-6 192.5q27 141 80 206t160 65q112 0 136 -91q56 91 179 91q91 0 128 -43t21 -132q-8 -50 -26 -99h-291q-20 -101 2 -139t90 -38q69 0 157 30l3 -66q-85 -34 -179 -34q-119 0 -146 77q-56 -80 -169 -80zM210 58q61 0 94.5 39.5t53.5 143.5 q21 107 3.5 154t-77.5 47q-61 0 -96 -46.5t-56 -154.5q-20 -106 -2 -144.5t80 -38.5zM453 304h211q8 27 11 42q18 100 -75 100q-61 -1 -94.5 -35.5t-52.5 -106.5z" />
<glyph horiz-adv-x="515" d="M157 1q-50 0 -84 34t-19 117l69 348h81l-67 -341q-16 -88 47 -88q77 0 153 84l68 345h81l-100 -520q-19 -98 -52 -133t-111 -54q-43 -12 -136 -26l1 68q79 13 119 24q50 14 69 36.5t32 84.5l18 93h-2q-68 -72 -167 -72zM455 717l-100 -140h-76l88 140h88z" />
<glyph horiz-adv-x="515" d="M157 1q-50 0 -84 34t-19 117l69 348h81l-67 -341q-16 -88 47 -88q77 0 153 84l68 345h81l-100 -520q-19 -98 -52 -133t-111 -54q-43 -12 -136 -26l1 68q79 13 119 24q50 14 69 36.5t32 84.5l18 93h-2q-68 -72 -167 -72zM448 577h-87l18 95h88zM275 577h-87l18 95h88z" />
<glyph horiz-adv-x="406" d="M51 247q27 136 83 199t164 63q66 0 120 -18l-27 -64q-47 12 -98 12q-66 0 -103 -45.5t-57 -146.5q-20 -107 -0.5 -146.5t88.5 -39.5q46 0 102 17l4 -66q-57 -21 -122 -21q-110 0 -145 61.5t-9 194.5zM143 -199h-73q8 7 19.5 20t29 49.5t13.5 70.5h81q3 -39 -14.5 -74 t-36.5 -51z" />
<glyph horiz-adv-x="498" d="M202 -12q-111 0 -144.5 59t-6.5 194q27 140 81.5 205.5t163.5 65.5q110 0 143.5 -66.5t6.5 -204.5q-26 -136 -80 -194.5t-164 -58.5zM213 58q64 0 98 39.5t54 143.5q20 107 2 154t-80 47t-98 -47t-56 -154q-20 -106 -2 -144.5t82 -38.5zM425 717l-77 -140h-68l64 140h81z " />
<glyph horiz-adv-x="521" d="M228 500h111l-23 -62h-100l-90 -465q-19 -98 -52 -135t-111 -53q-33 -8 -64 -13l-4 66q8 2 33 7.5t33 8.5q40 11 55.5 34.5t27.5 84.5l90 465h-71l12 62h71l19 95q15 80 53 107t106 27q46 0 113 -7t97 -15l-138 -707h-81l127 650q-76 9 -112 9q-38 0 -57.5 -13.5 t-27.5 -57.5z" />
<glyph horiz-adv-x="945" d="M460 0l128 660q-38 9 -81 9q-48 0 -78.5 -23.5t-38.5 -66.5q-8 -42 23 -94l-24 -67q-91 21 -145 21q-79 0 -90 -58q-4 -29 7 -46.5t57 -33.5l36 -12q73 -25 97.5 -59t10.5 -109q-24 -130 -181 -130q-103 0 -188 30l26 69q97 -29 163 -29q45 0 69 14t32 57q7 37 -6.5 56 t-59.5 35l-35 12q-47 16 -70 29.5t-35 41.5t-3 73q13 71 54.5 100.5t114.5 29.5q39 0 92 -7q-22 43 -11 96q11 59 58.5 95t119.5 36q88 0 175 -27l-35 -184l-22 -83h2q74 74 167 74q21 0 40 -6t39 -23t25.5 -46.5t-1.5 -76.5l-69 -357h-81l67 350q17 89 -46 89 q-40 0 -82 -25t-72 -60l-68 -354h-81z" />
<glyph horiz-adv-x="739" d="M471 108l64 330h-73l12 62h73l33 135q-40 9 -81 9q-47 0 -74.5 -20t-34.5 -54q-2 -9 -2 -18t0.5 -15t3.5 -12.5t4.5 -10t5.5 -8t6 -6.5l6 -6l4 -3l-28 -66q-54 14 -97 14q-66 0 -103 -45.5t-57 -146.5q-20 -107 -0.5 -146.5t88.5 -39.5q46 0 102 17l4 -66 q-57 -21 -122 -21q-110 0 -145 61.5t-9 194.5q27 136 83 199t164 63q9 0 33 -2q-18 34 -9 77q12 55 56 87.5t116 32.5q85 0 170 -26l-36 -178h132l-22 -62h-122l-64 -327q-6 -32 2.5 -41t36.5 -9q11 0 28.5 2.5t30.5 5.5l12 3l2 -64q-36 -17 -96 -17t-85.5 23.5t-11.5 93.5z " />
<glyph horiz-adv-x="920" d="M435 0l129 662q-27 6 -55 6q-98 0 -115 -86q-9 -50 24 -91l-28 -66q-54 14 -97 14q-66 0 -103 -45.5t-57 -146.5q-20 -107 -0.5 -146.5t88.5 -39.5q46 0 102 17l4 -66q-57 -21 -122 -21q-110 0 -145 61.5t-9 194.5q27 136 83 199t164 63q18 0 41 -3q-22 44 -12 96 q11 56 58.5 91t122.5 35q78 0 145 -25l-37 -185l-21 -83h2q72 74 167 74q21 0 40 -6t38.5 -23t25 -46.5t-1.5 -76.5l-68 -357h-81l66 350q18 89 -46 89q-40 0 -82 -25t-71 -60l-68 -354h-81z" />
<glyph horiz-adv-x="328" d="M61 404q20 102 56 139.5t99 37.5q70 0 122 -23l-40 -208q-4 -25 2 -31.5t30 -1.5v-47q-26 -8 -51 -8q-42 0 -50 37h-2q-54 -40 -97 -40q-47 0 -65.5 31.5t-3.5 113.5zM215 525q-33 0 -51.5 -22t-31.5 -90q-10 -65 -4 -81t28 -16q35 0 73 32l33 169q-21 8 -47 8z" />
<glyph horiz-adv-x="407" d="M322 536l-19 -97q-11 -59 -32.5 -90t-71.5 -73l-43 -35q-27 -22 -39 -42.5t-18 -51.5q-11 -55 12 -71.5t75 -16.5q59 0 141 21l-1 -62q-86 -27 -158 -27q-86 0 -126.5 35.5t-23.5 124.5q16 82 88 141l50 41q36 29 48 52t20 66l16 85h82zM353 697l-17 -85h-81l17 85h81z " />
<glyph horiz-adv-x="239" d="M216 534l-103 -534h-81l103 534h81zM248 697l-17 -85h-81l17 85h81z" />
</font>
</defs>
</svg>
