<?xml version="1.0" standalone="no"?>
<!DOCTYPE svg PUBLIC "-//W3C//DTD SVG 1.1//EN" "http://www.w3.org/Graphics/SVG/1.1/DTD/svg11.dtd" >
<svg xmlns="http://www.w3.org/2000/svg" xmlns:xlink="http://www.w3.org/1999/xlink" version="1.1">
<metadata></metadata>
<defs>
<font id="bunday_sanssemibold" horiz-adv-x="515" >
<font-face units-per-em="1000" ascent="750" descent="-250" />
<missing-glyph horiz-adv-x="227" />
<glyph unicode="&#xfb00;" horiz-adv-x="624" d="M95 423h-71v79h71v85q0 84 36.5 113t105.5 29q63 0 100 -10l-14 -81q-42 4 -55 4q-37 0 -52 -12.5t-15 -53.5v-74h176v85q0 84 36.5 113t104.5 29q74 0 130 -13l-14 -81q-63 7 -84 7q-37 0 -52 -12.5t-15 -53.5v-74h141l-13 -79h-128v-423h-106v423h-176v-423h-106v423z " />
<glyph unicode="&#xfb01;" horiz-adv-x="555" d="M201 502h284v-502h-107v423h-177v-423h-106v423h-71v79h71v85q0 84 37 113t110 29q108 0 195 -23l-15 -81q-89 17 -156 17q-35 0 -50 -12.5t-15 -53.5v-74z" />
<glyph unicode="&#xfb02;" horiz-adv-x="583" d="M201 502h109l-13 -79h-96v-423h-106v423h-71v79h71v85q0 85 38 113.5t114 28.5q54 0 127 -7.5t110 -15.5v-578q0 -29 8 -37.5t26 -8.5q7 0 16 1t15 1.5t7 0.5l11 -83q-32 -10 -85 -10q-52 0 -78 27.5t-26 103.5v513q-74 7 -105 7q-40 0 -56 -11.5t-16 -51.5v-78z" />
<glyph unicode="&#xfb03;" horiz-adv-x="838" d="M484 502h284v-502h-107v423h-177v-423h-106v423h-177v-423h-106v423h-71v79h71v85q0 84 36.5 113t105.5 29q63 0 100 -10l-14 -81q-42 4 -55 4q-37 0 -52 -12.5t-15 -53.5v-74h177v85q0 84 37 113t110 29q108 0 195 -23l-15 -81q-89 17 -156 17q-35 0 -50 -12.5 t-15 -53.5v-74z" />
<glyph unicode="&#xfb04;" horiz-adv-x="866" d="M484 502h109l-13 -79h-96v-423h-106v423h-177v-423h-106v423h-71v79h71v85q0 84 36.5 113t105.5 29q63 0 100 -10l-14 -81q-42 4 -55 4q-37 0 -52 -12.5t-15 -53.5v-74h177v85q0 85 38 113.5t115 28.5q129 0 237 -23v-578q0 -29 7.5 -37.5t25.5 -8.5q7 0 16 1t15 1.5 t7 0.5l11 -83q-32 -10 -85 -10q-52 0 -78 27.5t-26 103.5v513q-73 7 -105 7q-40 0 -56 -11.5t-16 -51.5v-78z" />
<glyph unicode="fb" horiz-adv-x="819" d="M201 502h109l-13 -79h-96v-423h-106v423h-71v79h71v85q0 85 38 113.5t114 28.5q54 0 127 -7.5t110 -15.5v-165q0 -76 -2 -86h2q68 56 139 56q77 0 114 -50t37 -181q0 -163 -46.5 -226t-154.5 -63q-103 0 -195 36v609q-74 7 -105 7q-40 0 -56 -11.5t-16 -51.5v-78zM566 81 q36 0 56.5 13t32.5 54t12 118q0 95 -17 125t-54 30q-57 0 -112 -57v-271q34 -12 82 -12z" />
<glyph unicode="fh" horiz-adv-x="833" d="M201 502h109l-13 -79h-96v-423h-106v423h-71v79h71v85q0 85 38 113.5t114 28.5q54 0 127 -7.5t110 -15.5v-169l-2 -82h2q68 56 147 56q58 0 95.5 -34.5t37.5 -116.5v-360h-107v345q0 76 -59 76t-114 -57v-364h-106v636q-74 7 -105 7q-40 0 -56 -11.5t-16 -51.5v-78z" />
<glyph unicode="fj" horiz-adv-x="555" d="M201 502h283v-491q0 -102 -29 -143t-106 -57q-46 -10 -73 -14l-17 84q53 12 63 15q37 11 46.5 34.5t9.5 82.5v410h-177v-423h-106v423h-71v79h71v85q0 84 37 113t110 29q108 0 195 -23l-15 -81q-89 17 -156 17q-35 0 -50 -12.5t-15 -53.5v-74z" />
<glyph unicode="ffj" horiz-adv-x="838" d="M484 502h284v-491q0 -102 -29.5 -143t-106.5 -57q-40 -9 -73 -14l-17 84q53 12 63 15q37 11 46.5 34.5t9.5 82.5v410h-177v-423h-106v423h-177v-423h-106v423h-71v79h71v85q0 84 36.5 113t105.5 29q63 0 100 -10l-14 -81q-42 4 -55 4q-37 0 -52 -12.5t-15 -53.5v-74h177 v85q0 84 37 113t110 29q108 0 195 -23l-15 -81q-89 17 -156 17q-35 0 -50 -12.5t-15 -53.5v-74z" />
<glyph unicode="fk" horiz-adv-x="810" d="M201 502h109l-13 -79h-96v-423h-106v423h-71v79h71v85q0 85 38 113.5t114 28.5q54 0 127 -7.5t110 -15.5v-385q49 -5 58 -8l132 189h121l-163 -225q40 -32 71 -86l113 -191h-119l-88 148q-31 51 -53.5 67t-71.5 16v-231h-106v636q-74 7 -105 7q-40 0 -56 -11.5t-16 -51.5 v-78z" />
<glyph unicode="ft" horiz-adv-x="640" d="M95 423h-71v79h71v85q0 84 36.5 113t105.5 29q63 0 100 -10l-14 -81q-42 4 -55 4q-37 0 -52 -12.5t-15 -53.5v-74h178l8 130l98 10v-140h129l-12 -79h-117v-298q0 -28 9.5 -36t34.5 -8q14 0 69 11l17 -82q-39 -18 -112 -18q-67 0 -96 26t-29 105v300h-177v-423h-106v423z " />
<glyph horiz-adv-x="500" />
<glyph horiz-adv-x="500" />
<glyph horiz-adv-x="333" />
<glyph unicode="&#xd;" horiz-adv-x="0" />
<glyph unicode=" "  horiz-adv-x="227" />
<glyph unicode="&#x09;" horiz-adv-x="227" />
<glyph unicode="&#xa0;" horiz-adv-x="227" />
<glyph unicode="!" horiz-adv-x="250" d="M72 181v516h107v-516h-107zM72 0v98h107v-98h-107z" />
<glyph unicode="&#x22;" horiz-adv-x="399" d="M246 521l-8 201h95l-8 -201h-79zM74 521l-8 201h95l-8 -201h-79z" />
<glyph unicode="#" horiz-adv-x="786" d="M77 158l7 70h175l13 122h-175l8 68h174l19 176h68l-19 -176h125l19 176h68l-18 -176h165l-7 -68h-166l-13 -122h166l-8 -70h-165l-17 -162h-68l17 162h-125l-17 -162h-68l17 162h-175zM327 228h125l13 122h-125z" />
<glyph unicode="$" horiz-adv-x="555" d="M77 30l17 87q113 -24 166 -24q63 0 87 21t24 73q0 43 -19.5 71t-75.5 52l-40 17q-80 36 -115 77t-35 118q0 152 156 169v97h70v-95q82 -3 140 -22l-18 -85q-79 17 -140 17q-102 0 -102 -81q0 -40 20.5 -61.5t67.5 -42.5l38 -16q83 -36 121 -80.5t38 -133.5 q0 -92 -38.5 -136t-126.5 -50v-93h-70v93q-105 5 -165 28z" />
<glyph unicode="%" horiz-adv-x="873" d="M32 481q0 121 31.5 172.5t114.5 51.5q82 0 111 -51t29 -174q0 -122 -30.5 -172t-113.5 -50t-112.5 50t-29.5 173zM176 327q35 0 46 32.5t11 121.5q0 88 -11 121t-46 33q-36 0 -47.5 -33t-11.5 -121t11.5 -121t47.5 -33zM555 216q0 121 31.5 172.5t114.5 51.5 q82 0 111.5 -51t29.5 -174q0 -122 -31 -172t-114 -50t-112.5 50t-29.5 173zM699 62q35 0 46 32t11 122q0 89 -11 121.5t-46 32.5q-36 0 -47.5 -33t-11.5 -121t11.5 -121t47.5 -33zM224 -22l344 740h82l-344 -740h-82z" />
<glyph unicode="&#x26;" horiz-adv-x="563" d="M492 451l24 -83l-64 -20l14 -38.5t16 -44.5t11 -43t5 -48q0 -92 -59 -138.5t-164 -46.5q-224 0 -224 180q0 121 113 170v2q-87 39 -87 138q0 158 178 158q74 0 137 -18l-16 -82q-59 11 -99 11q-51 0 -72.5 -18.5t-21.5 -59.5q0 -35 21.5 -58t58.5 -27zM353 317 q-86 -25 -126 -43q-70 -31 -70 -103q0 -93 118 -93q57 0 87 27t30 71q0 42 -39 141z" />
<glyph unicode="'" horiz-adv-x="227" d="M74 521l-8 201h95l-8 -201h-79z" />
<glyph unicode="(" horiz-adv-x="379" d="M314 -27h-114q-112 183 -112 381q0 186 113 369h112q-125 -186 -125 -367q0 -197 126 -383z" />
<glyph unicode=")" horiz-adv-x="379" d="M179 -27h-114q126 186 126 383q0 181 -125 367h112q113 -183 113 -369q0 -198 -112 -381z" />
<glyph unicode="*" horiz-adv-x="505" d="M167 328l-59 42l91 117l-144 43l23 67l141 -47l-3 147h73l-2 -147l142 47l23 -67l-145 -43l93 -117l-61 -42l-86 120z" />
<glyph unicode="+" d="M216 104v168h-163v82h163v167h83v-167h163v-82h-163v-168h-83z" />
<glyph unicode="," horiz-adv-x="256" d="M129 -106h-96q20 31 37.5 89t17.5 127h100q0 -71 -19 -129t-40 -87z" />
<glyph unicode="-" horiz-adv-x="367" d="M39 243v86h289v-86h-289z" />
<glyph unicode="." horiz-adv-x="256" d="M65 0v110h125v-110h-125z" />
<glyph unicode="/" horiz-adv-x="370" d="M248 697h91l-218 -697h-90z" />
<glyph unicode="0" horiz-adv-x="540" d="M49 348q0 188 47 274.5t177 86.5q54 0 93 -15.5t63 -43.5t38 -74.5t19 -100t5 -128.5q0 -188 -47 -273.5t-177 -85.5q-54 0 -92.5 15.5t-63 43t-38.5 74t-19 99.5t-5 128zM270 80q70 0 92 59t22 209q0 149 -22 209t-92 60t-92 -60t-22 -209q0 -150 22 -209t92 -59z" />
<glyph unicode="1" horiz-adv-x="313" d="M129 0v605h-98v92h205v-697h-107z" />
<glyph unicode="2" horiz-adv-x="479" d="M49 0v153q0 96 33 138.5t121 82.5l41 19q42 20 61 48.5t19 82.5q0 46 -20.5 68t-65.5 22q-62 0 -161 -24l-16 85q103 31 186 31q94 0 138 -43.5t44 -134.5q0 -97 -36 -142.5t-113 -80.5l-42 -20q-49 -23 -65.5 -50t-16.5 -89v-54h273v-92h-380z" />
<glyph unicode="3" horiz-adv-x="463" d="M18 26l23 84q84 -28 162 -28q62 0 84.5 29t21.5 85q0 62 -27.5 92.5t-105.5 33.5l-65 2v87l66 3q70 2 96 28t26 80q0 46 -18.5 69t-70.5 23q-22 0 -43 -2t-40 -6t-30 -6.5t-28.5 -7.5t-19.5 -6l-20 82q89 38 180 38q105 0 151 -43t46 -136q0 -61 -26.5 -100.5 t-65.5 -53.5q105 -36 102 -179q-1 -103 -50.5 -153.5t-159.5 -50.5q-91 0 -188 36z" />
<glyph unicode="4" horiz-adv-x="506" d="M32 190l-15 87l208 433l98 -38l-82 -168l-114 -223h203l4 147h101v-428h-107v190h-296z" />
<glyph unicode="5" horiz-adv-x="493" d="M53 21l15 87q101 -26 161 -26q63 0 89.5 29.5t26.5 96.5q0 65 -25 97.5t-101 32.5q-56 0 -119 -13l-29 21v351h333v-91h-226v-182q32 6 67 6q104 0 155.5 -54t51.5 -169t-53.5 -166t-153.5 -51q-99 0 -192 31z" />
<glyph unicode="6" horiz-adv-x="512" d="M284 614q-73 0 -99 -47.5t-29 -162.5q63 36 135 36q83 0 130.5 -53.5t47.5 -169.5q0 -229 -209 -229q-52 0 -89 15.5t-60.5 42.5t-37.5 72.5t-19 97.5t-5 124q0 98 9.5 161.5t34.5 112.5t71 70.5t118 21.5q71 0 146 -25l-17 -84q-85 17 -127 17zM273 350q-30 0 -63.5 -10 t-53.5 -27q2 -127 23 -180t81 -53q52 0 76.5 30.5t24.5 106.5q0 73 -22 103t-66 30z" />
<glyph unicode="7" horiz-adv-x="452" d="M189 0h-110q41 187 88 311t139 294h-277v92h394v-92q-101 -190 -151 -315t-83 -290z" />
<glyph unicode="8" horiz-adv-x="531" d="M41 199q0 131 94 177q-32 13 -52 54.5t-20 87.5q0 191 203 191q201 0 201 -191q0 -47 -20 -88t-51 -55q94 -43 93 -175q-1 -105 -55.5 -158.5t-168.5 -53.5q-224 0 -224 211zM265 412q99 0 99 105q0 103 -99 103q-98 0 -98 -103q0 -105 98 -105zM265 78q60 0 88.5 29.5 t28.5 93.5q0 123 -117 123t-117 -124q0 -63 28.5 -92.5t88.5 -29.5z" />
<glyph unicode="9" horiz-adv-x="512" d="M228 83q73 0 99 47.5t28 162.5q-58 -36 -134 -36q-83 0 -130.5 53.5t-47.5 169.5q0 229 209 229q52 0 89 -15.5t60.5 -42.5t37.5 -72.5t19 -97.5t5 -124q0 -98 -9.5 -161.5t-34.5 -112.5t-71 -70.5t-118 -21.5q-71 0 -146 25l17 84q85 -17 127 -17zM239 347q29 0 62.5 10 t54.5 27q-2 127 -23 180t-81 53q-52 0 -76.5 -30.5t-24.5 -106.5q0 -73 22 -103t66 -30z" />
<glyph unicode=":" horiz-adv-x="256" d="M65 326v110h125v-110h-125zM65 0v110h125v-110h-125z" />
<glyph unicode=";" horiz-adv-x="256" d="M66 326v110h125v-110h-125zM129 -106h-96q20 31 37.5 89t17.5 127h100q0 -71 -19 -129t-40 -87z" />
<glyph unicode="&#x3c;" d="M87 266v90l340 255v-106l-254 -192l254 -193v-107z" />
<glyph unicode="=" d="M63 375v82h389v-82h-389zM63 171v82h389v-82h-389z" />
<glyph unicode="&#x3e;" d="M427 356v-90l-340 -253v107l254 193l-254 192v106z" />
<glyph unicode="?" horiz-adv-x="413" d="M136 178v84q0 59 15.5 89.5t56.5 70.5l33 32q35 35 35 87q0 47 -23 62.5t-70 15.5q-62 0 -135 -22l-16 80q90 29 170 29q88 0 133.5 -38t45.5 -129q0 -53 -15.5 -84.5t-42.5 -58.5l-37 -36q-28 -27 -36 -49t-8 -62v-71h-106zM136 0v98h106v-98h-106z" />
<glyph unicode="@" horiz-adv-x="768" d="M52 255q0 178 86 268t246 90q161 0 247 -90t86 -267q0 -98 -34.5 -142t-109.5 -44q-63 0 -91 46q-54 -54 -130 -54q-25 0 -43.5 6.5t-36.5 25t-28 57.5t-10 97q0 111 42 154.5t114 43.5q75 0 108 -38t33 -130v-89q0 -54 42 -54q39 0 56.5 26.5t17.5 94.5q0 152 -66 223 t-197 71t-197 -71t-66 -224q0 -152 65.5 -223.5t197.5 -71.5q39 0 101 10l8 -60q-51 -12 -109 -12q-161 0 -246.5 90t-85.5 267zM365 126q49 0 88 46v106q0 63 -13 83.5t-50 20.5q-39 0 -60 -29.5t-21 -105.5q0 -62 12.5 -91.5t43.5 -29.5z" />
<glyph unicode="A" horiz-adv-x="518" d="M15 0l164 697h161l163 -697h-110l-37 164h-198l-37 -164h-106zM173 248h168l-81 360h-4z" />
<glyph unicode="B" horiz-adv-x="556" d="M270 0h-194v697h175q126 0 178.5 -43.5t52.5 -139.5q0 -104 -88 -141q118 -36 118 -171q0 -108 -59 -155t-183 -47zM182 406h65q74 0 102 23t28 82q0 54 -27.5 75.5t-104.5 21.5h-63v-202zM182 91h85q74 0 106.5 24t32.5 89q0 63 -30.5 88.5t-109.5 25.5h-84v-227z" />
<glyph unicode="C" horiz-adv-x="476" d="M431 100l17 -85q-69 -24 -149 -24q-67 0 -111.5 15t-77 54.5t-47 109t-14.5 176.5q0 92 10.5 155t37 111.5t74.5 71t121 22.5q92 0 150 -20l-15 -84q-64 12 -125 12q-33 0 -54.5 -6t-40.5 -22t-29.5 -46t-16 -77.5t-5.5 -116.5q0 -112 15.5 -169t46 -75.5t89.5 -18.5 q36 0 124 17z" />
<glyph unicode="D" horiz-adv-x="564" d="M213 0h-137v697h138q93 0 147.5 -13t91 -52t49.5 -104.5t13 -176.5q0 -77 -5 -129t-19 -93t-34.5 -64.5t-56 -39t-79 -20.5t-108.5 -5zM183 92h35q53 0 81.5 4.5t53 18t35 44t15.5 75t5 119.5q0 72 -6.5 117.5t-17.5 73.5t-36.5 41t-52 16.5t-76.5 3.5h-36v-513z" />
<glyph unicode="E" horiz-adv-x="490" d="M76 0v697h371v-92h-264v-197h214v-90h-214v-226h270v-92h-377z" />
<glyph unicode="F" horiz-adv-x="471" d="M76 0v697h371v-92h-264v-217h205v-91h-205v-297h-107z" />
<glyph unicode="G" horiz-adv-x="533" d="M49 351q0 183 51 269t190 86q42 0 94 -7.5t73 -14.5l-15 -85q-92 15 -142 15q-54 0 -83 -18t-45 -76t-16 -169q0 -114 15.5 -172.5t45 -77t87.5 -18.5q31 0 71 7v294h102v-361q-28 -13 -82.5 -22.5t-96.5 -9.5q-67 0 -111 15.5t-76.5 55t-47 110t-14.5 179.5z" />
<glyph unicode="H" horiz-adv-x="587" d="M76 0v697h107v-290h221v290h107v-697h-107v315h-221v-315h-107z" />
<glyph unicode="I" horiz-adv-x="260" d="M76 0v697h107v-697h-107z" />
<glyph unicode="J" horiz-adv-x="407" d="M13 9l15 85q53 -11 116 -11q47 0 66.5 23.5t19.5 74.5v516h107v-518q0 -98 -46.5 -143t-137.5 -45q-74 0 -140 18z" />
<glyph unicode="K" horiz-adv-x="549" d="M76 0v697h107v-300q28 -2 60 -7l163 307h115l-190 -343q27 -22 45 -43.5t42 -65.5l138 -245h-120l-117 210q-29 55 -59.5 74.5t-76.5 21.5v-306h-107z" />
<glyph unicode="L" horiz-adv-x="433" d="M76 0v697h107v-605h229v-92h-336z" />
<glyph unicode="M" horiz-adv-x="756" d="M702 0h-105l-22 411l-5 172h-5q-8 -56 -127 -451h-121q-52 175 -83.5 288t-37.5 138l-5 25h-6q-2 -103 -6 -174l-23 -409h-102l40 697h151q54 -184 86.5 -303t38.5 -146l6 -28h6q12 72 128 477h152z" />
<glyph unicode="N" horiz-adv-x="616" d="M76 0v697h149q87 -223 140.5 -367.5t63.5 -177.5l10 -33h3q-4 127 -4 256v322h102v-697h-149q-88 225 -141.5 369.5t-62.5 176.5l-9 32h-5q4 -150 5 -285v-293h-102z" />
<glyph unicode="O" horiz-adv-x="571" d="M49 348q0 187 51.5 274t188.5 87q136 0 184.5 -86.5t48.5 -275.5q0 -187 -51 -273t-188 -86q-136 0 -185 85.5t-49 274.5zM286 80q77 0 103 60.5t26 207.5t-26 208t-103 61t-103.5 -61.5t-26.5 -207.5q0 -147 26.5 -207.5t103.5 -60.5z" />
<glyph unicode="P" horiz-adv-x="522" d="M76 0v697h184q124 0 176.5 -48t52.5 -166q0 -101 -58.5 -160.5t-171.5 -59.5h-76v-263h-107zM183 355h72q67 0 96.5 29t29.5 100q0 70 -27.5 95.5t-98.5 25.5h-72v-250z" />
<glyph unicode="Q" horiz-adv-x="571" d="M49 348q0 187 51.5 274t188.5 87q136 0 184.5 -86.5t48.5 -275.5q0 -130 -23 -209t-80 -116q48 -52 163 -85l-26 -81q-169 36 -241 134q-20 -2 -32 -2q-136 0 -185 85.5t-49 274.5zM286 80q77 0 103 60.5t26 207.5t-26 208t-103 61t-103.5 -61.5t-26.5 -207.5 q0 -147 26.5 -207.5t103.5 -60.5z" />
<glyph unicode="R" horiz-adv-x="548" d="M76 0v697h187q123 0 173.5 -46.5t50.5 -164.5q0 -139 -105 -176q52 -27 85 -124l65 -186h-113l-53 163q-20 62 -46 83t-75 21h-62v-267h-107zM183 359h75q65 0 93.5 29.5t28.5 97.5q0 70 -25.5 94.5t-96.5 24.5h-75v-246z" />
<glyph unicode="S" horiz-adv-x="485" d="M40 20l18 88q118 -25 166 -25q62 0 86.5 22t24.5 76q0 46 -19 75.5t-76 54.5l-39 17q-80 34 -115.5 77.5t-35.5 124.5q0 176 196 176q99 0 170 -23l-18 -86q-81 17 -141 17q-52 0 -77 -19t-25 -66q0 -44 20 -66t69 -44l37 -16q87 -39 123 -83.5t36 -137.5 q0 -102 -45.5 -146.5t-153.5 -44.5t-201 29z" />
<glyph unicode="T" horiz-adv-x="457" d="M175 0v605h-157v92h420v-92h-156v-605h-107z" />
<glyph unicode="U" horiz-adv-x="575" d="M70 181v516h107v-513q0 -104 110 -104t110 104v513h108v-516q0 -193 -218 -193q-217 0 -217 193z" />
<glyph unicode="V" horiz-adv-x="490" d="M171 0l-162 697h110l87 -395q18 -83 38 -205h5q37 196 39 204l87 396h106l-162 -697h-148z" />
<glyph unicode="W" horiz-adv-x="760" d="M140 0l-120 697h105l68 -424q19 -119 21 -162h4q10 86 24 159l81 418h119l82 -422q13 -69 23 -155h4q2 50 21 160l66 426h102l-119 -697h-136l-68 368q-23 118 -33 203h-4q-9 -77 -34 -205l-70 -366h-136z" />
<glyph unicode="X" d="M257 293h-5q-43 -97 -74 -165l-58 -128h-115l183 364l-171 333h117l48 -100l73 -161h7q41 89 76 163l48 98h112l-173 -335l185 -362h-118l-62 130z" />
<glyph unicode="Y" horiz-adv-x="493" d="M192 0v307l-197 390h119l99 -206q21 -44 32 -74h4q8 21 33 72l101 208h116l-200 -390v-307h-107z" />
<glyph unicode="Z" horiz-adv-x="485" d="M32 0v49l271 556h-249v92h383v-47l-271 -558h281v-92h-415z" />
<glyph unicode="[" horiz-adv-x="374" d="M110 -86v864h190v-73h-99v-718h99v-73h-190z" />
<glyph unicode="\" horiz-adv-x="370" d="M31 697h91l217 -697h-90z" />
<glyph unicode="]" horiz-adv-x="374" d="M264 778v-864h-190v73h99v718h-99v73h190z" />
<glyph unicode="^" horiz-adv-x="545" d="M44 379l179 318h99l178 -318h-94l-134 241l-137 -241h-91z" />
<glyph unicode="_" horiz-adv-x="443" d="M0 -154v72h443v-72h-443z" />
<glyph unicode="`" horiz-adv-x="283" d="M144 640l-83 147h104l65 -147h-86z" />
<glyph unicode="a" horiz-adv-x="498" d="M431 0h-91l-6 50h-3q-72 -59 -153 -59q-132 0 -132 143v10q0 82 42.5 118.5t127.5 44.5q44 5 111 6v16q0 57 -15 75.5t-62 18.5q-82 0 -165 -30l-21 80q102 38 199 38q84 0 126 -38.5t42 -144.5v-328zM327 134v103q-72 -2 -107 -8q-37 -6 -54 -26t-17 -59q0 -67 60 -67 q63 0 118 57z" />
<glyph unicode="b" horiz-adv-x="512" d="M71 722h106v-181q0 -21 -0.5 -41.5t-1 -32t-0.5 -12.5h2q66 56 139 56q76 0 113 -50t37 -181q0 -163 -46.5 -226t-154.5 -63q-103 0 -194 36v695zM259 81q36 0 56.5 13t32.5 54t12 118q0 94 -17 124.5t-54 30.5q-57 0 -112 -57v-271q34 -12 82 -12z" />
<glyph unicode="c" horiz-adv-x="417" d="M45 249q0 130 46 196t162 66q72 0 129 -20l-16 -83q-58 13 -100 13q-62 0 -88 -40.5t-26 -131.5q0 -96 25 -132t88 -36q48 0 101 16l20 -83q-64 -23 -136 -23q-116 0 -160.5 61.5t-44.5 196.5z" />
<glyph unicode="d" horiz-adv-x="512" d="M45 222q0 85 13 142.5t39 89t59 44.5t79 13q50 0 100 -16h2q-2 36 -2 92v135h106v-722h-93l-6 50h-3q-72 -59 -143 -59q-77 0 -114 50t-37 181zM335 137v272q-38 12 -82 12q-36 0 -56.5 -13t-32.5 -54.5t-12 -118.5q0 -94 17 -124t55 -30q57 0 111 56z" />
<glyph unicode="e" horiz-adv-x="484" d="M45 252q0 135 46.5 198.5t164.5 63.5q54 0 92.5 -15t57.5 -39.5t27 -49.5t8 -53q0 -76 -26.5 -105.5t-110.5 -29.5q-86 0 -152 19v-8q0 -89 25 -122t86 -33q67 0 147 26l18 -80q-21 -11 -70 -22t-110 -11q-114 0 -158.5 61.5t-44.5 199.5zM155 319q60 -19 120 -19 q38 0 49.5 14t11.5 43q0 34 -20.5 54t-61.5 20q-48 0 -72 -27t-27 -85z" />
<glyph unicode="f" horiz-adv-x="343" d="M330 423h-129v-423h-106v423h-71v79h71v85q0 84 36.5 113t105.5 29q74 0 130 -13l-14 -81q-65 7 -85 7q-37 0 -52 -12.5t-15 -53.5v-74h141z" />
<glyph unicode="g" horiz-adv-x="512" d="M163 -233l-15 84q89 16 119 25q38 11 55 34t17 75v70h-2q-68 -55 -141 -55q-76 0 -113.5 48.5t-37.5 173.5q0 113 24 177.5t66 88t112 23.5q99 0 194 -36v-491q0 -49 -10.5 -84.5t-31 -56.5t-43.5 -33t-54 -19q-46 -11 -139 -24zM152 238q0 -90 17 -119t55 -29 q62 0 111 53v266q-44 12 -82 12q-54 0 -77.5 -36.5t-23.5 -146.5z" />
<glyph unicode="h" horiz-adv-x="525" d="M71 0v722h106v-185l-2 -82h2q68 56 147 56q57 0 94.5 -34.5t37.5 -116.5v-360h-106v345q0 41 -15 58.5t-45 17.5q-58 0 -113 -57v-364h-106z" />
<glyph unicode="i" horiz-adv-x="255" d="M74 0v502h107v-502h-107zM70 595v102h115v-102h-115z" />
<glyph unicode="j" horiz-adv-x="256" d="M-27 -228l-17 84q53 12 63 15q37 11 46.5 34.5t9.5 82.5v514h107v-516q0 -102 -29.5 -143t-106.5 -57q-43 -10 -73 -14zM72 595v102h115v-102h-115z" />
<glyph unicode="k" horiz-adv-x="503" d="M71 0v722h106v-401q49 -5 58 -8l131 189h122l-164 -225q40 -32 71 -86l114 -191h-119l-88 148q-31 51 -53.5 67t-71.5 16v-231h-106z" />
<glyph unicode="l" horiz-adv-x="276" d="M249 84l11 -83q-34 -10 -86 -10t-77.5 27.5t-25.5 103.5v600h106v-595q0 -29 8 -37.5t26 -8.5q7 0 16 0.5t15 1.5t7 1z" />
<glyph unicode="m" horiz-adv-x="769" d="M71 0v502h93l6 -50h3q72 59 136 59q83 0 115 -67q73 67 144 67q132 0 132 -149v-362h-107v350q0 39 -12.5 55t-44.5 16q-44 0 -99 -57q1 -11 1 -20v-344h-105v350q0 37 -13 54t-42 17q-46 0 -101 -57v-364h-106z" />
<glyph unicode="n" horiz-adv-x="525" d="M71 0v502h93l6 -50h4q70 59 150 59q57 0 94.5 -34.5t37.5 -116.5v-360h-106v345q0 41 -15 58.5t-45 17.5q-58 0 -113 -57v-364h-106z" />
<glyph unicode="o" horiz-adv-x="504" d="M248 -12q-117 0 -160 59t-43 196t47 204t163 67t160 -66t44 -205q0 -135 -46.5 -195t-164.5 -60zM251 78q57 0 79 35t22 131t-22.5 138t-77.5 42t-77.5 -42t-22.5 -138t21.5 -131t77.5 -35z" />
<glyph unicode="p" horiz-adv-x="512" d="M466 280q0 -85 -13 -142.5t-39 -89t-58.5 -44.5t-78.5 -13q-52 0 -100 16h-2q2 -32 2 -77v-153h-106v725h93l6 -50h3q70 59 143 59q76 0 113 -50t37 -181zM177 364v-271q38 -12 82 -12q36 0 56.5 13t32.5 53.5t12 117.5q0 96 -17 126t-55 30q-54 0 -111 -57z" />
<glyph unicode="q" horiz-adv-x="512" d="M441 -223h-106v184v22t0.5 23t1 20t0.5 15v6h-2q-68 -56 -139 -56q-77 0 -114 50t-37 181q0 113 24 177.5t66 88t112 23.5q99 0 194 -36v-698zM253 421q-36 0 -56.5 -13t-32.5 -54t-12 -118q0 -95 17 -125t55 -30q57 0 111 56v272q-42 12 -82 12z" />
<glyph unicode="r" horiz-adv-x="363" d="M71 0v502h93l6 -50h3q53 57 132 57q32 0 47 -6l-16 -98q-30 6 -49 6q-34 0 -63.5 -16t-46.5 -38v-357h-106z" />
<glyph unicode="s" horiz-adv-x="444" d="M33 22l16 85q103 -28 171 -28q41 0 59 12t18 46q0 30 -14 45.5t-57 28.5l-33 10q-81 24 -115 55.5t-34 97.5q0 75 42 106t120 31q98 0 178 -26l-16 -82q-93 20 -149 20q-70 0 -70 -48q0 -23 13 -36.5t58 -28.5l32 -10q84 -26 117 -60.5t33 -103.5q0 -145 -173 -145 q-92 0 -196 31z" />
<glyph unicode="t" horiz-adv-x="352" d="M89 123v300h-72v79h73l8 130l98 10v-140h129l-12 -79h-117v-298q0 -28 9.5 -36t34.5 -8q14 0 69 11l17 -82q-39 -18 -112 -18q-67 0 -96 26t-29 105z" />
<glyph unicode="u" horiz-adv-x="525" d="M69 502h107v-346q0 -40 14.5 -57.5t44.5 -17.5q57 0 113 56v365h107v-502h-94l-6 50h-2q-74 -59 -151 -59q-58 0 -95.5 34.5t-37.5 116.5v360z" />
<glyph unicode="v" horiz-adv-x="447" d="M153 0l-139 502h109l64 -246l36 -165h4q18 93 36 165l62 246h107l-138 -502h-141z" />
<glyph unicode="w" horiz-adv-x="725" d="M127 0l-110 502h110l42 -225l33 -182h4q27 111 45 183l54 219h120l54 -220l44 -182h4q16 86 32 175l43 232h106l-108 -502h-141l-72 298l-21 88h-4q-12 -52 -21 -89l-75 -297h-139z" />
<glyph unicode="x" horiz-adv-x="457" d="M12 0l158 262l-139 240h118l47 -91l37 -75l3 5q2 5 5.5 13t8 17l10.5 21l11 22l46 88h113l-139 -240l154 -262h-121l-49 91l-46 94q-23 -47 -46 -91l-51 -94h-120z" />
<glyph unicode="y" horiz-adv-x="524" d="M200 0q-58 0 -95.5 34.5t-37.5 116.5v351h107v-337q0 -75 59 -75q63 0 113 52v360h107v-518q0 -93 -37 -135t-103 -58q-45 -11 -138 -24l-15 84q79 13 119 25q38 11 55 34t17 74v71h-2q-64 -55 -149 -55z" />
<glyph unicode="z" horiz-adv-x="437" d="M40 0v47l210 365h-191v90h333v-43l-212 -369h226v-90h-366z" />
<glyph unicode="{" horiz-adv-x="367" d="M123 57v167q0 56 -18 73.5t-67 17.5v76q49 0 67 17t18 73v154q0 83 32 113t109 30h29v-70h-33q-28 0 -38.5 -13.5t-10.5 -40.5v-172q0 -113 -66 -130q66 -18 66 -135v-180q0 -26 10.5 -39.5t38.5 -13.5h33v-70h-34q-72 0 -104 30t-32 113z" />
<glyph unicode="|" horiz-adv-x="272" d="M93 -196v1088h86v-1088h-86z" />
<glyph unicode="}" horiz-adv-x="367" d="M244 224v-167q0 -83 -32 -113t-104 -30h-34v70h33q28 0 38.5 13.5t10.5 39.5v180q0 117 66 135q-66 17 -66 130v172q0 27 -10.5 40.5t-38.5 13.5h-33v70h29q77 0 109 -30t32 -113v-154q0 -56 18 -73t67 -17v-76q-49 0 -67 -17.5t-18 -73.5z" />
<glyph unicode="~" horiz-adv-x="547" d="M135 252l-58 50q25 36 50 53t63 17q30 0 56 -13t41.5 -29t33.5 -29t34 -13q10 0 19.5 5t14.5 9t13 13t9 10l58 -50q-26 -36 -50.5 -53t-63.5 -17q-38 0 -69 21.5t-54 42.5t-41 21q-10 0 -19.5 -5t-14.5 -9.5t-13 -13.5t-9 -10z" />
<glyph unicode="&#xa1;" horiz-adv-x="250" d="M178 320v-516h-107v516h107zM178 501v-98h-107v98h107z" />
<glyph unicode="&#xa2;" horiz-adv-x="555" d="M77 335q0 112 33.5 176.5t115.5 80.5v105h71v-100q69 -4 117 -20l-17 -83q-58 13 -99 13q-62 0 -88 -40t-26 -132q0 -96 25 -132t88 -36q42 0 101 16l20 -83q-58 -21 -121 -23v-94h-71v98q-83 14 -116 75t-33 179z" />
<glyph unicode="&#xa3;" horiz-adv-x="555" d="M145 391v114q0 201 206 201q73 0 127 -20l-17 -81q-48 12 -93 12q-63 0 -90 -27.5t-27 -84.5v-114h123v-66h-123v-235h245v-90h-438v90h87v235h-71v66h71z" />
<glyph unicode="&#xa4;" horiz-adv-x="730" d="M138 73l-51 51l76 75q-52 67 -52 153q0 84 51 152l-76 76l51 51l75 -76q73 53 152 53q82 0 154 -55l75 75l50 -51l-75 -74q50 -73 50 -151q0 -83 -49 -149l74 -75l-50 -50l-74 73q-71 -54 -155 -54q-79 0 -151 50zM364 175q73 0 124 52t51 125q0 74 -51 125.5t-124 51.5 q-72 0 -123 -52t-51 -125t51.5 -125t122.5 -52z" />
<glyph unicode="&#xa5;" horiz-adv-x="555" d="M121 341h84l-180 356h119l99 -206q21 -44 32 -74h4q8 21 33 72l101 208h116l-183 -356h86v-67h-103v-51h103v-67h-103v-156h-107v156h-101v67h101v51h-101v67z" />
<glyph unicode="&#xa6;" horiz-adv-x="272" d="M93 444v448h86v-448h-86zM93 -196v448h86v-448h-86z" />
<glyph unicode="&#xa7;" horiz-adv-x="512" d="M56 -81l15 87q88 -24 169 -24q63 0 86.5 14.5t23.5 54.5q0 31 -17.5 52t-70.5 40l-55 20q-77 28 -109.5 63t-32.5 97q0 73 55 109q-55 43 -55 118q0 79 52 117t143 38q102 0 172 -25l-19 -85q-92 18 -149 18q-93 0 -93 -61q0 -28 18 -43.5t63 -31.5l53 -18 q78 -27 114.5 -66.5t36.5 -114.5q0 -61 -40 -110q40 -42 40 -115q0 -89 -45 -126t-154 -37q-120 0 -201 29zM268 368l-59 21q-41 -12 -41 -57q0 -31 18 -47.5t62 -32.5l56 -20q22 -8 32 -13q17 18 17 55q0 32 -17 54t-68 40z" />
<glyph unicode="&#xa8;" horiz-adv-x="948" d="M436 640h-104v102h104v-102zM616 640h-104v102h104v-102z" />
<glyph unicode="&#xa9;" horiz-adv-x="838" d="M507 209l11 -58q-48 -15 -93 -15q-82 0 -112 45.5t-30 170.5q0 122 30 167.5t111 45.5q46 0 92 -13l-10 -57q-47 7 -70 7q-32 0 -46.5 -9.5t-22.5 -41.5t-8 -99q0 -97 15.5 -125t62.5 -28q22 0 70 10zM82 350q0 170 88.5 265.5t247.5 95.5q160 0 249 -95.5t89 -265.5 t-89 -266t-249 -96q-159 0 -247.5 96t-88.5 266zM150 349q0 -144 69 -222t199 -78q131 0 200.5 78t69.5 222t-69.5 222t-200.5 78q-130 0 -199 -78t-69 -222z" />
<glyph unicode="&#xaa;" horiz-adv-x="319" d="M281 265h-72l-5 29h-1q-45 -35 -95 -35q-81 0 -81 91v4q0 48 23.5 71.5t72.5 29.5q26 5 76 5v9q0 29 -8.5 38t-33.5 9q-51 0 -104 -18l-16 59q72 26 131 26q56 0 84.5 -25t28.5 -91v-202zM199 348v58q-29 0 -55 -4q-20 -4 -28 -14t-8 -30q0 -35 32 -35q30 0 59 25z" />
<glyph unicode="&#xab;" horiz-adv-x="505" d="M159 54l-98 200l99 199h90l-99 -199l99 -200h-91zM345 54l-98 200l99 199h90l-99 -199l99 -200h-91z" />
<glyph unicode="&#xac;" d="M66 269v87h382v-218h-88v131h-294z" />
<glyph unicode="&#xad;" horiz-adv-x="367" d="M39 243v86h289v-86h-289z" />
<glyph unicode="&#xae;" horiz-adv-x="506" d="M56 501q0 100 52 153t144 53q93 0 145.5 -53t52.5 -153q0 -101 -52.5 -154.5t-145.5 -53.5q-92 0 -144 53.5t-52 154.5zM99 501q0 -169 153 -169q155 0 155 169q0 168 -155 168q-153 0 -153 -168zM183 389l1 230h69q41 0 58 -16.5t17 -56.5q0 -44 -30 -58q17 -13 27 -42 l19 -57h-54l-14 45q-8 21 -13.5 27t-18.5 6h-9v-78h-52zM235 509h14q16 0 22.5 7.5t6.5 27.5q0 19 -5.5 26t-21.5 7h-16v-68z" />
<glyph unicode="&#xaf;" horiz-adv-x="510" d="M389 693h-268v71h268v-71z" />
<glyph unicode="&#xb0;" horiz-adv-x="334" d="M55 592q0 115 112 115t112 -115q0 -118 -112 -118t-112 118zM167 523q29 0 42.5 16t13.5 53t-13.5 52.5t-42.5 15.5t-42.5 -15.5t-13.5 -52.5q0 -69 56 -69z" />
<glyph unicode="&#xb1;" d="M216 179v161h-153v82h153v164h83v-164h153v-82h-153v-161h-83zM63 0v82h389v-82h-389z" />
<glyph unicode="&#xb2;" horiz-adv-x="313" d="M29 380v100q0 61 22 88t78 51l26 11q25 11 35.5 25.5t10.5 43.5q0 27 -11 38t-38 11q-34 0 -102 -13l-12 65q69 18 123 18q63 0 93 -28t30 -88q0 -58 -23.5 -87t-71.5 -50l-29 -13q-27 -11 -36 -28t-9 -51v-23h169v-70h-255z" />
<glyph unicode="&#xb3;" horiz-adv-x="301" d="M12 396l16 64q48 -16 96 -16q34 0 47.5 15t13.5 44q0 35 -15.5 51.5t-60.5 17.5l-41 1v65l43 2q40 1 53.5 15t13.5 44q0 25 -11 37t-38 12q-36 0 -97 -16l-14 61q54 25 119 25q67 0 97 -27.5t30 -88.5q0 -34 -15 -59t-36 -34q57 -24 58 -106q-1 -66 -34 -97.5t-106 -31.5 q-64 0 -119 22z" />
<glyph unicode="&#xb4;" horiz-adv-x="283" d="M188 787l-83 -147h-86l66 147h103z" />
<glyph unicode="&#xb5;" d="M67 502h107v-346q0 -75 56 -75t108 54v367h107v-502h-94l-6 47h-2q-59 -54 -121 -54q-31 0 -50 9q2 -68 2 -90v-110h-107v700z" />
<glyph unicode="&#xb6;" horiz-adv-x="599" d="M455 0v697h66v-697h-66zM322 0v309h-90q-154 0 -154 152v86q0 150 154 150h156v-697h-66z" />
<glyph unicode="&#xb7;" horiz-adv-x="233" d="M60 268v112h113v-112h-113z" />
<glyph unicode="&#xb8;" horiz-adv-x="404" d="M105 -226l13 55q43 -11 63 -11q42 0 42 24q0 12 -12.5 21.5t-28 15.5t-28 20t-12.5 35q0 31 31 61h62q-28 -25 -28 -50q0 -11 13.5 -20.5t29 -16t29 -24t13.5 -43.5q0 -46 -25 -63.5t-78 -17.5q-17 0 -38 3.5t-33 6.5z" />
<glyph unicode="&#xb9;" horiz-adv-x="222" d="M78 380v362h-60v70h146v-432h-86z" />
<glyph unicode="&#xba;" horiz-adv-x="322" d="M161 258q-78 0 -106 37.5t-28 121.5q0 85 28.5 126.5t105.5 41.5t105.5 -41.5t28.5 -126.5q0 -84 -28 -121.5t-106 -37.5zM161 326q28 0 39 19.5t11 72.5q0 51 -11.5 74t-38.5 23t-38.5 -23t-11.5 -74q0 -53 11 -72.5t39 -19.5z" />
<glyph unicode="&#xbb;" horiz-adv-x="505" d="M257 254l-98 -200h-91l99 200l-99 199h91zM443 254l-98 -200h-91l99 200l-99 199h91z" />
<glyph unicode="&#xbc;" horiz-adv-x="694" d="M78 265v362h-60v70h146v-432h-86zM400 111l-10 65l123 262l76 -28l-46 -98l-66 -131h102l7 85h77v-266h-86v111h-177zM111 -22l344 740h82l-344 -740h-82z" />
<glyph unicode="&#xbd;" horiz-adv-x="733" d="M78 265v362h-60v70h146v-432h-86zM450 0v100q0 61 22 88t78 51l26 11q25 11 35.5 25.5t10.5 43.5q0 27 -11 38t-38 11q-34 0 -102 -13l-12 65q69 18 123 18q63 0 93 -28t30 -88q0 -58 -23.5 -87t-71.5 -50l-29 -13q-27 -11 -36 -28t-9 -51v-23h169v-70h-255zM111 -22 l344 740h82l-344 -740h-82z" />
<glyph unicode="&#xbe;" horiz-adv-x="763" d="M12 281l16 64q48 -16 96 -16q34 0 47.5 15t13.5 44q0 35 -15.5 51.5t-60.5 17.5l-41 1v65l43 2q40 1 53.5 15t13.5 44q0 25 -11 37t-38 12q-36 0 -97 -16l-14 61q54 25 119 25q67 0 97 -27.5t30 -88.5q0 -34 -15 -59t-36 -34q57 -24 58 -106q-1 -66 -34 -97.5t-106 -31.5 q-64 0 -119 22zM468 111l-9 65l123 262l76 -28l-46 -98l-67 -131h102l8 85h77v-266h-86v111h-178zM180 -22l344 740h82l-344 -740h-82z" />
<glyph unicode="&#xbf;" horiz-adv-x="413" d="M277 323v-84q0 -59 -15.5 -89.5t-56.5 -70.5l-33 -32q-35 -35 -35 -87q0 -47 23.5 -62.5t69.5 -15.5q62 0 135 22l16 -80q-90 -29 -170 -29q-88 0 -133.5 38t-45.5 129q0 53 15.5 84.5t42.5 58.5l37 36q28 27 36 49t8 62v71h106zM277 501v-98h-106v98h106z" />
<glyph unicode="&#xc0;" horiz-adv-x="518" d="M15 0l164 697h161l163 -697h-110l-37 164h-198l-37 -164h-106zM173 248h168l-81 360h-4zM218 748l-83 147h104l65 -147h-86z" />
<glyph unicode="&#xc1;" horiz-adv-x="518" d="M15 0l164 697h161l163 -697h-110l-37 164h-198l-37 -164h-106zM173 248h168l-81 360h-4zM381 895l-83 -147h-86l66 147h103z" />
<glyph unicode="&#xc2;" horiz-adv-x="518" d="M15 0l164 697h161l163 -697h-110l-37 164h-198l-37 -164h-106zM173 248h168l-81 360h-4zM109 748l116 147h67l116 -147h-89l-61 80l-61 -80h-88z" />
<glyph unicode="&#xc3;" horiz-adv-x="518" d="M15 0l164 697h161l163 -697h-110l-37 164h-198l-37 -164h-106zM173 248h168l-81 360h-4zM140 764l-32 43q33 50 90 50q33 0 69 -22t58 -22q26 0 52 32l35 -43q-35 -59 -92 -59q-32 0 -68 22t-59 22q-24 0 -53 -23z" />
<glyph unicode="&#xc4;" horiz-adv-x="518" d="M15 0l164 697h161l163 -697h-110l-37 164h-198l-37 -164h-106zM173 248h168l-81 360h-4zM220 748h-104v102h104v-102zM400 748h-104v102h104v-102z" />
<glyph unicode="&#xc5;" horiz-adv-x="518" d="M15 0l164 697h161l163 -697h-110l-37 164h-198l-37 -164h-106zM173 248h168l-81 360h-4zM151 846q0 49 28.5 77t78.5 28q49 0 78 -28t29 -77t-29 -77t-78 -28q-50 0 -78.5 28t-28.5 77zM206 846q0 -25 14 -40t38 -15t38 15t14 40t-14 40t-38 15t-38 -15t-14 -40z" />
<glyph unicode="&#xc6;" horiz-adv-x="715" d="M385 0l-29 164h-201l-44 -164h-106l193 697h474v-92h-296l38 -197h208v-90h-191l44 -226h203v-92h-293zM177 248h165l-63 360h-5z" />
<glyph unicode="&#xc7;" horiz-adv-x="476" d="M182 -214l13 55q43 -11 63 -11q42 0 42 24q0 12 -12.5 21.5t-28 15.5t-28 20t-12.5 35q0 23 19 49q-99 12 -144 90t-45 261q0 92 10.5 155t37 111.5t74.5 71t121 22.5q92 0 150 -20l-15 -84q-64 12 -125 12q-33 0 -54.5 -6t-40.5 -22t-29.5 -46t-16 -77.5t-5.5 -116.5 q0 -112 15.5 -169t46 -75.5t89.5 -18.5q36 0 124 17l17 -85q-69 -24 -149 -24h-2q-13 -17 -13 -34q0 -11 13.5 -20.5t29 -16t29 -24t13.5 -43.5q0 -46 -25 -63.5t-78 -17.5q-17 0 -38 3.5t-34 6.5z" />
<glyph unicode="&#xc8;" horiz-adv-x="490" d="M76 0v697h371v-92h-264v-197h214v-90h-214v-226h270v-92h-377zM222 748l-83 147h104l65 -147h-86z" />
<glyph unicode="&#xc9;" horiz-adv-x="490" d="M76 0v697h371v-92h-264v-197h214v-90h-214v-226h270v-92h-377zM385 895l-83 -147h-86l66 147h103z" />
<glyph unicode="&#xca;" horiz-adv-x="490" d="M76 0v697h371v-92h-264v-197h214v-90h-214v-226h270v-92h-377zM112 748l116 147h67l116 -147h-89l-61 80l-61 -80h-88z" />
<glyph unicode="&#xcb;" horiz-adv-x="490" d="M76 0v697h371v-92h-264v-197h214v-90h-214v-226h270v-92h-377zM224 748h-104v102h104v-102zM404 748h-104v102h104v-102z" />
<glyph unicode="&#xcc;" horiz-adv-x="260" d="M76 0v697h107v-697h-107zM90 748l-83 147h104l65 -147h-86z" />
<glyph unicode="&#xcd;" horiz-adv-x="260" d="M76 0v697h107v-697h-107zM253 895l-83 -147h-86l66 147h103z" />
<glyph unicode="&#xce;" horiz-adv-x="260" d="M76 0v697h107v-697h-107zM-20 748l116 147h67l116 -147h-89l-61 80l-61 -80h-88z" />
<glyph unicode="&#xcf;" horiz-adv-x="260" d="M76 0v697h107v-697h-107zM92 748h-104v102h104v-102zM272 748h-104v102h104v-102z" />
<glyph unicode="&#xd0;" horiz-adv-x="564" d="M14 323v68h62v306h138q93 0 147.5 -13t91 -52t49.5 -104.5t13 -176.5q0 -77 -5 -129t-19 -93t-34.5 -64.5t-56 -39t-79 -20.5t-108.5 -5h-137v323h-62zM183 92h35q53 0 81.5 4.5t53 18t35 44t15.5 75t5 119.5q0 72 -6.5 117.5t-17.5 73.5t-36.5 41t-52 16.5t-76.5 3.5 h-36v-214h112v-68h-112v-231z" />
<glyph unicode="&#xd1;" horiz-adv-x="616" d="M76 0v697h149q87 -223 140.5 -367.5t63.5 -177.5l10 -33h3q-4 127 -4 256v322h102v-697h-149q-88 225 -141.5 369.5t-62.5 176.5l-9 32h-5q4 -150 5 -285v-293h-102zM193 764l-32 43q33 50 90 50q33 0 69 -22t58 -22q26 0 52 32l35 -43q-35 -59 -92 -59q-33 0 -68 22 t-59 22t-53 -23z" />
<glyph unicode="&#xd2;" horiz-adv-x="571" d="M49 348q0 187 51.5 274t188.5 87q136 0 184.5 -86.5t48.5 -275.5q0 -187 -51 -273t-188 -86q-136 0 -185 85.5t-49 274.5zM286 80q77 0 103 60.5t26 207.5t-26 208t-103 61t-103.5 -61.5t-26.5 -207.5q0 -147 26.5 -207.5t103.5 -60.5zM247 748l-83 147h104l65 -147h-86z " />
<glyph unicode="&#xd3;" horiz-adv-x="571" d="M49 348q0 187 51.5 274t188.5 87q136 0 184.5 -86.5t48.5 -275.5q0 -187 -51 -273t-188 -86q-136 0 -185 85.5t-49 274.5zM286 80q77 0 103 60.5t26 207.5t-26 208t-103 61t-103.5 -61.5t-26.5 -207.5q0 -147 26.5 -207.5t103.5 -60.5zM410 895l-83 -147h-86l66 147h103z " />
<glyph unicode="&#xd4;" horiz-adv-x="571" d="M49 348q0 187 51.5 274t188.5 87q136 0 184.5 -86.5t48.5 -275.5q0 -187 -51 -273t-188 -86q-136 0 -185 85.5t-49 274.5zM286 80q77 0 103 60.5t26 207.5t-26 208t-103 61t-103.5 -61.5t-26.5 -207.5q0 -147 26.5 -207.5t103.5 -60.5zM138 748l116 147h67l116 -147h-89 l-61 80l-61 -80h-88z" />
<glyph unicode="&#xd5;" horiz-adv-x="571" d="M49 348q0 187 51.5 274t188.5 87q136 0 184.5 -86.5t48.5 -275.5q0 -187 -51 -273t-188 -86q-136 0 -185 85.5t-49 274.5zM286 80q77 0 103 60.5t26 207.5t-26 208t-103 61t-103.5 -61.5t-26.5 -207.5q0 -147 26.5 -207.5t103.5 -60.5zM169 764l-32 43q33 50 90 50 q33 0 69 -22t58 -22q26 0 52 32l35 -43q-35 -59 -92 -59q-33 0 -68 22t-59 22t-53 -23z" />
<glyph unicode="&#xd6;" horiz-adv-x="571" d="M49 348q0 187 51.5 274t188.5 87q136 0 184.5 -86.5t48.5 -275.5q0 -187 -51 -273t-188 -86q-136 0 -185 85.5t-49 274.5zM286 80q77 0 103 60.5t26 207.5t-26 208t-103 61t-103.5 -61.5t-26.5 -207.5q0 -147 26.5 -207.5t103.5 -60.5zM249 748h-104v102h104v-102z M429 748h-104v102h104v-102z" />
<glyph unicode="&#xd7;" d="M105 102l-59 59l153 153l-154 154l58 59l155 -155l153 154l59 -59l-153 -153l151 -152l-58 -59l-152 152z" />
<glyph unicode="&#xd8;" horiz-adv-x="571" d="M49 348q0 187 51.5 274t188.5 87q84 0 136 -35l36 66l54 -27l-46 -84q53 -79 53 -282q0 -187 -51 -273t-188 -86q-89 0 -142 38l-35 -68l-53 29l46 84q-50 78 -50 277zM286 78q77 0 103.5 61.5t26.5 208.5q0 119 -16 178q-29 -65 -84 -178l-115 -238q28 -32 85 -32z M169 174l80 165l121 248q-30 32 -84 32q-77 0 -104 -62.5t-27 -208.5q0 -119 14 -174z" />
<glyph unicode="&#xd9;" horiz-adv-x="575" d="M70 181v516h107v-513q0 -104 110 -104t110 104v513h108v-516q0 -193 -218 -193q-217 0 -217 193zM248 748l-83 147h104l65 -147h-86z" />
<glyph unicode="&#xda;" horiz-adv-x="575" d="M70 181v516h107v-513q0 -104 110 -104t110 104v513h108v-516q0 -193 -218 -193q-217 0 -217 193zM411 895l-83 -147h-86l66 147h103z" />
<glyph unicode="&#xdb;" horiz-adv-x="575" d="M70 181v516h107v-513q0 -104 110 -104t110 104v513h108v-516q0 -193 -218 -193q-217 0 -217 193zM138 748l116 147h67l116 -147h-89l-61 80l-61 -80h-88z" />
<glyph unicode="&#xdc;" horiz-adv-x="575" d="M70 181v516h107v-513q0 -104 110 -104t110 104v513h108v-516q0 -193 -218 -193q-217 0 -217 193zM250 748h-104v102h104v-102zM430 748h-104v102h104v-102z" />
<glyph unicode="&#xdd;" horiz-adv-x="493" d="M192 0v307l-197 390h119l99 -206q21 -44 32 -74h4q8 21 33 72l101 208h116l-200 -390v-307h-107zM371 895l-83 -147h-86l66 147h103z" />
<glyph unicode="&#xde;" horiz-adv-x="531" d="M76 0v697h107v-109h79q124 0 174.5 -46.5t50.5 -164.5q0 -102 -56.5 -160t-168.5 -58h-79v-159h-107zM183 251h76q66 0 94 28t28 99q0 70 -25.5 94t-96.5 24h-76v-245z" />
<glyph unicode="&#xdf;" horiz-adv-x="544" d="M71 0v483q0 92 42 141.5t151 49.5q89 0 135.5 -38.5t46.5 -100.5q0 -41 -32.5 -91t-32.5 -74q0 -17 13.5 -33.5t32.5 -32.5t38.5 -36t33 -53t13.5 -75q0 -78 -33.5 -112.5t-120.5 -34.5q-64 0 -113 19l19 84q63 -12 79 -12q36 0 49 14.5t13 46.5q0 28 -13.5 49.5 t-32.5 36t-37.5 30t-32 40t-13.5 57.5q0 38 32 89t32 80q0 58 -76 58q-53 0 -70 -25t-17 -74v-486h-106z" />
<glyph unicode="&#xe0;" horiz-adv-x="498" d="M431 0h-91l-6 50h-3q-72 -59 -153 -59q-132 0 -132 143v10q0 82 42.5 118.5t127.5 44.5q44 5 111 6v16q0 57 -15 75.5t-62 18.5q-82 0 -165 -30l-21 80q102 38 199 38q84 0 126 -38.5t42 -144.5v-328zM327 134v103q-72 -2 -107 -8q-37 -6 -54 -26t-17 -59q0 -67 60 -67 q63 0 118 57zM214 577l-83 147h104l65 -147h-86z" />
<glyph unicode="&#xe1;" horiz-adv-x="498" d="M431 0h-91l-6 50h-3q-72 -59 -153 -59q-132 0 -132 143v10q0 82 42.5 118.5t127.5 44.5q44 5 111 6v16q0 57 -15 75.5t-62 18.5q-82 0 -165 -30l-21 80q102 38 199 38q84 0 126 -38.5t42 -144.5v-328zM327 134v103q-72 -2 -107 -8q-37 -6 -54 -26t-17 -59q0 -67 60 -67 q63 0 118 57zM377 724l-83 -147h-86l66 147h103z" />
<glyph unicode="&#xe2;" horiz-adv-x="498" d="M431 0h-91l-6 50h-3q-72 -59 -153 -59q-132 0 -132 143v10q0 82 42.5 118.5t127.5 44.5q44 5 111 6v16q0 57 -15 75.5t-62 18.5q-82 0 -165 -30l-21 80q102 38 199 38q84 0 126 -38.5t42 -144.5v-328zM327 134v103q-72 -2 -107 -8q-37 -6 -54 -26t-17 -59q0 -67 60 -67 q63 0 118 57zM105 577l116 147h67l116 -147h-89l-61 80l-61 -80h-88z" />
<glyph unicode="&#xe3;" horiz-adv-x="498" d="M431 0h-91l-6 50h-3q-72 -59 -153 -59q-132 0 -132 143v10q0 82 42.5 118.5t127.5 44.5q44 5 111 6v16q0 57 -15 75.5t-62 18.5q-82 0 -165 -30l-21 80q102 38 199 38q84 0 126 -38.5t42 -144.5v-328zM327 134v103q-72 -2 -107 -8q-37 -6 -54 -26t-17 -59q0 -67 60 -67 q63 0 118 57zM136 593l-32 43q33 50 90 50q33 0 69 -22t58 -22q26 0 52 32l35 -43q-35 -59 -92 -59q-32 0 -68 22t-59 22q-24 0 -53 -23z" />
<glyph unicode="&#xe4;" horiz-adv-x="498" d="M431 0h-91l-6 50h-3q-72 -59 -153 -59q-132 0 -132 143v10q0 82 42.5 118.5t127.5 44.5q44 5 111 6v16q0 57 -15 75.5t-62 18.5q-82 0 -165 -30l-21 80q102 38 199 38q84 0 126 -38.5t42 -144.5v-328zM327 134v103q-72 -2 -107 -8q-37 -6 -54 -26t-17 -59q0 -67 60 -67 q63 0 118 57zM216 577h-104v102h104v-102zM396 577h-104v102h104v-102z" />
<glyph unicode="&#xe5;" horiz-adv-x="498" d="M431 0h-91l-6 50h-3q-72 -59 -153 -59q-132 0 -132 143v10q0 82 42.5 118.5t127.5 44.5q44 5 111 6v16q0 57 -15 75.5t-62 18.5q-82 0 -165 -30l-21 80q102 38 199 38q84 0 126 -38.5t42 -144.5v-328zM147 675q0 49 28.5 77t78.5 28q49 0 78 -28t29 -77t-29 -77t-78 -28 q-50 0 -78.5 28t-28.5 77zM327 134v103q-72 -2 -107 -8q-37 -6 -54 -26t-17 -59q0 -67 60 -67q63 0 118 57zM202 675q0 -25 14 -40t38 -15t38 15t14 40t-14 40t-38 15t-38 -15t-14 -40z" />
<glyph unicode="&#xe6;" horiz-adv-x="769" d="M266 511q92 0 127 -57q41 59 147 59q54 0 92.5 -14.5t57.5 -39t27 -49.5t8 -53q0 -78 -28 -106.5t-106 -28.5q-89 0 -155 19v-8q0 -89 25 -122t86 -33q67 0 147 26l18 -80q-20 -10 -69 -21.5t-111 -11.5q-126 0 -169 79q-75 -79 -185 -79q-132 0 -132 143v10 q0 82 43.5 119t130.5 44q55 5 112 6v16q0 57 -15.5 75.5t-63.5 18.5q-84 0 -167 -30l-21 80q102 38 201 38zM207 76q83 0 130 71q-7 47 -7 91q-77 -2 -108 -8q-38 -7 -55.5 -27t-17.5 -59q0 -68 58 -68zM439 319q60 -19 121 -19q34 0 47.5 13t13.5 44q0 34 -21 54t-61 20 q-48 0 -72.5 -27t-27.5 -85z" />
<glyph unicode="&#xe7;" horiz-adv-x="417" d="M146 -214l13 55q43 -11 63 -11q42 0 42 24q0 12 -12.5 21.5t-28 15.5t-28 20t-12.5 35q0 23 19 48q-88 12 -122.5 73t-34.5 182q0 130 46 196t162 66q72 0 129 -20l-16 -83q-58 13 -100 13q-62 0 -88 -40.5t-26 -131.5q0 -96 25 -132t88 -36q48 0 101 16l20 -83 q-55 -20 -125 -23q-13 -17 -13 -34q0 -11 13.5 -20.5t29 -16t29 -24t13.5 -43.5q0 -46 -25 -63.5t-78 -17.5q-17 0 -38 3.5t-34 6.5z" />
<glyph unicode="&#xe8;" horiz-adv-x="484" d="M45 252q0 135 46.5 198.5t164.5 63.5q54 0 92.5 -15t57.5 -39.5t27 -49.5t8 -53q0 -76 -26.5 -105.5t-110.5 -29.5q-86 0 -152 19v-8q0 -89 25 -122t86 -33q67 0 147 26l18 -80q-21 -11 -70 -22t-110 -11q-114 0 -158.5 61.5t-44.5 199.5zM155 319q60 -19 120 -19 q38 0 49.5 14t11.5 43q0 34 -20.5 54t-61.5 20q-48 0 -72 -27t-27 -85zM217 577l-83 147h104l65 -147h-86z" />
<glyph unicode="&#xe9;" horiz-adv-x="484" d="M45 252q0 135 46.5 198.5t164.5 63.5q54 0 92.5 -15t57.5 -39.5t27 -49.5t8 -53q0 -76 -26.5 -105.5t-110.5 -29.5q-86 0 -152 19v-8q0 -89 25 -122t86 -33q67 0 147 26l18 -80q-21 -11 -70 -22t-110 -11q-114 0 -158.5 61.5t-44.5 199.5zM155 319q60 -19 120 -19 q38 0 49.5 14t11.5 43q0 34 -20.5 54t-61.5 20q-48 0 -72 -27t-27 -85zM379 724l-83 -147h-86l66 147h103z" />
<glyph unicode="&#xea;" horiz-adv-x="484" d="M45 252q0 135 46.5 198.5t164.5 63.5q54 0 92.5 -15t57.5 -39.5t27 -49.5t8 -53q0 -76 -26.5 -105.5t-110.5 -29.5q-86 0 -152 19v-8q0 -89 25 -122t86 -33q67 0 147 26l18 -80q-21 -11 -70 -22t-110 -11q-114 0 -158.5 61.5t-44.5 199.5zM107 577l116 147h67l116 -147 h-89l-61 80l-61 -80h-88zM155 319q60 -19 120 -19q38 0 49.5 14t11.5 43q0 34 -20.5 54t-61.5 20q-48 0 -72 -27t-27 -85z" />
<glyph unicode="&#xeb;" horiz-adv-x="484" d="M45 252q0 135 46.5 198.5t164.5 63.5q54 0 92.5 -15t57.5 -39.5t27 -49.5t8 -53q0 -76 -26.5 -105.5t-110.5 -29.5q-86 0 -152 19v-8q0 -89 25 -122t86 -33q67 0 147 26l18 -80q-21 -11 -70 -22t-110 -11q-114 0 -158.5 61.5t-44.5 199.5zM155 319q60 -19 120 -19 q38 0 49.5 14t11.5 43q0 34 -20.5 54t-61.5 20q-48 0 -72 -27t-27 -85zM218 577h-104v102h104v-102zM398 577h-104v102h104v-102z" />
<glyph unicode="&#xec;" horiz-adv-x="255" d="M74 0v502h107v-502h-107zM89 577l-83 147h104l65 -147h-86z" />
<glyph unicode="&#xed;" horiz-adv-x="255" d="M74 0v502h107v-502h-107zM252 724l-83 -147h-86l66 147h103z" />
<glyph unicode="&#xee;" horiz-adv-x="255" d="M74 0v502h107v-502h-107zM-20 577l116 147h67l116 -147h-89l-61 80l-61 -80h-88z" />
<glyph unicode="&#xef;" horiz-adv-x="255" d="M74 0v502h107v-502h-107zM271 577h-104v102h104v-102zM91 577h-104v102h104v-102z" />
<glyph unicode="&#xf0;" horiz-adv-x="500" d="M384 632l-50 -24q72 -64 96 -153.5t24 -215.5q0 -132 -45.5 -191.5t-162.5 -59.5q-113 0 -157 60t-44 191q0 254 185 254q51 0 90 -18q-24 53 -73 92l-120 -57l-23 48l88 42q-38 19 -81 32l29 74q87 -26 144 -62l76 37zM347 239q0 115 -13 151q-29 18 -86 18 q-50 0 -73 -40t-23 -129q0 -90 21.5 -125.5t73.5 -35.5q54 0 77 35t23 126z" />
<glyph unicode="&#xf1;" horiz-adv-x="525" d="M71 0v502h93l6 -50h4q70 59 150 59q57 0 94.5 -34.5t37.5 -116.5v-360h-106v345q0 41 -15 58.5t-45 17.5q-58 0 -113 -57v-364h-106zM147 593l-32 43q33 50 90 50q33 0 69 -22t58 -22q26 0 52 32l35 -43q-35 -59 -92 -59q-33 0 -68 22t-59 22t-53 -23z" />
<glyph unicode="&#xf2;" horiz-adv-x="504" d="M248 -12q-117 0 -160 59t-43 196t47 204t163 67t160 -66t44 -205q0 -135 -46.5 -195t-164.5 -60zM251 78q57 0 79 35t22 131t-22.5 138t-77.5 42t-77.5 -42t-22.5 -138t21.5 -131t77.5 -35zM213 577l-83 147h104l65 -147h-86z" />
<glyph unicode="&#xf3;" horiz-adv-x="504" d="M248 -12q-117 0 -160 59t-43 196t47 204t163 67t160 -66t44 -205q0 -135 -46.5 -195t-164.5 -60zM251 78q57 0 79 35t22 131t-22.5 138t-77.5 42t-77.5 -42t-22.5 -138t21.5 -131t77.5 -35zM376 724l-83 -147h-86l66 147h103z" />
<glyph unicode="&#xf4;" horiz-adv-x="504" d="M248 -12q-117 0 -160 59t-43 196t47 204t163 67t160 -66t44 -205q0 -135 -46.5 -195t-164.5 -60zM251 78q57 0 79 35t22 131t-22.5 138t-77.5 42t-77.5 -42t-22.5 -138t21.5 -131t77.5 -35zM103 577l116 147h67l116 -147h-89l-61 80l-61 -80h-88z" />
<glyph unicode="&#xf5;" horiz-adv-x="504" d="M248 -12q-117 0 -160 59t-43 196t47 204t163 67t160 -66t44 -205q0 -135 -46.5 -195t-164.5 -60zM251 78q57 0 79 35t22 131t-22.5 138t-77.5 42t-77.5 -42t-22.5 -138t21.5 -131t77.5 -35zM135 593l-32 43q33 50 90 50q33 0 69 -22t58 -22q26 0 52 32l35 -43 q-35 -59 -92 -59q-33 0 -68 22t-59 22t-53 -23z" />
<glyph unicode="&#xf6;" horiz-adv-x="504" d="M248 -12q-117 0 -160 59t-43 196t47 204t163 67t160 -66t44 -205q0 -135 -46.5 -195t-164.5 -60zM251 78q57 0 79 35t22 131t-22.5 138t-77.5 42t-77.5 -42t-22.5 -138t21.5 -131t77.5 -35zM215 577h-104v102h104v-102zM395 577h-104v102h104v-102z" />
<glyph unicode="&#xf7;" d="M203 443v93h109v-93h-109zM203 89v94h109v-94h-109zM53 272v82h409v-82h-409z" />
<glyph unicode="&#xf8;" horiz-adv-x="504" d="M248 -12q-70 0 -114 21l-34 -51l-51 32l38 59q-42 57 -42 194t47 204t163 67q70 0 114 -26l35 55l52 -32l-41 -64q44 -61 44 -204q0 -135 -46.5 -195t-164.5 -60zM161 140q27 52 80 138l75 123q-23 24 -64 24q-55 0 -78 -42.5t-23 -138.5q0 -68 10 -104zM251 77 q57 0 80 35.5t23 131.5q0 74 -14 115q-9 -28 -86 -155l-67 -109q22 -18 64 -18z" />
<glyph unicode="&#xf9;" horiz-adv-x="525" d="M69 502h107v-346q0 -40 14.5 -57.5t44.5 -17.5q57 0 113 56v365h107v-502h-94l-6 50h-2q-74 -59 -151 -59q-58 0 -95.5 34.5t-37.5 116.5v360zM220 577l-83 147h104l65 -147h-86z" />
<glyph unicode="&#xfa;" horiz-adv-x="525" d="M69 502h107v-346q0 -40 14.5 -57.5t44.5 -17.5q57 0 113 56v365h107v-502h-94l-6 50h-2q-74 -59 -151 -59q-58 0 -95.5 34.5t-37.5 116.5v360zM383 724l-83 -147h-86l66 147h103z" />
<glyph unicode="&#xfb;" horiz-adv-x="525" d="M69 502h107v-346q0 -40 14.5 -57.5t44.5 -17.5q57 0 113 56v365h107v-502h-94l-6 50h-2q-74 -59 -151 -59q-58 0 -95.5 34.5t-37.5 116.5v360zM111 577l116 147h67l116 -147h-89l-61 80l-61 -80h-88z" />
<glyph unicode="&#xfc;" horiz-adv-x="525" d="M69 502h107v-346q0 -40 14.5 -57.5t44.5 -17.5q57 0 113 56v365h107v-502h-94l-6 50h-2q-74 -59 -151 -59q-58 0 -95.5 34.5t-37.5 116.5v360zM402 577h-104v102h104v-102zM222 577h-104v102h104v-102z" />
<glyph unicode="&#xfd;" horiz-adv-x="524" d="M200 0q-58 0 -95.5 34.5t-37.5 116.5v351h107v-337q0 -75 59 -75q63 0 113 52v360h107v-518q0 -93 -37 -135t-103 -58q-45 -11 -138 -24l-15 84q79 13 119 25q38 11 55 34t17 74v71h-2q-64 -55 -149 -55zM382 724l-83 -147h-86l66 147h103z" />
<glyph unicode="&#xfe;" horiz-adv-x="512" d="M71 722h106v-181q0 -21 -0.5 -41.5t-1 -32t-0.5 -12.5h2q66 56 139 56q76 0 113 -50t37 -181q0 -163 -46.5 -226t-154.5 -63q-40 0 -91 9q3 -33 3 -76v-147h-106v945zM259 81q36 0 56.5 13t32.5 54t12 118q0 94 -17 124.5t-54 30.5q-57 0 -112 -57v-271q34 -12 82 -12z " />
<glyph unicode="&#xff;" horiz-adv-x="524" d="M200 0q-58 0 -95.5 34.5t-37.5 116.5v351h107v-337q0 -75 59 -75q63 0 113 52v360h107v-518q0 -93 -37 -135t-103 -58q-45 -11 -138 -24l-15 84q79 13 119 25q38 11 55 34t17 74v71h-2q-64 -55 -149 -55zM401 577h-104v102h104v-102zM221 577h-104v102h104v-102z" />
<glyph unicode="&#x152;" horiz-adv-x="779" d="M49 348q0 185 49.5 272.5t176.5 87.5q48 0 90 -16v5h371v-92h-264v-197h214v-90h-214v-226h270v-92h-377v5q-43 -16 -94 -16q-127 0 -174.5 86t-47.5 273zM295 80q38 0 70 16v502q-33 19 -79 19q-79 0 -104.5 -60.5t-25.5 -208.5q0 -149 27 -208.5t112 -59.5z" />
<glyph unicode="&#x153;" horiz-adv-x="786" d="M246 -12q-114 0 -157.5 59.5t-43.5 195.5q0 137 45.5 204t156.5 67q107 0 152 -76q47 76 161 76q53 0 91 -15t57 -39.5t27 -49.5t8 -53q0 -75 -27 -105t-108 -30q-88 0 -155 19v-8q1 -89 26 -122t86 -33q65 0 147 26l18 -80q-21 -11 -70 -22t-110 -11q-107 0 -151 71 q-47 -74 -153 -74zM250 78q54 0 75.5 35t21.5 131t-22 138t-75 42t-75.5 -42t-22.5 -138t21.5 -131t76.5 -35zM457 319q60 -19 120 -19q38 0 49.5 14t11.5 43q0 34 -21 54t-61 20q-48 0 -72 -27t-27 -85z" />
<glyph unicode="&#x178;" horiz-adv-x="493" d="M192 0v307l-197 390h119l99 -206q21 -44 32 -74h4q8 21 33 72l101 208h116l-200 -390v-307h-107zM210 748h-104v102h104v-102zM390 748h-104v102h104v-102z" />
<glyph unicode="&#x2c6;" horiz-adv-x="309" d="M6 640l116 147h67l116 -147h-89l-61 80l-61 -80h-88z" />
<glyph unicode="&#x2dc;" horiz-adv-x="488" d="M137 716l-32 43q33 50 90 50q33 0 69 -22t58 -22q26 0 52 32l35 -43q-35 -59 -92 -59q-33 0 -68 22t-59 22t-53 -23z" />
<glyph unicode="&#x1e9e;" horiz-adv-x="596" d="M70 0v442q0 74 9 120.5t33.5 80.5t69 48.5t115.5 14.5q100 0 205 -33v-91q-52 -44 -71 -73.5t-19 -66.5q0 -28 14.5 -49.5t35.5 -39t42.5 -39t36 -60t14.5 -90.5q0 -171 -175 -171q-74 0 -128 20l20 85q72 -15 97 -15q80 0 80 85q0 32 -10.5 56.5t-26.5 38t-34.5 30 t-34.5 32.5t-26.5 45t-10.5 68q0 46 21.5 85.5t69.5 83.5q-46 12 -100 12q-76 0 -98.5 -36.5t-22.5 -140.5v-442h-106z" />
<glyph unicode="&#x2000;" horiz-adv-x="475" />
<glyph unicode="&#x2001;" horiz-adv-x="951" />
<glyph unicode="&#x2002;" horiz-adv-x="475" />
<glyph unicode="&#x2003;" horiz-adv-x="951" />
<glyph unicode="&#x2004;" horiz-adv-x="317" />
<glyph unicode="&#x2005;" horiz-adv-x="237" />
<glyph unicode="&#x2006;" horiz-adv-x="158" />
<glyph unicode="&#x2007;" horiz-adv-x="158" />
<glyph unicode="&#x2008;" horiz-adv-x="118" />
<glyph unicode="&#x2009;" horiz-adv-x="190" />
<glyph unicode="&#x200a;" horiz-adv-x="52" />
<glyph unicode="&#x2010;" horiz-adv-x="367" d="M39 243v86h289v-86h-289z" />
<glyph unicode="&#x2011;" horiz-adv-x="367" d="M39 243v86h289v-86h-289z" />
<glyph unicode="&#x2012;" horiz-adv-x="367" d="M39 243v86h289v-86h-289z" />
<glyph unicode="&#x2013;" horiz-adv-x="507" d="M39 243v87h428v-87h-428z" />
<glyph unicode="&#x2014;" horiz-adv-x="1007" d="M39 243v87h928v-87h-928z" />
<glyph unicode="&#x2018;" horiz-adv-x="245" d="M112 722h89l-2 -4q-2 -5 -5 -11.5t-6.5 -16t-7.5 -20.5t-8 -24t-7 -28t-6 -30.5t-4.5 -32.5t-1.5 -34h-93q0 47 13.5 97.5t23 72.5t15.5 31z" />
<glyph unicode="&#x2019;" horiz-adv-x="245" d="M133 521h-89l2 5q2 4 5 10.5t6.5 16t7.5 20.5t8 24t7 28t6 30.5t4.5 32.5t1.5 34h93q0 -47 -13.5 -97.5t-23 -72.5t-15.5 -31z" />
<glyph unicode="&#x201a;" horiz-adv-x="245" d="M133 -92h-89l2 4q2 5 5 11.5t6.5 16t7.5 20.5t8 24t7 28t6 30.5t4.5 32.5t1.5 34h93q0 -47 -13.5 -97.5t-23 -72.5t-15.5 -31z" />
<glyph unicode="&#x201c;" horiz-adv-x="409" d="M276 722h89l-2 -4q-2 -5 -5 -11.5t-6.5 -16t-7.5 -20.5t-8 -24t-7 -28t-6 -30.5t-4.5 -32.5t-1.5 -34h-93q0 47 13.5 97.5t23 72.5t15.5 31zM112 722h89l-2 -4q-2 -5 -5 -11.5t-6.5 -16t-7.5 -20.5t-8 -24t-7 -28t-6 -30.5t-4.5 -32.5t-1.5 -34h-93q0 47 13.5 97.5 t23 72.5t15.5 31z" />
<glyph unicode="&#x201d;" horiz-adv-x="409" d="M297 521h-89l2 5q2 4 5 10.5t6.5 16t7.5 20.5t8 24t7 28t6 30.5t4.5 32.5t1.5 34h93q0 -47 -13.5 -97.5t-23 -72.5t-15.5 -31zM133 521h-89l2 5q2 4 5 10.5t6.5 16t7.5 20.5t8 24t7 28t6 30.5t4.5 32.5t1.5 34h93q0 -47 -13.5 -97.5t-23 -72.5t-15.5 -31z" />
<glyph unicode="&#x201e;" horiz-adv-x="410" d="M298 -92h-89l2 4q2 5 5 11.5t6.5 16t7.5 20.5t8 24t7 28t6 30.5t4.5 32.5t1.5 34h93q0 -47 -13.5 -97.5t-23 -72.5t-15.5 -31zM133 -92h-89l2 4q2 5 5 11.5t6.5 16t7.5 20.5t8 24t7 28t6 30.5t4.5 32.5t1.5 34h93q0 -47 -13.5 -97.5t-23 -72.5t-15.5 -31z" />
<glyph unicode="&#x2022;" horiz-adv-x="281" d="M59 269v162h163v-162h-163z" />
<glyph unicode="&#x2026;" horiz-adv-x="792" d="M78 0v110h125v-110h-125zM333 0v110h125v-110h-125zM589 0v110h124v-110h-124z" />
<glyph unicode="&#x202f;" horiz-adv-x="190" />
<glyph unicode="&#x2039;" horiz-adv-x="313" d="M156 54l-98 200l99 199h90l-99 -199l99 -200h-91z" />
<glyph unicode="&#x203a;" horiz-adv-x="313" d="M254 254l-98 -200h-91l99 200l-99 199h91z" />
<glyph unicode="&#x205f;" horiz-adv-x="237" />
<glyph unicode="&#x20ac;" horiz-adv-x="555" d="M333 390h-109v-39v-38h109v-70h-106q9 -99 38.5 -129.5t98.5 -30.5q44 0 119 17l16 -85q-75 -24 -145 -24q-78 0 -124.5 20.5t-74 76t-35.5 155.5h-64v70h61v38v39h-61v70h65q12 142 64.5 194t167.5 52q83 0 141 -20l-15 -83q-68 11 -116 11q-68 0 -97 -29t-38 -125h105 v-70z" />
<glyph unicode="&#x2116;" horiz-adv-x="923" d="M633 239v72h268v-72h-268zM768 358q-78 0 -106.5 37.5t-28.5 120.5q0 85 29 126.5t106 41.5q76 0 104.5 -41.5t28.5 -126.5q0 -84 -28 -121t-105 -37zM768 426q27 0 38 19.5t11 71.5q0 51 -11 74.5t-38 23.5q-28 0 -39 -23t-11 -75t10.5 -71.5t39.5 -19.5zM73 0v697h149 q87 -223 140.5 -367.5t63.5 -177.5l10 -33h3q-4 127 -4 256v322h102v-697h-149q-88 225 -141.5 369.5t-62.5 176.5l-9 32h-5q4 -150 5 -285v-293h-102z" />
<glyph unicode="&#x2122;" horiz-adv-x="663" d="M602 348h-56l-10 186l-3 93h-3q-4 -26 -16 -65l-45 -161h-54l-45 161l-15 65h-3q1 -53 -2 -94l-10 -185h-57l19 349h79l46 -169l15 -66h2q5 29 15 67l45 168h79zM113 348v300h-77v49h212v-49h-77v-300h-58z" />
<glyph unicode="&#x25fc;" horiz-adv-x="500" d="M0 500h500v-500h-500v500z" />
<glyph unicode="&#xfb06;" horiz-adv-x="788" d="M526 123v300h-72v79h73l6 114q-41 13 -93 13q-90 0 -90 -69q0 -9 1 -17t3.5 -15t4.5 -11.5t6.5 -10.5t6 -7.5t6.5 -7.5l6 -6l-16 -82q-93 20 -149 20q-70 0 -70 -48q0 -23 13 -36.5t58 -28.5l32 -10q84 -26 117 -60.5t33 -103.5q0 -145 -173 -145q-92 0 -196 31l16 85 q103 -28 171 -28q41 0 59 12t18 46q0 30 -14 45.5t-57 28.5l-33 10q-81 24 -115 55.5t-34 97.5q0 75 42 106t120 31q32 0 72 -5q-19 33 -19 71q0 127 173 127q92 0 201 -31v-171h129l-13 -79h-116v-298q0 -28 9 -36t34 -8q15 0 70 11l16 -82q-39 -18 -111 -18q-67 0 -96 26 t-29 105z" />
<glyph horiz-adv-x="367" d="M39 299v87h289v-87h-289z" />
<glyph horiz-adv-x="507" d="M39 300v86h428v-86h-428z" />
<glyph horiz-adv-x="1007" d="M39 300v86h928v-86h-928z" />
<glyph horiz-adv-x="35" d="M-42 320v105h95v-105h-95z" />
<glyph horiz-adv-x="0" d="M-126 320v105h95v-105h-95z" />
<glyph horiz-adv-x="343" d="M278 -142h-93q-4 7 -10.5 21.5t-23 61t-29.5 97t-23.5 127t-10.5 154.5q0 77 10 152.5t24.5 128.5t28.5 95t24 63l10 20h93q-4 -8 -10 -22.5t-22 -61.5t-28.5 -96.5t-22.5 -123.5t-10 -147q0 -117 23.5 -234t46.5 -176z" />
<glyph horiz-adv-x="343" d="M158 -142h-93q4 8 10 23.5t22 65.5t28.5 101.5t22.5 128t10 150.5q0 73 -9.5 146t-23 125.5t-27.5 95t-24 63.5l-9 21h93q4 -7 10.5 -21.5t23 -61t29.5 -96.5t23.5 -126.5t10.5 -153.5q0 -123 -24.5 -238.5t-48.5 -168.5z" />
<glyph horiz-adv-x="580" d="M510 497l24 -86l-67 -22q2 -7 15 -45t18 -55.5t11 -46.5t6 -51q0 -203 -236 -203q-230 0 -230 198q0 134 119 191v2q-92 42 -92 148q0 86 48 132.5t144 46.5q68 0 134 -18l-16 -84q-45 10 -100 10t-79.5 -21.5t-24.5 -68.5q0 -83 87 -100q31 9 119.5 36.5t119.5 36.5z M368 358q-99 -31 -137 -51q-74 -36 -74 -119q0 -54 29.5 -81t95.5 -27q129 0 129 110q0 57 -43 168z" />
<glyph horiz-adv-x="476" d="M431 100l17 -85q-69 -24 -149 -24q-67 0 -111.5 15t-77 54.5t-47 109t-14.5 176.5q0 92 10.5 155t37 111.5t74.5 71t121 22.5q92 0 150 -20l-15 -84q-64 12 -125 12q-33 0 -54.5 -6t-40.5 -22t-29.5 -46t-16 -77.5t-5.5 -116.5q0 -112 15.5 -169t46 -75.5t89.5 -18.5 q36 0 124 17zM272 -206h-82q2 3 6 7.5t14 20.5t14 32t7.5 40.5t-5.5 46.5h94q7 -27 5 -50t-10.5 -41t-18 -30.5t-16.5 -19.5z" />
<glyph horiz-adv-x="571" d="M49 348q0 187 51.5 274t188.5 87q136 0 184.5 -86.5t48.5 -275.5q0 -187 -51 -273t-188 -86q-136 0 -185 85.5t-49 274.5zM286 80q77 0 103 60.5t26 207.5t-26 208t-103 61t-103.5 -61.5t-26.5 -207.5q0 -147 26.5 -207.5t103.5 -60.5zM381 895l-57 -147h-78l39 147h96z " />
<glyph horiz-adv-x="520" d="M45 222q0 166 48 227.5t153 61.5q100 0 195 -36v-344q0 -39 11.5 -48.5t48.5 -1.5l15 -74q-36 -12 -76 -12q-70 0 -90 61h-4q-77 -65 -150 -65q-77 0 -114 50t-37 181zM253 421q-54 0 -77.5 -37t-23.5 -147q0 -66 9 -101t23 -45t39 -10q58 0 112 56v272q-44 12 -82 12z " />
<glyph horiz-adv-x="489" d="M45 250q0 137 46.5 200.5t164.5 63.5q95 0 140 -43.5t47 -135.5q0 -52 -8 -105h-283q0 -87 25.5 -119.5t87.5 -32.5q65 0 145 26l18 -80q-66 -33 -178 -33q-116 0 -160.5 61t-44.5 198zM154 310h179q4 28 3 41q0 80 -80 80q-51 0 -74.5 -29.5t-27.5 -91.5z" />
<glyph horiz-adv-x="343" d="M201 502h141l-12 -79h-128v-437q0 -102 -29.5 -143t-106.5 -57q-43 -10 -73 -14l-17 84q53 12 63 15q37 11 46.5 34.5t9.5 82.5v435h-71v79h71v85q0 84 36.5 113t105.5 29q74 0 130 -13l-14 -81q-65 7 -85 7q-37 0 -52 -12.5t-15 -53.5v-74z" />
<glyph horiz-adv-x="512" d="M243 106h57q193 0 193 -135q0 -95 -79 -149.5t-184 -54.5q-205 0 -205 160q0 94 80 140q-30 25 -30 64q0 52 64 78q-82 33 -82 137q0 85 53.5 126.5t142.5 41.5q85 0 132 -38q39 23 86 35l27 -81q-33 -7 -66 -24q8 -29 8 -60q0 -73 -54.5 -115t-148.5 -53q-65 -8 -65 -40 t71 -32zM284 25h-100q-55 -32 -55 -89q0 -82 105 -82q64 0 109.5 32t45.5 80q0 32 -24.5 45.5t-80.5 13.5zM339 346q0 85 -89 85q-43 0 -67.5 -22t-24.5 -63t23 -63t64 -22t67.5 22t26.5 63z" />
<glyph horiz-adv-x="248" d="M71 0v722h106v-722h-106z" />
<glyph horiz-adv-x="333" d="M71 123v508l106 11v-140h130l-13 -79h-117v-298q0 -28 9.5 -36t34.5 -8q15 0 70 11l16 -82q-12 -6 -45.5 -12t-66.5 -6q-67 0 -95.5 26t-28.5 105z" />
<glyph horiz-adv-x="447" d="M56 -228l-16 83l61 13q38 7 53.5 22.5t24.5 54.5l16 66h-45l-135 491h109l64 -246q27 -107 35 -165h4q12 66 37 165l62 246h107l-156 -568q-22 -75 -51 -106t-94 -43z" />
<glyph horiz-adv-x="520" d="M45 222q0 166 48 227.5t153 61.5q100 0 195 -36v-344q0 -39 11.5 -48.5t48.5 -1.5l15 -74q-36 -12 -76 -12q-70 0 -90 61h-4q-77 -65 -150 -65q-77 0 -114 50t-37 181zM253 421q-54 0 -77.5 -37t-23.5 -147q0 -66 9 -101t23 -45t39 -10q58 0 112 56v272q-44 12 -82 12z M225 577l-83 147h104l65 -147h-86z" />
<glyph horiz-adv-x="520" d="M45 222q0 166 48 227.5t153 61.5q100 0 195 -36v-344q0 -39 11.5 -48.5t48.5 -1.5l15 -74q-36 -12 -76 -12q-70 0 -90 61h-4q-77 -65 -150 -65q-77 0 -114 50t-37 181zM253 421q-54 0 -77.5 -37t-23.5 -147q0 -66 9 -101t23 -45t39 -10q58 0 112 56v272q-44 12 -82 12z M388 724l-83 -147h-86l66 147h103z" />
<glyph horiz-adv-x="520" d="M45 222q0 166 48 227.5t153 61.5q100 0 195 -36v-344q0 -39 11.5 -48.5t48.5 -1.5l15 -74q-36 -12 -76 -12q-70 0 -90 61h-4q-77 -65 -150 -65q-77 0 -114 50t-37 181zM253 421q-54 0 -77.5 -37t-23.5 -147q0 -66 9 -101t23 -45t39 -10q58 0 112 56v272q-44 12 -82 12z M115 577l116 147h67l116 -147h-89l-61 80l-61 -80h-88z" />
<glyph horiz-adv-x="520" d="M45 222q0 166 48 227.5t153 61.5q100 0 195 -36v-344q0 -39 11.5 -48.5t48.5 -1.5l15 -74q-36 -12 -76 -12q-70 0 -90 61h-4q-77 -65 -150 -65q-77 0 -114 50t-37 181zM253 421q-54 0 -77.5 -37t-23.5 -147q0 -66 9 -101t23 -45t39 -10q58 0 112 56v272q-44 12 -82 12z M147 593l-32 43q33 50 90 50q33 0 69 -22t58 -22q26 0 52 32l35 -43q-35 -59 -92 -59q-33 0 -68 22t-59 22t-53 -23z" />
<glyph horiz-adv-x="520" d="M45 222q0 166 48 227.5t153 61.5q100 0 195 -36v-344q0 -39 11.5 -48.5t48.5 -1.5l15 -74q-36 -12 -76 -12q-70 0 -90 61h-4q-77 -65 -150 -65q-77 0 -114 50t-37 181zM253 421q-54 0 -77.5 -37t-23.5 -147q0 -66 9 -101t23 -45t39 -10q58 0 112 56v272q-44 12 -82 12z M227 577h-104v102h104v-102zM407 577h-104v102h104v-102z" />
<glyph horiz-adv-x="520" d="M45 222q0 166 48 227.5t153 61.5q100 0 195 -36v-344q0 -39 11.5 -48.5t48.5 -1.5l15 -74q-36 -12 -76 -12q-70 0 -90 61h-4q-77 -65 -150 -65q-77 0 -114 50t-37 181zM253 421q-54 0 -77.5 -37t-23.5 -147q0 -66 9 -101t23 -45t39 -10q58 0 112 56v272q-44 12 -82 12z M157 675q0 49 28.5 77t78.5 28q49 0 78 -28t29 -77t-29 -77t-78 -28q-50 0 -78.5 28t-28.5 77zM212 675q0 -25 14 -40t38 -15t38 15t14 40t-14 40t-38 15t-38 -15t-14 -40z" />
<glyph horiz-adv-x="773" d="M266 511q91 0 126 -55q43 55 148 55q96 0 140 -42t46 -134q1 -42 -8 -105h-283q0 -87 26 -119.5t88 -32.5t144 26l19 -80q-66 -33 -178 -33q-129 0 -173 78q-73 -78 -183 -78q-132 0 -132 143v10q0 82 43.5 119t130.5 44q55 5 112 6v16q0 57 -15.5 75.5t-63.5 18.5 q-84 0 -167 -30l-21 80q102 38 201 38zM207 76q82 0 129 69q-7 47 -7 93q-76 -2 -107 -8q-38 -7 -55.5 -27t-17.5 -59q0 -68 58 -68zM437 310h180q3 21 3 41q-1 77 -80 77q-51 0 -74.5 -28t-28.5 -90z" />
<glyph horiz-adv-x="489" d="M45 250q0 137 46.5 200.5t164.5 63.5q95 0 140 -43.5t47 -135.5q0 -52 -8 -105h-283q0 -87 25.5 -119.5t87.5 -32.5q65 0 145 26l18 -80q-66 -33 -178 -33q-116 0 -160.5 61t-44.5 198zM154 310h179q4 28 3 41q0 80 -80 80q-51 0 -74.5 -29.5t-27.5 -91.5zM216 577 l-83 147h104l65 -147h-86z" />
<glyph horiz-adv-x="489" d="M45 250q0 137 46.5 200.5t164.5 63.5q95 0 140 -43.5t47 -135.5q0 -52 -8 -105h-283q0 -87 25.5 -119.5t87.5 -32.5q65 0 145 26l18 -80q-66 -33 -178 -33q-116 0 -160.5 61t-44.5 198zM154 310h179q4 28 3 41q0 80 -80 80q-51 0 -74.5 -29.5t-27.5 -91.5zM379 724 l-83 -147h-86l66 147h103z" />
<glyph horiz-adv-x="489" d="M45 250q0 137 46.5 200.5t164.5 63.5q95 0 140 -43.5t47 -135.5q0 -52 -8 -105h-283q0 -87 25.5 -119.5t87.5 -32.5q65 0 145 26l18 -80q-66 -33 -178 -33q-116 0 -160.5 61t-44.5 198zM154 310h179q4 28 3 41q0 80 -80 80q-51 0 -74.5 -29.5t-27.5 -91.5zM107 577 l116 147h67l116 -147h-89l-61 80l-61 -80h-88z" />
<glyph horiz-adv-x="489" d="M45 250q0 137 46.5 200.5t164.5 63.5q95 0 140 -43.5t47 -135.5q0 -52 -8 -105h-283q0 -87 25.5 -119.5t87.5 -32.5q65 0 145 26l18 -80q-66 -33 -178 -33q-116 0 -160.5 61t-44.5 198zM154 310h179q4 28 3 41q0 80 -80 80q-51 0 -74.5 -29.5t-27.5 -91.5zM218 577h-104 v102h104v-102zM398 577h-104v102h104v-102z" />
<glyph horiz-adv-x="318" d="M177 502h141l-13 -79h-128v-423h-106v502v85q0 84 36.5 113t104.5 29q74 0 130 -13l-14 -81q-63 7 -84 7q-37 0 -52 -12.5t-15 -53.5v-74z" />
<glyph horiz-adv-x="791" d="M246 -12q-114 0 -157.5 59.5t-43.5 195.5q0 137 45.5 204t156.5 67q110 0 154 -71q45 71 161 71q92 0 136 -44t46 -136q2 -48 -7 -104h-284q1 -87 26.5 -119.5t87.5 -32.5q63 0 152 29l19 -80q-22 -11 -73.5 -23.5t-112.5 -12.5q-110 0 -152 62q-41 -65 -154 -65zM250 78 q54 0 75.5 35t21.5 131t-22 138t-75 42t-75.5 -42t-22.5 -138t21.5 -131t76.5 -35zM455 310h180q3 21 3 41q-1 80 -80 80q-51 0 -74.5 -29t-28.5 -92z" />
<glyph horiz-adv-x="447" d="M56 -228l-16 83l61 13q38 7 53.5 22.5t24.5 54.5l16 66h-45l-135 491h109l64 -246q27 -107 35 -165h4q12 66 37 165l62 246h107l-156 -568q-22 -75 -51 -106t-94 -43zM351 724l-83 -147h-86l66 147h103z" />
<glyph horiz-adv-x="447" d="M56 -228l-16 83l61 13q38 7 53.5 22.5t24.5 54.5l16 66h-45l-135 491h109l64 -246q27 -107 35 -165h4q12 66 37 165l62 246h107l-156 -568q-22 -75 -51 -106t-94 -43zM190 577h-104v102h104v-102zM370 577h-104v102h104v-102z" />
<glyph horiz-adv-x="417" d="M45 249q0 130 46 196t162 66q72 0 129 -20l-16 -83q-58 13 -100 13q-62 0 -88 -40.5t-26 -131.5q0 -96 25 -132t88 -36q48 0 101 16l20 -83q-64 -23 -136 -23q-116 0 -160.5 61.5t-44.5 196.5zM233 -206h-82q2 3 6 7.5t14 20.5t14 32t7.5 40.5t-5.5 46.5h94q7 -27 5 -50 t-10.5 -41t-18 -30.5t-17.5 -19.5z" />
<glyph horiz-adv-x="504" d="M248 -12q-117 0 -160 59t-43 196t47 204t163 67t160 -66t44 -205q0 -135 -46.5 -195t-164.5 -60zM251 78q57 0 79 35t22 131t-22.5 138t-77.5 42t-77.5 -42t-22.5 -138t21.5 -131t77.5 -35zM346 724l-57 -147h-78l39 147h96z" />
<glyph horiz-adv-x="555" d="M201 502h109l-13 -79h-96v-423h-106v423h-71v79h71v85q0 85 38 113.5t114 28.5q54 0 127 -7.5t110 -15.5v-706h-106v636q-74 7 -105 7q-40 0 -56 -11.5t-16 -51.5v-78z" />
<glyph horiz-adv-x="971" d="M33 22l16 85q103 -28 171 -28q41 0 59 12t18 46q0 30 -14 45.5t-57 28.5l-33 10q-81 24 -115 55.5t-34 97.5q0 75 42 106t120 31q33 0 73 -5q-24 41 -24 81q0 68 45 105t132 37q93 0 191 -28v-164l-2 -82h2q68 56 147 56q57 0 94.5 -34.5t37.5 -116.5v-360h-106v345 q0 76 -59 76t-114 -57v-364h-106v645q-40 9 -77 9q-95 0 -95 -83q0 -43 39 -86l-16 -82q-93 20 -149 20q-70 0 -70 -48q0 -23 13 -36.5t58 -28.5l32 -10q84 -26 117 -60.5t33 -103.5q0 -145 -173 -145q-92 0 -196 31z" />
<glyph horiz-adv-x="769" d="M45 249q0 130 46 196t162 66q11 0 18 -1q-20 28 -20 67q0 127 173 127q88 0 189 -29v-173h129l-12 -79h-117v-298q0 -28 9.5 -36t34.5 -8q14 0 69 11l17 -82q-39 -18 -112 -18q-67 0 -96 26t-29 105v300h-72v79h73l6 117q-46 10 -81 10q-91 0 -91 -67q0 -21 9 -37.5 t14.5 -21t17.5 -12.5l-16 -83q-58 13 -100 13q-62 0 -88 -40.5t-26 -131.5q0 -96 25 -132t88 -36q48 0 101 16l20 -83q-64 -23 -136 -23q-116 0 -160.5 61.5t-44.5 196.5z" />
<glyph horiz-adv-x="942" d="M488 0v648q-30 5 -56 5q-88 0 -88 -79q0 -10 2 -20t5 -17t8 -15.5t7.5 -12t8.5 -10.5t7 -8l-16 -83q-58 13 -100 13q-62 0 -88 -40.5t-26 -131.5q0 -96 25 -132t88 -36q48 0 101 16l20 -83q-64 -23 -136 -23q-116 0 -160.5 61.5t-44.5 196.5q0 130 46 196t162 66 q3 0 11 -0.5t12 -0.5q-22 38 -22 82q0 64 45.5 100t130.5 36q86 0 164 -25v-166l-2 -82h2q68 56 147 56q57 0 94.5 -34.5t37.5 -116.5v-360h-106v345q0 76 -59 76t-114 -57v-364h-106z" />
<glyph horiz-adv-x="339" d="M28 404q0 102 30.5 140.5t96.5 38.5q72 0 134 -25v-197q0 -25 7 -31t29 -2l11 -56q-26 -10 -57 -10q-46 0 -63 34h-2q-48 -37 -94 -37t-69 32t-23 113zM165 513q-27 0 -39.5 -19t-12.5 -80q0 -53 9 -69.5t28 -16.5q26 0 54 24v156q-17 5 -39 5z" />
<glyph horiz-adv-x="413" d="M277 519v-84q0 -59 -15.5 -89.5t-56.5 -70.5l-33 -32q-35 -35 -35 -87q0 -47 23.5 -62.5t69.5 -15.5q62 0 135 22l16 -80q-90 -29 -170 -29q-88 0 -133.5 38t-45.5 129q0 53 15.5 84.5t42.5 58.5l37 36q28 27 36 49t8 62v71h106zM277 697v-98h-106v98h106z" />
<glyph horiz-adv-x="250" d="M178 516v-516h-107v516h107zM178 697v-98h-107v98h107z" />
</font>
</defs>
</svg>
