<?xml version="1.0" standalone="no"?>
<!DOCTYPE svg PUBLIC "-//W3C//DTD SVG 1.1//EN" "http://www.w3.org/Graphics/SVG/1.1/DTD/svg11.dtd" >
<svg xmlns="http://www.w3.org/2000/svg" xmlns:xlink="http://www.w3.org/1999/xlink" version="1.1">
<metadata></metadata>
<defs>
<font id="bunday_sansthin" horiz-adv-x="488" >
<font-face units-per-em="1000" ascent="750" descent="-250" />
<missing-glyph horiz-adv-x="238" />
<glyph unicode="&#xfb00;" horiz-adv-x="536" d="M104 470h-80v24h80v105q0 75 28.5 102.5t85.5 27.5q40 0 68 -6l-4 -24q-31 4 -59 4q-48 0 -69.5 -21.5t-21.5 -84.5v-103h227v105q0 75 28.5 102.5t86.5 27.5q49 0 89 -8l-4 -24q-60 6 -80 6q-49 0 -70 -21.5t-21 -84.5v-103h146l-4 -24h-142v-470h-29v470h-227v-470h-28 v470z" />
<glyph unicode="&#xfb01;" horiz-adv-x="476" d="M132 494h257v-494h-29v470h-228v-470h-28v470h-80v24h80v105q0 75 29.5 102.5t89.5 27.5q72 0 154 -17l-6 -24q-72 15 -146 15q-48 0 -70.5 -22t-22.5 -84v-103z" />
<glyph unicode="&#xfb02;" horiz-adv-x="507" d="M132 494h120l-3 -24h-117v-470h-28v470h-80v24h80v105q0 75 28.5 102.5t87.5 27.5q86 0 169 -18v-612q0 -35 9 -53.5t20.5 -22.5t31.5 -4q5 0 35 3l4 -24q-18 -5 -45 -5q-41 0 -62.5 21t-21.5 84v593q-89 12 -136 12q-49 0 -70.5 -21.5t-21.5 -84.5v-103z" />
<glyph unicode="&#xfb03;" horiz-adv-x="732" d="M389 494h257v-494h-29v470h-228v-470h-29v470h-228v-470h-28v470h-80v24h80v105q0 75 28.5 102.5t85.5 27.5q40 0 68 -6l-4 -24q-31 4 -59 4q-48 0 -69.5 -21.5t-21.5 -84.5v-103h228v105q0 75 30 102.5t89 27.5q76 0 154 -17l-5 -24q-72 15 -146 15q-48 0 -70.5 -22 t-22.5 -84v-103z" />
<glyph unicode="&#xfb04;" horiz-adv-x="764" d="M389 494h120l-4 -24h-116v-470h-29v470h-228v-470h-28v470h-80v24h80v105q0 75 28.5 102.5t85.5 27.5q40 0 68 -6l-4 -24q-31 4 -59 4q-48 0 -69.5 -21.5t-21.5 -84.5v-103h228v105q0 75 29 102.5t88 27.5q86 0 169 -18v-612q0 -35 9 -53.5t20.5 -22.5t31.5 -4q5 0 35 3 l3 -24q-18 -5 -44 -5q-42 0 -63 21t-21 84v593q-89 12 -136 12q-49 0 -70.5 -21.5t-21.5 -84.5v-103z" />
<glyph unicode="fb" horiz-adv-x="778" d="M132 494h120l-3 -24h-117v-470h-28v470h-80v24h80v105q0 75 28.5 102.5t87.5 27.5q86 0 169 -18v-203v-25t-0.5 -22t-0.5 -16.5v-12.5v-4h1q92 75 180 75q29 0 49.5 -4.5t41 -19.5t33 -40.5t20 -69.5t7.5 -105q0 -71 -10.5 -121.5t-27 -79.5t-43 -45.5t-51.5 -21.5 t-60 -5q-93 0 -168 38v662q-89 12 -136 12q-49 0 -70.5 -21.5t-21.5 -84.5v-103zM528 17q29 0 48.5 3.5t43 17.5t38 39t24 72t9.5 112q0 57 -6.5 97t-16.5 63t-27 36t-34 16.5t-41 3.5q-87 0 -177 -79v-352q64 -29 139 -29z" />
<glyph unicode="fh" horiz-adv-x="795" d="M132 494h120l-3 -24h-117v-470h-28v470h-80v24h80v105q0 75 28.5 102.5t87.5 27.5q86 0 169 -18v-215l-1 -68h1q92 75 188 75q134 0 134 -143v-360h-29v359q0 69 -29.5 93.5t-79.5 24.5q-92 0 -184 -79v-398h-29v691q-89 12 -136 12q-49 0 -70.5 -21.5t-21.5 -84.5v-103z " />
<glyph unicode="fj" horiz-adv-x="476" d="M132 494h257v-549q0 -70 -20.5 -97t-64.5 -40q-39 -10 -45 -11l-5 25q37 8 53 15q28 11 40.5 33t12.5 77v523h-228v-470h-28v470h-80v24h80v105q0 75 29.5 102.5t89.5 27.5q72 0 154 -17l-6 -24q-72 15 -146 15q-48 0 -70.5 -22t-22.5 -84v-103z" />
<glyph unicode="ffj" horiz-adv-x="732" d="M389 494h257v-549q0 -70 -20.5 -97t-64.5 -40q-37 -9 -45 -11l-6 25q38 8 53 15q29 11 41.5 33t12.5 77v523h-228v-470h-29v470h-228v-470h-28v470h-80v24h80v105q0 75 28.5 102.5t85.5 27.5q40 0 68 -6l-4 -24q-31 4 -59 4q-48 0 -69.5 -21.5t-21.5 -84.5v-103h228v105 q0 75 30 102.5t89 27.5q76 0 154 -17l-5 -24q-72 15 -146 15q-48 0 -70.5 -22t-22.5 -84v-103z" />
<glyph unicode="fk" horiz-adv-x="719" d="M132 494h120l-3 -24h-117v-470h-28v470h-80v24h80v105q0 75 28.5 102.5t87.5 27.5q86 0 169 -18v-410q47 -7 66 -15l208 208h36l-219 -219q33 -25 57 -54l187 -221h-34l-174 203q-35 42 -59 54.5t-68 17.5v-275h-29v691q-89 12 -136 12q-49 0 -70.5 -21.5t-21.5 -84.5 v-103z" />
<glyph unicode="ft" horiz-adv-x="577" d="M104 470h-80v24h80v105q0 75 28.5 102.5t85.5 27.5q40 0 68 -6l-4 -24q-31 4 -59 4q-48 0 -69.5 -21.5t-21.5 -84.5v-103h229l1 139l27 3v-142h154l-4 -24h-150v-371q0 -51 16 -65.5t53 -14.5q36 0 79 10l6 -24q-42 -12 -89 -12q-48 0 -70.5 20t-22.5 85v372h-229v-470 h-28v470z" />
<glyph horiz-adv-x="500" />
<glyph horiz-adv-x="500" />
<glyph horiz-adv-x="333" />
<glyph unicode="&#xd;" horiz-adv-x="0" />
<glyph unicode=" "  horiz-adv-x="238" />
<glyph unicode="&#x09;" horiz-adv-x="238" />
<glyph unicode="&#xa0;" horiz-adv-x="238" />
<glyph unicode="!" horiz-adv-x="212" d="M91 145v552h29v-552h-29zM91 0v75h30v-75h-30z" />
<glyph unicode="&#x22;" horiz-adv-x="325" d="M215 545l-1 177h28l-2 -177h-25zM85 545l-1 177h28l-2 -177h-25z" />
<glyph unicode="#" horiz-adv-x="812" d="M102 188l3 22h185l17 173h-184l2 21h185l20 190h23l-20 -190h170l20 190h22l-20 -190h184l-3 -21h-184l-17 -173h183l-3 -22h-183l-20 -189h-22l19 189h-170l-19 -189h-23l20 189h-185zM312 210h170l18 173h-170z" />
<glyph unicode="$" horiz-adv-x="555" d="M96 23l5 26q79 -22 169 -22q88 0 124 35t36 107t-33 108.5t-103 66.5l-49 21q-37 16 -58.5 28.5t-43.5 33.5t-32 50t-10 70q0 141 160 147v94h24v-93q73 -1 139 -18l-5 -24q-75 16 -142 16q-148 0 -148 -122q0 -64 29.5 -94.5t98.5 -61.5l50 -22q37 -17 59 -30.5t46 -36 t35.5 -55.5t11.5 -78q0 -82 -40 -124t-134 -44v-92h-24v92q-98 1 -165 22z" />
<glyph unicode="%" horiz-adv-x="805" d="M44 485q0 122 30 173t102 51t101.5 -51t29.5 -173t-30 -172.5t-103 -50.5q-72 0 -101 50.5t-29 172.5zM174 285q59 0 83 45.5t24 154.5q0 110 -23.5 155t-81.5 45q-59 0 -83 -45t-24 -155t23 -155t82 -45zM498 216q0 122 30 173t103 51q71 0 101 -51t30 -173 t-30.5 -172.5t-103.5 -50.5q-72 0 -101 50.5t-29 172.5zM629 16q58 0 82.5 45.5t24.5 154.5q0 110 -23.5 155t-82.5 45q-58 0 -82 -45t-24 -155t23 -155t82 -45zM218 -22l344 740h26l-344 -740h-26z" />
<glyph unicode="&#x26;" horiz-adv-x="570" d="M488 427l6 -25l-78 -20q3 -6 14 -30.5t15.5 -35t13 -33.5t12.5 -38t7.5 -36.5t3.5 -40.5q1 -85 -53.5 -132t-158.5 -47q-208 0 -208 176q0 133 141 178v2q-114 30 -114 143q0 78 42.5 113.5t129.5 35.5q67 0 107 -12l-5 -25q-40 11 -98 11q-77 0 -112 -29t-35 -94 q0 -37 13.5 -63.5t35.5 -39.5t38.5 -18.5t33.5 -7.5q10 3 249 68zM388 373q-70 -18 -160 -46q-137 -42 -137 -162q0 -151 179 -151q92 0 137.5 40.5t45.5 113.5q0 34 -12.5 76t-22 63.5t-30.5 65.5z" />
<glyph unicode="'" horiz-adv-x="195" d="M85 545l-1 177h28l-2 -177h-25z" />
<glyph unicode="(" horiz-adv-x="340" d="M257 -27h-32q-62 98 -89 187t-27 188t27 187.5t89 186.5h32q-121 -178 -121 -374q0 -195 121 -375z" />
<glyph unicode=")" horiz-adv-x="340" d="M115 -27h-32q121 180 121 375q0 196 -121 374h32q62 -98 89 -186.5t27 -187.5t-27 -188t-89 -187z" />
<glyph unicode="*" horiz-adv-x="502" d="M155 362l-19 14l98 135l-159 50l8 23l158 -51l-1 164h25l-1 -165l157 54l7 -22l-157 -54l100 -133l-20 -14l-99 135z" />
<glyph unicode="+" horiz-adv-x="515" d="M245 119v182h-178v24h178v188h25v-188h178v-24h-178v-182h-25z" />
<glyph unicode="," horiz-adv-x="197" d="M73 -105h-31q46 69 46 181h29q0 -118 -44 -181z" />
<glyph unicode="-" horiz-adv-x="367" d="M47 275v25h273v-25h-273z" />
<glyph unicode="." horiz-adv-x="197" d="M80 0v78h37v-78h-37z" />
<glyph unicode="/" horiz-adv-x="325" d="M260 698h25l-220 -698h-25z" />
<glyph unicode="0" horiz-adv-x="541" d="M64 349q0 193 47.5 276.5t160.5 83.5t159 -83t46 -277t-47 -277.5t-161 -83.5q-113 0 -159 83.5t-46 277.5zM270 14q99 0 138.5 76.5t39.5 258.5t-39.5 258t-138.5 76t-138 -76t-39 -258t39 -258.5t138 -76.5z" />
<glyph unicode="1" horiz-adv-x="290" d="M168 0v671h-125v26h153v-697h-28z" />
<glyph unicode="2" horiz-adv-x="471" d="M54 0v125q0 88 36.5 130t119.5 81l37 17q53 26 79.5 46t42.5 55.5t16 91.5q0 76 -32 105t-111 29q-64 0 -160 -25l-4 25q99 26 164 26q93 0 132 -36t39 -124q0 -40 -7.5 -70t-18.5 -50.5t-33.5 -38.5t-42.5 -29.5t-55 -28.5l-36 -18q-51 -25 -76.5 -43t-43.5 -54.5 t-18 -91.5v-96h330v-26h-358z" />
<glyph unicode="3" horiz-adv-x="458" d="M25 27l7 24q87 -33 172 -33q81 0 120.5 42t39.5 141q0 93 -44 126.5t-124 34.5h-77v26h78q75 1 117.5 35t42.5 118q0 81 -38.5 110t-110.5 29t-162 -32l-7 24q80 34 167 34t133 -34.5t46 -129.5q0 -79 -33.5 -117t-78.5 -47q23 -6 40 -15t37.5 -27.5t31.5 -53.5t11 -83 q0 -110 -48 -158.5t-141 -48.5q-90 0 -179 35z" />
<glyph unicode="4" horiz-adv-x="493" d="M28 211l-5 28l242 464l25 -11l-101 -194l-138 -261h327v183h29v-420h-29v211h-350z" />
<glyph unicode="5" horiz-adv-x="491" d="M74 22l5 25q1 0 13 -4t26.5 -7.5t34.5 -8t44 -7t47 -2.5q78 0 119.5 39.5t41.5 143.5q0 55 -12 92t-36.5 55t-51.5 25t-65 7q-64 0 -141 -16l-13 9v324h301v-26h-272v-280q62 15 129 15q42 0 73 -8t59 -29t43 -63t15 -105q0 -120 -49 -164.5t-138 -44.5q-68 0 -173 30z " />
<glyph unicode="6" horiz-adv-x="514" d="M276 680q-102 0 -142 -72.5t-41 -249.5q80 68 185 67q86 -1 132.5 -47t46.5 -167q0 -223 -190 -223q-111 0 -157 83.5t-46 277.5t48 275.5t164 81.5q57 0 134 -21l-5 -25q-76 20 -129 20zM276 399q-55 0 -105 -21.5t-78 -48.5q2 -170 40.5 -242.5t133.5 -72.5 q161 0 161 196q0 110 -39 149.5t-113 39.5z" />
<glyph unicode="7" horiz-adv-x="455" d="M149 0h-29q35 171 97 325t169 346h-348v26h379v-29q-115 -209 -174.5 -353.5t-93.5 -314.5z" />
<glyph unicode="8" horiz-adv-x="526" d="M56 189q0 157 132 182q-54 10 -83.5 50.5t-29.5 108.5q0 179 188 179t188 -179q0 -67 -29.5 -107.5t-83.5 -51.5q64 -12 98 -59.5t34 -122.5q-1 -106 -50.5 -153.5t-156.5 -47.5q-108 0 -157.5 47.5t-49.5 153.5zM263 382q82 0 121 35.5t39 111.5q0 154 -160 154 q-83 0 -121.5 -38.5t-38.5 -115.5q0 -76 38.5 -111.5t121.5 -35.5zM263 14q94 0 136 39.5t42 134.5q0 168 -178 168t-178 -167q0 -95 42 -135t136 -40z" />
<glyph unicode="9" horiz-adv-x="514" d="M238 17q102 0 142 72t41 249q-82 -67 -185 -66q-86 1 -132.5 47t-46.5 167q0 223 190 223q111 0 157 -83.5t46 -277.5t-48 -275.5t-164 -81.5q-57 0 -134 21l5 25q76 -20 129 -20zM238 298q55 0 105 21.5t78 48.5q-2 170 -41 242.5t-133 72.5q-161 0 -161 -196 q0 -110 39 -149.5t113 -39.5z" />
<glyph unicode=":" horiz-adv-x="197" d="M80 358v78h37v-78h-37zM80 0v78h37v-78h-37z" />
<glyph unicode=";" horiz-adv-x="197" d="M80 358v78h37v-78h-37zM73 -105h-31q46 69 46 181h29q0 -118 -44 -181z" />
<glyph unicode="&#x3c;" horiz-adv-x="515" d="M114 299v22l287 263v-33l-261 -240l261 -237v-33z" />
<glyph unicode="=" horiz-adv-x="515" d="M81 404v24h353v-24h-353zM81 200v24h353v-24h-353z" />
<glyph unicode="&#x3e;" horiz-adv-x="515" d="M401 321v-22l-287 -258v33l261 237l-261 240v33z" />
<glyph unicode="?" horiz-adv-x="413" d="M167 145v70q0 73 11.5 104t52.5 69l55 52q49 46 49 116q0 74 -38 99.5t-114 25.5q-59 0 -130 -19l-4 23q56 21 138 21q88 0 132.5 -32.5t44.5 -118.5q0 -79 -56 -132l-60 -57q-35 -33 -44 -60t-9 -94v-67h-28zM167 0v75h28v-75h-28z" />
<glyph unicode="@" horiz-adv-x="775" d="M66 256q0 180 82.5 268.5t238.5 88.5q155 0 239 -86.5t84 -258.5q0 -190 -122 -190q-77 0 -90 61q-55 -70 -141 -70q-25 0 -42.5 6t-33.5 23.5t-24.5 54t-8.5 92.5q0 113 39.5 153.5t108.5 40.5q62 0 91.5 -30t29.5 -109v-132q0 -67 71 -67q51 0 74.5 41t23.5 129 q0 160 -76.5 240t-221.5 80q-298 0 -298 -335t297 -335q31 0 91 8l3 -21q-45 -9 -94 -9q-321 0 -321 357zM360 91q73 0 132 72v137q0 68 -22 92.5t-73 24.5q-62 0 -93 -36.5t-31 -135.5q0 -91 22 -122.5t65 -31.5z" />
<glyph unicode="A" horiz-adv-x="514" d="M23 0l213 697h43l212 -697h-30l-60 195h-290l-58 -195h-30zM118 221h277l-137 451h-2z" />
<glyph unicode="B" horiz-adv-x="553" d="M273 0h-180v697h158q118 0 166.5 -44t48.5 -130q0 -138 -122 -157q150 -19 150 -179q0 -187 -221 -187zM122 375h143q94 0 133.5 34t39.5 115q0 75 -42 111t-144 36h-130v-296zM122 26h151q192 0 192 161q0 84 -44 123t-142 39h-157v-323z" />
<glyph unicode="C" horiz-adv-x="468" d="M419 37l5 -25q-50 -21 -128 -21q-124 0 -178 80t-54 275q0 193 52 276.5t175 83.5q69 0 130 -16l-5 -24q-60 14 -125 14q-107 0 -152.5 -74.5t-45.5 -259.5q0 -182 46 -255.5t156 -73.5q62 0 124 20z" />
<glyph unicode="D" horiz-adv-x="557" d="M171 0h-78v697h87q63 0 103 -4t78.5 -16t60.5 -35t39.5 -62t24.5 -95.5t7 -135.5t-7.5 -136t-26.5 -96t-42 -62t-63 -35t-80 -16t-103 -4zM122 26h50q43 0 71.5 1.5t60 6.5t51 14.5t39.5 25.5t31.5 39.5t21 57t13.5 77.5t4 101t-3.5 100.5t-12 77t-19 57t-30 39.5 t-38.5 25.5t-50 14.5t-60 6.5t-73 1.5h-56v-645z" />
<glyph unicode="E" d="M93 0v697h342v-26h-313v-295h256v-26h-256v-324h323v-26h-352z" />
<glyph unicode="F" horiz-adv-x="470" d="M93 0v697h349v-26h-320v-311h252v-26h-252v-334h-29z" />
<glyph unicode="G" horiz-adv-x="536" d="M64 347q0 192 52 275.5t174 83.5q65 0 153 -20l-6 -24q-79 18 -146 18q-107 0 -152.5 -74.5t-45.5 -258.5q0 -183 46 -256.5t157 -73.5q68 0 141 22v346h28v-364q-72 -30 -169 -30q-124 0 -178 80t-54 276z" />
<glyph unicode="H" horiz-adv-x="582" d="M93 0v697h29v-321h338v321h29v-697h-29v350h-338v-350h-29z" />
<glyph unicode="I" horiz-adv-x="215" d="M93 0v697h29v-697h-29z" />
<glyph unicode="J" horiz-adv-x="386" d="M19 1l4 25q52 -9 103 -9q78 0 111.5 32t33.5 117v531h29v-531q0 -97 -41 -136t-132 -39q-65 0 -108 10z" />
<glyph unicode="K" horiz-adv-x="518" d="M93 0v697h29v-319q45 -2 70 -14l258 333h33l-268 -344q33 -23 78 -77l230 -276h-35l-219 263q-42 51 -70 68.5t-77 20.5v-352h-29z" />
<glyph unicode="L" horiz-adv-x="432" d="M93 0v697h29v-671h282v-26h-311z" />
<glyph unicode="M" horiz-adv-x="753" d="M681 0h-28l-31 528l-7 142h-2q-22 -61 -218 -531h-33l-221 531h-2q-3 -73 -8 -144l-33 -526h-28l43 697h45l220 -532h2q18 53 215 532h46z" />
<glyph unicode="N" horiz-adv-x="605" d="M93 0v697h43q144 -275 231 -442.5t102 -197.5l15 -30h1q-1 78 -1 146v524h28v-697h-43q-143 272 -230 439.5t-102 198.5l-15 32h-2q1 -83 1 -162v-508h-28z" />
<glyph unicode="O" horiz-adv-x="575" d="M64 349q0 192 52 276t173 84q120 0 171 -84t51 -276q0 -193 -52 -277t-173 -84q-120 0 -171 84t-51 277zM288 14q106 0 150 77t44 258t-44 257.5t-150 76.5q-107 0 -151 -76.5t-44 -257.5t44 -258t151 -77z" />
<glyph unicode="P" horiz-adv-x="516" d="M93 0v697h180q106 0 153 -42.5t47 -150.5q0 -93 -51 -146.5t-156 -53.5h-144v-304h-29zM122 330h143q179 0 179 174q0 95 -39.5 131t-131.5 36h-151v-341z" />
<glyph unicode="Q" horiz-adv-x="575" d="M64 349q0 192 52 276t173 84q120 0 171 -84t51 -276q0 -164 -37 -248t-120 -105q52 -79 195 -113l-8 -25q-84 21 -134.5 49.5t-84.5 82.5q-24 -2 -36 -2q-120 0 -171 84t-51 277zM288 14q106 0 150 77t44 258t-44 257.5t-150 76.5q-107 0 -151 -76.5t-44 -257.5t44 -258 t151 -77z" />
<glyph unicode="R" horiz-adv-x="541" d="M93 0v697h178q107 0 154.5 -41t47.5 -148q0 -168 -136 -188q34 -10 55.5 -40t42.5 -86l71 -194h-30l-68 186q-22 64 -50 93.5t-86 29.5h-150v-309h-29zM122 335h153q85 0 127 41t42 132q0 94 -39.5 128.5t-133.5 34.5h-149v-336z" />
<glyph unicode="S" horiz-adv-x="481" d="M60 13l5 26q79 -22 169 -22q89 0 124.5 34t35.5 113q0 76 -32 112.5t-104 68.5l-49 22q-38 17 -59 29.5t-43.5 34t-32 51.5t-9.5 72q0 152 174 152q84 0 149 -18l-5 -24q-75 16 -142 16q-79 0 -113.5 -32t-34.5 -94q0 -67 29 -99t98 -63l51 -22q39 -18 61 -31t46 -36.5 t34.5 -57.5t10.5 -81q0 -90 -42 -131.5t-144 -41.5q-100 0 -177 22z" />
<glyph unicode="T" horiz-adv-x="441" d="M204 0v671h-184v26h400v-26h-187v-671h-29z" />
<glyph unicode="U" horiz-adv-x="572" d="M86 171v526h29v-525q0 -82 41.5 -120t129.5 -38t129.5 38t41.5 120v525h29v-526q0 -183 -200 -183q-101 0 -150.5 44.5t-49.5 138.5z" />
<glyph unicode="V" horiz-adv-x="460" d="M210 0l-199 697h31l145 -512q40 -140 42 -158h2l43 160l145 510h29l-199 -697h-39z" />
<glyph unicode="W" horiz-adv-x="742" d="M169 0l-141 697h28l109 -535q24 -120 24 -133h2q0 1 30 127l134 531h36l133 -528q30 -122 30 -131h2q0 12 24 128l107 541h28l-140 -697h-39l-123 490q-37 158 -39 169h-2q0 -13 -39 -169l-125 -490h-39z" />
<glyph unicode="X" horiz-adv-x="512" d="M256 343h-2q-52 -87 -101 -169l-107 -174h-31l222 363l-203 334h31l86 -139l104 -175h3q58 97 105 174l86 140h31l-205 -335l222 -362h-33l-105 170z" />
<glyph unicode="Y" horiz-adv-x="470" d="M220 0v305l-218 392h32l154 -278q45 -82 46 -86h2q3 7 46 86l155 278h30l-218 -392v-305h-29z" />
<glyph unicode="Z" horiz-adv-x="458" d="M40 0v12l329 659h-305v26h342v-13l-329 -658h337v-26h-374z" />
<glyph unicode="[" horiz-adv-x="378" d="M137 -86v864h150v-23h-123v-818h123v-23h-150z" />
<glyph unicode="\" horiz-adv-x="326" d="M40 698h25l220 -698h-25z" />
<glyph unicode="]" horiz-adv-x="378" d="M241 778v-864h-150v23h123v818h-123v23h150z" />
<glyph unicode="^" horiz-adv-x="535" d="M65 397l189 300h27l187 -300h-31l-170 274l-173 -274h-29z" />
<glyph unicode="_" horiz-adv-x="446" d="M0 -129v23h446v-23h-446z" />
<glyph unicode="`" horiz-adv-x="233" d="M174 640l-57 125h30l54 -125h-27z" />
<glyph unicode="a" d="M407 0h-26l-1 67h-1q-91 -76 -188 -76q-63 0 -97.5 32t-34.5 107v8q0 77 38.5 112t107.5 45q54 9 173 11v21q0 90 -30.5 120t-93.5 30q-85 0 -169 -30l-6 24q84 32 176 32q36 0 61 -6.5t47 -24.5t33 -54t11 -90v-328zM378 95v187q-112 -2 -174 -12q-61 -11 -89 -42 t-28 -94q0 -68 28 -93t80 -25q92 0 183 79z" />
<glyph unicode="b" horiz-adv-x="504" d="M86 722h29v-214v-25t-0.5 -22t-0.5 -16.5v-12.5v-4h1q92 75 180 75q29 0 49.5 -4.5t41 -19.5t33 -40.5t20 -69.5t7.5 -105q0 -71 -10.5 -121.5t-27 -79.5t-43 -45.5t-51.5 -21.5t-60 -5q-93 0 -168 38v693zM254 17q29 0 48.5 3.5t43 17.5t38 39t24 72t9.5 112 q0 57 -6.5 97t-16.5 63t-27 36t-34 16.5t-41 3.5q-87 0 -177 -79v-352q64 -29 139 -29z" />
<glyph unicode="c" horiz-adv-x="399" d="M58 238q0 134 44.5 199.5t143.5 65.5q46 0 106 -15l-6 -25q-60 14 -99 14q-84 0 -122 -58t-38 -181q0 -121 36.5 -171t123.5 -50q45 0 101 14l7 -24q-55 -16 -108 -16q-102 0 -145.5 57t-43.5 190z" />
<glyph unicode="d" horiz-adv-x="504" d="M58 230q0 71 10.5 121.5t27 79.5t42.5 45.5t50.5 21.5t58.5 5q72 0 141 -32h2q-2 10 -2 73v178h29v-722h-26l-1 67h-1q-91 -76 -180 -76q-37 0 -61 8t-46.5 32t-33 73.5t-10.5 125.5zM388 96v350q-64 31 -139 31q-36 0 -60.5 -7t-50 -29.5t-38.5 -75t-13 -133.5 q0 -70 8.5 -115t27 -66t38.5 -27.5t51 -6.5q85 0 176 79z" />
<glyph unicode="e" horiz-adv-x="481" d="M58 239q0 147 48.5 207t147.5 60q78 0 125 -38t47 -108q0 -67 -27 -91.5t-106 -24.5q-46 0 -96.5 7t-74.5 13t-34 9q-1 -10 -1 -36q0 -71 12 -117t36.5 -67.5t49.5 -28.5t63 -7q79 0 157 26l5 -24q-74 -28 -164 -28q-46 0 -78 10.5t-58 37t-39 76t-13 124.5zM89 298 l11 -3q10 -3 22.5 -6t32.5 -7t39.5 -7t45 -5t48.5 -2q68 0 88.5 19.5t20.5 72.5q0 55 -38 88t-105 33q-78 0 -118 -42.5t-47 -140.5z" />
<glyph unicode="f" horiz-adv-x="281" d="M275 470h-143v-470h-28v470h-80v24h80v105q0 75 28.5 102.5t85.5 27.5q48 0 90 -8l-4 -24q-60 6 -81 6q-48 0 -69.5 -21.5t-21.5 -84.5v-103h146z" />
<glyph unicode="g" horiz-adv-x="504" d="M175 -233l-5 25q93 19 119 29q23 9 36.5 16.5t30.5 24.5t25 46.5t8 71.5l1 92h-1q-87 -72 -180 -72q-36 0 -60.5 8t-47 31t-33 70.5t-10.5 120.5q0 71 10 121.5t26.5 79.5t42.5 45.5t51.5 21.5t60.5 5q90 0 168 -38v-485q0 -47 -9.5 -80.5t-28 -53.5t-36.5 -30.5 t-44 -19.5q-47 -15 -124 -29zM87 233q0 -67 8.5 -110t27 -63.5t38.5 -27t51 -6.5q90 0 176 75v346q-63 30 -139 30q-30 0 -50 -3.5t-43 -17.5t-37 -39.5t-23 -71.5t-9 -112z" />
<glyph unicode="h" horiz-adv-x="521" d="M86 0v722h29v-226l-1 -68h1q92 75 188 75q134 0 134 -143v-360h-29v359q0 69 -29.5 93.5t-79.5 24.5q-92 0 -184 -79v-398h-29z" />
<glyph unicode="i" horiz-adv-x="206" d="M89 0v494h29v-494h-29zM87 592v77h33v-77h-33z" />
<glyph unicode="j" horiz-adv-x="206" d="M-13 -228l-5 25q37 8 53 15q29 11 41.5 33.5t12.5 76.5v572h29v-574q0 -70 -20.5 -97t-64.5 -40q-1 0 -16.5 -4t-29.5 -7zM87 592v77h33v-77h-33z" />
<glyph unicode="k" horiz-adv-x="447" d="M88 0v722h29v-421q46 -7 65 -15l209 208h36l-220 -219q31 -22 57 -54l188 -221h-35l-174 203q-34 41 -58.5 54t-67.5 18v-275h-29z" />
<glyph unicode="l" horiz-adv-x="233" d="M211 20l4 -25q-22 -4 -45 -4q-41 0 -62.5 20.5t-21.5 84.5v626h29v-625q0 -52 15 -66t46 -14q20 0 35 3z" />
<glyph unicode="m" horiz-adv-x="769" d="M86 0v494h27v-67h2q72 76 159 76q93 0 118 -82q75 82 162 82q130 0 130 -141v-362h-29v360q0 68 -29 92.5t-75 24.5q-82 0 -154 -81q3 -15 3 -43v-353h-29v355q0 122 -100 122q-80 0 -156 -79v-398h-29z" />
<glyph unicode="n" horiz-adv-x="521" d="M86 0v494h27v-67h2q91 76 188 76q134 0 134 -142v-361h-29v359q0 69 -29.5 93.5t-79.5 24.5q-92 0 -184 -79v-398h-29z" />
<glyph unicode="o" horiz-adv-x="502" d="M251 -12q-106 0 -149.5 57t-43.5 192q0 137 46 203t149 66q102 0 146.5 -65.5t44.5 -203.5q0 -134 -44.5 -191.5t-148.5 -57.5zM252 14q89 0 126 50.5t37 172.5q0 126 -37.5 184.5t-125.5 58.5t-126.5 -58.5t-38.5 -184.5q0 -123 37.5 -173t127.5 -50z" />
<glyph unicode="p" horiz-adv-x="504" d="M446 264q0 -87 -14.5 -144.5t-43 -84t-58.5 -35.5t-73 -9q-76 0 -142 32h-1q1 -28 1 -67v-179h-29v717h27v-67h2q91 76 180 76q29 0 49.5 -4.5t41 -19.5t33 -40.5t20 -69.5t7.5 -105zM115 398v-350q64 -31 139 -31q30 0 50 3.5t43 17.5t37 39.5t23.5 72t9.5 111.5 q0 57 -6.5 97t-16.5 63t-27 36t-34 16.5t-41 3.5q-85 0 -177 -79z" />
<glyph unicode="q" horiz-adv-x="504" d="M417 -223h-29v220l2 69h-2q-90 -75 -179 -75q-37 0 -61 8t-46.5 32t-33 73.5t-10.5 125.5q0 71 10 121.5t26.5 79.5t42.5 45.5t51.5 21.5t60.5 5q90 0 168 -38v-688zM249 477q-30 0 -50 -3.5t-43 -17.5t-37 -39.5t-23 -71.5t-9 -112q0 -71 8.5 -115.5t27 -66t38.5 -28 t51 -6.5q85 0 176 79v351q-63 30 -139 30z" />
<glyph unicode="r" horiz-adv-x="332" d="M86 0v494h27v-67h2q73 75 161 75q31 0 43 -3l-5 -27q-22 2 -40 2q-85 0 -159 -77v-397h-29z" />
<glyph unicode="s" horiz-adv-x="437" d="M38 22l6 25q105 -30 182 -30q63 0 95 20.5t32 85.5q0 51 -28.5 76t-97.5 47l-41 13q-70 21 -101.5 47t-31.5 84q0 64 37.5 88.5t107.5 24.5q81 0 164 -23l-6 -25q-82 22 -156 22q-59 0 -89 -18.5t-30 -68.5q0 -44 24.5 -65t88.5 -40l40 -13q81 -26 114.5 -56t33.5 -93 q0 -74 -39 -103t-116 -29q-89 0 -189 31z" />
<glyph unicode="t" horiz-adv-x="311" d="M95 98v372h-75v24h75l1 139l27 3v-142h154l-4 -24h-150v-371q0 -51 16 -65.5t53 -14.5q36 0 79 10l6 -24q-42 -12 -89 -12q-48 0 -70.5 20t-22.5 85z" />
<glyph unicode="u" horiz-adv-x="521" d="M84 494h29v-360q0 -69 30 -93t80 -24q91 0 183 79v398h29v-494h-27v67h-1q-93 -76 -188 -76q-59 0 -97 30t-38 112v361z" />
<glyph unicode="v" horiz-adv-x="428" d="M195 0l-174 494h29l108 -307l55 -163h2q28 87 55 163l107 307h30l-176 -494h-36z" />
<glyph unicode="w" horiz-adv-x="687" d="M160 0l-135 494h29l86 -316l40 -152h1q26 90 47 156l96 309h39l96 -310l46 -155h1q23 86 43 162l84 306h29l-137 -494h-40l-111 369l-30 97h-2q-14 -49 -29 -97l-115 -369h-38z" />
<glyph unicode="x" horiz-adv-x="447" d="M25 0l181 261l-160 233h33l113 -165l32 -50q18 31 32 52l111 163h32l-159 -233l181 -261h-34l-127 183l-15 22.5t-16 24.5l-7 11l-37 -57l-126 -184h-34z" />
<glyph unicode="y" horiz-adv-x="519" d="M216 0q-27 0 -48 5.5t-42 19.5t-32.5 44t-11.5 74v351h29v-350q0 -69 30 -93.5t79 -24.5q97 0 183 75v393h29v-514q0 -89 -31 -127t-87 -57q-47 -16 -124 -29l-5 25q89 18 120 29q23 9 36.5 16.5t30 24.5t24.5 46.5t8 71.5l1 92h-1q-86 -72 -188 -72z" />
<glyph unicode="z" horiz-adv-x="437" d="M48 0v15l289 453h-265v26h302v-16l-287 -452h305v-26h-344z" />
<glyph unicode="{" horiz-adv-x="358" d="M121 54v189q0 58 -17 78t-55 20v23q39 0 55.5 20.5t16.5 77.5v176q0 80 32.5 110t106.5 30h8v-22h-10q-59 0 -85 -25t-26 -89v-180q0 -92 -50 -110q50 -17 50 -110v-192q0 -64 24 -89t79 -25h18v-22h-18q-68 0 -98.5 30t-30.5 110z" />
<glyph unicode="|" horiz-adv-x="257" d="M115 -196v1088h27v-1088h-27z" />
<glyph unicode="}" horiz-adv-x="358" d="M237 243v-189q0 -80 -30.5 -110t-98.5 -30h-18v22h18q55 0 79 25t24 89v192q0 93 50 110q-50 18 -50 110v180q0 64 -26 89t-85 25h-10v22h8q74 0 106.5 -30t32.5 -110v-176q0 -57 16.5 -77.5t55.5 -20.5v-23q-38 0 -55 -20t-17 -78z" />
<glyph unicode="~" horiz-adv-x="515" d="M137 298l-18 17q28 30 62 30q24 0 46 -14t36.5 -30.5t33.5 -30.5t38 -14q21 0 43 22l18 -17q-26 -30 -61 -30q-24 0 -46 14t-36 30.5t-33.5 30.5t-39.5 14q-21 0 -43 -22z" />
<glyph unicode="&#xa1;" horiz-adv-x="212" d="M121 356v-552h-29v552h29zM121 501v-75h-30v75h30z" />
<glyph unicode="&#xa2;" horiz-adv-x="555" d="M96 328q0 125 39 190.5t126 72.5v106h24v-105q44 0 104 -15l-5 -25q-53 14 -99 14q-85 0 -123 -58t-38 -180t37 -172t124 -50q44 0 100 14l7 -24q-55 -16 -107 -16v-97h-24v97q-89 6 -127 64t-38 184z" />
<glyph unicode="&#xa3;" horiz-adv-x="555" d="M157 369v154q0 95 42 139t125 44q74 0 125 -15l-5 -24q-56 13 -118 13q-73 0 -107 -39t-34 -119v-153h88v-22h-88v-321h300v-26h-416v26h88v321h-74v22h74z" />
<glyph unicode="&#xa4;" horiz-adv-x="685" d="M131 129l-17 16l53 55q-54 63 -54 153q0 87 57 154l-56 56l17 17l55 -56q68 63 157 63q90 0 156 -64l56 56l17 -17l-57 -57q57 -66 57 -152q0 -89 -55 -153l52 -54l-16 -16l-53 52q-66 -66 -157 -66q-92 0 -160 66zM343 140q84 0 144.5 62.5t60.5 150.5q0 86 -60.5 148 t-144.5 62q-85 0 -145.5 -62t-60.5 -148q0 -88 60.5 -150.5t145.5 -62.5z" />
<glyph unicode="&#xa5;" horiz-adv-x="555" d="M142 314h115l-213 383h32l154 -278q45 -82 46 -86h2q3 7 46 86l155 278h30l-213 -383h117v-22h-122v-72h122v-23h-122v-197h-29v197h-120v23h120v72h-120v22z" />
<glyph unicode="&#xa6;" horiz-adv-x="257" d="M115 444v448h27v-448h-27zM115 -196v447h27v-447h-27z" />
<glyph unicode="&#xa7;" horiz-adv-x="506" d="M71 -89l5 27q79 -22 170 -22q93 0 126.5 24.5t33.5 98.5q0 57 -34.5 88t-104.5 56l-53 19q-73 27 -105.5 56.5t-32.5 93.5q0 78 59 107q-59 38 -59 114q0 132 174 132q72 0 151 -19l-6 -25q-99 18 -144 18q-77 0 -111.5 -25.5t-34.5 -79.5q0 -53 28.5 -78t94.5 -48 l57 -20q72 -26 111 -62.5t39 -103.5q0 -80 -42 -117q42 -42 42 -105q0 -86 -40 -118t-146 -32q-94 0 -178 21zM215 424q-40 14 -54 21q-56 -22 -56 -93q0 -51 28 -76t93 -50l57 -21q61 -23 90 -43q33 26 33 99q0 57 -34.5 88t-103.5 56z" />
<glyph unicode="&#xa8;" horiz-adv-x="972" d="M414 640h-32v75h32v-75zM590 640h-32v75h32v-75z" />
<glyph unicode="&#xa9;" horiz-adv-x="837" d="M504 163l3 -20q-33 -13 -94 -13q-35 0 -58 8t-42 31t-27.5 67.5t-8.5 113.5t9.5 114t30 68t44.5 31.5t60 8.5q43 0 85 -10l-3 -20q-42 8 -80 8q-32 0 -52 -7t-37 -27t-25 -61t-8 -105q0 -84 14.5 -128.5t37 -57.5t62.5 -13q48 0 89 12zM93 350q0 170 86 266t241 96 t239.5 -95.5t84.5 -266.5q0 -170 -86.5 -266t-241.5 -96q-154 0 -238.5 96t-84.5 266zM116 350q0 -161 78 -251t222 -90q146 0 226 90t80 251t-78.5 251t-223.5 90t-224.5 -90t-79.5 -251z" />
<glyph unicode="&#xaa;" horiz-adv-x="309" d="M260 265h-23q-1 22 0 40h-1q-56 -46 -118 -46q-83 0 -83 88v4q0 47 23.5 68.5t66.5 29.5q30 5 109 7v12q0 52 -18.5 69.5t-56.5 17.5q-49 0 -106 -18l-5 19q49 21 113 21q49 0 74 -22.5t25 -86.5v-203zM234 326v110q-62 0 -104 -7q-36 -6 -53 -24.5t-17 -54.5 q0 -40 17.5 -54.5t47.5 -14.5q54 0 109 45z" />
<glyph unicode="&#xab;" horiz-adv-x="427" d="M172 54l-99 200l99 199h28l-99 -199l99 -200h-28zM313 54l-99 200l99 199h28l-99 -199l99 -200h-28z" />
<glyph unicode="&#xac;" horiz-adv-x="515" d="M85 300v25h344v-163h-26v138h-318z" />
<glyph unicode="&#xad;" horiz-adv-x="367" d="M47 275v25h273v-25h-273z" />
<glyph unicode="&#xae;" horiz-adv-x="511" d="M62 499q0 96 50.5 152t140.5 56t140 -56t50 -152q0 -97 -50 -151.5t-140 -54.5t-140.5 55t-50.5 151zM81 499q0 -90 44.5 -139.5t127.5 -49.5t127 49.5t44 139.5t-44.5 140.5t-126.5 50.5q-83 0 -127.5 -50.5t-44.5 -140.5zM194 391l1 229h63q38 0 52.5 -14t14.5 -52 q0 -50 -40 -60q15 -6 27 -37l24 -66h-22l-22 60q-12 36 -38 36h-39v-96h-21zM215 505h41q25 0 36.5 10.5t11.5 38.5q0 29 -9.5 38.5t-36.5 9.5h-43v-97z" />
<glyph unicode="&#xaf;" horiz-adv-x="529" d="M375 693h-231v23h231v-23z" />
<glyph unicode="&#xb0;" horiz-adv-x="351" d="M68 593q0 65 28.5 90t79.5 25q50 0 78.5 -25t28.5 -90t-28.5 -90t-78.5 -25q-51 0 -79.5 25t-28.5 90zM176 497q42 0 63.5 21t21.5 75t-21.5 75t-63.5 21q-43 0 -64.5 -21t-21.5 -75t21.5 -75t64.5 -21z" />
<glyph unicode="&#xb1;" horiz-adv-x="515" d="M245 179v180h-164v24h164v186h25v-186h164v-24h-164v-180h-25zM81 0v24h353v-24h-353z" />
<glyph unicode="&#xb2;" horiz-adv-x="308" d="M32 380v80q0 55 24.5 81t79.5 51l24 11q50 22 69 43t19 70q0 45 -19.5 61.5t-69.5 16.5q-43 0 -100 -15l-5 22q60 17 105 17q62 0 88 -23t26 -79q0 -57 -23 -83t-79 -51l-25 -11q-47 -20 -67.5 -43.5t-20.5 -70.5v-54h214v-23h-240z" />
<glyph unicode="&#xb3;" horiz-adv-x="285" d="M14 396l6 21q53 -19 107 -19q49 0 73.5 24.5t24.5 82.5q0 55 -27.5 75t-76.5 20h-47v22l48 1q98 0 98 90q0 48 -23.5 64.5t-66.5 16.5q-47 0 -101 -18l-6 20q57 22 108 22q55 0 85 -22t30 -82q0 -47 -20.5 -71t-47.5 -30q20 -6 33.5 -14t26.5 -32.5t13 -62.5 q-1 -68 -31.5 -98.5t-91.5 -30.5q-62 0 -114 21z" />
<glyph unicode="&#xb4;" horiz-adv-x="232" d="M135 766l-57 -126h-27l54 126h30z" />
<glyph unicode="&#xb5;" horiz-adv-x="506" d="M82 494h29v-360q0 -69 28.5 -93t75.5 -24q86 0 176 80v397h29v-494h-27v66h-2q-89 -75 -178 -75q-76 0 -104 48q2 -54 2 -65v-172h-29v692z" />
<glyph unicode="&#xb6;" horiz-adv-x="601" d="M482 0v697h22v-697h-22zM381 0v322h-105q-93 0 -136.5 37t-43.5 126v50q0 91 40 126.5t132 35.5h135v-697h-22z" />
<glyph unicode="&#xb7;" horiz-adv-x="183" d="M73 305v39h38v-39h-38z" />
<glyph unicode="&#xb8;" horiz-adv-x="412" d="M119 -228l5 21q39 -11 75 -11q66 0 66 45q0 20 -15.5 34.5t-34.5 21.5t-34.5 21.5t-15.5 34.5q0 28 21 53l22 -3q-19 -23 -19 -48q0 -15 15.5 -27t34.5 -19.5t34.5 -25t15.5 -42.5q0 -67 -88 -67q-19 0 -39.5 3t-31.5 6z" />
<glyph unicode="&#xb9;" horiz-adv-x="200" d="M104 380v409h-79v23h105v-432h-26z" />
<glyph unicode="&#xba;" horiz-adv-x="321" d="M162 258q-69 0 -96.5 35.5t-27.5 119.5q0 85 28 125.5t96 40.5q66 0 94 -40.5t28 -125.5q0 -84 -27.5 -119.5t-94.5 -35.5zM162 280q53 0 74.5 30t21.5 103q0 74 -22.5 109t-73.5 35q-53 0 -76 -35t-23 -109q0 -73 22.5 -103t76.5 -30z" />
<glyph unicode="&#xbb;" horiz-adv-x="427" d="M213 254l-99 -200h-28l99 200l-99 199h28zM354 254l-99 -200h-28l99 200l-99 199h28z" />
<glyph unicode="&#xbc;" horiz-adv-x="582" d="M104 265v409h-79v23h105v-432h-26zM304 128l-5 23l148 285l23 -9l-61 -118l-83 -158h194l1 110h25v-261h-26v128h-216zM82 -22l344 740h26l-344 -740h-26z" />
<glyph unicode="&#xbd;" horiz-adv-x="638" d="M104 265v409h-79v23h105v-432h-26zM362 0v80q0 55 24 81.5t79 50.5l24 11q50 22 69 43t19 70q0 45 -19 61.5t-69 16.5q-43 0 -100 -15l-6 22q60 17 105 17q62 0 88.5 -23t26.5 -79q0 -57 -23 -83t-80 -51l-25 -11q-46 -20 -66.5 -43.5t-20.5 -70.5v-54h213v-23h-239z M82 -22l344 740h26l-344 -740h-26z" />
<glyph unicode="&#xbe;" horiz-adv-x="656" d="M14 281l6 21q53 -19 107 -19q49 0 73.5 24.5t24.5 82.5q0 55 -27.5 75t-76.5 20h-47v22l48 1q98 0 98 90q0 48 -23.5 64.5t-66.5 16.5q-47 0 -101 -18l-6 20q57 22 108 22q55 0 85 -22t30 -82q0 -47 -20.5 -71t-47.5 -30q20 -6 33.5 -14t26.5 -32.5t13 -62.5 q-1 -68 -31.5 -98.5t-91.5 -30.5q-62 0 -114 21zM378 128l-4 23l148 285l22 -9l-61 -118l-83 -158h194l2 110h24v-261h-26v128h-216zM157 -22l344 740h26l-344 -740h-26z" />
<glyph unicode="&#xbf;" horiz-adv-x="413" d="M246 356v-70q0 -73 -11.5 -104t-52.5 -69l-55 -52q-49 -46 -49 -116q0 -74 38 -99.5t114 -25.5q59 0 130 19l4 -23q-56 -21 -138 -21q-88 0 -132.5 32.5t-44.5 118.5q0 79 56 132l60 57q35 33 44 60t9 94v67h28zM246 501v-75h-28v75h28z" />
<glyph unicode="&#xc0;" horiz-adv-x="514" d="M23 0l213 697h43l212 -697h-30l-60 195h-290l-58 -195h-30zM118 221h277l-137 451h-2zM244 748l-57 125h30l54 -125h-27z" />
<glyph unicode="&#xc1;" horiz-adv-x="514" d="M23 0l213 697h43l212 -697h-30l-60 195h-290l-58 -195h-30zM118 221h277l-137 451h-2zM327 874l-57 -126h-27l54 126h30z" />
<glyph unicode="&#xc2;" horiz-adv-x="514" d="M23 0l213 697h43l212 -697h-30l-60 195h-290l-58 -195h-30zM118 221h277l-137 451h-2zM135 748l115 126h14l117 -126h-31l-93 100l-90 -100h-32z" />
<glyph unicode="&#xc3;" horiz-adv-x="514" d="M23 0l213 697h43l212 -697h-30l-60 195h-290l-58 -195h-30zM118 221h277l-137 451h-2zM165 764l-13 15q24 25 54 25q23 0 54 -19t49 -19q23 0 41 19l13 -15q-23 -27 -54 -27q-23 0 -54.5 19t-49.5 19q-20 0 -40 -17z" />
<glyph unicode="&#xc4;" horiz-adv-x="514" d="M23 0l213 697h43l212 -697h-30l-60 195h-290l-58 -195h-30zM118 221h277l-137 451h-2zM185 748h-32v75h32v-75zM361 748h-32v75h32v-75z" />
<glyph unicode="&#xc5;" horiz-adv-x="514" d="M23 0l213 697h43l212 -697h-30l-60 195h-290l-58 -195h-30zM118 221h277l-137 451h-2zM161 836q0 45 26 71t70 26t70 -26t26 -71q0 -44 -26 -70t-70 -26t-70 26t-26 70zM182 836q0 -35 20.5 -55.5t54.5 -20.5t54.5 20.5t20.5 55.5t-20.5 56t-54.5 21t-54.5 -21t-20.5 -56 z" />
<glyph unicode="&#xc6;" horiz-adv-x="739" d="M451 0l-52 195h-289l-67 -195h-30l239 697h434v-26h-384l78 -295h248v-26h-241l87 -324h221v-26h-244zM118 221h275l-119 451h-2z" />
<glyph unicode="&#xc7;" horiz-adv-x="468" d="M182 -216l5 21q39 -11 75 -11q66 0 66 45q0 20 -15.5 34.5t-34.5 21.5t-34.5 21.5t-15.5 34.5q0 22 14 44q-94 15 -136 96t-42 255q0 193 52 276.5t175 83.5q69 0 130 -16l-5 -24q-60 14 -125 14q-107 0 -152.5 -74.5t-45.5 -259.5q0 -182 46 -255.5t156 -73.5 q62 0 124 20l5 -25q-50 -21 -128 -21q-22 0 -32 1q-12 -18 -12 -39q0 -15 15.5 -27t34.5 -19.5t34.5 -25t15.5 -42.5q0 -67 -88 -67q-19 0 -39.5 3t-31.5 6z" />
<glyph unicode="&#xc8;" d="M93 0v697h342v-26h-313v-295h256v-26h-256v-324h323v-26h-352zM253 748l-57 125h30l54 -125h-27z" />
<glyph unicode="&#xc9;" d="M93 0v697h342v-26h-313v-295h256v-26h-256v-324h323v-26h-352zM336 874l-57 -126h-27l54 126h30z" />
<glyph unicode="&#xca;" d="M93 0v697h342v-26h-313v-295h256v-26h-256v-324h323v-26h-352zM144 748l115 126h14l117 -126h-31l-93 100l-90 -100h-32z" />
<glyph unicode="&#xcb;" d="M93 0v697h342v-26h-313v-295h256v-26h-256v-324h323v-26h-352zM194 748h-32v75h32v-75zM370 748h-32v75h32v-75z" />
<glyph unicode="&#xcc;" horiz-adv-x="215" d="M93 0v697h29v-697h-29zM95 748l-57 125h30l54 -125h-27z" />
<glyph unicode="&#xcd;" horiz-adv-x="215" d="M93 0v697h29v-697h-29zM177 874l-57 -126h-27l54 126h30z" />
<glyph unicode="&#xce;" horiz-adv-x="215" d="M93 0v697h29v-697h-29zM-15 748l115 126h14l117 -126h-31l-93 100l-90 -100h-32z" />
<glyph unicode="&#xcf;" horiz-adv-x="215" d="M93 0v697h29v-697h-29zM36 748h-32v75h32v-75zM212 748h-32v75h32v-75z" />
<glyph unicode="&#xd0;" horiz-adv-x="557" d="M26 352v23h67v322h87q63 0 103 -4t78.5 -16t60.5 -35t39.5 -62t24.5 -95.5t7 -135.5t-7.5 -136t-26.5 -96t-42 -62t-63 -35t-80 -16t-103 -4h-78v352h-67zM122 26h50q43 0 71.5 1.5t60 6.5t51 14.5t39.5 25.5t31.5 39.5t21 57t13.5 77.5t4 101t-3.5 100.5t-12 77t-19 57 t-30 39.5t-38.5 25.5t-50 14.5t-60 6.5t-73 1.5h-56v-296h136v-23h-136v-326z" />
<glyph unicode="&#xd1;" horiz-adv-x="605" d="M93 0v697h43q144 -275 231 -442.5t102 -197.5l15 -30h1q-1 78 -1 146v524h28v-697h-43q-143 272 -230 439.5t-102 198.5l-15 32h-2q1 -83 1 -162v-508h-28zM209 764l-13 15q24 25 54 25q23 0 54 -19t49 -19q23 0 41 19l13 -15q-23 -27 -54 -27q-23 0 -54.5 19t-49.5 19 q-20 0 -40 -17z" />
<glyph unicode="&#xd2;" horiz-adv-x="575" d="M64 349q0 192 52 276t173 84q120 0 171 -84t51 -276q0 -193 -52 -277t-173 -84q-120 0 -171 84t-51 277zM288 14q106 0 150 77t44 258t-44 257.5t-150 76.5q-107 0 -151 -76.5t-44 -257.5t44 -258t151 -77zM276 748l-57 125h30l54 -125h-27z" />
<glyph unicode="&#xd3;" horiz-adv-x="575" d="M64 349q0 192 52 276t173 84q120 0 171 -84t51 -276q0 -193 -52 -277t-173 -84q-120 0 -171 84t-51 277zM288 14q106 0 150 77t44 258t-44 257.5t-150 76.5q-107 0 -151 -76.5t-44 -257.5t44 -258t151 -77zM358 874l-57 -126h-27l54 126h30z" />
<glyph unicode="&#xd4;" horiz-adv-x="575" d="M64 349q0 192 52 276t173 84q120 0 171 -84t51 -276q0 -193 -52 -277t-173 -84q-120 0 -171 84t-51 277zM288 14q106 0 150 77t44 258t-44 257.5t-150 76.5q-107 0 -151 -76.5t-44 -257.5t44 -258t151 -77zM166 748l115 126h14l117 -126h-31l-93 100l-90 -100h-32z" />
<glyph unicode="&#xd5;" horiz-adv-x="575" d="M64 349q0 192 52 276t173 84q120 0 171 -84t51 -276q0 -193 -52 -277t-173 -84q-120 0 -171 84t-51 277zM288 14q106 0 150 77t44 258t-44 257.5t-150 76.5q-107 0 -151 -76.5t-44 -257.5t44 -258t151 -77zM197 764l-13 15q24 25 54 25q23 0 54 -19t49 -19q23 0 41 19 l13 -15q-23 -27 -54 -27q-23 0 -54.5 19t-49.5 19q-20 0 -40 -17z" />
<glyph unicode="&#xd6;" horiz-adv-x="575" d="M64 349q0 192 52 276t173 84q120 0 171 -84t51 -276q0 -193 -52 -277t-173 -84q-120 0 -171 84t-51 277zM288 14q106 0 150 77t44 258t-44 257.5t-150 76.5q-107 0 -151 -76.5t-44 -257.5t44 -258t151 -77zM217 748h-32v75h32v-75zM393 748h-32v75h32v-75z" />
<glyph unicode="&#xd7;" horiz-adv-x="515" d="M92 127l-17 16l167 168l-168 166l18 16l167 -166l164 166l17 -17l-164 -165l163 -164l-17 -17l-163 164z" />
<glyph unicode="&#xd8;" horiz-adv-x="575" d="M64 349q0 192 52 276t173 84q100 0 152 -59l44 78l19 -11l-48 -87q55 -84 55 -281q0 -193 -52 -277t-173 -84q-103 0 -153 59l-42 -77l-19 12l46 84q-54 82 -54 283zM288 14q106 0 150 77t44 258t-44 256q-115 -209 -129 -239l-159 -295q45 -57 138 -57zM136 92 q95 173 117 217l172 316q-45 58 -137 58q-107 0 -151 -76.5t-44 -257.5q0 -182 43 -257z" />
<glyph unicode="&#xd9;" horiz-adv-x="572" d="M86 171v526h29v-525q0 -82 41.5 -120t129.5 -38t129.5 38t41.5 120v525h29v-526q0 -183 -200 -183q-101 0 -150.5 44.5t-49.5 138.5zM273 748l-57 125h30l54 -125h-27z" />
<glyph unicode="&#xda;" horiz-adv-x="572" d="M86 171v526h29v-525q0 -82 41.5 -120t129.5 -38t129.5 38t41.5 120v525h29v-526q0 -183 -200 -183q-101 0 -150.5 44.5t-49.5 138.5zM356 874l-57 -126h-27l54 126h30z" />
<glyph unicode="&#xdb;" horiz-adv-x="572" d="M86 171v526h29v-525q0 -82 41.5 -120t129.5 -38t129.5 38t41.5 120v525h29v-526q0 -183 -200 -183q-101 0 -150.5 44.5t-49.5 138.5zM164 748l115 126h14l117 -126h-31l-93 100l-90 -100h-32z" />
<glyph unicode="&#xdc;" horiz-adv-x="572" d="M86 171v526h29v-525q0 -82 41.5 -120t129.5 -38t129.5 38t41.5 120v525h29v-526q0 -183 -200 -183q-101 0 -150.5 44.5t-49.5 138.5zM214 748h-32v75h32v-75zM390 748h-32v75h32v-75z" />
<glyph unicode="&#xdd;" horiz-adv-x="470" d="M220 0v305l-218 392h32l154 -278q45 -82 46 -86h2q3 7 46 86l155 278h30l-218 -392v-305h-29zM305 874l-57 -126h-27l54 126h30z" />
<glyph unicode="&#xde;" horiz-adv-x="531" d="M93 0v697h29v-135h160q105 0 148 -40.5t43 -149.5q0 -193 -199 -193h-152v-179h-29zM122 205h152q87 0 128.5 38.5t41.5 128.5q0 96 -35.5 130t-126.5 34h-160v-331z" />
<glyph unicode="&#xdf;" horiz-adv-x="520" d="M86 0v496q0 84 37 131t131 47q76 0 118 -33.5t42 -88.5q0 -38 -19 -71t-38 -62t-19 -57q0 -24 15 -44.5t36 -37t42 -35.5t36 -49.5t15 -69.5q0 -70 -31.5 -101t-100.5 -31q-37 0 -74 8l6 25q45 -8 67 -8q55 0 80 25t25 82q0 35 -15 62.5t-36 45t-42.5 34.5t-36.5 40 t-15 53q0 38 38 93t38 98q0 42 -33.5 69t-97.5 27q-82 0 -110.5 -40.5t-28.5 -113.5v-494h-29z" />
<glyph unicode="&#xe0;" d="M407 0h-26l-1 67h-1q-91 -76 -188 -76q-63 0 -97.5 32t-34.5 107v8q0 77 38.5 112t107.5 45q54 9 173 11v21q0 90 -30.5 120t-93.5 30q-85 0 -169 -30l-6 24q84 32 176 32q36 0 61 -6.5t47 -24.5t33 -54t11 -90v-328zM378 95v187q-112 -2 -174 -12q-61 -11 -89 -42 t-28 -94q0 -68 28 -93t80 -25q92 0 183 79zM242 577l-57 125h30l54 -125h-27z" />
<glyph unicode="&#xe1;" d="M407 0h-26l-1 67h-1q-91 -76 -188 -76q-63 0 -97.5 32t-34.5 107v8q0 77 38.5 112t107.5 45q54 9 173 11v21q0 90 -30.5 120t-93.5 30q-85 0 -169 -30l-6 24q84 32 176 32q36 0 61 -6.5t47 -24.5t33 -54t11 -90v-328zM378 95v187q-112 -2 -174 -12q-61 -11 -89 -42 t-28 -94q0 -68 28 -93t80 -25q92 0 183 79zM324 703l-57 -126h-27l54 126h30z" />
<glyph unicode="&#xe2;" d="M407 0h-26l-1 67h-1q-91 -76 -188 -76q-63 0 -97.5 32t-34.5 107v8q0 77 38.5 112t107.5 45q54 9 173 11v21q0 90 -30.5 120t-93.5 30q-85 0 -169 -30l-6 24q84 32 176 32q36 0 61 -6.5t47 -24.5t33 -54t11 -90v-328zM378 95v187q-112 -2 -174 -12q-61 -11 -89 -42 t-28 -94q0 -68 28 -93t80 -25q92 0 183 79zM132 577l115 126h14l117 -126h-31l-93 100l-90 -100h-32z" />
<glyph unicode="&#xe3;" d="M407 0h-26l-1 67h-1q-91 -76 -188 -76q-63 0 -97.5 32t-34.5 107v8q0 77 38.5 112t107.5 45q54 9 173 11v21q0 90 -30.5 120t-93.5 30q-85 0 -169 -30l-6 24q84 32 176 32q36 0 61 -6.5t47 -24.5t33 -54t11 -90v-328zM378 95v187q-112 -2 -174 -12q-61 -11 -89 -42 t-28 -94q0 -68 28 -93t80 -25q92 0 183 79zM163 593l-13 15q24 25 54 25q23 0 54 -19t49 -19q23 0 41 19l13 -15q-23 -27 -54 -27q-23 0 -54.5 19t-49.5 19q-20 0 -40 -17z" />
<glyph unicode="&#xe4;" d="M407 0h-26l-1 67h-1q-91 -76 -188 -76q-63 0 -97.5 32t-34.5 107v8q0 77 38.5 112t107.5 45q54 9 173 11v21q0 90 -30.5 120t-93.5 30q-85 0 -169 -30l-6 24q84 32 176 32q36 0 61 -6.5t47 -24.5t33 -54t11 -90v-328zM378 95v187q-112 -2 -174 -12q-61 -11 -89 -42 t-28 -94q0 -68 28 -93t80 -25q92 0 183 79zM183 577h-32v75h32v-75zM359 577h-32v75h32v-75z" />
<glyph unicode="&#xe5;" d="M407 0h-26l-1 67h-1q-91 -76 -188 -76q-63 0 -97.5 32t-34.5 107v8q0 77 38.5 112t107.5 45q54 9 173 11v21q0 90 -30.5 120t-93.5 30q-85 0 -169 -30l-6 24q84 32 176 32q36 0 61 -6.5t47 -24.5t33 -54t11 -90v-328zM378 95v187q-112 -2 -174 -12q-61 -11 -89 -42 t-28 -94q0 -68 28 -93t80 -25q92 0 183 79zM159 665q0 45 26 71t70 26t70 -26t26 -71q0 -44 -26 -70t-70 -26t-70 26t-26 70zM180 665q0 -35 20.5 -55.5t54.5 -20.5t54.5 20.5t20.5 55.5t-20.5 56t-54.5 21t-54.5 -21t-20.5 -56z" />
<glyph unicode="&#xe6;" horiz-adv-x="810" d="M256 503q67 0 104.5 -25.5t47.5 -96.5q33 125 174 125q78 0 125 -38t47 -108q0 -69 -28.5 -92.5t-103.5 -23.5q-46 0 -96.5 7t-75 13t-34.5 9q-1 -14 -1 -36q0 -71 12.5 -117t37 -67.5t50 -28.5t62.5 -7q81 0 156 26l6 -24q-70 -28 -165 -28q-64 0 -106 23t-62 81 q-40 -50 -97.5 -77t-117.5 -27q-132 0 -132 139v8q0 78 39 112.5t108 44.5q51 9 183 11l-1 21q-2 48 -11 78t-27.5 45.5t-40 21t-55.5 5.5q-79 0 -169 -30l-6 24q84 32 177 32zM387 239v43q-130 -2 -182 -12q-62 -11 -90 -42t-28 -94q0 -68 28 -93t79 -25q58 0 113 28t91 78 q-11 50 -11 117zM418 298q120 -30 199 -30q64 0 86.5 18t22.5 74q0 55 -38 88t-105 33q-78 0 -118 -42.5t-47 -140.5z" />
<glyph unicode="&#xe7;" horiz-adv-x="399" d="M135 -216l5 21q39 -11 75 -11q66 0 66 45q0 20 -15.5 34.5t-34.5 21.5t-34.5 21.5t-15.5 34.5q0 22 14 44q-73 13 -105 70.5t-32 172.5q0 134 44.5 199.5t143.5 65.5q46 0 106 -15l-6 -25q-60 14 -99 14q-84 0 -122 -58t-38 -181q0 -121 36.5 -171t123.5 -50q45 0 101 14 l7 -24q-55 -16 -108 -16q-21 0 -30 1q-12 -18 -12 -39q0 -15 15.5 -27t34.5 -19.5t34.5 -25t15.5 -42.5q0 -67 -88 -67q-19 0 -39.5 3t-31.5 6z" />
<glyph unicode="&#xe8;" horiz-adv-x="481" d="M58 239q0 147 48.5 207t147.5 60q78 0 125 -38t47 -108q0 -67 -27 -91.5t-106 -24.5q-46 0 -96.5 7t-74.5 13t-34 9q-1 -10 -1 -36q0 -71 12 -117t36.5 -67.5t49.5 -28.5t63 -7q79 0 157 26l5 -24q-74 -28 -164 -28q-46 0 -78 10.5t-58 37t-39 76t-13 124.5zM89 298 l11 -3q10 -3 22.5 -6t32.5 -7t39.5 -7t45 -5t48.5 -2q68 0 88.5 19.5t20.5 72.5q0 55 -38 88t-105 33q-78 0 -118 -42.5t-47 -140.5zM239 577l-57 125h30l54 -125h-27z" />
<glyph unicode="&#xe9;" horiz-adv-x="481" d="M58 239q0 147 48.5 207t147.5 60q78 0 125 -38t47 -108q0 -67 -27 -91.5t-106 -24.5q-46 0 -96.5 7t-74.5 13t-34 9q-1 -10 -1 -36q0 -71 12 -117t36.5 -67.5t49.5 -28.5t63 -7q79 0 157 26l5 -24q-74 -28 -164 -28q-46 0 -78 10.5t-58 37t-39 76t-13 124.5zM89 298 l11 -3q10 -3 22.5 -6t32.5 -7t39.5 -7t45 -5t48.5 -2q68 0 88.5 19.5t20.5 72.5q0 55 -38 88t-105 33q-78 0 -118 -42.5t-47 -140.5zM322 703l-57 -126h-27l54 126h30z" />
<glyph unicode="&#xea;" horiz-adv-x="481" d="M58 239q0 147 48.5 207t147.5 60q78 0 125 -38t47 -108q0 -67 -27 -91.5t-106 -24.5q-46 0 -96.5 7t-74.5 13t-34 9q-1 -10 -1 -36q0 -71 12 -117t36.5 -67.5t49.5 -28.5t63 -7q79 0 157 26l5 -24q-74 -28 -164 -28q-46 0 -78 10.5t-58 37t-39 76t-13 124.5zM89 298 l11 -3q10 -3 22.5 -6t32.5 -7t39.5 -7t45 -5t48.5 -2q68 0 88.5 19.5t20.5 72.5q0 55 -38 88t-105 33q-78 0 -118 -42.5t-47 -140.5zM130 577l115 126h14l117 -126h-31l-93 100l-90 -100h-32z" />
<glyph unicode="&#xeb;" horiz-adv-x="481" d="M58 239q0 147 48.5 207t147.5 60q78 0 125 -38t47 -108q0 -67 -27 -91.5t-106 -24.5q-46 0 -96.5 7t-74.5 13t-34 9q-1 -10 -1 -36q0 -71 12 -117t36.5 -67.5t49.5 -28.5t63 -7q79 0 157 26l5 -24q-74 -28 -164 -28q-46 0 -78 10.5t-58 37t-39 76t-13 124.5zM89 298 l11 -3q10 -3 22.5 -6t32.5 -7t39.5 -7t45 -5t48.5 -2q68 0 88.5 19.5t20.5 72.5q0 55 -38 88t-105 33q-78 0 -118 -42.5t-47 -140.5zM180 577h-32v75h32v-75zM356 577h-32v75h32v-75z" />
<glyph unicode="&#xec;" horiz-adv-x="206" d="M89 0v494h29v-494h-29zM91 577l-57 125h30l54 -125h-27z" />
<glyph unicode="&#xed;" horiz-adv-x="206" d="M89 0v494h29v-494h-29zM173 703l-57 -126h-27l54 126h30z" />
<glyph unicode="&#xee;" horiz-adv-x="206" d="M89 0v494h29v-494h-29zM-19 577l115 126h14l117 -126h-31l-93 100l-90 -100h-32z" />
<glyph unicode="&#xef;" horiz-adv-x="206" d="M89 0v494h29v-494h-29zM207 577h-32v75h32v-75zM31 577h-32v75h32v-75z" />
<glyph unicode="&#xf0;" horiz-adv-x="495" d="M364 654l-67 -32q47 -37 77 -81.5t42.5 -97.5t16.5 -96t4 -107q0 -134 -44.5 -193t-147.5 -59q-102 0 -144.5 58.5t-42.5 193.5t46 199t144 64q39 0 76.5 -11t56.5 -24l-6 12q-6 13 -9 18t-10.5 18t-15 22.5t-18 22t-24 25t-28.5 24.5l-133 -63l-9 19l123 58 q-42 30 -112 59l9 22q73 -29 129 -68l77 36zM408 240q0 132 -20 200q-61 38 -138 39q-86 1 -124.5 -56.5t-38.5 -182.5q0 -123 36 -174.5t122 -51.5q88 0 125.5 51.5t37.5 174.5z" />
<glyph unicode="&#xf1;" horiz-adv-x="521" d="M86 0v494h27v-67h2q91 76 188 76q134 0 134 -142v-361h-29v359q0 69 -29.5 93.5t-79.5 24.5q-92 0 -184 -79v-398h-29zM170 593l-13 15q24 25 54 25q23 0 54 -19t49 -19q23 0 41 19l13 -15q-23 -27 -54 -27q-23 0 -54.5 19t-49.5 19q-20 0 -40 -17z" />
<glyph unicode="&#xf2;" horiz-adv-x="502" d="M251 -12q-106 0 -149.5 57t-43.5 192q0 137 46 203t149 66q102 0 146.5 -65.5t44.5 -203.5q0 -134 -44.5 -191.5t-148.5 -57.5zM252 14q89 0 126 50.5t37 172.5q0 126 -37.5 184.5t-125.5 58.5t-126.5 -58.5t-38.5 -184.5q0 -123 37.5 -173t127.5 -50zM241 577l-57 125 h30l54 -125h-27z" />
<glyph unicode="&#xf3;" horiz-adv-x="502" d="M251 -12q-106 0 -149.5 57t-43.5 192q0 137 46 203t149 66q102 0 146.5 -65.5t44.5 -203.5q0 -134 -44.5 -191.5t-148.5 -57.5zM252 14q89 0 126 50.5t37 172.5q0 126 -37.5 184.5t-125.5 58.5t-126.5 -58.5t-38.5 -184.5q0 -123 37.5 -173t127.5 -50zM324 703l-57 -126 h-27l54 126h30z" />
<glyph unicode="&#xf4;" horiz-adv-x="502" d="M251 -12q-106 0 -149.5 57t-43.5 192q0 137 46 203t149 66q102 0 146.5 -65.5t44.5 -203.5q0 -134 -44.5 -191.5t-148.5 -57.5zM252 14q89 0 126 50.5t37 172.5q0 126 -37.5 184.5t-125.5 58.5t-126.5 -58.5t-38.5 -184.5q0 -123 37.5 -173t127.5 -50zM131 577l115 126 h14l117 -126h-31l-93 100l-90 -100h-32z" />
<glyph unicode="&#xf5;" horiz-adv-x="502" d="M251 -12q-106 0 -149.5 57t-43.5 192q0 137 46 203t149 66q102 0 146.5 -65.5t44.5 -203.5q0 -134 -44.5 -191.5t-148.5 -57.5zM252 14q89 0 126 50.5t37 172.5q0 126 -37.5 184.5t-125.5 58.5t-126.5 -58.5t-38.5 -184.5q0 -123 37.5 -173t127.5 -50zM162 593l-13 15 q24 25 54 25q23 0 54 -19t49 -19q23 0 41 19l13 -15q-23 -27 -54 -27q-23 0 -54.5 19t-49.5 19q-20 0 -40 -17z" />
<glyph unicode="&#xf6;" horiz-adv-x="502" d="M251 -12q-106 0 -149.5 57t-43.5 192q0 137 46 203t149 66q102 0 146.5 -65.5t44.5 -203.5q0 -134 -44.5 -191.5t-148.5 -57.5zM252 14q89 0 126 50.5t37 172.5q0 126 -37.5 184.5t-125.5 58.5t-126.5 -58.5t-38.5 -184.5q0 -123 37.5 -173t127.5 -50zM182 577h-32v75h32 v-75zM358 577h-32v75h32v-75z" />
<glyph unicode="&#xf7;" horiz-adv-x="515" d="M240 465v37h32v-37h-32zM240 125v36h32v-36h-32zM71 301v24h372v-24h-372z" />
<glyph unicode="&#xf8;" horiz-adv-x="502" d="M251 -12q-88 0 -133 39l-37 -57l-20 13l42 61q-45 56 -45 193t46 203t149 66q82 0 128 -44l40 59l20 -12l-44 -66q47 -64 47 -206q0 -134 -44.5 -191.5t-148.5 -57.5zM252 14q89 0 126 50.5t37 172.5q0 126 -37 183q-15 -21 -69 -103t-65 -100l-109 -165q37 -38 117 -38z M121 68q109 164 131 199l113 170q-39 43 -113 43q-88 0 -126.5 -58.5t-38.5 -184.5q0 -119 34 -169z" />
<glyph unicode="&#xf9;" horiz-adv-x="521" d="M84 494h29v-360q0 -69 30 -93t80 -24q91 0 183 79v398h29v-494h-27v67h-1q-93 -76 -188 -76q-59 0 -97 30t-38 112v361zM245 577l-57 125h30l54 -125h-27z" />
<glyph unicode="&#xfa;" horiz-adv-x="521" d="M84 494h29v-360q0 -69 30 -93t80 -24q91 0 183 79v398h29v-494h-27v67h-1q-93 -76 -188 -76q-59 0 -97 30t-38 112v361zM328 703l-57 -126h-27l54 126h30z" />
<glyph unicode="&#xfb;" horiz-adv-x="521" d="M84 494h29v-360q0 -69 30 -93t80 -24q91 0 183 79v398h29v-494h-27v67h-1q-93 -76 -188 -76q-59 0 -97 30t-38 112v361zM135 577l115 126h14l117 -126h-31l-93 100l-90 -100h-32z" />
<glyph unicode="&#xfc;" horiz-adv-x="521" d="M84 494h29v-360q0 -69 30 -93t80 -24q91 0 183 79v398h29v-494h-27v67h-1q-93 -76 -188 -76q-59 0 -97 30t-38 112v361zM362 577h-32v75h32v-75zM186 577h-32v75h32v-75z" />
<glyph unicode="&#xfd;" horiz-adv-x="519" d="M216 0q-27 0 -48 5.5t-42 19.5t-32.5 44t-11.5 74v351h29v-350q0 -69 30 -93.5t79 -24.5q97 0 183 75v393h29v-514q0 -89 -31 -127t-87 -57q-47 -16 -124 -29l-5 25q89 18 120 29q23 9 36.5 16.5t30 24.5t24.5 46.5t8 71.5l1 92h-1q-86 -72 -188 -72zM320 703l-57 -126 h-27l54 126h30z" />
<glyph unicode="&#xfe;" horiz-adv-x="504" d="M86 722h29v-214v-25t-0.5 -22t-0.5 -16.5v-12.5v-4h1q92 75 180 75q29 0 49.5 -4.5t41 -19.5t33 -40.5t20 -69.5t7.5 -105q0 -71 -10.5 -121.5t-27 -79.5t-43 -45.5t-51.5 -21.5t-60 -5q-72 0 -140 25v-12.5t0.5 -27.5t0.5 -36v-163h-29v945zM254 17q29 0 48.5 3.5 t43 17.5t38 39t24 72t9.5 112q0 57 -6.5 97t-16.5 63t-27 36t-34 16.5t-41 3.5q-87 0 -177 -79v-352q64 -29 139 -29z" />
<glyph unicode="&#xff;" horiz-adv-x="519" d="M216 0q-27 0 -48 5.5t-42 19.5t-32.5 44t-11.5 74v351h29v-350q0 -69 30 -93.5t79 -24.5q97 0 183 75v393h29v-514q0 -89 -31 -127t-87 -57q-47 -16 -124 -29l-5 25q89 18 120 29q23 9 36.5 16.5t30 24.5t24.5 46.5t8 71.5l1 92h-1q-86 -72 -188 -72zM354 577h-32v75h32 v-75zM178 577h-32v75h32v-75z" />
<glyph unicode="&#x152;" horiz-adv-x="805" d="M64 349q0 192 51.5 276t171.5 84q73 0 123 -34v22h342v-26h-313v-295h256v-26h-256v-324h322v-26h-351v23q-48 -35 -125 -35q-120 0 -170.5 84t-50.5 277zM289 14q78 0 121 38v591q-44 40 -123 40q-106 0 -150 -76.5t-44 -257.5t44 -258t152 -77z" />
<glyph unicode="&#x153;" horiz-adv-x="831" d="M248 -12q-103 0 -146.5 57.5t-43.5 191.5q0 137 44.5 203t145.5 66q143 0 174 -146q17 78 61.5 112t118.5 34q79 0 126.5 -38t47.5 -108q0 -68 -28.5 -92t-103.5 -24q-21 0 -43.5 1.5t-42 4t-37 5.5t-32 6t-25 5.5t-18 4.5t-8.5 2q-1 -13 -1 -36q0 -71 12 -117 t36.5 -67.5t49.5 -28.5t63 -7q79 0 157 26l5 -24q-74 -28 -164 -28q-71 0 -114 29t-60 102q-15 -68 -56.5 -101t-117.5 -33zM248 14q88 0 124 50t36 173q0 126 -37 184.5t-123 58.5t-123.5 -58.5t-37.5 -184.5q0 -122 37 -172.5t124 -50.5zM439 298l11 -3q10 -3 22.5 -6 t32.5 -7t39.5 -7t45 -5t48.5 -2q68 0 88.5 19.5t20.5 72.5q0 55 -38 88t-105 33q-78 0 -118 -42.5t-47 -140.5z" />
<glyph unicode="&#x178;" horiz-adv-x="470" d="M220 0v305l-218 392h32l154 -278q45 -82 46 -86h2q3 7 46 86l155 278h30l-218 -392v-305h-29zM163 748h-32v75h32v-75zM339 748h-32v75h32v-75z" />
<glyph unicode="&#x2c6;" horiz-adv-x="311" d="M32 640l115 126h14l117 -126h-31l-93 100l-90 -100h-32z" />
<glyph unicode="&#x2dc;" horiz-adv-x="513" d="M168 716l-13 15q24 25 54 25q23 0 54 -19t49 -19q23 0 41 19l13 -15q-23 -27 -54 -27q-23 0 -54.5 19t-49.5 19q-20 0 -40 -17z" />
<glyph unicode="&#x1e9e;" horiz-adv-x="587" d="M85 0v520q0 94 43 140t157 46q100 0 201 -28v-26q-45 -54 -62 -76t-31.5 -59t-14.5 -81q0 -32 16 -57t39 -44t46 -40t39 -57.5t16 -86.5q0 -82 -37.5 -119.5t-118.5 -37.5q-47 0 -89 9l5 25q63 -9 84 -9q66 0 96.5 31t30.5 101q0 46 -16 79.5t-39 53.5t-46 38.5t-39 46.5 t-16 67q0 34 5.5 60t21 53t27.5 43t40 51q9 11 13 16q-78 22 -171 22q-100 0 -135.5 -41t-35.5 -120v-520h-29z" />
<glyph unicode="&#x2000;" horiz-adv-x="466" />
<glyph unicode="&#x2001;" horiz-adv-x="933" />
<glyph unicode="&#x2002;" horiz-adv-x="466" />
<glyph unicode="&#x2003;" horiz-adv-x="933" />
<glyph unicode="&#x2004;" horiz-adv-x="311" />
<glyph unicode="&#x2005;" horiz-adv-x="233" />
<glyph unicode="&#x2006;" horiz-adv-x="155" />
<glyph unicode="&#x2007;" horiz-adv-x="155" />
<glyph unicode="&#x2008;" horiz-adv-x="116" />
<glyph unicode="&#x2009;" horiz-adv-x="186" />
<glyph unicode="&#x200a;" horiz-adv-x="51" />
<glyph unicode="&#x2010;" horiz-adv-x="367" d="M47 275v25h273v-25h-273z" />
<glyph unicode="&#x2011;" horiz-adv-x="367" d="M47 275v25h273v-25h-273z" />
<glyph unicode="&#x2012;" horiz-adv-x="367" d="M47 275v25h273v-25h-273z" />
<glyph unicode="&#x2013;" horiz-adv-x="506" d="M47 276v25h412v-25h-412z" />
<glyph unicode="&#x2014;" horiz-adv-x="1006" d="M47 276v25h912v-25h-912z" />
<glyph unicode="&#x2018;" horiz-adv-x="194" d="M108 722h29q-36 -74 -36 -177h-28q0 109 35 177z" />
<glyph unicode="&#x2019;" horiz-adv-x="194" d="M86 545h-29q36 74 36 177h28q0 -109 -35 -177z" />
<glyph unicode="&#x201a;" horiz-adv-x="194" d="M86 -102h-29q36 74 36 177h28q0 -109 -35 -177z" />
<glyph unicode="&#x201c;" horiz-adv-x="299" d="M213 722h29q-36 -74 -36 -177h-28q0 109 35 177zM108 722h29q-36 -74 -36 -177h-28q0 109 35 177z" />
<glyph unicode="&#x201d;" horiz-adv-x="299" d="M191 545h-29q36 74 36 177h28q0 -109 -35 -177zM86 545h-29q36 74 36 177h28q0 -109 -35 -177z" />
<glyph unicode="&#x201e;" horiz-adv-x="299" d="M191 -102h-29q36 74 36 177h28q0 -109 -35 -177zM86 -102h-29q36 74 36 177h28q0 -109 -35 -177z" />
<glyph unicode="&#x2022;" horiz-adv-x="211" d="M73 316v66h65v-66h-65z" />
<glyph unicode="&#x2026;" horiz-adv-x="616" d="M97 0v78h37v-78h-37zM290 0v78h37v-78h-37zM481 0v78h37v-78h-37z" />
<glyph unicode="&#x202f;" horiz-adv-x="186" />
<glyph unicode="&#x2039;" horiz-adv-x="286" d="M172 54l-99 200l99 199h28l-99 -199l99 -200h-28z" />
<glyph unicode="&#x203a;" horiz-adv-x="286" d="M213 254l-99 -200h-28l99 200l-99 199h28z" />
<glyph unicode="&#x205f;" horiz-adv-x="233" />
<glyph unicode="&#x20ac;" horiz-adv-x="555" d="M267 398h-106v-51v-44h106v-23h-105q4 -84 16.5 -137t36.5 -80t52 -36.5t70 -9.5q75 0 135 20l5 -25q-55 -21 -140 -21q-48 0 -80.5 10.5t-61 40.5t-43.5 88.5t-19 149.5h-56v23h55v44q0 35 1 51h-56v23h57q5 89 21.5 147t46.5 87.5t64 40t83 10.5q68 0 124 -16l-4 -24 q-58 14 -120 14q-43 0 -72.5 -9t-55.5 -35.5t-40.5 -79.5t-18.5 -135h105v-23z" />
<glyph unicode="&#x2116;" horiz-adv-x="901" d="M626 271v23h247v-23h-247zM750 357q-68 0 -96 35.5t-28 118.5q0 85 28.5 126t95.5 41q66 0 94 -41t28 -126q0 -83 -27.5 -118.5t-94.5 -35.5zM750 378q53 0 75 30.5t22 103.5t-22.5 108t-74.5 35t-75 -35t-23 -108t22.5 -103.5t75.5 -30.5zM89 0v697h43 q144 -275 231 -442.5t102 -197.5l15 -30h1q-1 78 -1 146v524h28v-697h-43q-143 272 -230 439.5t-102 198.5l-15 32h-2q1 -83 1 -162v-508h-28z" />
<glyph unicode="&#x2122;" horiz-adv-x="668" d="M589 348h-20l-14 248l-4 77h-1q-8 -24 -22 -62l-80 -203h-15l-80 200l-23 65h-1q-2 -40 -4 -78l-15 -247h-21l22 349h28l81 -205l20 -55h2q7 23 19 55l79 205h30zM130 348v330h-89v19h201v-19h-91v-330h-21z" />
<glyph unicode="&#x25fc;" horiz-adv-x="495" d="M0 495h495v-495h-495v495z" />
<glyph unicode="&#xfb06;" horiz-adv-x="741" d="M524 98v372h-74v24h74l2 169q-55 17 -107 17q-53 0 -83 -25t-30 -72q0 -67 56 -103l-6 -25q-82 22 -156 22q-59 0 -89 -18.5t-30 -68.5q0 -44 24.5 -65t88.5 -40l40 -13q81 -26 114.5 -56t33.5 -93q0 -74 -39 -103t-116 -29q-89 0 -189 31l6 25q105 -30 182 -30 q63 0 95 20.5t32 85.5q0 51 -28.5 76t-97.5 47l-41 13q-70 21 -101.5 47t-31.5 84q0 64 37.5 88.5t107.5 24.5q53 0 117 -12q-36 40 -36 94q0 57 36.5 87.5t101.5 30.5q74 0 136 -23l-1 -2h1v-184h154l-4 -24h-150v-371q0 -51 16 -65.5t52 -14.5q33 0 80 10l6 -24 q-42 -12 -90 -12t-70.5 20t-22.5 85z" />
<glyph horiz-adv-x="367" d="M47 331v25h273v-25h-273z" />
<glyph horiz-adv-x="506" d="M47 331v25h412v-25h-412z" />
<glyph horiz-adv-x="1006" d="M47 331v25h912v-25h-912z" />
<glyph horiz-adv-x="4" d="M-30 360v39h35v-39h-35z" />
<glyph horiz-adv-x="0" d="M-115 350v39h36v-39h-36z" />
<glyph horiz-adv-x="320" d="M238 -141h-26q-4 8 -11 22.5t-25 62.5t-31.5 99t-24.5 128.5t-11 153.5t10.5 150.5t25.5 126.5t30.5 93.5t26.5 62.5l10 20h26q-4 -7 -11 -21t-24.5 -60.5t-31 -96t-24.5 -124.5t-11 -151q0 -120 25.5 -236.5t50.5 -172.5z" />
<glyph horiz-adv-x="320" d="M108 -141h-26q4 8 11 22.5t24.5 63t31 99.5t24.5 128t11 153t-10.5 150.5t-25.5 126.5t-30 93.5t-26 62.5l-10 20h26q4 -7 11 -21t25 -60.5t31.5 -96t24.5 -124.5t11 -151t-10.5 -152.5t-25.5 -130.5t-30.5 -97t-26.5 -65z" />
<glyph horiz-adv-x="582" d="M501 474l5 -25l-80 -25q0 -1 15.5 -38.5t20.5 -50.5t15 -44.5t14 -56t4 -48.5q1 -97 -52.5 -147.5t-166.5 -50.5q-106 0 -160 50t-54 145q0 145 148 199v1q-120 33 -120 155q0 168 179 168q66 0 109 -13l-5 -24q-53 11 -102 11q-82 0 -117 -35.5t-35 -105.5 q0 -40 13.5 -68.5t37.5 -43t38.5 -20t35.5 -10.5q35 11 79.5 24.5t97.5 29t80 23.5zM399 416q-107 -30 -166 -52q-142 -50 -142 -181q0 -169 185 -169q191 0 191 172q0 76 -68 230z" />
<glyph horiz-adv-x="468" d="M419 37l5 -25q-50 -21 -128 -21q-124 0 -178 80t-54 275q0 193 52 276.5t175 83.5q69 0 130 -16l-5 -24q-60 14 -125 14q-107 0 -152.5 -74.5t-45.5 -259.5q0 -182 46 -255.5t156 -73.5q62 0 124 20zM243 -185h-29q3 2 6.5 6t14 17.5t15 27t8 35t-5.5 40.5h29 q9 -39 0.5 -67t-23.5 -44z" />
<glyph horiz-adv-x="575" d="M64 349q0 192 52 276t173 84q120 0 171 -84t51 -276q0 -193 -52 -277t-173 -84q-120 0 -171 84t-51 277zM288 14q106 0 150 77t44 258t-44 257.5t-150 76.5q-107 0 -151 -76.5t-44 -257.5t44 -258t151 -77zM339 874l-37 -126h-26l34 126h29z" />
<glyph horiz-adv-x="516" d="M58 230q0 71 10 121.5t26.5 79.5t42.5 45.5t51.5 21.5t60.5 5q90 0 168 -38v-367q0 -53 20 -68.5t68 -0.5l6 -22q-28 -10 -51 -10q-57 0 -68 71h-2q-92 -77 -181 -77q-37 0 -61 8t-46.5 32t-33 73.5t-10.5 125.5zM249 477q-30 0 -50 -3.5t-43 -17.5t-37 -39.5t-23 -71.5 t-9 -112q0 -71 8.5 -115.5t27 -66t38.5 -28t51 -6.5q85 0 176 78v352q-63 30 -139 30z" />
<glyph horiz-adv-x="484" d="M58 239q0 145 48.5 206t150.5 61q91 0 129.5 -42.5t40.5 -123.5q1 -35 -5 -83h-335q-4 -135 33.5 -187.5t127.5 -52.5q79 0 157 26l5 -24q-74 -28 -164 -28q-102 0 -145 57t-43 191zM88 282h307q3 27 3 59q0 70 -33 105.5t-107 34.5q-85 -1 -124.5 -47t-45.5 -152z" />
<glyph horiz-adv-x="281" d="M132 494h146l-3 -24h-142v-550q0 -70 -20.5 -97t-64.5 -40q-1 0 -16.5 -4t-29.5 -7l-5 25q37 8 53 15q29 11 41.5 33.5t12.5 76.5v548h-80v24h80v105q0 75 28.5 102.5t85.5 27.5q48 0 90 -8l-4 -24q-60 6 -81 6q-48 0 -69.5 -21.5t-21.5 -84.5v-103z" />
<glyph horiz-adv-x="495" d="M197 85h91q84 0 134 -26t50 -94q0 -94 -75.5 -146t-172.5 -52q-190 0 -190 153q0 59 32 97.5t75 53.5q-21 5 -34 21t-13 37q0 54 85 70q-54 10 -84 49.5t-30 102.5q0 83 51.5 119t127.5 36q85 0 130 -40q24 16 89 36l8 -25q-58 -17 -79 -31q27 -37 27 -95 q0 -68 -46.5 -110.5t-133.5 -51.5q-68 -6 -92.5 -20.5t-24.5 -38.5q0 -45 75 -45zM283 60h-114q-106 -39 -106 -139q0 -128 161 -128q53 0 101.5 18t83 58.5t34.5 95.5q0 56 -43 75.5t-117 19.5zM391 351q0 130 -148 130q-29 0 -53.5 -6t-47.5 -19.5t-36 -40t-13 -64.5 q0 -136 140 -136q61 0 109.5 33.5t48.5 102.5z" />
<glyph horiz-adv-x="202" d="M86 0v722h29v-722h-29z" />
<glyph horiz-adv-x="303" d="M86 97v535l29 4v-142h152v-24h-152v-371q0 -51 16 -65.5t53 -14.5q53 0 79 10l6 -24q-42 -12 -90 -12t-70.5 20t-22.5 84z" />
<glyph horiz-adv-x="428" d="M43 -228l-5 25l41 9q37 9 54.5 26.5t33.5 62.5l38 107h-11l-173 492h29l108 -307q53 -151 55 -163h2q1 9 58 172l104 298h30l-214 -604q-19 -54 -39.5 -76t-67.5 -32z" />
<glyph horiz-adv-x="516" d="M58 230q0 71 10 121.5t26.5 79.5t42.5 45.5t51.5 21.5t60.5 5q90 0 168 -38v-367q0 -53 20 -68.5t68 -0.5l6 -22q-28 -10 -51 -10q-57 0 -68 71h-2q-92 -77 -181 -77q-37 0 -61 8t-46.5 32t-33 73.5t-10.5 125.5zM249 477q-30 0 -50 -3.5t-43 -17.5t-37 -39.5t-23 -71.5 t-9 -112q0 -71 8.5 -115.5t27 -66t38.5 -28t51 -6.5q85 0 176 78v352q-63 30 -139 30zM242 577l-57 125h30l54 -125h-27z" />
<glyph horiz-adv-x="516" d="M58 230q0 71 10 121.5t26.5 79.5t42.5 45.5t51.5 21.5t60.5 5q90 0 168 -38v-367q0 -53 20 -68.5t68 -0.5l6 -22q-28 -10 -51 -10q-57 0 -68 71h-2q-92 -77 -181 -77q-37 0 -61 8t-46.5 32t-33 73.5t-10.5 125.5zM249 477q-30 0 -50 -3.5t-43 -17.5t-37 -39.5t-23 -71.5 t-9 -112q0 -71 8.5 -115.5t27 -66t38.5 -28t51 -6.5q85 0 176 78v352q-63 30 -139 30zM325 703l-57 -126h-27l54 126h30z" />
<glyph horiz-adv-x="516" d="M58 230q0 71 10 121.5t26.5 79.5t42.5 45.5t51.5 21.5t60.5 5q90 0 168 -38v-367q0 -53 20 -68.5t68 -0.5l6 -22q-28 -10 -51 -10q-57 0 -68 71h-2q-92 -77 -181 -77q-37 0 -61 8t-46.5 32t-33 73.5t-10.5 125.5zM249 477q-30 0 -50 -3.5t-43 -17.5t-37 -39.5t-23 -71.5 t-9 -112q0 -71 8.5 -115.5t27 -66t38.5 -28t51 -6.5q85 0 176 78v352q-63 30 -139 30zM133 577l115 126h14l117 -126h-31l-93 100l-90 -100h-32z" />
<glyph horiz-adv-x="516" d="M58 230q0 71 10 121.5t26.5 79.5t42.5 45.5t51.5 21.5t60.5 5q90 0 168 -38v-367q0 -53 20 -68.5t68 -0.5l6 -22q-28 -10 -51 -10q-57 0 -68 71h-2q-92 -77 -181 -77q-37 0 -61 8t-46.5 32t-33 73.5t-10.5 125.5zM249 477q-30 0 -50 -3.5t-43 -17.5t-37 -39.5t-23 -71.5 t-9 -112q0 -71 8.5 -115.5t27 -66t38.5 -28t51 -6.5q85 0 176 78v352q-63 30 -139 30zM163 593l-13 15q24 25 54 25q23 0 54 -19t49 -19q23 0 41 19l13 -15q-23 -27 -54 -27q-23 0 -54.5 19t-49.5 19q-20 0 -40 -17z" />
<glyph horiz-adv-x="516" d="M58 230q0 71 10 121.5t26.5 79.5t42.5 45.5t51.5 21.5t60.5 5q90 0 168 -38v-367q0 -53 20 -68.5t68 -0.5l6 -22q-28 -10 -51 -10q-57 0 -68 71h-2q-92 -77 -181 -77q-37 0 -61 8t-46.5 32t-33 73.5t-10.5 125.5zM249 477q-30 0 -50 -3.5t-43 -17.5t-37 -39.5t-23 -71.5 t-9 -112q0 -71 8.5 -115.5t27 -66t38.5 -28t51 -6.5q85 0 176 78v352q-63 30 -139 30zM183 577h-32v75h32v-75zM359 577h-32v75h32v-75z" />
<glyph horiz-adv-x="516" d="M58 230q0 71 10 121.5t26.5 79.5t42.5 45.5t51.5 21.5t60.5 5q90 0 168 -38v-367q0 -53 20 -68.5t68 -0.5l6 -22q-28 -10 -51 -10q-57 0 -68 71h-2q-92 -77 -181 -77q-37 0 -61 8t-46.5 32t-33 73.5t-10.5 125.5zM249 477q-30 0 -50 -3.5t-43 -17.5t-37 -39.5t-23 -71.5 t-9 -112q0 -71 8.5 -115.5t27 -66t38.5 -28t51 -6.5q85 0 176 78v352q-63 30 -139 30zM159 665q0 45 26 71t70 26t70 -26t26 -71q0 -44 -26 -70t-70 -26t-70 26t-26 70zM180 665q0 -35 20.5 -55.5t54.5 -20.5t54.5 20.5t20.5 55.5t-20.5 56t-54.5 21t-54.5 -21t-20.5 -56z " />
<glyph horiz-adv-x="810" d="M256 503q67 0 105 -25t48 -92q33 117 176 117q91 0 129 -41.5t40 -121.5q1 -31 -4 -83h-335q-4 -134 35 -187t126 -53q78 0 156 26l6 -24q-74 -28 -164 -28q-68 0 -109 24.5t-60 78.5q-40 -50 -97 -76.5t-117 -26.5q-132 0 -132 139v8q0 78 39 112.5t108 44.5 q51 9 183 11l-1 21q-2 48 -11 78t-27.5 45.5t-40 21t-55.5 5.5q-79 0 -169 -30l-6 24q84 32 177 32zM386 239v43q-124 -2 -181 -12q-62 -11 -90 -42t-28 -94q0 -68 28 -93t79 -25q57 0 112 27.5t91 77.5q-11 44 -11 118zM416 282h306q3 27 3 59q0 69 -32.5 103.5 t-107.5 33.5q-85 -1 -124 -46t-45 -150z" />
<glyph horiz-adv-x="484" d="M58 239q0 145 48.5 206t150.5 61q91 0 129.5 -42.5t40.5 -123.5q1 -35 -5 -83h-335q-4 -135 33.5 -187.5t127.5 -52.5q79 0 157 26l5 -24q-74 -28 -164 -28q-102 0 -145 57t-43 191zM88 282h307q3 27 3 59q0 70 -33 105.5t-107 34.5q-85 -1 -124.5 -47t-45.5 -152z M240 577l-57 125h30l54 -125h-27z" />
<glyph horiz-adv-x="484" d="M58 239q0 145 48.5 206t150.5 61q91 0 129.5 -42.5t40.5 -123.5q1 -35 -5 -83h-335q-4 -135 33.5 -187.5t127.5 -52.5q79 0 157 26l5 -24q-74 -28 -164 -28q-102 0 -145 57t-43 191zM88 282h307q3 27 3 59q0 70 -33 105.5t-107 34.5q-85 -1 -124.5 -47t-45.5 -152z M323 703l-57 -126h-27l54 126h30z" />
<glyph horiz-adv-x="484" d="M58 239q0 145 48.5 206t150.5 61q91 0 129.5 -42.5t40.5 -123.5q1 -35 -5 -83h-335q-4 -135 33.5 -187.5t127.5 -52.5q79 0 157 26l5 -24q-74 -28 -164 -28q-102 0 -145 57t-43 191zM88 282h307q3 27 3 59q0 70 -33 105.5t-107 34.5q-85 -1 -124.5 -47t-45.5 -152z M131 577l115 126h14l117 -126h-31l-93 100l-90 -100h-32z" />
<glyph horiz-adv-x="484" d="M58 239q0 145 48.5 206t150.5 61q91 0 129.5 -42.5t40.5 -123.5q1 -35 -5 -83h-335q-4 -135 33.5 -187.5t127.5 -52.5q79 0 157 26l5 -24q-74 -28 -164 -28q-102 0 -145 57t-43 191zM88 282h307q3 27 3 59q0 70 -33 105.5t-107 34.5q-85 -1 -124.5 -47t-45.5 -152z M181 577h-32v75h32v-75zM357 577h-32v75h32v-75z" />
<glyph horiz-adv-x="264" d="M115 494h146l-4 -24h-142v-470h-29v494v105q0 75 28.5 102.5t86.5 27.5q49 0 89 -8l-4 -24q-57 6 -80 6q-48 0 -69.5 -21.5t-21.5 -84.5v-103z" />
<glyph horiz-adv-x="833" d="M248 -12q-103 0 -146.5 57.5t-43.5 191.5q0 137 44.5 203t145.5 66q75 0 116.5 -35.5t57.5 -108.5q17 76 62.5 110t122.5 34q92 0 130.5 -44t39.5 -126q0 -43 -5 -79h-334q-5 -135 32.5 -187.5t127.5 -52.5q87 0 163 28l5 -25q-87 -29 -170 -29q-75 0 -116.5 29.5 t-57.5 96.5q-16 -68 -57 -98.5t-117 -30.5zM248 14q88 0 124 50t36 173q0 126 -37 184.5t-123 58.5t-123.5 -58.5t-37.5 -184.5q0 -122 37 -172.5t124 -50.5zM438 282h307q3 27 3 59q0 70 -33 105.5t-107 34.5q-85 -1 -124.5 -47t-45.5 -152z" />
<glyph horiz-adv-x="428" d="M43 -228l-5 25l41 9q37 9 54.5 26.5t33.5 62.5l38 107h-11l-173 492h29l108 -307q53 -151 55 -163h2q1 9 58 172l104 298h30l-214 -604q-19 -54 -39.5 -76t-67.5 -32zM286 703l-57 -126h-27l54 126h30z" />
<glyph horiz-adv-x="428" d="M43 -228l-5 25l41 9q37 9 54.5 26.5t33.5 62.5l38 107h-11l-173 492h29l108 -307q53 -151 55 -163h2q1 9 58 172l104 298h30l-214 -604q-19 -54 -39.5 -76t-67.5 -32zM145 577h-32v75h32v-75zM321 577h-32v75h32v-75z" />
<glyph horiz-adv-x="399" d="M58 238q0 134 44.5 199.5t143.5 65.5q46 0 106 -15l-6 -25q-60 14 -99 14q-84 0 -122 -58t-38 -181q0 -121 36.5 -171t123.5 -50q45 0 101 14l7 -24q-55 -16 -108 -16q-102 0 -145.5 57t-43.5 190zM209 -185h-29q3 2 6.5 6t14 17.5t15 27t8 35t-5.5 40.5h29 q9 -39 0.5 -67t-23.5 -44z" />
<glyph horiz-adv-x="502" d="M251 -12q-106 0 -149.5 57t-43.5 192q0 137 46 203t149 66q102 0 146.5 -65.5t44.5 -203.5q0 -134 -44.5 -191.5t-148.5 -57.5zM252 14q89 0 126 50.5t37 172.5q0 126 -37.5 184.5t-125.5 58.5t-126.5 -58.5t-38.5 -184.5q0 -123 37.5 -173t127.5 -50zM304 703l-37 -126 h-26l34 126h29z" />
<glyph horiz-adv-x="476" d="M132 494h120l-3 -24h-117v-470h-28v470h-80v24h80v105q0 75 28.5 102.5t87.5 27.5q86 0 169 -18v-711h-29v691q-89 12 -136 12q-49 0 -70.5 -21.5t-21.5 -84.5v-103z" />
<glyph horiz-adv-x="960" d="M38 22l6 25q105 -30 182 -30q63 0 95 20.5t32 85.5q0 51 -28.5 76t-97.5 47l-41 13q-70 21 -101.5 47t-31.5 84q0 64 37.5 88.5t107.5 24.5q52 0 116 -12q-41 43 -41 104q0 65 39 99t105 34q73 0 137 -23v-209l-1 -68h1q92 75 187 75q27 0 48 -5.5t42 -19.5t32.5 -44 t11.5 -74v-360h-28v359q0 69 -30 93.5t-80 24.5q-92 0 -183 -79v-398h-29v690q-45 15 -106 15q-55 0 -87.5 -28t-32.5 -83q0 -73 63 -114l-6 -25q-82 22 -156 22q-59 0 -89 -18.5t-30 -68.5q0 -44 24.5 -65t88.5 -40l40 -13q81 -26 114.5 -56t33.5 -93q0 -74 -39 -103 t-116 -29q-89 0 -189 31z" />
<glyph horiz-adv-x="710" d="M58 238q0 134 44.5 199.5t143.5 65.5q20 0 60 -6q-34 36 -34 88q0 57 34.5 87.5t95.5 30.5q66 0 120 -20v-189h154l-4 -24h-150v-371q0 -51 16 -65.5t53 -14.5q36 0 79 10l6 -24q-42 -12 -90 -12t-70.5 20.5t-22.5 84.5v372h-74v24h74l2 172q-42 14 -92 14 q-49 0 -76.5 -24.5t-27.5 -71.5q0 -62 53 -96l-6 -25q-60 14 -99 14q-84 0 -122 -58t-38 -181q0 -121 36.5 -171t123.5 -50q45 0 101 14l7 -24q-55 -16 -108 -16q-102 0 -145.5 57t-43.5 190z" />
<glyph horiz-adv-x="920" d="M485 0v694q-37 11 -76 11q-55 0 -84 -28.5t-29 -78.5q0 -68 56 -110l-6 -25q-60 14 -99 14q-84 0 -122 -58t-38 -181q0 -121 36.5 -171t123.5 -50q45 0 101 14l7 -24q-55 -16 -108 -16q-102 0 -145.5 57t-43.5 190q0 134 44.5 199.5t143.5 65.5q23 0 63 -6 q-39 43 -39 103q0 59 36 93.5t102 34.5q62 0 106 -19v-213l-1 -68h1q92 75 187 75q27 0 48.5 -5.5t42.5 -19.5t32.5 -44t11.5 -74v-360h-29v359q0 69 -30 93.5t-80 24.5q-91 0 -183 -79v-398h-29z" />
<glyph horiz-adv-x="331" d="M39 408q0 102 30.5 135.5t90.5 33.5q62 0 110 -24v-221q0 -32 12.5 -42t41.5 0l4 -20q-16 -6 -35 -6q-16 0 -26 7.5t-13 14t-7 18.5h-1q-54 -45 -113 -45q-47 0 -70.5 30t-23.5 119zM162 555q-23 0 -37.5 -4t-29.5 -17.5t-22.5 -44.5t-7.5 -79q0 -79 18.5 -103.5 t55.5 -24.5q54 0 105 45v210q-37 18 -82 18z" />
<glyph horiz-adv-x="413" d="M246 552v-70q0 -73 -11.5 -104t-52.5 -69l-55 -52q-49 -46 -49 -116q0 -74 38 -99.5t114 -25.5q59 0 130 19l4 -23q-56 -21 -138 -21q-88 0 -132.5 32.5t-44.5 118.5q0 79 56 132l60 57q35 33 44 60t9 94v67h28zM246 697v-75h-28v75h28z" />
<glyph horiz-adv-x="212" d="M121 552v-552h-29v552h29zM121 697v-75h-30v75h30z" />
</font>
</defs>
</svg>
