<?xml version="1.0" standalone="no"?>
<!DOCTYPE svg PUBLIC "-//W3C//DTD SVG 1.1//EN" "http://www.w3.org/Graphics/SVG/1.1/DTD/svg11.dtd" >
<svg xmlns="http://www.w3.org/2000/svg" xmlns:xlink="http://www.w3.org/1999/xlink" version="1.1">
<metadata></metadata>
<defs>
<font id="bunday_sanssemibold_up_italic" horiz-adv-x="509" >
<font-face units-per-em="1000" ascent="750" descent="-250" />
<missing-glyph horiz-adv-x="222" />
<glyph unicode="&#xfb00;" horiz-adv-x="616" d="M249 502h172l16 85q17 85 55.5 113.5t110.5 28.5q75 0 127 -13l-30 -81q-58 7 -81 7q-36 0 -52.5 -12t-24.5 -54l-15 -74h138l-28 -79h-125l-83 -427q-19 -102 -56 -143t-118 -57q-46 -10 -74 -14l-5 83q11 3 35.5 8t33.5 8q38 11 52.5 35t25.5 82l83 425h-172l-84 -437 q-20 -102 -57 -143t-117 -57q-41 -9 -76 -14l-5 83q11 3 36 8t34 8q38 11 52.5 35t25.5 82l85 435h-69l15 79h69l16 85q17 85 56 113.5t112 28.5q64 0 97 -10l-30 -81q-38 4 -52 4q-36 0 -53 -12.5t-25 -53.5z" />
<glyph unicode="&#xfb01;" horiz-adv-x="554" d="M249 502h280l-97 -502h-107l81 423h-172l-84 -437q-20 -102 -57 -143t-117 -57q-41 -9 -76 -14l-5 83q11 3 36 8t34 8q38 11 52.5 35t25.5 82l85 435h-69l15 79h69l16 85q17 85 57 113.5t111 28.5q112 0 193 -23l-30 -81q-83 17 -150 17q-34 0 -51 -12.5t-25 -53.5z" />
<glyph unicode="&#xfb02;" horiz-adv-x="575" d="M249 502h107l-28 -79h-94l-84 -437q-20 -102 -57 -143t-117 -57q-41 -9 -76 -14l-5 83q11 3 36 8t34 8q38 11 52.5 35t25.5 82l85 435h-69l15 79h69l16 85q17 85 58 113.5t116 28.5q54 0 127.5 -7.5t107.5 -15.5l-112 -578q-6 -29 0.5 -37.5t23.5 -8.5q7 0 16 1t14.5 1.5 t6.5 0.5l-5 -83q-34 -10 -79 -10q-53 0 -76.5 28t-8.5 103l100 513q-70 7 -101 7q-39 0 -56.5 -11.5t-25.5 -51.5z" />
<glyph unicode="&#xfb03;" horiz-adv-x="833" d="M528 502h280l-97 -502h-107l81 423h-172l-83 -427q-19 -102 -56 -143t-118 -57q-46 -10 -74 -14l-5 83q11 3 35.5 8t33.5 8q38 11 52.5 35t25.5 82l83 425h-173l-84 -437q-20 -102 -57 -143t-117 -57q-41 -9 -76 -14l-5 83q11 3 36 8t34 8q38 11 52.5 35t25.5 82l85 435 h-69l15 79h69l16 85q17 85 56 113.5t112 28.5q64 0 97 -10l-30 -81q-38 4 -52 4q-36 0 -53 -12.5t-25 -53.5l-15 -74h173l16 85q17 85 57 113.5t111 28.5q112 0 193 -23l-31 -81q-81 17 -150 17q-34 0 -50.5 -12.5t-24.5 -53.5z" />
<glyph unicode="&#xfb04;" horiz-adv-x="854" d="M528 502h106l-28 -79h-93l-83 -427q-20 -102 -57 -143t-117 -57q-46 -10 -75 -14l-4 83q11 3 35 8t33 8q39 11 53.5 34.5t25.5 82.5l82 425h-172l-84 -437q-20 -102 -57 -143t-117 -57q-41 -9 -76 -14l-5 83q11 3 36 8t34 8q38 11 52.5 35t25.5 82l85 435h-69l15 79h69 l16 85q17 85 56 113.5t112 28.5q64 0 97 -10l-30 -81q-38 4 -52 4q-36 0 -53 -12.5t-25 -53.5l-15 -74h173l16 85q17 85 58 113.5t116 28.5q53 0 126.5 -7.5t109.5 -15.5l-113 -578q-6 -29 0 -37.5t24 -8.5q7 0 15.5 1t14.5 1.5t7 0.5l-5 -83q-34 -10 -80 -10 q-53 0 -75.5 28t-8.5 103l100 513q-70 7 -101 7q-40 0 -57 -11.5t-25 -51.5z" />
<glyph unicode="fb" horiz-adv-x="807" d="M249 502h107l-28 -79h-94l-84 -437q-20 -102 -57 -143t-117 -57q-41 -9 -76 -14l-5 83q11 3 36 8t34 8q38 11 52.5 35t25.5 82l85 435h-69l15 79h69l16 85q17 85 59 113.5t120 28.5q53 0 124 -7.5t106 -15.5l-32 -165q-14 -74 -23 -98h3q68 68 140 68q37 0 61.5 -10.5 t42.5 -38t17.5 -75t-12.5 -121.5q-31 -155 -84 -215t-157 -60q-92 0 -195 35l119 610q-70 7 -101 7q-39 0 -56.5 -11.5t-25.5 -51.5zM526 81q52 0 81.5 36.5t50.5 148.5q16 102 6.5 128.5t-44.5 26.5q-29 0 -64 -22t-58 -50l-50 -257q35 -11 78 -11z" />
<glyph unicode="fh" horiz-adv-x="819" d="M249 502h107l-28 -79h-94l-84 -437q-20 -102 -57 -143t-117 -57q-41 -9 -76 -14l-5 83q11 3 36 8t34 8q38 11 52.5 35t25.5 82l85 435h-69l15 79h69l16 85q17 85 58 113.5t116 28.5q54 0 127.5 -7.5t107.5 -15.5l-32 -169q-4 -20 -11 -44t-11 -38l-5 -14h2q74 70 161 70 q22 0 41.5 -7t37.5 -24t23.5 -46t-1.5 -74l-68 -360h-107l66 345q14 76 -38 76q-33 0 -68 -21.5t-60 -50.5l-66 -349h-107l123 636q-70 7 -101 7q-39 0 -56.5 -11.5t-25.5 -51.5z" />
<glyph unicode="fj" horiz-adv-x="552" d="M249 502h279l-95 -491q-20 -102 -56.5 -143t-115.5 -57q-49 -10 -75 -14l-1 84q60 14 65 15q37 11 51.5 34.5t25.5 82.5l79 410h-172l-84 -437q-20 -102 -57 -143t-117 -57q-41 -9 -76 -14l-5 83q11 3 36 8t34 8q38 11 52.5 35t25.5 82l85 435h-69l15 79h69l16 85 q17 85 57 113.5t111 28.5q112 0 193 -23l-30 -81q-83 17 -150 17q-34 0 -51 -12.5t-25 -53.5z" />
<glyph unicode="ffj" horiz-adv-x="831" d="M528 502h280l-96 -491q-20 -102 -57 -143t-115 -57q-41 -9 -76 -14l-1 84q51 11 65 15q38 11 52.5 34.5t25.5 82.5l79 410h-172l-82 -427q-20 -102 -57 -143t-117 -57q-46 -10 -75 -14l-4 83q11 3 35 8t33 8q39 11 53.5 34.5t25.5 82.5l82 425h-173l-84 -437 q-20 -102 -57 -143t-117 -57q-41 -9 -76 -14l-5 83q11 3 36 8t34 8q38 11 52.5 35t25.5 82l85 435h-69l15 79h69l16 85q17 85 56 113.5t112 28.5q64 0 97 -10l-30 -81q-38 4 -52 4q-36 0 -53 -12.5t-25 -53.5l-15 -74h173l16 85q17 85 57 113.5t111 28.5q112 0 193 -23 l-31 -81q-81 17 -150 17q-34 0 -50.5 -12.5t-24.5 -53.5z" />
<glyph unicode="fk" horiz-adv-x="839" d="M249 502h107l-28 -79h-94l-84 -437q-20 -102 -57 -143t-117 -57q-41 -9 -76 -14l-5 83q11 3 36 8t34 8q38 11 52.5 35t25.5 82l85 435h-69l15 79h69l16 85q17 85 59 113.5t118 28.5q54 0 126 -7.5t106 -15.5l-50 -257q88 62 174 62q65 0 95 -32t20 -89q-10 -54 -44.5 -97 t-115.5 -82l18 -48q16 -42 32 -60.5t44 -18.5q23 0 42 8l13 -74q-44 -23 -92 -23q-49 0 -76.5 27t-54.5 98l-49 127q92 32 131.5 63t46.5 70q4 20 -7 31.5t-37 11.5q-78 0 -158 -66l-69 -357h-106l123 636q-70 7 -101 7q-39 0 -56.5 -11.5t-25.5 -51.5z" />
<glyph unicode="ft" horiz-adv-x="631" d="M128 423h-69l15 79h69l16 85q17 85 56 113.5t112 28.5q64 0 97 -10l-30 -81q-38 4 -52 4q-36 0 -53 -12.5t-25 -53.5l-15 -74h173l35 130l99 10l-28 -140h127l-28 -79h-114l-58 -298q-6 -28 2 -36t33 -8q4 0 70 11v-82q-41 -18 -105 -18q-68 0 -95 26.5t-12 104.5l59 300 h-173l-84 -437q-20 -102 -57 -143t-117 -57q-41 -9 -76 -14l-5 83q11 3 36 8t34 8q38 11 52.5 35t25.5 82z" />
<glyph horiz-adv-x="500" />
<glyph horiz-adv-x="500" />
<glyph horiz-adv-x="333" />
<glyph unicode="&#xd;" horiz-adv-x="0" />
<glyph unicode=" "  horiz-adv-x="222" />
<glyph unicode="&#x09;" horiz-adv-x="222" />
<glyph unicode="&#xa0;" horiz-adv-x="222" />
<glyph unicode="!" horiz-adv-x="250" d="M59 181l101 516h105l-101 -516h-105zM25 0l18 98h105l-18 -98h-105z" />
<glyph unicode="&#x22;" horiz-adv-x="396" d="M297 521l32 201h94l-48 -201h-78zM128 521l31 201h94l-47 -201h-78z" />
<glyph unicode="#" horiz-adv-x="775" d="M61 158l20 70h170l37 122h-170l20 68h169l54 176h68l-53 -176h123l52 176h68l-52 -176h161l-19 -68h-162l-37 -122h162l-21 -70h-161l-48 -162h-68l48 162h-123l-48 -162h-68l47 162h-169zM319 228h123l37 122h-123z" />
<glyph unicode="$" horiz-adv-x="549" d="M35 30l35 87q106 -24 158 -24q60 0 88 21t39 73q7 44 -6.5 73t-62.5 53l-37 17q-29 15 -47 27t-35 29.5t-22 37.5t-8 50.5t7 67.5q26 135 182 150l19 96h69l-19 -95q88 -5 134 -22l-34 -85q-77 17 -135 17q-99 0 -114 -81q-8 -41 7 -64t55 -43l34 -16q25 -12 41.5 -22 t34 -24t26.5 -29.5t15.5 -37t6 -49t-7.5 -62.5q-17 -84 -63 -126t-134 -47l-18 -93h-69l18 93q-99 5 -157 28z" />
<glyph unicode="%" horiz-adv-x="860" d="M77 481q24 123 63 173.5t119 50.5q81 0 102.5 -53.5t-3.5 -171.5q-23 -123 -61 -172.5t-119 -49.5q-82 0 -104 52t3 171zM188 327q34 0 51 32.5t34 121.5q18 85 13 119.5t-38 34.5q-34 0 -51.5 -33t-34.5 -121q-18 -85 -13 -119.5t39 -34.5zM541 216q25 123 63.5 173.5 t118.5 50.5q81 0 103 -53.5t-3 -171.5q-24 -123 -62 -172.5t-119 -49.5q-82 0 -103.5 52t2.5 171zM653 62q33 0 50 32.5t34 121.5q9 45 12.5 72t1.5 46.5t-11.5 27.5t-26.5 8q-34 0 -51.5 -33t-35.5 -121q-12 -60 -13.5 -91.5t7.5 -47t33 -15.5zM169 -22l483 740h80 l-483 -740h-80z" />
<glyph unicode="&#x26;" horiz-adv-x="555" d="M524 451l8 -83l-71 -20q1 -9 7 -38.5t8 -46.5t2.5 -46t-4.5 -56q-16 -84 -80 -128t-166 -44q-227 0 -189 193q20 110 140 159l1 2q-41 21 -54.5 56.5t-2.5 93.5q30 144 200 144q79 0 136 -18l-31 -82q-57 11 -96 11q-48 0 -73 -19t-33 -59q-8 -35 8.5 -58t53.5 -27z M360 317q-90 -26 -130 -43q-73 -31 -88 -103q-8 -45 15 -69t82 -24q54 0 88.5 27t42.5 71q9 48 -10 141z" />
<glyph unicode="'" horiz-adv-x="226" d="M128 521l31 201h94l-47 -201h-78z" />
<glyph unicode="(" horiz-adv-x="377" d="M254 -27h-102q-55 130 -55 271q0 125 52 248.5t145 230.5h116q-217 -239 -217 -484q0 -133 61 -266z" />
<glyph unicode=")" horiz-adv-x="377" d="M161 723h102q55 -133 55 -271q0 -124 -53 -247.5t-146 -231.5h-115q217 239 217 484q0 135 -60 266z" />
<glyph unicode="*" horiz-adv-x="498" d="M186 328l-55 42l112 119l-133 41l35 66l129 -50l27 151h71l-31 -149l148 49l10 -67l-151 -44l69 -116l-62 -42l-61 120z" />
<glyph unicode="+" horiz-adv-x="508" d="M188 104l32 168h-159l16 82h159l32 167h82l-32 -167h159l-16 -82h-159l-32 -168h-82z" />
<glyph unicode="," horiz-adv-x="254" d="M60 -106h-95q26 32 54.5 89.5t41.5 126.5h99q-14 -71 -43.5 -128.5t-56.5 -87.5z" />
<glyph unicode="-" horiz-adv-x="362" d="M39 243l16 86h284l-16 -86h-284z" />
<glyph unicode="." horiz-adv-x="255" d="M18 0l22 110h124l-22 -110h-124z" />
<glyph unicode="/" horiz-adv-x="366" d="M327 697h94l-343 -697h-94z" />
<glyph unicode="0" horiz-adv-x="532" d="M68 348q18 94 38.5 156t52.5 111t78.5 71.5t112.5 22.5q87 0 129 -41.5t43.5 -122t-20.5 -198.5q-36 -190 -96 -274.5t-186 -84.5q-87 0 -128.5 41t-44 121t20.5 198zM233 80q68 0 100.5 59.5t61.5 208.5q31 139 20.5 204t-77.5 65q-68 0 -101.5 -60t-61.5 -209 q-31 -140 -20.5 -204t78.5 -64z" />
<glyph unicode="1" horiz-adv-x="311" d="M80 0l118 605h-98l17 92h205l-135 -697h-107z" />
<glyph unicode="2" horiz-adv-x="472" d="M2 0l29 153q13 67 38 108t57.5 63.5t95.5 49.5l44 19q45 19 70 48.5t35 82.5q9 47 -6 68.5t-59 21.5q-57 0 -162 -24l1 85q107 31 180 31q186 0 152 -178q-19 -98 -60.5 -143t-125.5 -81l-46 -20q-52 -23 -74 -50t-34 -88l-10 -54h266l-18 -92h-373z" />
<glyph unicode="3" horiz-adv-x="456" d="M-25 23l39 86q75 -27 154 -27q59 0 86.5 29t38.5 85q12 62 -8 92.5t-96 33.5l-65 2l17 87l66 3q68 2 98.5 28t40.5 80q9 46 -4.5 69t-63.5 23q-23 0 -44.5 -2t-40.5 -6t-31 -6.5t-28 -7.5t-20 -6l-3 82q97 38 179 38q103 0 142.5 -43.5t21.5 -135.5q-12 -61 -46 -102.5 t-74 -55.5q95 -37 66 -175q-22 -105 -77 -154.5t-162 -49.5q-99 0 -186 33z" />
<glyph unicode="4" horiz-adv-x="499" d="M22 190l2 87l287 433l92 -38l-113 -168l-156 -223h196l41 147h93l-83 -428h-107l37 190h-289z" />
<glyph unicode="5" horiz-adv-x="486" d="M9 21l33 87q94 -26 152 -26q61 0 92 29.5t45 96.5q7 39 5.5 67.5t-26 45.5t-76.5 17q-55 0 -118 -13l-26 21l69 351h328l-18 -91h-221l-36 -182q33 6 67 6q96 0 138 -55t21 -168q-23 -116 -82 -166.5t-156 -50.5q-104 0 -191 31z" />
<glyph unicode="6" horiz-adv-x="505" d="M351 614q-70 0 -105 -47.5t-60 -160.5q64 34 132 34q82 0 121 -54t16 -169q-24 -124 -87 -176.5t-158 -52.5q-82 0 -122 41t-42 119t20 192q19 99 40 161.5t54 112t82 71t120 21.5t143 -25l-33 -84q-79 17 -121 17zM287 350q-27 0 -62 -10.5t-57 -27.5 q-24 -121 -13.5 -176.5t68.5 -55.5q50 0 80 30.5t45 106.5q14 73 -2 103t-59 30z" />
<glyph unicode="7" horiz-adv-x="445" d="M145 0h-113q74 189 142.5 312.5t190.5 292.5h-264l17 92h387l-17 -92q-133 -185 -205.5 -311t-137.5 -294z" />
<glyph unicode="8" horiz-adv-x="523" d="M32 199q27 136 129 182q-29 13 -41 52t-4 85q38 191 229 191q101 0 144 -48.5t24 -142.5q-8 -46 -37.5 -89.5t-63.5 -57.5q86 -45 60 -171q-22 -106 -82.5 -159t-171.5 -53q-226 0 -186 211zM294 412q95 0 115 104q22 103 -75 103q-93 0 -115 -103q-19 -104 75 -104z M228 78q58 0 91.5 29.5t46.5 93.5q24 123 -90 123q-112 0 -137 -124q-12 -63 10 -92.5t79 -29.5z" />
<glyph unicode="9" horiz-adv-x="505" d="M192 83q69 0 104.5 47.5t59.5 159.5q-62 -33 -131 -33q-82 0 -121 54t-16 169q24 124 87 176.5t158 52.5q82 0 122 -41t42 -119t-20 -192q-19 -99 -40 -161.5t-54 -112t-82 -71t-120 -21.5t-143 25l33 84q79 -17 121 -17zM256 347q28 0 62 10t56 27q12 64 15.5 105 t-1.5 71.5t-21.5 43.5t-46.5 13q-50 0 -80 -30.5t-45 -106.5q-14 -73 2 -103t59 -30z" />
<glyph unicode=":" horiz-adv-x="255" d="M81 326l21 110h124l-21 -110h-124zM18 0l22 110h124l-22 -110h-124z" />
<glyph unicode=";" horiz-adv-x="254" d="M60 -106h-95q26 32 54.5 89.5t41.5 126.5h99q-14 -71 -43.5 -128.5t-56.5 -87.5zM80 326l22 110h124l-22 -110h-124z" />
<glyph unicode="&#x3c;" d="M91 266l18 90l382 255l-22 -112l-287 -192l211 -193l-18 -101z" />
<glyph unicode="=" horiz-adv-x="508" d="M89 375l15 82h382l-16 -82h-381zM49 171l16 82h381l-16 -82h-381z" />
<glyph unicode="&#x3e;" d="M453 356l-18 -90l-381 -253l23 114l286 193l-211 192l18 99z" />
<glyph unicode="?" horiz-adv-x="407" d="M121 178l17 84q11 59 32 89.5t70 70.5l38 32q25 21 35 40t15 47q10 47 -9.5 62.5t-65.5 15.5q-60 0 -137 -22v80q93 29 166 29q87 0 127 -38.5t22 -128.5q-17 -88 -82 -143l-44 -36q-33 -28 -46 -50.5t-20 -60.5l-15 -71h-103zM87 0l19 98h103l-18 -98h-104z" />
<glyph unicode="@" horiz-adv-x="755" d="M54 255q32 178 130.5 268t254.5 90q134 0 205.5 -64t71.5 -188q0 -47 -10 -105q-20 -99 -59.5 -142.5t-112.5 -43.5q-68 0 -85 46q-62 -54 -129 -54q-19 0 -34 4t-31 15t-23 31.5t-9.5 54t8.5 81.5q21 111 68.5 154.5t116.5 43.5q75 0 102 -38.5t9 -129.5l-17 -89 q-11 -54 31 -54q38 0 60.5 26.5t35.5 94.5q11 60 11 100q0 194 -212 194q-128 0 -206.5 -71t-107.5 -224q-8 -40 -12 -94q-3 -201 212 -201q39 0 101 10l-4 -60q-54 -12 -99 -12q-137 0 -207.5 66t-68.5 196q0 38 10 95zM335 126q48 0 97 46l20 106q12 64 3.5 84t-45.5 20 q-38 0 -64 -29.5t-41 -105.5q-13 -59 -6.5 -90t36.5 -31z" />
<glyph unicode="A" d="M-32 0l292 697h162l26 -697h-104l-6 164h-195l-65 -164h-110zM175 248h165l-11 360h-5z" />
<glyph unicode="B" horiz-adv-x="547" d="M230 0h-202l136 697h162q125 0 172.5 -44t29.5 -142q-22 -108 -108 -140q42 -16 65 -58t9 -111q-21 -109 -82.5 -155.5t-181.5 -46.5zM213 406h62q73 0 104 21.5t43 83.5q11 56 -10.5 76.5t-95.5 20.5h-63zM151 91h85q70 0 106 24t47 89q14 69 -8.5 91.5t-99.5 22.5h-85z " />
<glyph unicode="C" horiz-adv-x="469" d="M397 100v-85q-79 -24 -141 -24q-55 0 -92 9.5t-64.5 33t-38.5 64t-9 103t18 149.5q17 92 38 153t55 109.5t85 71t123 22.5q35 0 83 -6.5t67 -13.5l-32 -84q-62 12 -116 12q-56 0 -89 -18.5t-59.5 -76t-47.5 -169.5q-13 -69 -16.5 -116t1 -77t20 -46t36.5 -22t55 -6 q31 0 124 17z" />
<glyph unicode="D" horiz-adv-x="564" d="M173 0h-145l134 697h127q74 0 120.5 -8.5t80 -30t46 -61.5t11 -99t-18.5 -147q-18 -93 -36 -150.5t-43 -100t-63.5 -62.5t-87 -29t-125.5 -9zM153 92h34q50 0 79 5t55.5 18.5t42 44t29.5 75t28 118.5q12 61 16.5 102t0 69.5t-13 44t-30.5 24t-44.5 10.5t-62.5 2h-35z" />
<glyph unicode="E" horiz-adv-x="483" d="M29 0l136 697h365l-19 -92h-257l-39 -197h209l-18 -90h-208l-44 -226h263l-18 -92h-370z" />
<glyph unicode="F" horiz-adv-x="465" d="M28 0l136 697h365l-18 -92h-258l-42 -217h198l-17 -91h-198l-59 -297h-107z" />
<glyph unicode="G" horiz-adv-x="526" d="M71 351q27 142 66 219.5t91 106.5t135 29q43 0 99.5 -7t77.5 -14l-31 -86q-92 15 -146 15q-38 0 -61.5 -8t-47.5 -34.5t-41.5 -80t-34.5 -140.5t-19.5 -141t10.5 -81.5t33.5 -36.5t56.5 -9q29 0 81 7l55 294h102l-68 -361q-81 -32 -183 -32q-51 0 -86 9.5t-61 33t-37 64 t-9.5 103.5t18.5 150z" />
<glyph unicode="H" horiz-adv-x="581" d="M28 0l136 697h107l-56 -290h212l58 290h107l-136 -697h-108l62 315h-213l-62 -315h-107z" />
<glyph unicode="I" horiz-adv-x="260" d="M28 0l136 697h107l-136 -697h-107z" />
<glyph unicode="J" horiz-adv-x="401" d="M-32 9l30 85q53 -11 112 -11q46 0 69 23.5t32 74.5l100 516h107l-100 -518q-19 -100 -69 -144t-137 -44q-81 0 -144 18z" />
<glyph unicode="K" horiz-adv-x="541" d="M28 0l136 697h107l-58 -301q7 0 15.5 -1.5t18 -3.5t13.5 -3l216 309h126l-252 -348q44 -41 61 -98l88 -251h-110l-72 209q-19 55 -47 74t-75 22l-60 -305h-107z" />
<glyph unicode="L" horiz-adv-x="427" d="M28 0l136 697h107l-118 -605h222l-17 -92h-330z" />
<glyph unicode="M" horiz-adv-x="744" d="M644 0h-102l52 411l28 169h-5q-20 -52 -58 -132l-162 -341h-106l-31 342l-7 131h-6q-21 -100 -39 -171l-99 -409h-103l173 697h144l31 -347q4 -36 5.5 -69.5t0.5 -48.5v-15h6q22 58 58 134l160 346h152z" />
<glyph unicode="N" horiz-adv-x="608" d="M28 0l134 697h140l80 -420q13 -63 25 -161h3q9 63 45 259l61 322h102l-134 -697h-141l-75 404q-11 55 -28 175h-3q-18 -114 -52 -286l-55 -293h-102z" />
<glyph unicode="O" horiz-adv-x="563" d="M68 342q37 192 102.5 279.5t199.5 87.5q90 0 135 -41t48.5 -120t-18.5 -195q-37 -191 -101.5 -278t-199.5 -87q-91 0 -135.5 40.5t-48.5 119t18 194.5zM249 80q75 0 112.5 62t67.5 213q14 71 17.5 117.5t-3.5 80.5t-28.5 49t-59.5 15q-75 0 -113 -62.5t-67 -213.5 q-30 -136 -15 -198.5t89 -62.5z" />
<glyph unicode="P" horiz-adv-x="513" d="M28 0l136 697h174q122 0 166.5 -47t21.5 -164q-43 -218 -253 -218h-86l-52 -268h-107zM206 360h72q64 0 96.5 28t46.5 99q13 70 -6.5 94t-88.5 24h-73z" />
<glyph unicode="Q" horiz-adv-x="561" d="M68 342q37 192 102.5 279.5t199.5 87.5q90 0 135 -41t48.5 -120t-18.5 -195q-27 -139 -66 -220t-106 -117q39 -49 147 -84q-3 -5 -18.5 -38.5t-17.5 -37.5q-159 34 -211 133q-5 0 -14.5 -0.5t-14.5 -0.5q-91 0 -135.5 40.5t-48.5 119t18 194.5zM249 80q75 0 112.5 62 t67.5 213q14 71 17.5 117.5t-3.5 80.5t-28.5 49t-59.5 15q-75 0 -113 -62.5t-67 -213.5q-30 -136 -15 -198.5t89 -62.5z" />
<glyph unicode="R" horiz-adv-x="541" d="M28 0l136 697h175q122 0 166 -47t22 -164q-28 -143 -139 -177q47 -24 61 -123l28 -186h-111l-20 163q-8 62 -30 83t-70 21h-59l-52 -267h-107zM206 359h72q64 0 96.5 28t45.5 99q13 70 -7 94.5t-89 24.5h-71z" />
<glyph unicode="S" horiz-adv-x="479" d="M-3 20l34 87q93 -24 158 -24q61 0 89 22t38 76q9 47 -4 79t-63 57l-36 18q-71 37 -97 82t-10 128q33 161 216 161q106 0 170 -23l-34 -86q-76 17 -135 17q-51 0 -78.5 -18.5t-36.5 -66.5q-8 -44 6.5 -66.5t55.5 -43.5l35 -18q76 -38 104 -87t10 -142q-18 -95 -68 -138 t-153 -43q-114 0 -201 29z" />
<glyph unicode="T" horiz-adv-x="450" d="M125 0l117 605h-153l19 92h411l-18 -92h-152l-117 -605h-107z" />
<glyph unicode="U" horiz-adv-x="567" d="M57 181l101 516h107l-101 -515q-19 -102 85 -102q107 0 126 102l102 515h108l-102 -516q-20 -100 -79.5 -146.5t-162.5 -46.5q-105 0 -154 47.5t-30 145.5z" />
<glyph unicode="V" horiz-adv-x="482" d="M120 0l-25 697h106l10 -395q1 -45 -3 -205h5q25 70 77 204l159 396h110l-290 -697h-149z" />
<glyph unicode="W" horiz-adv-x="747" d="M91 0l15 697h101l-14 -424q-4 -119 -11 -162h4q33 102 54 159l156 418h120l-1 -422q0 -68 -7 -155h4q10 40 51 160l144 426h106l-249 -697h-135l2 368q0 112 8 203h-4q-26 -79 -73 -205l-139 -366h-132z" />
<glyph unicode="X" horiz-adv-x="506" d="M269 293h-6q-60 -97 -94 -151l-89 -142h-121l247 364l-103 333h110l33 -119l35 -142h7q57 89 85 132l85 129h117l-231 -335l111 -362h-111l-37 133q-8 27 -17.5 67t-15.5 66z" />
<glyph unicode="Y" horiz-adv-x="484" d="M142 0l57 307l-118 390h114l56 -206q13 -45 19 -74h2q6 10 14 22l18 27t15 23l137 208h121l-271 -390l-57 -307h-107z" />
<glyph unicode="Z" horiz-adv-x="478" d="M-15 0l9 49l360 556h-232l17 92h377l-10 -47l-360 -558h264l-17 -92h-408z" />
<glyph unicode="[" horiz-adv-x="371" d="M231 -86h-185l168 864h185l-15 -74h-96l-140 -717h96z" />
<glyph unicode="\" horiz-adv-x="366" d="M122 697h86l76 -697h-84z" />
<glyph unicode="]" horiz-adv-x="371" d="M195 -86h-185l13 66h96l144 732h-96l11 66h185z" />
<glyph unicode="^" horiz-adv-x="537" d="M71 379l236 318h97l113 -318h-86l-85 241l-181 -241h-94z" />
<glyph unicode="_" horiz-adv-x="434" d="M-76 -154l14 72h433l-14 -72h-433z" />
<glyph unicode="`" horiz-adv-x="281" d="M219 640l-52 147h100l34 -147h-82z" />
<glyph unicode="a" horiz-adv-x="512" d="M43 238q29 154 85.5 213.5t148.5 59.5q99 0 200 -36l-65 -344q-7 -38 1.5 -48.5t47.5 -1.5l-1 -74q-34 -12 -71 -12q-39 0 -57.5 16.5t-24.5 50.5h-3q-73 -71 -166 -71q-66 0 -94 54t-1 193zM281 421q-48 0 -79.5 -37.5t-52.5 -146.5q-13 -63 -11 -97.5t11.5 -46.5 t28.5 -12q71 0 131 72l49 257q-35 11 -77 11z" />
<glyph unicode="b" horiz-adv-x="505" d="M163 722h106l-35 -181q-15 -76 -22 -92h3q62 62 139 62q37 0 61.5 -10.5t42.5 -38t17.5 -75t-13.5 -121.5q-30 -155 -83 -215t-157 -60q-92 0 -195 35zM224 81q52 0 81.5 36.5t50.5 148.5q16 102 6.5 128.5t-44.5 26.5q-29 0 -63.5 -21.5t-58.5 -50.5l-50 -257 q35 -11 78 -11z" />
<glyph unicode="c" horiz-adv-x="411" d="M46 249q27 135 82.5 198.5t167.5 63.5q77 0 129 -20l-33 -81q-44 11 -95 11q-60 0 -93.5 -40t-50.5 -132q-18 -99 -1.5 -133.5t79.5 -34.5q47 0 101 16l3 -83q-60 -23 -132 -23q-114 0 -148.5 62.5t-8.5 195.5z" />
<glyph unicode="d" horiz-adv-x="505" d="M44 235q30 157 83 216.5t141 59.5q63 0 107 -19h2q6 39 17 95l27 135h106l-140 -722h-93l2 54h-3q-67 -63 -150 -63q-33 0 -56 10.5t-39.5 37.5t-16.5 74.5t13 121.5zM309 153l49 256q-31 12 -75 12q-52 0 -82 -37t-51 -149q-15 -66 -11.5 -100t13 -44t29.5 -10 q66 0 128 72z" />
<glyph unicode="e" horiz-adv-x="477" d="M46 252q26 138 79 200t168 62q54 0 90.5 -15t51.5 -38.5t21 -53t-2 -58.5q-16 -79 -46 -103t-111 -24q-86 0 -146 19q-2 -7 -2 -8q-17 -89 1 -122t78 -33q64 0 149 26l3 -80q-73 -33 -174 -33q-114 0 -149.5 62.5t-10.5 198.5zM169 319q55 -19 115 -19q35 0 47.5 12.5 t18.5 44.5q7 34 -9 54t-55 20q-90 0 -117 -112z" />
<glyph unicode="f" horiz-adv-x="338" d="M-96 -228l-5 83q11 3 35.5 8t33.5 8q37 11 50.5 34.5t25.5 82.5l83 435h-70l15 79h70l16 85q17 85 57 113.5t111 28.5q75 0 125 -13l-30 -81q-58 7 -84 7q-33 0 -49.5 -12.5t-24.5 -53.5l-15 -74h138l-27 -79h-126l-83 -437q-20 -103 -54.5 -142.5t-116.5 -57.5 q-44 -9 -75 -14z" />
<glyph unicode="g" horiz-adv-x="505" d="M138 81v2q-122 18 -87 194q48 234 234 234q93 0 194 -36l-92 -475q-45 -233 -242 -233q-78 0 -116 41.5t-25 111.5q20 100 134 161zM313 171l47 239q-37 11 -74 11q-46 0 -79 -33t-51 -124q-15 -76 12 -105.5t99 -4.5q9 1 20.5 5.5t18.5 8.5zM282 -3l17 85 q-49 -19 -79 -35q-101 -51 -114 -123q-7 -33 9 -51.5t46 -18.5q93 0 121 143z" />
<glyph unicode="h" horiz-adv-x="518" d="M23 0l139 722h107l-36 -185q-4 -20 -10.5 -44t-10.5 -37l-5 -14h2q73 69 161 69q50 0 83 -35.5t17 -115.5l-68 -360h-106l65 345q15 76 -37 76q-33 0 -69 -22t-59 -50l-67 -349h-106z" />
<glyph unicode="i" horiz-adv-x="255" d="M27 0l97 502h106l-97 -502h-106zM136 593l20 104h117l-20 -104h-117z" />
<glyph unicode="j" horiz-adv-x="254" d="M-119 -228l-5 83q11 3 35.5 8t33.5 8q39 11 53 34t26 83l100 514h106l-100 -516q-21 -105 -54.5 -144t-119.5 -56q-44 -9 -75 -14zM135 595l20 102h118l-20 -102h-118z" />
<glyph unicode="k" horiz-adv-x="538" d="M130 0h-106l140 722h106l-53 -272q89 61 174 61q65 0 95 -32t20 -89q-10 -54 -44.5 -97t-115.5 -82l17 -48q16 -42 32 -60.5t45 -18.5q21 0 42 8l12 -74q-44 -23 -91 -23q-50 0 -77.5 27t-54.5 98l-48 127q91 32 130.5 63t47.5 70q4 20 -7.5 31.5t-37.5 11.5 q-77 0 -157 -66z" />
<glyph unicode="l" horiz-adv-x="272" d="M213 84l-4 -83q-36 -10 -77 -10q-54 0 -78 28t-9 103l117 600h107l-116 -595q-6 -29 0 -37.5t23 -8.5q7 0 16 0.5t14.5 1.5t6.5 1z" />
<glyph unicode="m" horiz-adv-x="755" d="M23 0l97 502h94l-6 -56h3q67 65 150 65q85 0 92 -78q80 78 165 78q47 0 77.5 -35t15.5 -114l-70 -362h-107l69 350q12 71 -28 71q-27 0 -64 -22.5t-58 -49.5l-69 -349h-104l68 350q8 36 1.5 53.5t-29.5 17.5q-30 0 -65 -21.5t-58 -50.5l-68 -349h-106z" />
<glyph unicode="n" horiz-adv-x="517" d="M23 0l96 502h94l-5 -56h2q67 65 155 65q52 0 87 -35.5t19 -115.5l-69 -360h-106l66 345q15 76 -37 76q-34 0 -70 -22t-59 -50l-67 -349h-106z" />
<glyph unicode="o" horiz-adv-x="497" d="M202 -12q-116 0 -149.5 60t-7.5 195q27 140 81.5 205.5t168.5 65.5q115 0 148.5 -67t8.5 -204q-27 -137 -80.5 -196t-169.5 -59zM216 78q54 0 83 35t47 131q18 94 4 137t-67 43t-83 -42t-47 -138q-19 -98 -5 -132t68 -34z" />
<glyph unicode="p" horiz-adv-x="505" d="M464 267q-30 -155 -83 -215.5t-154 -60.5q-51 0 -97 14h-2q-9 -57 -13 -75l-29 -153h-106l140 725h93l-5 -56h2q67 65 145 65q75 0 105.5 -53t3.5 -191zM196 349l-49 -256q33 -12 77 -12q52 0 82.5 36.5t50.5 147.5q15 67 11 101.5t-15 44.5t-35 10q-29 0 -64 -22 t-58 -50z" />
<glyph unicode="q" horiz-adv-x="505" d="M344 -223h-106l35 184q4 20 8.5 41t8.5 35l3 14h-3q-64 -60 -140 -60q-36 0 -60 10.5t-41.5 37.5t-17.5 74.5t12 121.5q30 158 85 217t157 59q93 0 194 -36zM283 421q-52 0 -82.5 -37t-51.5 -148q-15 -66 -10.5 -100.5t15 -44.5t32.5 -10q31 0 64.5 21t58.5 51l51 257 q-31 11 -77 11z" />
<glyph unicode="r" horiz-adv-x="360" d="M23 0l97 502h93l-6 -57h3q62 64 133 64q41 0 54 -6l-34 -98q-27 5 -49 5q-63 0 -118 -62l-67 -348h-106z" />
<glyph unicode="s" horiz-adv-x="438" d="M-10 22l31 83q89 -26 163 -26q40 0 60 12t26 46q5 30 -6 47t-49 30l-29 10q-77 24 -103.5 54t-13.5 96q14 75 57.5 106t118.5 31q104 0 178 -26l-30 -81q-84 19 -144 19q-66 0 -76 -48q-4 -23 6 -39t50 -30l29 -10q79 -26 104 -60.5t10 -111.5q-24 -133 -186 -133 q-100 0 -196 31z" />
<glyph unicode="t" horiz-adv-x="347" d="M63 122l59 301h-70l15 79h71l34 130l99 10l-27 -140h126l-28 -79h-113l-59 -299q-6 -28 2 -36t33 -8q4 0 70 11v-82q-41 -18 -103 -18q-68 0 -96 26.5t-13 104.5z" />
<glyph unicode="u" horiz-adv-x="517" d="M116 502h107l-68 -346q-12 -75 38 -75q34 0 69 21.5t60 50.5l67 349h107l-97 -502h-94l3 53h-2q-67 -62 -157 -62q-51 0 -84.5 35.5t-18.5 115.5z" />
<glyph unicode="v" horiz-adv-x="501" d="M222 502l-64 -333q-18 -91 48 -91q44 0 82 40q47 47 67 150q18 101 -1 234h109q19 -129 -3 -234q-35 -183 -157 -247q-57 -33 -128 -33q-159 0 -125 178l66 336h106z" />
<glyph unicode="w" horiz-adv-x="754" d="M330 242l48 249h105l-61 -313q-20 -100 47 -100q50 0 87 58t52 132q20 103 1 234h103q20 -124 1 -234q-18 -110 -85.5 -195t-165.5 -85q-52 0 -82.5 23t-39.5 60q-65 -83 -163 -83q-75 0 -109 47t-18 131l66 336h106l-64 -333q-20 -91 44 -91q96 0 128 164z" />
<glyph unicode="x" horiz-adv-x="450" d="M-35 0l205 262l-91 240h112l29 -91l21 -75q9 19 51 78l61 88h119l-182 -240l102 -262h-115l-30 91l-27 94q-34 -47 -65 -91l-67 -94h-123z" />
<glyph unicode="y" horiz-adv-x="517" d="M117 502h106l-55 -280q-10 -54 20.5 -72.5t84.5 0.5q27 6 52 19l65 333h106l-98 -502q-45 -233 -241 -233q-78 0 -116.5 39t-26.5 105q21 105 141 166v2q-53 5 -79 42.5t-12 106.5zM294 -3l16 87q-1 0 -8.5 -3.5t-16.5 -7.5t-23.5 -11t-28.5 -15q-102 -53 -115 -123 q-6 -34 9 -52t45 -18q94 0 122 143z" />
<glyph unicode="z" horiz-adv-x="431" d="M-7 0l9 47l265 365h-178l18 90h327l-9 -43l-266 -369h211l-17 -90h-360z" />
<glyph unicode="{" horiz-adv-x="362" d="M224 -86h-23q-73 0 -102.5 30.5t-13.5 112.5l33 170q10 54 -4 71t-62 17l14 76q48 0 69 17t32 71l31 156q16 84 50.5 113.5t108.5 29.5h35l-14 -70h-31q-28 0 -41 -13.5t-18 -40.5l-35 -175q-21 -112 -89 -127q23 -8 37.5 -39t2.5 -91l-36 -185q-9 -53 37 -53h33z" />
<glyph unicode="|" horiz-adv-x="272" d="M7 -196l212 1088h86l-212 -1088h-86z" />
<glyph unicode="}" horiz-adv-x="362" d="M236 223l-32 -166q-17 -84 -49.5 -113.5t-102.5 -29.5h-43l13 70h32q50 0 60 53l36 185q23 117 89 130q-60 24 -40 127l35 176q5 26 -3 39.5t-36 13.5h-32l14 70h27q69 0 98.5 -31t13.5 -112l-29 -151q-11 -57 3.5 -75t62.5 -18l-15 -76q-48 0 -69.5 -17.5t-32.5 -74.5z " />
<glyph unicode="~" horiz-adv-x="541" d="M134 252l-46 50q32 37 57.5 53.5t62.5 16.5t64 -21t46.5 -42t38.5 -21q6 0 13 2t12 5t11.5 7.5t10 7.5t9 8.5l6.5 6.5l48 -50q-33 -37 -58.5 -53.5t-62.5 -16.5q-30 0 -54 13.5t-36.5 29t-28 29t-30.5 13.5q-13 0 -24 -6t-25 -19z" />
<glyph unicode="&#xa1;" horiz-adv-x="250" d="M193 320l-102 -516h-105l102 516h105zM227 501l-20 -98h-104l19 98h105z" />
<glyph unicode="&#xa2;" horiz-adv-x="549" d="M94 335q23 116 67 180t130 78l20 104h70l-20 -101q73 -4 112 -19l-33 -83q-52 13 -94 13q-61 0 -94 -40t-51 -132q-18 -97 -1 -132.5t79 -35.5q41 0 101 16l4 -83q-63 -22 -124 -23l-18 -94h-70l20 99q-77 15 -99.5 79t1.5 174z" />
<glyph unicode="&#xa3;" horiz-adv-x="547" d="M170 391l22 114q18 93 71.5 147t163.5 54q84 0 133 -20l-32 -81q-46 12 -91 12q-63 0 -95 -27.5t-43 -84.5l-22 -114h122l-13 -66h-123l-45 -235h245l-17 -90h-438l17 90h87l45 235h-71l13 66h71z" />
<glyph unicode="&#xa4;" horiz-adv-x="721" d="M105 73l-41 51l90 75q-38 69 -22 153q16 83 81 152l-63 76l62 51l60 -76q85 53 163 53q82 0 143 -55l89 75l41 -51l-90 -74q36 -74 21 -151q-17 -83 -78 -149l59 -75l-59 -50l-61 73q-80 -54 -165 -54q-78 0 -141 50zM351 175q72 0 133.5 52t75.5 125q15 73 -26 125 t-114 52t-134 -51.5t-75 -125.5q-14 -73 27.5 -125t112.5 -52z" />
<glyph unicode="&#xa5;" horiz-adv-x="546" d="M136 341h83l-109 356h113l59 -206q14 -51 18 -74h4q17 29 47 72l141 208h121l-251 -356h85l-13 -67h-103l-9 -51h102l-13 -67h-102l-30 -156h-108l30 156h-101l13 67h101l9 51h-100z" />
<glyph unicode="&#xa6;" horiz-adv-x="272" d="M132 444l87 448h86l-87 -448h-86zM7 -196l87 448h86l-87 -448h-86z" />
<glyph unicode="&#xa7;" horiz-adv-x="505" d="M-8 -81l32 87q85 -24 161 -24q62 0 87.5 14.5t32.5 54.5q7 31 -6 52t-61 41l-50 20q-69 28 -94 65t-11 108q12 63 75 99q-50 43 -32 127q30 142 214 142q45 0 96 -8t74 -17l-35 -85q-88 18 -143 18q-89 0 -101 -61q-6 -28 8.5 -44.5t55.5 -31.5l48 -18q72 -27 99 -68.5 t11 -124.5q-10 -52 -60 -100q32 -42 16 -125q-15 -81 -64 -115.5t-155 -34.5q-120 0 -198 29zM292 373l-47 17q-52 -13 -60 -58q-6 -31 6.5 -49t50.5 -33l52 -20l28 -12q24 20 31 56q3 19 2 36t-16.5 33.5t-46.5 29.5z" />
<glyph unicode="&#xa8;" horiz-adv-x="944" d="M512 640h-103l20 102h103zM689 640h-103l19 102h104z" />
<glyph unicode="&#xa9;" horiz-adv-x="825" d="M777 349q-33 -170 -137 -265.5t-262 -95.5q-161 0 -234 96t-41 265q33 172 136 267t261 95q161 0 235.5 -96t41.5 -266zM709 349q28 144 -25 222t-181 78q-134 0 -219.5 -78t-113.5 -222t24.5 -221.5t182.5 -77.5q132 0 218 78t114 221zM500 209l-1 -58q-50 -15 -96 -15 q-77 0 -100 47t0 169q24 124 61.5 168.5t121.5 44.5q48 0 89 -13l-21 -57q-45 7 -69 7q-46 0 -66.5 -26.5t-39.5 -123.5q-18 -100 -8.5 -126.5t56.5 -26.5q23 0 73 10z" />
<glyph unicode="&#xaa;" horiz-adv-x="334" d="M59 404q20 102 56 140.5t100 38.5q73 0 131 -25l-38 -197q-5 -25 0.5 -31t27.5 -2v-56q-28 -10 -59 -10q-45 0 -55 34h-2q-53 -37 -94 -37q-46 0 -64.5 32t-2.5 113zM215 513q-26 0 -41.5 -19t-27.5 -80q-9 -37 -7 -56t8 -24.5t18 -5.5q24 0 56 24l30 156q-15 5 -36 5z " />
<glyph unicode="&#xab;" horiz-adv-x="500" d="M119 54l-57 200l136 199h92l-144 -203l58 -196h-85zM305 54l-57 200l136 199h92l-144 -203l58 -196h-85z" />
<glyph unicode="&#xac;" d="M74 269l18 87h375l-43 -218h-86l25 131h-289z" />
<glyph unicode="&#xad;" horiz-adv-x="362" d="M39 243l16 86h284l-16 -86h-284z" />
<glyph unicode="&#xae;" horiz-adv-x="499" d="M500 501q-19 -101 -80.5 -154.5t-153.5 -53.5q-93 0 -136 54t-24 154q19 101 79.5 153.5t152.5 52.5q93 0 137 -53t25 -153zM457 501q32 168 -121 168q-155 0 -187 -168q-34 -169 119 -169q157 0 189 169zM211 389l45 230h69q76 0 61 -73q-8 -46 -42 -58q15 -11 20 -42 l8 -57h-51l-6 45q-4 20 -9.5 26.5t-18.5 6.5h-10l-14 -78h-52zM286 509h14q16 0 24 7.5t12 27.5q4 19 0 26t-21 7h-16z" />
<glyph unicode="&#xaf;" horiz-adv-x="506" d="M472 693h-264l14 71h264z" />
<glyph unicode="&#xb0;" horiz-adv-x="330" d="M117 592q11 56 48 85.5t88 29.5q52 0 81 -29.5t19 -85.5q-12 -57 -49 -87t-88 -30t-80.5 30.5t-18.5 86.5zM221 524q29 0 49 18.5t26 49.5t-6.5 49.5t-41.5 18.5q-28 0 -48.5 -18.5t-25.5 -49.5q-6 -30 6.5 -49t40.5 -19z" />
<glyph unicode="&#xb1;" horiz-adv-x="508" d="M203 179l31 161h-149l15 82h150l32 164h82l-32 -164h150l-16 -82h-150l-31 -161h-82zM19 0l16 82h381l-15 -82h-382z" />
<glyph unicode="&#xb2;" horiz-adv-x="308" d="M55 380l19 100q13 63 39.5 91.5t85.5 51.5l27 11q27 12 39.5 24.5t18.5 40.5q5 27 -3.5 38t-34.5 11q-31 0 -101 -13v65q72 18 120 18q63 0 88.5 -28t14.5 -88q-12 -58 -40.5 -87t-79.5 -50l-30 -13q-28 -11 -40 -27.5t-19 -51.5l-4 -23h164l-14 -70h-250z" />
<glyph unicode="&#xb3;" horiz-adv-x="296" d="M40 396l29 64q43 -16 90 -16q61 0 71 59q7 35 -5 51.5t-55 17.5l-40 1l13 65l42 2q38 1 54 15t22 44q11 49 -37 49q-37 0 -98 -16l-3 63q56 23 118 23q66 0 92.5 -28t14.5 -88q-6 -34 -26 -59t-42 -34q50 -23 35 -106q-14 -67 -50.5 -98t-106.5 -31q-68 0 -118 22z" />
<glyph unicode="&#xb4;" horiz-adv-x="281" d="M291 787l-109 -147h-87l92 147h104z" />
<glyph unicode="&#xb5;" d="M117 502h105l-68 -346q-14 -75 41 -75q56 0 116 54l72 367h104l-97 -502h-92l3 47h-3q-67 -54 -128 -54q-27 0 -48 9l-15 -90l-21 -110h-105l73 376z" />
<glyph unicode="&#xb6;" horiz-adv-x="592" d="M408 0l135 697h66l-135 -697h-66zM275 0l59 309h-90q-154 0 -124 152l17 86q29 150 183 150h156l-135 -697h-66z" />
<glyph unicode="&#xb7;" horiz-adv-x="233" d="M65 268l21 112h111l-22 -112h-110z" />
<glyph unicode="&#xb8;" horiz-adv-x="400" d="M10 -226l23 55q40 -11 60 -11q43 0 47 24q3 12 -7.5 22.5t-24.5 17.5t-24 21.5t-6 35.5q5 27 42 56h62q-33 -25 -38 -50q-2 -9 5.5 -17t18.5 -15.5t22 -16.5t16 -25.5t1 -37.5q-8 -41 -33 -57t-77 -16q-16 0 -38 3.5t-35 6.5z" />
<glyph unicode="&#xb9;" horiz-adv-x="220" d="M103 380l70 362h-59l13 70h144l-83 -432h-85z" />
<glyph unicode="&#xba;" horiz-adv-x="317" d="M167 258q-78 0 -100.5 38t-6.5 121q17 86 50.5 127t109.5 41t98 -42t5 -126q-16 -86 -48 -122.5t-108 -36.5zM175 326q27 0 41.5 19.5t24.5 72.5q10 50 3.5 73.5t-32.5 23.5q-27 0 -42 -22.5t-25 -74.5q-10 -53 -3.5 -72.5t33.5 -19.5z" />
<glyph unicode="&#xbb;" horiz-adv-x="500" d="M254 254l-136 -200h-93l145 206l-58 193h84zM440 254l-136 -200h-94l146 206l-58 193h84z" />
<glyph unicode="&#xbc;" horiz-adv-x="684" d="M81 265l70 362h-59l13 70h144l-83 -432h-85zM369 111l3 65l171 262l73 -29l-65 -98l-91 -130h96l24 85h77l-51 -266h-85l21 111h-173zM59 -22l483 740h80l-483 -740h-80z" />
<glyph unicode="&#xbd;" horiz-adv-x="723" d="M81 265l70 362h-59l13 70h144l-83 -432h-85zM398 0l19 100q12 62 39 91t86 52l26 11q28 12 40.5 24.5t17.5 40.5q6 27 -2.5 38t-34.5 11q-32 0 -102 -13l1 65q72 18 120 18q63 0 88.5 -28t13.5 -88q-11 -58 -39.5 -87t-79.5 -50l-30 -13q-28 -11 -40 -27.5t-19 -51.5 l-4 -23h164l-14 -70h-250zM59 -22l483 740h80l-483 -740h-80z" />
<glyph unicode="&#xbe;" horiz-adv-x="750" d="M18 281l29 64q43 -16 90 -16q61 0 71 59q7 35 -5 51.5t-55 17.5l-40 1l13 65l42 2q38 1 54 15t22 44q11 49 -37 49q-37 0 -98 -16l-3 63q56 23 118 23q66 0 92.5 -28t14.5 -88q-6 -34 -26 -59t-42 -34q50 -23 35 -106q-14 -67 -50.5 -98t-106.5 -31q-68 0 -118 22z M435 111l2 65l172 262l73 -29l-65 -98l-92 -130h97l24 85h77l-51 -266h-85l21 111h-173zM125 -22l483 740h80l-483 -740h-80z" />
<glyph unicode="&#xbf;" horiz-adv-x="408" d="M288 323l-16 -84q-10 -59 -32 -91t-71 -73l-37 -31q-41 -33 -52 -84q-9 -47 11 -62.5t66 -15.5q58 0 137 22l-1 -80q-93 -29 -164 -29q-185 0 -152 167q7 37 22.5 66t28.5 43t35 32l43 36q32 27 44.5 50t20.5 62l14 72h103zM323 501l-19 -98h-104l19 98h104z" />
<glyph unicode="&#xc0;" d="M-32 0l292 697h162l26 -697h-104l-6 164h-195l-65 -164h-110zM175 248h165l-11 360h-5zM313 748l-52 147h100l34 -147h-82z" />
<glyph unicode="&#xc1;" d="M-32 0l292 697h162l26 -697h-104l-6 164h-195l-65 -164h-110zM175 248h165l-11 360h-5zM502 895l-109 -147h-87l92 147h104z" />
<glyph unicode="&#xc2;" d="M-32 0l292 697h162l26 -697h-104l-6 164h-195l-65 -164h-110zM175 248h165l-11 360h-5zM206 749l142 147h65l86 -147h-81l-47 82l-77 -82h-88z" />
<glyph unicode="&#xc3;" d="M-32 0l292 697h162l26 -697h-104l-6 164h-195l-65 -164h-110zM175 248h165l-11 360h-5zM240 764l-24 43q44 50 99 50q32 0 63 -22t53 -22q26 0 58 32l26 -43q-48 -59 -102 -59q-32 0 -63 22t-54 22q-24 0 -56 -23z" />
<glyph unicode="&#xc4;" d="M-32 0l292 697h162l26 -697h-104l-6 164h-195l-65 -164h-110zM175 248h165l-11 360h-5zM317 748h-103l20 102h103zM494 748h-103l19 102h104z" />
<glyph unicode="&#xc5;" d="M-32 0l292 697h162l26 -697h-104l-6 164h-195l-65 -164h-110zM175 248h165l-11 360h-5zM271 846q10 49 43.5 77t82.5 28q48 0 71 -28t13 -77q-9 -49 -43 -77t-82 -28q-49 0 -71.5 28t-13.5 77zM325 846q-4 -25 7 -40t34 -15t39.5 14.5t21.5 40.5t-6 40.5t-34 14.5 t-40 -15t-22 -40z" />
<glyph unicode="&#xc6;" horiz-adv-x="702" d="M-41 0l320 697h466l-17 -92h-283l-2 -197h198l-18 -90h-181l-3 -226h197l-17 -92h-288l2 164h-194l-74 -164h-106zM178 248h158l8 360h-5z" />
<glyph unicode="&#xc7;" horiz-adv-x="469" d="M74 -214l23 55q40 -11 60 -11q43 0 47 24q3 12 -7.5 22.5t-24.5 17.5t-24 21.5t-6 35.5q3 21 31 47q-86 18 -110.5 94.5t7.5 257.5q17 92 38 153t55 109.5t85 71t123 22.5q35 0 83 -6.5t67 -13.5l-32 -84q-62 12 -116 12q-56 0 -89 -18.5t-59.5 -76t-47.5 -169.5 q-13 -69 -16.5 -116t1 -77t20 -46t36.5 -22t55 -6q31 0 124 17v-85q-79 -24 -141 -24q-19 0 -28 1q-17 -18 -20 -35q-2 -9 5.5 -17t18.5 -15.5t22 -16.5t16 -25.5t1 -37.5q-8 -41 -33 -57t-77 -16q-16 0 -38 3.5t-35 6.5z" />
<glyph unicode="&#xc8;" horiz-adv-x="483" d="M29 0l136 697h365l-19 -92h-257l-39 -197h209l-18 -90h-208l-44 -226h263l-18 -92h-370zM317 748l-52 147h100l34 -147h-82z" />
<glyph unicode="&#xc9;" horiz-adv-x="483" d="M29 0l136 697h365l-19 -92h-257l-39 -197h209l-18 -90h-208l-44 -226h263l-18 -92h-370zM508 895l-109 -147h-87l92 147h104z" />
<glyph unicode="&#xca;" horiz-adv-x="483" d="M29 0l136 697h365l-19 -92h-257l-39 -197h209l-18 -90h-208l-44 -226h263l-18 -92h-370zM209 748l142 147h65l86 -147h-81l-47 82l-77 -82h-88z" />
<glyph unicode="&#xcb;" horiz-adv-x="483" d="M29 0l136 697h365l-19 -92h-257l-39 -197h209l-18 -90h-208l-44 -226h263l-18 -92h-370zM321 748h-103l20 102h103zM498 748h-103l19 102h104z" />
<glyph unicode="&#xcc;" horiz-adv-x="260" d="M28 0l136 697h107l-136 -697h-107zM186 748l-52 147h100l34 -147h-82z" />
<glyph unicode="&#xcd;" horiz-adv-x="260" d="M28 0l136 697h107l-136 -697h-107zM376 895l-109 -147h-87l92 147h104z" />
<glyph unicode="&#xce;" horiz-adv-x="260" d="M28 0l136 697h107l-136 -697h-107zM78 748l142 147h65l86 -147h-81l-47 82l-77 -82h-88z" />
<glyph unicode="&#xcf;" horiz-adv-x="260" d="M28 0l136 697h107l-136 -697h-107zM189 748h-103l20 102h103zM366 748h-103l19 102h104z" />
<glyph unicode="&#xd0;" horiz-adv-x="564" d="M32 323l13 68h58l59 306h127q74 0 120.5 -8.5t80 -30t46 -61.5t11 -99t-18.5 -147q-18 -93 -36 -150.5t-43 -100t-63.5 -62.5t-87 -29t-125.5 -9h-145l62 323h-58zM153 92h34q50 0 79 5t55.5 18.5t42 44t29.5 75t28 118.5q12 61 16.5 102t0 69.5t-13 44t-30.5 24 t-44.5 10.5t-62.5 2h-35l-42 -214h111l-13 -68h-111z" />
<glyph unicode="&#xd1;" horiz-adv-x="608" d="M28 0l134 697h140l80 -420q13 -63 25 -161h3q9 63 45 259l61 322h102l-134 -697h-141l-75 404q-11 55 -28 175h-3q-18 -114 -52 -286l-55 -293h-102zM294 764l-24 43q44 50 99 50q32 0 63 -22t53 -22q26 0 58 32l26 -43q-48 -59 -102 -59q-32 0 -63 22t-54 22 q-24 0 -56 -23z" />
<glyph unicode="&#xd2;" horiz-adv-x="563" d="M68 342q37 192 102.5 279.5t199.5 87.5q90 0 135 -41t48.5 -120t-18.5 -195q-37 -191 -101.5 -278t-199.5 -87q-91 0 -135.5 40.5t-48.5 119t18 194.5zM249 80q75 0 112.5 62t67.5 213q14 71 17.5 117.5t-3.5 80.5t-28.5 49t-59.5 15q-75 0 -113 -62.5t-67 -213.5 q-30 -136 -15 -198.5t89 -62.5zM342 748l-52 147h100l34 -147h-82z" />
<glyph unicode="&#xd3;" horiz-adv-x="563" d="M68 342q37 192 102.5 279.5t199.5 87.5q90 0 135 -41t48.5 -120t-18.5 -195q-37 -191 -101.5 -278t-199.5 -87q-91 0 -135.5 40.5t-48.5 119t18 194.5zM249 80q75 0 112.5 62t67.5 213q14 71 17.5 117.5t-3.5 80.5t-28.5 49t-59.5 15q-75 0 -113 -62.5t-67 -213.5 q-30 -136 -15 -198.5t89 -62.5zM533 895l-109 -147h-87l92 147h104z" />
<glyph unicode="&#xd4;" horiz-adv-x="563" d="M68 342q37 192 102.5 279.5t199.5 87.5q90 0 135 -41t48.5 -120t-18.5 -195q-37 -191 -101.5 -278t-199.5 -87q-91 0 -135.5 40.5t-48.5 119t18 194.5zM249 80q75 0 112.5 62t67.5 213q14 71 17.5 117.5t-3.5 80.5t-28.5 49t-59.5 15q-75 0 -113 -62.5t-67 -213.5 q-30 -136 -15 -198.5t89 -62.5zM235 748l142 147h65l86 -147h-81l-47 82l-77 -82h-88z" />
<glyph unicode="&#xd5;" horiz-adv-x="563" d="M68 342q37 192 102.5 279.5t199.5 87.5q90 0 135 -41t48.5 -120t-18.5 -195q-37 -191 -101.5 -278t-199.5 -87q-91 0 -135.5 40.5t-48.5 119t18 194.5zM249 80q75 0 112.5 62t67.5 213q14 71 17.5 117.5t-3.5 80.5t-28.5 49t-59.5 15q-75 0 -113 -62.5t-67 -213.5 q-30 -136 -15 -198.5t89 -62.5zM270 764l-24 43q44 50 99 50q32 0 63 -22t53 -22q26 0 58 32l26 -43q-48 -59 -102 -59q-32 0 -63 22t-54 22q-24 0 -56 -23z" />
<glyph unicode="&#xd6;" horiz-adv-x="563" d="M68 342q37 192 102.5 279.5t199.5 87.5q90 0 135 -41t48.5 -120t-18.5 -195q-37 -191 -101.5 -278t-199.5 -87q-91 0 -135.5 40.5t-48.5 119t18 194.5zM249 80q75 0 112.5 62t67.5 213q14 71 17.5 117.5t-3.5 80.5t-28.5 49t-59.5 15q-75 0 -113 -62.5t-67 -213.5 q-30 -136 -15 -198.5t89 -62.5zM346 748h-103l20 102h103zM523 748h-103l19 102h104z" />
<glyph unicode="&#xd7;" horiz-adv-x="508" d="M83 104l-50 57l178 153l-120 154q9 8 30.5 27.5t34.5 30.5l122 -154l179 153l50 -58l-180 -153l118 -152l-63 -57l-119 153z" />
<glyph unicode="&#xd8;" horiz-adv-x="563" d="M47 -42l-46 29l65 88q-34 81 2 267q37 192 102.5 279.5t199.5 87.5q87 0 131 -38l51 69l46 -27l-63 -87q37 -79 0 -273q-37 -191 -101.5 -278t-199.5 -87q-92 0 -136 41zM249 80q75 0 113.5 62.5t68.5 212.5q21 110 17 170q-2 -3 -117 -177l-159 -236q22 -32 77 -32z M173 341q-22 -111 -19 -168q98 147 111 166l166 245q-23 33 -76 33q-76 0 -114.5 -62.5t-67.5 -213.5z" />
<glyph unicode="&#xd9;" horiz-adv-x="567" d="M57 181l101 516h107l-101 -515q-19 -102 85 -102q107 0 126 102l102 515h108l-102 -516q-20 -100 -79.5 -146.5t-162.5 -46.5q-105 0 -154 47.5t-30 145.5zM341 748l-52 147h100l34 -147h-82z" />
<glyph unicode="&#xda;" horiz-adv-x="567" d="M57 181l101 516h107l-101 -515q-19 -102 85 -102q107 0 126 102l102 515h108l-102 -516q-20 -100 -79.5 -146.5t-162.5 -46.5q-105 0 -154 47.5t-30 145.5zM532 895l-109 -147h-87l92 147h104z" />
<glyph unicode="&#xdb;" horiz-adv-x="567" d="M57 181l101 516h107l-101 -515q-19 -102 85 -102q107 0 126 102l102 515h108l-102 -516q-20 -100 -79.5 -146.5t-162.5 -46.5q-105 0 -154 47.5t-30 145.5zM234 748l142 147h65l86 -147h-81l-47 82l-77 -82h-88z" />
<glyph unicode="&#xdc;" horiz-adv-x="567" d="M57 181l101 516h107l-101 -515q-19 -102 85 -102q107 0 126 102l102 515h108l-102 -516q-20 -100 -79.5 -146.5t-162.5 -46.5q-105 0 -154 47.5t-30 145.5zM345 748h-103l20 102h103zM522 748h-103l19 102h104z" />
<glyph unicode="&#xdd;" horiz-adv-x="484" d="M142 0l57 307l-118 390h114l56 -206q13 -45 19 -74h2q6 10 14 22l18 27t15 23l137 208h121l-271 -390l-57 -307h-107zM494 895l-109 -147h-87l92 147h104z" />
<glyph unicode="&#xde;" horiz-adv-x="524" d="M180 251h72q65 0 97 28t46 99q13 70 -7 94t-89 24h-72zM244 588h56q124 0 172.5 -48t28.5 -163q-20 -108 -77 -163t-166 -55h-96l-30 -159h-107l132 697h107z" />
<glyph unicode="&#xdf;" horiz-adv-x="537" d="M20 -17l97 500q18 94 65 142.5t155 48.5q87 0 130 -39t31 -100q-9 -42 -50 -92.5t-45 -72.5q-4 -23 11.5 -46.5t35.5 -42.5t32.5 -58t2.5 -88q-15 -75 -53 -108.5t-120 -33.5q-67 0 -114 20l34 83q48 -12 76 -12q36 0 51 15t22 51q6 27 -2.5 49.5t-24 39t-31 34 t-23.5 43.5t-1 59q6 30 46 77t47 77q5 22 -9.5 39t-52.5 17q-53 0 -74.5 -25t-31.5 -74l-97 -502q-20 -100 -57 -141t-117 -57q-44 -9 -75 -14l-5 83q11 3 36 8t34 8q38 11 52 33.5t25 78.5z" />
<glyph unicode="&#xe0;" horiz-adv-x="512" d="M43 238q29 154 85.5 213.5t148.5 59.5q99 0 200 -36l-65 -344q-7 -38 1.5 -48.5t47.5 -1.5l-1 -74q-34 -12 -71 -12q-39 0 -57.5 16.5t-24.5 50.5h-3q-73 -71 -166 -71q-66 0 -94 54t-1 193zM281 421q-48 0 -79.5 -37.5t-52.5 -146.5q-13 -63 -11 -97.5t11.5 -46.5 t28.5 -12q71 0 131 72l49 257q-35 11 -77 11zM276 577l-52 147h100l34 -147h-82z" />
<glyph unicode="&#xe1;" horiz-adv-x="512" d="M43 238q29 154 85.5 213.5t148.5 59.5q99 0 200 -36l-65 -344q-7 -38 1.5 -48.5t47.5 -1.5l-1 -74q-34 -12 -71 -12q-39 0 -57.5 16.5t-24.5 50.5h-3q-73 -71 -166 -71q-66 0 -94 54t-1 193zM281 421q-48 0 -79.5 -37.5t-52.5 -146.5q-13 -63 -11 -97.5t11.5 -46.5 t28.5 -12q71 0 131 72l49 257q-35 11 -77 11zM467 724l-109 -147h-87l92 147h104z" />
<glyph unicode="&#xe2;" horiz-adv-x="512" d="M43 238q29 154 85.5 213.5t148.5 59.5q99 0 200 -36l-65 -344q-7 -38 1.5 -48.5t47.5 -1.5l-1 -74q-34 -12 -71 -12q-39 0 -57.5 16.5t-24.5 50.5h-3q-73 -71 -166 -71q-66 0 -94 54t-1 193zM281 421q-48 0 -79.5 -37.5t-52.5 -146.5q-13 -63 -11 -97.5t11.5 -46.5 t28.5 -12q71 0 131 72l49 257q-35 11 -77 11zM169 577l142 147h65l86 -147h-81l-47 82l-77 -82h-88z" />
<glyph unicode="&#xe3;" horiz-adv-x="512" d="M43 238q29 154 85.5 213.5t148.5 59.5q99 0 200 -36l-65 -344q-7 -38 1.5 -48.5t47.5 -1.5l-1 -74q-34 -12 -71 -12q-39 0 -57.5 16.5t-24.5 50.5h-3q-73 -71 -166 -71q-66 0 -94 54t-1 193zM281 421q-48 0 -79.5 -37.5t-52.5 -146.5q-13 -63 -11 -97.5t11.5 -46.5 t28.5 -12q71 0 131 72l49 257q-35 11 -77 11zM205 593l-24 43q44 50 99 50q32 0 63 -22t53 -22q26 0 58 32l26 -43q-48 -59 -102 -59q-32 0 -63 22t-54 22q-24 0 -56 -23z" />
<glyph unicode="&#xe4;" horiz-adv-x="512" d="M43 238q29 154 85.5 213.5t148.5 59.5q99 0 200 -36l-65 -344q-7 -38 1.5 -48.5t47.5 -1.5l-1 -74q-34 -12 -71 -12q-39 0 -57.5 16.5t-24.5 50.5h-3q-73 -71 -166 -71q-66 0 -94 54t-1 193zM281 421q-48 0 -79.5 -37.5t-52.5 -146.5q-13 -63 -11 -97.5t11.5 -46.5 t28.5 -12q71 0 131 72l49 257q-35 11 -77 11zM280 577h-103l20 102h103zM457 577h-103l19 102h104z" />
<glyph unicode="&#xe5;" horiz-adv-x="512" d="M43 238q29 154 85.5 213.5t148.5 59.5q99 0 200 -36l-65 -344q-7 -38 1.5 -48.5t47.5 -1.5l-1 -74q-34 -12 -71 -12q-39 0 -57.5 16.5t-24.5 50.5h-3q-73 -71 -166 -71q-66 0 -94 54t-1 193zM281 421q-48 0 -79.5 -37.5t-52.5 -146.5q-13 -63 -11 -97.5t11.5 -46.5 t28.5 -12q71 0 131 72l49 257q-35 11 -77 11zM230 675q10 49 43.5 77t82.5 28q48 0 71 -28t13 -77q-9 -49 -43 -77t-82 -28q-49 0 -71.5 28t-13.5 77zM284 675q-4 -25 7 -40t34 -15t39.5 14.5t21.5 40.5t-6 40.5t-34 14.5t-40 -15t-22 -40z" />
<glyph unicode="&#xe6;" horiz-adv-x="762" d="M307 511q91 0 118 -56q47 58 150 58q53 0 89.5 -15t51 -38t21 -50.5t-1.5 -52.5q-15 -79 -47 -107t-109 -28q-90 0 -149 19q-2 -6 -2 -8q-17 -89 0.5 -122t77.5 -33q62 0 149 26l2 -80q-70 -33 -176 -33q-124 0 -157 76q-85 -76 -193 -76q-66 0 -92 40t-14 103l2 10 q16 84 62 120t138 43q57 5 112 6l3 16q11 57 -0.5 75.5t-57.5 18.5q-80 0 -170 -30l-4 80q105 38 197 38zM173 76q80 0 138 69q0 35 10 93q-72 -2 -105 -8q-38 -7 -58 -27t-28 -59q-13 -68 43 -68zM447 319q55 -19 113 -19q33 0 48.5 13t21.5 44q13 74 -65 74 q-46 0 -74.5 -27t-43.5 -85z" />
<glyph unicode="&#xe7;" horiz-adv-x="411" d="M53 -214l23 55q40 -11 60 -11q43 0 47 24q3 12 -7.5 22.5t-24.5 17.5t-24 21.5t-6 35.5q3 19 28 44q-81 14 -104.5 78t1.5 176q27 135 82.5 198.5t167.5 63.5q77 0 129 -20l-33 -81q-44 11 -95 11q-60 0 -93.5 -40t-50.5 -132q-18 -99 -1.5 -133.5t79.5 -34.5 q47 0 101 16l3 -83q-58 -21 -129 -23q-15 -15 -19 -34q-2 -9 5.5 -17t18.5 -15.5t22 -16.5t16 -25.5t1 -37.5q-8 -41 -33 -57t-77 -16q-16 0 -38 3.5t-36 6.5z" />
<glyph unicode="&#xe8;" horiz-adv-x="477" d="M46 252q26 138 79 200t168 62q54 0 90.5 -15t51.5 -38.5t21 -53t-2 -58.5q-16 -79 -46 -103t-111 -24q-86 0 -146 19q-2 -7 -2 -8q-17 -89 1 -122t78 -33q64 0 149 26l3 -80q-73 -33 -174 -33q-114 0 -149.5 62.5t-10.5 198.5zM169 319q55 -19 115 -19q35 0 47.5 12.5 t18.5 44.5q7 34 -9 54t-55 20q-90 0 -117 -112zM279 577l-52 147h100l34 -147h-82z" />
<glyph unicode="&#xe9;" horiz-adv-x="477" d="M46 252q26 138 79 200t168 62q54 0 90.5 -15t51.5 -38.5t21 -53t-2 -58.5q-16 -79 -46 -103t-111 -24q-86 0 -146 19q-2 -7 -2 -8q-17 -89 1 -122t78 -33q64 0 149 26l3 -80q-73 -33 -174 -33q-114 0 -149.5 62.5t-10.5 198.5zM169 319q55 -19 115 -19q35 0 47.5 12.5 t18.5 44.5q7 34 -9 54t-55 20q-90 0 -117 -112zM469 724l-109 -147h-87l92 147h104z" />
<glyph unicode="&#xea;" horiz-adv-x="477" d="M46 252q26 138 79 200t168 62q54 0 90.5 -15t51.5 -38.5t21 -53t-2 -58.5q-16 -79 -46 -103t-111 -24q-86 0 -146 19q-2 -7 -2 -8q-17 -89 1 -122t78 -33q64 0 149 26l3 -80q-73 -33 -174 -33q-114 0 -149.5 62.5t-10.5 198.5zM169 319q55 -19 115 -19q35 0 47.5 12.5 t18.5 44.5q7 34 -9 54t-55 20q-90 0 -117 -112zM171 577l142 147h65l86 -147h-81l-47 82l-77 -82h-88z" />
<glyph unicode="&#xeb;" horiz-adv-x="477" d="M46 252q26 138 79 200t168 62q54 0 90.5 -15t51.5 -38.5t21 -53t-2 -58.5q-16 -79 -46 -103t-111 -24q-86 0 -146 19q-2 -7 -2 -8q-17 -89 1 -122t78 -33q64 0 149 26l3 -80q-73 -33 -174 -33q-114 0 -149.5 62.5t-10.5 198.5zM169 319q55 -19 115 -19q35 0 47.5 12.5 t18.5 44.5q7 34 -9 54t-55 20q-90 0 -117 -112zM282 577h-103l20 102h103zM459 577h-103l19 102h104z" />
<glyph unicode="&#xec;" horiz-adv-x="255" d="M27 0l97 502h106l-97 -502h-106zM152 577l-52 147h100l34 -147h-82z" />
<glyph unicode="&#xed;" horiz-adv-x="255" d="M27 0l97 502h106l-97 -502h-106zM342 724l-109 -147h-87l92 147h104z" />
<glyph unicode="&#xee;" horiz-adv-x="255" d="M27 0l97 502h106l-97 -502h-106zM45 577l142 147h65l86 -147h-81l-47 82l-77 -82h-88z" />
<glyph unicode="&#xef;" horiz-adv-x="255" d="M27 0l97 502h106l-97 -502h-106zM332 577h-103l19 102h104zM155 577h-103l20 102h103z" />
<glyph unicode="&#xf0;" horiz-adv-x="493" d="M458 630l-59 -26q40 -46 55 -109.5t11 -121.5t-19 -134q-28 -134 -81 -192.5t-168 -58.5q-111 0 -145 59.5t-8 188.5q49 258 227 258q48 0 92 -21q-11 51 -52 91l-110 -49l-18 49l82 37q-32 20 -70 33l36 72q78 -26 126 -63l82 37zM342 250q19 103 16 140q-25 18 -81 18 q-49 0 -79.5 -41t-47.5 -131q-16 -89 -2.5 -123.5t62.5 -34.5q54 0 83 37t49 135z" />
<glyph unicode="&#xf1;" horiz-adv-x="517" d="M23 0l96 502h94l-5 -56h2q67 65 155 65q52 0 87 -35.5t19 -115.5l-69 -360h-106l66 345q15 76 -37 76q-34 0 -70 -22t-59 -50l-67 -349h-106zM216 593l-24 43q44 50 99 50q32 0 63 -22t53 -22q26 0 58 32l26 -43q-48 -59 -102 -59q-32 0 -63 22t-54 22q-24 0 -56 -23z " />
<glyph unicode="&#xf2;" horiz-adv-x="497" d="M202 -12q-116 0 -149.5 60t-7.5 195q27 140 81.5 205.5t168.5 65.5q115 0 148.5 -67t8.5 -204q-27 -137 -80.5 -196t-169.5 -59zM216 78q54 0 83 35t47 131q18 94 4 137t-67 43t-83 -42t-47 -138q-19 -98 -5 -132t68 -34zM275 577l-52 147h100l34 -147h-82z" />
<glyph unicode="&#xf3;" horiz-adv-x="497" d="M202 -12q-116 0 -149.5 60t-7.5 195q27 140 81.5 205.5t168.5 65.5q115 0 148.5 -67t8.5 -204q-27 -137 -80.5 -196t-169.5 -59zM216 78q54 0 83 35t47 131q18 94 4 137t-67 43t-83 -42t-47 -138q-19 -98 -5 -132t68 -34zM466 724l-109 -147h-87l92 147h104z" />
<glyph unicode="&#xf4;" horiz-adv-x="497" d="M202 -12q-116 0 -149.5 60t-7.5 195q27 140 81.5 205.5t168.5 65.5q115 0 148.5 -67t8.5 -204q-27 -137 -80.5 -196t-169.5 -59zM216 78q54 0 83 35t47 131q18 94 4 137t-67 43t-83 -42t-47 -138q-19 -98 -5 -132t68 -34zM167 577l142 147h65l86 -147h-81l-47 82l-77 -82 h-88z" />
<glyph unicode="&#xf5;" horiz-adv-x="497" d="M202 -12q-116 0 -149.5 60t-7.5 195q27 140 81.5 205.5t168.5 65.5q115 0 148.5 -67t8.5 -204q-27 -137 -80.5 -196t-169.5 -59zM216 78q54 0 83 35t47 131q18 94 4 137t-67 43t-83 -42t-47 -138q-19 -98 -5 -132t68 -34zM204 593l-24 43q44 50 99 50q32 0 63 -22t53 -22 q26 0 58 32l26 -43q-48 -59 -102 -59q-32 0 -63 22t-54 22q-24 0 -56 -23z" />
<glyph unicode="&#xf6;" horiz-adv-x="497" d="M202 -12q-116 0 -149.5 60t-7.5 195q27 140 81.5 205.5t168.5 65.5q115 0 148.5 -67t8.5 -204q-27 -137 -80.5 -196t-169.5 -59zM216 78q54 0 83 35t47 131q18 94 4 137t-67 43t-83 -42t-47 -138q-19 -98 -5 -132t68 -34zM279 577h-103l20 102h103zM456 577h-103l19 102 h104z" />
<glyph unicode="&#xf7;" horiz-adv-x="508" d="M239 443l18 93h107l-18 -93h-107zM170 89l19 94h107l-19 -94h-107zM59 272l16 82h400l-15 -82h-401z" />
<glyph unicode="&#xf8;" horiz-adv-x="497" d="M209 -12q-76 0 -119 26l-47 -56l-44 32l53 64q-33 60 -7 189q14 69 31 116t44.5 84t69.5 54t101 17q74 0 117 -30l48 59l45 -32l-57 -69q33 -64 8 -199q-27 -138 -78 -196.5t-165 -58.5zM216 77q54 0 83.5 35.5t47.5 131.5q12 72 8 112q-22 -38 -113 -152l-86 -107 q17 -20 60 -20zM152 244q-14 -69 -11 -103q50 70 104 137l97 121q-18 26 -59 26q-53 0 -83 -42.5t-48 -138.5z" />
<glyph unicode="&#xf9;" horiz-adv-x="517" d="M116 502h107l-68 -346q-12 -75 38 -75q34 0 69 21.5t60 50.5l67 349h107l-97 -502h-94l3 53h-2q-67 -62 -157 -62q-51 0 -84.5 35.5t-18.5 115.5zM280 577l-52 147h100l34 -147h-82z" />
<glyph unicode="&#xfa;" horiz-adv-x="517" d="M116 502h107l-68 -346q-12 -75 38 -75q34 0 69 21.5t60 50.5l67 349h107l-97 -502h-94l3 53h-2q-67 -62 -157 -62q-51 0 -84.5 35.5t-18.5 115.5zM470 724l-109 -147h-87l92 147h104z" />
<glyph unicode="&#xfb;" horiz-adv-x="517" d="M116 502h107l-68 -346q-12 -75 38 -75q34 0 69 21.5t60 50.5l67 349h107l-97 -502h-94l3 53h-2q-67 -62 -157 -62q-51 0 -84.5 35.5t-18.5 115.5zM172 577l142 147h65l86 -147h-81l-47 82l-77 -82h-88z" />
<glyph unicode="&#xfc;" horiz-adv-x="517" d="M116 502h107l-68 -346q-12 -75 38 -75q34 0 69 21.5t60 50.5l67 349h107l-97 -502h-94l3 53h-2q-67 -62 -157 -62q-51 0 -84.5 35.5t-18.5 115.5zM460 577h-103l19 102h104zM283 577h-103l20 102h103z" />
<glyph unicode="&#xfd;" horiz-adv-x="517" d="M117 502h106l-55 -280q-10 -54 20.5 -72.5t84.5 0.5q27 6 52 19l65 333h106l-98 -502q-45 -233 -241 -233q-78 0 -116.5 39t-26.5 105q21 105 141 166v2q-53 5 -79 42.5t-12 106.5zM294 -3l16 87q-1 0 -8.5 -3.5t-16.5 -7.5t-23.5 -11t-28.5 -15q-102 -53 -115 -123 q-6 -34 9 -52t45 -18q94 0 122 143zM474 724l-109 -147h-87l92 147h104z" />
<glyph unicode="&#xfe;" horiz-adv-x="505" d="M115 -73l-29 -150h-106l184 945h106l-36 -181q-4 -21 -9 -44t-9 -37.5t-4 -15.5h3q69 67 143 67q77 0 105 -52.5t0 -192.5q-29 -156 -84 -215.5t-146 -59.5q-56 0 -104 14q-6 -39 -14 -78zM228 81q49 0 78 36.5t51 146.5q15 67 12.5 102t-12.5 45t-35 10q-30 0 -65 -21.5 t-60 -50.5l-49 -256q34 -12 80 -12z" />
<glyph unicode="&#xff;" horiz-adv-x="517" d="M117 502h106l-55 -280q-10 -54 20.5 -72.5t84.5 0.5q27 6 52 19l65 333h106l-98 -502q-45 -233 -241 -233q-78 0 -116.5 39t-26.5 105q21 105 141 166v2q-53 5 -79 42.5t-12 106.5zM294 -3l16 87q-1 0 -8.5 -3.5t-16.5 -7.5t-23.5 -11t-28.5 -15q-102 -53 -115 -123 q-6 -34 9 -52t45 -18q94 0 122 143zM283 577h-103l20 102h103zM460 577h-103l19 102h104z" />
<glyph unicode="&#x152;" horiz-adv-x="760" d="M66 348q36 186 99 273t185 87q50 0 91 -18l1 7h365l-18 -92h-256l-38 -197h208l-18 -90h-208l-42 -226h263l-18 -92h-370l1 4q-43 -15 -87 -15q-84 0 -127 41t-48 120.5t17 197.5zM257 80q39 0 71 17l95 500q-30 20 -73 20q-76 0 -112.5 -60.5t-64.5 -208.5 q-30 -140 -14 -204t98 -64z" />
<glyph unicode="&#x153;" horiz-adv-x="772" d="M203 -12q-115 0 -149.5 60.5t-8.5 194.5q28 141 80 206t165 65q98 0 134 -75q55 75 168 75q101 0 136 -48t23 -109q-14 -76 -45.5 -105.5t-113.5 -29.5q-86 0 -146 19q-2 -6 -2 -8q-17 -89 1 -122t78 -33q62 0 149 26l1 -80q-70 -33 -176 -33q-107 0 -139 65 q-56 -68 -155 -68zM214 78q53 0 80.5 35t45.5 131q19 94 5.5 137t-64.5 43t-80.5 -42t-48.5 -138q-18 -98 -4.5 -132t66.5 -34zM464 319q54 -19 112 -19q36 0 50 13.5t20 43.5q7 34 -9.5 54t-55.5 20q-46 0 -74 -27t-43 -85z" />
<glyph unicode="&#x178;" horiz-adv-x="484" d="M142 0l57 307l-118 390h114l56 -206q13 -45 19 -74h2q6 10 14 22l18 27t15 23l137 208h121l-271 -390l-57 -307h-107zM307 748h-103l20 102h103zM484 748h-103l19 102h104z" />
<glyph unicode="&#x2c6;" horiz-adv-x="304" d="M83 640l142 147h65l86 -147h-81l-47 82l-77 -82h-88z" />
<glyph unicode="&#x2dc;" horiz-adv-x="484" d="M229 716l-24 43q44 50 99 50q32 0 63 -22t53 -22q26 0 58 32l26 -43q-48 -59 -102 -59q-32 0 -63 22t-54 22q-24 0 -56 -23z" />
<glyph unicode="&#x1e9e;" horiz-adv-x="588" d="M23 0l87 442q14 75 31.5 120.5t47.5 80t76 49t115 14.5q104 0 200 -33l-18 -91q-59 -44 -83 -73.5t-31 -66.5q-6 -28 3.5 -52t26 -41.5t32.5 -44.5t22.5 -60.5t-3.5 -89.5q-31 -161 -197 -161q-73 0 -126 22l34 83q72 -15 92 -15q45 0 65 22.5t28 62.5q7 38 -1 68 t-24.5 47.5t-32.5 42t-24 51t0 74.5q18 85 114 157q-34 11 -89 11q-74 0 -103 -36.5t-49 -140.5l-87 -442h-106z" />
<glyph unicode="&#x2000;" horiz-adv-x="475" />
<glyph unicode="&#x2001;" horiz-adv-x="951" />
<glyph unicode="&#x2002;" horiz-adv-x="475" />
<glyph unicode="&#x2003;" horiz-adv-x="951" />
<glyph unicode="&#x2004;" horiz-adv-x="317" />
<glyph unicode="&#x2005;" horiz-adv-x="237" />
<glyph unicode="&#x2006;" horiz-adv-x="158" />
<glyph unicode="&#x2007;" horiz-adv-x="158" />
<glyph unicode="&#x2008;" horiz-adv-x="118" />
<glyph unicode="&#x2009;" horiz-adv-x="190" />
<glyph unicode="&#x200a;" horiz-adv-x="52" />
<glyph unicode="&#x2010;" horiz-adv-x="362" d="M39 243l16 86h284l-16 -86h-284z" />
<glyph unicode="&#x2011;" horiz-adv-x="362" d="M39 243l16 86h284l-16 -86h-284z" />
<glyph unicode="&#x2012;" horiz-adv-x="362" d="M39 243l16 86h284l-16 -86h-284z" />
<glyph unicode="&#x2013;" horiz-adv-x="499" d="M39 243l16 87h421l-17 -87h-420z" />
<glyph unicode="&#x2014;" horiz-adv-x="989" d="M39 243l16 87h911l-17 -87h-910z" />
<glyph unicode="&#x2018;" horiz-adv-x="243" d="M204 722h88q-6 -8 -19.5 -30.5t-35.5 -73.5t-31 -97h-92q9 47 32 98t37 72.5t21 30.5z" />
<glyph unicode="&#x2019;" horiz-adv-x="243" d="M186 521h-88q69 116 86 201h92q-9 -47 -32 -97.5t-37 -73t-21 -30.5z" />
<glyph unicode="&#x201a;" horiz-adv-x="243" d="M67 -91h-88q6 8 19.5 30.5t35 73t30.5 96.5h92q-9 -47 -31.5 -97.5t-36.5 -72t-21 -30.5z" />
<glyph unicode="&#x201c;" horiz-adv-x="406" d="M367 722h88q-4 -4 -19.5 -29.5t-37 -75.5t-30.5 -96h-92q9 47 31.5 97t38.5 74.5t21 29.5zM204 722h88q-6 -8 -19.5 -30.5t-35.5 -73.5t-31 -97h-92q9 47 32 98t37 72.5t21 30.5z" />
<glyph unicode="&#x201d;" horiz-adv-x="406" d="M348 521h-88q69 116 86 201h93q-9 -47 -31.5 -96.5t-38 -74t-21.5 -30.5zM186 521h-88q69 116 86 201h92q-9 -47 -32 -97.5t-37 -73t-21 -30.5z" />
<glyph unicode="&#x201e;" horiz-adv-x="407" d="M230 -91h-87l4 7q4 6 10 16.5l14 24.5t16 31.5t15.5 36.5t14.5 41t11 43h92q-9 -47 -31 -96.5t-38 -74t-21 -29.5zM67 -91h-88q6 8 19.5 30.5t35 73t30.5 96.5h92q-9 -47 -31.5 -97.5t-36.5 -72t-21 -30.5z" />
<glyph unicode="&#x2022;" horiz-adv-x="279" d="M64 269l32 162h160l-32 -162h-160z" />
<glyph unicode="&#x2026;" horiz-adv-x="783" d="M31 0l21 110h124l-21 -110h-124zM282 0l22 110h124l-22 -110h-124zM534 0l21 110h124l-22 -110h-123z" />
<glyph unicode="&#x202f;" horiz-adv-x="190" />
<glyph unicode="&#x2039;" horiz-adv-x="311" d="M117 54l-57 200l136 199h92l-144 -203l58 -196h-85z" />
<glyph unicode="&#x203a;" horiz-adv-x="311" d="M252 254l-135 -200h-94l145 206l-58 193h84z" />
<glyph unicode="&#x205f;" horiz-adv-x="237" />
<glyph unicode="&#x20ac;" horiz-adv-x="548" d="M358 390h-106q-6 -26 -8 -39l-7 -38h106l-14 -70h-103q-11 -99 11.5 -129.5t89.5 -30.5q40 0 120 17v-85q-82 -24 -143 -24q-115 0 -158 53t-26 199h-64l14 70h60l7 38q2 13 8 39h-60l13 70h63q39 142 99 194t172 52q85 0 141 -20l-32 -83q-63 11 -111 11q-66 0 -100 -29 t-61 -125h102z" />
<glyph unicode="&#x2116;" horiz-adv-x="908" d="M608 239l13 72h283l-14 -72h-282zM25 0l132 697h140l82 -420q14 -68 25 -158h3q7 52 44 256l60 322h102l-132 -697h-141l-78 404q-9 50 -27 174h-4q-12 -86 -50 -285l-54 -293h-102zM771 358q-87 0 -111.5 37.5t-8.5 120.5q17 85 57 126.5t126 41.5q87 0 111 -41.5 t7 -126.5q-16 -83 -55 -120.5t-126 -37.5zM785 429q33 0 48.5 18.5t25.5 70.5q11 48 2.5 71t-40.5 23t-48.5 -22t-26.5 -72q-10 -52 -2 -70.5t41 -18.5z" />
<glyph unicode="&#x2122;" horiz-adv-x="652" d="M622 348h-56l26 186l15 93h-2q-10 -26 -29 -65l-76 -161h-54l-14 161l-2 65h-3q-10 -53 -21 -94l-46 -185h-57l87 349h79l13 -169l2 -66h3q10 29 27 67l78 168h79zM133 348l58 300h-77l10 49h212l-10 -49h-76l-59 -300h-58z" />
<glyph unicode="&#x25fc;" horiz-adv-x="500" d="M0 500h500v-500h-500v500z" />
<glyph unicode="&#xfb06;" horiz-adv-x="775" d="M491 122l59 301h-70l15 79h71l29 117q-42 10 -89 10q-89 0 -103 -69q-6 -38 20 -75l-31 -83q-91 21 -143 21q-66 0 -76 -48q-4 -23 6 -39t50 -30l29 -10q79 -26 104 -60.5t10 -111.5q-24 -133 -186 -133q-100 0 -196 31l33 85q96 -28 161 -28q40 0 60 12t26 46 q5 30 -6 47t-49 30l-29 10q-77 24 -103.5 54t-13.5 96q14 75 57.5 106t118.5 31q39 0 80 -6q-16 37 -7 80q12 56 60 87.5t132 31.5q98 0 195 -31l-33 -171h126l-27 -79h-114l-59 -299q-6 -28 2 -36t33 -8q4 0 70 11v-82q-41 -18 -103 -18q-68 0 -96 26.5t-13 104.5z" />
<glyph horiz-adv-x="362" d="M50 299l16 87h284l-16 -87h-284z" />
<glyph horiz-adv-x="499" d="M50 300l16 86h421l-17 -86h-420z" />
<glyph horiz-adv-x="989" d="M50 300l16 86h911l-17 -86h-910z" />
<glyph horiz-adv-x="36" d="M-26 320l20 105h94l-20 -105h-94z" />
<glyph horiz-adv-x="1" d="M-108 320l20 105h94l-21 -105h-93z" />
<glyph horiz-adv-x="572" d="M551 497l8 -89l-74 -22q1 -8 5.5 -35.5t6 -43.5t3.5 -40.5t1 -47t-5 -43.5q-36 -188 -259 -188q-111 0 -164 50.5t-32 159.5q25 124 152 181l1 3q-43 22 -57 59t-3 98q33 167 215 167q78 0 135 -18l-31 -84q-43 10 -97 10q-53 0 -81 -21.5t-38 -68.5q-15 -83 65 -100 q38 11 129.5 38t119.5 35zM383 355q-122 -39 -141 -48q-79 -36 -97 -119q-10 -54 13.5 -81t87.5 -27q126 0 146 110q12 62 -9 165z" />
<glyph horiz-adv-x="469" d="M397 100v-85q-79 -24 -141 -24q-55 0 -92 9.5t-64.5 33t-38.5 64t-9 103t18 149.5q17 92 38 153t55 109.5t85 71t123 22.5q35 0 83 -6.5t67 -13.5l-32 -84q-62 12 -116 12q-56 0 -89 -18.5t-59.5 -76t-47.5 -169.5q-13 -69 -16.5 -116t1 -77t20 -46t36.5 -22t55 -6 q31 0 124 17zM184 -206h-82q8 7 20 20.5t30 52t14 74.5h93q3 -25 -4 -50t-18.5 -41.5t-23.5 -29.5t-21 -20z" />
<glyph horiz-adv-x="563" d="M68 342q37 192 102.5 279.5t199.5 87.5q90 0 135 -41t48.5 -120t-18.5 -195q-37 -191 -101.5 -278t-199.5 -87q-91 0 -135.5 40.5t-48.5 119t18 194.5zM249 80q75 0 112.5 62t67.5 213q14 71 17.5 117.5t-3.5 80.5t-28.5 49t-59.5 15q-75 0 -113 -62.5t-67 -213.5 q-30 -136 -15 -198.5t89 -62.5zM504 895l-84 -147h-77l67 147h94z" />
<glyph horiz-adv-x="492" d="M377 0h-91l3 54h-3q-67 -63 -149 -63q-70 0 -97 39.5t-16 103.5l2 10q14 80 58 117t139 46q44 5 110 6l3 16q11 57 0 75.5t-56 18.5q-81 0 -168 -30l-5 80q105 38 203 38q77 0 113 -39.5t17 -143.5zM301 150l17 87q-73 -2 -107 -8q-40 -7 -57 -25.5t-24 -59.5 q-14 -68 44 -68q33 0 67.5 22t59.5 52z" />
<glyph horiz-adv-x="482" d="M45 250q27 139 80 201.5t168 62.5q118 0 149.5 -69t-17.5 -215h-278q-16 -87 3.5 -119.5t79.5 -32.5t153 29l4 -80q-80 -36 -179 -36q-116 0 -152 62t-11 197zM165 310h174q39 121 -52 121q-49 0 -77 -29t-45 -92z" />
<glyph horiz-adv-x="338" d="M47 0l80 423h-70l15 79h70l17 85q17 84 56 113t104 29q68 0 133 -13l-30 -81q-58 7 -86 7q-32 0 -48 -12.5t-24 -53.5l-16 -74h138l-27 -79h-126l-80 -423h-106z" />
<glyph horiz-adv-x="505" d="M69 -233l1 84q84 14 121 25q39 12 59 35.5t31 75.5l15 74h-2q-67 -61 -151 -61q-68 0 -96.5 53.5t-2.5 185.5q29 156 83.5 214t156.5 58q98 0 194 -36l-93 -492q-18 -95 -59.5 -136t-117.5 -56q-67 -14 -139 -24zM150 241q-15 -64 -10.5 -97.5t14.5 -43.5t30 -10 q33 0 67.5 21t58.5 50l49 249q-37 11 -77 11q-52 0 -82 -36t-50 -144z" />
<glyph horiz-adv-x="248" d="M23 0l141 722h106l-141 -722h-106z" />
<glyph horiz-adv-x="327" d="M42 122l98 509l109 11l-28 -140h127l-28 -79h-114l-57 -299q-6 -28 2 -36t33 -8q9 0 21 1.5t21.5 3.5t18 4t9.5 2v-82q-39 -18 -103 -18q-69 0 -96.5 26.5t-12.5 104.5z" />
<glyph horiz-adv-x="518" d="M149 1q-51 0 -84 35t-18 115l69 351h107l-66 -337q-14 -75 37 -75q34 0 68.5 21.5t59.5 50.5l67 340h107l-101 -519q-18 -98 -54.5 -134.5t-120.5 -57.5q-57 -13 -139 -24l1 84q75 13 121 25q46 13 62.5 33.5t27.5 74.5l18 82h-2q-65 -65 -160 -65z" />
<glyph horiz-adv-x="492" d="M377 0h-91l3 54h-3q-67 -63 -149 -63q-70 0 -97 39.5t-16 103.5l2 10q14 80 58 117t139 46q44 5 110 6l3 16q11 57 0 75.5t-56 18.5q-81 0 -168 -30l-5 80q105 38 203 38q77 0 113 -39.5t17 -143.5zM301 150l17 87q-73 -2 -107 -8q-40 -7 -57 -25.5t-24 -59.5 q-14 -68 44 -68q33 0 67.5 22t59.5 52zM287 577l-52 147h100l34 -147h-82z" />
<glyph horiz-adv-x="492" d="M377 0h-91l3 54h-3q-67 -63 -149 -63q-70 0 -97 39.5t-16 103.5l2 10q14 80 58 117t139 46q44 5 110 6l3 16q11 57 0 75.5t-56 18.5q-81 0 -168 -30l-5 80q105 38 203 38q77 0 113 -39.5t17 -143.5zM301 150l17 87q-73 -2 -107 -8q-40 -7 -57 -25.5t-24 -59.5 q-14 -68 44 -68q33 0 67.5 22t59.5 52zM478 724l-109 -147h-87l92 147h104z" />
<glyph horiz-adv-x="492" d="M377 0h-91l3 54h-3q-67 -63 -149 -63q-70 0 -97 39.5t-16 103.5l2 10q14 80 58 117t139 46q44 5 110 6l3 16q11 57 0 75.5t-56 18.5q-81 0 -168 -30l-5 80q105 38 203 38q77 0 113 -39.5t17 -143.5zM301 150l17 87q-73 -2 -107 -8q-40 -7 -57 -25.5t-24 -59.5 q-14 -68 44 -68q33 0 67.5 22t59.5 52zM179 577l142 147h65l86 -147h-81l-47 82l-77 -82h-88z" />
<glyph horiz-adv-x="492" d="M377 0h-91l3 54h-3q-67 -63 -149 -63q-70 0 -97 39.5t-16 103.5l2 10q14 80 58 117t139 46q44 5 110 6l3 16q11 57 0 75.5t-56 18.5q-81 0 -168 -30l-5 80q105 38 203 38q77 0 113 -39.5t17 -143.5zM301 150l17 87q-73 -2 -107 -8q-40 -7 -57 -25.5t-24 -59.5 q-14 -68 44 -68q33 0 67.5 22t59.5 52zM215 593l-24 43q44 50 99 50q32 0 63 -22t53 -22q26 0 58 32l26 -43q-48 -59 -102 -59q-32 0 -63 22t-54 22q-24 0 -56 -23z" />
<glyph horiz-adv-x="492" d="M377 0h-91l3 54h-3q-67 -63 -149 -63q-70 0 -97 39.5t-16 103.5l2 10q14 80 58 117t139 46q44 5 110 6l3 16q11 57 0 75.5t-56 18.5q-81 0 -168 -30l-5 80q105 38 203 38q77 0 113 -39.5t17 -143.5zM301 150l17 87q-73 -2 -107 -8q-40 -7 -57 -25.5t-24 -59.5 q-14 -68 44 -68q33 0 67.5 22t59.5 52zM468 577h-103l19 102h104zM291 577h-103l20 102h103z" />
<glyph horiz-adv-x="492" d="M377 0h-91l3 54h-3q-67 -63 -149 -63q-70 0 -97 39.5t-16 103.5l2 10q14 80 58 117t139 46q44 5 110 6l3 16q11 57 0 75.5t-56 18.5q-81 0 -168 -30l-5 80q105 38 203 38q77 0 113 -39.5t17 -143.5zM240 675q10 49 43.5 77t82.5 28q48 0 71 -28t13 -77q-9 -49 -43 -77 t-82 -28q-49 0 -71.5 28t-13.5 77zM301 150l17 87q-73 -2 -107 -8q-40 -7 -57 -25.5t-24 -59.5q-14 -68 44 -68q33 0 67.5 22t59.5 52zM294 675q-4 -25 7 -40t34 -15t39.5 14.5t21.5 40.5t-6 40.5t-34 14.5t-40 -15t-22 -40z" />
<glyph horiz-adv-x="761" d="M307 511q94 0 119 -58q52 58 148 58q95 0 134 -42.5t23 -133.5q-8 -48 -28 -105h-276q-17 -87 1.5 -119.5t78.5 -32.5q61 0 146 26l3 -80q-70 -33 -173 -33q-127 0 -158 77q-86 -77 -194 -77q-66 0 -92 40t-14 103l2 10q16 83 62.5 119.5t131.5 43.5q56 5 118 6l3 16 q11 57 -0.5 75.5t-57.5 18.5q-80 0 -170 -30l-4 80q105 38 197 38zM173 76q39 0 76 19.5t63 51.5q0 40 9 91q-72 -2 -105 -8q-38 -7 -58 -27t-28 -59q-13 -68 43 -68zM444 310h173q8 25 11 41q8 42 -8.5 59.5t-53.5 17.5q-49 0 -77.5 -28t-44.5 -90z" />
<glyph horiz-adv-x="482" d="M45 250q27 139 80 201.5t168 62.5q118 0 149.5 -69t-17.5 -215h-278q-16 -87 3.5 -119.5t79.5 -32.5t153 29l4 -80q-80 -36 -179 -36q-116 0 -152 62t-11 197zM165 310h174q39 121 -52 121q-49 0 -77 -29t-45 -92zM278 577l-52 147h100l34 -147h-82z" />
<glyph horiz-adv-x="482" d="M45 250q27 139 80 201.5t168 62.5q118 0 149.5 -69t-17.5 -215h-278q-16 -87 3.5 -119.5t79.5 -32.5t153 29l4 -80q-80 -36 -179 -36q-116 0 -152 62t-11 197zM165 310h174q39 121 -52 121q-49 0 -77 -29t-45 -92zM469 724l-109 -147h-87l92 147h104z" />
<glyph horiz-adv-x="482" d="M45 250q27 139 80 201.5t168 62.5q118 0 149.5 -69t-17.5 -215h-278q-16 -87 3.5 -119.5t79.5 -32.5t153 29l4 -80q-80 -36 -179 -36q-116 0 -152 62t-11 197zM165 310h174q39 121 -52 121q-49 0 -77 -29t-45 -92zM171 577l142 147h65l86 -147h-81l-47 82l-77 -82h-88z " />
<glyph horiz-adv-x="482" d="M45 250q27 139 80 201.5t168 62.5q118 0 149.5 -69t-17.5 -215h-278q-16 -87 3.5 -119.5t79.5 -32.5t153 29l4 -80q-80 -36 -179 -36q-116 0 -152 62t-11 197zM165 310h174q39 121 -52 121q-49 0 -77 -29t-45 -92zM282 577h-103l20 102h103zM459 577h-103l19 102h104z " />
<glyph horiz-adv-x="315" d="M22 -12l114 599q17 85 57 113.5t111 28.5q72 0 126 -13l-30 -81q-61 7 -86 7q-32 0 -48.5 -12.5t-23.5 -53.5l-15 -74h138l-28 -79h-125l-84 -437q-19 -102 -56 -143t-115 -57q-44 -9 -76 -14l-4 83q11 3 35 8.5t33 7.5q38 11 52 35t25 82z" />
<glyph horiz-adv-x="777" d="M197 -12q-111 2 -144.5 62.5t-7.5 192.5q14 70 30.5 116.5t44 83.5t69.5 54t100 17q101 0 135 -75q55 75 170 75q186 0 154 -180q-8 -49 -28 -104h-277q-16 -87 3 -119.5t79 -32.5t153 29l4 -80q-80 -36 -182 -36q-113 0 -143 66q-56 -69 -160 -69zM214 78q53 0 80.5 35 t45.5 131q19 94 5.5 137t-64.5 43t-80.5 -42t-48.5 -138q-18 -98 -4.5 -132t66.5 -34zM461 310h173q8 25 11 41q13 80 -62 80q-49 0 -77 -29t-45 -92z" />
<glyph horiz-adv-x="518" d="M149 1q-51 0 -84 35t-18 115l69 351h107l-66 -337q-14 -75 37 -75q34 0 68.5 21.5t59.5 50.5l67 340h107l-101 -519q-18 -98 -54.5 -134.5t-120.5 -57.5q-57 -13 -139 -24l1 84q75 13 121 25q46 13 62.5 33.5t27.5 74.5l18 82h-2q-65 -65 -160 -65zM472 724l-109 -147 h-87l92 147h104z" />
<glyph horiz-adv-x="518" d="M149 1q-51 0 -84 35t-18 115l69 351h107l-66 -337q-14 -75 37 -75q34 0 68.5 21.5t59.5 50.5l67 340h107l-101 -519q-18 -98 -54.5 -134.5t-120.5 -57.5q-57 -13 -139 -24l1 84q75 13 121 25q46 13 62.5 33.5t27.5 74.5l18 82h-2q-65 -65 -160 -65zM460 577h-103l19 102 h104zM283 577h-103l20 102h103z" />
<glyph horiz-adv-x="411" d="M46 249q27 135 82.5 198.5t167.5 63.5q77 0 129 -20l-33 -81q-44 11 -95 11q-60 0 -93.5 -40t-50.5 -132q-18 -99 -1.5 -133.5t79.5 -34.5q47 0 101 16l3 -83q-60 -23 -132 -23q-114 0 -148.5 62.5t-8.5 195.5zM145 -206h-82q8 7 20 20.5t30 52t14 74.5h93q4 -40 -15 -77 t-39 -54z" />
<glyph horiz-adv-x="497" d="M202 -12q-116 0 -149.5 60t-7.5 195q27 140 81.5 205.5t168.5 65.5q115 0 148.5 -67t8.5 -204q-27 -137 -80.5 -196t-169.5 -59zM216 78q54 0 83 35t47 131q18 94 4 137t-67 43t-83 -42t-47 -138q-19 -98 -5 -132t68 -34zM436 724l-84 -147h-77l67 147h94z" />
<glyph horiz-adv-x="549" d="M249 502h107l-28 -79h-94l-84 -437q-20 -102 -57 -143t-117 -57q-41 -9 -76 -14l-5 83q11 3 36 8t34 8q38 11 52.5 35t25.5 82l85 435h-69l15 79h69l16 85q17 85 58 113.5t116 28.5q54 0 127.5 -7.5t107.5 -15.5l-138 -706h-106l124 636q-70 7 -101 7q-39 0 -56.5 -11.5 t-25.5 -51.5z" />
<glyph horiz-adv-x="954" d="M459 0l125 648q-32 6 -73 6q-45 0 -73 -21t-35 -60q-8 -41 20 -88l-31 -83q-91 21 -143 21q-66 0 -76 -48q-4 -23 6 -39t50 -30l29 -10q79 -26 104 -60.5t10 -111.5q-24 -133 -186 -133q-100 0 -196 31l33 85q96 -28 161 -28q40 0 60 12t26 46q5 30 -6 47t-49 30l-29 10 q-77 24 -103.5 54t-13.5 96q14 75 57.5 106t118.5 31q28 0 82 -6q-20 47 -10 92q12 61 62.5 96.5t128.5 35.5q105 0 193 -28l-32 -164q-4 -20 -10.5 -44t-10.5 -37l-5 -14h2q73 69 161 69q22 0 41.5 -7t37.5 -24t23.5 -46t-1.5 -74l-69 -360h-106l65 345q15 76 -37 76 q-33 0 -69 -22t-59 -50l-67 -349h-106z" />
<glyph horiz-adv-x="758" d="M475 122l59 301h-70l15 79h71l30 120q-37 7 -78 7q-89 0 -102 -67q-2 -9 -2 -17.5t1.5 -15.5t3.5 -12t6 -9.5t6 -7t5.5 -5.5t4.5 -4l-33 -83q-54 13 -95 13q-60 0 -93.5 -40t-50.5 -132q-18 -99 -1.5 -133.5t79.5 -34.5q47 0 101 16l3 -83q-60 -23 -132 -23 q-114 0 -148.5 62.5t-8.5 195.5q27 135 82.5 198.5t167.5 63.5q4 0 13 -0.5t14 -0.5q-18 33 -9 74q11 57 59 88.5t128 31.5q96 0 189 -29l-34 -173h126l-28 -79h-114l-58 -299q-6 -28 2 -36t33 -8q4 0 70 11l-1 -82q-41 -18 -102 -18q-68 0 -96 26.5t-13 104.5z" />
<glyph horiz-adv-x="928" d="M433 0l126 648q-27 5 -48 5q-89 0 -105 -79q-7 -38 19 -83l-33 -83q-54 13 -95 13q-60 0 -93.5 -40t-50.5 -132q-18 -99 -1.5 -133.5t79.5 -34.5q47 0 101 16l3 -83q-60 -23 -132 -23q-114 0 -148.5 62.5t-8.5 195.5q27 135 82.5 198.5t167.5 63.5q9 0 35 -2 q-21 44 -11 93q12 57 63 91.5t130 34.5q90 0 164 -25l-33 -166q-4 -20 -10.5 -44t-11.5 -37l-4 -14h2q71 69 161 69q50 0 83 -35.5t17 -115.5l-68 -360h-106l65 345q15 76 -37 76q-33 0 -69 -22t-59 -50l-67 -349h-107z" />
<glyph horiz-adv-x="334" d="M59 404q20 102 56 140.5t100 38.5q73 0 131 -25l-38 -197q-5 -25 0.5 -31t27.5 -2v-56q-28 -10 -59 -10q-45 0 -55 34h-2q-53 -37 -94 -37q-46 0 -64.5 32t-2.5 113zM215 513q-26 0 -41.5 -19t-27.5 -80q-9 -37 -7 -56t8 -24.5t18 -5.5q24 0 56 24l30 156q-15 5 -36 5z " />
<glyph horiz-adv-x="408" d="M326 519l-16 -84q-11 -59 -32 -91t-68 -71l-38 -31q-25 -21 -35.5 -39t-16.5 -47q-9 -47 10.5 -62.5t65.5 -15.5q57 0 136 22v-80q-93 -29 -165 -29q-88 0 -129 38.5t-23 128.5q7 37 22.5 66.5t29 44t34.5 32.5l43 36q32 28 43.5 49.5t19.5 61.5l14 71h105zM361 697 l-19 -98h-106l19 98h106z" />
<glyph horiz-adv-x="250" d="M232 516l-100 -516h-107l100 516h107zM267 697l-19 -98h-107l19 98h107z" />
</font>
</defs>
</svg>
