<?xml version="1.0" standalone="no"?>
<!DOCTYPE svg PUBLIC "-//W3C//DTD SVG 1.1//EN" "http://www.w3.org/Graphics/SVG/1.1/DTD/svg11.dtd" >
<svg xmlns="http://www.w3.org/2000/svg" xmlns:xlink="http://www.w3.org/1999/xlink" version="1.1">
<metadata></metadata>
<defs>
<font id="bunday_sanshair" horiz-adv-x="515" >
<font-face units-per-em="1000" ascent="750" descent="-250" />
<missing-glyph horiz-adv-x="240" />
<glyph unicode="&#xfb00;" horiz-adv-x="520" d="M105 479h-81v13h81v108q0 74 27 101.5t83 27.5q31 0 61 -5l-2 -12q-29 4 -59 4q-51 0 -73.5 -24t-22.5 -92v-108h237v108q0 74 27 101.5t83 27.5q39 0 81 -7l-2 -12q-54 6 -79 6q-51 0 -73.5 -24t-22.5 -92v-108h147l-2 -13h-145v-479h-14v479h-237v-479h-14v479z" />
<glyph unicode="&#xfb01;" horiz-adv-x="461" d="M119 492h253v-492h-14v479h-239v-479h-14v479h-81v13h81v108q0 74 28 101.5t86 27.5q74 0 146 -16l-3 -12q-67 15 -144 15q-52 0 -75.5 -24t-23.5 -92v-108z" />
<glyph unicode="&#xfb02;" horiz-adv-x="494" d="M119 492h122l-2 -13h-120v-479h-14v479h-81v13h81v108q0 74 27 101.5t83 27.5q81 0 157 -17v-617q0 -30 5 -48.5t15.5 -26.5t20 -10.5t26.5 -2.5q16 0 34 3l2 -13q-15 -3 -36 -3q-41 0 -61 19.5t-20 81.5v607q-84 14 -142 14q-52 0 -74.5 -24t-22.5 -92v-108z" />
<glyph unicode="&#xfb03;" horiz-adv-x="714" d="M372 492h253v-492h-14v479h-239v-479h-14v479h-239v-479h-14v479h-81v13h81v108q0 74 27 101.5t83 27.5q31 0 61 -5l-2 -12q-29 4 -59 4q-51 0 -73.5 -24t-22.5 -92v-108h239v108q0 74 28 101.5t86 27.5q74 0 146 -16l-3 -12q-68 15 -144 15q-52 0 -75.5 -24t-23.5 -92 v-108z" />
<glyph unicode="&#xfb04;" horiz-adv-x="747" d="M372 492h122l-2 -13h-120v-479h-14v479h-239v-479h-14v479h-81v13h81v108q0 74 27 101.5t83 27.5q31 0 61 -5l-2 -12q-29 4 -59 4q-51 0 -73.5 -24t-22.5 -92v-108h239v108q0 74 27 101.5t83 27.5q80 0 157 -17v-617q0 -30 5 -48.5t15.5 -26.5t20 -10.5t26.5 -2.5 q16 0 34 3l2 -13q-15 -3 -36 -3q-41 0 -61 19.5t-20 81.5v607q-84 14 -142 14q-52 0 -74.5 -24t-22.5 -92v-108z" />
<glyph unicode="fb" horiz-adv-x="771" d="M119 492h122l-2 -13h-120v-479h-14v479h-81v13h81v108q0 74 27 101.5t83 27.5q81 0 157 -17v-208l-1 -82h1q96 79 189 79q28 0 48 -4t40.5 -18.5t33 -40t20.5 -70.5t8 -108q0 -71 -11 -122t-27.5 -79t-43 -44t-50.5 -20t-57 -4q-92 0 -164 39v672q-84 14 -142 14 q-52 0 -74.5 -24t-22.5 -92v-108zM522 4q30 0 50.5 3t46 17.5t41 40.5t26.5 75.5t11 119.5q0 75 -9.5 122.5t-30 69.5t-42 29t-54.5 7q-93 0 -189 -82v-368q69 -34 150 -34z" />
<glyph unicode="fh" horiz-adv-x="790" d="M119 492h122l-2 -13h-120v-479h-14v479h-81v13h81v108q0 74 27 101.5t83 27.5q81 0 157 -17v-222l-1 -68h1q96 79 197 79q59 0 96.5 -29t37.5 -111v-361h-14v361q0 76 -33 101.5t-87 25.5q-99 0 -197 -82v-406h-14v702q-84 14 -142 14q-52 0 -74.5 -24t-22.5 -92v-108z " />
<glyph unicode="fj" horiz-adv-x="461" d="M119 492h253v-562q0 -44 -12 -70.5t-24.5 -35t-36.5 -16.5q-17 -6 -41 -11l-3 13q35 8 51 15q26 11 39 33t13 74v547h-239v-479h-14v479h-81v13h81v108q0 74 28 101.5t86 27.5q74 0 146 -16l-3 -12q-67 15 -144 15q-52 0 -75.5 -24t-23.5 -92v-108z" />
<glyph unicode="ffj" horiz-adv-x="714" d="M372 492h253v-562q0 -44 -12 -70.5t-24.5 -35t-36.5 -16.5q-17 -6 -41 -11l-3 13q35 8 51 15q26 11 39 33t13 74v547h-239v-479h-14v479h-239v-479h-14v479h-81v13h81v108q0 74 27 101.5t83 27.5q31 0 61 -5l-2 -12q-29 4 -59 4q-51 0 -73.5 -24t-22.5 -92v-108h239v108 q0 74 28 101.5t86 27.5q74 0 146 -16l-3 -12q-68 15 -144 15q-52 0 -75.5 -24t-23.5 -92v-108z" />
<glyph unicode="fk" horiz-adv-x="703" d="M119 492h122l-2 -13h-120v-479h-14v479h-81v13h81v108q0 74 27 101.5t83 27.5q81 0 157 -17v-415q38 -5 67 -16l224 211h19l-231 -218q27 -17 52 -45l205 -229h-18l-194 217q-34 37 -57.5 48.5t-66.5 18.5v-284h-14v702q-84 14 -142 14q-52 0 -74.5 -24t-22.5 -92v-108z " />
<glyph unicode="ft" horiz-adv-x="567" d="M105 479h-81v13h81v108q0 74 27 101.5t83 27.5q31 0 61 -5l-2 -12q-29 4 -59 4q-51 0 -73.5 -24t-22.5 -92v-108h239v141l14 2v-143h159l-2 -13h-157v-384q0 -56 17.5 -72t56.5 -16q40 0 82 10l3 -13q-38 -10 -85 -10q-46 0 -67 19t-21 82v384h-239v-479h-14v479z" />
<glyph horiz-adv-x="500" />
<glyph horiz-adv-x="500" />
<glyph horiz-adv-x="333" />
<glyph unicode="&#xd;" horiz-adv-x="0" />
<glyph unicode=" "  horiz-adv-x="240" />
<glyph unicode="&#x09;" horiz-adv-x="240" />
<glyph unicode="&#xa0;" horiz-adv-x="240" />
<glyph unicode="!" horiz-adv-x="204" d="M95 140v557h14v-557h-14zM94 0v72h16v-72h-16z" />
<glyph unicode="&#x22;" horiz-adv-x="310" d="M209 549v173h14v-173h-14zM87 549v173h14v-173h-14z" />
<glyph unicode="#" horiz-adv-x="817" d="M106 192l2 13h185l19 186h-185l2 13h185l20 190h14l-20 -190h182l20 190h14l-20 -190h186l-2 -13h-186l-19 -186h186l-2 -13h-186l-20 -192h-14l20 192h-182l-20 -192h-14l20 192h-185zM307 205h182l19 186h-182z" />
<glyph unicode="$" horiz-adv-x="555" d="M99 22l3 13q75 -21 170 -21q94 0 132 37.5t38 114.5q0 41 -10.5 71.5t-33 51.5t-43.5 33t-56 28l-53 23q-36 16 -56.5 27.5t-43.5 32t-33 49.5t-10 70q0 139 162 143v93h14v-93q76 -2 140 -17l-3 -12q-71 16 -142 16q-157 0 -157 -130q0 -37 8.5 -63t29.5 -45t40.5 -30 t56.5 -28l53 -24q36 -16 57.5 -29t46 -35.5t36 -55t11.5 -76.5q0 -81 -40.5 -122.5t-136.5 -42.5v-92h-14v92q-98 0 -166 21z" />
<glyph unicode="%" horiz-adv-x="791" d="M46 486q0 122 30 173t100 51q69 0 99 -51t30 -173t-30 -172.5t-101 -50.5q-70 0 -99 50t-29 173zM174 276q63 0 90 48t27 162q0 115 -26 162.5t-89 47.5t-89.5 -47.5t-26.5 -162.5t25.5 -162.5t88.5 -47.5zM486 216q0 122 30 173t100 51q69 0 99 -51t30 -173t-30 -172.5 t-101 -50.5q-70 0 -99 50t-29 173zM614 6q63 0 90 48t27 162q0 115 -26 162.5t-89 47.5t-89.5 -47.5t-26.5 -162.5t25.5 -162.5t88.5 -47.5zM216 -22l344 740h15l-344 -740h-15z" />
<glyph unicode="&#x26;" horiz-adv-x="573" d="M488 422l3 -13l-82 -21q3 -6 15 -31t16.5 -35.5t14 -34t13.5 -39.5t8 -38t4 -43q1 -84 -52.5 -131t-157.5 -47q-205 0 -205 175q0 135 146 180v1q-119 29 -119 146q0 77 42.5 111.5t128.5 34.5q63 0 102 -11l-3 -13q-40 11 -99 11q-81 0 -119 -31.5t-38 -101.5 q0 -119 128 -138q70 20 254 69zM395 384q-76 -20 -164 -46q-152 -44 -152 -174q0 -80 45.5 -121t145.5 -41q99 0 147.5 43t48.5 122q0 12 -1.5 24.5t-3 23t-5.5 24.5t-6 22.5t-8 23t-8.5 20.5t-10 21.5t-9.5 19.5l-10 20z" />
<glyph unicode="'" horiz-adv-x="188" d="M87 549v173h14v-173h-14z" />
<glyph unicode="(" horiz-adv-x="332" d="M245 -27h-16q-61 96 -89 183t-28 191q0 105 27.5 192.5t89.5 182.5h17q-63 -93 -91.5 -182t-28.5 -194q0 -194 119 -373z" />
<glyph unicode=")" horiz-adv-x="332" d="M103 -27h-16q119 179 119 373q0 105 -28.5 194t-91.5 182h17q62 -95 89.5 -182.5t27.5 -192.5q0 -104 -28 -191t-89 -183z" />
<glyph unicode="*" horiz-adv-x="500" d="M152 369l-11 8l99 139l-162 52l5 13l162 -52v168h14v-169l160 56l4 -13l-160 -56l101 -137l-11 -8l-102 138z" />
<glyph unicode="+" d="M251 123v184h-181v13h181v191h14v-191h180v-13h-180v-184h-14z" />
<glyph unicode="," horiz-adv-x="184" d="M61 -105h-17q43 66 43 174h15q0 -113 -41 -174z" />
<glyph unicode="-" horiz-adv-x="367" d="M48 281v13h271v-13h-271z" />
<glyph unicode="." horiz-adv-x="184" d="M83 0v72h18v-72h-18z" />
<glyph unicode="/" horiz-adv-x="317" d="M262 698h13l-220 -698h-13z" />
<glyph unicode="0" horiz-adv-x="541" d="M67 349q0 196 47.5 278t156.5 82t156 -82t47 -278t-47.5 -278.5t-157.5 -82.5q-109 0 -155.5 82t-46.5 279zM270 1q104 0 147 79t43 269q0 189 -43 268t-147 79t-146.5 -78.5t-42.5 -268.5t42.5 -269t146.5 -79z" />
<glyph unicode="1" horiz-adv-x="286" d="M176 0v684h-131v13h145v-697h-14z" />
<glyph unicode="2" horiz-adv-x="468" d="M54 0v119q0 46 10.5 79t34.5 57t47.5 38.5t64.5 34.5l35 17q59 28 87 48.5t45.5 58.5t17.5 98q0 82 -34.5 112.5t-120.5 30.5q-64 0 -157 -25l-2 13q85 25 159 25q93 0 131 -34t38 -123q0 -48 -9 -81.5t-32.5 -58t-47.5 -39.5t-69 -37l-35 -17q-41 -20 -63 -33.5 t-44.5 -36.5t-32 -54t-9.5 -75v-104h340v-13h-354z" />
<glyph unicode="3" horiz-adv-x="457" d="M26 27l4 12q90 -34 173 -34q85 0 128.5 44.5t43.5 153.5q0 53 -14.5 88.5t-42 51.5t-54.5 21.5t-64 5.5h-80v13h81q167 0 167 162q0 38 -9 66t-23 43.5t-36.5 24.5t-43.5 11.5t-49 2.5q-68 0 -162 -32l-4 12q84 33 165 33q39 0 67 -5.5t54.5 -21.5t40.5 -49.5t14 -84.5 q0 -83 -35 -121t-80 -46q18 -4 30.5 -9t31.5 -17.5t30.5 -30t20.5 -48.5t9 -72q0 -112 -48 -160.5t-138 -48.5q-85 0 -177 35z" />
<glyph unicode="4" horiz-adv-x="491" d="M28 215l-4 16l248 470l12 -5l-105 -200l-142 -268h351v190h14v-418h-14v215h-360z" />
<glyph unicode="5" horiz-adv-x="490" d="M77 22l4 13l17 -5q18 -6 37 -11t50.5 -9.5t61.5 -4.5q80 0 125 41.5t45 152.5q0 61 -14 101t-41.5 58t-53.5 24t-63 6q-69 0 -147 -17l-9 6v320h296v-13h-282v-300q69 17 142 17q40 0 69 -7t58 -26.5t44 -61.5t15 -106q0 -121 -48.5 -164.5t-135.5 -43.5q-30 0 -62 4.5 t-52 9.5t-37.5 10.5t-18.5 5.5z" />
<glyph unicode="6" horiz-adv-x="514" d="M274 693q-107 0 -150 -77t-43 -267q86 73 195 72q41 0 70.5 -8.5t55.5 -30.5t39.5 -65.5t13.5 -107.5q0 -221 -186 -221q-109 0 -155.5 82t-46.5 279t47.5 277t159.5 80q65 0 134 -21l-3 -13q-71 21 -131 21zM276 408q-61 0 -112.5 -23.5t-82.5 -52.5q2 -180 44.5 -255.5 t143.5 -75.5q172 0 172 207q0 118 -42 159t-123 41z" />
<glyph unicode="7" horiz-adv-x="456" d="M143 0h-14q33 166 98.5 326.5t174.5 357.5h-362v13h376v-15q-117 -214 -178.5 -363.5t-94.5 -318.5z" />
<glyph unicode="8" horiz-adv-x="525" d="M59 186q0 162 140 184q-122 19 -122 163q0 176 185 176q186 0 186 -176q0 -143 -123 -163q70 -10 105.5 -59t35.5 -124q0 -108 -49 -153.5t-155 -45.5t-154.5 45.5t-48.5 152.5zM262 376q89 0 130.5 37t41.5 119t-41.5 123t-130.5 41t-130 -40.5t-41 -123.5t41 -119.5 t130 -36.5zM262 1q101 0 145.5 41.5t44.5 143.5q0 87 -45.5 132t-144.5 45q-189 0 -189 -176q0 -103 44 -144.5t145 -41.5z" />
<glyph unicode="9" horiz-adv-x="514" d="M240 4q107 0 150 77t43 267q-83 -73 -195 -72q-41 0 -70.5 8.5t-55.5 30.5t-39.5 65.5t-13.5 107.5q0 221 186 221q109 0 155.5 -82t46.5 -279t-47.5 -277t-159.5 -80q-65 0 -134 21l3 13q71 -21 131 -21zM238 289q62 0 113.5 23.5t81.5 52.5q-2 180 -44.5 255.5 t-143.5 75.5q-172 0 -172 -207q0 -118 42 -159t123 -41z" />
<glyph unicode=":" horiz-adv-x="184" d="M83 364v72h18v-72h-18zM83 0v72h18v-72h-18z" />
<glyph unicode=";" horiz-adv-x="184" d="M83 364v72h18v-72h-18zM61 -105h-17q43 66 43 174h15q0 -113 -41 -174z" />
<glyph unicode="&#x3c;" d="M119 305v11l277 263v-19l-262 -249l262 -245v-19z" />
<glyph unicode="=" d="M84 410v13h347v-13h-347zM84 206v13h347v-13h-347z" />
<glyph unicode="&#x3e;" d="M396 316v-11l-277 -258v19l262 245l-262 249v19z" />
<glyph unicode="?" horiz-adv-x="413" d="M173 140v63q0 77 10.5 107.5t50.5 68.5l60 56q52 49 52 123q0 79 -40.5 107t-124.5 28q-54 0 -126 -18l-2 12q60 19 131 19q88 0 132 -31.5t44 -116.5q0 -79 -54 -130l-65 -61q-36 -33 -45 -61.5t-9 -102.5v-63h-14zM173 0v72h14v-72h-14z" />
<glyph unicode="@" horiz-adv-x="776" d="M68 256q0 181 82 269t237 88q154 0 237.5 -85.5t83.5 -256.5q0 -191 -116 -191q-79 0 -90 64q-58 -74 -145 -74q-52 0 -79.5 35t-27.5 139q0 114 39 153.5t108 39.5q59 0 88 -28t29 -104v-142q0 -70 77 -70q53 0 78 44t25 137q0 163 -79 244.5t-227 81.5 q-306 0 -306 -344t305 -344q34 0 90 8l2 -13q-72 -8 -92 -8q-319 0 -319 357zM358 83q79 0 142 78v144q0 69 -24 94t-78 25q-67 0 -100.5 -38t-33.5 -142q0 -52 7 -86t21.5 -49.5t29 -20.5t36.5 -5z" />
<glyph unicode="A" d="M25 0l222 697h21l222 -697h-15l-64 202h-308l-63 -202h-15zM107 215h300l-149 470h-1z" />
<glyph unicode="B" horiz-adv-x="553" d="M275 0h-179v697h157q115 0 163 -43.5t48 -127.5q0 -147 -130 -162q72 -6 114.5 -50t42.5 -130q0 -184 -216 -184zM110 369h160q96 0 138 36t42 121q0 80 -45 119t-151 39h-144v-315zM110 13h165q202 0 202 171q0 89 -47 130.5t-147 41.5h-173v-343z" />
<glyph unicode="C" horiz-adv-x="466" d="M416 24l3 -13q-52 -20 -126 -20q-121 0 -173.5 81.5t-52.5 273.5q0 196 52.5 278t170.5 82q57 0 126 -15l-2 -13q-60 15 -124 15q-114 0 -161.5 -79t-47.5 -268q0 -185 48.5 -263.5t163.5 -78.5q61 0 123 20z" />
<glyph unicode="D" horiz-adv-x="556" d="M162 0h-66v697h76q54 0 89.5 -2.5t72 -10.5t59 -23.5t43 -40.5t31 -62.5t16.5 -89t6 -120.5t-7 -120.5t-18.5 -89t-33.5 -62.5t-45.5 -40t-61 -23t-73 -10.5t-88.5 -2.5zM110 13h52q40 0 67 1t58 5t51 11t41.5 19t35 29.5t26.5 42t19.5 57.5t10.5 75t4 95 q0 59 -3.5 104.5t-13 80.5t-21 59.5t-32.5 41.5t-41 27t-53.5 15t-64 6.5t-77.5 1.5h-59v-671z" />
<glyph unicode="E" horiz-adv-x="488" d="M96 0v697h337v-13h-323v-315h264v-13h-264v-343h333v-13h-347z" />
<glyph unicode="F" horiz-adv-x="469" d="M96 0v697h345v-13h-331v-330h262v-13h-262v-341h-14z" />
<glyph unicode="G" horiz-adv-x="536" d="M67 346q0 196 52.5 278t170.5 82q59 0 151 -20l-4 -12q-81 19 -147 19q-114 0 -161.5 -79t-47.5 -268q0 -185 48.5 -263.5t164.5 -78.5q73 0 155 25v356h14v-365q-75 -29 -169 -29q-122 0 -174.5 81.5t-52.5 273.5z" />
<glyph unicode="H" horiz-adv-x="582" d="M96 0v697h14v-327h362v327h14v-697h-14v357h-362v-357h-14z" />
<glyph unicode="I" horiz-adv-x="206" d="M96 0v697h14v-697h-14z" />
<glyph unicode="J" horiz-adv-x="381" d="M20 -1l2 13q48 -8 98 -8q85 0 121.5 33.5t36.5 125.5v534h14v-534q0 -97 -40.5 -134.5t-131.5 -37.5q-61 0 -100 8z" />
<glyph unicode="K" horiz-adv-x="511" d="M96 0v697h14v-322q45 -2 72 -16l276 338h17l-282 -344q13 -9 18.5 -13.5t19.5 -18t36 -38.5l249 -283h-18l-241 274q-45 52 -71.5 68.5t-75.5 19.5v-362h-14z" />
<glyph unicode="L" horiz-adv-x="432" d="M96 0v697h14v-684h293v-13h-307z" />
<glyph unicode="M" horiz-adv-x="753" d="M678 0h-14l-32 540l-7 144h-2q-26 -64 -237 -541h-14l-242 541h-1q-3 -70 -8 -146l-34 -538h-14l44 697h21l241 -540h1q18 46 235 540h22z" />
<glyph unicode="N" horiz-adv-x="603" d="M96 0v697h20l377 -684h1q-1 66 -1 118v566h14v-697h-21l-376 684h-1q1 -64 1 -128v-556h-14z" />
<glyph unicode="O" horiz-adv-x="576" d="M67 349q0 195 52.5 277.5t169.5 82.5q116 0 168 -82.5t52 -277.5t-52.5 -278t-169.5 -83t-168.5 82.5t-51.5 278.5zM288 1q112 0 159.5 79.5t47.5 268.5t-47.5 268t-159.5 79t-159.5 -79t-47.5 -268t47.5 -268.5t159.5 -79.5z" />
<glyph unicode="P" horiz-adv-x="516" d="M96 0v697h182q102 0 147.5 -41.5t45.5 -147.5q0 -196 -202 -196h-159v-312h-14zM110 325h159q188 0 188 183q0 100 -41.5 138t-137.5 38h-168v-359z" />
<glyph unicode="Q" horiz-adv-x="576" d="M67 349q0 195 52.5 277.5t169.5 82.5q116 0 168 -82.5t52 -277.5q0 -173 -41 -257t-130 -100q29 -48 78 -75.5t126 -45.5l-4 -13q-87 23 -134.5 51t-79.5 81q-24 -2 -37 -2q-117 0 -168.5 82.5t-51.5 278.5zM288 1q112 0 159.5 79.5t47.5 268.5t-47.5 268t-159.5 79 t-159.5 -79t-47.5 -268t47.5 -268.5t159.5 -79.5z" />
<glyph unicode="R" horiz-adv-x="541" d="M96 0v697h179q103 0 149.5 -40t46.5 -145q0 -87 -37 -134.5t-105 -55.5q37 -10 58 -40t42 -85l73 -197h-14l-72 192q-12 32 -20.5 49.5t-24 37.5t-38 29t-53.5 9h-170v-317h-14zM110 330h169q89 0 133.5 43t44.5 139q0 99 -42.5 135.5t-139.5 36.5h-165v-354z" />
<glyph unicode="S" horiz-adv-x="480" d="M63 12l3 13q75 -21 170 -21t132.5 37t37.5 120q0 44 -10 75.5t-33 53t-42.5 33t-57.5 28.5l-53 24q-30 14 -46 22t-37.5 24t-32.5 33t-19 44t-8 61q0 147 170 147q82 0 146 -17l-3 -12q-71 16 -142 16q-85 0 -121 -34.5t-36 -99.5q0 -72 31 -106t104 -66l53 -24 q38 -17 59.5 -29.5t45.5 -35.5t35 -56.5t11 -80.5q0 -88 -41 -129t-143 -41q-103 0 -173 21z" />
<glyph unicode="T" horiz-adv-x="438" d="M210 0v684h-190v13h397v-13h-193v-684h-14z" />
<glyph unicode="U" horiz-adv-x="572" d="M89 169v528h14v-528q0 -87 44 -127.5t139 -40.5q94 0 138.5 40.5t44.5 127.5v528h14v-528q0 -181 -197 -181q-101 0 -149 44t-48 137z" />
<glyph unicode="V" horiz-adv-x="455" d="M217 0l-205 697h15l157 -535l43 -149h1q22 78 44 152l156 532h14l-205 -697h-20z" />
<glyph unicode="W" horiz-adv-x="741" d="M175 0l-146 697h13l117 -553l26 -130h1q16 60 32 122l145 551h19l143 -545l32 -129h1q12 60 25 123l115 561h14l-144 -697h-20l-135 516l-40 158h-1q-18 -76 -40 -158l-137 -516h-20z" />
<glyph unicode="X" horiz-adv-x="513" d="M257 353h-2q-53 -85 -106 -169l-117 -184h-15l230 363l-210 334h15l94 -148l110 -177h2q61 99 110 176l95 149h15l-212 -335l230 -362h-16l-114 179z" />
<glyph unicode="Y" horiz-adv-x="467" d="M226 0v304l-222 393h15l164 -290l50 -90h1q23 43 50 91l164 289h14l-222 -393v-304h-14z" />
<glyph unicode="Z" horiz-adv-x="453" d="M41 0v5l341 679h-316v13h335v-6l-341 -678h348v-13h-367z" />
<glyph unicode="[" horiz-adv-x="378" d="M142 -86v864h142v-13h-128v-838h128v-13h-142z" />
<glyph unicode="\" horiz-adv-x="318" d="M42 698h13l220 -698h-13z" />
<glyph unicode="]" horiz-adv-x="378" d="M236 778v-864h-142v13h128v838h-128v13h142z" />
<glyph unicode="^" horiz-adv-x="531" d="M68 401l192 296h11l190 -296h-17l-179 281l-181 -281h-16z" />
<glyph unicode="_" horiz-adv-x="446" d="M0 -124v13h446v-13h-446z" />
<glyph unicode="`" horiz-adv-x="219" d="M180 640l-52 121h14l52 -121h-14z" />
<glyph unicode="a" horiz-adv-x="487" d="M403 0h-14l1 70h-1q-96 -79 -196 -79q-61 0 -96.5 30t-35.5 109v7q0 75 37 109.5t100 45.5q59 11 191 13v22q0 97 -34 129t-101 32q-80 0 -170 -30l-3 12q80 31 172 31q73 0 111.5 -35t38.5 -138v-328zM389 86v206q-122 -2 -188 -13t-96 -45t-30 -101q0 -76 30.5 -102.5 t87.5 -26.5q98 0 196 82z" />
<glyph unicode="b" horiz-adv-x="502" d="M89 722h14v-218l-1 -82h1q96 79 189 79q28 0 48 -4t40.5 -18.5t33 -40t20.5 -70.5t8 -108q0 -71 -11 -122t-27.5 -79t-43 -44t-50.5 -20t-57 -4q-92 0 -164 39v692zM253 4q30 0 50.5 3t46 17.5t41 40.5t26.5 75.5t11 119.5q0 75 -9.5 122.5t-30 69.5t-42 29t-54.5 7 q-93 0 -189 -82v-368q69 -34 150 -34z" />
<glyph unicode="c" horiz-adv-x="395" d="M60 236q0 134 44.5 199.5t139.5 65.5q42 0 101 -14l-3 -13q-58 14 -98 14q-89 0 -129.5 -62t-40.5 -190q0 -126 39 -179t131 -53q46 0 100 14l4 -13q-59 -14 -103 -14q-99 0 -142 56.5t-43 188.5z" />
<glyph unicode="d" horiz-adv-x="502" d="M60 232q0 71 11 122t27.5 79t43.5 44t50.5 20t56.5 4q77 0 150 -35h1q-1 3 -1 69v187h14v-722h-14l1 70h-1q-96 -79 -189 -79q-28 0 -48 4t-40.5 18.5t-33 40t-20.5 70.5t-8 108zM399 86v366q-70 36 -150 36q-39 0 -64 -6.5t-53.5 -30t-43 -78.5t-14.5 -141 q0 -75 9.5 -122.5t30 -69.5t42 -29t54.5 -7q91 0 189 82z" />
<glyph unicode="e" horiz-adv-x="480" d="M60 236q0 149 48.5 208.5t145.5 59.5q74 0 121.5 -36t47.5 -108q0 -66 -27 -89t-106 -23q-52 0 -105.5 8t-81.5 16l-28 7q-1 -12 -1 -43q0 -76 13.5 -125t40 -71t52.5 -29t65 -7q83 0 159 27l3 -13q-78 -27 -162 -27q-43 0 -73.5 9t-57.5 34t-40.5 75.5t-13.5 126.5z M76 293q101 -32 214 -32q74 0 96.5 20.5t22.5 78.5q0 61 -41 96t-114 35q-83 0 -126.5 -45.5t-51.5 -152.5z" />
<glyph unicode="f" horiz-adv-x="269" d="M264 479h-145v-479h-14v479h-81v13h81v108q0 74 27 101.5t83 27.5q39 0 81 -7l-2 -12q-54 6 -79 6q-51 0 -73.5 -24t-22.5 -92v-108h147z" />
<glyph unicode="g" horiz-adv-x="502" d="M176 -233l-3 13q88 18 120 30q20 8 30.5 13t27 18t25.5 29.5t16 44.5t7 65l1 95h-1q-91 -75 -189 -75q-36 0 -59.5 7.5t-46 30.5t-33.5 71.5t-11 123.5q0 71 10.5 121.5t27 78.5t43 44t50.5 20t58 4q92 0 164 -39v-482q0 -88 -30.5 -125.5t-85.5 -57.5q-46 -16 -121 -30z M74 233q0 -72 9.5 -117.5t30 -67t42 -28.5t54.5 -7q96 0 189 78v363q-69 34 -150 34q-32 0 -52.5 -3t-46.5 -17.5t-40.5 -40.5t-25 -75t-10.5 -119z" />
<glyph unicode="h" horiz-adv-x="521" d="M89 0v722h14v-232l-1 -68h1q96 79 197 79q59 0 96.5 -29t37.5 -111v-361h-14v361q0 76 -33 101.5t-87 25.5q-99 0 -197 -82v-406h-14z" />
<glyph unicode="i" horiz-adv-x="196" d="M91 0v492h14v-492h-14zM90 590v72h16v-72h-16z" />
<glyph unicode="j" horiz-adv-x="196" d="M-9 -228l-3 13q35 8 51 15q26 11 39 33t13 74v585h14v-587q0 -44 -12 -70.5t-24.5 -35t-36.5 -16.5q-17 -6 -41 -11zM90 590v72h16v-72h-16z" />
<glyph unicode="k" horiz-adv-x="436" d="M91 0v722h14v-425q38 -5 67 -16l224 211h19l-231 -218q27 -17 52 -45l205 -229h-18l-194 217q-34 37 -57.5 48.5t-66.5 18.5v-284h-14z" />
<glyph unicode="l" horiz-adv-x="225" d="M204 7l2 -13q-15 -3 -36 -3q-41 0 -61 19.5t-20 81.5v630h14v-630q0 -30 5 -48.5t15.5 -26.5t20 -10.5t26.5 -2.5q16 0 34 3z" />
<glyph unicode="m" horiz-adv-x="770" d="M89 0v492h14l-1 -70h1q73 79 166 79q42 0 74 -21t43 -64q75 85 168 85q129 0 129 -139v-362h-14v362q0 126 -115 126q-89 0 -164 -85q3 -16 3 -48v-355h-14v355q0 133 -110 133q-87 0 -166 -82v-406h-14z" />
<glyph unicode="n" horiz-adv-x="521" d="M89 0v492h14l-1 -70h1q96 79 197 79q27 0 48 -5t42 -18.5t32.5 -43t11.5 -72.5v-362h-14v362q0 75 -33 100.5t-87 25.5q-99 0 -197 -82v-406h-14z" />
<glyph unicode="o" horiz-adv-x="501" d="M251 -12q-103 0 -147 57t-44 191q0 136 46 202t146 66t144.5 -65.5t44.5 -202.5q0 -134 -44 -191t-146 -57zM252 1q95 0 135 53.5t40 181.5q0 131 -40.5 193t-134.5 62q-95 0 -136.5 -62t-41.5 -193q0 -128 40.5 -181.5t137.5 -53.5z" />
<glyph unicode="p" horiz-adv-x="502" d="M442 260q0 -71 -11 -122t-27 -79t-42.5 -44t-50.5 -20t-58 -4q-77 0 -150 35h-1q1 -26 1 -65v-184h-14v715h14l-1 -70h1q96 79 189 79q28 0 48 -4t40.5 -18.5t33 -40t20.5 -70.5t8 -108zM103 406v-366q70 -36 150 -36q31 0 51.5 3t46.5 17.5t41 40.5t25.5 75.5 t10.5 119.5q0 75 -9.5 122.5t-30 69.5t-42 29t-54.5 7q-91 0 -189 -82z" />
<glyph unicode="q" horiz-adv-x="502" d="M413 -223h-14v225l1 68h-1q-96 -79 -189 -79q-28 0 -48 4t-40.5 18.5t-33 40t-20.5 70.5t-8 108q0 71 10.5 122t27 79t43 43.5t50.5 20t58 4.5q92 0 164 -39v-685zM249 488q-32 0 -52.5 -3t-46.5 -17.5t-40.5 -40.5t-25 -75.5t-10.5 -119.5q0 -75 9.5 -122.5t30 -69.5 t42 -29t54.5 -7q91 0 189 82v368q-69 34 -150 34z" />
<glyph unicode="r" horiz-adv-x="325" d="M89 0v492h14l-1 -70h1q78 78 167 78q28 0 42 -2l-2 -13q-22 2 -39 2q-87 0 -168 -81v-406h-14z" />
<glyph unicode="s" horiz-adv-x="436" d="M39 22l3 13q111 -31 185 -31q68 0 103 22.5t35 94.5q0 55 -31.5 82t-106.5 50l-42 13q-34 11 -53 18.5t-39.5 22t-29.5 35.5t-9 51q0 63 36.5 85.5t105.5 22.5q77 0 162 -23l-3 -13q-78 23 -158 23q-64 0 -96.5 -19.5t-32.5 -75.5q0 -49 26.5 -71t94.5 -43l41 -13 q82 -26 115.5 -54.5t33.5 -90.5q0 -75 -38 -102.5t-114 -27.5q-87 0 -188 31z" />
<glyph unicode="t" horiz-adv-x="304" d="M95 95v384h-74v13h74v141l14 2v-143h159l-2 -13h-157v-384q0 -56 17.5 -72t56.5 -16t82 10l3 -13q-38 -10 -85 -10q-46 0 -67 19t-21 82z" />
<glyph unicode="u" horiz-adv-x="521" d="M87 492h14v-362q0 -40 10 -66.5t29 -38.5t37.5 -16.5t43.5 -4.5q99 0 197 82v406h14v-492h-14l1 70h-1q-96 -79 -197 -79q-27 0 -48 5t-42 18.5t-32.5 43t-11.5 72.5v362z" />
<glyph unicode="v" horiz-adv-x="426" d="M203 0l-181 492h14l116 -315l60 -166h1q31 87 60 165l116 316h15l-183 -492h-18z" />
<glyph unicode="w" horiz-adv-x="682" d="M167 0l-141 492h14l96 -334l41 -146h1q26 86 47 150l106 328h20l105 -328l46 -150h1q25 89 46 160l93 320h14l-144 -492h-20l-119 378l-32 101h-1q-15 -50 -31 -100l-123 -379h-19z" />
<glyph unicode="x" horiz-adv-x="447" d="M28 0l185 261l-165 231h17l128 -181l30 -42q18 27 30 44l126 179h16l-163 -231l187 -261h-17l-145 203l-35 50q-15 -22 -34 -49l-143 -204h-17z" />
<glyph unicode="y" horiz-adv-x="518" d="M218 0q-59 0 -96.5 29t-37.5 111v352h14v-352q0 -40 10 -67t29 -39t37.5 -16.5t43.5 -4.5q104 0 197 78v401h14v-512q0 -88 -30 -125.5t-85 -57.5q-48 -17 -122 -30l-3 13q86 16 121 30q24 10 37 17.5t32 25.5t27.5 50t8.5 77l1 95h-1q-91 -75 -197 -75z" />
<glyph unicode="z" horiz-adv-x="438" d="M50 0v10l305 469h-280v13h297v-11l-303 -468h321v-13h-340z" />
<glyph unicode="{" horiz-adv-x="354" d="M119 54v194q0 57 -16 77.5t-52 20.5v13q36 0 52 21t16 77v181q0 80 33 110t106 30h4v-13h-4q-66 0 -95.5 -27t-29.5 -100v-181q0 -86 -45 -105q45 -16 45 -104v-194q0 -73 27 -100t88 -27h14v-13h-14q-68 0 -98.5 30t-30.5 110z" />
<glyph unicode="|" horiz-adv-x="252" d="M119 -196v1088h14v-1088h-14z" />
<glyph unicode="}" horiz-adv-x="354" d="M235 248v-194q0 -80 -30.5 -110t-98.5 -30h-14v13h14q61 0 88 27t27 100v194q0 88 45 104q-45 19 -45 105v181q0 73 -29.5 100t-95.5 27h-4v13h4q73 0 106 -30t33 -110v-181q0 -56 16 -77t52 -21v-13q-36 0 -52 -20.5t-16 -77.5z" />
<glyph unicode="~" horiz-adv-x="504" d="M135 308l-9 10q23 21 50 21q29 0 54.5 -22.5t49.5 -45t49 -22.5q19 0 40 18l9 -10q-24 -21 -49 -21q-23 0 -44 14t-35 31t-34 31t-41 14q-22 0 -40 -18z" />
<glyph unicode="&#xa1;" horiz-adv-x="204" d="M109 361v-557h-14v557h14zM110 501v-72h-16v72h16z" />
<glyph unicode="&#xa2;" horiz-adv-x="555" d="M99 326q0 129 41 194.5t129 70.5v106h14v-106q42 0 101 -14l-3 -13q-58 14 -98 14q-89 0 -129.5 -62t-40.5 -190q0 -126 39 -179t131 -53q46 0 100 14l4 -13q-59 -14 -103 -14h-1v-98h-14v98q-90 4 -130 61t-40 184z" />
<glyph unicode="&#xa3;" horiz-adv-x="555" d="M159 365v162q0 96 40.5 137.5t117.5 41.5q68 0 127 -14l-3 -13q-58 14 -124 14q-74 0 -109 -41t-35 -126v-161h77v-13h-77v-339h310v-13h-412v13h88v339h-74v13h74z" />
<glyph unicode="&#xa4;" horiz-adv-x="672" d="M127 140l-10 10l49 50q-55 64 -55 153q0 88 58 154l-51 53l10 10l51 -52q67 65 158 65q92 0 156 -66l53 53l10 -10l-53 -54q58 -66 58 -153q0 -88 -56 -154l48 -49l-10 -10l-48 48q-65 -68 -158 -68q-96 0 -162 69zM337 133q87 0 148.5 64.5t61.5 155.5q0 89 -62 153 t-148 64q-88 0 -150 -63.5t-62 -153.5q0 -91 62 -155.5t150 -64.5z" />
<glyph unicode="&#xa5;" horiz-adv-x="555" d="M146 308h121l-219 389h15l164 -290l50 -90h1q23 43 50 91l164 289h14l-220 -389h123v-13h-125v-76h125v-13h-125v-206h-14v206h-124v13h124v76h-124v13z" />
<glyph unicode="&#xa6;" horiz-adv-x="252" d="M119 444v448h14v-448h-14zM119 -196v447h14v-447h-14z" />
<glyph unicode="&#xa7;" horiz-adv-x="505" d="M74 -90l2 14q87 -21 171 -21q99 0 134.5 27t35.5 107q0 33 -11.5 58.5t-35.5 43t-46 28t-57 23.5l-52 19q-36 13 -55 22t-41 26t-31.5 41t-9.5 58q0 82 60 109q-60 37 -60 113q0 64 40 95.5t130 31.5q69 0 146 -18l-3 -13q-93 18 -142 18q-84 0 -120.5 -27.5t-36.5 -86.5 q0 -58 30.5 -85t100.5 -51l57 -20q70 -25 110.5 -60.5t40.5 -101.5q0 -87 -43 -120q43 -38 43 -101q0 -86 -39 -117.5t-145 -31.5q-87 0 -173 20zM216 431q-43 15 -65 26q-59 -23 -59 -101q0 -55 29.5 -82t98.5 -53l57 -21q71 -26 102 -51q38 27 38 110q0 63 -38 95t-110 58 z" />
<glyph unicode="&#xa8;" horiz-adv-x="972" d="M406 640h-16v70h16v-70zM582 640h-16v70h16v-70z" />
<glyph unicode="&#xa9;" horiz-adv-x="837" d="M504 154l1 -12q-29 -13 -95 -13q-34 0 -56.5 8t-41.5 30.5t-28 67.5t-9 115t10 116t31 68.5t45 30.5t59 8q44 0 84 -10l-1 -12q-45 9 -83 9q-33 0 -54.5 -7.5t-40 -28.5t-27.5 -64t-9 -110q0 -66 8 -108.5t25 -63.5t37 -28.5t51 -7.5q53 0 94 12zM95 350q0 170 86 266 t239 96q154 0 238 -95.5t84 -266.5q0 -170 -85.5 -266t-240.5 -96q-153 0 -237 96t-84 266zM109 350q0 -165 80 -257t227 -92q148 0 230 92.5t82 256.5q0 165 -80.5 257t-227.5 92t-229 -92.5t-82 -256.5z" />
<glyph unicode="&#xaa;" horiz-adv-x="307" d="M256 265h-13q0 20 1 42h-1q-58 -48 -123 -48q-39 0 -61 19t-22 68v4q0 46 23 67.5t63 29.5q32 6 119 8v13q0 57 -21 76t-61 19q-49 0 -107 -18l-3 11q48 20 110 20q47 0 71.5 -22t24.5 -86v-203zM242 320v123q-70 0 -114 -8q-40 -7 -58.5 -26.5t-18.5 -59.5q0 -45 19 -61 t53 -16q60 0 119 48z" />
<glyph unicode="&#xab;" horiz-adv-x="413" d="M175 54l-99 200l99 199h15l-99 -199l99 -200h-15zM308 54l-99 200l99 199h15l-99 -199l99 -200h-15z" />
<glyph unicode="&#xac;" d="M88 306v13h338v-152h-14v139h-324z" />
<glyph unicode="&#xad;" horiz-adv-x="367" d="M48 281v13h271v-13h-271z" />
<glyph unicode="&#xae;" horiz-adv-x="512" d="M63 498q0 96 50.5 152.5t139.5 56.5t139 -56.5t50 -152.5q0 -95 -50 -150t-139 -55t-139.5 55t-50.5 150zM77 498q0 -90 46 -141t130 -51t129.5 51t45.5 141q0 91 -45.5 143.5t-129.5 52.5t-130 -52.5t-46 -143.5zM197 392v228h63q36 0 50 -13.5t14 -50.5q0 -51 -41 -61 q15 -5 26 -36l25 -67h-15l-23 63q-13 36 -39 36h-46v-99h-14zM211 504h47q27 0 39.5 11.5t12.5 40.5q0 31 -10.5 41t-39.5 10h-49v-103z" />
<glyph unicode="&#xaf;" horiz-adv-x="532" d="M372 693h-224v13h224v-13z" />
<glyph unicode="&#xb0;" horiz-adv-x="354" d="M70 593q0 65 28.5 90t78.5 25t78.5 -25t28.5 -90t-28.5 -90t-78.5 -25t-78.5 25t-28.5 90zM177 491q46 0 69.5 22t23.5 80t-23.5 80t-69.5 22t-69.5 -22t-23.5 -80t23.5 -80t69.5 -22z" />
<glyph unicode="&#xb1;" d="M251 180v184h-167v13h167v191h14v-191h166v-13h-166v-184h-14zM84 0v13h347v-13h-347z" />
<glyph unicode="&#xb2;" horiz-adv-x="307" d="M33 380v76q0 54 25 80t79 50l23 11q56 25 76.5 47t20.5 76q0 49 -21 66.5t-76 17.5q-40 0 -98 -16l-4 13q51 17 100 17q62 0 87.5 -22t25.5 -77q0 -57 -23 -82t-81 -51l-24 -11q-51 -23 -73.5 -47t-22.5 -74v-61h222v-13h-236z" />
<glyph unicode="&#xb3;" horiz-adv-x="282" d="M15 396l4 12q53 -20 108 -20q52 0 79 27t27 91q0 60 -29.5 80t-79.5 20h-49v13h50q104 0 104 97q0 53 -26.5 70.5t-72.5 17.5q-45 0 -102 -19l-3 12q54 21 106 21q53 0 82.5 -21t29.5 -81q0 -50 -21.5 -73.5t-49.5 -28.5q15 -4 24.5 -8.5t23 -16t20.5 -33t7 -51.5 q0 -70 -30.5 -100t-88.5 -30q-57 0 -113 21z" />
<glyph unicode="&#xb4;" horiz-adv-x="218" d="M124 762l-52 -122h-14l52 122h14z" />
<glyph unicode="&#xb5;" horiz-adv-x="505" d="M84 492h14v-362q0 -75 31.5 -100.5t83.5 -25.5q93 0 189 84v404h14v-492h-14l1 70h-1q-97 -79 -189 -79q-93 0 -117 70q2 -58 2 -70v-189h-14v690z" />
<glyph unicode="&#xb6;" horiz-adv-x="602" d="M488 0v697h14v-697h-14zM393 0v324h-106q-100 0 -144 37.5t-44 128.5v41q0 94 39.5 130t138.5 36h130v-697h-14z" />
<glyph unicode="&#xb7;" horiz-adv-x="173" d="M75 312v25h23v-25h-23z" />
<glyph unicode="&#xb8;" horiz-adv-x="413" d="M122 -228l3 13q38 -12 79 -12q71 0 71 51q0 22 -16.5 37.5t-35.5 23t-35.5 21.5t-16.5 35q0 26 18 51l13 -4q-17 -23 -17 -47q0 -16 16.5 -28.5t35.5 -20t35.5 -25.5t16.5 -43q0 -64 -85 -64q-20 0 -40.5 3t-31.5 6z" />
<glyph unicode="&#xb9;" horiz-adv-x="197" d="M110 380v419h-83v13h97v-432h-14z" />
<glyph unicode="&#xba;" horiz-adv-x="322" d="M162 258q-66 0 -94 35.5t-28 118.5q0 85 28.5 125.5t93.5 40.5q64 0 92 -40.5t28 -125.5q0 -83 -27 -118.5t-93 -35.5zM162 270q58 0 82 32.5t24 109.5q0 78 -24.5 115.5t-81.5 37.5t-82.5 -37.5t-25.5 -115.5q0 -77 24.5 -109.5t83.5 -32.5z" />
<glyph unicode="&#xbb;" horiz-adv-x="413" d="M204 254l-99 -200h-15l99 200l-99 199h15zM337 254l-99 -200h-15l99 200l-99 199h15z" />
<glyph unicode="&#xbc;" horiz-adv-x="559" d="M110 265v419h-83v13h97v-432h-14zM284 131l-3 15l153 289l12 -5l-64 -122l-87 -163h213l1 115h13v-260h-14v131h-224zM77 -22l344 740h15l-344 -740h-15z" />
<glyph unicode="&#xbd;" horiz-adv-x="618" d="M110 265v419h-83v13h97v-432h-14zM344 0v76q0 54 25 80t79 50l23 11q56 25 76.5 47t20.5 76q0 49 -21 66.5t-76 17.5q-40 0 -98 -16l-4 13q51 17 100 17q62 0 87.5 -22t25.5 -77q0 -57 -23 -82t-81 -51l-24 -11q-51 -23 -73.5 -47t-22.5 -74v-61h222v-13h-236zM77 -22 l344 740h15l-344 -740h-15z" />
<glyph unicode="&#xbe;" horiz-adv-x="634" d="M15 281l4 12q53 -20 108 -20q52 0 79 27t27 91q0 60 -29.5 80t-79.5 20h-49v13h50q104 0 104 97q0 53 -26.5 70.5t-72.5 17.5q-45 0 -102 -19l-3 12q54 21 106 21q53 0 82.5 -21t29.5 -81q0 -50 -21.5 -73.5t-49.5 -28.5q15 -4 24.5 -8.5t23 -16t20.5 -33t7 -51.5 q0 -70 -30.5 -100t-88.5 -30q-57 0 -113 21zM359 131l-3 15l153 289l12 -5l-64 -122l-87 -163h213l1 115h13v-260h-14v131h-224zM152 -22l344 740h15l-344 -740h-15z" />
<glyph unicode="&#xbf;" horiz-adv-x="413" d="M240 361v-63q0 -77 -10.5 -107.5t-50.5 -68.5l-60 -56q-52 -49 -52 -123q0 -79 40.5 -107t124.5 -28q54 0 126 18l2 -12q-60 -19 -131 -19q-88 0 -132 31.5t-44 116.5q0 79 54 130l65 61q36 33 45 61.5t9 102.5v63h14zM240 501v-72h-14v72h14z" />
<glyph unicode="&#xc0;" d="M25 0l222 697h21l222 -697h-15l-64 202h-308l-63 -202h-15zM107 215h300l-149 470h-1zM251 748l-52 121h14l52 -121h-14z" />
<glyph unicode="&#xc1;" d="M25 0l222 697h21l222 -697h-15l-64 202h-308l-63 -202h-15zM107 215h300l-149 470h-1zM317 870l-52 -122h-14l52 122h14z" />
<glyph unicode="&#xc2;" d="M25 0l222 697h21l222 -697h-15l-64 202h-308l-63 -202h-15zM107 215h300l-149 470h-1zM141 748l114 122h5l117 -122h-18l-101 106l-98 -106h-19z" />
<glyph unicode="&#xc3;" d="M25 0l222 697h21l222 -697h-15l-64 202h-308l-63 -202h-15zM107 215h300l-149 470h-1zM171 763l-8 9q21 20 46 20q20 0 50.5 -18t48.5 -18q22 0 38 16l8 -9q-19 -20 -46 -20q-20 0 -50.5 18t-48.5 18q-21 0 -38 -16z" />
<glyph unicode="&#xc4;" d="M25 0l222 697h21l222 -697h-15l-64 202h-308l-63 -202h-15zM107 215h300l-149 470h-1zM178 748h-16v70h16v-70zM354 748h-16v70h16v-70z" />
<glyph unicode="&#xc5;" d="M25 0l222 697h21l222 -697h-15l-64 202h-308l-63 -202h-15zM107 215h300l-149 470h-1zM164 834q0 44 25 69t69 25t69 -25t25 -69t-25 -69t-69 -25t-69 25t-25 69zM178 834q0 -37 21.5 -59t58.5 -22t58.5 22t21.5 59t-21.5 59t-58.5 22t-58.5 -22t-21.5 -59z" />
<glyph unicode="&#xc6;" horiz-adv-x="745" d="M465 0l-57 202h-306l-72 -202h-15l247 697h428v-13h-404l89 -315h256v-13h-252l97 -343h224v-13h-235zM106 215h299l-132 470h-1z" />
<glyph unicode="&#xc7;" horiz-adv-x="466" d="M181 -216l3 13q38 -12 79 -12q71 0 71 51q0 22 -16 37.5t-36 23t-36 21.5t-16 35q0 22 12 42q-92 15 -133.5 97.5t-41.5 253.5q0 196 52.5 278t170.5 82q57 0 126 -15l-2 -13q-60 15 -124 15q-114 0 -161.5 -79t-47.5 -268q0 -185 48.5 -263.5t163.5 -78.5q61 0 123 20 l3 -13q-52 -20 -126 -20q-15 0 -37 2q-12 -19 -12 -40q0 -16 16 -28.5t36 -20t36 -25.5t16 -43q0 -64 -85 -64q-20 0 -40.5 3t-30.5 6z" />
<glyph unicode="&#xc8;" horiz-adv-x="488" d="M96 0v697h337v-13h-323v-315h264v-13h-264v-343h333v-13h-347zM260 748l-52 121h14l52 -121h-14z" />
<glyph unicode="&#xc9;" horiz-adv-x="488" d="M96 0v697h337v-13h-323v-315h264v-13h-264v-343h333v-13h-347zM326 870l-52 -122h-14l52 122h14z" />
<glyph unicode="&#xca;" horiz-adv-x="488" d="M96 0v697h337v-13h-323v-315h264v-13h-264v-343h333v-13h-347zM150 748l114 122h5l117 -122h-18l-101 106l-98 -106h-19z" />
<glyph unicode="&#xcb;" horiz-adv-x="488" d="M96 0v697h337v-13h-323v-315h264v-13h-264v-343h333v-13h-347zM187 748h-16v70h16v-70zM363 748h-16v70h16v-70z" />
<glyph unicode="&#xcc;" horiz-adv-x="206" d="M96 0v697h14v-697h-14zM96 748l-52 121h14l52 -121h-14z" />
<glyph unicode="&#xcd;" horiz-adv-x="206" d="M96 0v697h14v-697h-14zM162 870l-52 -122h-14l52 122h14z" />
<glyph unicode="&#xce;" horiz-adv-x="206" d="M96 0v697h14v-697h-14zM-14 748l114 122h5l117 -122h-18l-101 106l-98 -106h-19z" />
<glyph unicode="&#xcf;" horiz-adv-x="206" d="M96 0v697h14v-697h-14zM23 748h-16v70h16v-70zM199 748h-16v70h16v-70z" />
<glyph unicode="&#xd0;" horiz-adv-x="556" d="M28 358v13h68v326h76q54 0 89.5 -2.5t72 -10.5t59 -23.5t43 -40.5t31 -62.5t16.5 -89t6 -120.5t-7 -120.5t-18.5 -89t-33.5 -62.5t-45.5 -40t-61 -23t-73 -10.5t-88.5 -2.5h-66v358h-68zM110 13h52q40 0 67 1t58 5t51 11t41.5 19t35 29.5t26.5 42t19.5 57.5t10.5 75t4 95 q0 59 -3.5 104.5t-13 80.5t-21 59.5t-32.5 41.5t-41 27t-53.5 15t-64 6.5t-77.5 1.5h-59v-313h139v-13h-139v-345z" />
<glyph unicode="&#xd1;" horiz-adv-x="603" d="M96 0v697h20l377 -684h1q-1 66 -1 118v566h14v-697h-21l-376 684h-1q1 -64 1 -128v-556h-14zM212 763l-8 9q21 20 46 20q20 0 50.5 -18t48.5 -18q22 0 38 16l8 -9q-19 -20 -46 -20q-20 0 -50.5 18t-48.5 18q-21 0 -38 -16z" />
<glyph unicode="&#xd2;" horiz-adv-x="576" d="M67 349q0 195 52.5 277.5t169.5 82.5q116 0 168 -82.5t52 -277.5t-52.5 -278t-169.5 -83t-168.5 82.5t-51.5 278.5zM288 1q112 0 159.5 79.5t47.5 268.5t-47.5 268t-159.5 79t-159.5 -79t-47.5 -268t47.5 -268.5t159.5 -79.5zM282 748l-52 121h14l52 -121h-14z" />
<glyph unicode="&#xd3;" horiz-adv-x="576" d="M67 349q0 195 52.5 277.5t169.5 82.5q116 0 168 -82.5t52 -277.5t-52.5 -278t-169.5 -83t-168.5 82.5t-51.5 278.5zM288 1q112 0 159.5 79.5t47.5 268.5t-47.5 268t-159.5 79t-159.5 -79t-47.5 -268t47.5 -268.5t159.5 -79.5zM348 870l-52 -122h-14l52 122h14z" />
<glyph unicode="&#xd4;" horiz-adv-x="576" d="M67 349q0 195 52.5 277.5t169.5 82.5q116 0 168 -82.5t52 -277.5t-52.5 -278t-169.5 -83t-168.5 82.5t-51.5 278.5zM288 1q112 0 159.5 79.5t47.5 268.5t-47.5 268t-159.5 79t-159.5 -79t-47.5 -268t47.5 -268.5t159.5 -79.5zM172 748l114 122h5l117 -122h-18l-101 106 l-98 -106h-19z" />
<glyph unicode="&#xd5;" horiz-adv-x="576" d="M67 349q0 195 52.5 277.5t169.5 82.5q116 0 168 -82.5t52 -277.5t-52.5 -278t-169.5 -83t-168.5 82.5t-51.5 278.5zM288 1q112 0 159.5 79.5t47.5 268.5t-47.5 268t-159.5 79t-159.5 -79t-47.5 -268t47.5 -268.5t159.5 -79.5zM202 763l-8 9q21 20 46 20q20 0 50.5 -18 t48.5 -18q22 0 38 16l8 -9q-19 -20 -46 -20q-20 0 -50.5 18t-48.5 18q-21 0 -38 -16z" />
<glyph unicode="&#xd6;" horiz-adv-x="576" d="M67 349q0 195 52.5 277.5t169.5 82.5q116 0 168 -82.5t52 -277.5t-52.5 -278t-169.5 -83t-168.5 82.5t-51.5 278.5zM288 1q112 0 159.5 79.5t47.5 268.5t-47.5 268t-159.5 79t-159.5 -79t-47.5 -268t47.5 -268.5t159.5 -79.5zM209 748h-16v70h16v-70zM385 748h-16v70h16 v-70z" />
<glyph unicode="&#xd7;" d="M89 131l-9 9l170 170l-170 168l10 9l169 -168l166 168l9 -9l-166 -168l166 -166l-10 -9l-165 166z" />
<glyph unicode="&#xd8;" horiz-adv-x="576" d="M67 349q0 195 52.5 277.5t169.5 82.5q104 0 156 -65l46 81l11 -7l-48 -86q55 -85 55 -283q0 -195 -52.5 -278t-169.5 -83q-107 0 -156 65l-45 -80l-11 8l47 84q-55 82 -55 284zM288 1q112 0 159.5 79.5t47.5 268.5q0 191 -49 270l-140 -251l-168 -302q48 -65 150 -65z M129 78l128 229l181 324q-48 65 -150 65q-112 0 -159.5 -79t-47.5 -268q0 -192 48 -271z" />
<glyph unicode="&#xd9;" horiz-adv-x="572" d="M89 169v528h14v-528q0 -87 44 -127.5t139 -40.5q94 0 138.5 40.5t44.5 127.5v528h14v-528q0 -181 -197 -181q-101 0 -149 44t-48 137zM279 748l-52 121h14l52 -121h-14z" />
<glyph unicode="&#xda;" horiz-adv-x="572" d="M89 169v528h14v-528q0 -87 44 -127.5t139 -40.5q94 0 138.5 40.5t44.5 127.5v528h14v-528q0 -181 -197 -181q-101 0 -149 44t-48 137zM345 870l-52 -122h-14l52 122h14z" />
<glyph unicode="&#xdb;" horiz-adv-x="572" d="M89 169v528h14v-528q0 -87 44 -127.5t139 -40.5q94 0 138.5 40.5t44.5 127.5v528h14v-528q0 -181 -197 -181q-101 0 -149 44t-48 137zM169 748l114 122h5l117 -122h-18l-101 106l-98 -106h-19z" />
<glyph unicode="&#xdc;" horiz-adv-x="572" d="M89 169v528h14v-528q0 -87 44 -127.5t139 -40.5q94 0 138.5 40.5t44.5 127.5v528h14v-528q0 -181 -197 -181q-101 0 -149 44t-48 137zM206 748h-16v70h16v-70zM382 748h-16v70h16v-70z" />
<glyph unicode="&#xdd;" horiz-adv-x="467" d="M226 0v304l-222 393h15l164 -290l50 -90h1q23 43 50 91l164 289h14l-222 -393v-304h-14zM292 870l-52 -122h-14l52 122h14z" />
<glyph unicode="&#xde;" horiz-adv-x="531" d="M96 0v697h14v-140h178q101 0 142 -39.5t41 -146.5q0 -93 -44.5 -141t-148.5 -48h-168v-182h-14zM110 195h168q91 0 135 40.5t44 135.5q0 101 -37 137t-132 36h-178v-349z" />
<glyph unicode="&#xdf;" horiz-adv-x="516" d="M89 0v498q0 83 36.5 129.5t126.5 46.5q73 0 114.5 -32.5t41.5 -85.5q0 -39 -19 -72.5t-38 -63t-19 -59.5q0 -26 15 -47.5t36.5 -38.5t43 -35.5t36.5 -48.5t15 -68q0 -67 -31.5 -98t-97.5 -31q-36 0 -64 6l3 13q32 -6 62 -6q59 0 86.5 27t27.5 89q0 36 -15 64.5 t-36.5 46.5t-43 35t-36.5 40t-15 52q0 38 38 93.5t38 101.5t-37 75.5t-105 29.5q-87 0 -118 -43.5t-31 -121.5v-496h-14z" />
<glyph unicode="&#xe0;" horiz-adv-x="487" d="M403 0h-14l1 70h-1q-96 -79 -196 -79q-61 0 -96.5 30t-35.5 109v7q0 75 37 109.5t100 45.5q59 11 191 13v22q0 97 -34 129t-101 32q-80 0 -170 -30l-3 12q80 31 172 31q73 0 111.5 -35t38.5 -138v-328zM389 86v206q-122 -2 -188 -13t-96 -45t-30 -101q0 -76 30.5 -102.5 t87.5 -26.5q98 0 196 82zM248 577l-52 121h14l52 -121h-14z" />
<glyph unicode="&#xe1;" horiz-adv-x="487" d="M403 0h-14l1 70h-1q-96 -79 -196 -79q-61 0 -96.5 30t-35.5 109v7q0 75 37 109.5t100 45.5q59 11 191 13v22q0 97 -34 129t-101 32q-80 0 -170 -30l-3 12q80 31 172 31q73 0 111.5 -35t38.5 -138v-328zM389 86v206q-122 -2 -188 -13t-96 -45t-30 -101q0 -76 30.5 -102.5 t87.5 -26.5q98 0 196 82zM314 699l-52 -122h-14l52 122h14z" />
<glyph unicode="&#xe2;" horiz-adv-x="487" d="M403 0h-14l1 70h-1q-96 -79 -196 -79q-61 0 -96.5 30t-35.5 109v7q0 75 37 109.5t100 45.5q59 11 191 13v22q0 97 -34 129t-101 32q-80 0 -170 -30l-3 12q80 31 172 31q73 0 111.5 -35t38.5 -138v-328zM389 86v206q-122 -2 -188 -13t-96 -45t-30 -101q0 -76 30.5 -102.5 t87.5 -26.5q98 0 196 82zM138 577l114 122h5l117 -122h-18l-101 106l-98 -106h-19z" />
<glyph unicode="&#xe3;" horiz-adv-x="487" d="M403 0h-14l1 70h-1q-96 -79 -196 -79q-61 0 -96.5 30t-35.5 109v7q0 75 37 109.5t100 45.5q59 11 191 13v22q0 97 -34 129t-101 32q-80 0 -170 -30l-3 12q80 31 172 31q73 0 111.5 -35t38.5 -138v-328zM389 86v206q-122 -2 -188 -13t-96 -45t-30 -101q0 -76 30.5 -102.5 t87.5 -26.5q98 0 196 82zM168 592l-8 9q21 20 46 20q20 0 50.5 -18t48.5 -18q22 0 38 16l8 -9q-19 -20 -46 -20q-20 0 -50.5 18t-48.5 18q-21 0 -38 -16z" />
<glyph unicode="&#xe4;" horiz-adv-x="487" d="M403 0h-14l1 70h-1q-96 -79 -196 -79q-61 0 -96.5 30t-35.5 109v7q0 75 37 109.5t100 45.5q59 11 191 13v22q0 97 -34 129t-101 32q-80 0 -170 -30l-3 12q80 31 172 31q73 0 111.5 -35t38.5 -138v-328zM389 86v206q-122 -2 -188 -13t-96 -45t-30 -101q0 -76 30.5 -102.5 t87.5 -26.5q98 0 196 82zM175 577h-16v70h16v-70zM351 577h-16v70h16v-70z" />
<glyph unicode="&#xe5;" horiz-adv-x="487" d="M403 0h-14l1 70h-1q-96 -79 -196 -79q-61 0 -96.5 30t-35.5 109v7q0 75 37 109.5t100 45.5q59 11 191 13v22q0 97 -34 129t-101 32q-80 0 -170 -30l-3 12q80 31 172 31q73 0 111.5 -35t38.5 -138v-328zM389 86v206q-122 -2 -188 -13t-96 -45t-30 -101q0 -76 30.5 -102.5 t87.5 -26.5q98 0 196 82zM161 663q0 43 25.5 68.5t68.5 25.5t68.5 -25.5t25.5 -68.5t-25.5 -68.5t-68.5 -25.5t-68.5 25.5t-25.5 68.5zM175 663q0 -37 21.5 -59t58.5 -22t58.5 22t21.5 59t-21.5 59t-58.5 22t-58.5 -22t-21.5 -59z" />
<glyph unicode="&#xe6;" horiz-adv-x="818" d="M253 501q76 0 115 -32.5t41 -129.5q12 88 58 126.5t124 38.5q74 0 122 -36t48 -108q0 -68 -28.5 -90t-104.5 -22q-51 0 -104.5 8t-81.5 16l-29 7q-1 -16 -1 -43q0 -76 13.5 -125t40.5 -71t53 -29t64 -7q86 0 159 27l3 -13q-74 -27 -162 -27q-64 0 -106 23t-62 87 q-39 -52 -99 -81t-122 -29t-97.5 30t-35.5 109v7q0 75 37 109.5t100 45.5q59 11 202 13l-1 22q-4 98 -38.5 129.5t-106.5 31.5q-76 0 -170 -30l-3 12q23 9 74 20t98 11zM398 236q0 18 1 56q-140 -2 -198 -13q-66 -12 -96 -45.5t-30 -100.5q0 -76 30.5 -102.5t87.5 -26.5 q60 0 119 29t98 83q-12 46 -12 120zM414 293q101 -32 214 -32q71 0 95 19t24 80t-41 96t-114 35q-83 0 -126.5 -45.5t-51.5 -152.5z" />
<glyph unicode="&#xe7;" horiz-adv-x="395" d="M131 -216l3 13q38 -12 79 -12q71 0 71 51q0 22 -16 37.5t-36 23t-36 21.5t-16 35q0 22 12 43q-70 13 -101 70t-31 170q0 134 44.5 199.5t139.5 65.5q42 0 101 -14l-3 -13q-58 14 -98 14q-89 0 -129.5 -62t-40.5 -190q0 -126 39 -179t131 -53q46 0 100 14l4 -13 q-59 -14 -103 -14q-21 0 -39 3q-12 -20 -12 -41q0 -16 16 -28.5t36 -20t36 -25.5t16 -43q0 -64 -85 -64q-20 0 -40.5 3t-30.5 6z" />
<glyph unicode="&#xe8;" horiz-adv-x="480" d="M60 236q0 149 48.5 208.5t145.5 59.5q74 0 121.5 -36t47.5 -108q0 -66 -27 -89t-106 -23q-52 0 -105.5 8t-81.5 16l-28 7q-1 -12 -1 -43q0 -76 13.5 -125t40 -71t52.5 -29t65 -7q83 0 159 27l3 -13q-78 -27 -162 -27q-43 0 -73.5 9t-57.5 34t-40.5 75.5t-13.5 126.5z M76 293q101 -32 214 -32q74 0 96.5 20.5t22.5 78.5q0 61 -41 96t-114 35q-83 0 -126.5 -45.5t-51.5 -152.5zM244 577l-52 121h14l52 -121h-14z" />
<glyph unicode="&#xe9;" horiz-adv-x="480" d="M60 236q0 149 48.5 208.5t145.5 59.5q74 0 121.5 -36t47.5 -108q0 -66 -27 -89t-106 -23q-52 0 -105.5 8t-81.5 16l-28 7q-1 -12 -1 -43q0 -76 13.5 -125t40 -71t52.5 -29t65 -7q83 0 159 27l3 -13q-78 -27 -162 -27q-43 0 -73.5 9t-57.5 34t-40.5 75.5t-13.5 126.5z M76 293q101 -32 214 -32q74 0 96.5 20.5t22.5 78.5q0 61 -41 96t-114 35q-83 0 -126.5 -45.5t-51.5 -152.5zM310 699l-52 -122h-14l52 122h14z" />
<glyph unicode="&#xea;" horiz-adv-x="480" d="M60 236q0 149 48.5 208.5t145.5 59.5q74 0 121.5 -36t47.5 -108q0 -66 -27 -89t-106 -23q-52 0 -105.5 8t-81.5 16l-28 7q-1 -12 -1 -43q0 -76 13.5 -125t40 -71t52.5 -29t65 -7q83 0 159 27l3 -13q-78 -27 -162 -27q-43 0 -73.5 9t-57.5 34t-40.5 75.5t-13.5 126.5z M76 293q101 -32 214 -32q74 0 96.5 20.5t22.5 78.5q0 61 -41 96t-114 35q-83 0 -126.5 -45.5t-51.5 -152.5zM134 577l114 122h5l117 -122h-18l-101 106l-98 -106h-19z" />
<glyph unicode="&#xeb;" horiz-adv-x="480" d="M60 236q0 149 48.5 208.5t145.5 59.5q74 0 121.5 -36t47.5 -108q0 -66 -27 -89t-106 -23q-52 0 -105.5 8t-81.5 16l-28 7q-1 -12 -1 -43q0 -76 13.5 -125t40 -71t52.5 -29t65 -7q83 0 159 27l3 -13q-78 -27 -162 -27q-43 0 -73.5 9t-57.5 34t-40.5 75.5t-13.5 126.5z M76 293q101 -32 214 -32q74 0 96.5 20.5t22.5 78.5q0 61 -41 96t-114 35q-83 0 -126.5 -45.5t-51.5 -152.5zM171 577h-16v70h16v-70zM347 577h-16v70h16v-70z" />
<glyph unicode="&#xec;" horiz-adv-x="196" d="M91 0v492h14v-492h-14zM91 577l-52 121h14l52 -121h-14z" />
<glyph unicode="&#xed;" horiz-adv-x="196" d="M91 0v492h14v-492h-14zM157 699l-52 -122h-14l52 122h14z" />
<glyph unicode="&#xee;" horiz-adv-x="196" d="M91 0v492h14v-492h-14zM-19 577l114 122h5l117 -122h-18l-101 106l-98 -106h-19z" />
<glyph unicode="&#xef;" horiz-adv-x="196" d="M91 0v492h14v-492h-14zM194 577h-16v70h16v-70zM18 577h-16v70h16v-70z" />
<glyph unicode="&#xf0;" horiz-adv-x="494" d="M360 659l-70 -33q49 -39 80 -84t44 -99t16.5 -96t3.5 -107q0 -134 -44.5 -193t-144.5 -59t-142.5 58.5t-42.5 193.5t45.5 199.5t145.5 64.5q42 0 83 -13t60 -26q-1 2 -6 14t-9.5 21t-14 25t-20.5 30t-28.5 31.5t-38.5 33.5l-137 -65l-6 12l131 62q-51 36 -119 64l5 12 q73 -32 127 -70l76 36zM420 240q0 80 -3.5 119t-17.5 89q-69 42 -148 43q-93 1 -135 -60t-42 -191q0 -129 38.5 -184t132.5 -55t134.5 55.5t40.5 183.5z" />
<glyph unicode="&#xf1;" horiz-adv-x="521" d="M89 0v492h14l-1 -70h1q96 79 197 79q27 0 48 -5t42 -18.5t32.5 -43t11.5 -72.5v-362h-14v362q0 75 -33 100.5t-87 25.5q-99 0 -197 -82v-406h-14zM175 592l-8 9q21 20 46 20q20 0 50.5 -18t48.5 -18q22 0 38 16l8 -9q-19 -20 -46 -20q-20 0 -50.5 18t-48.5 18 q-21 0 -38 -16z" />
<glyph unicode="&#xf2;" horiz-adv-x="501" d="M251 -12q-103 0 -147 57t-44 191q0 136 46 202t146 66t144.5 -65.5t44.5 -202.5q0 -134 -44 -191t-146 -57zM252 1q95 0 135 53.5t40 181.5q0 131 -40.5 193t-134.5 62q-95 0 -136.5 -62t-41.5 -193q0 -128 40.5 -181.5t137.5 -53.5zM247 577l-52 121h14l52 -121h-14z " />
<glyph unicode="&#xf3;" horiz-adv-x="501" d="M251 -12q-103 0 -147 57t-44 191q0 136 46 202t146 66t144.5 -65.5t44.5 -202.5q0 -134 -44 -191t-146 -57zM252 1q95 0 135 53.5t40 181.5q0 131 -40.5 193t-134.5 62q-95 0 -136.5 -62t-41.5 -193q0 -128 40.5 -181.5t137.5 -53.5zM313 699l-52 -122h-14l52 122h14z " />
<glyph unicode="&#xf4;" horiz-adv-x="501" d="M251 -12q-103 0 -147 57t-44 191q0 136 46 202t146 66t144.5 -65.5t44.5 -202.5q0 -134 -44 -191t-146 -57zM252 1q95 0 135 53.5t40 181.5q0 131 -40.5 193t-134.5 62q-95 0 -136.5 -62t-41.5 -193q0 -128 40.5 -181.5t137.5 -53.5zM137 577l114 122h5l117 -122h-18 l-101 106l-98 -106h-19z" />
<glyph unicode="&#xf5;" horiz-adv-x="501" d="M251 -12q-103 0 -147 57t-44 191q0 136 46 202t146 66t144.5 -65.5t44.5 -202.5q0 -134 -44 -191t-146 -57zM252 1q95 0 135 53.5t40 181.5q0 131 -40.5 193t-134.5 62q-95 0 -136.5 -62t-41.5 -193q0 -128 40.5 -181.5t137.5 -53.5zM167 592l-8 9q21 20 46 20 q20 0 50.5 -18t48.5 -18q22 0 38 16l8 -9q-19 -20 -46 -20q-20 0 -50.5 18t-48.5 18q-21 0 -38 -16z" />
<glyph unicode="&#xf6;" horiz-adv-x="501" d="M251 -12q-103 0 -147 57t-44 191q0 136 46 202t146 66t144.5 -65.5t44.5 -202.5q0 -134 -44 -191t-146 -57zM252 1q95 0 135 53.5t40 181.5q0 131 -40.5 193t-134.5 62q-95 0 -136.5 -62t-41.5 -193q0 -128 40.5 -181.5t137.5 -53.5zM174 577h-16v70h16v-70zM350 577h-16 v70h16v-70z" />
<glyph unicode="&#xf7;" d="M247 470v25h18v-25h-18zM247 132v25h18v-25h-18zM75 307v13h364v-13h-364z" />
<glyph unicode="&#xf8;" horiz-adv-x="501" d="M251 -12q-95 0 -137 45l-40 -60l-11 8l42 62q-45 57 -45 193t46 202t146 66q87 0 132 -50l43 62l11 -7l-45 -66q48 -64 48 -207q0 -134 -44 -191t-146 -57zM252 1q95 0 135 53.5t40 181.5q0 133 -42 195l-144 -212l-119 -175q42 -43 130 -43zM113 55l143 211l120 176 q-42 49 -124 49q-95 0 -136.5 -62t-41.5 -193q0 -126 39 -181z" />
<glyph unicode="&#xf9;" horiz-adv-x="521" d="M87 492h14v-362q0 -40 10 -66.5t29 -38.5t37.5 -16.5t43.5 -4.5q99 0 197 82v406h14v-492h-14l1 70h-1q-96 -79 -197 -79q-27 0 -48 5t-42 18.5t-32.5 43t-11.5 72.5v362zM251 577l-52 121h14l52 -121h-14z" />
<glyph unicode="&#xfa;" horiz-adv-x="521" d="M87 492h14v-362q0 -40 10 -66.5t29 -38.5t37.5 -16.5t43.5 -4.5q99 0 197 82v406h14v-492h-14l1 70h-1q-96 -79 -197 -79q-27 0 -48 5t-42 18.5t-32.5 43t-11.5 72.5v362zM317 699l-52 -122h-14l52 122h14z" />
<glyph unicode="&#xfb;" horiz-adv-x="521" d="M87 492h14v-362q0 -40 10 -66.5t29 -38.5t37.5 -16.5t43.5 -4.5q99 0 197 82v406h14v-492h-14l1 70h-1q-96 -79 -197 -79q-27 0 -48 5t-42 18.5t-32.5 43t-11.5 72.5v362zM141 577l114 122h5l117 -122h-18l-101 106l-98 -106h-19z" />
<glyph unicode="&#xfc;" horiz-adv-x="521" d="M87 492h14v-362q0 -40 10 -66.5t29 -38.5t37.5 -16.5t43.5 -4.5q99 0 197 82v406h14v-492h-14l1 70h-1q-96 -79 -197 -79q-27 0 -48 5t-42 18.5t-32.5 43t-11.5 72.5v362zM354 577h-16v70h16v-70zM178 577h-16v70h16v-70z" />
<glyph unicode="&#xfd;" horiz-adv-x="519" d="M218 0q-59 0 -96.5 29t-37.5 111v352h14v-352q0 -40 10 -67t29 -39t37.5 -16.5t43.5 -4.5q104 0 197 78v401h14v-512q0 -88 -30 -125.5t-85 -57.5q-48 -17 -122 -30l-3 13q86 16 121 30q24 10 37 17.5t32 25.5t27.5 50t8.5 77l1 95h-1q-91 -75 -197 -75zM307 699 l-52 -122h-14l52 122h14z" />
<glyph unicode="&#xfe;" horiz-adv-x="502" d="M89 722h14v-218l-1 -82h1q96 79 189 79q28 0 48 -4t40.5 -18.5t33 -40t20.5 -70.5t8 -108q0 -71 -11 -122t-27.5 -79t-43 -44t-50.5 -20t-57 -4q-81 0 -151 32v-9q0 -10 0.5 -29t0.5 -43v-165h-14v945zM253 4q30 0 50.5 3t46 17.5t41 40.5t26.5 75.5t11 119.5 q0 75 -9.5 122.5t-30 69.5t-42 29t-54.5 7q-93 0 -189 -82v-368q69 -34 150 -34z" />
<glyph unicode="&#xff;" horiz-adv-x="519" d="M218 0q-59 0 -96.5 29t-37.5 111v352h14v-352q0 -40 10 -67t29 -39t37.5 -16.5t43.5 -4.5q104 0 197 78v401h14v-512q0 -88 -30 -125.5t-85 -57.5q-48 -17 -122 -30l-3 13q86 16 121 30q24 10 37 17.5t32 25.5t27.5 50t8.5 77l1 95h-1q-91 -75 -197 -75zM344 577h-16v70 h16v-70zM168 577h-16v70h16v-70z" />
<glyph unicode="&#x152;" horiz-adv-x="812" d="M67 349q0 195 52.5 277.5t169.5 82.5q79 0 131 -40v28h337v-13h-323v-315h264v-13h-264v-343h333v-13h-347v28q-49 -40 -133 -40q-117 0 -168.5 82.5t-51.5 278.5zM288 1q88 0 132 44v607q-48 44 -132 44q-112 0 -159.5 -79t-47.5 -268t47.5 -268.5t159.5 -79.5z" />
<glyph unicode="&#x153;" horiz-adv-x="840" d="M248 -12q-101 0 -144.5 57t-43.5 191q0 137 44.5 202.5t143.5 65.5q81 0 123.5 -43.5t54.5 -133.5q14 98 60 137.5t125 39.5q76 0 124 -36t48 -108q0 -67 -29 -89.5t-104 -22.5q-52 0 -105.5 8t-81.5 16l-28 8q-1 -16 -1 -44q0 -76 13.5 -125t40 -71t52.5 -29t65 -7 q83 0 159 27l3 -13q-78 -27 -162 -27q-75 0 -119.5 32t-58.5 124q-13 -85 -55 -122t-124 -37zM248 1q94 0 133 53.5t39 181.5q0 131 -40 193t-132 62q-93 0 -133.5 -62t-40.5 -193q0 -128 39.5 -181.5t134.5 -53.5zM436 293q101 -32 214 -32q74 0 96.5 20.5t22.5 78.5 q0 61 -41 96t-114 35q-83 0 -126.5 -45.5t-51.5 -152.5z" />
<glyph unicode="&#x178;" horiz-adv-x="467" d="M226 0v304l-222 393h15l164 -290l50 -90h1q23 43 50 91l164 289h14l-222 -393v-304h-14zM153 748h-16v70h16v-70zM329 748h-16v70h16v-70z" />
<glyph unicode="&#x2c6;" horiz-adv-x="311" d="M37 640l114 122h5l117 -122h-18l-101 106l-98 -106h-19z" />
<glyph unicode="&#x2dc;" horiz-adv-x="519" d="M173 715l-8 9q21 20 46 20q20 0 50.5 -18t48.5 -18q22 0 38 16l8 -9q-19 -20 -46 -20q-20 0 -50.5 18t-48.5 18q-21 0 -38 -16z" />
<glyph unicode="&#x1e9e;" horiz-adv-x="585" d="M88 0v538q0 81 43 124.5t150 43.5q103 0 201 -27v-13q-6 -7 -19.5 -24.5t-18 -24t-15.5 -21t-15 -21t-12 -20t-10.5 -21.5t-7.5 -21t-6.5 -24t-3 -25t-1.5 -29q0 -28 11.5 -51t29 -38t38 -33.5t38 -37.5t29 -52t11.5 -74q0 -82 -37 -118.5t-115 -36.5q-41 0 -80 7l2 13 q47 -7 79 -7q70 0 103.5 32.5t33.5 109.5q0 48 -16 82.5t-39 55t-46.5 39t-39.5 45.5t-16 64q0 22 2 40.5t9 38t10 30t17 31.5t19 27.5t25 33t26 33.5q-92 24 -186 24q-103 0 -141 -41t-38 -114v-538h-14z" />
<glyph unicode="&#x2000;" horiz-adv-x="464" />
<glyph unicode="&#x2001;" horiz-adv-x="928" />
<glyph unicode="&#x2002;" horiz-adv-x="464" />
<glyph unicode="&#x2003;" horiz-adv-x="928" />
<glyph unicode="&#x2004;" horiz-adv-x="309" />
<glyph unicode="&#x2005;" horiz-adv-x="232" />
<glyph unicode="&#x2006;" horiz-adv-x="154" />
<glyph unicode="&#x2007;" horiz-adv-x="154" />
<glyph unicode="&#x2008;" horiz-adv-x="116" />
<glyph unicode="&#x2009;" horiz-adv-x="185" />
<glyph unicode="&#x200a;" horiz-adv-x="51" />
<glyph unicode="&#x2010;" horiz-adv-x="367" d="M48 281v13h271v-13h-271z" />
<glyph unicode="&#x2011;" horiz-adv-x="367" d="M48 281v13h271v-13h-271z" />
<glyph unicode="&#x2012;" horiz-adv-x="367" d="M48 281v13h271v-13h-271z" />
<glyph unicode="&#x2013;" horiz-adv-x="506" d="M48 282v13h410v-13h-410z" />
<glyph unicode="&#x2014;" horiz-adv-x="1006" d="M48 282v13h910v-13h-910z" />
<glyph unicode="&#x2018;" horiz-adv-x="183" d="M108 722h15q-33 -68 -33 -173h-14q0 111 32 173z" />
<glyph unicode="&#x2019;" horiz-adv-x="183" d="M75 549h-15q33 68 33 173h14q0 -111 -32 -173z" />
<glyph unicode="&#x201a;" horiz-adv-x="183" d="M75 -105h-15q33 68 33 173h14q0 -111 -32 -173z" />
<glyph unicode="&#x201c;" horiz-adv-x="276" d="M201 722h15q-33 -68 -33 -173h-14q0 111 32 173zM108 722h15q-33 -68 -33 -173h-14q0 111 32 173z" />
<glyph unicode="&#x201d;" horiz-adv-x="276" d="M168 549h-15q33 68 33 173h14q0 -111 -32 -173zM75 549h-15q33 68 33 173h14q0 -111 -32 -173z" />
<glyph unicode="&#x201e;" horiz-adv-x="276" d="M168 -105h-15q33 68 33 173h14q0 -111 -32 -173zM75 -105h-15q33 68 33 173h14q0 -111 -32 -173z" />
<glyph unicode="&#x2022;" horiz-adv-x="193" d="M75 327v44h43v-44h-43z" />
<glyph unicode="&#x2026;" horiz-adv-x="577" d="M101 0v72h18v-72h-18zM280 0v72h18v-72h-18zM458 0v72h18v-72h-18z" />
<glyph unicode="&#x202f;" horiz-adv-x="185" />
<glyph unicode="&#x2039;" horiz-adv-x="280" d="M175 54l-99 200l99 199h15l-99 -199l99 -200h-15z" />
<glyph unicode="&#x203a;" horiz-adv-x="280" d="M204 254l-99 -200h-15l99 200l-99 199h15z" />
<glyph unicode="&#x205f;" horiz-adv-x="232" />
<glyph unicode="&#x20ac;" horiz-adv-x="555" d="M254 399h-104q-1 -17 -1 -53v-45h105v-13h-104q3 -90 16.5 -148t39 -87t54.5 -39t72 -10q78 0 138 20l3 -13q-52 -20 -141 -20q-46 0 -77.5 11t-58.5 41.5t-42 91t-18 153.5h-55v13h54v45q0 36 1 53h-55v13h55q4 92 21 152t46.5 90t62.5 41t81 11q57 0 123 -15l-2 -13 q-58 15 -121 15q-45 0 -75.5 -10t-58.5 -38.5t-43.5 -86.5t-19.5 -146h104v-13z" />
<glyph unicode="&#x2116;" horiz-adv-x="898" d="M625 278v13h243v-13h-243zM747 356q-66 0 -94 35.5t-28 118.5q0 85 28.5 125.5t93.5 40.5q64 0 92 -40.5t28 -125.5q0 -83 -27 -118.5t-93 -35.5zM747 368q58 0 82 32.5t24 109.5q0 78 -24.5 115.5t-81.5 37.5t-82.5 -37.5t-25.5 -115.5q0 -77 24.5 -109.5t83.5 -32.5z M92 0v697h20l377 -684h1q-1 66 -1 118v566h14v-697h-21l-376 684h-1q1 -64 1 -128v-556h-14z" />
<glyph unicode="&#x2122;" horiz-adv-x="669" d="M587 348h-14l-14 255l-4 77h-1q-9 -24 -24 -61l-87 -209h-6l-87 205l-25 65h-1l-4 -78l-16 -254h-14l23 349h17l89 -212l21 -51h1q8 21 20 51l87 212h19zM133 348v336h-92v13h200v-13h-94v-336h-14z" />
<glyph unicode="&#x25fc;" horiz-adv-x="490" d="M0 490h490v-490h-490v490z" />
<glyph unicode="&#xfb06;" horiz-adv-x="733" d="M524 95v384h-74v13h74v181q-51 17 -109 17q-55 0 -86.5 -26t-31.5 -76q0 -71 61 -110l-3 -13q-78 23 -158 23q-64 0 -96.5 -19.5t-32.5 -75.5q0 -49 26.5 -71t94.5 -43l41 -13q82 -26 115.5 -54.5t33.5 -90.5q0 -75 -38 -102.5t-114 -27.5q-87 0 -188 31l3 13 q111 -31 185 -31q68 0 103 22.5t35 94.5q0 55 -31.5 82t-106.5 50l-42 13q-34 11 -53 18.5t-39.5 22t-29.5 35.5t-9 51q0 63 36.5 85.5t105.5 22.5q62 0 131 -15q-44 39 -44 101q0 57 35.5 86.5t96.5 29.5q68 0 123 -22v-189h159l-2 -13h-157v-384q0 -56 17.5 -72t56.5 -16 q40 0 82 10l3 -13q-38 -10 -85 -10q-46 0 -67 19t-21 82z" />
<glyph horiz-adv-x="367" d="M48 337v13h271v-13h-271z" />
<glyph horiz-adv-x="506" d="M48 337v13h410v-13h-410z" />
<glyph horiz-adv-x="1006" d="M48 337v13h910v-13h-910z" />
<glyph horiz-adv-x="0" d="M-27 368v25h23v-25h-23z" />
<glyph horiz-adv-x="0" d="M-113 357v25h23v-25h-23z" />
<glyph horiz-adv-x="316" d="M230 -141h-13q-4 8 -11 22.5t-25.5 63t-32 100t-25 128.5t-11.5 153q0 75 11 149.5t26 126.5t30.5 93.5t26.5 62.5l11 20h13q-4 -7 -11 -21t-25 -60t-32 -95.5t-25 -125.5t-11 -152t10.5 -152t26 -130t31 -97t26.5 -65z" />
<glyph horiz-adv-x="316" d="M99 -141h-13q4 8 11 22.5t25 62.5t32 99t25 128t11 153t-10.5 151t-26 127t-31 93.5t-26.5 62.5l-10 20h13q4 -7 11 -21t25.5 -60.5t32 -95.5t25 -124.5t11.5 -150.5q0 -76 -11 -152t-26 -130.5t-30.5 -98t-26.5 -65.5z" />
<glyph horiz-adv-x="584" d="M500 469l2 -13l-84 -25q2 -4 11 -24t12.5 -28.5t11.5 -28.5t12 -32t10 -31.5t9 -34.5t5.5 -33t2.5 -34q1 -95 -51.5 -146t-165.5 -51q-104 0 -157 50t-53 144q0 147 154 201v1q-58 13 -92 52.5t-34 103.5q0 83 42 124.5t134 41.5q67 0 105 -12l-3 -12q-53 11 -102 11 q-87 0 -124.5 -38.5t-37.5 -113.5q0 -42 14 -72t38 -45t40 -21.5t35 -10.5q4 -1 5 -1q49 16 142.5 43.5t118.5 34.5zM405 427q-125 -36 -169 -51q-157 -53 -157 -194q0 -87 49 -134t147 -47q107 0 155 47.5t48 136.5q0 14 -1.5 29t-5 31t-6 28t-9 29.5t-9.5 27t-11 27.5 t-10.5 24t-11 25t-9.5 21z" />
<glyph horiz-adv-x="466" d="M416 24l3 -13q-52 -20 -126 -20q-121 0 -173.5 81.5t-52.5 273.5q0 196 52.5 278t170.5 82q57 0 126 -15l-2 -13q-60 15 -124 15q-114 0 -161.5 -79t-47.5 -268q0 -185 48.5 -263.5t163.5 -78.5q61 0 123 20zM235 -181h-16q3 2 6.5 6t14.5 17t15.5 26t8 33.5t-5.5 39.5 h14q9 -37 0.5 -64.5t-22.5 -42.5z" />
<glyph horiz-adv-x="576" d="M67 349q0 195 52.5 277.5t169.5 82.5q116 0 168 -82.5t52 -277.5t-52.5 -278t-169.5 -83t-168.5 82.5t-51.5 278.5zM288 1q112 0 159.5 79.5t47.5 268.5t-47.5 268t-159.5 79t-159.5 -79t-47.5 -268t47.5 -268.5t159.5 -79.5zM330 870l-34 -122h-14l34 122h14z" />
<glyph horiz-adv-x="516" d="M60 232q0 71 10.5 122t27 79t43 43.5t50.5 20t58 4.5q92 0 164 -39v-369q0 -56 22.5 -73t71.5 0l4 -12q-24 -10 -47 -10q-54 0 -64 72h-1q-96 -79 -189 -79q-28 0 -48 4t-40.5 18.5t-33 40t-20.5 70.5t-8 108zM249 488q-32 0 -52.5 -3t-46.5 -17.5t-40.5 -40.5t-25 -75.5 t-10.5 -119.5q0 -75 9.5 -122.5t30 -69.5t42 -29t54.5 -7q91 0 189 82v367q-69 35 -150 35z" />
<glyph horiz-adv-x="482" d="M60 236q0 147 48.5 207.5t148.5 60.5q91 0 128 -43t39 -121q1 -30 -4 -77h-346q-4 -145 35.5 -202t135.5 -57q83 0 159 27l3 -13q-78 -27 -162 -27q-100 0 -142.5 55.5t-42.5 189.5zM75 276h332q3 28 3 64q0 75 -35 113.5t-117 37.5q-91 -1 -133.5 -50t-49.5 -165z" />
<glyph horiz-adv-x="269" d="M119 492h147l-2 -13h-145v-574q0 -44 -12 -70.5t-24.5 -35t-36.5 -16.5q-17 -6 -41 -11l-3 13q35 8 51 15q26 11 39 33t13 74v572h-81v13h81v108q0 74 27 101.5t83 27.5q39 0 81 -7l-2 -12q-54 6 -79 6q-51 0 -73.5 -24t-22.5 -92v-108z" />
<glyph horiz-adv-x="492" d="M186 80h99q83 0 133 -24t50 -91q0 -94 -75 -146t-171 -52q-187 0 -187 152q0 61 35 100.5t78 52.5q-22 4 -36 19.5t-14 36.5q0 55 89 69q-58 8 -89.5 48.5t-31.5 106.5q0 58 28.5 93.5t65 47t82.5 11.5q86 0 130 -40q24 17 91 36l4 -13q-67 -20 -84 -33q33 -38 33 -102 q0 -66 -44.5 -108.5t-130.5 -51.5q-75 -7 -102 -22.5t-27 -41.5q0 -48 74 -48zM283 67h-117q-50 -16 -83.5 -53t-33.5 -96q0 -46 16.5 -75.5t46 -42t54 -16.5t56.5 -4q89 0 160.5 48t71.5 137q0 33 -14.5 54.5t-41.5 31t-53 13t-62 3.5zM402 352q0 139 -160 139 q-162 0 -162 -139q0 -146 151 -146q65 0 118 35.5t53 110.5z" />
<glyph horiz-adv-x="192" d="M89 0v722h14v-722h-14z" />
<glyph horiz-adv-x="298" d="M89 94v538l14 3v-143h157l2 -13h-159v-384q0 -56 17.5 -72t56.5 -16q54 0 82 10l3 -13q-38 -10 -85 -10q-46 0 -67 19t-21 81z" />
<glyph horiz-adv-x="426" d="M40 -228l-3 13l37 9q38 9 56 27t35 63l43 116h-5l-181 492h14l116 -315l60 -166h1q39 109 64 177l112 304h15l-226 -612q-19 -50 -38 -69.5t-63 -29.5z" />
<glyph horiz-adv-x="516" d="M60 232q0 71 10.5 122t27 79t43 43.5t50.5 20t58 4.5q92 0 164 -39v-369q0 -56 22.5 -73t71.5 0l4 -12q-24 -10 -47 -10q-54 0 -64 72h-1q-96 -79 -189 -79q-28 0 -48 4t-40.5 18.5t-33 40t-20.5 70.5t-8 108zM249 488q-32 0 -52.5 -3t-46.5 -17.5t-40.5 -40.5t-25 -75.5 t-10.5 -119.5q0 -75 9.5 -122.5t30 -69.5t42 -29t54.5 -7q91 0 189 82v367q-69 35 -150 35zM246 577l-52 121h14l52 -121h-14z" />
<glyph horiz-adv-x="516" d="M60 232q0 71 10.5 122t27 79t43 43.5t50.5 20t58 4.5q92 0 164 -39v-369q0 -56 22.5 -73t71.5 0l4 -12q-24 -10 -47 -10q-54 0 -64 72h-1q-96 -79 -189 -79q-28 0 -48 4t-40.5 18.5t-33 40t-20.5 70.5t-8 108zM249 488q-32 0 -52.5 -3t-46.5 -17.5t-40.5 -40.5t-25 -75.5 t-10.5 -119.5q0 -75 9.5 -122.5t30 -69.5t42 -29t54.5 -7q91 0 189 82v367q-69 35 -150 35zM312 699l-52 -122h-14l52 122h14z" />
<glyph horiz-adv-x="516" d="M60 232q0 71 10.5 122t27 79t43 43.5t50.5 20t58 4.5q92 0 164 -39v-369q0 -56 22.5 -73t71.5 0l4 -12q-24 -10 -47 -10q-54 0 -64 72h-1q-96 -79 -189 -79q-28 0 -48 4t-40.5 18.5t-33 40t-20.5 70.5t-8 108zM249 488q-32 0 -52.5 -3t-46.5 -17.5t-40.5 -40.5t-25 -75.5 t-10.5 -119.5q0 -75 9.5 -122.5t30 -69.5t42 -29t54.5 -7q91 0 189 82v367q-69 35 -150 35zM136 577l114 122h5l117 -122h-18l-101 106l-98 -106h-19z" />
<glyph horiz-adv-x="516" d="M60 232q0 71 10.5 122t27 79t43 43.5t50.5 20t58 4.5q92 0 164 -39v-369q0 -56 22.5 -73t71.5 0l4 -12q-24 -10 -47 -10q-54 0 -64 72h-1q-96 -79 -189 -79q-28 0 -48 4t-40.5 18.5t-33 40t-20.5 70.5t-8 108zM249 488q-32 0 -52.5 -3t-46.5 -17.5t-40.5 -40.5t-25 -75.5 t-10.5 -119.5q0 -75 9.5 -122.5t30 -69.5t42 -29t54.5 -7q91 0 189 82v367q-69 35 -150 35zM166 592l-8 9q21 20 46 20q20 0 50.5 -18t48.5 -18q22 0 38 16l8 -9q-19 -20 -46 -20q-20 0 -50.5 18t-48.5 18q-21 0 -38 -16z" />
<glyph horiz-adv-x="516" d="M60 232q0 71 10.5 122t27 79t43 43.5t50.5 20t58 4.5q92 0 164 -39v-369q0 -56 22.5 -73t71.5 0l4 -12q-24 -10 -47 -10q-54 0 -64 72h-1q-96 -79 -189 -79q-28 0 -48 4t-40.5 18.5t-33 40t-20.5 70.5t-8 108zM249 488q-32 0 -52.5 -3t-46.5 -17.5t-40.5 -40.5t-25 -75.5 t-10.5 -119.5q0 -75 9.5 -122.5t30 -69.5t42 -29t54.5 -7q91 0 189 82v367q-69 35 -150 35zM173 577h-16v70h16v-70zM349 577h-16v70h16v-70z" />
<glyph horiz-adv-x="516" d="M60 232q0 71 10.5 122t27 79t43 43.5t50.5 20t58 4.5q92 0 164 -39v-369q0 -56 22.5 -73t71.5 0l4 -12q-24 -10 -47 -10q-54 0 -64 72h-1q-96 -79 -189 -79q-28 0 -48 4t-40.5 18.5t-33 40t-20.5 70.5t-8 108zM249 488q-32 0 -52.5 -3t-46.5 -17.5t-40.5 -40.5t-25 -75.5 t-10.5 -119.5q0 -75 9.5 -122.5t30 -69.5t42 -29t54.5 -7q91 0 189 82v367q-69 35 -150 35zM159 663q0 43 25.5 68.5t68.5 25.5t68.5 -25.5t25.5 -68.5t-25.5 -68.5t-68.5 -25.5t-68.5 25.5t-25.5 68.5zM173 663q0 -37 21.5 -59t58.5 -22t58.5 22t21.5 59t-21.5 59t-58.5 22 t-58.5 -22t-21.5 -59z" />
<glyph horiz-adv-x="818" d="M253 501q77 0 117 -32t39 -125q22 157 185 157q91 0 128 -41.5t39 -119.5q0 -41 -4 -77h-345q-6 -143 36 -201t134 -58q83 0 159 27l3 -13q-78 -27 -162 -27q-67 0 -108.5 26t-59.5 83q-38 -51 -98.5 -80t-121.5 -29q-62 0 -97.5 30t-35.5 109v7q0 75 37 109.5t100 45.5 q59 11 202 13l-1 22q-4 98 -38.5 129.5t-106.5 31.5q-76 0 -170 -30l-3 12q23 9 74 20t98 11zM398 236q0 42 1 56q-135 -2 -198 -13q-66 -12 -96 -45.5t-30 -100.5q0 -76 30.5 -102.5t87.5 -26.5q60 0 119 28.5t98 82.5q-12 49 -12 121zM412 276h332q3 28 3 64 q0 74 -35 111.5t-117 36.5q-92 -1 -134 -49t-49 -163z" />
<glyph horiz-adv-x="482" d="M60 236q0 147 48.5 207.5t148.5 60.5q91 0 128 -43t39 -121q1 -30 -4 -77h-346q-4 -145 35.5 -202t135.5 -57q83 0 159 27l3 -13q-78 -27 -162 -27q-100 0 -142.5 55.5t-42.5 189.5zM75 276h332q3 28 3 64q0 75 -35 113.5t-117 37.5q-91 -1 -133.5 -50t-49.5 -165z M245 577l-52 121h14l52 -121h-14z" />
<glyph horiz-adv-x="482" d="M60 236q0 147 48.5 207.5t148.5 60.5q91 0 128 -43t39 -121q1 -30 -4 -77h-346q-4 -145 35.5 -202t135.5 -57q83 0 159 27l3 -13q-78 -27 -162 -27q-100 0 -142.5 55.5t-42.5 189.5zM75 276h332q3 28 3 64q0 75 -35 113.5t-117 37.5q-91 -1 -133.5 -50t-49.5 -165z M311 699l-52 -122h-14l52 122h14z" />
<glyph horiz-adv-x="482" d="M60 236q0 147 48.5 207.5t148.5 60.5q91 0 128 -43t39 -121q1 -30 -4 -77h-346q-4 -145 35.5 -202t135.5 -57q83 0 159 27l3 -13q-78 -27 -162 -27q-100 0 -142.5 55.5t-42.5 189.5zM75 276h332q3 28 3 64q0 75 -35 113.5t-117 37.5q-91 -1 -133.5 -50t-49.5 -165z M135 577l114 122h5l117 -122h-18l-101 106l-98 -106h-19z" />
<glyph horiz-adv-x="482" d="M60 236q0 147 48.5 207.5t148.5 60.5q91 0 128 -43t39 -121q1 -30 -4 -77h-346q-4 -145 35.5 -202t135.5 -57q83 0 159 27l3 -13q-78 -27 -162 -27q-100 0 -142.5 55.5t-42.5 189.5zM75 276h332q3 28 3 64q0 75 -35 113.5t-117 37.5q-91 -1 -133.5 -50t-49.5 -165z M172 577h-16v70h16v-70zM348 577h-16v70h16v-70z" />
<glyph horiz-adv-x="253" d="M103 492h147l-2 -13h-145v-479h-14v492v108q0 74 27 101.5t83 27.5q39 0 81 -7l-2 -12q-54 6 -79 6q-51 0 -73.5 -24t-22.5 -92v-108z" />
<glyph horiz-adv-x="841" d="M248 -12q-101 0 -144.5 57t-43.5 191q0 137 44.5 202.5t143.5 65.5q81 0 123.5 -43t55.5 -133q14 95 61 135.5t129 40.5q91 0 129 -44.5t38 -123.5q0 -38 -4 -73h-345q-6 -145 34 -202t136 -57q86 0 164 28l3 -13q-81 -28 -167 -28q-81 0 -123.5 35.5t-55.5 117.5 q-13 -83 -54.5 -119.5t-123.5 -36.5zM248 1q94 0 133 53.5t39 181.5q0 131 -40 193t-132 62q-93 0 -133.5 -62t-40.5 -193q0 -128 39.5 -181.5t134.5 -53.5zM435 276h332q3 28 3 64q0 75 -35 113.5t-117 37.5q-91 -1 -133.5 -50t-49.5 -165z" />
<glyph horiz-adv-x="426" d="M40 -228l-3 13l37 9q38 9 56 27t35 63l43 116h-5l-181 492h14l116 -315l60 -166h1q39 109 64 177l112 304h15l-226 -612q-19 -50 -38 -69.5t-63 -29.5zM274 699l-52 -122h-14l52 122h14z" />
<glyph horiz-adv-x="426" d="M40 -228l-3 13l37 9q38 9 56 27t35 63l43 116h-5l-181 492h14l116 -315l60 -166h1q39 109 64 177l112 304h15l-226 -612q-19 -50 -38 -69.5t-63 -29.5zM135 577h-16v70h16v-70zM311 577h-16v70h16v-70z" />
<glyph horiz-adv-x="395" d="M60 236q0 134 44.5 199.5t139.5 65.5q42 0 101 -14l-3 -13q-58 14 -98 14q-89 0 -129.5 -62t-40.5 -190q0 -126 39 -179t131 -53q46 0 100 14l4 -13q-59 -14 -103 -14q-99 0 -142 56.5t-43 188.5zM203 -181h-16q3 2 6.5 6t14.5 17t15.5 26t8 33.5t-5.5 39.5h14 q9 -37 0.5 -64.5t-22.5 -42.5z" />
<glyph horiz-adv-x="501" d="M251 -12q-103 0 -147 57t-44 191q0 136 46 202t146 66t144.5 -65.5t44.5 -202.5q0 -134 -44 -191t-146 -57zM252 1q95 0 135 53.5t40 181.5q0 131 -40.5 193t-134.5 62q-95 0 -136.5 -62t-41.5 -193q0 -128 40.5 -181.5t137.5 -53.5zM295 699l-34 -122h-14l34 122h14z " />
<glyph horiz-adv-x="461" d="M119 492h122l-2 -13h-120v-479h-14v479h-81v13h81v108q0 74 27 101.5t83 27.5q81 0 157 -17v-712h-14v702q-84 14 -142 14q-52 0 -74.5 -24t-22.5 -92v-108z" />
<glyph horiz-adv-x="959" d="M39 22l3 13q111 -31 185 -31q68 0 103 22.5t35 94.5q0 55 -31.5 82t-106.5 50l-42 13q-34 11 -53 18.5t-39.5 22t-29.5 35.5t-9 51q0 63 36.5 85.5t105.5 22.5q62 0 131 -15q-51 43 -51 111q0 64 38 97.5t101 33.5q71 0 126 -22v-216l-1 -68h1q96 79 197 79 q59 0 96.5 -29t37.5 -111v-361h-14v361q0 76 -33 101.5t-87 25.5q-99 0 -197 -82v-406h-14v698q-46 17 -112 17q-56 0 -90.5 -29.5t-34.5 -87.5q0 -77 68 -120l-3 -13q-78 23 -158 23q-64 0 -96.5 -19.5t-32.5 -75.5q0 -49 26.5 -71t94.5 -43l41 -13q82 -26 115.5 -54.5 t33.5 -90.5q0 -75 -38 -102.5t-114 -27.5q-87 0 -188 31z" />
<glyph horiz-adv-x="699" d="M60 236q0 134 44.5 199.5t139.5 65.5q29 0 71 -8q-39 34 -39 94q0 56 32.5 86t88.5 30q60 0 107 -19v-192h159l-2 -13h-157v-384q0 -56 17.5 -72t56.5 -16q40 0 82 10l3 -13q-38 -10 -85 -10q-46 0 -67 19t-21 82v384h-74v13h74v184q-45 14 -93 14q-49 0 -78 -26t-29 -76 q0 -37 13 -60t42 -41l-3 -13q-58 14 -98 14q-89 0 -129.5 -62t-40.5 -190q0 -126 39 -179t131 -53q46 0 100 14l4 -13q-59 -14 -103 -14q-99 0 -142 56.5t-43 188.5z" />
<glyph horiz-adv-x="916" d="M484 0v702q-35 13 -80 13q-57 0 -87.5 -29.5t-30.5 -83.5q0 -70 59 -115l-3 -13q-58 14 -98 14q-89 0 -129.5 -62t-40.5 -190q0 -126 39 -179t131 -53q46 0 100 14l4 -13q-59 -14 -103 -14q-99 0 -142 56.5t-43 188.5q0 134 44.5 199.5t139.5 65.5q37 0 75 -9 q-47 44 -47 110q0 59 34.5 92.5t97.5 33.5q56 0 94 -17v-221l-1 -68h1q96 79 197 79q59 0 96.5 -29t37.5 -111v-361h-14v361q0 76 -33 101.5t-87 25.5q-99 0 -197 -82v-406h-14z" />
<glyph horiz-adv-x="331" d="M41 409q0 54 9 89t27.5 51.5t37 21.5t46.5 5q60 0 106 -24v-225q0 -34 13.5 -45t44.5 0l3 -12q-16 -6 -32 -6q-12 0 -20.5 4t-13 13t-5.5 12t-3 13h-1q-56 -47 -118 -47q-47 0 -70.5 29.5t-23.5 120.5zM162 563q-25 0 -40.5 -4t-32.5 -18t-25.5 -47t-8.5 -85 q0 -58 12 -89.5t28 -39.5t43 -8q57 0 115 49v221q-39 21 -91 21z" />
<glyph horiz-adv-x="413" d="M240 557v-63q0 -77 -10.5 -107.5t-50.5 -68.5l-60 -56q-52 -49 -52 -123q0 -79 40.5 -107t124.5 -28q54 0 126 18l2 -12q-60 -19 -131 -19q-88 0 -132 31.5t-44 116.5q0 79 54 130l65 61q36 33 45 61.5t9 102.5v63h14zM240 697v-72h-14v72h14z" />
<glyph horiz-adv-x="204" d="M109 557v-557h-14v557h14zM110 697v-72h-16v72h16z" />
</font>
</defs>
</svg>
