<?xml version="1.0" standalone="no"?>
<!DOCTYPE svg PUBLIC "-//W3C//DTD SVG 1.1//EN" "http://www.w3.org/Graphics/SVG/1.1/DTD/svg11.dtd" >
<svg xmlns="http://www.w3.org/2000/svg" xmlns:xlink="http://www.w3.org/1999/xlink" version="1.1">
<metadata></metadata>
<defs>
<font id="bunday_sansbold_up_italic" horiz-adv-x="521" >
<font-face units-per-em="1000" ascent="750" descent="-250" />
<missing-glyph horiz-adv-x="219" />
<glyph unicode="&#xfb00;" horiz-adv-x="648" d="M270 503h160l14 73q18 94 59.5 124t119.5 30q79 0 137 -14l-35 -96q-51 7 -81 7q-33 0 -47.5 -11t-22.5 -50l-12 -63h136l-33 -94h-121l-78 -405q-20 -104 -61.5 -147.5t-120.5 -59.5q-36 -7 -86 -15l-5 100q57 11 70 15q35 10 48 34t23 77l78 401h-159l-80 -415 q-20 -104 -62 -147.5t-120 -59.5q-31 -6 -88 -15l-5 100q62 12 72 15q35 10 48 34t23 77l80 411h-66l18 94h66l14 73q18 94 59.5 124t120.5 30q63 0 108 -12l-35 -95q-4 0 -23 2t-29 2q-33 0 -48 -11t-23 -50z" />
<glyph unicode="&#xfb01;" horiz-adv-x="582" d="M270 503h295l-97 -503h-132l79 409h-162l-80 -415q-20 -104 -62 -147.5t-120 -59.5q-31 -6 -88 -15l-5 100q62 12 72 15q35 10 48 34t23 77l80 411h-66l18 94h66l14 73q18 93 60.5 123.5t120.5 30.5q49 0 115 -8t90 -15l-34 -96q-89 16 -151 16q-33 0 -48 -11t-23 -50z " />
<glyph unicode="&#xfb02;" horiz-adv-x="606" d="M270 503h102l-33 -94h-86l-80 -415q-20 -104 -62 -147.5t-120 -59.5q-31 -6 -88 -15l-5 100q62 12 72 15q35 10 48 34t23 77l80 411h-66l18 94h66l14 73q18 94 62 124t129 30q129 0 261 -23l-110 -562q-5 -26 1 -34.5t22 -8.5q13 0 34 3l-6 -100q-40 -12 -89 -12 q-62 0 -86.5 31t-8.5 116l94 483q-54 6 -90 6q-42 0 -58.5 -10.5t-23.5 -48.5z" />
<glyph unicode="&#xfb03;" horiz-adv-x="876" d="M565 503h294l-97 -503h-132l79 409h-163l-78 -405q-20 -104 -61.5 -147.5t-119.5 -59.5q-42 -8 -87 -15l-4 100q55 11 70 15q34 10 47.5 34t23.5 77l77 401h-161l-80 -415q-20 -104 -62 -147.5t-120 -59.5q-31 -6 -88 -15l-5 100q62 12 72 15q35 10 48 34t23 77l80 411 h-66l18 94h66l14 73q18 94 59.5 124t120.5 30q63 0 108 -12l-35 -95q-4 0 -23 2t-29 2q-33 0 -48 -11t-23 -50l-13 -63h163l14 73q18 93 60.5 123.5t120.5 30.5q49 0 115 -8t90 -15l-35 -96q-87 16 -151 16q-33 0 -47.5 -11t-22.5 -50z" />
<glyph unicode="&#xfb04;" horiz-adv-x="900" d="M565 503h100l-33 -94h-86l-79 -405q-19 -104 -61 -147.5t-120 -59.5q-36 -7 -86 -15l-5 100q57 11 70 15q35 10 48 34t23 77l78 401h-161l-80 -415q-20 -104 -62 -147.5t-120 -59.5q-31 -6 -88 -15l-5 100q62 12 72 15q35 10 48 34t23 77l80 411h-66l18 94h66l14 73 q18 94 59.5 124t120.5 30q63 0 108 -12l-35 -95q-4 0 -23 2t-29 2q-33 0 -48 -11t-23 -50l-13 -63h163l14 73q18 94 62 124t128 30q127 0 262 -23l-110 -562q-5 -27 0.5 -35t22.5 -8q11 0 35 3l-7 -100q-40 -12 -90 -12q-61 0 -85.5 31t-8.5 116l94 483q-54 6 -90 6 q-43 0 -59 -10t-23 -49z" />
<glyph unicode="fb" horiz-adv-x="827" d="M270 503h102l-33 -94h-86l-80 -415q-20 -104 -62 -147.5t-120 -59.5q-31 -6 -88 -15l-5 100q62 12 72 15q35 10 48 34t23 77l80 411h-66l18 94h66l14 73q18 94 62.5 124t133.5 30q124 0 256 -23l-28 -143q-5 -23 -11.5 -50t-11 -45t-4.5 -19h2q73 62 135 62 q36 0 59.5 -10.5t41 -38t17 -75.5t-13.5 -123q-29 -149 -81 -211.5t-161 -62.5q-111 0 -208 40l115 592q-54 6 -90 6q-42 0 -58.5 -10.5t-23.5 -48.5zM548 99q43 0 67.5 31.5t43.5 134.5q14 59 10.5 90t-12.5 40t-28 9q-23 0 -50.5 -17.5t-44.5 -39.5l-46 -238 q23 -10 60 -10z" />
<glyph unicode="fh" horiz-adv-x="841" d="M270 503h102l-33 -94h-86l-80 -415q-20 -104 -62 -147.5t-120 -59.5q-31 -6 -88 -15l-5 100q62 12 72 15q35 10 48 34t23 77l80 411h-66l18 94h66l14 73q18 94 62 124t129 30q129 0 261 -23l-29 -148q-5 -24 -13 -52t-13 -44l-6 -16h2q75 65 160 65q52 0 82 -35.5 t15 -112.5l-68 -364h-132l64 340q13 64 -32 64q-25 0 -54 -18t-46 -40l-67 -346h-132l121 623q-55 6 -91 6q-42 0 -58.5 -10.5t-23.5 -48.5z" />
<glyph unicode="fj" horiz-adv-x="581" d="M270 503h295l-94 -484q-21 -104 -62 -147.5t-117 -59.5q-40 -8 -89 -15l1 100q6 2 29.5 6.5t36.5 8.5q33 10 46.5 34.5t22.5 76.5l75 386h-161l-80 -415q-20 -104 -62 -147.5t-120 -59.5q-31 -6 -88 -15l-5 100q62 12 72 15q35 10 48 34t23 77l80 411h-66l18 94h66l14 73 q18 93 60.5 123.5t120.5 30.5q49 0 115 -8t90 -15l-34 -96q-89 16 -151 16q-33 0 -48 -11t-23 -50z" />
<glyph unicode="ffj" horiz-adv-x="875" d="M565 503h294l-94 -484q-21 -104 -62 -147.5t-117 -59.5q-35 -7 -89 -15v100q5 1 29 6t37 9q34 10 47.5 34t23.5 77l75 386h-163l-78 -405q-19 -104 -61 -147.5t-120 -59.5q-36 -7 -86 -15l-5 100q57 11 70 15q35 10 48 34t23 77l77 401h-161l-80 -415 q-20 -104 -62 -147.5t-120 -59.5q-31 -6 -88 -15l-5 100q62 12 72 15q35 10 48 34t23 77l80 411h-66l18 94h66l14 73q18 94 59.5 124t120.5 30q63 0 108 -12l-35 -95q-4 0 -23 2t-29 2q-33 0 -48 -11t-23 -50l-13 -63h163l14 73q18 93 60.5 123.5t120.5 30.5q49 0 115 -8 t90 -15l-35 -96q-87 16 -151 16q-33 0 -47.5 -11t-22.5 -50z" />
<glyph unicode="fk" horiz-adv-x="867" d="M270 503h102l-33 -94h-86l-80 -415q-20 -104 -62 -147.5t-120 -59.5q-31 -6 -88 -15l-5 100q62 12 72 15q35 10 48 34t23 77l80 411h-66l18 94h66l14 73q18 94 63 124t130 30q127 0 259 -23l-49 -251q92 56 173 56q64 0 93 -35t20 -88q-10 -57 -42.5 -100.5t-103.5 -82.5 l12 -39q11 -35 26.5 -51t41.5 -16q20 0 38 8l13 -88q-48 -25 -101 -25q-48 0 -77.5 26t-51.5 97l-41 125q81 33 115 61.5t40 63.5q7 38 -38 38q-65 0 -138 -53l-67 -353h-132l120 623q-54 6 -90 6q-42 0 -58.5 -10.5t-23.5 -48.5z" />
<glyph unicode="ft" horiz-adv-x="662" d="M121 409h-66l18 94h66l14 73q18 94 59.5 124t120.5 30q63 0 108 -12l-35 -95q-4 0 -23 2t-29 2q-33 0 -48 -11t-23 -50l-13 -63h164l35 130l123 12l-27 -142h123l-33 -94h-108l-53 -268q-5 -26 3 -33.5t30 -7.5q4 0 69 10l-3 -99q-46 -18 -112 -18q-78 0 -106.5 30 t-12.5 117l53 269h-162l-80 -415q-20 -104 -62 -147.5t-120 -59.5q-31 -6 -88 -15l-5 100q62 12 72 15q35 10 48 34t23 77z" />
<glyph horiz-adv-x="500" />
<glyph horiz-adv-x="500" />
<glyph horiz-adv-x="333" />
<glyph unicode="&#xd;" horiz-adv-x="0" />
<glyph unicode=" "  horiz-adv-x="219" />
<glyph unicode="&#x09;" horiz-adv-x="219" />
<glyph unicode="&#xa0;" horiz-adv-x="219" />
<glyph unicode="!" horiz-adv-x="261" d="M56 202l97 495h130l-97 -495h-130zM18 0l21 113h131l-22 -113h-130z" />
<glyph unicode="&#x22;" horiz-adv-x="416" d="M308 512l32 210h108l-50 -210h-90zM122 512l32 210h108l-50 -210h-90z" />
<glyph unicode="#" horiz-adv-x="765" d="M46 142l25 86h156l37 122h-156l24 84h157l48 160h85l-48 -160h125l48 160h85l-48 -160h150l-25 -84h-149l-37 -122h149l-25 -86h-149l-43 -146h-85l43 146h-125l-44 -146h-85l43 146h-156zM312 228h126l37 122h-126z" />
<glyph unicode="$" horiz-adv-x="549" d="M28 31l41 105q111 -25 159 -25q55 0 80 19t35 66q6 35 -7 60t-53 45l-43 20q-29 14 -47 26t-35 29.5t-22 37.5t-8 50t7 66q27 147 188 163l19 95h75l-19 -94q86 -6 140 -24l-41 -103q-70 17 -136 17q-85 0 -99 -69q-7 -35 5.5 -55t46.5 -37l35 -17q26 -12 43.5 -22 t35.5 -23.5t27.5 -29.5t16 -37.5t6 -49t-7.5 -61.5q-17 -90 -65 -132.5t-141 -48.5l-18 -93h-75l18 93q-100 7 -161 29z" />
<glyph unicode="%" horiz-adv-x="876" d="M74 480q25 128 64.5 176.5t120.5 48.5q83 0 105.5 -49.5t-2.5 -176.5q-24 -127 -63 -174t-121 -47t-105 47.5t1 174.5zM191 338q26 0 40 28.5t30 113.5q17 85 14.5 114.5t-28.5 29.5t-41 -29.5t-32 -114.5q-16 -85 -12.5 -113.5t29.5 -28.5zM552 215q25 127 65 176 t121 49q83 0 105.5 -49.5t-2.5 -176.5q-24 -127 -63 -174t-121 -47t-105 47.5t0 174.5zM670 73q26 0 39.5 28t30.5 114q17 85 14 114.5t-29 29.5q-25 0 -40 -29.5t-32 -114.5q-16 -85 -12.5 -113.5t29.5 -28.5zM170 -22l483 740h92l-483 -740h-92z" />
<glyph unicode="&#x26;" horiz-adv-x="563" d="M531 456l11 -99l-70 -20q1 -6 7 -33.5t8 -42t2 -42.5t-5 -56q-15 -87 -80.5 -130.5t-170.5 -43.5q-111 0 -163.5 45.5t-32.5 147.5q11 56 47.5 96t85.5 61l1 2q-75 45 -50 157q31 139 207 139q94 0 145 -22l-38 -97q-53 12 -98 12q-79 0 -91 -67q-7 -31 7 -51.5t43 -22.5 zM348 298q-80 -23 -104 -33q-66 -30 -78 -91q-7 -36 13 -57t67 -21q45 0 74 23t36 60q8 39 -8 119z" />
<glyph unicode="'" horiz-adv-x="230" d="M122 512l32 210h108l-50 -210h-90z" />
<glyph unicode="(" horiz-adv-x="387" d="M269 -27h-127q-55 132 -55 264q0 251 196 487h144q-94 -104 -156 -232t-62 -252q0 -132 60 -267z" />
<glyph unicode=")" horiz-adv-x="387" d="M154 724h127q55 -132 55 -265q0 -249 -197 -486h-142q94 105 155.5 232t61.5 251q0 133 -60 268z" />
<glyph unicode="*" horiz-adv-x="491" d="M179 318l-60 46l110 118l-130 40l39 73l128 -48l26 150h81l-31 -146l147 47l11 -75l-151 -43l70 -116l-71 -46l-60 118z" />
<glyph unicode="+" horiz-adv-x="508" d="M176 103l31 160h-155l20 101h155l31 160h101l-31 -160h155l-20 -101h-155l-31 -160h-101z" />
<glyph unicode="," horiz-adv-x="261" d="M72 -106h-110q72 104 95 226h117q-25 -129 -102 -226z" />
<glyph unicode="-" horiz-adv-x="362" d="M35 234l20 104h288l-20 -104h-288z" />
<glyph unicode="." horiz-adv-x="262" d="M13 0l24 120h141l-23 -120h-142z" />
<glyph unicode="/" horiz-adv-x="385" d="M323 697h118l-342 -697h-117z" />
<glyph unicode="0" horiz-adv-x="530" d="M60 347q38 198 99 280t189 82q129 0 163.5 -86.5t-5.5 -275.5q-38 -197 -98.5 -278t-187.5 -81q-129 0 -164.5 85t4.5 274zM236 98q55 0 82.5 53t54.5 196q29 138 22 195t-62 57t-83.5 -54t-56.5 -198q-28 -138 -20 -193.5t63 -55.5z" />
<glyph unicode="1" horiz-adv-x="324" d="M74 0l114 587h-96l21 110h229l-135 -697h-133z" />
<glyph unicode="2" horiz-adv-x="469" d="M-2 0l31 159q19 100 58.5 143.5t128.5 81.5l42 18q37 17 59 41.5t30 68.5q9 42 -4 63t-52 21q-40 0 -150 -23l1 103q117 30 180 30q192 0 157 -186q-18 -95 -60 -142.5t-121 -81.5l-46 -20q-44 -19 -62.5 -44.5t-29.5 -81.5l-8 -40h248l-22 -110h-380z" />
<glyph unicode="3" horiz-adv-x="459" d="M-25 25l45 101q78 -26 145 -26q53 0 78 25.5t35 73.5q11 57 -7.5 83.5t-88.5 28.5l-64 2l20 103l68 3q62 1 87.5 24t35.5 73q7 41 -5.5 60.5t-54.5 19.5q-55 0 -158 -27l-2 98q105 39 188 39q103 0 144 -44t22 -141q-11 -56 -42 -98.5t-67 -56.5q83 -41 57 -168 q-22 -108 -79 -158t-170 -50q-108 0 -187 35z" />
<glyph unicode="4" horiz-adv-x="503" d="M23 181v102l276 427l115 -45l-107 -162l-146 -212h158l47 138h109l-83 -429h-133l35 181h-271z" />
<glyph unicode="5" horiz-adv-x="486" d="M0 22l40 103q97 -25 154 -25q50 0 78 26t39 83q12 58 -3 86t-77 28q-55 0 -123 -14l-28 20l71 368h348l-21 -110h-215l-32 -160q29 5 59 5q95 0 135.5 -56.5t19.5 -166.5q-23 -117 -84 -168t-166 -51q-49 0 -107.5 10.5t-87.5 21.5z" />
<glyph unicode="6" horiz-adv-x="504" d="M348 596q-58 0 -88 -41t-54 -146q58 29 118 29q79 0 119 -51.5t17 -171.5q-24 -125 -87 -176t-162 -51q-122 0 -156.5 83t2.5 259q21 107 42.5 172.5t56 114.5t83.5 69t121 20q84 0 155 -28l-42 -101q-81 19 -125 19zM276 331q-52 0 -91 -26q-21 -114 -12.5 -160.5 t53.5 -46.5q39 0 63.5 26t37.5 91q12 63 -1 89.5t-50 26.5z" />
<glyph unicode="7" horiz-adv-x="448" d="M163 0h-139q73 187 135.5 304t178.5 283h-243l21 110h395l-19 -102q-129 -190 -198 -312t-131 -283z" />
<glyph unicode="8" horiz-adv-x="524" d="M26 200q25 128 124 179q-26 15 -38 52.5t-3 84.5q39 193 237 193q101 0 147.5 -48t26.5 -145q-9 -47 -37 -87.5t-60 -56.5q82 -51 56 -172q-22 -108 -85 -160t-176 -52q-233 0 -192 212zM295 419q78 0 96 93q19 90 -60 90q-76 0 -93 -90q-18 -93 57 -93zM231 95 q49 0 78 25.5t41 85.5q21 110 -75 110q-95 0 -117 -111q-12 -60 6.5 -85t66.5 -25z" />
<glyph unicode="9" horiz-adv-x="504" d="M193 101q59 0 88.5 41t53.5 146q-58 -29 -118 -29q-79 0 -119 51.5t-17 171.5q24 125 87 176t162 51q122 0 156.5 -83.5t-2.5 -258.5q-21 -107 -42.5 -172.5t-56 -114.5t-83.5 -69t-121 -20q-84 0 -155 28l42 101q81 -19 125 -19zM265 366q52 0 91 26q13 78 14 121.5 t-12 64.5t-43 21q-39 0 -63.5 -26t-37.5 -91q-12 -63 1 -89.5t50 -26.5z" />
<glyph unicode=":" horiz-adv-x="262" d="M74 316l23 120h142l-23 -120h-142zM13 0l24 120h141l-23 -120h-142z" />
<glyph unicode=";" horiz-adv-x="261" d="M72 -106h-110q72 104 95 226h117q-25 -129 -102 -226zM74 316l23 120h141l-23 -120h-141z" />
<glyph unicode="&#x3c;" horiz-adv-x="509" d="M82 251l24 123l393 246l-27 -138l-277 -175l209 -176l-24 -126z" />
<glyph unicode="=" horiz-adv-x="508" d="M81 365l20 101h392l-20 -101h-392zM42 162l20 100h391l-20 -100h-391z" />
<glyph unicode="&#x3e;" horiz-adv-x="509" d="M462 374l-24 -123l-392 -246l28 139l277 176l-209 175l23 125z" />
<glyph unicode="?" horiz-adv-x="408" d="M119 198l12 63q8 41 23 71t28.5 45t44.5 42l35 30q36 32 45 80q8 40 -8 55t-58 15q-55 0 -128 -21l-2 97q99 31 172 31q186 0 151 -176q-17 -89 -79 -143l-37 -33q-30 -26 -42.5 -47t-19.5 -59l-11 -50h-126zM81 0l22 113h126l-21 -113h-127z" />
<glyph unicode="@" horiz-adv-x="750" d="M48 255q32 180 132.5 269t256.5 89q134 0 207 -64t73 -190q0 -47 -11 -104q-19 -101 -59.5 -143.5t-113.5 -42.5q-67 0 -89 42q-62 -51 -129 -51q-126 0 -90 187q21 113 69.5 156t118.5 43q78 0 105 -40.5t10 -128.5l-17 -85q-10 -51 29 -51q34 0 56 23.5t34 91.5 q11 59 11 97q0 99 -52 145t-156 46q-126 0 -203.5 -68.5t-106.5 -220.5q-9 -47 -11 -97q-1 -100 51.5 -146.5t157.5 -46.5q42 0 108 11l-5 -67q-54 -12 -107 -12q-136 0 -207.5 64.5t-70.5 195.5q0 44 9 98zM335 131q49 0 91 42l20 105q11 57 3 77t-43 20q-36 0 -61 -28 t-39 -100q-12 -64 -5 -90t34 -26z" />
<glyph unicode="A" horiz-adv-x="520" d="M-34 0l279 697h202l13 -697h-128l-1 157h-173l-58 -157h-134zM192 254h145l-6 337h-6z" />
<glyph unicode="B" horiz-adv-x="549" d="M239 0h-218l136 697h177q125 0 173 -43t30 -145q-23 -105 -102 -138q41 -16 62 -59t8 -108q-21 -110 -84 -157t-182 -47zM231 413h49q63 0 89.5 19.5t37.5 74.5q9 51 -8.5 69t-81.5 18h-50zM172 108h74q59 0 88.5 21.5t40.5 79.5q12 60 -7 80.5t-81 20.5h-76z" />
<glyph unicode="C" horiz-adv-x="470" d="M400 118v-102q-84 -25 -153 -25t-111.5 16.5t-67.5 57t-24 109.5t19 175q37 193 103 275t205 82q31 0 81.5 -6.5t73.5 -15.5l-38 -101q-70 13 -114 13q-53 0 -82 -17t-52.5 -70t-43.5 -160q-15 -81 -18 -129.5t8.5 -75t33 -35t61.5 -8.5q30 0 119 17z" />
<glyph unicode="D" horiz-adv-x="576" d="M181 0h-160l134 697h139q64 0 107.5 -6t76.5 -22t50.5 -40.5t24.5 -64.5t3 -91t-18 -123q-15 -75 -28.5 -125t-33.5 -92t-43.5 -65t-60 -39.5t-81.5 -22.5t-110 -6zM174 110h28q54 0 82 6.5t52.5 33t38.5 71.5t31 130q13 68 16 110t-0.5 68.5t-22 38.5t-40.5 15.5 t-64 3.5h-28z" />
<glyph unicode="E" horiz-adv-x="482" d="M21 0l136 697h376l-22 -110h-243l-34 -172h195l-21 -106h-193l-39 -199h247l-22 -110h-380z" />
<glyph unicode="F" horiz-adv-x="465" d="M21 0l136 697h375l-22 -110h-242l-37 -190h184l-21 -111h-185l-55 -286h-133z" />
<glyph unicode="G" horiz-adv-x="525" d="M64 351q38 203 100 279t194 76q46 0 105 -7.5t85 -16.5l-37 -103q-109 17 -146 17q-36 0 -57.5 -7.5t-42.5 -33t-36.5 -74t-31.5 -130.5q-15 -82 -18.5 -131.5t7 -75.5t28.5 -34.5t52 -8.5t58 6l52 275h128l-68 -358q-90 -33 -196 -33q-135 0 -174.5 78.5t-1.5 281.5z " />
<glyph unicode="H" horiz-adv-x="587" d="M21 0l136 697h133l-55 -281h180l56 281h133l-136 -697h-134l60 306h-180l-60 -306h-133z" />
<glyph unicode="I" horiz-adv-x="270" d="M21 0l136 697h133l-136 -697h-133z" />
<glyph unicode="J" horiz-adv-x="400" d="M-33 10l36 101q57 -10 100 -10q39 0 59.5 19.5t28.5 62.5l100 514h133l-100 -516q-20 -101 -72.5 -145.5t-140.5 -44.5q-85 0 -144 19z" />
<glyph unicode="K" horiz-adv-x="548" d="M21 0l136 697h133l-57 -293q6 0 20.5 -3t21.5 -4l187 300h151l-226 -346q40 -47 55 -111l64 -240h-136l-51 200q-15 57 -39.5 75t-68.5 20l-57 -295h-133z" />
<glyph unicode="L" horiz-adv-x="430" d="M21 0l136 697h133l-115 -587h209l-21 -110h-342z" />
<glyph unicode="M" horiz-adv-x="747" d="M653 0h-127l39 314q6 44 15 99t16 89l6 33h-4q-23 -59 -60 -138l-139 -293h-111l-26 294q-4 34 -5.5 68t-1.5 52v17h-5q-26 -124 -51 -222l-74 -313h-126l172 697h163l28 -322q3 -35 4.5 -67.5t1.5 -47.5l-1 -14h5q19 54 55 130l147 321h171z" />
<glyph unicode="N" horiz-adv-x="610" d="M21 0l134 697h158l67 -366q21 -106 26 -169h4q9 89 42 260l52 275h123l-134 -697h-157l-66 359q-17 85 -27 174h-3q-21 -139 -46 -270l-49 -263h-124z" />
<glyph unicode="O" horiz-adv-x="562" d="M61 341q38 199 105 283.5t203 84.5q135 0 173 -85.5t-1 -270.5q-39 -199 -105 -282t-202 -83q-135 0 -173.5 84t0.5 269zM252 98q63 0 95.5 55t61.5 202q27 133 15 188.5t-73 55.5q-63 0 -96 -56.5t-61 -202.5q-28 -134 -15.5 -188t73.5 -54z" />
<glyph unicode="P" horiz-adv-x="518" d="M21 0l134 697h190q123 0 168 -49.5t22 -167.5q-45 -227 -258 -227h-75l-48 -253h-133zM224 363h59q54 0 82 26.5t41 91.5q12 62 -4.5 84t-74.5 22h-60z" />
<glyph unicode="Q" horiz-adv-x="560" d="M61 341q38 199 105 283.5t203 84.5q135 0 173 -85.5t-1 -270.5q-27 -136 -63.5 -214.5t-95.5 -115.5q35 -52 138 -84q-7 -13 -22.5 -46.5t-20.5 -42.5q-169 38 -212 140q-20 -2 -31 -2q-135 0 -173.5 84t0.5 269zM252 98q63 0 95.5 55t61.5 202q27 133 15 188.5t-73 55.5 q-63 0 -96 -56.5t-61 -202.5q-28 -134 -15.5 -188t73.5 -54z" />
<glyph unicode="R" horiz-adv-x="548" d="M21 0l136 697h190q122 0 168 -49.5t22 -167.5q-14 -70 -45 -113t-86 -63q43 -32 56 -116l28 -188h-137l-20 167q-7 49 -25 67t-59 18h-47l-48 -252h-133zM225 362h55q57 0 84.5 25.5t39.5 90.5q12 63 -4.5 86t-75.5 23h-56z" />
<glyph unicode="S" horiz-adv-x="482" d="M-11 21l40 104q109 -24 160 -24q56 0 81 20t33 69q8 39 -3.5 66.5t-52.5 48.5l-43 20q-35 17 -56.5 34t-38 43.5t-17 59.5t6.5 82q32 162 223 162q104 0 179 -25l-41 -103q-81 18 -136 18q-44 0 -68 -16.5t-32 -57.5q-7 -38 5 -58t47 -38l36 -17q31 -15 51.5 -28.5 t39.5 -33t25 -41.5t9.5 -55t-6.5 -72q-18 -100 -71 -144t-163 -44q-113 0 -208 30z" />
<glyph unicode="T" horiz-adv-x="457" d="M116 0l113 587h-145l22 110h422l-21 -110h-145l-113 -587h-133z" />
<glyph unicode="U" horiz-adv-x="569" d="M51 187l100 510h133l-100 -512q-16 -87 71 -87t105 87l100 512h134l-100 -510q-21 -103 -82.5 -151t-169.5 -48q-109 0 -159.5 49t-31.5 150z" />
<glyph unicode="V" horiz-adv-x="497" d="M108 0l-14 697h132v-359q1 -72 -8 -225h6q46 136 78 223l136 361h136l-277 -697h-189z" />
<glyph unicode="W" horiz-adv-x="763" d="M85 0l19 697h122l-16 -374q-4 -127 -13 -184h5q22 77 59 181l133 367h140l-5 -370q-1 -34 -9 -178h4q11 46 56 183l123 375h129l-245 -697h-162l5 340q2 126 10 195h-4q-22 -72 -68 -199l-124 -336h-159z" />
<glyph unicode="X" horiz-adv-x="516" d="M272 278h-6q-56 -99 -84 -147l-78 -131h-146l237 365l-95 332h135l27 -115l27 -134h6q53 89 75 124l76 125h143l-222 -333l100 -364h-135l-31 128z" />
<glyph unicode="Y" horiz-adv-x="497" d="M135 0l57 307l-112 390h139l44 -172q15 -65 19 -83h1q3 6 50 81l112 174h146l-266 -391l-57 -306h-133z" />
<glyph unicode="Z" horiz-adv-x="486" d="M-19 0l12 61l338 526h-216l21 110h392l-11 -57l-340 -530h250l-22 -110h-424z" />
<glyph unicode="[" horiz-adv-x="363" d="M231 -87h-197l168 865h197l-15 -85h-87l-137 -694h87z" />
<glyph unicode="\" horiz-adv-x="385" d="M118 697h108l79 -697h-106z" />
<glyph unicode="]" horiz-adv-x="363" d="M200 -87h-197l16 83h86l138 701h-87l15 81h197z" />
<glyph unicode="^" horiz-adv-x="531" d="M58 374l240 323h109l116 -323h-99l-83 234l-175 -234h-108z" />
<glyph unicode="_" horiz-adv-x="431" d="M-77 -161l15 82h430l-16 -82h-429z" />
<glyph unicode="`" horiz-adv-x="275" d="M213 640l-60 154h111l37 -154h-88z" />
<glyph unicode="a" d="M37 241q29 152 86 211.5t151 59.5q112 0 212 -40l-60 -320q-8 -40 1 -50t45 -2l-2 -91q-35 -14 -77 -14q-41 0 -63.5 15.5t-31.5 49.5h-3q-69 -69 -165 -69q-141 0 -93 250zM280 404q-40 0 -66 -32t-45 -132q-13 -58 -10.5 -89.5t10.5 -41.5t25 -10q27 0 54 17t46 40 l45 237q-26 11 -59 11z" />
<glyph unicode="b" horiz-adv-x="507" d="M156 722h132l-31 -158q-5 -23 -11 -48.5t-10.5 -41.5t-4.5 -17h2q62 55 134 55q36 0 59.5 -10.5t41 -38t17 -75.5t-13.5 -123q-29 -149 -81 -211.5t-161 -62.5q-111 0 -208 40zM228 99q43 0 67.5 31.5t43.5 134.5q14 59 11 90t-11.5 40t-28.5 9q-22 0 -50.5 -17.5 t-45.5 -39.5l-46 -238q23 -10 60 -10z" />
<glyph unicode="c" horiz-adv-x="415" d="M40 250q27 134 81.5 198t170.5 64q82 0 139 -21l-38 -98q-42 11 -92 11q-55 0 -84 -35t-46 -119q-16 -90 -1 -120.5t71 -30.5q37 0 99 15l3 -99q-67 -24 -144 -24q-118 0 -151.5 63t-7.5 196z" />
<glyph unicode="d" horiz-adv-x="507" d="M38 237q29 155 82.5 215t142.5 60q55 0 97 -17h2q7 42 19 102l24 125h132l-140 -722h-116l2 49h-2q-67 -58 -150 -58q-66 0 -93.5 54t0.5 192zM295 156l45 237q-26 11 -58 11q-29 0 -47 -10.5t-35 -48t-31 -108.5q-13 -59 -10 -89.5t11 -39.5t24 -9q26 0 54 17t47 40z " />
<glyph unicode="e" horiz-adv-x="477" d="M40 251q13 67 29 110.5t44 81t72.5 55t108.5 17.5q47 0 81 -10.5t51.5 -27.5t28 -39t9.5 -45t-4 -46q-17 -85 -47 -108t-118 -23q-74 0 -127 16q-2 -5 -2 -7q-14 -74 1.5 -103t68.5 -29q58 0 149 26l2 -93q-76 -35 -181 -35q-120 0 -156 61.5t-10 198.5zM187 319 q39 -15 91 -15q29 0 39 11t16 39q13 65 -50 65q-35 0 -58.5 -22.5t-37.5 -77.5z" />
<glyph unicode="f" horiz-adv-x="356" d="M-94 -228l-4 100q58 11 71 15q33 10 45.5 33.5t23.5 77.5l78 411h-67l18 94h67l14 73q18 93 60.5 123.5t118.5 30.5q79 0 137 -14l-35 -96q-51 7 -82 7q-30 0 -45.5 -11.5t-23.5 -49.5l-13 -63h137l-33 -94h-122l-78 -415q-21 -105 -60 -147.5t-118 -59.5 q-78 -13 -89 -15z" />
<glyph unicode="g" horiz-adv-x="508" d="M132 81v3q-48 8 -76.5 54.5t-9.5 144.5q46 229 236 229q111 0 207 -40l-91 -471q-46 -234 -249 -234q-82 0 -122.5 42t-27.5 113q20 103 133 159zM299 174l43 220q-34 10 -58 10q-38 0 -65 -29t-44 -110q-13 -67 5 -95.5t67 -14.5q12 1 25 5.5t20 9.5zM270 -3l15 77 q-52 -24 -77 -40q-75 -46 -87 -104q-5 -29 7.5 -44.5t38.5 -15.5q78 0 103 127z" />
<glyph unicode="h" d="M15 0l140 722h131l-31 -163q-5 -24 -12.5 -51.5t-12.5 -43.5l-6 -16h2q73 64 159 64q52 0 82 -35.5t15 -112.5l-69 -364h-131l64 340q13 64 -31 64q-25 0 -54.5 -18t-47.5 -40l-66 -346h-132z" />
<glyph unicode="i" horiz-adv-x="265" d="M19 0l97 503h132l-97 -503h-132zM130 588l21 109h137l-21 -109h-137z" />
<glyph unicode="j" horiz-adv-x="265" d="M-119 -228l-4 100q59 11 71 15q34 10 47.5 33.5t24.5 77.5l98 505h131l-98 -509q-21 -107 -58.5 -148.5t-122.5 -58.5q-78 -13 -89 -15zM130 589l21 108h137l-20 -108h-138z" />
<glyph unicode="k" horiz-adv-x="547" d="M148 0h-132l140 722h132l-52 -265q94 55 173 55q64 0 93.5 -34.5t20.5 -88.5q-10 -57 -42.5 -100.5t-104.5 -82.5l12 -39q12 -35 27 -51t42 -16q19 0 37 8l13 -88q-48 -25 -101 -25q-48 0 -77.5 26t-51.5 97l-40 125q81 34 115 62t40 63q7 38 -38 38q-67 0 -138 -53z" />
<glyph unicode="l" horiz-adv-x="285" d="M230 103l-7 -100q-40 -12 -87 -12q-62 0 -87.5 31t-8.5 115l115 585h131l-113 -579q-5 -26 1 -35t22 -9q20 0 34 4z" />
<glyph unicode="m" horiz-adv-x="763" d="M16 0l97 503h116l-4 -51h3q65 60 148 60q82 0 96 -68q75 68 162 68q50 0 78.5 -35.5t14.5 -111.5l-71 -365h-132l67 345q10 59 -25 59q-22 0 -52 -18t-47 -39l-68 -347h-127l67 345q12 59 -26 59q-25 0 -53 -17.5t-46 -40.5l-67 -346h-131z" />
<glyph unicode="n" d="M15 0l97 503h116l-3 -51h2q69 60 152 60q55 0 87 -35.5t17 -112.5l-70 -364h-131l65 340q13 64 -31 64q-26 0 -55.5 -18t-47.5 -40l-66 -346h-132z" />
<glyph unicode="o" horiz-adv-x="496" d="M202 -12q-122 0 -155.5 61t-7.5 195q27 140 81 205.5t173 65.5q121 0 155.5 -67t8.5 -204q-26 -136 -80 -196t-175 -60zM219 96q45 0 68 31.5t39 118.5q16 82 6.5 121.5t-53.5 39.5t-68 -37.5t-40 -123.5q-17 -87 -7 -118.5t55 -31.5z" />
<glyph unicode="p" horiz-adv-x="507" d="M473 266q-28 -148 -80.5 -211.5t-160.5 -63.5q-47 0 -83 12h-3q-12 -70 -14 -79l-27 -147h-132l140 726h115l-3 -51h2q64 60 140 60q74 0 103.5 -53.5t2.5 -192.5zM214 347l-45 -237q22 -11 59 -11q43 0 68.5 32t43.5 132q14 60 10.5 91.5t-12.5 40.5t-29 9 q-22 0 -50 -17.5t-45 -39.5z" />
<glyph unicode="q" horiz-adv-x="507" d="M354 -223h-132l31 162q4 22 9.5 46.5t9.5 41.5l4 17h-3q-61 -53 -137 -53q-33 0 -55.5 10.5t-39.5 38t-16.5 75t12.5 122.5q29 157 85 216t158 59q112 0 208 -40zM282 404q-44 0 -69 -32t-45 -135q-13 -59 -9.5 -89.5t13 -39.5t28.5 -9q23 0 49.5 17t44.5 40l47 237 q-24 11 -59 11z" />
<glyph unicode="r" horiz-adv-x="367" d="M15 0l97 503h116l-4 -52h3q59 59 122 59q39 0 56 -7l-40 -118q-31 6 -55 6q-53 0 -97 -48l-66 -343h-132z" />
<glyph unicode="s" horiz-adv-x="445" d="M-14 23l37 98q99 -26 162 -26q37 0 53 10.5t21 37.5q4 24 -5 37.5t-42 24.5l-21 8q-84 25 -112.5 56.5t-15.5 99.5q15 80 60.5 111.5t123.5 31.5q49 0 104.5 -9t81.5 -19l-35 -94q-80 19 -144 19q-55 0 -63 -40q-3 -20 6 -33.5t42 -24.5l21 -7q87 -28 113.5 -62.5 t11.5 -112.5q-25 -138 -194 -138q-103 0 -205 32z" />
<glyph unicode="t" horiz-adv-x="361" d="M61 138l53 271h-67l18 94h68l36 130l122 12l-27 -142h123l-33 -94h-108l-53 -270q-5 -26 2 -33t30 -7q11 0 70 9l-3 -98q-52 -19 -110 -19q-78 0 -108 30.5t-13 116.5z" />
<glyph unicode="u" d="M109 503h131l-66 -341q-11 -63 31 -63q28 0 56 17.5t47 40.5l67 346h132l-97 -503h-117l3 49h-2q-70 -58 -157 -58q-53 0 -83.5 35.5t-16.5 113.5z" />
<glyph unicode="v" horiz-adv-x="503" d="M240 503l-64 -329q-15 -78 37 -78q39 0 73 46q37 46 55 138q18 98 1 223h134q17 -116 -6 -223q-19 -101 -66.5 -168.5t-114.5 -97.5q-54 -26 -116 -26q-165 0 -129 184l64 331h132z" />
<glyph unicode="w" horiz-adv-x="753" d="M322 259l45 233h128l-60 -312q-16 -84 36 -84q29 0 55.5 32t41.5 71.5t23 80.5q20 102 4 223h127q16 -112 -1 -223q-19 -119 -90.5 -205.5t-170.5 -86.5t-121 83q-64 -83 -167 -83q-77 0 -111.5 46t-16.5 138l64 331h132l-63 -328q-16 -79 34 -79q80 0 111 163z" />
<glyph unicode="x" horiz-adv-x="467" d="M-38 0l200 262l-90 241h139l23 -78l18 -68q22 35 45 69l52 77h146l-182 -240l99 -263h-142l-24 77q-21 74 -21 89q-1 -1 -9 -13t-22 -32.5t-25 -37.5l-57 -83h-150z" />
<glyph unicode="y" d="M109 503h132l-54 -279q-9 -45 8.5 -62.5t58.5 -8.5q31 5 58 20l64 330h131l-97 -502q-46 -234 -250 -234q-81 0 -121.5 40.5t-28.5 108.5q19 102 138 163v2q-54 7 -78.5 46.5t-11.5 107.5zM282 -3l15 78q-2 -1 -14.5 -7.5t-28.5 -15t-31 -17.5q-79 -50 -89 -105 q-6 -29 7 -44.5t39 -15.5q77 0 102 127z" />
<glyph unicode="z" horiz-adv-x="439" d="M-9 0l11 59l242 336h-162l22 108h341l-11 -56l-243 -339h194l-21 -108h-373z" />
<glyph unicode="{" horiz-adv-x="353" d="M223 -86h-21q-79 0 -110 31t-14 117l32 173q8 44 -4.5 59t-59.5 15l17 89q47 0 66 15.5t28 58.5l31 158q17 88 52.5 118t113.5 30h37l-17 -86h-25q-25 0 -36 -10.5t-16 -34.5l-33 -174q-12 -56 -31.5 -83t-51.5 -38q22 -12 34 -42.5t2 -79.5l-36 -187q-10 -43 32 -43h27z " />
<glyph unicode="|" horiz-adv-x="265" d="M-3 -196l212 1088h99l-212 -1088h-99z" />
<glyph unicode="}" horiz-adv-x="353" d="M236 226l-31 -164q-18 -88 -52 -118t-110 -30h-41l15 86h25q25 0 36.5 10.5t15.5 32.5l37 187q20 104 83 122q-53 35 -36 121l34 175q4 23 -3 33.5t-31 10.5h-26l18 86h28q74 0 104 -31.5t13 -116.5l-28 -147q-10 -51 2.5 -68t60.5 -17l-17 -89q-48 0 -67.5 -16.5 t-29.5 -66.5z" />
<glyph unicode="~" horiz-adv-x="524" d="M122 244l-53 59q35 39 64 55.5t63 16.5q30 0 55 -12.5t38.5 -27.5t30.5 -27.5t32 -12.5q8 0 15.5 2t15.5 7t11.5 7.5t11.5 9.5l8 7l53 -58q-36 -40 -64 -56.5t-62 -16.5q-38 0 -67 20.5t-50 40.5t-39 20q-8 0 -15.5 -2t-15.5 -7t-11.5 -7.5t-12.5 -9.5z" />
<glyph unicode="&#xa1;" horiz-adv-x="261" d="M207 299l-98 -495h-130l97 495h131zM245 501l-22 -113h-131l23 113h130z" />
<glyph unicode="&#xa2;" horiz-adv-x="549" d="M88 336q22 115 66.5 179t131.5 79l20 103h77l-20 -100q77 -4 115 -19l-38 -100q-44 12 -91 12q-55 0 -84 -36t-45 -118q-17 -87 -2 -118.5t70 -31.5q44 0 99 15l4 -99q-64 -23 -129 -24l-18 -95h-77l20 100q-79 15 -101 80t2 173z" />
<glyph unicode="&#xa3;" horiz-adv-x="548" d="M168 397l20 107q18 93 71.5 147t165.5 54q96 0 145 -21l-37 -96q-46 12 -91 12q-57 0 -85 -23.5t-37 -72.5l-20 -107h110l-15 -75h-111l-41 -216h224l-21 -106h-441l21 106h85l42 216h-68l15 75h68z" />
<glyph unicode="&#xa4;" horiz-adv-x="713" d="M92 60l-49 60l98 81q-37 67 -20 152q17 83 78 151l-67 81l73 61l65 -82q83 50 162 50q81 0 142 -51l97 80l48 -59l-97 -81q36 -73 20 -150q-17 -83 -76 -149l65 -82l-71 -60l-66 80q-79 -51 -164 -51q-76 0 -142 49zM349 187q68 0 126 48.5t71 117.5q14 68 -25 116.5 t-107 48.5t-125.5 -48.5t-71.5 -116.5q-13 -69 26 -117.5t106 -48.5z" />
<glyph unicode="&#xa5;" horiz-adv-x="546" d="M130 342h77l-105 355h139l46 -172q15 -58 19 -83h3q7 13 49 81l117 174h146l-246 -355h78l-14 -74h-97l-9 -47h97l-15 -75h-96l-28 -146h-132l28 146h-95l14 75h95l9 47h-94z" />
<glyph unicode="&#xa6;" horiz-adv-x="265" d="M122 444l87 448h99l-87 -448h-99zM-3 -196l87 448h99l-87 -448h-99z" />
<glyph unicode="&#xa7;" horiz-adv-x="504" d="M-15 -79l38 103q98 -24 160 -24q55 0 78 13t29 45q5 24 -7.5 40.5t-51.5 32.5l-50 20q-65 26 -93 64.5t-15 107.5q13 65 78 107q-51 46 -32 127q32 148 222 148q103 0 175 -26l-41 -103q-83 19 -142 19q-77 0 -87 -49q-4 -22 9 -35t47 -26l43 -16q76 -27 104.5 -68 t12.5 -124q-11 -57 -64 -105q35 -41 20 -121q-17 -86 -69 -123.5t-161 -37.5q-115 0 -203 31zM291 364l-39 13q-46 -10 -55 -52q-9 -49 47 -70l51 -20l14 -6q25 19 32 53q5 28 -4.5 48t-45.5 34z" />
<glyph unicode="&#xa8;" horiz-adv-x="911" d="M499 640h-115l21 109h115zM680 640h-114l21 109h114z" />
<glyph unicode="&#xa9;" horiz-adv-x="825" d="M781 350q-33 -171 -137 -266.5t-264 -95.5q-162 0 -237.5 96.5t-43.5 265.5q33 171 136.5 266t263.5 95q162 0 238.5 -96.5t43.5 -264.5zM698 350q27 138 -23 211.5t-175 73.5q-128 0 -210.5 -74t-108.5 -211q-27 -138 23 -212t176 -74q127 0 209.5 74t108.5 212z M505 221v-64q-53 -15 -104 -15q-79 0 -101 48.5t1 161.5q23 119 58.5 163.5t123.5 44.5q57 0 96 -13l-24 -64q-54 6 -68 6q-43 0 -61 -24t-36 -113q-16 -92 -7.5 -115.5t51.5 -23.5q23 0 71 8z" />
<glyph unicode="&#xaa;" horiz-adv-x="343" d="M58 405q19 101 55.5 139.5t100.5 38.5q83 0 139 -27l-35 -182q-4 -25 1.5 -31t25.5 -3l-1 -66q-30 -12 -67 -12q-47 0 -60 32h-3q-47 -35 -92 -35q-44 0 -61.5 32t-2.5 114zM216 503q-20 0 -32.5 -16.5t-23.5 -71.5q-7 -33 -5.5 -50t5.5 -21.5t14 -4.5q14 0 40 16l28 142 q-9 6 -26 6z" />
<glyph unicode="&#xab;" horiz-adv-x="527" d="M116 54l-58 200l137 199h109l-144 -201l58 -198h-102zM318 54l-58 200l136 199h110l-144 -201l58 -198h-102z" />
<glyph unicode="&#xac;" horiz-adv-x="509" d="M64 260l20 105h390l-46 -235h-101l26 130h-289z" />
<glyph unicode="&#xad;" horiz-adv-x="362" d="M35 234l20 104h288l-20 -104h-288z" />
<glyph unicode="&#xae;" horiz-adv-x="499" d="M502 501q-19 -101 -82 -154.5t-154 -53.5q-92 0 -137 54t-25 154q19 101 81 154t153 53q92 0 138 -53.5t26 -153.5zM454 501q31 163 -118 163q-153 0 -184 -163q-32 -164 117 -164q153 0 185 164zM209 388l45 230h73q75 0 60 -74q-7 -44 -40 -57q15 -13 19 -42l8 -57h-56 l-6 44q-3 19 -8.5 25t-17.5 6h-6l-13 -75h-58zM290 510h11q14 0 21 7t10 25q4 16 0.5 23t-18.5 7h-12z" />
<glyph unicode="&#xaf;" horiz-adv-x="494" d="M472 693h-276l15 79h276z" />
<glyph unicode="&#xb0;" horiz-adv-x="323" d="M110 590q11 56 48.5 86.5t90.5 30.5t82.5 -30.5t19.5 -86.5q-11 -57 -49 -88t-91 -31t-82.5 31.5t-18.5 87.5zM218 524q27 0 46.5 18.5t24.5 47.5q6 29 -6 47t-40 18q-27 0 -46.5 -18t-24.5 -47t7 -47.5t39 -18.5z" />
<glyph unicode="&#xb1;" horiz-adv-x="508" d="M194 188l31 155h-145l20 102h144l31 158h101l-30 -158h145l-19 -102h-146l-30 -155h-102zM14 0l19 101h392l-19 -101h-392z" />
<glyph unicode="&#xb2;" horiz-adv-x="307" d="M55 380l19 103q13 65 39.5 95t82.5 51l25 10q24 10 34.5 21t14.5 36q4 22 -3 31.5t-28 9.5q-16 0 -95 -12l1 75q72 18 118 18q128 0 105 -121q-10 -56 -38.5 -86t-76.5 -50l-29 -13q-23 -9 -33 -25t-16 -48l-3 -14h151l-16 -81h-252z" />
<glyph unicode="&#xb3;" horiz-adv-x="303" d="M41 397l33 73q49 -15 86 -15q52 0 62 50q8 32 -3 45.5t-52 14.5l-39 1l14 75l44 2q35 1 47.5 12.5t18.5 40.5q9 41 -33 41q-36 0 -94 -16l-1 73q57 24 123 24t93 -28.5t15 -91.5q-7 -31 -24 -56.5t-37 -34.5q42 -26 30 -101q-14 -69 -52 -100.5t-112 -31.5q-73 0 -119 23 z" />
<glyph unicode="&#xb4;" horiz-adv-x="275" d="M303 794l-120 -154h-93l97 154h116z" />
<glyph unicode="&#xb5;" horiz-adv-x="517" d="M109 503h130l-66 -341q-7 -34 1.5 -48.5t32.5 -14.5q44 0 95 41l70 363h129l-97 -503h-113v43h-2q-58 -48 -109 -48q-24 0 -41 8l-14 -84l-22 -116h-130l72 370z" />
<glyph unicode="&#xb6;" horiz-adv-x="596" d="M405 0l135 697h81l-135 -697h-81zM258 0l58 299h-73q-164 0 -132 159l15 83q31 156 194 156h157l-135 -697h-84z" />
<glyph unicode="&#xb7;" horiz-adv-x="244" d="M57 257l26 133h132l-26 -133h-132z" />
<glyph unicode="&#xb8;" horiz-adv-x="391" d="M7 -226l24 57q39 -11 64 -11q41 0 46 23q2 13 -8.5 23.5t-24.5 17t-23.5 21t-5.5 34.5q5 26 42 59h68q-34 -26 -38 -50q-2 -12 9 -22.5t25.5 -18.5t24 -27t4.5 -45q-8 -40 -34.5 -57.5t-83.5 -17.5q-17 0 -39 3.5t-36 6.5z" />
<glyph unicode="&#xb9;" horiz-adv-x="231" d="M101 380l68 351h-58l16 81h158l-83 -432h-101z" />
<glyph unicode="&#xba;" horiz-adv-x="321" d="M169 258q-81 0 -103.5 38t-6.5 121q16 87 49.5 127.5t113.5 40.5q79 0 101 -42t6 -126q-16 -85 -48.5 -122t-111.5 -37zM179 337q20 0 31 17.5t20 64.5q17 86 -19 86q-20 0 -31.5 -21t-20.5 -65q-9 -47 -5 -64.5t25 -17.5z" />
<glyph unicode="&#xbb;" horiz-adv-x="527" d="M266 254l-136 -200h-111l146 206l-58 193h100zM468 254l-136 -200h-111l146 206l-58 193h100z" />
<glyph unicode="&#xbc;" horiz-adv-x="715" d="M79 265l68 351h-58l16 81h158l-83 -432h-101zM392 106l4 73l163 259l87 -34l-60 -94l-86 -123h72l28 79h88l-51 -266h-101l20 106h-164zM70 -22l483 740h92l-483 -740h-92z" />
<glyph unicode="&#xbd;" horiz-adv-x="747" d="M79 265l68 351h-58l16 81h158l-83 -432h-101zM422 0l19 103q13 65 39.5 95t82.5 51l25 10q23 10 33.5 21t15.5 36q4 22 -3 31.5t-28 9.5q-18 0 -95 -12l1 75q72 18 118 18q128 0 105 -121q-10 -56 -38.5 -86t-76.5 -50l-29 -13q-23 -9 -33 -25.5t-16 -47.5l-3 -14h151 l-16 -81h-252zM70 -22l483 740h92l-483 -740h-92z" />
<glyph unicode="&#xbe;" horiz-adv-x="777" d="M19 282l33 73q49 -15 86 -15q52 0 62 50q8 32 -3 45.5t-52 14.5l-39 1l14 75l44 2q35 1 47.5 12.5t18.5 40.5q9 41 -33 41q-36 0 -94 -16l-1 73q57 24 123 24t93 -28.5t15 -91.5q-7 -31 -24 -56.5t-37 -34.5q42 -26 30 -101q-14 -69 -52 -100.5t-112 -31.5q-73 0 -119 23 zM455 106l3 73l163 259l88 -34l-60 -94l-87 -123h72l29 79h88l-51 -266h-101l20 106h-164zM132 -22l483 740h92l-483 -740h-92z" />
<glyph unicode="&#xbf;" horiz-adv-x="408" d="M291 303l-12 -63q-11 -60 -32.5 -92.5t-65.5 -70.5l-33 -30q-36 -30 -46 -75q-7 -40 9.5 -55t57.5 -15q52 0 128 21l1 -97q-1 0 -12 -4t-19.5 -6.5t-25.5 -6.5t-32.5 -7t-37 -5t-42.5 -2q-189 0 -154 176q7 36 21.5 64.5t27.5 43t34 33.5l37 33q28 24 39.5 45.5 t19.5 61.5l10 51h127zM330 501l-23 -113h-127l22 113h128z" />
<glyph unicode="&#xc0;" horiz-adv-x="520" d="M-34 0l279 697h202l13 -697h-128l-1 157h-173l-58 -157h-134zM192 254h145l-6 337h-6zM316 748l-60 154h111l37 -154h-88z" />
<glyph unicode="&#xc1;" horiz-adv-x="520" d="M-34 0l279 697h202l13 -697h-128l-1 157h-173l-58 -157h-134zM192 254h145l-6 337h-6zM520 902l-120 -154h-93l97 154h116z" />
<glyph unicode="&#xc2;" horiz-adv-x="520" d="M-34 0l279 697h202l13 -697h-128l-1 157h-173l-58 -157h-134zM192 254h145l-6 337h-6zM203 749l140 154h89l81 -154h-92l-44 85l-75 -85h-99z" />
<glyph unicode="&#xc3;" horiz-adv-x="520" d="M-34 0l279 697h202l13 -697h-128l-1 157h-173l-58 -157h-134zM192 254h145l-6 337h-6zM237 760l-26 47q46 58 108 58q31 0 66 -22t59 -22q27 0 62 36l26 -49q-49 -65 -110 -65q-31 0 -64.5 22t-58.5 22t-62 -27z" />
<glyph unicode="&#xc4;" horiz-adv-x="520" d="M-34 0l279 697h202l13 -697h-128l-1 157h-173l-58 -157h-134zM192 254h145l-6 337h-6zM327 748h-115l21 109h115zM508 748h-114l21 109h114z" />
<glyph unicode="&#xc5;" horiz-adv-x="520" d="M-34 0l279 697h202l13 -697h-128l-1 157h-173l-58 -157h-134zM192 254h145l-6 337h-6zM274 846q10 48 44 76.5t83 28.5t73 -28.5t14 -76.5q-9 -48 -43.5 -76.5t-83.5 -28.5t-72.5 28.5t-14.5 76.5zM335 846q-4 -23 6 -36.5t31 -13.5t36.5 13.5t19.5 36.5q8 50 -36 50 q-47 0 -57 -50z" />
<glyph unicode="&#xc6;" horiz-adv-x="702" d="M-42 0l306 697h487l-21 -110h-263l-5 -172h186l-21 -106h-168l-6 -199h191l-20 -110h-307l6 157h-171l-67 -157h-127zM195 256h134l14 335h-6z" />
<glyph unicode="&#xc7;" horiz-adv-x="470" d="M70 -214l24 57q39 -11 64 -11q41 0 46 23q2 13 -8.5 23.5t-24.5 17t-23.5 21t-5.5 34.5q3 20 28 47q-90 18 -115 95.5t8 255.5q37 193 103 275t205 82q31 0 81.5 -6.5t73.5 -15.5l-38 -101q-70 13 -114 13q-53 0 -82 -17t-52.5 -70t-43.5 -160q-15 -81 -18 -129.5 t8.5 -75t33 -35t61.5 -8.5q30 0 119 17v-102q-84 -25 -153 -25h-16q-15 -15 -17 -31q-2 -12 9 -22.5t25.5 -18.5t24 -27t4.5 -45q-8 -40 -34.5 -57.5t-83.5 -17.5q-17 0 -39 3.5t-36 6.5z" />
<glyph unicode="&#xc8;" horiz-adv-x="482" d="M21 0l136 697h376l-22 -110h-243l-34 -172h195l-21 -106h-193l-39 -199h247l-22 -110h-380zM312 748l-60 154h111l37 -154h-88z" />
<glyph unicode="&#xc9;" horiz-adv-x="482" d="M21 0l136 697h376l-22 -110h-243l-34 -172h195l-21 -106h-193l-39 -199h247l-22 -110h-380zM519 902l-120 -154h-93l97 154h116z" />
<glyph unicode="&#xca;" horiz-adv-x="482" d="M21 0l136 697h376l-22 -110h-243l-34 -172h195l-21 -106h-193l-39 -199h247l-22 -110h-380zM200 748l140 154h89l81 -154h-92l-44 85l-75 -85h-99z" />
<glyph unicode="&#xcb;" horiz-adv-x="482" d="M21 0l136 697h376l-22 -110h-243l-34 -172h195l-21 -106h-193l-39 -199h247l-22 -110h-380zM323 748h-115l21 109h115zM504 748h-114l21 109h114z" />
<glyph unicode="&#xcc;" horiz-adv-x="270" d="M21 0l136 697h133l-136 -697h-133zM188 748l-60 154h111l37 -154h-88z" />
<glyph unicode="&#xcd;" horiz-adv-x="270" d="M21 0l136 697h133l-136 -697h-133zM394 902l-120 -154h-93l97 154h116z" />
<glyph unicode="&#xce;" horiz-adv-x="270" d="M21 0l136 697h133l-136 -697h-133zM75 748l140 154h89l81 -154h-92l-44 85l-75 -85h-99z" />
<glyph unicode="&#xcf;" horiz-adv-x="270" d="M21 0l136 697h133l-136 -697h-133zM197 748h-115l21 109h115zM378 748h-114l21 109h114z" />
<glyph unicode="&#xd0;" horiz-adv-x="576" d="M28 317l15 77h54l58 303h139q64 0 107.5 -6t76.5 -22t50.5 -40.5t24.5 -64.5t3 -91t-18 -123q-15 -75 -28.5 -125t-33.5 -92t-43.5 -65t-60 -39.5t-81.5 -22.5t-110 -6h-160l61 317h-54zM174 110h28q54 0 82 6.5t52.5 33t38.5 71.5t31 130q13 68 16 110t-0.5 68.5 t-22 38.5t-40.5 15.5t-64 3.5h-28l-38 -193h95l-15 -77h-95z" />
<glyph unicode="&#xd1;" horiz-adv-x="610" d="M21 0l134 697h158l67 -366q21 -106 26 -169h4q9 89 42 260l52 275h123l-134 -697h-157l-66 359q-17 85 -27 174h-3q-21 -139 -46 -270l-49 -263h-124zM289 760l-26 47q46 58 108 58q31 0 66 -22t59 -22q27 0 62 36l26 -49q-49 -65 -110 -65q-31 0 -64.5 22t-58.5 22 t-62 -27z" />
<glyph unicode="&#xd2;" horiz-adv-x="562" d="M61 341q38 199 105 283.5t203 84.5q135 0 173 -85.5t-1 -270.5q-39 -199 -105 -282t-202 -83q-135 0 -173.5 84t0.5 269zM252 98q63 0 95.5 55t61.5 202q27 133 15 188.5t-73 55.5q-63 0 -96 -56.5t-61 -202.5q-28 -134 -15.5 -188t73.5 -54zM339 748l-60 154h111 l37 -154h-88z" />
<glyph unicode="&#xd3;" horiz-adv-x="562" d="M61 341q38 199 105 283.5t203 84.5q135 0 173 -85.5t-1 -270.5q-39 -199 -105 -282t-202 -83q-135 0 -173.5 84t0.5 269zM252 98q63 0 95.5 55t61.5 202q27 133 15 188.5t-73 55.5q-63 0 -96 -56.5t-61 -202.5q-28 -134 -15.5 -188t73.5 -54zM546 902l-120 -154h-93 l97 154h116z" />
<glyph unicode="&#xd4;" horiz-adv-x="562" d="M61 341q38 199 105 283.5t203 84.5q135 0 173 -85.5t-1 -270.5q-39 -199 -105 -282t-202 -83q-135 0 -173.5 84t0.5 269zM252 98q63 0 95.5 55t61.5 202q27 133 15 188.5t-73 55.5q-63 0 -96 -56.5t-61 -202.5q-28 -134 -15.5 -188t73.5 -54zM226 748l140 154h89l81 -154 h-92l-44 85l-75 -85h-99z" />
<glyph unicode="&#xd5;" horiz-adv-x="562" d="M61 341q38 199 105 283.5t203 84.5q135 0 173 -85.5t-1 -270.5q-39 -199 -105 -282t-202 -83q-135 0 -173.5 84t0.5 269zM252 98q63 0 95.5 55t61.5 202q27 133 15 188.5t-73 55.5q-63 0 -96 -56.5t-61 -202.5q-28 -134 -15.5 -188t73.5 -54zM263 760l-26 47 q46 58 108 58q31 0 66 -22t59 -22q27 0 62 36l26 -49q-49 -65 -110 -65q-31 0 -64.5 22t-58.5 22t-62 -27z" />
<glyph unicode="&#xd6;" horiz-adv-x="562" d="M61 341q38 199 105 283.5t203 84.5q135 0 173 -85.5t-1 -270.5q-39 -199 -105 -282t-202 -83q-135 0 -173.5 84t0.5 269zM252 98q63 0 95.5 55t61.5 202q27 133 15 188.5t-73 55.5q-63 0 -96 -56.5t-61 -202.5q-28 -134 -15.5 -188t73.5 -54zM349 748h-115l21 109h115z M530 748h-114l21 109h114z" />
<glyph unicode="&#xd7;" horiz-adv-x="508" d="M84 95l-61 71l173 148l-116 150l84 74l119 -151l173 149l60 -73l-175 -149l115 -147l-79 -71l-117 149z" />
<glyph unicode="&#xd8;" horiz-adv-x="562" d="M39 -42l-46 29l66 88q-35 79 2 266q38 199 105 283.5t203 84.5q89 0 135 -36l51 67l45 -29l-61 -83q39 -78 2 -275q-39 -199 -105 -282t-202 -83q-98 0 -143 41zM252 98q63 0 96.5 55.5t62.5 201.5q17 89 18 142q-71 -107 -110 -164l-136 -198q17 -37 69 -37zM192 340 q-17 -82 -19 -135q25 39 111 164l133 196q-17 34 -66 34q-63 0 -97.5 -57t-61.5 -202z" />
<glyph unicode="&#xd9;" horiz-adv-x="569" d="M51 187l100 510h133l-100 -512q-16 -87 71 -87t105 87l100 512h134l-100 -510q-21 -103 -82.5 -151t-169.5 -48q-109 0 -159.5 49t-31.5 150zM340 748l-60 154h111l37 -154h-88z" />
<glyph unicode="&#xda;" horiz-adv-x="569" d="M51 187l100 510h133l-100 -512q-16 -87 71 -87t105 87l100 512h134l-100 -510q-21 -103 -82.5 -151t-169.5 -48q-109 0 -159.5 49t-31.5 150zM547 902l-120 -154h-93l97 154h116z" />
<glyph unicode="&#xdb;" horiz-adv-x="569" d="M51 187l100 510h133l-100 -512q-16 -87 71 -87t105 87l100 512h134l-100 -510q-21 -103 -82.5 -151t-169.5 -48q-109 0 -159.5 49t-31.5 150zM227 748l140 154h89l81 -154h-92l-44 85l-75 -85h-99z" />
<glyph unicode="&#xdc;" horiz-adv-x="569" d="M51 187l100 510h133l-100 -512q-16 -87 71 -87t105 87l100 512h134l-100 -510q-21 -103 -82.5 -151t-169.5 -48q-109 0 -159.5 49t-31.5 150zM350 748h-115l21 109h115zM531 748h-114l21 109h114z" />
<glyph unicode="&#xdd;" horiz-adv-x="497" d="M135 0l57 307l-112 390h139l44 -172q15 -65 19 -83h1q3 6 50 81l112 174h146l-266 -391l-57 -306h-133zM513 902l-120 -154h-93l97 154h116z" />
<glyph unicode="&#xde;" horiz-adv-x="526" d="M200 260h58q55 0 82.5 26.5t40.5 91.5q12 62 -4.5 84t-75.5 22h-59zM264 595h45q124 0 173.5 -50.5t28.5 -167.5q-21 -115 -78.5 -171t-167.5 -56h-86l-28 -150h-133l132 697h133z" />
<glyph unicode="&#xdf;" horiz-adv-x="551" d="M14 -13l95 493q9 45 23 77.5t39.5 60.5t67.5 42t100 14q89 0 136.5 -39.5t34.5 -103.5q-8 -39 -41.5 -86t-38.5 -71q-4 -21 4.5 -39.5t23 -33t28 -37t20 -49.5t-1.5 -72q-16 -80 -58 -114.5t-132 -34.5q-64 0 -113 19l42 101q45 -10 66 -10q32 0 46 13t20 42 q5 22 -3.5 41.5t-22.5 34.5t-28 32.5t-21 44t0 59.5q6 27 39 72.5t39 71.5q11 51 -50 51q-39 0 -58.5 -20.5t-27.5 -59.5l-96 -497q-19 -100 -61 -143t-119 -59q-36 -7 -89 -15l-4 100q61 12 72 15q34 10 47 31.5t22 68.5z" />
<glyph unicode="&#xe0;" d="M37 241q29 152 86 211.5t151 59.5q112 0 212 -40l-60 -320q-8 -40 1 -50t45 -2l-2 -91q-35 -14 -77 -14q-41 0 -63.5 15.5t-31.5 49.5h-3q-69 -69 -165 -69q-141 0 -93 250zM280 404q-40 0 -66 -32t-45 -132q-13 -58 -10.5 -89.5t10.5 -41.5t25 -10q27 0 54 17t46 40 l45 237q-26 11 -59 11zM274 577l-60 154h111l37 -154h-88z" />
<glyph unicode="&#xe1;" d="M37 241q29 152 86 211.5t151 59.5q112 0 212 -40l-60 -320q-8 -40 1 -50t45 -2l-2 -91q-35 -14 -77 -14q-41 0 -63.5 15.5t-31.5 49.5h-3q-69 -69 -165 -69q-141 0 -93 250zM280 404q-40 0 -66 -32t-45 -132q-13 -58 -10.5 -89.5t10.5 -41.5t25 -10q27 0 54 17t46 40 l45 237q-26 11 -59 11zM481 731l-120 -154h-93l97 154h116z" />
<glyph unicode="&#xe2;" d="M37 241q29 152 86 211.5t151 59.5q112 0 212 -40l-60 -320q-8 -40 1 -50t45 -2l-2 -91q-35 -14 -77 -14q-41 0 -63.5 15.5t-31.5 49.5h-3q-69 -69 -165 -69q-141 0 -93 250zM280 404q-40 0 -66 -32t-45 -132q-13 -58 -10.5 -89.5t10.5 -41.5t25 -10q27 0 54 17t46 40 l45 237q-26 11 -59 11zM162 577l140 154h89l81 -154h-92l-44 85l-75 -85h-99z" />
<glyph unicode="&#xe3;" d="M37 241q29 152 86 211.5t151 59.5q112 0 212 -40l-60 -320q-8 -40 1 -50t45 -2l-2 -91q-35 -14 -77 -14q-41 0 -63.5 15.5t-31.5 49.5h-3q-69 -69 -165 -69q-141 0 -93 250zM280 404q-40 0 -66 -32t-45 -132q-13 -58 -10.5 -89.5t10.5 -41.5t25 -10q27 0 54 17t46 40 l45 237q-26 11 -59 11zM199 589l-26 47q46 58 108 58q31 0 66 -22t59 -22q27 0 62 36l26 -49q-49 -65 -110 -65q-31 0 -64.5 22t-58.5 22t-62 -27z" />
<glyph unicode="&#xe4;" d="M37 241q29 152 86 211.5t151 59.5q112 0 212 -40l-60 -320q-8 -40 1 -50t45 -2l-2 -91q-35 -14 -77 -14q-41 0 -63.5 15.5t-31.5 49.5h-3q-69 -69 -165 -69q-141 0 -93 250zM280 404q-40 0 -66 -32t-45 -132q-13 -58 -10.5 -89.5t10.5 -41.5t25 -10q27 0 54 17t46 40 l45 237q-26 11 -59 11zM284 577h-115l21 109h115zM465 577h-114l21 109h114z" />
<glyph unicode="&#xe5;" d="M37 241q29 152 86 211.5t151 59.5q112 0 212 -40l-60 -320q-8 -40 1 -50t45 -2l-2 -91q-35 -14 -77 -14q-41 0 -63.5 15.5t-31.5 49.5h-3q-69 -69 -165 -69q-141 0 -93 250zM280 404q-40 0 -66 -32t-45 -132q-13 -58 -10.5 -89.5t10.5 -41.5t25 -10q27 0 54 17t46 40 l45 237q-26 11 -59 11zM229 675q10 48 44 76.5t83 28.5t73 -28.5t14 -76.5q-9 -48 -43.5 -76.5t-83.5 -28.5t-72.5 28.5t-14.5 76.5zM290 675q-4 -23 6 -36.5t31 -13.5t36.5 13.5t19.5 36.5q8 50 -36 50q-47 0 -57 -50z" />
<glyph unicode="&#xe6;" horiz-adv-x="750" d="M306 512q84 0 114 -46q49 47 146 47q46 0 80 -11t50.5 -28.5t27 -39t9.5 -43t-3 -40.5q-15 -79 -47.5 -107t-116.5 -28q-78 0 -129 16q0 -1 -2 -7q-14 -75 1 -103.5t67 -28.5q58 0 149 26l3 -93q-79 -35 -183 -35q-124 0 -161 68q-78 -68 -186 -68q-65 0 -92 39t-14 106 l2 8q16 81 57 118t126 45q60 6 120 7l3 16q9 47 -1 62.5t-49 15.5q-77 0 -170 -30l-4 94q108 40 203 40zM185 93q63 0 108 51q0 33 10 86q-57 -2 -85 -8q-57 -11 -69 -72q-12 -57 36 -57zM456 319q39 -15 89 -15q28 0 40 11.5t18 38.5q11 65 -51 65q-73 0 -96 -100z" />
<glyph unicode="&#xe7;" horiz-adv-x="415" d="M47 -214l24 57q39 -11 64 -11q41 0 46 23q2 13 -8.5 23.5t-24.5 17t-23.5 21t-5.5 34.5q3 21 26 44q-84 14 -107.5 79.5t2.5 175.5q27 134 81.5 198t170.5 64q82 0 139 -21l-38 -98q-42 11 -92 11q-55 0 -84 -35t-46 -119q-16 -90 -1 -120.5t71 -30.5q37 0 99 15l3 -99 q-65 -23 -135 -24q-15 -15 -17 -31q-2 -12 9 -22.5t25.5 -18.5t24 -27t4.5 -45q-8 -40 -34.5 -57.5t-83.5 -17.5q-17 0 -39 3.5t-36 6.5z" />
<glyph unicode="&#xe8;" horiz-adv-x="477" d="M40 251q13 67 29 110.5t44 81t72.5 55t108.5 17.5q47 0 81 -10.5t51.5 -27.5t28 -39t9.5 -45t-4 -46q-17 -85 -47 -108t-118 -23q-74 0 -127 16q-2 -5 -2 -7q-14 -74 1.5 -103t68.5 -29q58 0 149 26l2 -93q-76 -35 -181 -35q-120 0 -156 61.5t-10 198.5zM187 319 q39 -15 91 -15q29 0 39 11t16 39q13 65 -50 65q-35 0 -58.5 -22.5t-37.5 -77.5zM275 577l-60 154h111l37 -154h-88z" />
<glyph unicode="&#xe9;" horiz-adv-x="477" d="M40 251q13 67 29 110.5t44 81t72.5 55t108.5 17.5q47 0 81 -10.5t51.5 -27.5t28 -39t9.5 -45t-4 -46q-17 -85 -47 -108t-118 -23q-74 0 -127 16q-2 -5 -2 -7q-14 -74 1.5 -103t68.5 -29q58 0 149 26l2 -93q-76 -35 -181 -35q-120 0 -156 61.5t-10 198.5zM187 319 q39 -15 91 -15q29 0 39 11t16 39q13 65 -50 65q-35 0 -58.5 -22.5t-37.5 -77.5zM482 731l-120 -154h-93l97 154h116z" />
<glyph unicode="&#xea;" horiz-adv-x="477" d="M40 251q13 67 29 110.5t44 81t72.5 55t108.5 17.5q47 0 81 -10.5t51.5 -27.5t28 -39t9.5 -45t-4 -46q-17 -85 -47 -108t-118 -23q-74 0 -127 16q-2 -5 -2 -7q-14 -74 1.5 -103t68.5 -29q58 0 149 26l2 -93q-76 -35 -181 -35q-120 0 -156 61.5t-10 198.5zM187 319 q39 -15 91 -15q29 0 39 11t16 39q13 65 -50 65q-35 0 -58.5 -22.5t-37.5 -77.5zM162 577l140 154h89l81 -154h-92l-44 85l-75 -85h-99z" />
<glyph unicode="&#xeb;" horiz-adv-x="477" d="M40 251q13 67 29 110.5t44 81t72.5 55t108.5 17.5q47 0 81 -10.5t51.5 -27.5t28 -39t9.5 -45t-4 -46q-17 -85 -47 -108t-118 -23q-74 0 -127 16q-2 -5 -2 -7q-14 -74 1.5 -103t68.5 -29q58 0 149 26l2 -93q-76 -35 -181 -35q-120 0 -156 61.5t-10 198.5zM187 319 q39 -15 91 -15q29 0 39 11t16 39q13 65 -50 65q-35 0 -58.5 -22.5t-37.5 -77.5zM285 577h-115l21 109h115zM466 577h-114l21 109h114z" />
<glyph unicode="&#xec;" horiz-adv-x="265" d="M19 0l97 503h132l-97 -503h-132zM155 577l-60 154h111l37 -154h-88z" />
<glyph unicode="&#xed;" horiz-adv-x="265" d="M19 0l97 503h132l-97 -503h-132zM361 731l-120 -154h-93l97 154h116z" />
<glyph unicode="&#xee;" horiz-adv-x="265" d="M19 0l97 503h132l-97 -503h-132zM42 577l140 154h89l81 -154h-92l-44 85l-75 -85h-99z" />
<glyph unicode="&#xef;" horiz-adv-x="265" d="M19 0l97 503h132l-97 -503h-132zM164 577h-115l21 109h115zM345 577h-114l21 109h114z" />
<glyph unicode="&#xf0;" horiz-adv-x="495" d="M463 625l-55 -25q37 -46 52 -109t11.5 -122t-18.5 -133q-25 -128 -79.5 -188t-174.5 -60q-118 0 -152.5 61t-9.5 185q49 249 227 249q49 0 85 -19q-6 46 -45 88l-107 -49l-18 52l77 35q-28 18 -63 30l41 87q80 -25 132 -66l78 36zM323 246q17 91 15 120q-23 13 -64 13 q-78 0 -105 -145q-15 -74 -4.5 -106t51.5 -32q44 0 67 33t40 117z" />
<glyph unicode="&#xf1;" d="M15 0l97 503h116l-3 -51h2q69 60 152 60q55 0 87 -35.5t17 -112.5l-70 -364h-131l65 340q13 64 -31 64q-26 0 -55.5 -18t-47.5 -40l-66 -346h-132zM210 589l-26 47q46 58 108 58q30 0 65 -22t60 -22q27 0 62 36l26 -49q-49 -65 -110 -65q-31 0 -64.5 22t-58.5 22t-62 -27 z" />
<glyph unicode="&#xf2;" horiz-adv-x="496" d="M202 -12q-122 0 -155.5 61t-7.5 195q27 140 81 205.5t173 65.5q121 0 155.5 -67t8.5 -204q-26 -136 -80 -196t-175 -60zM219 96q45 0 68 31.5t39 118.5q16 82 6.5 121.5t-53.5 39.5t-68 -37.5t-40 -123.5q-17 -87 -7 -118.5t55 -31.5zM271 577l-60 154h111l37 -154h-88z " />
<glyph unicode="&#xf3;" horiz-adv-x="496" d="M202 -12q-122 0 -155.5 61t-7.5 195q27 140 81 205.5t173 65.5q121 0 155.5 -67t8.5 -204q-26 -136 -80 -196t-175 -60zM219 96q45 0 68 31.5t39 118.5q16 82 6.5 121.5t-53.5 39.5t-68 -37.5t-40 -123.5q-17 -87 -7 -118.5t55 -31.5zM478 731l-120 -154h-93l97 154h116z " />
<glyph unicode="&#xf4;" horiz-adv-x="496" d="M202 -12q-122 0 -155.5 61t-7.5 195q27 140 81 205.5t173 65.5q121 0 155.5 -67t8.5 -204q-26 -136 -80 -196t-175 -60zM219 96q45 0 68 31.5t39 118.5q16 82 6.5 121.5t-53.5 39.5t-68 -37.5t-40 -123.5q-17 -87 -7 -118.5t55 -31.5zM159 577l140 154h89l81 -154h-92 l-44 85l-75 -85h-99z" />
<glyph unicode="&#xf5;" horiz-adv-x="496" d="M202 -12q-122 0 -155.5 61t-7.5 195q27 140 81 205.5t173 65.5q121 0 155.5 -67t8.5 -204q-26 -136 -80 -196t-175 -60zM219 96q45 0 68 31.5t39 118.5q16 82 6.5 121.5t-53.5 39.5t-68 -37.5t-40 -123.5q-17 -87 -7 -118.5t55 -31.5zM196 589l-26 47q46 58 108 58 q30 0 65 -22t60 -22q27 0 62 36l26 -49q-49 -65 -110 -65q-31 0 -64.5 22t-58.5 22t-62 -27z" />
<glyph unicode="&#xf6;" horiz-adv-x="496" d="M202 -12q-122 0 -155.5 61t-7.5 195q27 140 81 205.5t173 65.5q121 0 155.5 -67t8.5 -204q-26 -136 -80 -196t-175 -60zM219 96q45 0 68 31.5t39 118.5q16 82 6.5 121.5t-53.5 39.5t-68 -37.5t-40 -123.5q-17 -87 -7 -118.5t55 -31.5zM281 577h-115l21 109h115zM462 577 h-114l21 109h114z" />
<glyph unicode="&#xf7;" horiz-adv-x="508" d="M226 437l22 111h132l-22 -111h-132zM156 78l22 111h132l-22 -111h-132zM53 263l19 101h411l-19 -101h-411z" />
<glyph unicode="&#xf8;" horiz-adv-x="496" d="M208 -12q-82 0 -125 27l-49 -57l-42 34l54 64q-32 57 -7 188q27 140 80 205.5t172 65.5q79 0 122 -31l51 60l44 -33l-58 -68q33 -63 7 -199q-13 -69 -29 -112.5t-44 -78t-71 -50t-105 -15.5zM219 94q45 0 69 32.5t40 119.5q10 51 10 89q-19 -33 -102 -135l-69 -83 q12 -23 52 -23zM169 246q-9 -44 -11 -80q14 21 93 119l78 95q-13 28 -50 28q-44 0 -69 -38.5t-41 -123.5z" />
<glyph unicode="&#xf9;" d="M109 503h131l-66 -341q-11 -63 31 -63q28 0 56 17.5t47 40.5l67 346h132l-97 -503h-117l3 49h-2q-70 -58 -157 -58q-53 0 -83.5 35.5t-16.5 113.5zM280 577l-60 154h111l37 -154h-88z" />
<glyph unicode="&#xfa;" d="M109 503h131l-66 -341q-11 -63 31 -63q28 0 56 17.5t47 40.5l67 346h132l-97 -503h-117l3 49h-2q-70 -58 -157 -58q-53 0 -83.5 35.5t-16.5 113.5zM487 731l-120 -154h-93l97 154h116z" />
<glyph unicode="&#xfb;" d="M109 503h131l-66 -341q-11 -63 31 -63q28 0 56 17.5t47 40.5l67 346h132l-97 -503h-117l3 49h-2q-70 -58 -157 -58q-53 0 -83.5 35.5t-16.5 113.5zM167 577l140 154h89l81 -154h-92l-44 85l-75 -85h-99z" />
<glyph unicode="&#xfc;" d="M109 503h131l-66 -341q-11 -63 31 -63q28 0 56 17.5t47 40.5l67 346h132l-97 -503h-117l3 49h-2q-70 -58 -157 -58q-53 0 -83.5 35.5t-16.5 113.5zM290 577h-115l21 109h115zM471 577h-114l21 109h114z" />
<glyph unicode="&#xfd;" d="M109 503h132l-54 -279q-9 -45 8.5 -62.5t58.5 -8.5q31 5 58 20l64 330h131l-97 -502q-46 -234 -250 -234q-81 0 -121.5 40.5t-28.5 108.5q19 102 138 163v2q-54 7 -78.5 46.5t-11.5 107.5zM282 -3l15 78q-2 -1 -14.5 -7.5t-28.5 -15t-31 -17.5q-79 -50 -89 -105 q-6 -29 7 -44.5t39 -15.5q77 0 102 127zM489 731l-120 -154h-93l97 154h116z" />
<glyph unicode="&#xfe;" horiz-adv-x="507" d="M132 -78l-28 -145h-132l184 945h132l-31 -158q-5 -24 -11 -50.5t-10 -43t-4 -17.5h3q71 59 135 59q49 0 75.5 -19.5t37.5 -74.5t-11 -153q-29 -154 -84.5 -214t-146.5 -60q-52 0 -95 12q-6 -38 -14 -81zM232 99q40 0 64 31.5t44 131.5q16 94 9.5 118t-36.5 24 q-23 0 -51 -17t-48 -40l-45 -237q24 -11 63 -11z" />
<glyph unicode="&#xff;" d="M109 503h132l-54 -279q-9 -45 8.5 -62.5t58.5 -8.5q31 5 58 20l64 330h131l-97 -502q-46 -234 -250 -234q-81 0 -121.5 40.5t-28.5 108.5q19 102 138 163v2q-54 7 -78.5 46.5t-11.5 107.5zM282 -3l15 78q-2 -1 -14.5 -7.5t-28.5 -15t-31 -17.5q-79 -50 -89 -105 q-6 -29 7 -44.5t39 -15.5q77 0 102 127zM287 577h-115l21 109h115zM468 577h-114l21 109h114z" />
<glyph unicode="&#x152;" horiz-adv-x="760" d="M58 347q36 191 102.5 276t185.5 85q48 0 88 -16l1 5h376l-21 -110h-242l-33 -172h193l-21 -106h-193l-37 -199h247l-21 -110h-380v3q-42 -14 -85 -14q-120 0 -158 84.5t-2 273.5zM262 98q35 0 62 16l88 464q-24 21 -63 21q-66 0 -99 -55t-59 -197q-28 -138 -14 -193.5 t85 -55.5z" />
<glyph unicode="&#x153;" horiz-adv-x="760" d="M202 -12q-119 0 -154 61.5t-9 194.5q14 70 29.5 115t43.5 83t71 55.5t105 17.5q94 0 132 -66q60 66 161 66q47 0 81 -11t50.5 -29t26.5 -40t8.5 -43.5t-3.5 -40.5q-15 -80 -47 -107.5t-119 -27.5q-73 0 -126 16q-2 -2 -2 -7q-14 -74 1 -103t68 -29q58 0 149 26l1 -93 q-76 -35 -182 -35q-98 0 -135 56q-59 -59 -150 -59zM218 96q44 0 66 31.5t39 118.5q18 82 8 121.5t-52 39.5q-43 0 -67 -37.5t-41 -123.5q-17 -87 -7 -118.5t54 -31.5zM471 319q37 -15 88 -15q30 0 41.5 12t16.5 38q13 65 -51 65q-35 0 -58 -22.5t-37 -77.5z" />
<glyph unicode="&#x178;" horiz-adv-x="497" d="M135 0l57 307l-112 390h139l44 -172q15 -65 19 -83h1q3 6 50 81l112 174h146l-266 -391l-57 -306h-133zM316 748h-115l21 109h115zM497 748h-114l21 109h114z" />
<glyph unicode="&#x2c6;" horiz-adv-x="302" d="M74 640l140 154h89l81 -154h-92l-44 85l-75 -85h-99z" />
<glyph unicode="&#x2dc;" horiz-adv-x="484" d="M215 712l-26 47q46 58 108 58q31 0 66 -22t59 -22q27 0 62 36l26 -49q-49 -65 -110 -65q-31 0 -64.5 22t-58.5 22t-62 -27z" />
<glyph unicode="&#x1e9e;" horiz-adv-x="589" d="M15 0l86 437q30 148 87 208.5t187 60.5q108 0 205 -31l-23 -112q-44 -34 -64 -60t-25 -58q-5 -26 3 -49t23 -40.5t29 -44.5t19.5 -60.5t-4.5 -89.5q-34 -167 -204 -167q-73 0 -128 22l41 100q6 -1 21 -5t28.5 -6t29.5 -2q39 0 57.5 20.5t26.5 56.5q6 34 -1.5 62t-22 46 t-29 42.5t-21 50.5t1.5 71q15 76 95 138q-28 8 -72 8q-59 0 -84 -32t-44 -129l-86 -437h-132z" />
<glyph unicode="&#x2000;" horiz-adv-x="475" />
<glyph unicode="&#x2001;" horiz-adv-x="951" />
<glyph unicode="&#x2002;" horiz-adv-x="475" />
<glyph unicode="&#x2003;" horiz-adv-x="951" />
<glyph unicode="&#x2004;" horiz-adv-x="317" />
<glyph unicode="&#x2005;" horiz-adv-x="237" />
<glyph unicode="&#x2006;" horiz-adv-x="158" />
<glyph unicode="&#x2007;" horiz-adv-x="158" />
<glyph unicode="&#x2008;" horiz-adv-x="118" />
<glyph unicode="&#x2009;" horiz-adv-x="190" />
<glyph unicode="&#x200a;" horiz-adv-x="52" />
<glyph unicode="&#x2010;" horiz-adv-x="362" d="M35 234l20 104h288l-20 -104h-288z" />
<glyph unicode="&#x2011;" horiz-adv-x="362" d="M35 234l20 104h288l-20 -104h-288z" />
<glyph unicode="&#x2012;" horiz-adv-x="362" d="M35 234l20 104h288l-20 -104h-288z" />
<glyph unicode="&#x2013;" horiz-adv-x="499" d="M35 234l20 105h426l-21 -105h-425z" />
<glyph unicode="&#x2014;" horiz-adv-x="989" d="M35 234l20 105h916l-21 -105h-915z" />
<glyph unicode="&#x2018;" horiz-adv-x="250" d="M205 722h97q0 -1 -4.5 -7.5t-8.5 -13.5t-11 -19t-13.5 -25t-14 -30t-14 -34.5t-12.5 -38.5t-10 -42h-105q23 123 96 210z" />
<glyph unicode="&#x2019;" horiz-adv-x="250" d="M191 512h-98q1 1 7 11.5t13.5 22t17.5 31.5t18.5 41t17.5 48.5t14 55.5h105q-21 -112 -95 -210z" />
<glyph unicode="&#x201a;" horiz-adv-x="250" d="M74 -91h-98q1 1 7 11.5t13.5 22t17.5 31.5t18.5 41t17.5 48.5t14 55.5h105q-22 -113 -95 -210z" />
<glyph unicode="&#x201c;" horiz-adv-x="430" d="M384 722h98q-66 -95 -89 -210h-105q25 124 96 210zM205 722h97q0 -1 -4.5 -7.5t-8.5 -13.5t-11 -19t-13.5 -25t-14 -30t-14 -34.5t-12.5 -38.5t-10 -42h-105q23 123 96 210z" />
<glyph unicode="&#x201d;" horiz-adv-x="430" d="M370 512h-98q1 1 7 11.5t13.5 22t17.5 31.5t18.5 41t17.5 48.5t14 55.5h106q-23 -123 -96 -210zM191 512h-98q1 1 7 11.5t13.5 22t17.5 31.5t18.5 41t17.5 48.5t14 55.5h105q-21 -112 -95 -210z" />
<glyph unicode="&#x201e;" horiz-adv-x="431" d="M253 -91h-98q68 106 88 210h106q-10 -54 -33 -105t-37.5 -72t-25.5 -33zM74 -91h-98q1 1 7 11.5t13.5 22t17.5 31.5t18.5 41t17.5 48.5t14 55.5h105q-22 -113 -95 -210z" />
<glyph unicode="&#x2022;" horiz-adv-x="276" d="M56 267l34 170h171l-34 -170h-171z" />
<glyph unicode="&#x2026;" horiz-adv-x="812" d="M24 0l23 120h142l-23 -120h-142zM288 0l23 120h142l-23 -120h-142zM552 0l23 120h142l-23 -120h-142z" />
<glyph unicode="&#x202f;" horiz-adv-x="190" />
<glyph unicode="&#x2039;" horiz-adv-x="314" d="M111 54l-58 200l137 199h109l-144 -201l58 -198h-102z" />
<glyph unicode="&#x203a;" horiz-adv-x="314" d="M262 254l-136 -200h-112l147 206l-58 193h100z" />
<glyph unicode="&#x205f;" horiz-adv-x="237" />
<glyph unicode="&#x20ac;" horiz-adv-x="548" d="M379 387h-106q-3 -12 -7 -36l-7 -35h106l-15 -77h-102q-9 -85 10.5 -111.5t79.5 -26.5q32 0 118 16v-101q-89 -25 -158 -25q-116 0 -157 55t-26 193h-68l15 77h64q5 26 7 35l7 36h-64l15 77h67q37 136 95.5 189t173.5 53q95 0 155 -22l-38 -100q-65 12 -110 12 q-59 0 -89 -25t-54 -107h103z" />
<glyph unicode="&#x2116;" horiz-adv-x="919" d="M612 232l15 82h300l-16 -82h-299zM18 0l132 697h158l69 -366q22 -111 26 -163h4q8 75 40 254l52 275h123l-132 -697h-157l-68 359q-24 132 -28 170h-3q-13 -93 -44 -266l-48 -263h-124zM785 356q-93 0 -118.5 38t-9.5 121q16 85 57.5 126.5t133.5 41.5q93 0 118 -41.5 t9 -126.5q-16 -83 -56.5 -121t-133.5 -38zM801 438q29 0 41 16t20 63q10 41 4 62t-33 21t-40 -19.5t-22 -63.5q-10 -46 -4 -62.5t34 -16.5z" />
<glyph unicode="&#x2122;" horiz-adv-x="648" d="M627 348h-69l19 136l20 118h-3q-10 -28 -29 -66l-65 -137h-55l-13 136l-2 67h-2q-12 -64 -26 -119l-35 -135h-68l88 349l88 -1l11 -155l2 -64h2q8 26 26 64l71 156h88zM124 348l56 290h-73l12 59h217l-11 -59h-73l-56 -290h-72z" />
<glyph unicode="&#x25fc;" horiz-adv-x="505" d="M0 505h505v-505h-505v505z" />
<glyph unicode="&#xfb06;" horiz-adv-x="797" d="M496 138l53 271h-67l18 94h68l27 104q-38 9 -85 9q-82 0 -95 -63q-7 -38 18 -69l-36 -96q-89 21 -143 21q-55 0 -63 -40q-3 -20 6 -33.5t42 -24.5l21 -7q87 -28 113.5 -62.5t11.5 -112.5q-25 -138 -194 -138q-103 0 -205 32l39 101q99 -29 160 -29q37 0 53 10.5t21 37.5 q4 24 -5 37.5t-42 24.5l-21 8q-84 25 -112.5 56.5t-15.5 99.5q15 80 60.5 111.5t123.5 31.5q32 0 72 -5q-16 36 -7 78q24 119 205 119q116 0 215 -33l-33 -168h123l-33 -94h-108l-53 -270q-5 -26 2 -33t30 -7q12 0 70 9l-3 -98q-52 -19 -110 -19q-78 0 -108 30.5t-13 116.5z " />
<glyph horiz-adv-x="362" d="M46 290l20 105h288l-20 -105h-288z" />
<glyph horiz-adv-x="499" d="M46 291l20 104h426l-21 -104h-425z" />
<glyph horiz-adv-x="989" d="M46 291l20 104h916l-21 -104h-915z" />
<glyph horiz-adv-x="56" d="M-26 311l23 115h105l-22 -115h-106z" />
<glyph horiz-adv-x="1" d="M-113 321l22 114h104l-22 -114h-104z" />
<glyph horiz-adv-x="583" d="M560 502l11 -105l-74 -23q1 -5 5.5 -32t6 -40t3.5 -37t0.5 -46t-5.5 -43q-36 -188 -261 -188q-110 0 -168.5 51.5t-37.5 161.5q13 62 52.5 107t91.5 69l1 3q-39 24 -52 61t-1 98q31 167 220 167q88 0 148 -22l-40 -98q-50 10 -97 10q-90 0 -106 -79q-13 -76 54 -89 q45 13 133.5 39.5t115.5 34.5zM372 336q-98 -31 -115 -39q-72 -34 -88 -106q-17 -93 86 -93q107 0 124 94q10 49 -7 144z" />
<glyph horiz-adv-x="470" d="M400 118v-102q-84 -25 -153 -25t-111.5 16.5t-67.5 57t-24 109.5t19 175q37 193 103 275t205 82q31 0 81.5 -6.5t73.5 -15.5l-38 -101q-70 13 -114 13q-53 0 -82 -17t-52.5 -70t-43.5 -160q-15 -81 -18 -129.5t8.5 -75t33 -35t61.5 -8.5q30 0 119 17zM179 -213h-85 q8 8 20.5 21.5t31 54t14.5 78.5h100q3 -26 -4 -51.5t-19.5 -43.5t-25.5 -32t-23 -20z" />
<glyph horiz-adv-x="562" d="M61 341q38 199 105 283.5t203 84.5q135 0 173 -85.5t-1 -270.5q-39 -199 -105 -282t-202 -83q-135 0 -173.5 84t0.5 269zM252 98q63 0 95.5 55t61.5 202q27 133 15 188.5t-73 55.5q-63 0 -96 -56.5t-61 -202.5q-28 -134 -15.5 -188t73.5 -54zM514 902l-92 -154h-82 l70 154h104z" />
<glyph horiz-adv-x="496" d="M389 0h-113l2 49h-3q-65 -58 -146 -58q-68 0 -95 39t-15 106l1 9q13 74 53 113t129 49q45 5 119 7l3 16q8 47 -2 62.5t-48 15.5q-78 0 -168 -30l-6 94q108 40 211 40q82 0 120.5 -40.5t19.5 -145.5zM289 150l15 80q-59 -2 -92 -9q-30 -6 -44 -22.5t-20 -48.5 q-12 -57 38 -57q26 0 55 17t48 40z" />
<glyph horiz-adv-x="481" d="M39 248q13 68 29 112.5t44 82t72 55t108 17.5q126 0 158 -71t-20 -220l-265 -1q-13 -73 3.5 -101.5t69.5 -28.5q54 0 149 28l4 -93q-83 -37 -183 -37q-121 0 -158 61t-11 196zM185 315h138q36 104 -39 104q-38 0 -61 -23.5t-38 -80.5z" />
<glyph horiz-adv-x="356" d="M43 0l77 409h-67l18 94h67l15 73q18 93 59.5 123.5t114.5 30.5q66 0 142 -14l-35 -96q-51 7 -83 7q-30 0 -45 -11.5t-23 -49.5l-14 -63h137l-33 -94h-121l-78 -409h-131z" />
<glyph horiz-adv-x="507" d="M61 -233l1 99q75 12 125 27q37 13 53.5 33t25.5 64l13 65h-2q-61 -54 -145 -55q-141 -2 -94 242q29 154 84 212t157 58q110 0 208 -40l-92 -484q-18 -93 -64.5 -137.5t-127.5 -60.5q-70 -15 -142 -23zM170 243q-13 -57 -10 -87t11 -39t25 -9q26 0 53.5 17t45.5 39l45 230 q-34 10 -59 10q-42 0 -67 -31t-44 -130z" />
<glyph horiz-adv-x="258" d="M15 0l141 722h132l-141 -722h-132z" />
<glyph horiz-adv-x="339" d="M37 138l96 493l135 14l-28 -142h123l-33 -94h-108l-53 -270q-5 -26 2.5 -33t30.5 -7q15 0 69 9l-2 -98q-52 -19 -111 -19q-78 0 -107.5 30t-13.5 117z" />
<glyph d="M138 0q-53 0 -83.5 36t-15.5 113l70 354h131l-65 -333q-11 -61 31 -61q53 0 103 56l66 338h132l-100 -517q-18 -96 -59.5 -135t-131.5 -61q-56 -13 -142 -23l1 100q79 11 124 26q41 13 56.5 31.5t25.5 64.5l16 70h-2q-68 -59 -157 -59z" />
<glyph horiz-adv-x="496" d="M389 0h-113l2 49h-3q-65 -58 -146 -58q-68 0 -95 39t-15 106l1 9q13 74 53 113t129 49q45 5 119 7l3 16q8 47 -2 62.5t-48 15.5q-78 0 -168 -30l-6 94q108 40 211 40q82 0 120.5 -40.5t19.5 -145.5zM289 150l15 80q-59 -2 -92 -9q-30 -6 -44 -22.5t-20 -48.5 q-12 -57 38 -57q26 0 55 17t48 40zM285 577l-60 154h111l37 -154h-88z" />
<glyph horiz-adv-x="496" d="M389 0h-113l2 49h-3q-65 -58 -146 -58q-68 0 -95 39t-15 106l1 9q13 74 53 113t129 49q45 5 119 7l3 16q8 47 -2 62.5t-48 15.5q-78 0 -168 -30l-6 94q108 40 211 40q82 0 120.5 -40.5t19.5 -145.5zM492 731l-120 -154h-93l97 154h116zM289 150l15 80q-59 -2 -92 -9 q-30 -6 -44 -22.5t-20 -48.5q-12 -57 38 -57q26 0 55 17t48 40z" />
<glyph horiz-adv-x="496" d="M389 0h-113l2 49h-3q-65 -58 -146 -58q-68 0 -95 39t-15 106l1 9q13 74 53 113t129 49q45 5 119 7l3 16q8 47 -2 62.5t-48 15.5q-78 0 -168 -30l-6 94q108 40 211 40q82 0 120.5 -40.5t19.5 -145.5zM172 577l140 154h89l81 -154h-92l-44 85l-75 -85h-99zM289 150l15 80 q-59 -2 -92 -9q-30 -6 -44 -22.5t-20 -48.5q-12 -57 38 -57q26 0 55 17t48 40z" />
<glyph horiz-adv-x="496" d="M389 0h-113l2 49h-3q-65 -58 -146 -58q-68 0 -95 39t-15 106l1 9q13 74 53 113t129 49q45 5 119 7l3 16q8 47 -2 62.5t-48 15.5q-78 0 -168 -30l-6 94q108 40 211 40q82 0 120.5 -40.5t19.5 -145.5zM209 589l-26 47q46 58 108 58q31 0 66 -22t59 -22q27 0 62 36l26 -49 q-49 -65 -110 -65q-31 0 -64.5 22t-58.5 22t-62 -27zM289 150l15 80q-59 -2 -92 -9q-30 -6 -44 -22.5t-20 -48.5q-12 -57 38 -57q26 0 55 17t48 40z" />
<glyph horiz-adv-x="496" d="M389 0h-113l2 49h-3q-65 -58 -146 -58q-68 0 -95 39t-15 106l1 9q13 74 53 113t129 49q45 5 119 7l3 16q8 47 -2 62.5t-48 15.5q-78 0 -168 -30l-6 94q108 40 211 40q82 0 120.5 -40.5t19.5 -145.5zM289 150l15 80q-59 -2 -92 -9q-30 -6 -44 -22.5t-20 -48.5 q-12 -57 38 -57q26 0 55 17t48 40zM295 577h-115l21 109h115zM476 577h-114l21 109h114z" />
<glyph horiz-adv-x="496" d="M389 0h-113l2 49h-3q-65 -58 -146 -58q-68 0 -95 39t-15 106l1 9q13 74 53 113t129 49q45 5 119 7l3 16q8 47 -2 62.5t-48 15.5q-78 0 -168 -30l-6 94q108 40 211 40q82 0 120.5 -40.5t19.5 -145.5zM239 675q10 48 44 76.5t83 28.5t73 -28.5t14 -76.5q-9 -48 -43.5 -76.5 t-83.5 -28.5t-72.5 28.5t-14.5 76.5zM289 150l15 80q-59 -2 -92 -9q-30 -6 -44 -22.5t-20 -48.5q-12 -57 38 -57q26 0 55 17t48 40zM300 675q-4 -23 6 -36.5t31 -13.5t36.5 13.5t19.5 36.5q8 50 -36 50q-47 0 -57 -50z" />
<glyph horiz-adv-x="749" d="M305 512q87 0 116 -49q47 49 141 49q102 0 142.5 -44t22.5 -137q-7 -45 -29 -107l-264 -1q-13 -73 2.5 -101.5t68.5 -28.5q51 0 146 26l3 -93q-76 -35 -180 -35q-127 0 -161 70q-80 -70 -188 -70q-65 0 -92 39t-14 106l2 8q16 80 57 117.5t119 45.5q41 5 127 7l3 16 q9 47 -1 62.5t-49 15.5q-77 0 -170 -30l-4 94q108 40 202 40zM185 93q63 0 111 54q0 33 8 83q-58 -2 -86 -8q-57 -11 -69 -72q-12 -57 36 -57zM455 315h137q9 28 11 41q9 60 -51 60q-38 0 -60.5 -22.5t-36.5 -78.5z" />
<glyph horiz-adv-x="481" d="M39 248q13 68 29 112.5t44 82t72 55t108 17.5q126 0 158 -71t-20 -220l-265 -1q-13 -73 3.5 -101.5t69.5 -28.5q54 0 149 28l4 -93q-83 -37 -183 -37q-121 0 -158 61t-11 196zM185 315h138q36 104 -39 104q-38 0 -61 -23.5t-38 -80.5zM274 577l-60 154h111l37 -154h-88z " />
<glyph horiz-adv-x="481" d="M39 248q13 68 29 112.5t44 82t72 55t108 17.5q126 0 158 -71t-20 -220l-265 -1q-13 -73 3.5 -101.5t69.5 -28.5q54 0 149 28l4 -93q-83 -37 -183 -37q-121 0 -158 61t-11 196zM185 315h138q36 104 -39 104q-38 0 -61 -23.5t-38 -80.5zM481 731l-120 -154h-93l97 154h116z " />
<glyph horiz-adv-x="481" d="M39 248q13 68 29 112.5t44 82t72 55t108 17.5q126 0 158 -71t-20 -220l-265 -1q-13 -73 3.5 -101.5t69.5 -28.5q54 0 149 28l4 -93q-83 -37 -183 -37q-121 0 -158 61t-11 196zM185 315h138q36 104 -39 104q-38 0 -61 -23.5t-38 -80.5zM161 577l140 154h89l81 -154h-92 l-44 85l-75 -85h-99z" />
<glyph horiz-adv-x="481" d="M39 248q13 68 29 112.5t44 82t72 55t108 17.5q126 0 158 -71t-20 -220l-265 -1q-13 -73 3.5 -101.5t69.5 -28.5q54 0 149 28l4 -93q-83 -37 -183 -37q-121 0 -158 61t-11 196zM185 315h138q36 104 -39 104q-38 0 -61 -23.5t-38 -80.5zM284 577h-115l21 109h115zM465 577 h-114l21 109h114z" />
<glyph horiz-adv-x="331" d="M16 -2l111 578q18 93 60 123.5t119 30.5q78 0 138 -14l-35 -96q-53 7 -84 7q-30 0 -45.5 -11.5t-22.5 -49.5l-12 -63h137l-34 -94h-121l-80 -415q-20 -104 -61 -147.5t-117 -59.5q-36 -7 -89 -15l-3 100q59 12 69 15q34 10 47.5 34.5t22.5 76.5z" />
<glyph horiz-adv-x="764" d="M197 -12q-116 2 -150 63.5t-8 192.5q14 70 29.5 115t42.5 83t70 55.5t105 17.5q95 0 134 -65q59 65 165 65q93 0 134 -46t23 -139q-6 -37 -29 -106l-264 -1q-13 -73 2.5 -101.5t69.5 -28.5t150 28l3 -93q-83 -37 -185 -37q-105 0 -139 57q-55 -60 -153 -60zM218 96 q44 0 66 31.5t39 118.5q18 82 8 121.5t-52 39.5q-43 0 -67 -37.5t-41 -123.5q-17 -87 -7 -118.5t54 -31.5zM470 315h137q9 28 11 41q8 63 -50 63q-37 0 -60 -23.5t-38 -80.5z" />
<glyph d="M138 0q-53 0 -83.5 36t-15.5 113l70 354h131l-65 -333q-11 -61 31 -61q53 0 103 56l66 338h132l-100 -517q-18 -96 -59.5 -135t-131.5 -61q-56 -13 -142 -23l1 100q79 11 124 26q41 13 56.5 31.5t25.5 64.5l16 70h-2q-68 -59 -157 -59zM488 731l-120 -154h-93l97 154h116 z" />
<glyph d="M138 0q-53 0 -83.5 36t-15.5 113l70 354h131l-65 -333q-11 -61 31 -61q53 0 103 56l66 338h132l-100 -517q-18 -96 -59.5 -135t-131.5 -61q-56 -13 -142 -23l1 100q79 11 124 26q41 13 56.5 31.5t25.5 64.5l16 70h-2q-68 -59 -157 -59zM289 577h-115l21 109h115zM470 577 h-114l21 109h114z" />
<glyph horiz-adv-x="415" d="M40 250q27 134 81.5 198t170.5 64q82 0 139 -21l-38 -98q-42 11 -92 11q-55 0 -84 -35t-46 -119q-16 -90 -1 -120.5t71 -30.5q37 0 99 15l3 -99q-67 -24 -144 -24q-118 0 -151.5 63t-7.5 196zM145 -213h-85q8 8 20.5 21.5t31 54t14.5 78.5h100q3 -26 -4 -51.5 t-19.5 -43.5t-25.5 -32t-23 -20z" />
<glyph horiz-adv-x="496" d="M202 -12q-122 0 -155.5 61t-7.5 195q27 140 81 205.5t173 65.5q121 0 155.5 -67t8.5 -204q-26 -136 -80 -196t-175 -60zM219 96q45 0 68 31.5t39 118.5q16 82 6.5 121.5t-53.5 39.5t-68 -37.5t-40 -123.5q-17 -87 -7 -118.5t55 -31.5zM446 731l-92 -154h-82l70 154h104z " />
<glyph horiz-adv-x="578" d="M270 503h102l-33 -94h-86l-80 -415q-20 -104 -62 -147.5t-120 -59.5q-31 -6 -88 -15l-5 100q62 12 72 15q35 10 48 34t23 77l80 411h-66l18 94h66l14 73q18 94 62 124t129 30q129 0 261 -23l-138 -707h-132l121 623q-54 6 -90 6q-42 0 -58.5 -10.5t-23.5 -48.5z" />
<glyph horiz-adv-x="964" d="M458 0l123 635q-30 6 -66 6q-87 0 -100 -74q-10 -49 18 -83l-36 -96q-89 21 -143 21q-55 0 -63 -40q-3 -20 6 -33.5t42 -24.5l21 -7q87 -28 113.5 -62.5t11.5 -112.5q-25 -138 -194 -138q-103 0 -205 32l39 101q99 -29 160 -29q37 0 53 10.5t21 37.5q4 24 -5 37.5 t-42 24.5l-21 8q-84 25 -112.5 56.5t-15.5 99.5q15 80 60.5 111.5t123.5 31.5q33 0 73 -5q-18 42 -9 90q12 63 65 97.5t139 34.5q123 0 211 -30l-28 -140q-5 -24 -12.5 -51.5t-13.5 -43.5l-5 -16h2q73 64 159 64q52 0 82 -35.5t15 -112.5l-68 -364h-132l64 340q13 64 -30 64 q-26 0 -55.5 -18t-46.5 -40l-67 -346h-132z" />
<glyph horiz-adv-x="778" d="M478 138l53 271h-67l18 94h68l27 106q-29 7 -75 7q-80 0 -93 -62q-7 -37 22 -63l-39 -100q-50 13 -91 13q-55 0 -84 -35t-46 -119q-16 -90 -1 -120.5t71 -30.5q37 0 99 15l3 -99q-67 -24 -144 -24q-118 0 -151.5 63t-7.5 196q27 134 81.5 198t170.5 64q15 0 23 -1 q-19 32 -10 74q23 119 203 119q113 0 206 -31l-33 -170h123l-33 -94h-108l-53 -270q-5 -26 2 -33t30 -7q12 0 70 9l-3 -98q-52 -19 -110 -19q-78 0 -108 30.5t-13 116.5z" />
<glyph horiz-adv-x="937" d="M431 0l124 637q-28 4 -43 4q-81 0 -96 -74q-6 -37 15 -76l-39 -100q-50 13 -91 13q-55 0 -84 -35t-46 -119q-16 -90 -1 -120.5t71 -30.5q37 0 99 15l3 -99q-67 -24 -144 -24q-118 0 -151.5 63t-7.5 196q27 134 81.5 198t170.5 64q21 0 32 -1q-21 40 -11 92q11 59 66 92.5 t140 33.5q103 0 181 -25l-29 -145q-5 -24 -12.5 -51.5t-12.5 -43.5l-6 -16h2q73 64 159 64q52 0 82 -35.5t15 -112.5l-68 -364h-132l64 340q13 64 -30 64q-26 0 -55.5 -18t-46.5 -40l-67 -346h-132z" />
<glyph horiz-adv-x="343" d="M58 405q19 101 55.5 139.5t100.5 38.5q83 0 139 -27l-35 -182q-4 -25 1.5 -31t25.5 -3l-1 -66q-30 -12 -67 -12q-47 0 -60 32h-3q-47 -35 -92 -35q-44 0 -61.5 32t-2.5 114zM216 503q-20 0 -32.5 -16.5t-23.5 -71.5q-7 -33 -5.5 -50t5.5 -21.5t14 -4.5q14 0 40 16l28 142 q-9 6 -26 6z" />
<glyph horiz-adv-x="408" d="M329 499l-11 -63q-12 -60 -32.5 -92t-63.5 -69l-34 -30q-36 -30 -45 -77q-8 -40 7.5 -55t57.5 -15q54 0 127 21l2 -97q-93 -31 -170 -31q-189 0 -154 176q17 87 82 143l37 33q28 25 39 46t19 60l10 50h129zM368 697l-22 -113h-130l22 113h130z" />
<glyph horiz-adv-x="261" d="M246 495l-96 -495h-133l96 495h133zM285 697l-22 -113h-133l22 113h133z" />
</font>
</defs>
</svg>
