<?xml version="1.0" standalone="no"?>
<!DOCTYPE svg PUBLIC "-//W3C//DTD SVG 1.1//EN" "http://www.w3.org/Graphics/SVG/1.1/DTD/svg11.dtd" >
<svg xmlns="http://www.w3.org/2000/svg" xmlns:xlink="http://www.w3.org/1999/xlink" version="1.1">
<metadata></metadata>
<defs>
<font id="noway_regularitalic" horiz-adv-x="1167" >
<font-face units-per-em="2048" ascent="1536" descent="-512" />
<missing-glyph horiz-adv-x="536" />
<glyph unicode="&#x2e;&#x2e;&#x2e;" horiz-adv-x="1519" d="M113 0l43 225h231l-43 -225h-231zM645 0l43 225h232l-43 -225h-232zM1171 0l43 225h232l-43 -225h-232z" />
<glyph unicode="&#xd;" horiz-adv-x="534" />
<glyph unicode=" "  horiz-adv-x="536" />
<glyph unicode="&#x09;" horiz-adv-x="536" />
<glyph unicode="&#xa0;" horiz-adv-x="536" />
<glyph unicode="!" horiz-adv-x="458" d="M113 0l43 225h231l-43 -225h-231zM246 412l168 1022h182l-225 -1022h-125z" />
<glyph unicode="&#x22;" horiz-adv-x="655" d="M287 950l73 484h170l-112 -484h-131zM600 950l74 484h170l-113 -484h-131z" />
<glyph unicode="#" horiz-adv-x="1081" d="M137 479l51 131h197l84 217h-209l51 131h207l111 291h127l-111 -291h236l110 291h127l-110 -291h215l-54 -131h-211l-84 -217h226l-53 -131h-220l-108 -291h-129l108 291h-233l-109 -291h-129l109 291h-199zM512 610h236l83 217h-235z" />
<glyph unicode="$" horiz-adv-x="1081" d="M109 125l106 133q84 -50 163.5 -79t172.5 -29q94 0 162 25t104.5 69t53 94.5t16.5 110.5q0 69 -31.5 117t-82.5 75t-112 47.5t-122 43.5t-112 53.5t-82.5 86.5t-31.5 134q0 198 107 311.5t321 128.5l29 145h143l-28 -145q89 -11 166 -43t125 -82l-105 -131 q-127 98 -291 98q-148 0 -219.5 -69t-71.5 -183q0 -46 24.5 -80.5t65 -54.5t91.5 -39.5t105 -35.5t105 -43.5t91.5 -62t65 -92.5t24.5 -134q0 -78 -13 -145.5t-45.5 -132t-83 -112t-131 -79.5t-184.5 -39l-35 -181h-143l35 183q-100 11 -194 46.5t-158 90.5z" />
<glyph unicode="%" horiz-adv-x="1591" d="M297 965l39 196q56 289 323 289q134 0 199.5 -75t36.5 -214l-41 -196q-30 -142 -109 -213.5t-215 -71.5q-133 0 -196.5 74t-36.5 211zM414 -59l874 1552h164l-874 -1552h-164zM444 963q-12 -67 9 -103.5t96 -36.5q76 0 111 37t47 103l38 200q14 72 -8.5 108t-93.5 36 t-107.5 -36t-50.5 -108zM973 268l39 197q56 289 323 289q134 0 199.5 -75t36.5 -214l-41 -197q-30 -142 -109 -213t-215 -71q-133 0 -196.5 73.5t-36.5 210.5zM1120 266q-12 -67 9 -103t96 -36q76 0 110.5 36.5t46.5 102.5l39 201q14 72 -8.5 107.5t-93.5 35.5t-107.5 -35.5 t-50.5 -107.5z" />
<glyph unicode="&#x26;" horiz-adv-x="1284" d="M168 322q0 167 83 281.5t271 184.5l-37 60q-71 109 -71 227q0 176 116.5 275.5t319.5 99.5q193 0 330 -100l-93 -138q-134 74 -253 74q-108 0 -174 -54.5t-66 -146.5q0 -78 55 -161l346 -516q75 118 158 342h162q-85 -305 -225 -484l180 -266h-215l-92 135 q-182 -151 -428 -151q-173 0 -270 92t-97 246zM344 336q0 -92 55.5 -143.5t165.5 -51.5q176 0 312 123l-267 395q-266 -72 -266 -323z" />
<glyph unicode="'" horiz-adv-x="339" d="M287 950l73 484h170l-112 -484h-131z" />
<glyph unicode="(" horiz-adv-x="677" d="M231 416q0 306 132 584.5t401 547.5l106 -78q-239 -245 -351.5 -515t-112.5 -547q0 -161 36 -322.5t107 -282.5l-115 -77q-94 141 -148.5 326t-54.5 364z" />
<glyph unicode=")" horiz-adv-x="677" d="M55 -197q238 246 350.5 516.5t112.5 548.5q0 160 -35 320.5t-106 281.5l123 78q92 -139 143 -323t51 -367q0 -309 -132.5 -596t-393.5 -536z" />
<glyph unicode="*" horiz-adv-x="888" d="M330 1217l88 155l221 -127l20 291h164l-94 -291l275 127l26 -155l-297 -66l180 -223l-145 -97l-113 263l-188 -263l-131 97l266 223z" />
<glyph unicode="+" horiz-adv-x="980" d="M123 532l29 148h397l78 407h147l-78 -407h396l-29 -148h-395l-80 -407h-148l80 407h-397z" />
<glyph unicode="," horiz-adv-x="458" d="M49 -240q40 36 65 62.5t54 75.5t41 102h-96l43 225h231l-43 -225q-34 -175 -221 -317z" />
<glyph unicode="-" horiz-adv-x="628" d="M176 541l31 151h485l-30 -151h-486z" />
<glyph unicode="." horiz-adv-x="458" d="M113 0l43 225h231l-43 -225h-231z" />
<glyph unicode="/" horiz-adv-x="612" d="M-68 -162l865 1757h159l-864 -1757h-160z" />
<glyph unicode="0" horiz-adv-x="1146" d="M217 500l84 434q22 117 63.5 208.5t106.5 162t160 108t215 37.5q142 0 233.5 -66.5t122.5 -182.5t2 -267l-86 -434q-101 -516 -545 -516q-142 0 -233 66.5t-121.5 182.5t-1.5 267zM393 510q-34 -173 17 -266.5t190 -93.5t226 93.5t120 266.5l80 414q35 176 -13 268 t-192 92q-139 0 -226.5 -93t-121.5 -267z" />
<glyph unicode="1" horiz-adv-x="1013" d="M160 0l30 160h353l211 1091l-389 -141l-39 145l499 179h138l-246 -1274h260l-31 -160h-786z" />
<glyph unicode="2" horiz-adv-x="1067" d="M113 0l28 147q17 90 73.5 176t132.5 154t163.5 133.5t172 125t153.5 117t111 121t42 126.5q0 90 -64 137t-177 47q-155 0 -340 -96l-62 139q83 48 196.5 85.5t239.5 37.5q173 0 279 -89t106 -228q0 -93 -42.5 -178.5t-112 -153t-154 -130t-172 -121.5t-162 -116.5 t-128.5 -125.5t-68 -138h655l-33 -170h-837z" />
<glyph unicode="3" horiz-adv-x="1071" d="M94 109l94 135q180 -94 324 -94q362 0 362 313q0 190 -251 190h-207l30 156h207q77 0 143.5 30t112 97.5t45.5 161.5q0 186 -217 186q-133 0 -323 -88l-66 133q214 121 424 121q171 0 268 -83.5t97 -223.5q0 -40 -5 -79.5t-21 -87.5t-42 -89t-70.5 -79.5t-103.5 -62.5 q149 -73 149 -258q0 -77 -16 -146t-55.5 -136t-100 -114.5t-157 -77t-219.5 -29.5q-109 0 -214.5 33t-187.5 92z" />
<glyph unicode="4" d="M145 291l25 135l631 1008h192l-622 -983h411l86 442h174l-86 -442h230l-31 -160h-229l-56 -291h-174l56 291h-607z" />
<glyph unicode="5" horiz-adv-x="1101" d="M127 113l96 133q141 -96 322 -96q98 0 171 28t115 78.5t62 113t20 138.5q0 104 -58 165.5t-183 61.5q-84 0 -148.5 -18t-134.5 -53l-86 73l178 697h695l-33 -170h-545l-104 -406q92 43 213 43q181 0 279.5 -101t98.5 -263q0 -82 -15.5 -156.5t-54.5 -148.5t-99.5 -127.5 t-157.5 -87t-221 -33.5q-112 0 -228.5 37t-181.5 92z" />
<glyph unicode="6" horiz-adv-x="1153" d="M203 471l80 410q25 131 71.5 233.5t117 178.5t171.5 116.5t227 40.5q99 0 183.5 -26.5t183.5 -86.5l-94 -139q-138 86 -295 86q-152 0 -250 -94t-129 -260l-27 -131q150 135 338 135q169 0 265 -101t96 -266q0 -264 -149.5 -423.5t-413.5 -159.5q-210 0 -313 135.5 t-62 351.5zM377 471q-31 -159 30 -240t195 -81q161 0 262 102t101 291q0 118 -64 177.5t-176 59.5q-91 0 -172.5 -40t-142.5 -103z" />
<glyph unicode="7" horiz-adv-x="1116" d="M258 0l793 1264h-693l31 170h891l-25 -134l-802 -1300h-195z" />
<glyph unicode="8" horiz-adv-x="1150" d="M170 305q0 166 87.5 270t264.5 173q-180 100 -180 278q0 180 137 302t375 122q174 0 271.5 -87.5t97.5 -225.5q0 -248 -308 -389q209 -102 209 -302q0 -217 -143 -339.5t-410 -122.5q-184 0 -292.5 85.5t-108.5 235.5zM346 346q0 -95 69 -149t187 -54q152 0 251 77.5 t99 207.5q0 171 -247 244q-103 -28 -174 -63t-111 -77t-57 -86.5t-17 -99.5zM516 1040q0 -44 16.5 -81t49.5 -65.5t66 -49t81 -43.5q45 19 71 30.5t64.5 31.5t61.5 36t50 40.5t41 49t24 57t10 68.5q0 81 -58 129.5t-168 48.5q-145 0 -227 -71t-82 -181z" />
<glyph unicode="9" horiz-adv-x="1153" d="M188 94l97 142q141 -86 297 -86q153 0 252.5 94t130.5 260l24 131q-155 -135 -340 -135q-172 0 -267 97.5t-95 268.5q0 98 22.5 184.5t68.5 160t113 126.5t161 83t206 30q205 0 307.5 -135.5t61.5 -351.5l-80 -410q-27 -137 -69 -237t-109.5 -177t-168 -116t-235.5 -39 q-103 0 -203 28.5t-174 81.5zM465 891q0 -118 64 -178t176 -60q86 0 170.5 41t144.5 103l33 166q31 158 -31 239.5t-197 81.5q-161 0 -260.5 -102t-99.5 -291z" />
<glyph unicode=":" horiz-adv-x="458" d="M113 0l43 225h231l-43 -225h-231zM270 817l45 225h232l-45 -225h-232z" />
<glyph unicode=";" horiz-adv-x="458" d="M49 -240q40 36 65 62.5t54 75.5t41 102h-96l43 225h231l-43 -225q-34 -175 -221 -317zM270 817l43 225h232l-43 -225h-232z" />
<glyph unicode="&#x3c;" horiz-adv-x="1028" d="M227 555l21 102l868 430l-33 -174l-651 -313l533 -305l-21 -174z" />
<glyph unicode="=" horiz-adv-x="976" d="M82 330l29 147h940l-29 -147h-940zM162 739l26 148h940l-26 -148h-940z" />
<glyph unicode="&#x3e;" horiz-adv-x="1028" d="M143 121l33 176l629 313l-508 303l33 174l702 -434l-18 -98z" />
<glyph unicode="?" horiz-adv-x="1013" d="M285 0l43 225h231l-43 -225h-231zM330 1329q197 121 403 121q185 0 286 -80.5t101 -212.5q0 -80 -27.5 -147t-72.5 -112.5t-100 -84t-111.5 -70t-105 -61.5t-83 -67.5t-42.5 -79.5l-29 -154h-158l37 192q10 52 44 98.5t79.5 80.5t99 66.5t105 64.5t93.5 67t67.5 81 t25.5 99q0 164 -240 164q-141 0 -303 -90z" />
<glyph unicode="@" horiz-adv-x="1581" d="M205 414q0 152 31.5 286t98 247.5t163.5 195.5t234.5 128t303.5 46q271 0 422.5 -139.5t151.5 -380.5q0 -264 -107 -418t-293 -154q-170 0 -211 97h-8q-86 -97 -205 -97q-108 0 -160 73t-26 200l39 194q25 130 99 201.5t190 71.5q54 0 93 -22.5t56 -53.5l29 65h123 l-88 -458q-14 -79 7.5 -106.5t84.5 -27.5q102 0 160.5 104.5t58.5 305.5q0 192 -106.5 294.5t-325.5 102.5q-163 0 -289.5 -55.5t-205 -155t-118.5 -232t-40 -292.5q0 -218 117 -320t364 -102q111 0 241 33t238 82l25 -131q-106 -54 -250 -91.5t-289 -37.5q-302 0 -455 137 t-153 410zM748 504q-13 -78 7.5 -110t82.5 -32q68 0 145 60l68 346q-55 59 -123 59q-67 0 -101.5 -38t-48.5 -119z" />
<glyph unicode="A" horiz-adv-x="1220" d="M57 0l746 1434h160l198 -1434h-184l-43 356h-504l-182 -356h-191zM502 518h420l-82 647h-9z" />
<glyph unicode="B" horiz-adv-x="1187" d="M195 0l276 1434h426q167 0 258.5 -78t91.5 -219q0 -140 -68 -242.5t-173 -142.5l-2 -9q172 -63 172 -256q0 -78 -15 -146t-52 -132t-94 -109.5t-147.5 -72.5t-205.5 -27h-467zM399 160h244q187 0 269.5 72.5t82.5 234.5q0 101 -61 144.5t-180 43.5h-258zM526 811h252 q139 0 213 79.5t74 213.5q0 170 -197 170h-252z" />
<glyph unicode="C" horiz-adv-x="1095" d="M236 477l92 479q94 494 563 494q143 0 243.5 -68t131.5 -202l-154 -72q-17 56 -42.5 92.5t-76 60t-125.5 23.5q-159 0 -246.5 -88t-121.5 -260l-86 -438q-12 -65 -13 -118q1 -87 35 -142q54 -88 213 -88q177 0 303 180l135 -76q-155 -270 -471 -270q-228 0 -326 132 q-68 91 -68 229q0 61 14 132z" />
<glyph unicode="D" horiz-adv-x="1302" d="M195 0l276 1434h424q205 0 321.5 -127t116.5 -375q0 -273 -85 -485t-239.5 -329.5t-355.5 -117.5h-458zM399 160h238q243 0 378.5 201.5t135.5 537.5q0 77 -15 141t-47.5 118.5t-92 85t-142.5 30.5h-238z" />
<glyph unicode="E" horiz-adv-x="1054" d="M195 0l276 1434h731l-28 -160h-558l-90 -463h512l-32 -160h-512l-95 -491h557l-30 -160h-731z" />
<glyph unicode="F" horiz-adv-x="1034" d="M195 0l276 1434h721l-29 -160h-547l-96 -483h502l-29 -160h-501l-123 -631h-174z" />
<glyph unicode="G" horiz-adv-x="1230" d="M236 477l92 479q94 494 571 494q143 0 243.5 -68t131.5 -202l-154 -72q-25 85 -83 130.5t-169 45.5q-159 0 -246.5 -88t-121.5 -260l-86 -438q-12 -65 -12 -118q0 -87 34 -142q54 -88 213 -88q108 0 190 36.5t128 85.5l61 326h-272l32 160h437l-105 -539 q-201 -235 -497 -235q-224 0 -327 134q-73 94 -73 234q0 58 13 125z" />
<glyph unicode="H" horiz-adv-x="1341" d="M195 0l276 1434h174l-117 -611h605l116 611h174l-276 -1434h-174l127 664h-604l-127 -664h-174z" />
<glyph unicode="I" horiz-adv-x="563" d="M195 0l276 1434h174l-276 -1434h-174z" />
<glyph unicode="J" horiz-adv-x="808" d="M59 2l52 158q58 -10 102 -10q79 0 133.5 19t90 61.5t56.5 97t37 139.5l187 967h174l-186 -963q-17 -89 -38 -155.5t-59.5 -132t-90 -107t-131 -67t-181.5 -25.5q-69 0 -146 18z" />
<glyph unicode="K" horiz-adv-x="1157" d="M195 0l276 1434h174l-119 -623h156l487 623h199l-553 -695l287 -739h-199l-237 651h-172l-125 -651h-174z" />
<glyph unicode="L" horiz-adv-x="993" d="M195 0l276 1434h174l-246 -1274h557l-30 -160h-731z" />
<glyph unicode="M" horiz-adv-x="1564" d="M195 0l276 1434h119l289 -912l624 912h144l-277 -1434h-164l193 1001h-10l-515 -739h-81l-232 739h-10l-193 -1001h-163z" />
<glyph unicode="N" horiz-adv-x="1366" d="M195 0l276 1434h133l463 -1078h10l207 1078h164l-277 -1434h-151l-447 1059h-10l-205 -1059h-163z" />
<glyph unicode="O" horiz-adv-x="1236" d="M236 477l92 479q45 235 182.5 364.5t380.5 129.5q235 0 333 -132q67 -91 68 -228q0 -62 -14 -134l-92 -479q-94 -493 -565 -493q-226 0 -327 133q-71 93 -71 233q0 59 13 127zM414 498q-13 -66 -13 -120q-1 -86 33 -140q54 -88 214.5 -88t247 87.5t120.5 260.5l86 438 q13 66 13 120q0 86 -33 140q-54 88 -214 88t-247 -87.5t-121 -260.5z" />
<glyph unicode="P" horiz-adv-x="1179" d="M195 0l276 1434h387q199 0 308.5 -82.5t109.5 -249.5q0 -288 -145 -433t-426 -145h-234l-102 -524h-174zM502 684h235q184 0 270.5 103.5t86.5 287.5q0 101 -65.5 150t-205.5 49h-207z" />
<glyph unicode="Q" horiz-adv-x="1236" d="M236 477l92 479q45 235 182.5 364.5t380.5 129.5q236 0 333 -132q68 -91 68 -228q0 -62 -14 -134l-92 -479q-39 -200 -135 -315l129 -146l-129 -116l-133 151q-119 -67 -297 -67q-226 0 -327 133q-71 93 -71 233q0 59 13 127zM414 498q-13 -66 -13 -120q0 -86 33 -140 q55 -88 215 -88q97 0 160 28l-119 137l127 111l121 -137q53 79 78 209l86 438q13 66 13 120q0 86 -33 140q-54 88 -214 88t-247 -87.5t-121 -260.5z" />
<glyph unicode="R" horiz-adv-x="1210" d="M195 0l276 1434h397q197 0 304.5 -83.5t107.5 -250.5q0 -103 -23.5 -188t-59 -140t-86 -96.5t-96.5 -63t-97 -34.5l194 -578h-197l-174 561h-264l-108 -561h-174zM508 721h233q177 0 266 84t89 268q0 107 -67.5 154t-201.5 47h-211z" />
<glyph unicode="S" horiz-adv-x="1081" d="M109 125l106 133q84 -50 163.5 -79t172.5 -29q94 0 162 25t104.5 69t53 94.5t16.5 110.5q0 69 -31.5 117t-82.5 75t-112 47.5t-122 43.5t-112 53.5t-82.5 86.5t-31.5 134q0 213 124.5 328.5t373.5 115.5q108 0 207 -34.5t158 -94.5l-105 -131q-127 98 -291 98 q-148 0 -219.5 -69t-71.5 -183q0 -46 24.5 -80.5t65 -54.5t91.5 -39.5t105 -35.5t105 -43.5t91.5 -62t65 -92.5t24.5 -134q0 -82 -14 -152.5t-50.5 -138t-93.5 -115t-149 -76t-211 -28.5q-117 0 -237 37.5t-197 103.5z" />
<glyph unicode="T" horiz-adv-x="1136" d="M340 1274l31 160h950l-31 -160h-387l-248 -1274h-174l248 1274h-389z" />
<glyph unicode="U" horiz-adv-x="1323" d="M283 451l190 983h174l-186 -963q-11 -64 -12 -117q0 -28 4 -52q9 -71 68 -111.5t171 -40.5q163 0 244 82t111 239l186 963h174l-190 -983q-44 -231 -173 -349t-364 -118q-232 0 -336 122q-74 86 -74 223q0 56 13 122z" />
<glyph unicode="V" d="M340 1434h182l94 -1213h9l563 1213h190l-690 -1434h-211z" />
<glyph unicode="W" horiz-adv-x="1732" d="M348 1434h178l27 -1213h8l490 1213h174l28 -1213h9l489 1213h186l-606 -1434h-221l-37 1065h-8l-440 -1065h-222z" />
<glyph unicode="X" horiz-adv-x="1032" d="M45 0l514 739l-209 695h187l141 -527h8l350 527h199l-481 -695l227 -739h-190l-160 567h-8l-381 -567h-197z" />
<glyph unicode="Y" horiz-adv-x="1153" d="M334 1434h184l180 -721h11l458 721h209l-610 -902l-102 -532h-175l103 532z" />
<glyph unicode="Z" horiz-adv-x="1083" d="M119 0l24 129l854 1145h-600l29 160h809l-25 -134l-852 -1140h631l-31 -160h-839z" />
<glyph unicode="[" horiz-adv-x="727" d="M150 -238l337 1749h390l-29 -151h-225l-279 -1446h225l-30 -152h-389z" />
<glyph unicode="\" horiz-adv-x="612" d="M272 1595h160l184 -1757h-159z" />
<glyph unicode="]" horiz-adv-x="727" d="M98 -238l31 152h225l279 1446h-225l28 151h389l-338 -1749h-389z" />
<glyph unicode="^" horiz-adv-x="1030" d="M178 750l582 786h102l279 -786h-160l-199 591l-422 -591h-182z" />
<glyph unicode="_" horiz-adv-x="1087" d="M39 -213l24 131h928l-24 -131h-928z" />
<glyph unicode="`" horiz-adv-x="839" d="M586 1599h178l47 -337h-121z" />
<glyph unicode="a" horiz-adv-x="1103" d="M190 410l60 307q40 208 155 317t297 109q178 0 261 -125l57 108h127l-158 -815q-7 -38 -10 -56.5t-5.5 -44t1 -37.5t11.5 -24.5t23 -17t38 -4.5q31 0 55 8l14 -115q-21 -12 -63 -22t-78 -10q-129 0 -168 112q-72 -61 -141.5 -88.5t-171.5 -27.5q-178 0 -260 113 q-56 77 -56 195q0 55 12 118zM356 422q-11 -58 -11 -103q0 -73 27 -115q44 -70 175 -69q76 0 146.5 36t121.5 85l121 627q-31 45 -88 76.5t-137 31.5q-131 0 -201 -69t-98 -217z" />
<glyph unicode="b" horiz-adv-x="1095" d="M164 0l297 1536h164l-101 -518q58 52 138 88.5t167 36.5q175 1 253 -113q53 -76 52 -192q0 -56 -12 -121l-59 -307q-81 -426 -455 -426q-87 0 -156 37t-108 88l-53 -109h-127zM375 244q93 -109 223 -109q131 0 203 70t100 217l53 283q10 53 10 96q0 190 -198 190 q-134 0 -268 -108z" />
<glyph unicode="c" horiz-adv-x="921" d="M190 410l62 307q43 218 157 322t320 104q122 0 208 -53t124 -144l-133 -84q-22 56 -78 92.5t-137 36.5q-132 0 -201.5 -69t-97.5 -217l-56 -283q-11 -58 -11 -103q1 -71 27 -114q44 -70 169 -70q153 0 258 119l106 -90q-73 -88 -161 -134t-228 -46q-198 0 -282 114 q-58 78 -58 195q0 54 12 117z" />
<glyph unicode="d" horiz-adv-x="1124" d="M190 410l60 307q40 208 155 317t297 109q178 0 261 -125l100 518h164l-238 -1225q-7 -38 -10 -56.5t-5.5 -44t1 -37.5t11.5 -24.5t23 -17t38 -4.5q31 0 55 8l14 -115q-21 -12 -63 -22t-78 -10q-131 0 -168 112q-72 -61 -141.5 -88.5t-171.5 -27.5q-178 0 -260 113 q-56 77 -56 195q0 55 12 118zM356 422q-11 -58 -11 -103q0 -73 27 -115q44 -70 175 -69q77 0 150 36t120 85l119 627q-92 108 -225 108q-131 0 -201 -69t-98 -217z" />
<glyph unicode="e" horiz-adv-x="1013" d="M184 373l66 344q80 426 483 426q201 0 279 -113q51 -75 51 -187q0 -58 -14 -126l-41 -211h-635l-31 -168q-4 -23 -4 -43q0 -63 37 -105q49 -55 174 -55q137 0 299 96l57 -125q-72 -55 -177.5 -88.5t-205.5 -33.5q-202 0 -288 102q-60 71 -61 184q0 48 11 103zM401 641 h476l12 64q12 58 12 104q1 69 -25 111q-42 72 -169 71q-127 0 -196 -69.5t-97 -216.5z" />
<glyph unicode="f" horiz-adv-x="768" d="M174 -414l277 1397h-189l25 129l190 14l8 43q68 379 396 379q96 0 176 -37l-70 -135q-61 21 -113 21q-182 0 -217 -193l-16 -78h293l-27 -143h-293l-274 -1397h-166z" />
<glyph unicode="g" horiz-adv-x="1075" d="M121 -346l63 127q142 -64 279 -64q250 0 313 320l15 72q-144 -125 -310 -125q-174 0 -251 113q-53 76 -53 191q0 56 13 122l60 307q81 426 444 426q98 0 166.5 -36.5t106.5 -88.5l55 108h127l-213 -1093q-20 -103 -52.5 -181t-89 -144.5t-146.5 -102t-212 -35.5 q-147 0 -315 84zM356 422q-11 -58 -11 -103q0 -72 27 -115q44 -69 175 -69q128 0 268 109l123 639q-92 108 -225 108q-131 0 -202 -69.5t-99 -216.5z" />
<glyph unicode="h" horiz-adv-x="1146" d="M164 0l297 1536h164l-105 -535q182 142 352 142q111 0 180 -53q70 -52 90 -138q10 -42 10 -90q0 -49 -11 -104l-148 -758h-164l140 719q9 47 9 85q0 177 -190 177q-71 0 -150 -35.5t-142 -83.5l-168 -862h-164z" />
<glyph unicode="i" horiz-adv-x="663" d="M262 983l27 143h352l-158 -809q-15 -61 -14 -101q0 -20 3 -34q11 -44 75 -45q31 0 65 6v-133q-14 -9 -51.5 -15.5t-64.5 -6.5q-104 0 -158 62q-37 42 -37 118q0 36 8 80l142 735h-189zM502 1294l41 209h180l-41 -209h-180z" />
<glyph unicode="j" horiz-adv-x="616" d="M-133 -391l63 135q58 -14 99 -14q182 0 217 192l205 1061h-189l27 143h354l-225 -1169q-39 -199 -130 -289t-268 -90q-38 0 -82.5 9t-70.5 22zM504 1294l41 209h180l-41 -209h-180z" />
<glyph unicode="k" horiz-adv-x="1030" d="M164 0l297 1536h164l-168 -858h143l373 448h188l-428 -512l82 -288q32 -112 63.5 -152.5t94.5 -40.5q23 0 53 10l18 -118q-53 -37 -118 -37q-88 0 -142 53t-88 168l-98 326h-168l-102 -535h-164z" />
<glyph unicode="l" horiz-adv-x="552" d="M174 142q-1 12 -1 25q0 36 11 81l250 1288h164l-236 -1219q-15 -61 -15 -101q0 -20 4 -34q11 -44 75 -45q22 0 49 6l2 -133q-42 -22 -104 -22q-40 0 -72 7t-61.5 24.5t-44.5 48t-21 74.5z" />
<glyph unicode="m" horiz-adv-x="1753" d="M164 0l217 1126h131l-8 -139q168 156 350 156q206 0 258 -168q26 24 58 48t82 53.5t110.5 48t120.5 18.5q162 -1 229 -109q45 -73 45 -174q0 -48 -10 -102l-148 -758h-163l139 719q10 51 10 92q1 71 -29 109q-46 62 -157 61q-126 0 -275 -117q0 -60 -10 -106l-147 -758 h-164l139 719q10 55 10 97q0 66 -26 104q-42 60 -156 61q-128 0 -274 -119l-168 -862h-164z" />
<glyph unicode="n" horiz-adv-x="1136" d="M164 0l217 1126h131l-8 -139q38 34 81.5 64t122.5 61t154 31q87 0 148.5 -30t90.5 -82.5t38 -122.5q3 -23 3 -48q0 -49 -12 -102l-147 -758h-164l139 719q10 52 10 93q0 70 -29 108q-46 61 -161 61q-125 0 -282 -119l-168 -862h-164z" />
<glyph unicode="o" horiz-adv-x="1044" d="M190 410l62 307q20 102 55 177.5t91.5 133t141 86.5t195.5 29q209 -1 293 -111q56 -74 57 -190q0 -57 -14 -125l-61 -307q-21 -105 -55.5 -180.5t-91 -132.5t-140.5 -85t-197 -28q-206 0 -290 112q-58 78 -58 198q0 54 12 116zM358 422q-11 -58 -11 -104q1 -72 27 -114 q44 -70 175.5 -69.5t202 70t98.5 217.5l55 283q11 58 11 103q0 72 -27 114q-44 69 -176 69t-201.5 -69t-97.5 -217z" />
<glyph unicode="p" horiz-adv-x="1095" d="M84 -414l297 1540h127l12 -108q57 51 140 88t171 37q181 0 255 -111q49 -74 49 -186q0 -59 -13 -129l-59 -307q-41 -216 -148.5 -321t-289.5 -105q-89 0 -164 37.5t-113 87.5l-100 -523h-164zM375 244q93 -109 223 -109q131 0 203 70t100 217l53 283q11 59 11 105 q0 70 -25 112q-43 69 -174 69q-134 0 -268 -108z" />
<glyph unicode="q" horiz-adv-x="1085" d="M193 410l59 307q39 203 155.5 314.5t297.5 111.5q87 0 156 -37t108 -88l53 108h127l-297 -1540h-164l98 523q-58 -52 -138 -88.5t-167 -36.5q-181 0 -254 111q-48 72 -48 184q0 60 14 131zM358 422q-11 -58 -11 -103q0 -72 27 -115q44 -69 175 -69q130 0 266 109l123 639 q-92 108 -225 108q-131 0 -201 -69t-98 -217z" />
<glyph unicode="r" horiz-adv-x="768" d="M164 0l217 1126h131l-16 -178q23 28 53.5 56.5t76.5 62.5t104.5 55t117.5 21q40 0 84 -13l-58 -169q-38 10 -83 10q-86 0 -171 -47.5t-137 -120.5l-155 -803h-164z" />
<glyph unicode="s" horiz-adv-x="892" d="M90 92l92 123q158 -86 281 -86q78 0 133 19.5t84 53.5t41 72.5t12 85.5q0 66 -47 98.5t-149 61.5q-49 14 -83.5 26.5t-75 34.5t-65.5 47.5t-42 65t-17 88.5q0 180 109.5 270.5t308.5 90.5q85 0 167.5 -24t143.5 -64l-80 -129q-50 30 -117.5 50.5t-132.5 20.5 q-109 0 -172 -44.5t-63 -141.5q0 -27 12 -48.5t27.5 -35.5t47 -28t54.5 -21.5t66 -20.5t71.5 -22.5t63 -25t55.5 -34t40.5 -43t28.5 -57.5t9 -74q0 -200 -111 -308.5t-336 -108.5q-106 0 -204.5 34t-151.5 74z" />
<glyph unicode="t" horiz-adv-x="849" d="M248 983q1 14 24 129l205 14l45 226l164 20l-49 -246h309l-26 -143h-310l-127 -659q-7 -37 -7 -66q0 -45 17 -71q28 -42 125 -42q64 0 158 27l6 -133q-91 -45 -200 -45q-271 0 -271 235q0 47 11 103l124 651h-198z" />
<glyph unicode="u" horiz-adv-x="1126" d="M224 174q-10 42 -10 90q0 49 11 105l146 757h164l-140 -718q-10 -52 -10 -94q0 -70 28 -108q45 -62 154 -61q79 0 157 35t136 84l168 862h164l-219 -1126h-131l10 139q-31 -28 -55.5 -46.5t-71.5 -48t-103 -45t-116 -15.5q-118 0 -190 52.5t-92 137.5z" />
<glyph unicode="v" horiz-adv-x="987" d="M264 1126h170l86 -933h8l439 933h190l-563 -1126h-207z" />
<glyph unicode="w" horiz-adv-x="1449" d="M268 1126h172l19 -933h8l399 933h148l39 -933h8l379 933h176l-488 -1126h-208l-43 766h-9l-338 -766h-208z" />
<glyph unicode="x" horiz-adv-x="937" d="M47 0l426 573l-190 553h178l129 -415h8l289 415h198l-399 -548l201 -578h-176l-142 444h-8l-313 -444h-201z" />
<glyph unicode="y" horiz-adv-x="1118" d="M156 -346l73 127q136 -64 275 -64q127 0 201.5 80t109.5 240l23 102q-146 -155 -351 -155q-71 0 -125.5 20.5t-87.5 56t-52.5 84.5t-19.5 105q-1 3 -1 6q0 54 10 113l147 757h164l-139 -718q-10 -52 -10 -93q0 -70 29 -109q46 -61 161 -61q143 0 285 127l166 854h164 l-201 -1093q-83 -463 -502 -463q-88 0 -175 25t-144 59z" />
<glyph unicode="z" horiz-adv-x="960" d="M104 0l25 135l707 840h-514q1 14 28 151h717l-25 -133l-706 -841h575l-30 -152h-777z" />
<glyph unicode="{" horiz-adv-x="835" d="M207 561l31 152h49q72 0 118 52t64 144l68 355q25 127 96.5 187t165.5 60h137l-27 -151h-102q-88 0 -107 -103l-67 -348q-24 -121 -75.5 -183t-154.5 -85v-8q92 -26 120 -88t5 -180l-67 -349q-19 -102 59 -102h109l-31 -152h-135q-96 0 -144.5 60.5t-23.5 187.5l70 355 q18 91 -9 143.5t-100 52.5h-49z" />
<glyph unicode="|" horiz-adv-x="491" d="M119 -238l350 1809h164l-350 -1809h-164z" />
<glyph unicode="}" horiz-adv-x="835" d="M145 -238l31 152h109q79 0 98 102l68 349q24 118 75.5 180t151.5 88l2 8q-90 26 -118 88t-5 180l66 348q19 103 -60 103h-108l28 151h140q94 0 142 -60t23 -187l-67 -355q-18 -92 7 -144t97 -52h49l-26 -152h-49q-73 0 -121 -52.5t-66 -143.5l-67 -355 q-25 -128 -90.5 -188t-157.5 -60h-152z" />
<glyph unicode="&#xa1;" horiz-adv-x="458" d="M74 -324l225 1022h125l-168 -1022h-182zM283 885l43 225h231l-43 -225h-231z" />
<glyph unicode="&#xa2;" horiz-adv-x="921" d="M211 508l78 401q33 176 129.5 268t281.5 109l29 148h131l-31 -150q144 -19 252 -90l-75 -131q-120 74 -271 74q-236 0 -276 -193l-90 -471q-19 -90 26 -141t174 -51q125 0 287 73l51 -125q-131 -76 -301 -96l-24 -133h-131l24 131q-164 13 -230 114.5t-34 262.5z" />
<glyph unicode="&#xa3;" horiz-adv-x="1159" d="M96 0l27 145q39 18 58.5 27.5t54.5 30t54 38t43.5 47.5t37 62.5t21.5 78t9 99.5q0 78 -8 138h-207l23 110l176 29q-2 23 -2 92q0 124 30 221.5t80.5 158.5t121 101t146 56t161.5 16q194 0 360 -107l-98 -133q-145 74 -283 74q-344 0 -344 -375q0 -73 4 -100h475l-30 -143 h-441q2 -29 2 -99q0 -275 -190 -407h670l-31 -160h-920z" />
<glyph unicode="&#xa4;" horiz-adv-x="1175" d="M121 254l209 176q-27 58 -27 154q0 199 121 344l-141 170l125 104l143 -170q102 58 248 58q137 0 223 -64l209 176l84 -104l-207 -176q27 -59 27 -154q0 -203 -119 -342l137 -172l-125 -104l-139 172q-105 -60 -250 -60q-137 0 -223 64l-211 -176zM461 612 q0 -95 51.5 -147.5t155.5 -52.5q152 0 229.5 90.5t77.5 236.5q0 95 -51 148t-154 53q-153 0 -231 -91t-78 -237z" />
<glyph unicode="&#xa5;" horiz-adv-x="1153" d="M238 272l28 148h303l23 112h-305l30 148h232l-215 754h184l180 -721h11l458 721h209l-510 -754h236l-31 -148h-305l-23 -112h308l-29 -148h-307l-51 -272h-175l52 272h-303z" />
<glyph unicode="&#xa6;" horiz-adv-x="491" d="M119 -238l160 828h163l-159 -828h-164zM309 743l160 828h164l-160 -828h-164z" />
<glyph unicode="&#xa7;" horiz-adv-x="1048" d="M70 -315l92 133q156 -80 309 -80q134 0 209.5 62.5t75.5 164.5q0 46 -19.5 81t-53 58t-76.5 42t-90.5 35.5t-95 34.5t-90.5 44t-76.5 60t-53 85.5t-19.5 116.5q0 109 51 187t138 147q-52 85 -52 170q0 206 132 315t360 109q223 0 371 -109l-97 -133q-140 80 -307 80 q-141 0 -211.5 -61.5t-70.5 -165.5q0 -58 31.5 -99.5t82 -66t111.5 -46t121.5 -47.5t111 -60.5t82 -95.5t31.5 -144q0 -110 -49.5 -189.5t-134.5 -146.5q47 -71 47 -166q0 -209 -126.5 -316.5t-363.5 -107.5q-102 0 -200 28t-170 81zM360 551q0 -60 24.5 -103t71.5 -71.5 t93 -47t111.5 -42t105.5 -43.5q45 37 84 99.5t39 131.5q0 50 -18.5 89t-47.5 63t-72.5 45.5t-83.5 35t-91.5 33t-86.5 37.5q-48 -38 -88.5 -98t-40.5 -129z" />
<glyph unicode="&#xa8;" horiz-adv-x="874" d="M408 1298l41 207h200l-41 -207h-200zM762 1298l41 207h201l-41 -207h-201z" />
<glyph unicode="&#xa9;" horiz-adv-x="1705" d="M223 608q0 214 63.5 393t182 308t297 200.5t399.5 71.5q307 0 471 -166.5t164 -458.5q0 -286 -110 -504.5t-325.5 -343t-508.5 -124.5q-306 0 -469.5 166t-163.5 458zM381 631q0 -235 128 -365.5t378 -130.5q241 0 413.5 104t257 282.5t84.5 412.5q0 236 -127 366 t-378 130q-182 0 -326.5 -59.5t-238 -166.5t-142.5 -252.5t-49 -320.5zM657 657l48 248q61 330 370 330q192 0 262 -182l-120 -68q-23 59 -59 87t-99 28q-96 0 -143.5 -48t-69.5 -161l-43 -219q-22 -112 7 -160.5t126 -48.5q61 0 108 29.5t93 87.5l102 -72 q-62 -83 -138.5 -131.5t-191.5 -48.5q-154 0 -218.5 88.5t-33.5 240.5z" />
<glyph unicode="&#xaa;" horiz-adv-x="907" d="M268 965l37 204q26 140 108 210.5t210 70.5q111 0 170 -82l36 72h103l-98 -514q-14 -80 -7 -100q10 -23 45 -23q23 0 35 6l4 -100q-41 -23 -100 -23q-45 0 -76.5 21t-38.5 57h-8q-93 -80 -207 -80q-119 0 -179 75.5t-34 205.5zM412 997q-18 -92 11 -138t99 -46 q84 0 168 80l74 362q-21 26 -57.5 46t-81.5 20q-74 0 -118.5 -37t-62.5 -127z" />
<glyph unicode="&#xab;" horiz-adv-x="1193" d="M203 549l24 127l576 371l-29 -154l-354 -291l244 -283l-27 -141zM694 549l25 127l575 371l-28 -154l-355 -291l244 -283l-27 -141z" />
<glyph unicode="&#xac;" horiz-adv-x="1077" d="M137 606l29 148h1036l-121 -629h-143l92 481h-893z" />
<glyph unicode="&#xad;" horiz-adv-x="628" d="M176 541l31 151h485l-30 -151h-486z" />
<glyph unicode="&#xae;" horiz-adv-x="1101" d="M272 893q0 247 152.5 402t406.5 155q183 0 282 -98t99 -267q0 -247 -152.5 -402t-406.5 -155q-183 0 -282 98t-99 267zM375 905q0 -133 74.5 -206.5t222.5 -73.5q208 0 322 123t114 325q0 134 -74 207.5t-221 73.5q-209 0 -323.5 -123.5t-114.5 -325.5zM530 721l105 541 h158q69 0 113 -34.5t44 -99.5q0 -90 -40.5 -140t-102.5 -62l90 -205h-94l-82 194h-68l-37 -194h-86zM670 995h78q114 0 114 117q0 68 -88 68h-67z" />
<glyph unicode="&#xaf;" horiz-adv-x="759" d="M383 1368l27 141h522l-27 -141h-522z" />
<glyph unicode="&#xb0;" horiz-adv-x="675" d="M313 1200q0 125 85 212t225 87q101 0 161 -60t60 -151q0 -125 -84.5 -212t-224.5 -87q-99 0 -160.5 60.5t-61.5 150.5zM436 1221q0 -51 33 -84t84 -33q69 0 117.5 48t48.5 120q0 52 -31 82t-86 30q-74 0 -120 -46.5t-46 -116.5z" />
<glyph unicode="&#xb1;" horiz-adv-x="980" d="M29 39l28 147h940l-28 -147h-940zM150 664l28 147h397l76 391h148l-76 -391h395l-28 -147h-396l-73 -375h-148l74 375h-397z" />
<glyph unicode="&#xb2;" horiz-adv-x="829" d="M225 502l23 119q11 59 46 113t82.5 95.5t101.5 80.5t106.5 73.5t95 68t68.5 70.5t26 74q0 50 -33.5 76t-91.5 26q-118 0 -225 -65l-53 117q148 94 307 94q118 0 188 -58.5t70 -154.5q0 -69 -36.5 -132t-91 -107.5t-120 -90.5t-123 -82t-99.5 -80.5t-50 -87.5h415 l-30 -149h-576z" />
<glyph unicode="&#xb3;" horiz-adv-x="829" d="M217 586l84 116q41 -28 100 -46.5t115 -18.5q59 0 100.5 17.5t61.5 45t28.5 53.5t8.5 52q0 50 -38 77t-104 27h-151l27 146h147q63 0 115.5 38.5t52.5 102.5q0 47 -30.5 74.5t-86.5 27.5q-105 0 -219 -67l-59 119q56 37 137 65.5t172 28.5q123 0 187.5 -55t64.5 -148 q0 -163 -144 -250q84 -52 84 -166q0 -67 -17.5 -123.5t-57 -106t-114 -78t-179.5 -28.5q-75 0 -157.5 27.5t-127.5 69.5z" />
<glyph unicode="&#xb4;" horiz-adv-x="839" d="M522 1262l164 337h193l-236 -337h-121z" />
<glyph unicode="&#xb5;" horiz-adv-x="1126" d="M74 -414l297 1540h166l-140 -718q-27 -140 19.5 -201.5t161.5 -61.5q125 0 282 119l166 862h164l-217 -1126h-131l8 139q-35 -32 -80 -63t-124 -61.5t-154 -30.5q-106 0 -170 39l-84 -437h-164z" />
<glyph unicode="&#xb6;" horiz-adv-x="1110" d="M242 956q0 96 34 182t96.5 152t157.5 105t209 39h611l-27 -148h-147l-330 -1700h-156l330 1700h-166l-330 -1700h-155l204 1057h-12q-151 0 -235 83.5t-84 229.5z" />
<glyph unicode="&#xb7;" horiz-adv-x="458" d="M213 520l43 225h231l-43 -225h-231z" />
<glyph unicode="&#xb8;" horiz-adv-x="851" d="M147 -391l54 94q73 -25 139 -25q64 0 86.5 17t22.5 53q0 47 -70 47q-41 0 -84 -14l-33 43l68 201h114l-65 -136q32 7 63 7q59 0 97.5 -33.5t38.5 -93.5q0 -110 -67.5 -154.5t-182.5 -44.5q-101 0 -181 39z" />
<glyph unicode="&#xb9;" horiz-adv-x="829" d="M264 502l31 149h219l119 623l-238 -86l-26 129l313 117h135l-149 -783h168l-31 -149h-541z" />
<glyph unicode="&#xba;" horiz-adv-x="770" d="M291 969l39 196q57 285 336 285t223 -285l-39 -196q-28 -141 -105.5 -213t-228.5 -72q-138 0 -194 75.5t-31 209.5zM430 977q-17 -84 9 -124t102 -40t116 39.5t58 124.5l35 180q18 85 -7 124.5t-102 39.5q-75 0 -116.5 -39.5t-59.5 -124.5z" />
<glyph unicode="&#xbb;" horiz-adv-x="1193" d="M133 178l29 154l354 291l-244 282l27 142l434 -371l-24 -127zM625 178l28 154l355 291l-244 282l27 142l434 -371l-25 -127z" />
<glyph unicode="&#xbc;" horiz-adv-x="1994" d="M264 502l31 149h219l119 623l-238 -86l-26 129l313 117h135l-149 -783h168l-31 -149h-541zM610 -162l867 1757h159l-864 -1757h-162zM1208 195l25 129l387 608h164l-383 -590h223l49 248h154l-49 -248h114l-28 -147h-115l-39 -195h-154l39 195h-387z" />
<glyph unicode="&#xbd;" horiz-adv-x="1996" d="M264 502l31 149h219l119 623l-238 -86l-26 129l313 117h135l-149 -783h168l-31 -149h-541zM610 -162l867 1757h159l-864 -1757h-162zM1251 0l23 119q11 59 46 113t82.5 95.5t101.5 80.5t106.5 73.5t95 68t68.5 70.5t26 74q0 50 -33.5 76.5t-91.5 26.5q-116 0 -225 -66 l-53 117q148 94 307 94q118 0 188 -58.5t70 -154.5q0 -60 -27 -114.5t-70.5 -96.5t-96.5 -81t-107.5 -74t-101 -68t-78.5 -70.5t-39 -74.5h416l-31 -150h-576z" />
<glyph unicode="&#xbe;" horiz-adv-x="1994" d="M217 586l84 116q41 -28 100 -46.5t115 -18.5q59 0 100.5 17.5t61.5 45t28.5 53.5t8.5 52q0 50 -38 77t-104 27h-151l27 146h147q63 0 115.5 38.5t52.5 102.5q0 47 -30.5 74.5t-86.5 27.5q-105 0 -219 -67l-59 119q56 37 137 65.5t172 28.5q123 0 187.5 -55t64.5 -148 q0 -163 -144 -250q84 -52 84 -166q0 -67 -17.5 -123.5t-57 -106t-114 -78t-179.5 -28.5q-75 0 -157.5 27.5t-127.5 69.5zM606 -162l867 1757h159l-864 -1757h-162zM1206 195l27 129l387 608h164l-385 -590h223l47 248h154l-47 -248h114l-28 -147h-115l-37 -195h-154l37 195 h-387z" />
<glyph unicode="&#xbf;" horiz-adv-x="1013" d="M109 -47q0 80 27.5 147t72.5 112.5t100 84t111.5 70t105 61.5t83 67.5t42.5 79.5l29 154h158l-37 -192q-10 -52 -44 -98.5t-79.5 -80.5t-99 -66.5t-105 -64.5t-93.5 -67t-67.5 -81t-25.5 -99q0 -164 239 -164q141 0 303 90l70 -125q-197 -121 -403 -121q-185 0 -286 80.5 t-101 212.5zM672 885l43 225h231l-43 -225h-231z" />
<glyph unicode="&#xc0;" horiz-adv-x="1220" d="M57 0l746 1434h160l198 -1434h-184l-43 356h-504l-182 -356h-191zM502 518h420l-82 647h-9zM766 1907h178l47 -338h-121z" />
<glyph unicode="&#xc1;" horiz-adv-x="1220" d="M57 0l746 1434h160l198 -1434h-184l-43 356h-504l-182 -356h-191zM502 518h420l-82 647h-9zM807 1569l164 338h192l-235 -338h-121z" />
<glyph unicode="&#xc2;" horiz-adv-x="1220" d="M57 0l746 1434h160l198 -1434h-184l-43 356h-504l-182 -356h-191zM502 518h420l-82 647h-9zM602 1569l297 338h160l166 -338h-121l-143 188l-218 -188h-141z" />
<glyph unicode="&#xc3;" horiz-adv-x="1220" d="M57 0l746 1434h160l198 -1434h-184l-43 356h-504l-182 -356h-191zM502 518h420l-82 647h-9zM590 1645q41 85 102.5 139.5t132.5 54.5q51 0 97.5 -26.5t84 -53t66.5 -26.5q25 0 47 15t34.5 32t29.5 45l106 -45q-44 -96 -107 -145.5t-130 -49.5q-40 0 -78 16.5t-62 37 t-52 37t-52 16.5q-65 0 -113 -93z" />
<glyph unicode="&#xc4;" horiz-adv-x="1220" d="M57 0l746 1434h160l198 -1434h-184l-43 356h-504l-182 -356h-191zM502 518h420l-82 647h-9zM641 1606l41 206h201l-41 -206h-201zM995 1606l41 206h201l-41 -206h-201z" />
<glyph unicode="&#xc5;" horiz-adv-x="1220" d="M57 0l746 1434h160l198 -1434h-184l-43 356h-504l-182 -356h-191zM502 518h420l-82 647h-9zM737 1702q0 109 68 175.5t178 66.5q79 0 127.5 -44t48.5 -120q0 -112 -66.5 -177t-177.5 -65q-80 0 -129 43.5t-49 120.5zM844 1720q0 -37 23 -58.5t63 -21.5q56 0 90.5 33.5 t34.5 87.5q0 37 -23 58.5t-63 21.5q-56 0 -90.5 -33.5t-34.5 -87.5z" />
<glyph unicode="&#xc6;" horiz-adv-x="1640" d="M59 0l748 1434h981l-29 -160h-772l62 -463h575l-33 -160h-528l59 -491h420l-31 -160h-534l-43 356h-510l-180 -356h-185zM498 518h424l-82 647h-9z" />
<glyph unicode="&#xc7;" horiz-adv-x="1095" d="M236 477l92 479q94 494 563 494q143 0 243.5 -68t131.5 -202l-154 -72q-17 56 -42.5 92.5t-76 60t-125.5 23.5q-159 0 -246.5 -88t-121.5 -260l-86 -438q-33 -172 21.5 -260t213.5 -88q177 0 303 180l135 -76q-152 -262 -452 -270l-45 -95q32 7 63 7q59 0 97 -33.5 t38 -93.5q0 -110 -67 -154.5t-182 -44.5q-101 0 -181 39l54 94q73 -25 139 -25q64 0 86 17t22 53q0 47 -69 47q-41 0 -84 -14l-33 43l55 166q-182 24 -256.5 152.5t-35.5 334.5z" />
<glyph unicode="&#xc8;" horiz-adv-x="1054" d="M195 0l276 1434h731l-28 -160h-558l-90 -463h512l-32 -160h-512l-95 -491h557l-30 -160h-731zM750 1907h178l47 -338h-121z" />
<glyph unicode="&#xc9;" horiz-adv-x="1054" d="M195 0l276 1434h731l-28 -160h-558l-90 -463h512l-32 -160h-512l-95 -491h557l-30 -160h-731zM797 1569l164 338h192l-235 -338h-121z" />
<glyph unicode="&#xca;" horiz-adv-x="1054" d="M195 0l276 1434h731l-28 -160h-558l-90 -463h512l-32 -160h-512l-95 -491h557l-30 -160h-731zM547 1569l297 338h160l165 -338h-120l-144 188l-217 -188h-141z" />
<glyph unicode="&#xcb;" horiz-adv-x="1054" d="M195 0l276 1434h731l-28 -160h-558l-90 -463h512l-32 -160h-512l-95 -491h557l-30 -160h-731zM596 1606l41 206h201l-41 -206h-201zM950 1606l41 206h201l-41 -206h-201z" />
<glyph unicode="&#xcc;" horiz-adv-x="563" d="M195 0l276 1434h174l-276 -1434h-174zM453 1907h178l47 -338h-121z" />
<glyph unicode="&#xcd;" horiz-adv-x="563" d="M195 0l276 1434h174l-276 -1434h-174zM473 1569l164 338h192l-235 -338h-121z" />
<glyph unicode="&#xce;" horiz-adv-x="563" d="M195 0l276 1434h174l-276 -1434h-174zM279 1569l296 338h160l166 -338h-121l-143 188l-217 -188h-141z" />
<glyph unicode="&#xcf;" horiz-adv-x="563" d="M195 0l276 1434h174l-276 -1434h-174zM315 1606l41 206h201l-41 -206h-201zM670 1606l41 206h200l-41 -206h-200z" />
<glyph unicode="&#xd0;" horiz-adv-x="1302" d="M195 0l129 668h-127l28 141h125l121 625h424q205 0 321.5 -127t116.5 -375q0 -273 -85 -485t-239.5 -329.5t-355.5 -117.5h-458zM399 160h238q243 0 378.5 201.5t135.5 537.5q0 77 -15 141t-47.5 118.5t-92 85t-142.5 30.5h-238l-90 -465h344l-28 -141h-344z" />
<glyph unicode="&#xd1;" horiz-adv-x="1366" d="M195 0l276 1434h133l463 -1078h10l207 1078h164l-277 -1434h-151l-447 1059h-10l-205 -1059h-163zM674 1645q41 85 102.5 139.5t132.5 54.5q51 0 97.5 -26.5t84 -53t66.5 -26.5q25 0 47 15t34.5 32t29.5 45l106 -45q-44 -96 -107 -145.5t-130 -49.5q-40 0 -78 16.5 t-62 37t-52 37t-52 16.5q-65 0 -113 -93z" />
<glyph unicode="&#xd2;" horiz-adv-x="1236" d="M236 477l92 479q45 235 182.5 364.5t380.5 129.5q236 0 333.5 -132t53.5 -362l-92 -479q-94 -493 -565 -493q-226 0 -327 133t-58 360zM414 498q-34 -172 20.5 -260t214.5 -88t246.5 87.5t120.5 260.5l86 438q34 172 -20 260t-214 88t-247 -87.5t-121 -260.5zM768 1907 h178l47 -338h-121z" />
<glyph unicode="&#xd3;" horiz-adv-x="1236" d="M236 477l92 479q45 235 182.5 364.5t380.5 129.5q236 0 333.5 -132t53.5 -362l-92 -479q-94 -493 -565 -493q-226 0 -327 133t-58 360zM414 498q-34 -172 20.5 -260t214.5 -88t246.5 87.5t120.5 260.5l86 438q34 172 -20 260t-214 88t-247 -87.5t-121 -260.5zM858 1569 l164 338h192l-235 -338h-121z" />
<glyph unicode="&#xd4;" horiz-adv-x="1236" d="M236 477l92 479q45 235 182.5 364.5t380.5 129.5q236 0 333.5 -132t53.5 -362l-92 -479q-94 -493 -565 -493q-226 0 -327 133t-58 360zM414 498q-34 -172 20.5 -260t214.5 -88t246.5 87.5t120.5 260.5l86 438q34 172 -20 260t-214 88t-247 -87.5t-121 -260.5zM616 1569 l297 338h160l166 -338h-121l-143 188l-217 -188h-142z" />
<glyph unicode="&#xd5;" horiz-adv-x="1236" d="M236 477l92 479q45 235 182.5 364.5t380.5 129.5q236 0 333.5 -132t53.5 -362l-92 -479q-94 -493 -565 -493q-226 0 -327 133t-58 360zM414 498q-34 -172 20.5 -260t214.5 -88t246.5 87.5t120.5 260.5l86 438q34 172 -20 260t-214 88t-247 -87.5t-121 -260.5zM606 1645 q41 85 103 139.5t133 54.5q51 0 97.5 -26.5t84 -53t66.5 -26.5q25 0 47 15t34 31.5t29 45.5l107 -45q-44 -96 -107.5 -145.5t-130.5 -49.5q-40 0 -78 16.5t-62 37t-52 37t-52 16.5q-64 0 -112 -93z" />
<glyph unicode="&#xd6;" horiz-adv-x="1236" d="M236 477l92 479q45 235 182.5 364.5t380.5 129.5q236 0 333.5 -132t53.5 -362l-92 -479q-94 -493 -565 -493q-226 0 -327 133t-58 360zM414 498q-34 -172 20.5 -260t214.5 -88t246.5 87.5t120.5 260.5l86 438q34 172 -20 260t-214 88t-247 -87.5t-121 -260.5zM657 1606 l41 206h201l-41 -206h-201zM1012 1606l41 206h200l-41 -206h-200z" />
<glyph unicode="&#xd7;" horiz-adv-x="983" d="M150 319l350 291l-228 285l117 96l227 -282l351 290l94 -104l-354 -297l233 -287l-119 -98l-231 287l-344 -287z" />
<glyph unicode="&#xd8;" horiz-adv-x="1236" d="M213 -74l98 168q-125 134 -75 383l92 479q45 235 182.5 364.5t380.5 129.5q119 0 207 -37l57 94h137l-94 -159q131 -131 80 -392l-92 -479q-94 -493 -565 -493q-126 0 -213 41l-58 -99h-137zM414 498q-28 -148 4 -228l590 990q-56 24 -140 24q-160 0 -247 -87.5 t-121 -260.5zM500 178q55 -28 149 -28q160 0 246.5 87.5t120.5 260.5l86 438q29 159 -8 238z" />
<glyph unicode="&#xd9;" horiz-adv-x="1323" d="M283 451l190 983h174l-186 -963q-17 -98 -8 -169t68 -111.5t171 -40.5q163 0 244 82t111 239l186 963h174l-190 -983q-44 -231 -173 -349t-364 -118q-232 0 -336 121.5t-61 345.5zM840 1907h178l47 -338h-121z" />
<glyph unicode="&#xda;" horiz-adv-x="1323" d="M283 451l190 983h174l-186 -963q-17 -98 -8 -169t68 -111.5t171 -40.5q163 0 244 82t111 239l186 963h174l-190 -983q-44 -231 -173 -349t-364 -118q-232 0 -336 121.5t-61 345.5zM903 1569l164 338h193l-236 -338h-121z" />
<glyph unicode="&#xdb;" horiz-adv-x="1323" d="M283 451l190 983h174l-186 -963q-17 -98 -8 -169t68 -111.5t171 -40.5q163 0 244 82t111 239l186 963h174l-190 -983q-44 -231 -173 -349t-364 -118q-232 0 -336 121.5t-61 345.5zM664 1569l297 338h159l166 -338h-121l-143 188l-217 -188h-141z" />
<glyph unicode="&#xdc;" horiz-adv-x="1323" d="M283 451l190 983h174l-186 -963q-17 -98 -8 -169t68 -111.5t171 -40.5q163 0 244 82t111 239l186 963h174l-190 -983q-44 -231 -173 -349t-364 -118q-232 0 -336 121.5t-61 345.5zM700 1606l41 206h201l-41 -206h-201zM1055 1606l41 206h200l-41 -206h-200z" />
<glyph unicode="&#xdd;" horiz-adv-x="1153" d="M334 1434h184l180 -721h11l458 721h209l-610 -902l-102 -532h-175l103 532zM793 1569l163 338h193l-236 -338h-120z" />
<glyph unicode="&#xde;" horiz-adv-x="1179" d="M195 0l276 1434h174l-39 -209h213q198 0 307 -82.5t109 -249.5q0 -289 -144.5 -433.5t-406.5 -144.5h-256l-59 -315h-174zM461 475h235q99 0 169.5 28t111.5 81t59.5 122t18.5 160q0 108 -65 153.5t-210 45.5h-207z" />
<glyph unicode="&#xdf;" horiz-adv-x="1224" d="M84 -414l301 1557q36 189 164.5 297t339.5 108q169 0 268.5 -79.5t99.5 -208.5q0 -70 -17 -126t-48.5 -95t-65 -65t-77.5 -48q85 -30 128.5 -107t20.5 -198l-41 -213q-18 -94 -53 -165t-95.5 -127.5t-155 -86t-220.5 -29.5h-191l31 152h191q157 0 232 70.5t99 199.5 l31 166q25 136 -39.5 196t-212.5 60h-96l31 151h96q287 0 287 240q0 76 -57 119t-175 43q-129 0 -208 -68t-99 -170l-305 -1573h-164z" />
<glyph unicode="&#xe0;" horiz-adv-x="1103" d="M190 410l60 307q40 208 155 317t297 109q178 0 261 -125l57 108h127l-158 -815q-7 -38 -10 -56.5t-5.5 -44t1 -37.5t11.5 -24.5t23 -17t38 -4.5q31 0 55 8l14 -115q-21 -12 -63 -22t-78 -10q-129 0 -168 112q-72 -61 -141.5 -88.5t-171.5 -27.5q-178 0 -260 113t-44 313z M356 422q-28 -148 16 -217.5t175 -69.5q76 0 146.5 36t121.5 85l121 627q-31 45 -88 76.5t-137 31.5q-131 0 -201 -69t-98 -217zM641 1599h178l47 -337h-121z" />
<glyph unicode="&#xe1;" horiz-adv-x="1103" d="M190 410l60 307q40 208 155 317t297 109q178 0 261 -125l57 108h127l-158 -815q-7 -38 -10 -56.5t-5.5 -44t1 -37.5t11.5 -24.5t23 -17t38 -4.5q31 0 55 8l14 -115q-21 -12 -63 -22t-78 -10q-129 0 -168 112q-72 -61 -141.5 -88.5t-171.5 -27.5q-178 0 -260 113t-44 313z M356 422q-28 -148 16 -217.5t175 -69.5q76 0 146.5 36t121.5 85l121 627q-31 45 -88 76.5t-137 31.5q-131 0 -201 -69t-98 -217zM690 1262l164 337h193l-236 -337h-121z" />
<glyph unicode="&#xe2;" horiz-adv-x="1103" d="M190 410l60 307q40 208 155 317t297 109q178 0 261 -125l57 108h127l-158 -815q-7 -38 -10 -56.5t-5.5 -44t1 -37.5t11.5 -24.5t23 -17t38 -4.5q31 0 55 8l14 -115q-21 -12 -63 -22t-78 -10q-129 0 -168 112q-72 -61 -141.5 -88.5t-171.5 -27.5q-178 0 -260 113t-44 313z M356 422q-28 -148 16 -217.5t175 -69.5q76 0 146.5 36t121.5 85l121 627q-31 45 -88 76.5t-137 31.5q-131 0 -201 -69t-98 -217zM469 1262l297 337h160l166 -337h-121l-144 188l-217 -188h-141z" />
<glyph unicode="&#xe3;" horiz-adv-x="1103" d="M190 410l60 307q40 208 155 317t297 109q178 0 261 -125l57 108h127l-158 -815q-7 -38 -10 -56.5t-5.5 -44t1 -37.5t11.5 -24.5t23 -17t38 -4.5q31 0 55 8l14 -115q-21 -12 -63 -22t-78 -10q-129 0 -168 112q-72 -61 -141.5 -88.5t-171.5 -27.5q-178 0 -260 113t-44 313z M356 422q-28 -148 16 -217.5t175 -69.5q76 0 146.5 36t121.5 85l121 627q-31 45 -88 76.5t-137 31.5q-131 0 -201 -69t-98 -217zM455 1337q41 86 102.5 140.5t132.5 54.5q40 0 78.5 -16.5t63 -37t53.5 -37t53 -16.5q25 0 47 15.5t34.5 32t29.5 45.5l106 -45 q-44 -96 -107 -145.5t-130 -49.5q-40 0 -78 16.5t-62 36.5t-52 36.5t-52 16.5q-66 0 -113 -92z" />
<glyph unicode="&#xe4;" horiz-adv-x="1103" d="M190 410l60 307q40 208 155 317t297 109q178 0 261 -125l57 108h127l-158 -815q-7 -38 -10 -56.5t-5.5 -44t1 -37.5t11.5 -24.5t23 -17t38 -4.5q31 0 55 8l14 -115q-21 -12 -63 -22t-78 -10q-129 0 -168 112q-72 -61 -141.5 -88.5t-171.5 -27.5q-178 0 -260 113t-44 313z M356 422q-28 -148 16 -217.5t175 -69.5q76 0 146.5 36t121.5 85l121 627q-31 45 -88 76.5t-137 31.5q-131 0 -201 -69t-98 -217zM506 1298l41 207h201l-41 -207h-201zM860 1298l41 207h201l-41 -207h-201z" />
<glyph unicode="&#xe5;" horiz-adv-x="1103" d="M190 410l60 307q40 208 155 317t297 109q178 0 261 -125l57 108h127l-158 -815q-7 -38 -10 -56.5t-5.5 -44t1 -37.5t11.5 -24.5t23 -17t38 -4.5q31 0 55 8l14 -115q-21 -12 -63 -22t-78 -10q-129 0 -168 112q-72 -61 -141.5 -88.5t-171.5 -27.5q-178 0 -260 113t-44 313z M356 422q-28 -148 16 -217.5t175 -69.5q76 0 146.5 36t121.5 85l121 627q-31 45 -88 76.5t-137 31.5q-131 0 -201 -69t-98 -217zM600 1395q0 109 68 175t178 66q79 0 127.5 -44t48.5 -119q0 -112 -66.5 -177t-177.5 -65q-80 0 -129 43.5t-49 120.5zM707 1413q0 -37 23 -58.5 t63 -21.5q56 0 90.5 33.5t34.5 87.5q0 37 -23.5 58.5t-63.5 21.5q-55 0 -89.5 -33.5t-34.5 -87.5z" />
<glyph unicode="&#xe6;" horiz-adv-x="1652" d="M162 256q0 79 25 146t67.5 115t102 86t123.5 61.5t137.5 39t140 21.5t133.5 6l12 68q16 89 -31 140.5t-167 51.5q-129 0 -314 -76l-41 136q189 92 383 92q118 0 188.5 -35t112.5 -104q132 139 338 139q202 0 278.5 -110.5t37.5 -315.5l-41 -211h-635l-33 -168 q-19 -90 30.5 -146.5t178.5 -56.5q137 0 299 96l57 -125q-71 -55 -178.5 -88.5t-208.5 -33.5q-254 0 -317 161q-74 -77 -162.5 -119t-216.5 -42q-139 0 -219 77t-80 195zM328 272q0 -73 50.5 -114t129.5 -41q91 0 178 52.5t121 113.5l61 317q-77 0 -148.5 -9t-144.5 -32.5 t-126.5 -59.5t-87 -94.5t-33.5 -132.5zM1038 641h475l13 64q28 147 -14 216.5t-169 69.5t-195.5 -69t-96.5 -217z" />
<glyph unicode="&#xe7;" horiz-adv-x="921" d="M190 410l62 307q43 218 157 322t320 104q122 0 208 -53t124 -144l-133 -84q-22 56 -78 92.5t-137 36.5q-132 0 -201.5 -69t-97.5 -217l-56 -283q-28 -147 15.5 -217t169.5 -70q153 0 258 119l106 -90q-71 -85 -154 -130.5t-212 -49.5l-45 -95q32 7 63 7q59 0 97 -33.5 t38 -93.5q0 -110 -67.5 -154.5t-182.5 -44.5q-100 0 -180 39l53 94q73 -25 140 -25q64 0 86 17t22 53q0 47 -69 47q-41 0 -84 -14l-33 43l55 166q-154 23 -216 133t-28 287z" />
<glyph unicode="&#xe8;" horiz-adv-x="1013" d="M184 373l66 344q80 426 483 426q201 0 278.5 -113t37.5 -313l-41 -211h-635l-31 -168q-16 -93 33 -148t174 -55q137 0 299 96l57 -125q-72 -55 -177.5 -88.5t-205.5 -33.5q-203 0 -288.5 101.5t-49.5 287.5zM401 641h476l12 64q29 143 -13.5 214.5t-168.5 71.5 q-127 0 -196 -69.5t-97 -216.5zM633 1599h178l47 -337h-121z" />
<glyph unicode="&#xe9;" horiz-adv-x="1013" d="M184 373l66 344q80 426 483 426q201 0 278.5 -113t37.5 -313l-41 -211h-635l-31 -168q-16 -93 33 -148t174 -55q137 0 299 96l57 -125q-72 -55 -177.5 -88.5t-205.5 -33.5q-203 0 -288.5 101.5t-49.5 287.5zM401 641h476l12 64q29 143 -13.5 214.5t-168.5 71.5 q-127 0 -196 -69.5t-97 -216.5zM670 1262l164 337h192l-235 -337h-121z" />
<glyph unicode="&#xea;" horiz-adv-x="1013" d="M184 373l66 344q80 426 483 426q201 0 278.5 -113t37.5 -313l-41 -211h-635l-31 -168q-16 -93 33 -148t174 -55q137 0 299 96l57 -125q-72 -55 -177.5 -88.5t-205.5 -33.5q-203 0 -288.5 101.5t-49.5 287.5zM401 641h476l12 64q29 143 -13.5 214.5t-168.5 71.5 q-127 0 -196 -69.5t-97 -216.5zM449 1262l296 337h160l166 -337h-121l-143 188l-217 -188h-141z" />
<glyph unicode="&#xeb;" horiz-adv-x="1013" d="M184 373l66 344q80 426 483 426q201 0 278.5 -113t37.5 -313l-41 -211h-635l-31 -168q-16 -93 33 -148t174 -55q137 0 299 96l57 -125q-72 -55 -177.5 -88.5t-205.5 -33.5q-203 0 -288.5 101.5t-49.5 287.5zM401 641h476l12 64q29 143 -13.5 214.5t-168.5 71.5 q-127 0 -196 -69.5t-97 -216.5zM492 1298l40 207h201l-41 -207h-200zM846 1298l41 207h200l-40 -207h-201z" />
<glyph unicode="&#xec;" horiz-adv-x="663" d="M262 983l27 143h352l-158 -809q-22 -91 -11 -135.5t75 -44.5q31 0 65 6v-133q-14 -9 -51.5 -15.5t-64.5 -6.5q-104 0 -158.5 62t-28.5 198l142 735h-189zM406 1599h178l47 -337h-121z" />
<glyph unicode="&#xed;" horiz-adv-x="663" d="M262 983l27 143h352l-158 -809q-22 -91 -11 -135.5t75 -44.5q31 0 65 6v-133q-14 -9 -51.5 -15.5t-64.5 -6.5q-104 0 -158.5 62t-28.5 198l142 735h-189zM489 1262l164 337h193l-236 -337h-121z" />
<glyph unicode="&#xee;" horiz-adv-x="663" d="M238 1262l297 337h159l166 -337h-121l-143 188l-217 -188h-141zM262 983l27 143h352l-158 -809q-22 -91 -11 -135.5t75 -44.5q31 0 65 6v-133q-14 -9 -51.5 -15.5t-64.5 -6.5q-104 0 -158.5 62t-28.5 198l142 735h-189z" />
<glyph unicode="&#xef;" horiz-adv-x="663" d="M262 983l27 143h352l-158 -809q-22 -91 -11 -135.5t75 -44.5q31 0 65 6v-133q-14 -9 -51.5 -15.5t-64.5 -6.5q-104 0 -158.5 62t-28.5 198l142 735h-189zM266 1298l41 207h201l-41 -207h-201zM621 1298l41 207h200l-41 -207h-200z" />
<glyph unicode="&#xf0;" horiz-adv-x="1044" d="M188 389l41 217q36 194 157.5 300t328.5 106q152 0 239 -74q32 184 -36 279l-156 -132l-76 91l131 112q-53 17 -112 17q-80 0 -187 -31l-14 125q107 51 231 51q133 0 219 -47l150 129l78 -92l-133 -113q113 -145 57 -428l-100 -510q-39 -196 -162 -300.5t-326 -104.5 q-198 0 -282 106.5t-48 298.5zM354 401q-26 -137 21 -201.5t174 -64.5t199 64.5t98 201.5l37 193q26 137 -20.5 201.5t-174.5 64.5q-127 0 -199 -64.5t-98 -201.5z" />
<glyph unicode="&#xf1;" horiz-adv-x="1136" d="M164 0l217 1126h131l-8 -139q38 34 81.5 64t122.5 61t154 31q87 0 148.5 -30t90.5 -82.5t38 -122.5t-9 -150l-147 -758h-164l139 719q27 140 -19 201t-161 61q-125 0 -282 -119l-168 -862h-164zM483 1337q41 86 103 140.5t133 54.5q40 0 78.5 -16.5t63 -37t53.5 -37 t53 -16.5q25 0 47 15.5t33.5 32t29.5 45.5l107 -45q-44 -96 -107.5 -145.5t-130.5 -49.5q-40 0 -78 16.5t-62 36.5t-52 36.5t-52 16.5q-65 0 -112 -92z" />
<glyph unicode="&#xf2;" horiz-adv-x="1044" d="M190 410l62 307q20 102 55 177.5t91.5 133t141 86.5t195.5 29q210 0 293.5 -110.5t42.5 -315.5l-61 -307q-21 -105 -55.5 -180.5t-91 -132.5t-140.5 -85t-197 -28q-205 0 -289.5 112.5t-46.5 313.5zM358 422q-28 -148 15.5 -217.5t175.5 -69.5t202.5 69.5t98.5 217.5 l55 283q28 148 -16 217t-176 69t-201.5 -69t-97.5 -217zM635 1599h178l47 -337h-121z" />
<glyph unicode="&#xf3;" horiz-adv-x="1044" d="M190 410l62 307q20 102 55 177.5t91.5 133t141 86.5t195.5 29q210 0 293.5 -110.5t42.5 -315.5l-61 -307q-21 -105 -55.5 -180.5t-91 -132.5t-140.5 -85t-197 -28q-205 0 -289.5 112.5t-46.5 313.5zM358 422q-28 -148 15.5 -217.5t175.5 -69.5t202.5 69.5t98.5 217.5 l55 283q28 148 -16 217t-176 69t-201.5 -69t-97.5 -217zM688 1262l164 337h192l-235 -337h-121z" />
<glyph unicode="&#xf4;" horiz-adv-x="1044" d="M190 410l62 307q20 102 55 177.5t91.5 133t141 86.5t195.5 29q210 0 293.5 -110.5t42.5 -315.5l-61 -307q-21 -105 -55.5 -180.5t-91 -132.5t-140.5 -85t-197 -28q-205 0 -289.5 112.5t-46.5 313.5zM358 422q-28 -148 15.5 -217.5t175.5 -69.5t202.5 69.5t98.5 217.5 l55 283q28 148 -16 217t-176 69t-201.5 -69t-97.5 -217zM461 1262l297 337h160l165 -337h-120l-144 188l-217 -188h-141z" />
<glyph unicode="&#xf5;" horiz-adv-x="1044" d="M190 410l62 307q20 102 55 177.5t91.5 133t141 86.5t195.5 29q210 0 293.5 -110.5t42.5 -315.5l-61 -307q-21 -105 -55.5 -180.5t-91 -132.5t-140.5 -85t-197 -28q-205 0 -289.5 112.5t-46.5 313.5zM358 422q-28 -148 15.5 -217.5t175.5 -69.5t202.5 69.5t98.5 217.5 l55 283q28 148 -16 217t-176 69t-201.5 -69t-97.5 -217zM449 1337q41 86 102.5 140.5t132.5 54.5q40 0 78.5 -16.5t63 -37t53.5 -37t53 -16.5q25 0 47 15.5t33.5 32t29.5 45.5l107 -45q-44 -96 -107.5 -145.5t-130.5 -49.5q-40 0 -78 16.5t-61.5 36.5t-51.5 36.5t-52 16.5 q-66 0 -113 -92z" />
<glyph unicode="&#xf6;" horiz-adv-x="1044" d="M190 410l62 307q20 102 55 177.5t91.5 133t141 86.5t195.5 29q210 0 293.5 -110.5t42.5 -315.5l-61 -307q-21 -105 -55.5 -180.5t-91 -132.5t-140.5 -85t-197 -28q-205 0 -289.5 112.5t-46.5 313.5zM358 422q-28 -148 15.5 -217.5t175.5 -69.5t202.5 69.5t98.5 217.5 l55 283q28 148 -16 217t-176 69t-201.5 -69t-97.5 -217zM502 1298l41 207h200l-41 -207h-200zM856 1298l41 207h201l-41 -207h-201z" />
<glyph unicode="&#xf7;" horiz-adv-x="980" d="M123 532l29 148h940l-29 -148h-940zM410 256q0 68 40 113t119 45q56 0 82.5 -27.5t26.5 -73.5q0 -70 -39 -113.5t-119 -43.5q-110 0 -110 100zM535 901q0 68 39.5 113t119.5 45q56 0 82.5 -27.5t26.5 -73.5q0 -70 -39 -113.5t-119 -43.5q-110 0 -110 100z" />
<glyph unicode="&#xf8;" horiz-adv-x="1044" d="M186 -74l82 137q-123 108 -78 347l62 307q20 102 55 177.5t91.5 133t141 86.5t195.5 29q88 0 162 -23l49 80h127l-80 -133q125 -105 78 -350l-61 -307q-21 -105 -55.5 -180.5t-91 -132.5t-140.5 -85t-197 -28q-87 0 -164 24l-49 -82h-127zM358 422q-25 -132 4 -199 l451 754q-41 14 -100 14q-132 0 -201.5 -69t-97.5 -217zM446 150q40 -15 103 -15q132 0 202.5 69.5t98.5 217.5l55 283q25 139 -8 202z" />
<glyph unicode="&#xf9;" horiz-adv-x="1126" d="M224.5 174q-20.5 85 0.5 195l146 757h164l-140 -718q-27 -140 18 -201.5t154 -61.5q79 0 157 35t136 84l168 862h164l-219 -1126h-131l10 139q-31 -28 -55.5 -46.5t-71.5 -48t-103 -45t-116 -15.5q-118 0 -189.5 52.5t-92 137.5zM649 1599h178l47 -337h-120z" />
<glyph unicode="&#xfa;" horiz-adv-x="1126" d="M224.5 174q-20.5 85 0.5 195l146 757h164l-140 -718q-27 -140 18 -201.5t154 -61.5q79 0 157 35t136 84l168 862h164l-219 -1126h-131l10 139q-31 -28 -55.5 -46.5t-71.5 -48t-103 -45t-116 -15.5q-118 0 -189.5 52.5t-92 137.5zM745 1262l164 337h193l-236 -337h-121z " />
<glyph unicode="&#xfb;" horiz-adv-x="1126" d="M224.5 174q-20.5 85 0.5 195l146 757h164l-140 -718q-27 -140 18 -201.5t154 -61.5q79 0 157 35t136 84l168 862h164l-219 -1126h-131l10 139q-31 -28 -55.5 -46.5t-71.5 -48t-103 -45t-116 -15.5q-118 0 -189.5 52.5t-92 137.5zM508 1262l297 337h160l165 -337h-120 l-144 188l-217 -188h-141z" />
<glyph unicode="&#xfc;" horiz-adv-x="1126" d="M224.5 174q-20.5 85 0.5 195l146 757h164l-140 -718q-27 -140 18 -201.5t154 -61.5q79 0 157 35t136 84l168 862h164l-219 -1126h-131l10 139q-31 -28 -55.5 -46.5t-71.5 -48t-103 -45t-116 -15.5q-118 0 -189.5 52.5t-92 137.5zM551 1298l41 207h201l-41 -207h-201z M905 1298l41 207h201l-41 -207h-201z" />
<glyph unicode="&#xfd;" horiz-adv-x="1118" d="M156 -346l73 127q136 -64 275 -64q127 0 201.5 80t109.5 240l23 102q-146 -155 -351 -155q-71 0 -125.5 20.5t-87.5 56t-52.5 84.5t-20 105.5t9.5 118.5l147 757h164l-139 -718q-27 -140 19 -201.5t161 -61.5q143 0 285 127l166 854h164l-201 -1093q-83 -463 -502 -463 q-88 0 -175 25t-144 59zM723 1262l164 337h192l-235 -337h-121z" />
<glyph unicode="&#xfe;" horiz-adv-x="1095" d="M84 -414l377 1950h164l-101 -514q57 49 139 85t168 36q173 0 251 -113t40 -313l-59 -307q-42 -224 -147.5 -325t-290.5 -101q-89 0 -164 37.5t-113 87.5l-100 -523h-164zM375 244q28 -44 87 -76.5t136 -32.5q131 0 203 70t100 217l53 283q28 145 -18.5 215.5t-169.5 70.5 q-134 0 -268 -108z" />
<glyph unicode="&#xff;" horiz-adv-x="1118" d="M156 -346l73 127q136 -64 275 -64q127 0 201.5 80t109.5 240l23 102q-146 -155 -351 -155q-71 0 -125.5 20.5t-87.5 56t-52.5 84.5t-20 105.5t9.5 118.5l147 757h164l-139 -718q-27 -140 19 -201.5t161 -61.5q143 0 285 127l166 854h164l-201 -1093q-83 -463 -502 -463 q-88 0 -175 25t-144 59zM522 1298l41 207h201l-41 -207h-201zM877 1298l41 207h200l-41 -207h-200z" />
<glyph unicode="&#x100;" horiz-adv-x="1220" d="M57 0l746 1434h160l198 -1434h-184l-43 356h-504l-182 -356h-191zM502 518h420l-82 647h-9zM678 1675l27 142h522l-27 -142h-522z" />
<glyph unicode="&#x101;" horiz-adv-x="1103" d="M190 410l60 307q40 208 155 317t297 109q178 0 261 -125l57 108h127l-158 -815q-7 -38 -10 -56.5t-5.5 -44t1 -37.5t11.5 -24.5t23 -17t38 -4.5q31 0 55 8l14 -115q-21 -12 -63 -22t-78 -10q-129 0 -168 112q-72 -61 -141.5 -88.5t-171.5 -27.5q-178 0 -260 113t-44 313z M356 422q-28 -148 16 -217.5t175 -69.5q76 0 146.5 36t121.5 85l121 627q-31 45 -88 76.5t-137 31.5q-131 0 -201 -69t-98 -217zM549 1368l26 141h523l-27 -141h-522z" />
<glyph unicode="&#x102;" horiz-adv-x="1220" d="M57 0l746 1434h160l198 -1434h-184l-43 356h-504l-182 -356h-191zM502 518h420l-82 647h-9zM680 1721q-14 55 0 130l6 31h125l-4 -24q-14 -84 17.5 -121t115.5 -37q93 0 137 37t58 121l4 24h129l-6 -31q-29 -152 -107.5 -214t-224.5 -62q-62 0 -111.5 14.5t-87 45.5 t-51.5 86z" />
<glyph unicode="&#x103;" horiz-adv-x="1103" d="M190 410l60 307q40 208 155 317t297 109q178 0 261 -125l57 108h127l-158 -815q-7 -38 -10 -56.5t-5.5 -44t1 -37.5t11.5 -24.5t23 -17t38 -4.5q31 0 55 8l14 -115q-21 -12 -63 -22t-78 -10q-129 0 -168 112q-72 -61 -141.5 -88.5t-171.5 -27.5q-178 0 -260 113t-44 313z M356 422q-28 -148 16 -217.5t175 -69.5q76 0 146.5 36t121.5 85l121 627q-31 45 -88 76.5t-137 31.5q-131 0 -201 -69t-98 -217zM549 1414q-14 55 0 130l6 31h125l-4 -25q-14 -83 17 -120t116 -37q93 0 137 36.5t58 120.5l4 25h129l-7 -31q-29 -152 -107 -214t-224 -62 q-62 0 -111.5 14.5t-87 45.5t-51.5 86z" />
<glyph unicode="&#x104;" horiz-adv-x="1220" d="M57 0l746 1434h160l198 -1434q-100 -41 -174 -116t-74 -136q0 -28 17.5 -43.5t46.5 -15.5q43 0 98 22l8 -94q-76 -47 -168 -47q-75 0 -116 41t-41 104q0 93 73 169.5t183 115.5h-37l-43 356h-504l-182 -356h-191zM502 518h420l-82 647h-9z" />
<glyph unicode="&#x105;" horiz-adv-x="1103" d="M190 410l60 307q40 208 155 317t297 109q178 0 261 -125l57 108h127l-158 -815q-7 -38 -10 -56.5t-5.5 -44t1 -37.5t11.5 -24.5t23 -17t38 -4.5q31 0 55 8l14 -115q-51 -20 -99.5 -46t-97.5 -61t-78.5 -78t-29.5 -87q0 -28 17 -43.5t46 -15.5q44 0 99 22l8 -94 q-76 -47 -168 -47q-75 0 -116.5 41t-41.5 104q0 92 71 168t179 115q-74 22 -98 102q-72 -61 -141.5 -88.5t-171.5 -27.5q-178 0 -260 113t-44 313zM356 422q-28 -148 16 -217.5t175 -69.5q76 0 146.5 36t121.5 85l121 627q-31 45 -88 76.5t-137 31.5q-131 0 -201 -69 t-98 -217z" />
<glyph unicode="&#x106;" horiz-adv-x="1095" d="M236 477l92 479q94 494 563 494q143 0 243.5 -68t131.5 -202l-154 -72q-17 56 -42.5 92.5t-76 60t-125.5 23.5q-159 0 -246.5 -88t-121.5 -260l-86 -438q-33 -172 21.5 -260t213.5 -88q177 0 303 180l135 -76q-155 -270 -471 -270q-228 0 -326 132.5t-54 360.5zM815 1569 l164 338h192l-235 -338h-121z" />
<glyph unicode="&#x107;" horiz-adv-x="921" d="M190 410l62 307q43 218 157 322t320 104q122 0 208 -53t124 -144l-133 -84q-22 56 -78 92.5t-137 36.5q-132 0 -201.5 -69t-97.5 -217l-56 -283q-28 -147 15.5 -217t169.5 -70q153 0 258 119l106 -90q-73 -88 -161 -134t-228 -46q-198 0 -282.5 113.5t-45.5 312.5z M678 1262l164 337h192l-235 -337h-121z" />
<glyph unicode="&#x108;" horiz-adv-x="1095" d="M236 477l92 479q94 494 563 494q143 0 243.5 -68t131.5 -202l-154 -72q-17 56 -42.5 92.5t-76 60t-125.5 23.5q-159 0 -246.5 -88t-121.5 -260l-86 -438q-33 -172 21.5 -260t213.5 -88q177 0 303 180l135 -76q-155 -270 -471 -270q-228 0 -326 132.5t-54 360.5zM612 1569 l297 338h160l166 -338h-121l-143 188l-217 -188h-142z" />
<glyph unicode="&#x109;" horiz-adv-x="921" d="M190 410l62 307q43 218 157 322t320 104q122 0 208 -53t124 -144l-133 -84q-22 56 -78 92.5t-137 36.5q-132 0 -201.5 -69t-97.5 -217l-56 -283q-28 -147 15.5 -217t169.5 -70q153 0 258 119l106 -90q-73 -88 -161 -134t-228 -46q-198 0 -282.5 113.5t-45.5 312.5z M467 1262l297 337h160l166 -337h-121l-144 188l-217 -188h-141z" />
<glyph unicode="&#x10a;" horiz-adv-x="1095" d="M236 477l92 479q94 494 563 494q143 0 243.5 -68t131.5 -202l-154 -72q-17 56 -42.5 92.5t-76 60t-125.5 23.5q-159 0 -246.5 -88t-121.5 -260l-86 -438q-33 -172 21.5 -260t213.5 -88q177 0 303 180l135 -76q-155 -270 -471 -270q-228 0 -326 132.5t-54 360.5zM842 1602 l41 208h182l-41 -208h-182z" />
<glyph unicode="&#x10b;" horiz-adv-x="921" d="M190 410l62 307q43 218 157 322t320 104q122 0 208 -53t124 -144l-133 -84q-22 56 -78 92.5t-137 36.5q-132 0 -201.5 -69t-97.5 -217l-56 -283q-28 -147 15.5 -217t169.5 -70q153 0 258 119l106 -90q-73 -88 -161 -134t-228 -46q-198 0 -282.5 113.5t-45.5 312.5z M686 1294l41 209h182l-41 -209h-182z" />
<glyph unicode="&#x10c;" horiz-adv-x="1095" d="M236 477l92 479q94 494 563 494q143 0 243.5 -68t131.5 -202l-154 -72q-17 56 -42.5 92.5t-76 60t-125.5 23.5q-159 0 -246.5 -88t-121.5 -260l-86 -438q-33 -172 21.5 -260t213.5 -88q177 0 303 180l135 -76q-155 -270 -471 -270q-228 0 -326 132.5t-54 360.5zM684 1907 h121l147 -189l213 189h142l-297 -338h-160z" />
<glyph unicode="&#x10d;" horiz-adv-x="921" d="M190 410l62 307q43 218 157 322t320 104q122 0 208 -53t124 -144l-133 -84q-22 56 -78 92.5t-137 36.5q-132 0 -201.5 -69t-97.5 -217l-56 -283q-28 -147 15.5 -217t169.5 -70q153 0 258 119l106 -90q-73 -88 -161 -134t-228 -46q-198 0 -282.5 113.5t-45.5 312.5z M522 1599h121l148 -188l213 188h141l-297 -337h-160z" />
<glyph unicode="&#x10e;" horiz-adv-x="1302" d="M195 0l276 1434h424q205 0 321.5 -127t116.5 -375q0 -273 -85 -485t-239.5 -329.5t-355.5 -117.5h-458zM399 160h238q243 0 378.5 201.5t135.5 537.5q0 77 -15 141t-47.5 118.5t-92 85t-142.5 30.5h-238zM625 1907h120l148 -189l213 189h141l-297 -338h-159z" />
<glyph unicode="&#x10f;" horiz-adv-x="1144" d="M190 410l60 307q40 208 155 317t297 109q178 0 261 -125l100 518h164l-238 -1225q-7 -38 -10 -56.5t-5.5 -44t1 -37.5t11.5 -24.5t23 -17t38 -4.5q31 0 55 8l14 -115q-21 -12 -63 -22t-78 -10q-131 0 -168 112q-72 -61 -141.5 -88.5t-171.5 -27.5q-178 0 -260 113 t-44 313zM356 422q-28 -148 16 -217.5t175 -69.5q77 0 150 36t120 85l119 627q-92 108 -225 108q-131 0 -201 -69t-98 -217zM1227 1198l100 338h176l-166 -338h-110z" />
<glyph unicode="&#x110;" horiz-adv-x="1302" d="M195 0l129 668h-127l28 141h125l121 625h424q205 0 321.5 -127t116.5 -375q0 -273 -85 -485t-239.5 -329.5t-355.5 -117.5h-458zM399 160h238q243 0 378.5 201.5t135.5 537.5q0 77 -15 141t-47.5 118.5t-92 85t-142.5 30.5h-238l-90 -465h344l-28 -141h-344z" />
<glyph unicode="&#x111;" horiz-adv-x="1122" d="M190 410l60 307q40 208 155 317t297 109q178 0 261 -125l43 229h-283l25 142h286l29 147h164l-29 -147h160l-25 -142h-164l-180 -936q-7 -38 -10 -56.5t-5.5 -44t1 -37.5t11.5 -24.5t23 -17t38 -4.5q31 0 55 8l14 -115q-21 -12 -63 -22t-78 -10q-137 0 -158 112h-10 q-72 -61 -141.5 -88.5t-171.5 -27.5q-178 0 -260 113t-44 313zM356 422q-28 -148 16 -217.5t175 -69.5q77 0 150 36t120 85l119 627q-92 108 -225 108q-131 0 -201 -69t-98 -217z" />
<glyph unicode="&#x112;" horiz-adv-x="1054" d="M195 0l276 1434h731l-28 -160h-558l-90 -463h512l-32 -160h-512l-95 -491h557l-30 -160h-731zM641 1675l27 142h522l-27 -142h-522z" />
<glyph unicode="&#x113;" horiz-adv-x="1013" d="M184 373l66 344q80 426 483 426q201 0 278.5 -113t37.5 -313l-41 -211h-635l-31 -168q-16 -93 33 -148t174 -55q137 0 299 96l57 -125q-72 -55 -177.5 -88.5t-205.5 -33.5q-203 0 -288.5 101.5t-49.5 287.5zM401 641h476l12 64q29 143 -13.5 214.5t-168.5 71.5 q-127 0 -196 -69.5t-97 -216.5zM535 1368l26 141h522l-26 -141h-522z" />
<glyph unicode="&#x114;" horiz-adv-x="1054" d="M195 0l276 1434h731l-28 -160h-558l-90 -463h512l-32 -160h-512l-95 -491h557l-30 -160h-731zM639 1721q-14 55 0 130l6 31h125l-4 -24q-14 -84 17.5 -121t115.5 -37q93 0 137 37t58 121l4 24h129l-6 -31q-29 -152 -107 -214t-225 -62q-62 0 -111.5 14.5t-87 45.5 t-51.5 86z" />
<glyph unicode="&#x115;" horiz-adv-x="1013" d="M184 373l66 344q80 426 483 426q201 0 278.5 -113t37.5 -313l-41 -211h-635l-31 -168q-16 -93 33 -148t174 -55q137 0 299 96l57 -125q-72 -55 -177.5 -88.5t-205.5 -33.5q-203 0 -288.5 101.5t-49.5 287.5zM401 641h476l12 64q29 143 -13.5 214.5t-168.5 71.5 q-127 0 -196 -69.5t-97 -216.5zM530 1414q-14 55 0 130l7 31h125l-5 -25q-14 -83 17.5 -120t116.5 -37q93 0 136.5 36.5t57.5 120.5l4 25h129l-6 -31q-29 -152 -107.5 -214t-224.5 -62q-62 0 -111.5 14.5t-87 45.5t-51.5 86z" />
<glyph unicode="&#x116;" horiz-adv-x="1054" d="M195 0l276 1434h731l-28 -160h-558l-90 -463h512l-32 -160h-512l-95 -491h557l-30 -160h-731zM793 1602l41 208h182l-41 -208h-182z" />
<glyph unicode="&#x117;" horiz-adv-x="1013" d="M184 373l66 344q80 426 483 426q201 0 278.5 -113t37.5 -313l-41 -211h-635l-31 -168q-16 -93 33 -148t174 -55q137 0 299 96l57 -125q-72 -55 -177.5 -88.5t-205.5 -33.5q-203 0 -288.5 101.5t-49.5 287.5zM401 641h476l12 64q29 143 -13.5 214.5t-168.5 71.5 q-127 0 -196 -69.5t-97 -216.5zM676 1294l41 209h182l-41 -209h-182z" />
<glyph unicode="&#x118;" horiz-adv-x="1054" d="M195 0l276 1434h731l-28 -160h-558l-90 -463h512l-32 -160h-512l-95 -491h557l-30 -160q-100 -41 -174 -116t-74 -136q0 -28 17 -43.5t46 -15.5q44 0 99 22l8 -94q-76 -47 -168 -47q-75 0 -116.5 41t-41.5 104q0 87 62 164.5t157 120.5h-546z" />
<glyph unicode="&#x119;" horiz-adv-x="1013" d="M184 373l66 344q80 426 483 426q201 0 278.5 -113t37.5 -313l-41 -211h-635l-31 -168q-16 -93 33 -148t174 -55q137 0 299 96l57 -125q-51 -29 -85 -48.5t-92 -60t-93.5 -75.5t-63.5 -82.5t-28 -91.5q0 -28 17 -43.5t46 -15.5q44 0 99 22l8 -94q-76 -47 -168 -47 q-75 0 -116.5 41t-41.5 104q0 143 168 271q-10 -2 -33 -2q-203 0 -288.5 101.5t-49.5 287.5zM401 641h476l12 64q29 143 -13.5 214.5t-168.5 71.5q-127 0 -196 -69.5t-97 -216.5z" />
<glyph unicode="&#x11a;" horiz-adv-x="1054" d="M195 0l276 1434h731l-28 -160h-558l-90 -463h512l-32 -160h-512l-95 -491h557l-30 -160h-731zM633 1907h121l147 -189l213 189h141l-297 -338h-159z" />
<glyph unicode="&#x11b;" horiz-adv-x="1013" d="M184 373l66 344q80 426 483 426q201 0 278.5 -113t37.5 -313l-41 -211h-635l-31 -168q-16 -93 33 -148t174 -55q137 0 299 96l57 -125q-72 -55 -177.5 -88.5t-205.5 -33.5q-203 0 -288.5 101.5t-49.5 287.5zM401 641h476l12 64q29 143 -13.5 214.5t-168.5 71.5 q-127 0 -196 -69.5t-97 -216.5zM518 1599h121l147 -188l213 188h142l-297 -337h-160z" />
<glyph unicode="&#x11c;" horiz-adv-x="1230" d="M236 477l92 479q94 494 571 494q143 0 243.5 -68t131.5 -202l-154 -72q-25 85 -83 130.5t-169 45.5q-159 0 -246.5 -88t-121.5 -260l-86 -438q-33 -172 21.5 -260t213.5 -88q108 0 190 36.5t128 85.5l61 326h-272l32 160h437l-105 -539q-201 -235 -497 -235 q-224 0 -327 133.5t-60 359.5zM621 1569l297 338h159l166 -338h-121l-143 188l-217 -188h-141z" />
<glyph unicode="&#x11d;" horiz-adv-x="1075" d="M121 -346l63 127q142 -64 279 -64q250 0 313 320l15 72q-144 -125 -310 -125q-174 0 -251.5 113t-39.5 313l60 307q81 426 444 426q98 0 166.5 -36.5t106.5 -88.5l55 108h127l-213 -1093q-20 -103 -52.5 -181t-89 -144.5t-146.5 -102t-212 -35.5q-147 0 -315 84zM356 422 q-28 -148 16 -217.5t175 -69.5q128 0 268 109l123 639q-92 108 -225 108q-131 0 -202 -69.5t-99 -216.5zM471 1262l297 337h160l166 -337h-121l-144 188l-217 -188h-141z" />
<glyph unicode="&#x11e;" horiz-adv-x="1230" d="M236 477l92 479q94 494 571 494q143 0 243.5 -68t131.5 -202l-154 -72q-25 85 -83 130.5t-169 45.5q-159 0 -246.5 -88t-121.5 -260l-86 -438q-33 -172 21.5 -260t213.5 -88q108 0 190 36.5t128 85.5l61 326h-272l32 160h437l-105 -539q-201 -235 -497 -235 q-224 0 -327 133.5t-60 359.5zM694 1721q-14 55 0 130l6 31h125l-4 -24q-14 -84 17.5 -121t115.5 -37q93 0 137 37t58 121l4 24h129l-6 -31q-29 -152 -107.5 -214t-224.5 -62q-62 0 -111.5 14.5t-87 45.5t-51.5 86z" />
<glyph unicode="&#x11f;" horiz-adv-x="1075" d="M121 -346l63 127q142 -64 279 -64q250 0 313 320l15 72q-144 -125 -310 -125q-174 0 -251.5 113t-39.5 313l60 307q81 426 444 426q98 0 166.5 -36.5t106.5 -88.5l55 108h127l-213 -1093q-20 -103 -52.5 -181t-89 -144.5t-146.5 -102t-212 -35.5q-147 0 -315 84zM356 422 q-28 -148 16 -217.5t175 -69.5q128 0 268 109l123 639q-92 108 -225 108q-131 0 -202 -69.5t-99 -216.5zM545 1414q-14 55 0 130l6 31h125l-4 -25q-14 -83 17 -120t116 -37q93 0 136.5 36.5t57.5 120.5l5 25h129l-7 -31q-29 -152 -107 -214t-224 -62q-62 0 -111.5 14.5 t-87 45.5t-51.5 86z" />
<glyph unicode="&#x120;" horiz-adv-x="1230" d="M236 477l92 479q94 494 571 494q143 0 243.5 -68t131.5 -202l-154 -72q-25 85 -83 130.5t-169 45.5q-159 0 -246.5 -88t-121.5 -260l-86 -438q-33 -172 21.5 -260t213.5 -88q108 0 190 36.5t128 85.5l61 326h-272l32 160h437l-105 -539q-201 -235 -497 -235 q-224 0 -327 133.5t-60 359.5zM834 1602l40 208h183l-41 -208h-182z" />
<glyph unicode="&#x121;" horiz-adv-x="1075" d="M121 -346l63 127q142 -64 279 -64q250 0 313 320l15 72q-144 -125 -310 -125q-174 0 -251.5 113t-39.5 313l60 307q81 426 444 426q98 0 166.5 -36.5t106.5 -88.5l55 108h127l-213 -1093q-20 -103 -52.5 -181t-89 -144.5t-146.5 -102t-212 -35.5q-147 0 -315 84zM356 422 q-28 -148 16 -217.5t175 -69.5q128 0 268 109l123 639q-92 108 -225 108q-131 0 -202 -69.5t-99 -216.5zM694 1294l41 209h183l-41 -209h-183z" />
<glyph unicode="&#x122;" horiz-adv-x="1230" d="M236 477l92 479q94 494 571 494q143 0 243.5 -68t131.5 -202l-154 -72q-25 85 -83 130.5t-169 45.5q-159 0 -246.5 -88t-121.5 -260l-86 -438q-33 -172 21.5 -260t213.5 -88q108 0 190 36.5t128 85.5l61 326h-272l32 160h437l-105 -539q-201 -235 -497 -235 q-224 0 -327 133.5t-60 359.5zM436 -451q91 83 107 166h-78l35 185h188l-33 -166q-14 -79 -50.5 -134t-104.5 -110z" />
<glyph unicode="&#x123;" horiz-adv-x="1075" d="M121 -346l63 127q142 -64 279 -64q250 0 313 320l15 72q-144 -125 -310 -125q-174 0 -251.5 113t-39.5 313l60 307q81 426 444 426q98 0 166.5 -36.5t106.5 -88.5l55 108h127l-213 -1093q-20 -103 -52.5 -181t-89 -144.5t-146.5 -102t-212 -35.5q-147 0 -315 84zM356 422 q-28 -148 16 -217.5t175 -69.5q128 0 268 109l123 639q-92 108 -225 108q-131 0 -202 -69.5t-99 -216.5zM659 1237l33 166q14 78 51 133.5t105 110.5l63 -60q-90 -82 -106 -166h78l-35 -184h-189z" />
<glyph unicode="&#x124;" horiz-adv-x="1341" d="M195 0l276 1434h174l-117 -611h605l116 611h174l-276 -1434h-174l127 664h-604l-127 -664h-174zM662 1569l296 338h160l166 -338h-121l-143 188l-217 -188h-141z" />
<glyph unicode="&#x125;" horiz-adv-x="1146" d="M164 0l297 1536h164l-105 -535q182 142 352 142q111 0 180 -52.5t89.5 -138t-0.5 -194.5l-148 -758h-164l140 719q50 262 -181 262q-71 0 -150 -35.5t-142 -83.5l-168 -862h-164zM260 1638l297 338h160l166 -338h-121l-144 189l-217 -189h-141z" />
<glyph unicode="&#x126;" horiz-adv-x="1341" d="M195 0l208 1083h-135l29 142h135l39 209h174l-39 -209h604l39 209h174l-39 -209h134l-29 -142h-133l-209 -1083h-174l127 664h-604l-127 -664h-174zM528 823h605l49 260h-604z" />
<glyph unicode="&#x127;" horiz-adv-x="1177" d="M195 0l239 1247h-162l29 142h162l29 147h163l-28 -147h284l-28 -142h-285l-47 -246q182 142 352 142q87 0 148 -30t90.5 -82.5t38.5 -122.5t-9 -150l-147 -758h-164l139 719q50 262 -180 262q-71 0 -150.5 -36t-142.5 -83l-168 -862h-163z" />
<glyph unicode="&#x128;" horiz-adv-x="563" d="M195 0l276 1434h174l-276 -1434h-174zM268 1645q41 85 103 139.5t133 54.5q51 0 97.5 -26.5t84 -53t66.5 -26.5q25 0 47 15t34 31.5t29 45.5l107 -45q-44 -96 -107.5 -145.5t-130.5 -49.5q-40 0 -78 16.5t-62 37t-52 37t-52 16.5q-64 0 -112 -93z" />
<glyph unicode="&#x129;" horiz-adv-x="663" d="M211 1337q41 86 102.5 140.5t132.5 54.5q40 0 78.5 -16.5t63 -37t53.5 -37t53 -16.5q25 0 47 15.5t34.5 32t29.5 45.5l106 -45q-44 -96 -107 -145.5t-130 -49.5q-40 0 -78 16.5t-62 36.5t-52 36.5t-52 16.5q-66 0 -113 -92zM262 983l27 143h352l-158 -809 q-22 -91 -11 -135.5t75 -44.5q31 0 65 6v-133q-14 -9 -51.5 -15.5t-64.5 -6.5q-104 0 -158.5 62t-28.5 198l142 735h-189z" />
<glyph unicode="&#x12a;" horiz-adv-x="563" d="M195 0l276 1434h174l-276 -1434h-174zM350 1675l27 142h522l-27 -142h-522z" />
<glyph unicode="&#x12b;" horiz-adv-x="663" d="M262 983l27 143h352l-158 -809q-22 -91 -11 -135.5t75 -44.5q31 0 65 6v-133q-14 -9 -51.5 -15.5t-64.5 -6.5q-104 0 -158.5 62t-28.5 198l142 735h-189zM283 1368l26 141h522l-26 -141h-522z" />
<glyph unicode="&#x12c;" horiz-adv-x="563" d="M195 0l276 1434h174l-276 -1434h-174zM352 1721q-14 55 0 130l6 31h125l-4 -24q-14 -84 17.5 -121t115.5 -37q93 0 137 37t58 121l4 24h129l-6 -31q-29 -152 -107.5 -214t-224.5 -62q-62 0 -111.5 14.5t-87 45.5t-51.5 86z" />
<glyph unicode="&#x12d;" horiz-adv-x="663" d="M262 983l27 143h352l-158 -809q-22 -91 -11 -135.5t75 -44.5q31 0 65 6v-133q-14 -9 -51.5 -15.5t-64.5 -6.5q-104 0 -158.5 62t-28.5 198l142 735h-189zM299 1414q-14 55 0 130l6 31h125l-4 -25q-14 -83 17 -120t116 -37q93 0 137 36.5t58 120.5l4 25h129l-6 -31 q-29 -152 -107 -214t-225 -62q-62 0 -111.5 14.5t-87 45.5t-51.5 86z" />
<glyph unicode="&#x12e;" horiz-adv-x="563" d="M-35 -285q0 93 73 169.5t183 115.5h-26l276 1434h174l-276 -1434q-100 -41 -174 -116t-74 -136q0 -28 17 -43.5t46 -15.5q44 0 99 22l8 -94q-76 -47 -168 -47q-75 0 -116.5 41t-41.5 104z" />
<glyph unicode="&#x12f;" horiz-adv-x="663" d="M131 -285q0 90 75 169t189 122q-123 53 -86 242l142 735h-189l27 143h352l-158 -809q-22 -91 -11 -135.5t75 -44.5q31 0 65 6v-133q-137 -38 -231 -115t-94 -147q0 -28 17 -43.5t46 -15.5q44 0 99 22l8 -94q-76 -47 -168 -47q-75 0 -116.5 41t-41.5 104zM502 1294l41 209 h180l-41 -209h-180z" />
<glyph unicode="&#x130;" horiz-adv-x="563" d="M195 0l276 1434h174l-276 -1434h-174zM502 1602l41 208h182l-41 -208h-182z" />
<glyph unicode="&#x131;" horiz-adv-x="663" d="M262 983l27 143h352l-158 -809q-22 -91 -11 -135.5t75 -44.5q31 0 65 6v-133q-14 -9 -51.5 -15.5t-64.5 -6.5q-104 0 -158.5 62t-28.5 198l142 735h-189z" />
<glyph unicode="&#x132;" horiz-adv-x="1372" d="M195 0l276 1434h174l-276 -1434h-174zM623 2l51 158q58 -10 102 -10q79 0 133.5 19t90.5 61.5t57 97.5t37 139l186 967h174l-186 -963q-17 -89 -38 -155.5t-59.5 -132t-90 -107t-131 -67t-181.5 -25.5q-68 0 -145 18z" />
<glyph unicode="&#x133;" horiz-adv-x="1280" d="M262 983l27 143h352l-158 -809q-22 -91 -11 -135.5t75 -44.5q31 0 65 6v-133q-14 -9 -51.5 -15.5t-64.5 -6.5q-104 0 -158.5 62t-28.5 198l142 735h-189zM502 1294l41 209h180l-41 -209h-180zM530 -391l64 135q58 -14 98 -14q182 0 217 192l205 1061h-188l26 143h355 l-226 -1169q-39 -199 -130 -289t-267 -90q-38 0 -83 9t-71 22zM1167 1294l41 209h181l-41 -209h-181z" />
<glyph unicode="&#x134;" horiz-adv-x="808" d="M59 2l52 158q58 -10 102 -10q79 0 133.5 19t90 61.5t56.5 97t37 139.5l187 967h174l-186 -963q-17 -89 -38 -155.5t-59.5 -132t-90 -107t-131 -67t-181.5 -25.5q-69 0 -146 18zM522 1569l297 338h160l166 -338h-121l-143 188l-217 -188h-142z" />
<glyph unicode="&#x135;" horiz-adv-x="491" d="M-133 -391l63 135q58 -14 99 -14q182 0 217 192l205 1061h-189l27 143h354l-225 -1169q-39 -199 -130 -289t-268 -90q-38 0 -82.5 9t-70.5 22zM209 1262l297 337h160l165 -337h-120l-144 188l-217 -188h-141z" />
<glyph unicode="&#x136;" horiz-adv-x="1157" d="M195 0l276 1434h174l-119 -623h156l487 623h199l-553 -695l287 -739h-199l-237 651h-172l-125 -651h-174zM455 -451q90 82 106 166h-78l35 185h189l-33 -166q-14 -78 -51 -133.5t-105 -110.5z" />
<glyph unicode="&#x137;" horiz-adv-x="1030" d="M164 0l297 1536h164l-168 -858h143l373 448h188l-428 -512l82 -288q32 -112 63.5 -152.5t94.5 -40.5q23 0 53 10l18 -118q-53 -37 -118 -37q-88 0 -142 53t-88 168l-98 326h-168l-102 -535h-164zM416 -451q90 82 106 166h-78l35 185h189l-33 -166q-14 -78 -51 -133.5 t-105 -110.5z" />
<glyph unicode="&#x138;" horiz-adv-x="1030" d="M164 0l217 1126h164l-88 -448h143l373 448h188l-428 -512l82 -288q32 -112 63.5 -152.5t94.5 -40.5q23 0 53 10l18 -118q-53 -37 -118 -37q-88 0 -142 53t-88 168l-98 326h-168l-102 -535h-164z" />
<glyph unicode="&#x139;" horiz-adv-x="993" d="M195 0l276 1434h174l-246 -1274h557l-30 -160h-731zM506 1569l164 338h192l-235 -338h-121z" />
<glyph unicode="&#x13a;" horiz-adv-x="481" d="M174.5 141.5q-5.5 44.5 9.5 106.5l250 1288h164l-236 -1219q-22 -91 -11 -135.5t75 -44.5q22 0 49 6l2 -133q-42 -22 -104 -22q-40 0 -72 7t-61.5 24.5t-44.5 47.5t-20.5 74.5zM461 1612l164 338h192l-235 -338h-121z" />
<glyph unicode="&#x13b;" horiz-adv-x="993" d="M195 0l276 1434h174l-246 -1274h557l-30 -160h-731zM424 -451q90 82 106 166h-77l34 185h189l-33 -166q-14 -78 -51 -133.5t-105 -110.5z" />
<glyph unicode="&#x13c;" horiz-adv-x="481" d="M133 -451q91 83 107 166h-78l35 185h188l-33 -166q-14 -79 -50.5 -134t-104.5 -110zM174.5 141.5q-5.5 44.5 9.5 106.5l250 1288h164l-236 -1219q-22 -91 -11 -135.5t75 -44.5q22 0 49 6l2 -133q-42 -22 -104 -22q-40 0 -72 7t-61.5 24.5t-44.5 47.5t-20.5 74.5z" />
<glyph unicode="&#x13d;" horiz-adv-x="993" d="M195 0l276 1434h174l-246 -1274h557l-30 -160h-731zM799 1096l100 338h176l-166 -338h-110z" />
<glyph unicode="&#x13e;" horiz-adv-x="522" d="M174.5 141.5q-5.5 44.5 9.5 106.5l250 1288h164l-236 -1219q-22 -91 -11 -135.5t75 -44.5q22 0 49 6l2 -133q-42 -22 -104 -22q-40 0 -72 7t-61.5 24.5t-44.5 47.5t-20.5 74.5zM625 1198l100 338h176l-166 -338h-110z" />
<glyph unicode="&#x13f;" horiz-adv-x="993" d="M195 0l276 1434h174l-246 -1274h557l-30 -160h-731zM690 655l43 226h232l-43 -226h-232z" />
<glyph unicode="&#x140;" horiz-adv-x="778" d="M174.5 141.5q-5.5 44.5 9.5 106.5l250 1288h164l-236 -1219q-22 -91 -11 -135.5t75 -44.5q22 0 49 6l2 -133q-42 -22 -104 -22q-40 0 -72 7t-61.5 24.5t-44.5 47.5t-20.5 74.5zM567 657l43 226h232l-43 -226h-232z" />
<glyph unicode="&#x141;" horiz-adv-x="1021" d="M203 582l30 153l144 58l125 641h174l-111 -566l441 176l-31 -153l-440 -176l-107 -555h557l-31 -160h-731l123 639z" />
<glyph unicode="&#x142;" horiz-adv-x="706" d="M221 674l31 155l176 72l125 635h164l-111 -563l232 92l-31 -156l-229 -92l-97 -500q-22 -91 -11 -135.5t75 -44.5q22 0 49 6l2 -133q-42 -22 -104 -22q-40 0 -72 7t-61.5 24.5t-44.5 47.5t-20.5 74.5t9.5 106.5l96 497z" />
<glyph unicode="&#x143;" horiz-adv-x="1366" d="M195 0l276 1434h133l463 -1078h10l207 1078h164l-277 -1434h-151l-447 1059h-10l-205 -1059h-163zM903 1569l164 338h193l-236 -338h-121z" />
<glyph unicode="&#x144;" horiz-adv-x="1136" d="M164 0l217 1126h131l-8 -139q38 34 81.5 64t122.5 61t154 31q87 0 148.5 -30t90.5 -82.5t38 -122.5t-9 -150l-147 -758h-164l139 719q27 140 -19 201t-161 61q-125 0 -282 -119l-168 -862h-164zM762 1262l164 337h192l-235 -337h-121z" />
<glyph unicode="&#x145;" horiz-adv-x="1366" d="M195 0l276 1434h133l463 -1078h10l207 1078h164l-277 -1434h-151l-447 1059h-10l-205 -1059h-163zM522 -451q91 83 107 166h-78l35 185h188l-33 -166q-14 -79 -50.5 -134t-104.5 -110z" />
<glyph unicode="&#x146;" horiz-adv-x="1136" d="M164 0l217 1126h131l-8 -139q38 34 81.5 64t122.5 61t154 31q87 0 148.5 -30t90.5 -82.5t38 -122.5t-9 -150l-147 -758h-164l139 719q27 140 -19 201t-161 61q-125 0 -282 -119l-168 -862h-164zM401 -451q91 83 107 166h-78l35 185h188l-32 -166q-14 -78 -51 -133.5 t-105 -110.5z" />
<glyph unicode="&#x147;" horiz-adv-x="1366" d="M195 0l276 1434h133l463 -1078h10l207 1078h164l-277 -1434h-151l-447 1059h-10l-205 -1059h-163zM731 1907h121l147 -189l213 189h142l-297 -338h-160z" />
<glyph unicode="&#x148;" horiz-adv-x="1136" d="M164 0l217 1126h131l-8 -139q38 34 81.5 64t122.5 61t154 31q87 0 148.5 -30t90.5 -82.5t38 -122.5t-9 -150l-147 -758h-164l139 719q27 140 -19 201t-161 61q-125 0 -282 -119l-168 -862h-164zM598 1599h121l147 -188l213 188h142l-297 -337h-160z" />
<glyph unicode="&#x149;" horiz-adv-x="1136" d="M164 0l217 1126h131l-8 -139q38 34 81.5 64t122.5 61t154 31q87 0 148.5 -30t90.5 -82.5t38 -122.5t-9 -150l-147 -758h-164l139 719q27 140 -19 201t-161 61q-125 0 -282 -119l-168 -862h-164zM193 1176q90 82 106 165h-78l35 185h188l-32 -166q-14 -78 -51 -133.5 t-105 -110.5z" />
<glyph unicode="&#x14a;" horiz-adv-x="1366" d="M195 0l276 1434h133l463 -1078h10l207 1078h164l-266 -1377q-17 -87 -38.5 -155t-59.5 -132.5t-89 -106.5t-127 -67.5t-172 -25.5q-84 0 -153 16l45 160q58 -10 102 -10q77 0 131.5 18t90 57.5t57 90t37.5 125.5l-433 1032h-10l-205 -1059h-163z" />
<glyph unicode="&#x14b;" horiz-adv-x="1136" d="M164 0l217 1126h131l-8 -139q175 156 358 156q110 0 178.5 -52.5t89.5 -138t0 -194.5l-155 -801q-36 -188 -134 -283.5t-274 -95.5q-34 0 -77.5 12t-65.5 25l65 133q43 -18 97 -18q98 0 149 50.5t70 141.5l153 797q26 131 -21 196.5t-159 65.5q-125 0 -282 -119 l-168 -862h-164z" />
<glyph unicode="&#x14c;" horiz-adv-x="1236" d="M236 477l92 479q45 235 182.5 364.5t380.5 129.5q236 0 333.5 -132t53.5 -362l-92 -479q-94 -493 -565 -493q-226 0 -327 133t-58 360zM414 498q-34 -172 20.5 -260t214.5 -88t246.5 87.5t120.5 260.5l86 438q34 172 -20 260t-214 88t-247 -87.5t-121 -260.5zM690 1675 l27 142h522l-27 -142h-522z" />
<glyph unicode="&#x14d;" horiz-adv-x="1044" d="M190 410l62 307q20 102 55 177.5t91.5 133t141 86.5t195.5 29q210 0 293.5 -110.5t42.5 -315.5l-61 -307q-21 -105 -55.5 -180.5t-91 -132.5t-140.5 -85t-197 -28q-205 0 -289.5 112.5t-46.5 313.5zM358 422q-28 -148 15.5 -217.5t175.5 -69.5t202.5 69.5t98.5 217.5 l55 283q28 148 -16 217t-176 69t-201.5 -69t-97.5 -217zM532 1368l27 141h522l-26 -141h-523z" />
<glyph unicode="&#x14e;" horiz-adv-x="1236" d="M236 477l92 479q45 235 182.5 364.5t380.5 129.5q236 0 333.5 -132t53.5 -362l-92 -479q-94 -493 -565 -493q-226 0 -327 133t-58 360zM414 498q-34 -172 20.5 -260t214.5 -88t246.5 87.5t120.5 260.5l86 438q34 172 -20 260t-214 88t-247 -87.5t-121 -260.5zM692 1721 q-14 55 0 130l6 31h125l-4 -24q-14 -84 17.5 -121t115.5 -37q93 0 137 37t58 121l4 24h129l-6 -31q-29 -152 -107.5 -214t-224.5 -62q-62 0 -111.5 14.5t-87 45.5t-51.5 86z" />
<glyph unicode="&#x14f;" horiz-adv-x="1044" d="M190 410l62 307q20 102 55 177.5t91.5 133t141 86.5t195.5 29q210 0 293.5 -110.5t42.5 -315.5l-61 -307q-21 -105 -55.5 -180.5t-91 -132.5t-140.5 -85t-197 -28q-205 0 -289.5 112.5t-46.5 313.5zM358 422q-28 -148 15.5 -217.5t175.5 -69.5t202.5 69.5t98.5 217.5 l55 283q28 148 -16 217t-176 69t-201.5 -69t-97.5 -217zM535 1414q-14 55 0 130l6 31h125l-4 -25q-14 -83 17 -120t116 -37q93 0 136.5 36.5t57.5 120.5l4 25h129l-6 -31q-29 -152 -107.5 -214t-224.5 -62q-62 0 -111.5 14.5t-86.5 45.5t-51 86z" />
<glyph unicode="&#x150;" horiz-adv-x="1236" d="M236 477l92 479q45 235 182.5 364.5t380.5 129.5q236 0 333.5 -132t53.5 -362l-92 -479q-94 -493 -565 -493q-226 0 -327 133t-58 360zM414 498q-34 -172 20.5 -260t214.5 -88t246.5 87.5t120.5 260.5l86 438q34 172 -20 260t-214 88t-247 -87.5t-121 -260.5zM737 1569 l170 338h187l-236 -338h-121zM1012 1569l170 338h186l-235 -338h-121z" />
<glyph unicode="&#x151;" horiz-adv-x="1044" d="M190 410l62 307q20 102 55 177.5t91.5 133t141 86.5t195.5 29q210 0 293.5 -110.5t42.5 -315.5l-61 -307q-21 -105 -55.5 -180.5t-91 -132.5t-140.5 -85t-197 -28q-205 0 -289.5 112.5t-46.5 313.5zM358 422q-28 -148 15.5 -217.5t175.5 -69.5t202.5 69.5t98.5 217.5 l55 283q28 148 -16 217t-176 69t-201.5 -69t-97.5 -217zM563 1262l170 337h187l-236 -337h-121zM838 1262l170 337h186l-236 -337h-120z" />
<glyph unicode="&#x152;" horiz-adv-x="1779" d="M236 477l92 479q45 234 184 364t377 130q101 0 177 -27.5t114 -79.5l16 91h731l-29 -160h-557l-90 -463h512l-30 -160h-512l-95 -491h557l-32 -160h-731l20 96q-136 -112 -324 -112q-227 0 -325 132.5t-55 360.5zM414 498q-34 -172 20.5 -260t214.5 -88q157 0 243.5 82.5 t119.5 248.5l92 471q32 163 -23.5 247.5t-212.5 84.5q-160 0 -247 -87.5t-121 -260.5z" />
<glyph unicode="&#x153;" horiz-adv-x="1669" d="M190 410l62 307q40 207 157 316.5t334 109.5q222 0 304 -148q125 148 344 148q202 0 278 -110.5t37 -315.5l-41 -211h-635l-33 -168q-19 -90 30.5 -146.5t178.5 -56.5q86 0 168.5 30t138.5 66l46 -125q-72 -55 -177.5 -88.5t-205.5 -33.5q-227 0 -302 143 q-136 -143 -356 -143q-205 0 -286 112t-42 314zM358 422q-28 -148 15.5 -217.5t175.5 -69.5t202.5 69.5t98.5 217.5l55 283q28 148 -16 217t-176 69t-201.5 -69t-97.5 -217zM1055 641h475l12 64q28 148 -13.5 217t-168.5 69t-196 -69.5t-97 -216.5z" />
<glyph unicode="&#x154;" horiz-adv-x="1210" d="M195 0l276 1434h397q197 0 304.5 -83.5t107.5 -250.5q0 -103 -23.5 -188t-59 -140t-86 -96.5t-96.5 -63t-97 -34.5l194 -578h-197l-174 561h-264l-108 -561h-174zM508 721h233q177 0 266 84t89 268q0 107 -67.5 154t-201.5 47h-211zM805 1569l164 338h192l-235 -338h-121 z" />
<glyph unicode="&#x155;" horiz-adv-x="768" d="M164 0l217 1126h131l-16 -178q23 28 53.5 56.5t76.5 62.5t104.5 55t117.5 21q40 0 84 -13l-58 -169q-38 10 -83 10q-86 0 -171 -47.5t-137 -120.5l-155 -803h-164zM561 1262l164 337h193l-236 -337h-121z" />
<glyph unicode="&#x156;" horiz-adv-x="1210" d="M195 0l276 1434h397q197 0 304.5 -83.5t107.5 -250.5q0 -103 -23.5 -188t-59 -140t-86 -96.5t-96.5 -63t-97 -34.5l194 -578h-197l-174 561h-264l-108 -561h-174zM449 -451q90 82 106 166h-78l35 185h188l-32 -166q-14 -78 -51 -133.5t-105 -110.5zM508 721h233 q177 0 266 84t89 268q0 107 -67.5 154t-201.5 47h-211z" />
<glyph unicode="&#x157;" horiz-adv-x="768" d="M76 -451q90 82 106 166h-78l35 185h189l-33 -166q-14 -78 -51 -133.5t-105 -110.5zM164 0l217 1126h131l-16 -178q23 28 53.5 56.5t76.5 62.5t104.5 55t117.5 21q40 0 84 -13l-58 -169q-38 10 -83 10q-86 0 -171 -47.5t-137 -120.5l-155 -803h-164z" />
<glyph unicode="&#x158;" horiz-adv-x="1210" d="M195 0l276 1434h397q197 0 304.5 -83.5t107.5 -250.5q0 -103 -23.5 -188t-59 -140t-86 -96.5t-96.5 -63t-97 -34.5l194 -578h-197l-174 561h-264l-108 -561h-174zM508 721h233q177 0 266 84t89 268q0 107 -67.5 154t-201.5 47h-211zM641 1907h121l147 -189l213 189h142 l-297 -338h-160z" />
<glyph unicode="&#x159;" horiz-adv-x="768" d="M164 0l217 1126h131l-16 -178q23 28 53.5 56.5t76.5 62.5t104.5 55t117.5 21q40 0 84 -13l-58 -169q-38 10 -83 10q-86 0 -171 -47.5t-137 -120.5l-155 -803h-164zM414 1599h121l147 -188l213 188h141l-297 -337h-159z" />
<glyph unicode="&#x15a;" horiz-adv-x="1081" d="M109 125l106 133q84 -50 163.5 -79t172.5 -29q94 0 162 25t104.5 69t53 94.5t16.5 110.5q0 69 -31.5 117t-82.5 75t-112 47.5t-122 43.5t-112 53.5t-82.5 86.5t-31.5 134q0 213 124.5 328.5t373.5 115.5q108 0 207 -34.5t158 -94.5l-105 -131q-127 98 -291 98 q-148 0 -219.5 -69t-71.5 -183q0 -46 24.5 -80.5t65 -54.5t91.5 -39.5t105 -35.5t105 -43.5t91.5 -62t65 -92.5t24.5 -134q0 -82 -14 -152.5t-50.5 -138t-93.5 -115t-149 -76t-211 -28.5q-117 0 -237 37.5t-197 103.5zM745 1569l164 338h193l-236 -338h-121z" />
<glyph unicode="&#x15b;" horiz-adv-x="892" d="M90 92l92 123q158 -86 281 -86q78 0 133 19.5t84 53.5t41 72.5t12 85.5q0 66 -47 98.5t-149 61.5q-49 14 -83.5 26.5t-75 34.5t-65.5 47.5t-42 65t-17 88.5q0 180 109.5 270.5t308.5 90.5q85 0 167.5 -24t143.5 -64l-80 -129q-50 30 -117.5 50.5t-132.5 20.5 q-109 0 -172 -44.5t-63 -141.5q0 -27 12 -48.5t27.5 -35.5t47 -28t54.5 -21.5t66 -20.5t71.5 -22.5t63 -25t55.5 -34t40.5 -43t28.5 -57.5t9 -74q0 -200 -111 -308.5t-336 -108.5q-106 0 -204.5 34t-151.5 74zM612 1262l164 337h193l-236 -337h-121z" />
<glyph unicode="&#x15c;" horiz-adv-x="1081" d="M109 125l106 133q84 -50 163.5 -79t172.5 -29q94 0 162 25t104.5 69t53 94.5t16.5 110.5q0 69 -31.5 117t-82.5 75t-112 47.5t-122 43.5t-112 53.5t-82.5 86.5t-31.5 134q0 213 124.5 328.5t373.5 115.5q108 0 207 -34.5t158 -94.5l-105 -131q-127 98 -291 98 q-148 0 -219.5 -69t-71.5 -183q0 -46 24.5 -80.5t65 -54.5t91.5 -39.5t105 -35.5t105 -43.5t91.5 -62t65 -92.5t24.5 -134q0 -82 -14 -152.5t-50.5 -138t-93.5 -115t-149 -76t-211 -28.5q-117 0 -237 37.5t-197 103.5zM545 1569l297 338h159l166 -338h-120l-144 188 l-217 -188h-141z" />
<glyph unicode="&#x15d;" horiz-adv-x="892" d="M90 92l92 123q158 -86 281 -86q78 0 133 19.5t84 53.5t41 72.5t12 85.5q0 66 -47 98.5t-149 61.5q-49 14 -83.5 26.5t-75 34.5t-65.5 47.5t-42 65t-17 88.5q0 180 109.5 270.5t308.5 90.5q85 0 167.5 -24t143.5 -64l-80 -129q-50 30 -117.5 50.5t-132.5 20.5 q-109 0 -172 -44.5t-63 -141.5q0 -27 12 -48.5t27.5 -35.5t47 -28t54.5 -21.5t66 -20.5t71.5 -22.5t63 -25t55.5 -34t40.5 -43t28.5 -57.5t9 -74q0 -200 -111 -308.5t-336 -108.5q-106 0 -204.5 34t-151.5 74zM403 1262l297 337h160l166 -337h-121l-143 188l-217 -188h-142z " />
<glyph unicode="&#x15e;" horiz-adv-x="1081" d="M109 125l106 133q84 -50 163.5 -79t172.5 -29q94 0 162 25t104.5 69t53 94.5t16.5 110.5q0 69 -31.5 117t-82.5 75t-112 47.5t-122 43.5t-112 53.5t-82.5 86.5t-31.5 134q0 213 124.5 328.5t373.5 115.5q108 0 207 -34.5t158 -94.5l-105 -131q-127 98 -291 98 q-148 0 -219.5 -69t-71.5 -183q0 -46 24.5 -80.5t65 -54.5t91.5 -39.5t105 -35.5t105 -43.5t91.5 -62t65 -92.5t24.5 -134q0 -82 -14 -152.5t-50.5 -138t-93.5 -115t-149 -76t-211 -28.5q-117 0 -237 37.5t-197 103.5zM272 -391l54 94q73 -25 139 -25q64 0 86 17t22 53 q0 47 -69 47q-41 0 -84 -14l-33 43l68 201h114l-65 -136q32 7 63 7q59 0 97 -33.5t38 -93.5q0 -110 -67 -154.5t-182 -44.5q-101 0 -181 39z" />
<glyph unicode="&#x15f;" horiz-adv-x="892" d="M90 92l92 123q158 -86 281 -86q78 0 133 19.5t84 53.5t41 72.5t12 85.5q0 66 -47 98.5t-149 61.5q-49 14 -83.5 26.5t-75 34.5t-65.5 47.5t-42 65t-17 88.5q0 180 109.5 270.5t308.5 90.5q85 0 167.5 -24t143.5 -64l-80 -129q-50 30 -117.5 50.5t-132.5 20.5 q-109 0 -172 -44.5t-63 -141.5q0 -27 12 -48.5t27.5 -35.5t47 -28t54.5 -21.5t66 -20.5t71.5 -22.5t63 -25t55.5 -34t40.5 -43t28.5 -57.5t9 -74q0 -200 -111 -308.5t-336 -108.5q-106 0 -204.5 34t-151.5 74zM195 -391l53 94q73 -25 139 -25q64 0 86.5 17t22.5 53 q0 47 -70 47q-41 0 -84 -14l-33 43l68 201h115l-66 -136q32 7 63 7q59 0 97.5 -33.5t38.5 -93.5q0 -110 -67.5 -154.5t-182.5 -44.5q-100 0 -180 39z" />
<glyph unicode="&#x160;" horiz-adv-x="1077" d="M109 125l106 133q84 -50 163.5 -79t172.5 -29q94 0 162 25t104.5 69t53 94.5t16.5 110.5q0 69 -31.5 117t-82.5 75t-112 47.5t-122 43.5t-112 53.5t-82.5 86.5t-31.5 134q0 213 124.5 328.5t373.5 115.5q108 0 207 -34.5t158 -94.5l-105 -131q-127 98 -291 98 q-148 0 -219.5 -69t-71.5 -183q0 -46 24.5 -80.5t65 -54.5t91.5 -39.5t105 -35.5t105 -43.5t91.5 -62t65 -92.5t24.5 -134q0 -82 -14 -152.5t-50.5 -138t-93.5 -115t-149 -76t-211 -28.5q-117 0 -237 37.5t-197 103.5zM600 1907h121l147 -189l213 189h142l-297 -338h-160z " />
<glyph unicode="&#x161;" horiz-adv-x="892" d="M90 92l92 123q158 -86 281 -86q78 0 133 19.5t84 53.5t41 72.5t12 85.5q0 66 -47 98.5t-149 61.5q-49 14 -83.5 26.5t-75 34.5t-65.5 47.5t-42 65t-17 88.5q0 180 109.5 270.5t308.5 90.5q85 0 167.5 -24t143.5 -64l-80 -129q-50 30 -117.5 50.5t-132.5 20.5 q-109 0 -172 -44.5t-63 -141.5q0 -27 12 -48.5t27.5 -35.5t47 -28t54.5 -21.5t66 -20.5t71.5 -22.5t63 -25t55.5 -34t40.5 -43t28.5 -57.5t9 -74q0 -200 -111 -308.5t-336 -108.5q-106 0 -204.5 34t-151.5 74zM467 1599h121l147 -188l213 188h142l-297 -337h-160z" />
<glyph unicode="&#x162;" horiz-adv-x="1136" d="M328 -391l53 94q73 -25 139 -25q64 0 86.5 17t22.5 53q0 47 -70 47q-41 0 -84 -14l-33 43l60 176h-21l246 1274h-389l31 160h950l-31 -160h-387l-246 -1274h-43l-53 -111q32 7 64 7q59 0 97 -33.5t38 -93.5q0 -110 -67.5 -154.5t-182.5 -44.5q-100 0 -180 39z" />
<glyph unicode="&#x163;" horiz-adv-x="849" d="M231 -391l54 94q73 -25 139 -25q64 0 86 17t22 53q0 47 -69 47q-41 0 -84 -14l-33 43l66 194q-75 32 -96.5 112.5t6.5 213.5l122 639h-198l26 129l205 14l45 226l162 20l-47 -246h309l-28 -143h-310l-127 -659q-18 -95 10 -137t125 -42q60 0 160 27l4 -133 q-101 -45 -211 -45q-39 0 -55 4l-51 -109q31 7 63 7q59 0 97.5 -33.5t38.5 -93.5q0 -110 -67.5 -154.5t-182.5 -44.5q-101 0 -181 39z" />
<glyph unicode="&#x164;" horiz-adv-x="1136" d="M340 1274l31 160h950l-31 -160h-387l-248 -1274h-174l248 1274h-389zM631 1907h121l147 -189l213 189h141l-297 -338h-159z" />
<glyph unicode="&#x165;" horiz-adv-x="849" d="M248 983q1 14 24 129l205 14l45 226l164 20l-49 -246h309l-26 -143h-310l-127 -659q-18 -95 10 -137t125 -42q64 0 158 27l6 -133q-91 -45 -200 -45q-325 0 -260 338l124 651h-198zM797 1245l100 338h176l-166 -338h-110z" />
<glyph unicode="&#x166;" horiz-adv-x="1136" d="M340 1274l31 160h950l-31 -160h-387l-72 -381h273l-29 -141h-272l-148 -752h-174l148 752h-273l29 141h272l72 381h-389z" />
<glyph unicode="&#x167;" horiz-adv-x="849" d="M203 631l26 141h177l40 211h-198l24 129l205 14l45 226l164 20l-49 -246h309l-26 -143h-310l-41 -211h279l-27 -141h-278l-60 -307q-18 -95 10 -137t125 -42q66 0 160 27l4 -133q-101 -45 -213 -45q-174 0 -227.5 81.5t-17.5 268.5l55 287h-176z" />
<glyph unicode="&#x168;" horiz-adv-x="1323" d="M283 451l190 983h174l-186 -963q-17 -98 -8 -169t68 -111.5t171 -40.5q163 0 244 82t111 239l186 963h174l-190 -983q-44 -231 -173 -349t-364 -118q-232 0 -336 121.5t-61 345.5zM655 1645q41 85 103 139.5t133 54.5q51 0 97.5 -26.5t84 -53t66.5 -26.5q25 0 47 15 t34 31.5t29 45.5l107 -45q-44 -96 -107.5 -145.5t-130.5 -49.5q-40 0 -78 16.5t-62 37t-52 37t-52 16.5q-64 0 -112 -93z" />
<glyph unicode="&#x169;" horiz-adv-x="1126" d="M224.5 174q-20.5 85 0.5 195l146 757h164l-140 -718q-27 -140 18 -201.5t154 -61.5q79 0 157 35t136 84l168 862h164l-219 -1126h-131l10 139q-31 -28 -55.5 -46.5t-71.5 -48t-103 -45t-116 -15.5q-118 0 -189.5 52.5t-92 137.5zM494 1337q41 86 102.5 140.5t132.5 54.5 q40 0 78.5 -16.5t63 -37t53.5 -37t53 -16.5q25 0 47 15.5t33.5 32t29.5 45.5l107 -45q-44 -96 -107.5 -145.5t-130.5 -49.5q-40 0 -78 16.5t-61.5 36.5t-51.5 36.5t-52 16.5q-66 0 -113 -92z" />
<glyph unicode="&#x16a;" horiz-adv-x="1323" d="M283 451l190 983h174l-186 -963q-17 -98 -8 -169t68 -111.5t171 -40.5q163 0 244 82t111 239l186 963h174l-190 -983q-44 -231 -173 -349t-364 -118q-232 0 -336 121.5t-61 345.5zM725 1675l27 142h522l-27 -142h-522z" />
<glyph unicode="&#x16b;" horiz-adv-x="1126" d="M224.5 174q-20.5 85 0.5 195l146 757h164l-140 -718q-27 -140 18 -201.5t154 -61.5q79 0 157 35t136 84l168 862h164l-219 -1126h-131l10 139q-31 -28 -55.5 -46.5t-71.5 -48t-103 -45t-116 -15.5q-118 0 -189.5 52.5t-92 137.5zM565 1368l27 141h522l-27 -141h-522z" />
<glyph unicode="&#x16c;" horiz-adv-x="1323" d="M283 451l190 983h174l-186 -963q-17 -98 -8 -169t68 -111.5t171 -40.5q163 0 244 82t111 239l186 963h174l-190 -983q-44 -231 -173 -349t-364 -118q-232 0 -336 121.5t-61 345.5zM729 1721q-14 55 0 130l6 31h125l-4 -24q-14 -84 17.5 -121t115.5 -37q93 0 137 37 t58 121l4 24h129l-6 -31q-29 -152 -107 -214t-225 -62q-62 0 -111.5 14.5t-87 45.5t-51.5 86z" />
<glyph unicode="&#x16d;" horiz-adv-x="1126" d="M224.5 174q-20.5 85 0.5 195l146 757h164l-140 -718q-27 -140 18 -201.5t154 -61.5q79 0 157 35t136 84l168 862h164l-219 -1126h-131l10 139q-31 -28 -55.5 -46.5t-71.5 -48t-103 -45t-116 -15.5q-118 0 -189.5 52.5t-92 137.5zM571 1414q-14 55 0 130l7 31h124l-4 -25 q-14 -83 17 -120t116 -37q93 0 137 36.5t58 120.5l4 25h129l-6 -31q-29 -152 -107 -214t-225 -62q-62 0 -111.5 14.5t-87 45.5t-51.5 86z" />
<glyph unicode="&#x16e;" horiz-adv-x="1323" d="M283 451l190 983h174l-186 -963q-17 -98 -8 -169t68 -111.5t171 -40.5q163 0 244 82t111 239l186 963h174l-190 -983q-44 -231 -173 -349t-364 -118q-232 0 -336 121.5t-61 345.5zM786 1702q0 109 68 175.5t178 66.5q79 0 127.5 -44t48.5 -120q0 -112 -66 -177t-177 -65 q-80 0 -129.5 44t-49.5 120zM893 1720q0 -37 23 -58.5t63 -21.5q56 0 90.5 33.5t34.5 87.5q0 37 -23 58.5t-63 21.5q-56 0 -90.5 -33.5t-34.5 -87.5z" />
<glyph unicode="&#x16f;" horiz-adv-x="1126" d="M224.5 174q-20.5 85 0.5 195l146 757h164l-140 -718q-27 -140 18 -201.5t154 -61.5q79 0 157 35t136 84l168 862h164l-219 -1126h-131l10 139q-31 -28 -55.5 -46.5t-71.5 -48t-103 -45t-116 -15.5q-118 0 -189.5 52.5t-92 137.5zM629 1395q0 109 67.5 175t177.5 66 q79 0 128 -44t49 -119q0 -112 -66.5 -177t-177.5 -65q-80 0 -129 43.5t-49 120.5zM735 1413q0 -37 23 -58.5t63 -21.5q56 0 90.5 33.5t34.5 87.5q0 37 -23 58.5t-63 21.5q-56 0 -90.5 -33.5t-34.5 -87.5z" />
<glyph unicode="&#x170;" horiz-adv-x="1323" d="M283 451l190 983h174l-186 -963q-17 -98 -8 -169t68 -111.5t171 -40.5q163 0 244 82t111 239l186 963h174l-190 -983q-44 -231 -173 -349t-364 -118q-232 0 -336 121.5t-61 345.5zM760 1569l170 338h186l-235 -338h-121zM1034 1569l170 338h187l-236 -338h-121z" />
<glyph unicode="&#x171;" horiz-adv-x="1126" d="M224.5 174q-20.5 85 0.5 195l146 757h164l-140 -718q-27 -140 18 -201.5t154 -61.5q79 0 157 35t136 84l168 862h164l-219 -1126h-131l10 139q-31 -28 -55.5 -46.5t-71.5 -48t-103 -45t-116 -15.5q-118 0 -189.5 52.5t-92 137.5zM612 1262l170 337h187l-236 -337h-121z M887 1262l170 337h186l-235 -337h-121z" />
<glyph unicode="&#x172;" horiz-adv-x="1323" d="M283 451l190 983h174l-186 -963q-17 -98 -8 -169t68 -111.5t171 -40.5q163 0 244 82t111 239l186 963h174l-190 -983q-55 -291 -275 -406q-141 -85 -206.5 -153t-65.5 -136q0 -30 18 -48.5t51 -18.5q37 0 92 22l13 -94q-76 -47 -170 -47q-76 0 -117 41t-41 104 q0 77 49 147t135 124q-23 -2 -41 -2q-230 0 -324.5 120.5t-51.5 346.5z" />
<glyph unicode="&#x173;" horiz-adv-x="1126" d="M214.5 247.5q-0.5 57.5 10.5 121.5l146 757h164l-140 -718q-51 -263 172 -263q71 0 150.5 36t142.5 83l168 862h164l-219 -1126q-105 -43 -176.5 -111.5t-71.5 -136.5q0 -29 16.5 -46t49.5 -17q41 0 96 22l10 -94q-76 -47 -168 -47q-76 0 -117 41t-41 104q0 94 76 176.5 t195 124.5l10 123q-63 -56 -158 -105.5t-202 -49.5q-68 0 -121 19.5t-85.5 54.5t-51.5 83.5t-19.5 106z" />
<glyph unicode="&#x174;" horiz-adv-x="1732" d="M348 1434h178l27 -1213h8l490 1213h174l28 -1213h9l489 1213h186l-606 -1434h-221l-37 1065h-8l-440 -1065h-222zM858 1569l297 338h160l166 -338h-121l-143 188l-218 -188h-141z" />
<glyph unicode="&#x175;" horiz-adv-x="1449" d="M268 1126h172l19 -933h8l399 933h148l39 -933h8l379 933h176l-488 -1126h-208l-43 766h-9l-338 -766h-208zM662 1262l296 337h160l166 -337h-121l-143 188l-217 -188h-141z" />
<glyph unicode="&#x176;" horiz-adv-x="1153" d="M334 1434h184l180 -721h11l458 721h209l-610 -902l-102 -532h-175l103 532zM567 1569l297 338h160l166 -338h-121l-143 188l-217 -188h-142z" />
<glyph unicode="&#x177;" horiz-adv-x="1118" d="M156 -346l73 127q136 -64 275 -64q127 0 201.5 80t109.5 240l23 102q-146 -155 -351 -155q-71 0 -125.5 20.5t-87.5 56t-52.5 84.5t-20 105.5t9.5 118.5l147 757h164l-139 -718q-27 -140 19 -201.5t161 -61.5q143 0 285 127l166 854h164l-201 -1093q-83 -463 -502 -463 q-88 0 -175 25t-144 59zM481 1262l297 337h160l166 -337h-121l-143 188l-217 -188h-142z" />
<glyph unicode="&#x178;" horiz-adv-x="1153" d="M334 1434h184l180 -721h11l458 721h209l-610 -902l-102 -532h-175l103 532zM606 1606l41 206h201l-41 -206h-201zM961 1606l40 206h201l-41 -206h-200z" />
<glyph unicode="&#x179;" horiz-adv-x="1083" d="M119 0l24 129l854 1145h-600l29 160h809l-25 -134l-852 -1140h631l-31 -160h-839zM776 1569l164 338h193l-236 -338h-121z" />
<glyph unicode="&#x17a;" horiz-adv-x="960" d="M104 0l25 135l707 840h-514q1 14 28 151h717l-25 -133l-706 -841h575l-30 -152h-777zM625 1262l163 337h193l-236 -337h-120z" />
<glyph unicode="&#x17b;" horiz-adv-x="1083" d="M119 0l24 129l854 1145h-600l29 160h809l-25 -134l-852 -1140h631l-31 -160h-839zM758 1602l41 208h182l-41 -208h-182z" />
<glyph unicode="&#x17c;" horiz-adv-x="960" d="M104 0l25 135l707 840h-514q1 14 28 151h717l-25 -133l-706 -841h575l-30 -152h-777zM637 1294l41 209h182l-41 -209h-182z" />
<glyph unicode="&#x17d;" horiz-adv-x="1083" d="M119 0l24 129l854 1145h-600l29 160h809l-25 -134l-852 -1140h631l-31 -160h-839zM627 1907h121l147 -189l213 189h141l-297 -338h-159z" />
<glyph unicode="&#x17e;" horiz-adv-x="960" d="M104 0l25 135l707 840h-514q1 14 28 151h717l-25 -133l-706 -841h575l-30 -152h-777zM498 1599h120l148 -188l213 188h141l-297 -337h-159z" />
<glyph unicode="&#x192;" horiz-adv-x="1015" d="M-174 -387l39 133q83 -25 147 -25q184 0 211 193l142 926h-187l19 121l192 22l31 201q59 364 387 364q92 0 166 -41l-58 -131q-61 21 -114 21q-180 0 -211 -193l-37 -221h295l-27 -143h-293l-135 -891q-15 -96 -39 -163t-66 -117.5t-107 -74.5t-156 -24 q-49 0 -107.5 13.5t-91.5 29.5z" />
<glyph unicode="&#x1e2;" horiz-adv-x="1640" d="M59 0l748 1434h981l-29 -160h-772l62 -463h575l-33 -160h-528l59 -491h420l-31 -160h-534l-43 356h-510l-180 -356h-185zM498 518h424l-82 647h-9zM1057 1675l26 142h523l-27 -142h-522z" />
<glyph unicode="&#x1e3;" horiz-adv-x="1652" d="M162 256q0 79 25 146t67.5 115t102 86t123.5 61.5t137.5 39t140 21.5t133.5 6l12 68q16 89 -31 140.5t-167 51.5q-129 0 -314 -76l-41 136q189 92 383 92q118 0 188.5 -35t112.5 -104q132 139 338 139q202 0 278.5 -110.5t37.5 -315.5l-41 -211h-635l-33 -168 q-19 -90 30.5 -146.5t178.5 -56.5q137 0 299 96l57 -125q-71 -55 -178.5 -88.5t-208.5 -33.5q-254 0 -317 161q-74 -77 -162.5 -119t-216.5 -42q-139 0 -219 77t-80 195zM328 272q0 -73 50.5 -114t129.5 -41q91 0 178 52.5t121 113.5l61 317q-77 0 -148.5 -9t-144.5 -32.5 t-126.5 -59.5t-87 -94.5t-33.5 -132.5zM848 1368l26 141h523l-27 -141h-522zM1038 641h475l13 64q28 147 -14 216.5t-169 69.5t-195.5 -69t-96.5 -217z" />
<glyph unicode="&#x1fa;" horiz-adv-x="1220" d="M57 0l709 1358q-66 47 -66 135q0 109 68 175.5t178 66.5q79 0 127.5 -44t48.5 -120q0 -85 -39 -144t-108 -84l186 -1343h-184l-43 356h-504l-182 -356h-191zM502 518h420l-82 647h-9zM807 1511q0 -37 23 -58t63 -21q56 0 90.5 33t34.5 87q0 37 -23 58.5t-63 21.5 q-56 0 -90.5 -33.5t-34.5 -87.5zM895 1788l180 317h203l-256 -317h-127z" />
<glyph unicode="&#x1fb;" horiz-adv-x="1103" d="M190 410l60 307q40 208 155 317t297 109q178 0 261 -125l57 108h127l-158 -815q-7 -38 -10 -56.5t-5.5 -44t1 -37.5t11.5 -24.5t23 -17t38 -4.5q31 0 55 8l14 -115q-21 -12 -63 -22t-78 -10q-129 0 -168 112q-72 -61 -141.5 -88.5t-171.5 -27.5q-178 0 -260 113t-44 313z M356 422q-28 -148 16 -217.5t175 -69.5q76 0 146.5 36t121.5 85l121 627q-31 45 -88 76.5t-137 31.5q-131 0 -201 -69t-98 -217zM594 1368q0 108 67 174t175 68l118 239h176l-184 -268q70 -44 70 -135q0 -112 -66.5 -177t-177.5 -65q-80 0 -129 43.5t-49 120.5zM700 1386 q0 -37 23 -58t63 -21q56 0 90.5 33t34.5 87q0 37 -23 58.5t-63 21.5q-56 0 -90.5 -33.5t-34.5 -87.5z" />
<glyph unicode="&#x1fc;" horiz-adv-x="1640" d="M59 0l748 1434h981l-29 -160h-772l62 -463h575l-33 -160h-528l59 -491h420l-31 -160h-534l-43 356h-510l-180 -356h-185zM498 518h424l-82 647h-9zM1202 1569l164 338h193l-236 -338h-121z" />
<glyph unicode="&#x1fd;" horiz-adv-x="1652" d="M162 256q0 79 25 146t67.5 115t102 86t123.5 61.5t137.5 39t140 21.5t133.5 6l12 68q16 89 -31 140.5t-167 51.5q-129 0 -314 -76l-41 136q189 92 383 92q118 0 188.5 -35t112.5 -104q132 139 338 139q202 0 278.5 -110.5t37.5 -315.5l-41 -211h-635l-33 -168 q-19 -90 30.5 -146.5t178.5 -56.5q137 0 299 96l57 -125q-71 -55 -178.5 -88.5t-208.5 -33.5q-254 0 -317 161q-74 -77 -162.5 -119t-216.5 -42q-139 0 -219 77t-80 195zM328 272q0 -73 50.5 -114t129.5 -41q91 0 178 52.5t121 113.5l61 317q-77 0 -148.5 -9t-144.5 -32.5 t-126.5 -59.5t-87 -94.5t-33.5 -132.5zM1012 1262l164 337h192l-235 -337h-121zM1038 641h475l13 64q28 147 -14 216.5t-169 69.5t-195.5 -69t-96.5 -217z" />
<glyph unicode="&#x1fe;" horiz-adv-x="1236" d="M213 -74l98 168q-125 134 -75 383l92 479q45 235 182.5 364.5t380.5 129.5q119 0 207 -37l57 94h137l-94 -159q131 -131 80 -392l-92 -479q-94 -493 -565 -493q-126 0 -213 41l-58 -99h-137zM414 498q-28 -148 4 -228l590 990q-56 24 -140 24q-160 0 -247 -87.5 t-121 -260.5zM500 178q55 -28 149 -28q160 0 246.5 87.5t120.5 260.5l86 438q29 159 -8 238zM829 1569l164 338h193l-236 -338h-121z" />
<glyph unicode="&#x1ff;" horiz-adv-x="1044" d="M186 -74l82 137q-123 108 -78 347l62 307q20 102 55 177.5t91.5 133t141 86.5t195.5 29q88 0 162 -23l49 80h127l-80 -133q125 -105 78 -350l-61 -307q-21 -105 -55.5 -180.5t-91 -132.5t-140.5 -85t-197 -28q-87 0 -164 24l-49 -82h-127zM358 422q-25 -132 4 -199 l451 754q-41 14 -100 14q-132 0 -201.5 -69t-97.5 -217zM446 150q40 -15 103 -15q132 0 202.5 69.5t98.5 217.5l55 283q25 139 -8 202zM678 1262l164 337h192l-235 -337h-121z" />
<glyph unicode="&#x218;" horiz-adv-x="1081" d="M109 125l106 133q84 -50 163.5 -79t172.5 -29q94 0 162 25t104.5 69t53 94.5t16.5 110.5q0 69 -31.5 117t-82.5 75t-112 47.5t-122 43.5t-112 53.5t-82.5 86.5t-31.5 134q0 213 124.5 328.5t373.5 115.5q108 0 207 -34.5t158 -94.5l-105 -131q-127 98 -291 98 q-148 0 -219.5 -69t-71.5 -183q0 -46 24.5 -80.5t65 -54.5t91.5 -39.5t105 -35.5t105 -43.5t91.5 -62t65 -92.5t24.5 -134q0 -82 -14 -152.5t-50.5 -138t-93.5 -115t-149 -76t-211 -28.5q-117 0 -237 37.5t-197 103.5zM340 -451q90 82 106 166h-77l34 185h189l-33 -166 q-14 -78 -51 -133.5t-105 -110.5z" />
<glyph unicode="&#x219;" horiz-adv-x="892" d="M90 92l92 123q158 -86 281 -86q78 0 133 19.5t84 53.5t41 72.5t12 85.5q0 66 -47 98.5t-149 61.5q-49 14 -83.5 26.5t-75 34.5t-65.5 47.5t-42 65t-17 88.5q0 180 109.5 270.5t308.5 90.5q85 0 167.5 -24t143.5 -64l-80 -129q-50 30 -117.5 50.5t-132.5 20.5 q-109 0 -172 -44.5t-63 -141.5q0 -27 12 -48.5t27.5 -35.5t47 -28t54.5 -21.5t66 -20.5t71.5 -22.5t63 -25t55.5 -34t40.5 -43t28.5 -57.5t9 -74q0 -200 -111 -308.5t-336 -108.5q-106 0 -204.5 34t-151.5 74zM268 -451q91 83 107 166h-78l35 185h188l-33 -166 q-14 -79 -50.5 -134t-104.5 -110z" />
<glyph unicode="&#x21a;" horiz-adv-x="1136" d="M340 1274l31 160h950l-31 -160h-387l-248 -1274h-174l248 1274h-389zM383 -451q90 82 106 166h-77l34 185h189l-33 -166q-14 -78 -51 -133.5t-105 -110.5z" />
<glyph unicode="&#x21b;" horiz-adv-x="849" d="M248 983q1 14 24 129l205 14l45 226l164 20l-49 -246h309l-26 -143h-310l-127 -659q-18 -95 10 -137t125 -42q64 0 158 27l6 -133q-91 -45 -200 -45q-325 0 -260 338l124 651h-198zM324 -451q90 82 106 166h-78l35 185h188l-32 -166q-14 -78 -51 -133.5t-105 -110.5z" />
<glyph unicode="&#x237;" horiz-adv-x="616" d="M-133 -391l63 135q58 -14 99 -14q182 0 217 192l205 1061h-189l27 143h354l-225 -1169q-39 -199 -130 -289t-268 -90q-38 0 -82.5 9t-70.5 22z" />
<glyph unicode="&#x2c6;" horiz-adv-x="937" d="M403 1262l297 337h160l166 -337h-121l-143 188l-217 -188h-142z" />
<glyph unicode="&#x2c7;" horiz-adv-x="937" d="M467 1599h121l147 -188l213 188h142l-297 -337h-160z" />
<glyph unicode="&#x2d8;" horiz-adv-x="782" d="M399 1414q-14 55 0 130l7 31h124l-4 -25q-14 -83 17 -120t116 -37q93 0 137 36.5t58 120.5l4 25h129l-6 -31q-29 -152 -107 -214t-225 -62q-62 0 -111.5 14.5t-87 45.5t-51.5 86z" />
<glyph unicode="&#x2d9;" horiz-adv-x="442" d="M379 1294l41 209h182l-41 -209h-182z" />
<glyph unicode="&#x2da;" horiz-adv-x="915" d="M522 1395q0 109 68 175t178 66q79 0 127.5 -44t48.5 -119q0 -112 -66.5 -177t-177.5 -65q-80 0 -129 43.5t-49 120.5zM629 1413q0 -37 23 -58.5t63 -21.5q56 0 90.5 33.5t34.5 87.5q0 37 -23 58.5t-63 21.5q-56 0 -90.5 -33.5t-34.5 -87.5z" />
<glyph unicode="&#x2db;" horiz-adv-x="849" d="M197 -285q0 93 73 169.5t183 115.5h147q-100 -41 -174 -116t-74 -136q0 -28 17.5 -43.5t46.5 -15.5q43 0 98 22l8 -94q-76 -47 -168 -47q-75 0 -116 41t-41 104z" />
<glyph unicode="&#x2dc;" horiz-adv-x="825" d="M334 1337q41 86 102.5 140.5t132.5 54.5q40 0 78.5 -16.5t63 -37t53.5 -37t53 -16.5q25 0 47 15.5t34.5 32t29.5 45.5l106 -45q-44 -96 -107 -145.5t-130 -49.5q-40 0 -78 16.5t-62 36.5t-52 36.5t-52 16.5q-66 0 -113 -92z" />
<glyph unicode="&#x2dd;" horiz-adv-x="839" d="M385 1262l170 337h186l-235 -337h-121zM659 1262l170 337h187l-236 -337h-121z" />
<glyph unicode="&#x1e80;" horiz-adv-x="1732" d="M348 1434h178l27 -1213h8l490 1213h174l28 -1213h9l489 1213h186l-606 -1434h-221l-37 1065h-8l-440 -1065h-222zM1028 1907h178l47 -338h-120z" />
<glyph unicode="&#x1e81;" horiz-adv-x="1449" d="M268 1126h172l19 -933h8l399 933h148l39 -933h8l379 933h176l-488 -1126h-208l-43 766h-9l-338 -766h-208zM819 1599h178l47 -337h-120z" />
<glyph unicode="&#x1e82;" horiz-adv-x="1732" d="M348 1434h178l27 -1213h8l490 1213h174l28 -1213h9l489 1213h186l-606 -1434h-221l-37 1065h-8l-440 -1065h-222zM1081 1569l164 338h193l-236 -338h-121z" />
<glyph unicode="&#x1e83;" horiz-adv-x="1449" d="M268 1126h172l19 -933h8l399 933h148l39 -933h8l379 933h176l-488 -1126h-208l-43 766h-9l-338 -766h-208zM881 1262l163 337h193l-236 -337h-120z" />
<glyph unicode="&#x1e84;" horiz-adv-x="1732" d="M348 1434h178l27 -1213h8l490 1213h174l28 -1213h9l489 1213h186l-606 -1434h-221l-37 1065h-8l-440 -1065h-222zM897 1606l41 206h201l-41 -206h-201zM1251 1606l41 206h201l-41 -206h-201z" />
<glyph unicode="&#x1e85;" horiz-adv-x="1449" d="M268 1126h172l19 -933h8l399 933h148l39 -933h8l379 933h176l-488 -1126h-208l-43 766h-9l-338 -766h-208zM696 1298l41 207h201l-41 -207h-201zM1051 1298l41 207h200l-41 -207h-200z" />
<glyph unicode="&#x1ef2;" horiz-adv-x="1153" d="M334 1434h184l180 -721h11l458 721h209l-610 -902l-102 -532h-175l103 532zM721 1907h178l47 -338h-121z" />
<glyph unicode="&#x1ef3;" horiz-adv-x="1118" d="M156 -346l73 127q136 -64 275 -64q127 0 201.5 80t109.5 240l23 102q-146 -155 -351 -155q-71 0 -125.5 20.5t-87.5 56t-52.5 84.5t-20 105.5t9.5 118.5l147 757h164l-139 -718q-27 -140 19 -201.5t161 -61.5q143 0 285 127l166 854h164l-201 -1093q-83 -463 -502 -463 q-88 0 -175 25t-144 59zM631 1599h178l47 -337h-121z" />
<glyph unicode="&#x2000;" horiz-adv-x="1052" />
<glyph unicode="&#x2001;" horiz-adv-x="2105" />
<glyph unicode="&#x2002;" horiz-adv-x="1052" />
<glyph unicode="&#x2003;" horiz-adv-x="2105" />
<glyph unicode="&#x2004;" horiz-adv-x="701" />
<glyph unicode="&#x2005;" horiz-adv-x="526" />
<glyph unicode="&#x2006;" horiz-adv-x="350" />
<glyph unicode="&#x2007;" horiz-adv-x="350" />
<glyph unicode="&#x2008;" horiz-adv-x="263" />
<glyph unicode="&#x2009;" horiz-adv-x="421" />
<glyph unicode="&#x200a;" horiz-adv-x="116" />
<glyph unicode="&#x2010;" horiz-adv-x="628" d="M176 541l31 151h485l-30 -151h-486z" />
<glyph unicode="&#x2011;" horiz-adv-x="628" d="M176 541l31 151h485l-30 -151h-486z" />
<glyph unicode="&#x2012;" horiz-adv-x="628" d="M176 541l31 151h485l-30 -151h-486z" />
<glyph unicode="&#x2013;" horiz-adv-x="987" d="M176 541l31 151h844l-31 -151h-844z" />
<glyph unicode="&#x2014;" horiz-adv-x="1628" d="M176 541l31 151h1485l-31 -151h-1485z" />
<glyph unicode="&#x2018;" horiz-adv-x="503" d="M336 1036l43 226q15 78 72 160t149 157l78 -74q-39 -36 -63 -61t-57 -77t-44 -105h96l-43 -226h-231z" />
<glyph unicode="&#x2019;" horiz-adv-x="503" d="M328 1092q39 36 63 61t57 77t44 105h-97l43 226h232l-43 -226q-15 -78 -72 -160t-149 -157z" />
<glyph unicode="&#x201a;" horiz-adv-x="458" d="M45 -244q39 36 63 61.5t57 77.5t44 105h-96l43 225h231l-43 -225q-15 -78 -72 -160t-149 -157z" />
<glyph unicode="&#x201c;" horiz-adv-x="851" d="M336 1036l43 226q15 78 72 160t149 157l78 -74q-39 -36 -63 -61t-57 -77t-44 -105h96l-43 -226h-231zM684 1036l43 226q15 78 72 160t149 157l78 -74q-39 -36 -63 -61t-57 -77t-44 -105h96l-43 -226h-231z" />
<glyph unicode="&#x201d;" horiz-adv-x="851" d="M328 1092q39 36 63 61t57 77t44 105h-97l43 226h232l-43 -226q-15 -78 -72 -160t-149 -157zM676 1092q39 36 63 61t57 77t44 105h-97l43 226h232l-43 -226q-15 -78 -72 -160t-149 -157z" />
<glyph unicode="&#x201e;" horiz-adv-x="851" d="M72 -244q39 36 63 61.5t57 77.5t44 105h-97l43 225h232l-43 -225q-15 -78 -72 -160t-149 -157zM420 -244q39 36 63 61.5t57 77.5t44 105h-97l43 225h232l-43 -225q-15 -78 -72 -160t-149 -157z" />
<glyph unicode="&#x2020;" horiz-adv-x="821" d="M281 920l32 167l224 -8l71 430h191l-94 -430l227 8l-33 -167l-225 6l-201 -1010h-156l187 1010z" />
<glyph unicode="&#x2021;" horiz-adv-x="821" d="M168 338l33 168l223 -6l80 426l-223 -6l32 167l224 -8l71 430h191l-94 -430l227 8l-33 -167l-225 6l-80 -426l225 6l-33 -168l-223 8l-74 -430h-190l96 430z" />
<glyph unicode="&#x2022;" horiz-adv-x="835" d="M258 573q0 140 96 233t238 93q105 0 165 -60t60 -161q0 -142 -95 -235t-237 -93q-105 0 -166 60.5t-61 162.5z" />
<glyph unicode="&#x202f;" horiz-adv-x="421" />
<glyph unicode="&#x2030;" horiz-adv-x="2258" d="M297 965l39 196q56 289 323 289q134 0 199.5 -75t36.5 -214l-41 -196q-30 -142 -109 -213.5t-215 -71.5q-133 0 -196.5 74t-36.5 211zM414 -59l874 1552h164l-874 -1552h-164zM444 963q-12 -67 9 -103.5t96 -36.5q76 0 111 37t47 103l38 200q14 72 -8.5 108t-93.5 36 t-107.5 -36t-50.5 -108zM973 268l39 197q56 289 323 289q134 0 199.5 -75t36.5 -214l-41 -197q-30 -142 -109 -213t-215 -71q-133 0 -196.5 73.5t-36.5 210.5zM1120 266q-12 -67 9 -103t96 -36q76 0 110.5 36.5t46.5 102.5l39 201q14 72 -8.5 107.5t-93.5 35.5t-107.5 -35.5 t-50.5 -107.5zM1638 268l39 197q56 289 324 289q134 0 199 -75t36 -214l-41 -197q-30 -142 -108.5 -213t-214.5 -71q-134 0 -197.5 73.5t-36.5 210.5zM1786 266q-12 -67 8.5 -103t95.5 -36q76 0 111 36.5t47 102.5l39 201q14 72 -8.5 107.5t-93.5 35.5t-107.5 -35.5 t-50.5 -107.5z" />
<glyph unicode="&#x2039;" horiz-adv-x="702" d="M203 549l24 127l576 371l-29 -154l-354 -291l244 -283l-27 -141z" />
<glyph unicode="&#x203a;" horiz-adv-x="702" d="M133 178l29 154l354 291l-244 282l27 142l434 -371l-24 -127z" />
<glyph unicode="&#x2044;" horiz-adv-x="763" d="M31 -51l823 1536h170l-823 -1536h-170z" />
<glyph unicode="&#x205f;" horiz-adv-x="526" />
<glyph unicode="&#x20ac;" horiz-adv-x="1208" d="M139 520l25 131h104l25 131h-105l27 131h104l9 43q43 232 182 363t371 131q107 0 208.5 -29.5t176.5 -79.5l-101 -135q-149 78 -299 78q-159 0 -246.5 -88t-121.5 -260l-4 -23h395l-27 -131h-395l-25 -131h396l-25 -131h-395l-4 -22q-33 -172 20.5 -260t212.5 -88 q140 0 309 77l74 -131q-190 -112 -414 -112q-233 0 -327.5 131t-52.5 362l8 43h-105z" />
<glyph unicode="&#x2122;" horiz-adv-x="1400" d="M340 1325l20 109h514l-20 -109h-201l-127 -653h-114l127 653h-199zM819 672l148 762h88l137 -455l307 455h94l-147 -762h-107l95 485h-9l-243 -364h-49l-105 364h-8l-94 -485h-107z" />
<glyph unicode="&#x2190;" horiz-adv-x="1755" d="M264 709l656 639l110 -111q-7 -8 -463 -451h1159v-155h-1159l463 -451l-110 -110z" />
<glyph unicode="&#x2191;" horiz-adv-x="1492" d="M262 807l639 655l639 -655l-110 -111q-8 7 -451 463v-1159h-156v1159l-450 -463z" />
<glyph unicode="&#x2192;" horiz-adv-x="1755" d="M274 631v155h1160l-463 451l110 111l656 -639l-656 -639l-110 110q7 8 463 451h-1160z" />
<glyph unicode="&#x2193;" horiz-adv-x="1492" d="M229 627l111 110q8 -7 451 -463v1160h155v-1160l451 463l110 -110l-639 -656z" />
<glyph unicode="&#x2212;" horiz-adv-x="980" d="M123 532l29 148h940l-29 -148h-940z" />
<glyph unicode="&#x2260;" horiz-adv-x="976" d="M82 330l29 147h383l131 262h-463l26 148h508l82 164h90l-84 -164h344l-26 -148h-389l-129 -262h467l-29 -147h-512l-80 -162h-90l82 162h-340z" />
<glyph unicode="&#x25fc;" horiz-adv-x="1126" d="M0 0v1126h1126v-1126h-1126z" />
<glyph unicode="&#xf6c3;" horiz-adv-x="536" d="M90 -451q91 83 107 166h-78l35 185h188l-33 -166q-14 -79 -50.5 -134t-104.5 -110z" />
<glyph horiz-adv-x="1146" d="M217 500l84 434q22 117 63.5 208.5t106.5 162t160 108t215 37.5q142 0 233.5 -66.5t122.5 -182.5t2 -267l-86 -434q-101 -516 -545 -516q-142 0 -233 66.5t-121.5 182.5t-1.5 267zM393 510q-31 -164 8 -252l492 1018q-27 8 -72 8q-139 0 -226.5 -93t-121.5 -267zM524 158 q31 -8 76 -8q139 0 226 93.5t120 266.5l80 414q32 169 -6 254z" />
<glyph d="M227 500l84 434q22 117 63.5 208.5t106.5 162t160 108t215 37.5q142 0 233.5 -66.5t122.5 -182.5t2 -267l-86 -434q-101 -516 -544 -516q-142 0 -233.5 66.5t-122 182.5t-1.5 267zM403 510q-34 -173 17 -266.5t190 -93.5t226 93.5t120 266.5l80 414q35 176 -13 268 t-192 92q-139 0 -226.5 -93t-121.5 -267z" />
<glyph d="M217 0l31 160h352l211 1091l-389 -141l-39 145l500 179h137l-246 -1274h260l-30 -160h-787z" />
<glyph d="M162 0l28 147q17 90 73.5 176t132.5 154t163.5 133.5t172 125t153.5 117t111 121t42 126.5q0 90 -64 137t-177 47q-155 0 -340 -96l-62 139q83 48 196.5 85.5t239.5 37.5q173 0 279.5 -89t106.5 -228q0 -74 -26.5 -142.5t-72 -124.5t-104.5 -109t-125 -100t-133.5 -93 t-130.5 -92t-114.5 -92.5t-87 -100.5t-46.5 -109h655l-33 -170h-837z" />
<glyph d="M158 109l94 135q85 -45 161 -69.5t162 -24.5q363 0 363 313q0 190 -252 190h-207l31 156h207q77 0 143.5 30t112 97.5t45.5 161.5q0 186 -217 186q-134 0 -324 -88l-65 133q214 121 424 121q171 0 267.5 -83.5t96.5 -223.5q0 -40 -5 -79.5t-21 -87.5t-42 -89t-70.5 -79.5 t-103.5 -62.5q150 -74 150 -258q0 -77 -16 -146.5t-55.5 -136t-100.5 -114t-157.5 -77t-219.5 -29.5q-109 0 -213.5 33t-187.5 92z" />
<glyph d="M131 291l25 135l630 1008h193l-623 -983h412l86 442h174l-86 -442h229l-30 -160h-230l-55 -291h-174l55 291h-606z" />
<glyph d="M160 113l96 133q141 -96 322 -96q98 0 171 28t115 78.5t62 113t20 138.5q0 104 -58 165.5t-183 61.5q-84 0 -148.5 -18t-134.5 -53l-86 73l178 697h694l-32 -170h-545l-105 -406q92 43 213 43q181 0 280 -101.5t99 -262.5q0 -82 -15.5 -156.5t-55 -148.5t-100 -127.5 t-157.5 -87t-221 -33.5q-112 0 -227.5 37t-181.5 92z" />
<glyph d="M209 471l80 410q25 131 71.5 233.5t117.5 178.5t172 116.5t227 40.5q99 0 183 -26.5t183 -86.5l-94 -139q-138 86 -295 86q-152 0 -250 -94t-129 -260l-26 -131q150 135 337 135q169 0 265 -101t96 -266q0 -264 -149.5 -423.5t-413.5 -159.5q-210 0 -313 135.5t-62 351.5 zM383 471q-31 -159 30 -240t195 -81q161 0 262 102t101 291q0 118 -64 177.5t-176 59.5q-91 0 -172.5 -40t-142.5 -103z" />
<glyph d="M283 0l792 1264h-692l31 170h891l-25 -134l-803 -1300h-194z" />
<glyph d="M178 305q0 166 87.5 270t264.5 173q-180 100 -180 278q0 180 137 302t375 122q174 0 271.5 -87.5t97.5 -225.5q0 -249 -307 -389q209 -102 209 -302q0 -217 -143 -339.5t-410 -122.5q-184 0 -293 85.5t-109 235.5zM354 346q0 -95 69 -149t187 -54q152 0 251.5 78 t99.5 207q0 171 -248 244q-103 -28 -174 -63t-111 -77t-57 -86.5t-17 -99.5zM524 1040q0 -44 16.5 -81t49.5 -65.5t66 -49t81 -43.5q45 19 71 30.5t64.5 31.5t61.5 36t50 40.5t41 49t24 57t10 68.5q0 81 -57.5 129.5t-167.5 48.5q-145 0 -227.5 -71t-82.5 -181z" />
<glyph d="M195 94l96 142q141 -86 297 -86q153 0 252.5 94t130.5 260l24 131q-155 -135 -340 -135q-172 0 -267 97.5t-95 268.5q0 98 22.5 184.5t68.5 160t113 126.5t161 83t206 30q205 0 307.5 -135.5t61.5 -351.5l-80 -410q-27 -137 -69 -237t-109.5 -177t-168 -116t-235.5 -39 q-103 0 -202.5 28.5t-173.5 81.5zM471 891q0 -118 64 -178t176 -60q86 0 170.5 41t144.5 103l33 166q31 158 -31 239.5t-197 81.5q-161 0 -260.5 -102t-99.5 -291z" />
<glyph d="M227 500l84 434q22 117 63.5 208.5t106.5 162t160 108t215 37.5q142 0 233.5 -66.5t122.5 -182.5t2 -267l-86 -434q-101 -516 -544 -516q-142 0 -233.5 66.5t-122 182.5t-1.5 267zM403 510q-31 -162 9 -252l491 1018q-27 8 -72 8q-139 0 -226.5 -93t-121.5 -267zM535 158 q31 -8 75 -8q139 0 226 93.5t120 266.5l80 414q32 169 -6 254z" />
<glyph d="M158 125l106 133q84 -50 163.5 -79t172.5 -29q94 0 162 25t104.5 69t53 94.5t16.5 110.5q0 69 -31.5 117t-82.5 75t-112 47.5t-122 43.5t-112 53.5t-82.5 86.5t-31.5 134q0 197 107.5 311t321.5 129l28 145h144l-29 -145q89 -11 166 -43t125 -82l-105 -131 q-127 98 -291 98q-148 0 -219 -69t-71 -183q0 -46 24.5 -80.5t64.5 -54.5t91.5 -39.5t105 -35.5t105 -43.5t91.5 -62t64.5 -92.5t24.5 -134q0 -78 -13 -145.5t-45.5 -132t-83 -112t-131 -79.5t-184.5 -39l-35 -181h-143l35 183q-100 11 -194 46.5t-158 90.5z" />
<glyph d="M141 0l27 145q39 18 58.5 27.5t54.5 30t54 38t43.5 47.5t37 62.5t21.5 78t9 99.5q0 78 -8 138h-207l23 110l176 29q-2 23 -2 92q0 124 30 221.5t80.5 158.5t121 101t146 56t161.5 16q194 0 360 -107l-98 -133q-145 74 -283 74q-344 0 -344 -375q0 -73 4 -100h475 l-30 -143h-441q2 -29 2 -99q0 -275 -190 -407h670l-31 -160h-920z" />
<glyph d="M244 272l28 148h303l23 112h-305l31 148h231l-215 754h184l181 -721h10l459 721h208l-510 -754h236l-31 -148h-305l-22 -112h307l-29 -148h-307l-51 -272h-174l51 272h-303z" />
<glyph d="M207 520l24 131h105l24 131h-104l27 131h104l8 43q43 232 182 363t371 131q107 0 208.5 -29.5t176.5 -79.5l-100 -135q-149 78 -299 78q-159 0 -247.5 -88t-121.5 -260l-4 -23h395l-26 -131h-395l-25 -131h395l-24 -131h-396l-4 -22q-33 -172 21 -260t213 -88 q140 0 309 77l74 -131q-190 -112 -414 -112q-233 0 -328 131t-53 362l8 43h-104z" />
<glyph horiz-adv-x="417" d="M334 1198l100 338h176l-166 -338h-110z" />
</font>
</defs>
</svg>
