<?xml version="1.0" standalone="no"?>
<!DOCTYPE svg PUBLIC "-//W3C//DTD SVG 1.1//EN" "http://www.w3.org/Graphics/SVG/1.1/DTD/svg11.dtd" >
<svg xmlns="http://www.w3.org/2000/svg" xmlns:xlink="http://www.w3.org/1999/xlink" version="1.1">
<metadata></metadata>
<defs>
<font id="nowaylight" horiz-adv-x="1118" >
<font-face units-per-em="2048" ascent="1536" descent="-512" />
<missing-glyph horiz-adv-x="559" />
<glyph unicode="&#x2e;&#x2e;&#x2e;" horiz-adv-x="1404" d="M137 0v154h144v-154h-144zM631 0v154h143v-154h-143zM1126 0v154h144v-154h-144z" />
<glyph unicode="&#xd;" horiz-adv-x="534" />
<glyph unicode=" "  horiz-adv-x="559" />
<glyph unicode="&#x09;" horiz-adv-x="559" />
<glyph unicode="&#xa0;" horiz-adv-x="559" />
<glyph unicode="!" horiz-adv-x="428" d="M143 0v154h144v-154h-144zM158 1434h110l-18 -1084h-74z" />
<glyph unicode="&#x22;" horiz-adv-x="614" d="M127 1434h102l-10 -484h-82zM385 1434h102l-10 -484h-82z" />
<glyph unicode="#" horiz-adv-x="1040" d="M37 504l18 82h213l49 268h-221l19 82h219l57 313h84l-57 -313h276l58 313h84l-58 -313h223l-18 -82h-221l-49 -268h229l-18 -82h-226l-57 -316h-84l57 316h-276l-57 -316h-84l57 316h-217zM352 586h277l49 268h-277z" />
<glyph unicode="$" horiz-adv-x="1040" d="M94 117l49 84q196 -117 371 -117q94 0 162 23t105 65t54 92t17 113q0 70 -24.5 123t-66.5 86.5t-96.5 59.5t-114.5 45.5t-119.5 40t-114 49t-96.5 66t-66.5 97t-24.5 137.5q0 96 28.5 167t80 112.5t113 62.5t136.5 25v143h82v-143q168 -9 340 -123l-49 -88 q-81 55 -158.5 84t-175.5 29q-297 0 -297 -269q0 -60 25 -105.5t67 -74.5t96 -52t114.5 -43t120.5 -41.5t114 -53.5t96 -73t67 -105.5t25 -147.5q0 -79 -20 -145t-63 -122.5t-120 -90.5t-182 -41v-181h-82v179q-212 7 -393 133z" />
<glyph unicode="%" horiz-adv-x="1550" d="M111 975v190q0 285 260 285q258 0 258 -285v-190q0 -285 -258 -285q-260 0 -260 285zM201 1004q0 -119 35.5 -173.5t134.5 -54.5q98 0 133 54t35 174v133q0 120 -35 173.5t-133 53.5q-99 0 -134.5 -54.5t-35.5 -172.5v-133zM436 -59l576 1552h100l-575 -1552h-101z M920 268v191q0 284 260 284q258 0 258 -284v-191q0 -284 -258 -284q-260 0 -260 284zM1010 297q0 -118 35.5 -172.5t134.5 -54.5q98 0 133 53.5t35 173.5v133q0 120 -35 173.5t-133 53.5q-99 0 -134.5 -54.5t-35.5 -172.5v-133z" />
<glyph unicode="&#x26;" horiz-adv-x="1243" d="M102 371q0 146 68 244t219 147l-78 94q-112 136 -112 279q0 145 100.5 230t257.5 85q194 0 340 -104l-49 -80q-72 43 -139 64.5t-152 21.5q-114 0 -186 -57.5t-72 -159.5q0 -65 29 -125t90 -129l495 -566q50 84 82.5 202t40.5 231h97q-9 -132 -50 -267t-106 -239 l213 -242h-131l-137 160q-76 -88 -168.5 -132t-243.5 -44q-186 0 -297 100.5t-111 286.5zM205 379q0 -147 81.5 -224t225.5 -77q93 0 162 22.5t107 53t77 79.5l-403 455q-133 -35 -191.5 -112.5t-58.5 -196.5z" />
<glyph unicode="'" horiz-adv-x="356" d="M127 1434h102l-10 -484h-82z" />
<glyph unicode="(" horiz-adv-x="616" d="M117 637q0 507 336 907l73 -47q-157 -186 -230 -409.5t-73 -450.5t73 -450.5t230 -409.5l-73 -47q-336 400 -336 907z" />
<glyph unicode=")" horiz-adv-x="616" d="M88 -223q157 186 230 409.5t73 450.5t-73 450.5t-230 409.5l74 47q336 -400 336 -907t-336 -907z" />
<glyph unicode="*" horiz-adv-x="847" d="M84 1243l35 98l274 -120l-18 315h49h49l-18 -315l274 120l35 -98l-295 -84l217 -248l-82 -61l-180 270l-180 -270l-82 61l217 248z" />
<glyph unicode="+" horiz-adv-x="960" d="M20 559v92h414v428h92v-428h414v-92h-414v-426h-92v426h-414z" />
<glyph unicode="," horiz-adv-x="417" d="M113 -223q83 99 86 223h-62v154h144v-154q0 -60 -29 -132t-80 -134z" />
<glyph unicode="-" horiz-adv-x="669" d="M82 586v90h504v-90h-504z" />
<glyph unicode="." horiz-adv-x="417" d="M137 0v154h144v-154h-144z" />
<glyph unicode="/" horiz-adv-x="571" d="M-25 -162l523 1757h100l-522 -1757h-101z" />
<glyph unicode="0" horiz-adv-x="1105" d="M123 504v428q0 110 24.5 201.5t74.5 163.5t134.5 112.5t196.5 40.5q111 0 195.5 -40.5t134.5 -112.5t75 -163.5t25 -201.5v-428q0 -88 -15 -165t-48.5 -143t-83 -112.5t-122 -73t-161.5 -26.5q-112 0 -196 40t-134.5 112t-75 164t-24.5 204zM227 512q0 -75 10.5 -137.5 t34.5 -117.5t61 -92.5t92.5 -59t127.5 -21.5q88 0 152.5 32t101.5 91.5t54.5 135t17.5 169.5v410q0 95 -17.5 170.5t-54.5 134.5t-101.5 91t-152.5 32q-326 0 -326 -428v-410z" />
<glyph unicode="1" horiz-adv-x="972" d="M84 1241l463 193h84v-1338h278v-96h-757v96h374v1227l-409 -166z" />
<glyph unicode="2" horiz-adv-x="1026" d="M113 0v125q0 77 38.5 154.5t99.5 144t135 132.5t148 129.5t135 124.5t99.5 128t38.5 131q0 148 -88 215.5t-238 67.5q-159 0 -319 -111l-49 78q182 131 370 131q196 0 312 -96t116 -279q0 -78 -38 -156t-99 -144t-135 -131t-148 -128t-135 -124t-99 -129.5t-38 -135.5 v-25h692v-102h-798z" />
<glyph unicode="3" horiz-adv-x="1030" d="M84 109l45 75q180 -102 346 -102q103 0 174 26t107.5 73.5t51.5 101.5t15 123q0 137 -83 211.5t-242 74.5h-172v94h172q127 0 203.5 69t76.5 198q0 140 -75 219.5t-232 79.5q-84 0 -152 -23t-159 -74l-45 80q168 115 358 115q203 0 306.5 -104t103.5 -281 q0 -111 -52 -198t-141 -122q107 -31 170.5 -121.5t63.5 -220.5q0 -69 -13 -128t-45.5 -113.5t-82.5 -93t-128 -61.5t-178 -23q-118 0 -223 37t-170 88z" />
<glyph unicode="4" horiz-adv-x="1126" d="M96 336v88l443 1010h104l-434 -1002h502v461h104v-461h227v-96h-227v-336h-104v336h-615z" />
<glyph unicode="5" horiz-adv-x="1060" d="M106 109l46 75q180 -102 346 -102q82 0 145 21.5t101 55.5t61.5 82t32 96t8.5 103q0 154 -85.5 250t-254.5 96q-84 0 -150.5 -21.5t-136.5 -64.5l-63 41l41 693h667v-103h-579l-33 -512q111 66 256 66t245.5 -60t146.5 -158.5t46 -226.5q0 -72 -13 -135.5t-45.5 -123.5 t-82 -102.5t-127.5 -68.5t-178 -26q-108 0 -214 37t-180 88z" />
<glyph unicode="6" horiz-adv-x="1112" d="M119 457v436q0 266 123 411.5t344 145.5q105 0 188 -28.5t164 -78.5l-43 -81q-87 45 -156.5 66.5t-156.5 21.5q-166 0 -262.5 -110t-96.5 -322v-164q53 65 141 113t203 48q207 0 315.5 -125t108.5 -335q0 -216 -109 -343.5t-327 -127.5q-211 0 -323.5 128.5t-112.5 344.5 zM223 457q0 -175 84 -275t248 -100q332 0 332 373q0 173 -84 270.5t-248 97.5q-107 0 -191.5 -51t-140.5 -129v-186z" />
<glyph unicode="7" horiz-adv-x="1075" d="M102 1333v101h869v-80l-578 -1354h-117l582 1333h-756z" />
<glyph unicode="8" horiz-adv-x="1110" d="M98 373q0 143 86 233.5t242 145.5q-47 22 -80 40t-76 49.5t-70 64.5t-46 82t-19 104q0 161 111.5 259.5t308.5 98.5t308.5 -98.5t111.5 -259.5q0 -55 -19 -104t-46 -82t-70 -64.5t-76 -49.5t-80 -40q156 -55 242 -145.5t86 -233.5q0 -186 -120 -287.5t-337 -101.5 t-337 101.5t-120 287.5zM201 373q0 -142 94 -217.5t260 -75.5t260 75.5t94 217.5q0 124 -81.5 202t-272.5 127q-191 -49 -272.5 -127t-81.5 -202zM240 1092q0 -37 11 -71t27 -59t44 -49.5t51.5 -40.5t61 -34t60 -27.5t60.5 -24.5q38 15 60.5 24.5t60 27.5t61 34t51.5 40.5 t44 49.5t27 59t11 71q0 120 -79.5 191t-235.5 71t-235.5 -71t-79.5 -191z" />
<glyph unicode="9" horiz-adv-x="1112" d="M119 979q0 216 109 343.5t327 127.5q211 0 323.5 -128.5t112.5 -344.5v-436q0 -266 -123 -411.5t-344 -145.5q-179 0 -352 106l43 82q87 -45 156.5 -66.5t156.5 -21.5q166 0 262.5 110t96.5 322v164q-53 -65 -141 -113.5t-203 -48.5q-207 0 -315.5 125.5t-108.5 335.5z M223 979q0 -173 84 -271t248 -98q107 0 191.5 51.5t140.5 129.5v186q0 175 -84 275t-248 100q-332 0 -332 -373z" />
<glyph unicode=":" horiz-adv-x="417" d="M137 0v154h144v-154h-144zM137 899v154h144v-154h-144z" />
<glyph unicode=";" horiz-adv-x="417" d="M113 -223q83 99 86 223h-62v154h144v-154q0 -60 -29 -132t-80 -134zM137 899v154h144v-154h-144z" />
<glyph unicode="&#x3c;" horiz-adv-x="987" d="M102 571v66l781 432v-104l-662 -361l662 -360v-105z" />
<glyph unicode="=" horiz-adv-x="958" d="M20 360v93h920v-93h-920zM20 770v92h920v-92h-920z" />
<glyph unicode="&#x3e;" horiz-adv-x="987" d="M102 139v105l662 360l-662 361v104l781 -432v-66z" />
<glyph unicode="?" horiz-adv-x="972" d="M78 1325q178 125 379 125q198 0 307.5 -91.5t109.5 -248.5q0 -72 -24.5 -132t-64 -101.5t-87 -78t-95 -70t-87 -68t-64 -81.5t-24.5 -102v-139h-96v149q0 64 24 118t63 92t85.5 72.5t93 68.5t85.5 71t63 88.5t24 112.5q0 124 -82.5 185t-230.5 61q-166 0 -332 -103z M315 0v154h144v-154h-144z" />
<glyph unicode="@" horiz-adv-x="1540" d="M119 598q0 126 23.5 233.5t74 198t126.5 154t185.5 98.5t245.5 35q320 0 483.5 -172t163.5 -504q0 -416 -268 -416q-76 0 -125 24t-76 79h-8q-79 -103 -211 -103q-231 0 -231 275v190q0 275 231 275q121 0 193 -84l8 73h78v-497q0 -86 35.5 -117t103.5 -31q91 0 133.5 79 t42.5 253q0 586 -553 586q-149 0 -258 -46t-174 -131.5t-96 -197.5t-31 -254q0 -332 144.5 -486.5t463.5 -154.5q233 0 451 109l31 -70q-71 -46 -207.5 -87.5t-276.5 -41.5q-361 0 -531.5 179t-170.5 552zM592 512q0 -105 32 -154t121 -49q56 0 103.5 24.5t75.5 61.5v398 q-64 86 -179 86q-89 0 -121 -49t-32 -154v-164z" />
<glyph unicode="A" horiz-adv-x="1175" d="M66 0l477 1434h90l477 -1434h-111l-137 418h-549l-137 -418h-110zM340 514h496l-244 756h-8z" />
<glyph unicode="B" horiz-adv-x="1142" d="M199 0v1434h407q197 0 289 -97.5t92 -265.5q0 -116 -55 -200.5t-144 -114.5q250 -60 250 -359q0 -59 -11.5 -112t-41 -106t-76 -92t-122 -63t-173.5 -24h-415zM303 96h299q162 0 246 72t84 229q0 301 -332 301h-297v-602zM303 791h287q131 0 211 71t80 203 q0 62 -12.5 108.5t-42.5 85t-85 58.5t-135 20h-303v-546z" />
<glyph unicode="C" horiz-adv-x="1107" d="M147 465v504q0 226 111.5 353.5t339.5 127.5q70 0 130 -17.5t101.5 -43t77.5 -63.5t58 -71.5t43 -74.5l-84 -47q-66 115 -139 166t-187 51q-183 0 -264.5 -102t-81.5 -296v-473q0 -397 350 -397q115 0 187.5 51t136.5 166l86 -45q-22 -42 -43.5 -74.5t-58 -71t-77.5 -64 t-101 -43t-130 -17.5q-229 0 -342 127.5t-113 353.5z" />
<glyph unicode="D" horiz-adv-x="1257" d="M199 0v1434h393q534 0 534 -715q0 -719 -534 -719h-393zM303 96h275q442 0 442 623q0 618 -442 618h-275v-1241z" />
<glyph unicode="E" horiz-adv-x="1030" d="M199 0v1434h706v-97h-602v-549h563v-96h-563v-596h602v-96h-706z" />
<glyph unicode="F" horiz-adv-x="1015" d="M199 0v1434h702v-97h-598v-569h559v-96h-559v-672h-104z" />
<glyph unicode="G" horiz-adv-x="1183" d="M147 465v504q0 226 111.5 353.5t339.5 127.5q70 0 130 -17.5t101.5 -43t77.5 -63.5t58 -71.5t43 -74.5l-84 -47q-66 115 -139 166t-187 51q-183 0 -264.5 -102t-81.5 -296v-473q0 -192 81.5 -294.5t264.5 -102.5q136 0 219.5 49.5t120.5 114.5v395h-303v96h401v-501 q-12 -28 -28.5 -55t-52.5 -65t-81 -65.5t-117.5 -47t-158.5 -19.5q-229 0 -340 127t-111 354z" />
<glyph unicode="H" horiz-adv-x="1304" d="M199 0v1434h104v-639h698v639h105v-1434h-105v698h-698v-698h-104z" />
<glyph unicode="I" horiz-adv-x="501" d="M199 0v1434h104v-1434h-104z" />
<glyph unicode="J" horiz-adv-x="743" d="M72 2l16 94q61 -14 109 -14q47 0 83.5 9t62 24t43.5 40.5t28.5 52.5t16.5 66.5t7.5 74.5t1.5 85v1000h105v-979q0 -88 -6.5 -152t-27.5 -127.5t-57.5 -103t-98.5 -64t-148 -24.5q-67 0 -135 18z" />
<glyph unicode="K" horiz-adv-x="1110" d="M199 0v1434h104v-646h207l395 646h119l-422 -684l430 -750h-121l-395 692h-213v-692h-104z" />
<glyph unicode="L" horiz-adv-x="989" d="M199 0v1434h104v-1338h602v-96h-706z" />
<glyph unicode="M" horiz-adv-x="1499" d="M195 0v1434h77l478 -959l477 959h78v-1434h-99v1159h-8l-428 -864h-41l-428 864h-8v-1159h-98z" />
<glyph unicode="N" horiz-adv-x="1316" d="M195 0v1434h77l744 -1201h8v1201h98v-1434h-82l-739 1200h-8v-1200h-98z" />
<glyph unicode="O" horiz-adv-x="1200" d="M147 465v504q0 225 113 353t340 128q229 0 341 -128t112 -353v-504q0 -225 -112 -353t-341 -128q-227 0 -340 128t-113 353zM252 481q0 -193 82.5 -296t265.5 -103q185 0 266.5 102.5t81.5 296.5v471q0 194 -81.5 296t-266.5 102q-183 0 -265.5 -102.5t-82.5 -295.5v-471 z" />
<glyph unicode="P" horiz-adv-x="1128" d="M199 0v1434h352q251 0 363 -103.5t112 -331.5q0 -217 -111.5 -326.5t-353.5 -109.5h-258v-563h-104zM303 659h260q102 0 173 24t110.5 71.5t56.5 107.5t17 142q0 84 -17.5 142.5t-59 103t-114.5 66t-180 21.5h-246v-678z" />
<glyph unicode="Q" horiz-adv-x="1202" d="M147 465v504q0 225 113 353t340 128q229 0 341 -128t112 -353v-504q0 -198 -86 -322l159 -149l-61 -72l-162 154q-115 -92 -303 -92q-227 0 -340 128t-113 353zM252 481q0 -193 82.5 -296t265.5 -103q144 0 225 63l-155 148l63 67l154 -147q61 96 61 268v471 q0 194 -81.5 296t-266.5 102q-183 0 -265.5 -102.5t-82.5 -295.5v-471z" />
<glyph unicode="R" horiz-adv-x="1169" d="M199 0v1434h358q246 0 358.5 -103t112.5 -317q0 -334 -283 -400l320 -614h-117l-309 594h-336v-594h-104zM303 690h258q195 0 278 81t83 243q0 167 -84 245t-287 78h-248v-647z" />
<glyph unicode="S" horiz-adv-x="1040" d="M94 117l49 84q196 -117 371 -117q94 0 162 23t105 65t54 92t17 113q0 70 -24.5 123t-66.5 86.5t-96.5 59.5t-114.5 45.5t-119.5 40t-114 49t-96.5 66t-66.5 97t-24.5 137.5q0 82 22 146.5t59 106t89 68t108.5 37.5t120.5 11q199 0 381 -125l-49 -88q-81 55 -158.5 84 t-175.5 29q-297 0 -297 -269q0 -60 25 -105.5t67 -74.5t96 -52t114.5 -43t120.5 -41.5t114 -53.5t96 -73t67 -105.5t25 -147.5q0 -84 -22 -153t-71 -126.5t-137 -89.5t-210 -32q-129 0 -228.5 35.5t-191.5 97.5z" />
<glyph unicode="T" horiz-adv-x="1075" d="M84 1337v97h907v-97h-401v-1337h-105v1337h-401z" />
<glyph unicode="U" horiz-adv-x="1241" d="M174 438v996h105v-979q0 -184 78 -278.5t264 -94.5t264 94.5t78 278.5v979h104v-996q0 -454 -446 -454q-447 0 -447 454z" />
<glyph unicode="V" horiz-adv-x="1130" d="M63 1434h113l385 -1303h8l385 1303h113l-438 -1434h-129z" />
<glyph unicode="W" horiz-adv-x="1683" d="M63 1434h113l301 -1297h8l303 1297h107l303 -1297h8l301 1297h113l-350 -1434h-135l-289 1217h-8l-289 -1217h-135z" />
<glyph unicode="X" horiz-adv-x="1007" d="M55 0l389 739l-366 695h119l303 -594h8l303 594h119l-367 -695l389 -739h-114l-330 637h-8l-330 -637h-115z" />
<glyph unicode="Y" horiz-adv-x="1120" d="M59 1434h117l381 -762h8l379 762h119l-451 -871v-563h-104v563z" />
<glyph unicode="Z" horiz-adv-x="1042" d="M115 0v80l688 1259h-660v95h787v-78l-688 -1262h688v-94h-815z" />
<glyph unicode="[" horiz-adv-x="624" d="M180 -238v1749h344v-92h-245v-1564h245v-93h-344z" />
<glyph unicode="\" horiz-adv-x="571" d="M-25 1595h101l522 -1757h-100z" />
<glyph unicode="]" horiz-adv-x="624" d="M100 -145h246v1564h-246v92h344v-1749h-344v93z" />
<glyph unicode="^" horiz-adv-x="989" d="M37 750l422 786h69l422 -786h-102l-354 667l-355 -667h-102z" />
<glyph unicode="_" horiz-adv-x="1046" d="M70 -82h905v-80h-905v80z" />
<glyph unicode="`" horiz-adv-x="798" d="M283 1599h110l119 -331h-74z" />
<glyph unicode="a" horiz-adv-x="1046" d="M117 297q0 91 38 164t101 120t151 78.5t182 44.5t199 13v86q0 244 -276 244q-56 0 -113.5 -12.5t-95 -26.5t-102.5 -41l-31 80q184 92 342 92q375 0 375 -357v-782h-78l-14 152q-47 -74 -131 -121t-199 -47q-162 0 -255 86.5t-93 226.5zM217 297q0 -106 72.5 -166.5 t193.5 -60.5q107 0 194.5 64t110.5 134v367q-119 0 -217.5 -17.5t-180 -55t-127.5 -105t-46 -160.5z" />
<glyph unicode="b" horiz-adv-x="1071" d="M176 0v1536h100v-547q50 60 133 105t189 45q178 0 268 -108t90 -308v-324q0 -200 -89.5 -307.5t-268.5 -107.5q-107 0 -190.5 45t-135.5 104l-18 -133h-78zM276 221q126 -145 295 -145q152 0 218.5 82.5t66.5 251.5v303q0 168 -67 251t-218 83q-165 0 -295 -146v-680z " />
<glyph unicode="c" horiz-adv-x="913" d="M117 412v297q0 206 95 318t296 112q116 0 192 -45t136 -127l-68 -54q-59 71 -116 102.5t-144 31.5t-145 -25.5t-89.5 -79t-44 -122.5t-12.5 -169v-229q0 -171 66.5 -258.5t224.5 -87.5q90 0 149 28.5t115 98.5l66 -56q-59 -82 -138 -122.5t-192 -40.5q-199 0 -295 112 t-96 316z" />
<glyph unicode="d" horiz-adv-x="1064" d="M117 399v324q0 200 90 308t268 108q106 0 189 -45t133 -105v547h100v-1536h-78l-18 133q-52 -59 -135.5 -104t-190.5 -45q-179 0 -268.5 107.5t-89.5 307.5zM217 410q0 -169 66.5 -251.5t218.5 -82.5q169 0 295 145v680q-130 146 -295 146q-151 0 -218 -83t-67 -251v-303 z" />
<glyph unicode="e" horiz-adv-x="993" d="M117 393v316q0 204 94.5 317t290.5 113q385 0 385 -430v-187h-670v-141q0 -144 66.5 -224.5t226.5 -80.5q100 0 167.5 23t145.5 73l41 -76q-158 -112 -354 -112q-203 0 -298 107t-95 302zM217 608h574v90q0 173 -66.5 261t-222.5 88q-154 0 -219.5 -88t-65.5 -261v-90z " />
<glyph unicode="f" horiz-adv-x="718" d="M66 1032v78l194 10v86q0 336 281 336q84 0 149 -35l-26 -80q-56 23 -115 23q-103 0 -146 -58.5t-43 -164.5v-107h295v-88h-295v-1032h-100v1032h-194z" />
<glyph unicode="g" horiz-adv-x="1050" d="M117 399v324q0 200 90 308t268 108q106 0 190 -45t136 -105l18 131h78v-1104q0 -80 -9.5 -142.5t-35 -121t-67 -97.5t-110 -62t-159.5 -23q-105 0 -198 31.5t-148 72.5l41 72q82 -44 145.5 -64t159.5 -20q278 0 281 301v170q-50 -60 -133 -104.5t-189 -44.5 q-179 0 -268.5 107.5t-89.5 307.5zM217 410q0 -168 67 -251t218 -83q166 0 295 145v680q-127 146 -295 146q-152 0 -218.5 -82.5t-66.5 -251.5v-303z" />
<glyph unicode="h" horiz-adv-x="1122" d="M176 0v1536h100v-559q26 26 57.5 50t78 51.5t105.5 44t120 16.5q75 0 132 -21t92.5 -56t57.5 -86.5t30.5 -107t8.5 -123.5v-745h-100v762q0 141 -62 209.5t-194 68.5q-165 0 -326 -149v-891h-100z" />
<glyph unicode="i" horiz-adv-x="452" d="M162 1339v144h135v-144h-135zM178 0v1120h101v-1120h-101z" />
<glyph unicode="j" horiz-adv-x="446" d="M-141 -393l22 82q70 -19 113 -19q107 0 145.5 57t38.5 167v1226h101v-1206q0 -169 -62.5 -252.5t-216.5 -83.5q-81 0 -141 29zM162 1339v144h135v-144h-135z" />
<glyph unicode="k" horiz-adv-x="978" d="M176 0v1536h100v-887h213l310 471h114l-338 -508l345 -612h-117l-307 561h-220v-561h-100z" />
<glyph unicode="l" horiz-adv-x="442" d="M176 0v1536h100v-1536h-100z" />
<glyph unicode="m" horiz-adv-x="1746" d="M174 0v1120h78l14 -151q25 26 55.5 50.5t78 54t108.5 47.5t125 18q198 0 266 -170q36 36 83 70t131 67t167 33q303 0 303 -394v-745h-100v762q0 142 -55.5 210t-182.5 68q-162 0 -321 -147q12 -71 12 -148v-745h-100v762q0 142 -55.5 210t-182.5 68q-163 0 -324 -149 v-891h-100z" />
<glyph unicode="n" horiz-adv-x="1116" d="M174 0v1120h78l14 -151q25 26 55.5 50.5t78 54t108.5 47.5t125 18q75 0 132 -21t92 -56t57 -87t30 -107t8 -123v-745h-100v762q0 141 -61 209.5t-193 68.5q-163 0 -324 -149v-891h-100z" />
<glyph unicode="o" horiz-adv-x="1013" d="M117 412v297q0 205 95.5 317.5t295.5 112.5q389 0 389 -430v-297q0 -428 -389 -428q-200 0 -295.5 112t-95.5 316zM217 422q0 -171 66.5 -258.5t224.5 -87.5q86 0 143.5 25.5t89.5 78.5t45 122t13 167v229q0 173 -66.5 261t-224.5 88q-87 0 -145 -25.5t-89.5 -79 t-44 -122.5t-12.5 -169v-229z" />
<glyph unicode="p" horiz-adv-x="1071" d="M174 -414v1534h78l18 -131q52 60 136 105t190 45q178 0 268 -108t90 -308v-324q0 -200 -89.5 -307.5t-268.5 -107.5q-106 0 -189 44.5t-133 104.5v-547h-100zM274 221q129 -145 295 -145q151 0 218 83t67 251v303q0 169 -66.5 251.5t-218.5 82.5q-168 0 -295 -146v-680z " />
<glyph unicode="q" horiz-adv-x="1067" d="M117 399v324q0 200 90 308t268 108q106 0 190 -45t136 -105l18 131h78v-1534h-100v547q-50 -60 -133 -104.5t-189 -44.5q-179 0 -268.5 107.5t-89.5 307.5zM217 410q0 -168 67 -251t218 -83q166 0 295 145v680q-127 146 -295 146q-152 0 -218.5 -82.5t-66.5 -251.5v-303z " />
<glyph unicode="r" horiz-adv-x="735" d="M174 0v1120h78l14 -180q22 32 52.5 63t74.5 63.5t104 52.5t124 20q40 0 84 -13l-19 -98q-43 12 -86 12q-103 0 -192 -58.5t-134 -129.5v-852h-100z" />
<glyph unicode="s" horiz-adv-x="872" d="M80 86l41 76q162 -90 307 -90q277 0 277 227q0 55 -20.5 96.5t-55 67.5t-79.5 46t-95 35.5t-99.5 31.5t-94.5 38t-79.5 51.5t-55 76.5t-20.5 108q0 141 89.5 215t250.5 74q173 0 306 -92l-41 -74q-132 78 -262 78q-246 0 -246 -197q0 -52 25.5 -90.5t67.5 -60.5t95.5 -43 t109.5 -36.5t109.5 -41.5t95.5 -58t67.5 -86.5t25.5 -126.5q0 -155 -89 -241t-280 -86q-96 0 -189.5 30.5t-160.5 71.5z" />
<glyph unicode="t" horiz-adv-x="768" d="M59 1032v76l201 12v232l100 14v-246h304v-88h-304v-737q0 -112 38.5 -160.5t140.5 -48.5q55 0 133 20l24 -77q-75 -35 -168 -35q-147 0 -207.5 79t-60.5 255v704h-201z" />
<glyph unicode="u" horiz-adv-x="1107" d="M166 375v745h100v-762q0 -141 61 -209.5t193 -68.5q163 0 324 149v891h100v-1120h-78l-14 152q-25 -26 -55.5 -50.5t-78 -54t-108.5 -47.5t-125 -18q-93 0 -158 30.5t-99 87.5t-48 123t-14 152z" />
<glyph unicode="v" horiz-adv-x="954" d="M53 1120h107l313 -1001h8l314 1001h106l-366 -1120h-115q-3 6 -367 1120z" />
<glyph unicode="w" horiz-adv-x="1429" d="M59 1120h103l256 -1005h8l246 1005h86l246 -1005h8l256 1005h102l-301 -1120h-123l-227 903h-8l-228 -903h-123z" />
<glyph unicode="x" horiz-adv-x="909" d="M59 0l340 573l-319 547h108l261 -463h8l264 463h113l-324 -547l338 -573h-109l-278 494h-8l-283 -494h-111z" />
<glyph unicode="y" horiz-adv-x="956" d="M55 1120h109l311 -1001h8l308 1001h108l-491 -1534h-101l137 414h-26z" />
<glyph unicode="z" horiz-adv-x="944" d="M98 0v84l625 948h-602v88h721v-78l-623 -950h637v-92h-758z" />
<glyph unicode="{" horiz-adv-x="739" d="M92 590v94h45q75 0 108.5 56.5t33.5 168.5v357q0 124 56.5 184.5t156.5 60.5h92v-92h-92q-113 0 -113 -139v-346q0 -132 -31 -200.5t-110 -92.5v-8q79 -24 110 -92.5t31 -200.5v-346q0 -139 113 -139h92v-93h-92q-99 0 -156 61t-57 185v357q0 112 -33.5 168.5 t-108.5 56.5h-45z" />
<glyph unicode="|" horiz-adv-x="450" d="M174 -238v1809h100v-1809h-100z" />
<glyph unicode="}" horiz-adv-x="739" d="M154 -145h92q112 0 112 139v346q0 132 31.5 200.5t110.5 92.5v8q-79 24 -110.5 92.5t-31.5 200.5v346q0 139 -112 139h-92v92h92q100 0 156.5 -60.5t56.5 -184.5v-357q0 -112 33.5 -168.5t107.5 -56.5h45v-94h-45q-74 0 -107.5 -56.5t-33.5 -168.5v-357q0 -124 -57 -185 t-156 -61h-92v93z" />
<glyph unicode="&#xa1;" horiz-adv-x="428" d="M143 956v154h144v-154h-144zM158 -324l18 1084h74l18 -1084h-110z" />
<glyph unicode="&#xa2;" horiz-adv-x="880" d="M104 522v375q0 186 83 283t264 106v148h84v-150q153 -10 284 -104l-43 -76q-153 90 -291 90q-74 0 -126.5 -17t-82 -44.5t-46 -74.5t-21 -93t-4.5 -115v-281q0 -69 4.5 -115t21 -93t46 -74.5t82 -44.5t126.5 -17q80 0 147 23t144 69l43 -75q-136 -97 -284 -107v-135h-84 v133q-181 9 -264 106t-83 283z" />
<glyph unicode="&#xa3;" horiz-adv-x="1099" d="M72 698v68l172 18q-47 167 -47 265q0 106 36 185.5t98.5 124t135.5 66t156 21.5q187 0 356 -103l-41 -81q-90 44 -161 65t-152 21q-62 0 -115.5 -14t-102.5 -46t-77.5 -94.5t-28.5 -149.5q0 -106 47 -258h471v-88h-448q43 -169 43 -280q0 -104 -45 -190.5t-109 -131.5 h729v-96h-885v90q87 36 150 120t63 214q0 96 -49 274h-196z" />
<glyph unicode="&#xa4;" horiz-adv-x="1175" d="M115 258l164 162q-74 99 -74 256q0 158 76 256l-166 164l67 63l164 -164q99 74 242 74q140 0 239 -74l164 164l68 -63l-164 -164q76 -98 76 -256t-76 -256l164 -162l-68 -63l-162 161q-98 -73 -241 -73q-141 0 -244 73l-162 -161zM307 676q0 -141 70 -219t211 -78 t210.5 78t69.5 219t-69.5 219t-210.5 78t-211 -78t-70 -219z" />
<glyph unicode="&#xa5;" horiz-adv-x="1120" d="M59 1434h115l383 -764h8l381 764h117l-401 -777h288v-92h-338v-145h338v-92h-338v-328h-104v328h-338v92h338v145h-338v92h289z" />
<glyph unicode="&#xa6;" horiz-adv-x="448" d="M174 -238v828h100v-828h-100zM174 743v828h100v-828h-100z" />
<glyph unicode="&#xa7;" horiz-adv-x="1007" d="M88 580q0 166 125 276q-104 91 -104 248q0 170 103 258t294 88q214 0 377 -100l-41 -86q-172 88 -336 88q-295 0 -295 -246q0 -60 24 -106.5t65 -76t94 -52.5t111.5 -42t117.5 -39.5t112 -49t94 -66t65 -96.5t24 -134q0 -164 -125 -274q104 -91 104 -248 q0 -170 -103 -258t-294 -88q-197 0 -375 102l39 86q170 -90 336 -90q295 0 295 246q0 60 -24 106.5t-65 76t-94 52.5t-112 42t-117.5 39t-111.5 49t-94 66t-65 95.5t-24 133.5zM190 588q0 -64 25 -113.5t63 -78.5t94.5 -54.5t109 -41t118 -37.5t109.5 -44q50 34 78 91 t28 126q0 65 -25 114.5t-62.5 79t-94.5 55t-109 41t-117.5 37.5t-109.5 44q-50 -34 -78.5 -91.5t-28.5 -127.5z" />
<glyph unicode="&#xa8;" horiz-adv-x="833" d="M178 1331v144h139v-144h-139zM514 1331v144h139v-144h-139z" />
<glyph unicode="&#xa9;" horiz-adv-x="1665" d="M68 782q0 370 202.5 584.5t565.5 214.5t565.5 -214.5t202.5 -584.5t-202.5 -584t-565.5 -214t-565.5 214t-202.5 584zM162 782q0 -330 175 -518t499 -188q323 0 497 188t174 518t-174 518.5t-497 188.5q-324 0 -499 -188.5t-175 -518.5zM520 657v236q0 158 76 247t231 89 q172 0 267 -156l-68 -45q-37 62 -83.5 89.5t-115.5 27.5q-120 0 -168.5 -64.5t-48.5 -197.5v-215q0 -132 49.5 -197t169.5 -65q70 0 116.5 26.5t84.5 89.5l68 -45q-91 -155 -269 -155q-155 0 -232 88.5t-77 246.5z" />
<glyph unicode="&#xaa;" horiz-adv-x="729" d="M100 899q0 75 36 130t99 85.5t138.5 45t165.5 14.5v51q0 147 -170 147q-83 0 -207 -57l-29 65q116 70 244 70t187 -60.5t59 -179.5v-516h-68l-10 92q-32 -45 -86 -73.5t-125 -28.5q-107 0 -170.5 60t-63.5 155zM182 901q0 -65 46.5 -104t119.5 -39t125 37.5t68 83.5v227 q-75 0 -136 -10t-113 -32.5t-81 -64t-29 -98.5z" />
<glyph unicode="&#xab;" horiz-adv-x="1105" d="M92 575v74l479 359v-90l-352 -306l352 -305v-90zM535 575v74l479 359v-90l-352 -306l352 -305v-90z" />
<glyph unicode="&#xac;" horiz-adv-x="1058" d="M20 635v92h1018v-559h-92v467h-926z" />
<glyph unicode="&#xad;" horiz-adv-x="669" d="M82 586v90h504v-90h-504z" />
<glyph unicode="&#xae;" horiz-adv-x="1060" d="M80 997q0 207 120 330t330 123q209 0 330 -123t121 -330q0 -208 -120.5 -330t-330.5 -122q-211 0 -330.5 121.5t-119.5 330.5zM143 997q0 -183 101 -288t286 -105t285 105t100 288t-100 288.5t-285 105.5t-286 -105.5t-101 -288.5zM379 729v541h151q177 0 177 -170 q0 -76 -35 -114.5t-84 -47.5l121 -209h-68l-111 203h-92v-203h-59zM438 987h101q108 0 108 113q0 56 -27.5 85t-91.5 29h-90v-227z" />
<glyph unicode="&#xaf;" horiz-adv-x="718" d="M109 1401v88h499v-88h-499z" />
<glyph unicode="&#xb0;" horiz-adv-x="634" d="M57 1243q0 108 71.5 182t188.5 74t189 -74.5t72 -181.5t-72 -181.5t-189 -74.5t-188.5 74t-71.5 182zM143 1243q0 -75 48 -124.5t126 -49.5t126.5 49.5t48.5 124.5t-48.5 124.5t-126.5 49.5t-126 -49.5t-48 -124.5z" />
<glyph unicode="&#xb1;" horiz-adv-x="960" d="M20 66v92h920v-92h-920zM20 690v92h414v428h92v-428h414v-92h-414v-426h-92v426h-414z" />
<glyph unicode="&#xb2;" horiz-adv-x="837" d="M135 1348q129 96 262 96q129 0 213 -66t84 -180q0 -54 -25 -104.5t-64.5 -91t-87.5 -79.5t-96 -76t-87.5 -73.5t-64.5 -79t-25 -86.5v-14h452v-92h-551v100q0 61 33.5 119.5t83 102.5t108 91.5t108 88t83 90.5t33.5 100q0 73 -58.5 115.5t-148.5 42.5q-101 0 -207 -76z " />
<glyph unicode="&#xb3;" horiz-adv-x="837" d="M123 569l39 72q124 -59 221 -59q124 0 172.5 50.5t48.5 135.5q0 81 -53 123.5t-139 42.5h-127v92h127q76 0 119.5 40.5t43.5 119.5q0 166 -198 166q-98 0 -191 -64l-45 68q117 88 250 88t209 -69t76 -181q0 -73 -31.5 -128.5t-87.5 -78.5q148 -49 148 -219 q0 -127 -77 -203t-245 -76q-139 0 -260 80z" />
<glyph unicode="&#xb4;" horiz-adv-x="798" d="M287 1268l119 331h110l-156 -331h-73z" />
<glyph unicode="&#xb5;" horiz-adv-x="1107" d="M166 -414v1534h100v-776q0 -137 61.5 -200.5t192.5 -63.5q163 0 324 149v891h100v-1120h-78l-14 152q-25 -26 -55.5 -50.5t-78 -54t-108.5 -47.5t-125 -18q-142 0 -219 71v-467h-100z" />
<glyph unicode="&#xb6;" horiz-adv-x="1069" d="M53 1036q0 172 108.5 285t303.5 113h555v-91h-131v-1757h-94v1757h-199v-1757h-94v1057h-64q-175 0 -280 106.5t-105 286.5z" />
<glyph unicode="&#xb7;" horiz-adv-x="417" d="M137 557v154h144v-154h-144z" />
<glyph unicode="&#xb8;" horiz-adv-x="811" d="M229 -387l21 63q73 -22 123 -22q61 0 92 17t31 63q0 78 -99 78q-34 0 -75 -13l-43 33l36 193h80l-43 -154q39 8 72 8q67 0 109 -34.5t42 -110.5q0 -152 -190 -152q-75 0 -156 31z" />
<glyph unicode="&#xb9;" horiz-adv-x="837" d="M147 1313l293 121h80v-840h166v-92h-485v92h219v737l-242 -96z" />
<glyph unicode="&#xba;" horiz-adv-x="729" d="M100 971v192q0 137 65 212t200 75q262 0 262 -287v-192q0 -287 -262 -287q-135 0 -200 75.5t-65 211.5zM184 979q0 -107 41.5 -161t139.5 -54q104 0 141 59t37 185v149q0 106 -41 159.5t-137 53.5q-104 0 -142.5 -59.5t-38.5 -184.5v-147z" />
<glyph unicode="&#xbb;" horiz-adv-x="1105" d="M92 217v90l352 305l-352 306v90l479 -359v-74zM535 217v90l352 305l-352 306v90l479 -359v-74z" />
<glyph unicode="&#xbc;" horiz-adv-x="1947" d="M145 1313l293 121h80v-840h166v-92h-485v92h219v737l-242 -96zM702 -162l523 1757h100l-522 -1757h-101zM1165 195v86l289 651h100l-282 -637h307v295h100v-295h119v-100h-119v-195h-100v195h-414z" />
<glyph unicode="&#xbd;" horiz-adv-x="1947" d="M145 1313l293 121h80v-840h166v-92h-485v92h219v737l-242 -96zM702 -162l523 1757h100l-522 -1757h-101zM1237 846q129 96 262 96q129 0 213 -66t84 -180q0 -54 -25 -104.5t-64.5 -91t-87.5 -79.5t-96 -76t-87.5 -73.5t-64.5 -79t-25 -86.5v-14h452v-92h-551v100 q0 61 33.5 119.5t83 102.5t108 91.5t108 88t83 90.5t33.5 100q0 73 -58.5 115.5t-148.5 42.5q-101 0 -207 -76z" />
<glyph unicode="&#xbe;" horiz-adv-x="1947" d="M123 569l39 72q124 -59 221 -59q124 0 172.5 50.5t48.5 135.5q0 81 -53 123.5t-139 42.5h-127v92h127q76 0 119.5 40.5t43.5 119.5q0 166 -198 166q-98 0 -191 -64l-45 68q117 88 250 88t209 -69t76 -181q0 -73 -31.5 -128.5t-87.5 -78.5q148 -49 148 -219 q0 -127 -77 -203t-245 -76q-139 0 -260 80zM694 -162l523 1757h100l-522 -1757h-101zM1165 195v86l289 651h100l-282 -637h307v295h100v-295h119v-100h-119v-195h-100v195h-414z" />
<glyph unicode="&#xbf;" horiz-adv-x="972" d="M98 0q0 72 24.5 132t64 101.5t87.5 78t95.5 70t87 68t64 81.5t24.5 102v139h96v-149q0 -64 -24 -118t-63 -92t-85.5 -72.5t-93 -68.5t-85.5 -71t-63 -88.5t-24 -112.5q0 -124 82.5 -185t230.5 -61q166 0 332 103l47 -72q-178 -125 -379 -125q-199 0 -308.5 91.5 t-109.5 248.5zM514 956v154h143v-154h-143z" />
<glyph unicode="&#xc0;" horiz-adv-x="1175" d="M66 0l477 1434h90l477 -1434h-111l-137 418h-549l-137 -418h-110zM340 514h496l-244 756h-8zM408 1907h110l119 -332h-74z" />
<glyph unicode="&#xc1;" horiz-adv-x="1175" d="M66 0l477 1434h90l477 -1434h-111l-137 418h-549l-137 -418h-110zM340 514h496l-244 756h-8zM535 1575l118 332h111l-156 -332h-73z" />
<glyph unicode="&#xc2;" horiz-adv-x="1175" d="M66 0l477 1434h90l477 -1434h-111l-137 418h-549l-137 -418h-110zM315 1575l224 332h102l223 -332h-82l-192 233l-193 -233h-82zM340 514h496l-244 756h-8z" />
<glyph unicode="&#xc3;" horiz-adv-x="1175" d="M66 0l477 1434h90l477 -1434h-111l-137 418h-549l-137 -418h-110zM270 1651q65 159 181 159q39 0 78 -17t66.5 -38t61.5 -38t64 -17q36 0 62 22.5t57 79.5l65 -33q-67 -157 -180 -157q-39 0 -78 17t-66.5 38t-61.5 38t-64 17q-69 0 -117 -98zM340 514h496l-244 756h-8z " />
<glyph unicode="&#xc4;" horiz-adv-x="1175" d="M66 0l477 1434h90l477 -1434h-111l-137 418h-549l-137 -418h-110zM340 514h496l-244 756h-8zM352 1638v144h140v-144h-140zM688 1638v144h139v-144h-139z" />
<glyph unicode="&#xc5;" horiz-adv-x="1175" d="M66 0l477 1434h90l477 -1434h-111l-137 418h-549l-137 -418h-110zM340 514h496l-244 756h-8zM389 1741q0 91 55 143.5t146 52.5t146 -52.5t55 -143.5t-55.5 -144t-145.5 -53t-145.5 53t-55.5 144zM467 1741q0 -56 32.5 -88.5t90.5 -32.5t90.5 32.5t32.5 88.5t-32.5 88.5 t-90.5 32.5t-90.5 -32.5t-32.5 -88.5z" />
<glyph unicode="&#xc6;" horiz-adv-x="1622" d="M66 0l477 1434h954v-97h-833l182 -549h612v-96h-584l191 -596h434v-96h-500l-137 418h-549l-137 -418h-110zM340 514h496l-244 756h-8z" />
<glyph unicode="&#xc7;" horiz-adv-x="1107" d="M147 465v504q0 226 111.5 353.5t339.5 127.5q70 0 130 -17.5t101.5 -43t77.5 -63.5t58 -71.5t43 -74.5l-84 -47q-66 115 -139 166t-187 51q-183 0 -264.5 -102t-81.5 -296v-473q0 -397 350 -397q115 0 187.5 51t136.5 166l86 -45q-28 -52 -57.5 -92t-77 -83t-114.5 -68 t-149 -27l-30 -113q39 8 71 8q67 0 109.5 -34.5t42.5 -110.5q0 -152 -191 -152q-74 0 -155 31l20 63q73 -22 123 -22q61 0 92 17t31 63q0 78 -98 78q-35 0 -76 -13l-43 33l29 156q-197 17 -294.5 142.5t-97.5 334.5z" />
<glyph unicode="&#xc8;" horiz-adv-x="1030" d="M199 0v1434h706v-97h-602v-549h563v-96h-563v-596h602v-96h-706zM401 1907h111l119 -332h-74z" />
<glyph unicode="&#xc9;" horiz-adv-x="1030" d="M199 0v1434h706v-97h-602v-549h563v-96h-563v-596h602v-96h-706zM487 1575l119 332h111l-156 -332h-74z" />
<glyph unicode="&#xca;" horiz-adv-x="1030" d="M199 0v1434h706v-97h-602v-549h563v-96h-563v-596h602v-96h-706zM285 1575l223 332h102l224 -332h-82l-193 233l-192 -233h-82z" />
<glyph unicode="&#xcb;" horiz-adv-x="1030" d="M199 0v1434h706v-97h-602v-549h563v-96h-563v-596h602v-96h-706zM317 1638v144h140v-144h-140zM653 1638v144h140v-144h-140z" />
<glyph unicode="&#xcc;" horiz-adv-x="501" d="M84 1907h111l118 -332h-73zM199 0v1434h104v-1434h-104z" />
<glyph unicode="&#xcd;" horiz-adv-x="501" d="M197 1575l118 332h111l-156 -332h-73zM199 0v1434h104v-1434h-104z" />
<glyph unicode="&#xce;" horiz-adv-x="501" d="M-16 1575l223 332h102l223 -332h-81l-193 233l-192 -233h-82zM199 0v1434h104v-1434h-104z" />
<glyph unicode="&#xcf;" horiz-adv-x="501" d="M16 1638v144h140v-144h-140zM199 0v1434h104v-1434h-104zM352 1638v144h140v-144h-140z" />
<glyph unicode="&#xd0;" horiz-adv-x="1257" d="M70 682v90h129v662h393q534 0 534 -715q0 -719 -534 -719h-393v682h-129zM303 96h275q442 0 442 623q0 618 -442 618h-275v-565h342v-90h-342v-586z" />
<glyph unicode="&#xd1;" horiz-adv-x="1316" d="M195 0v1434h77l744 -1201h8v1201h98v-1434h-82l-739 1200h-8v-1200h-98zM352 1651q65 159 180 159q49 0 97.5 -27.5t92.5 -55t81 -27.5q36 0 62 22.5t57 79.5l65 -33q-67 -157 -180 -157q-39 0 -78 17t-66.5 38t-61.5 38t-64 17q-69 0 -117 -98z" />
<glyph unicode="&#xd2;" horiz-adv-x="1200" d="M147 465v504q0 225 113 353t340 128q229 0 341 -128t112 -353v-504q0 -225 -112 -353t-341 -128q-227 0 -340 128t-113 353zM252 481q0 -193 82.5 -296t265.5 -103q185 0 266.5 102.5t81.5 296.5v471q0 194 -81.5 296t-266.5 102q-183 0 -265.5 -102.5t-82.5 -295.5v-471 zM428 1907h111l118 -332h-73z" />
<glyph unicode="&#xd3;" horiz-adv-x="1200" d="M147 465v504q0 225 113 353t340 128q229 0 341 -128t112 -353v-504q0 -225 -112 -353t-341 -128q-227 0 -340 128t-113 353zM252 481q0 -193 82.5 -296t265.5 -103q185 0 266.5 102.5t81.5 296.5v471q0 194 -81.5 296t-266.5 102q-183 0 -265.5 -102.5t-82.5 -295.5v-471 zM520 1575l119 332h111l-156 -332h-74z" />
<glyph unicode="&#xd4;" horiz-adv-x="1200" d="M147 465v504q0 225 113 353t340 128q229 0 341 -128t112 -353v-504q0 -225 -112 -353t-341 -128q-227 0 -340 128t-113 353zM252 481q0 -193 82.5 -296t265.5 -103q185 0 266.5 102.5t81.5 296.5v471q0 194 -81.5 296t-266.5 102q-183 0 -265.5 -102.5t-82.5 -295.5v-471 zM332 1575l223 332h102l224 -332h-82l-193 233l-192 -233h-82z" />
<glyph unicode="&#xd5;" horiz-adv-x="1200" d="M147 465v504q0 225 113 353t340 128q229 0 341 -128t112 -353v-504q0 -225 -112 -353t-341 -128q-227 0 -340 128t-113 353zM252 481q0 -193 82.5 -296t265.5 -103q185 0 266.5 102.5t81.5 296.5v471q0 194 -81.5 296t-266.5 102q-183 0 -265.5 -102.5t-82.5 -295.5v-471 zM287 1651q65 159 180 159q39 0 78 -17t66.5 -38t61.5 -38t64 -17q36 0 62 22.5t57 79.5l66 -33q-67 -157 -181 -157q-39 0 -78 17t-66.5 38t-61.5 38t-64 17q-69 0 -117 -98z" />
<glyph unicode="&#xd6;" horiz-adv-x="1200" d="M147 465v504q0 225 113 353t340 128q229 0 341 -128t112 -353v-504q0 -225 -112 -353t-341 -128q-227 0 -340 128t-113 353zM252 481q0 -193 82.5 -296t265.5 -103q185 0 266.5 102.5t81.5 296.5v471q0 194 -81.5 296t-266.5 102q-183 0 -265.5 -102.5t-82.5 -295.5v-471 zM367 1638v144h139v-144h-139zM702 1638v144h140v-144h-140z" />
<glyph unicode="&#xd7;" horiz-adv-x="968" d="M115 303l303 303l-303 303l65 64l303 -303l303 303l66 -64l-305 -303l305 -303l-66 -63l-303 301l-303 -301z" />
<glyph unicode="&#xd8;" horiz-adv-x="1200" d="M147 465v504q0 225 113 353t340 128q135 0 231 -47l41 104h86l-59 -147q154 -124 154 -391v-504q0 -225 -112 -353t-341 -128q-139 0 -231 47l-41 -105h-86l57 148q-152 123 -152 391zM252 481q0 -204 88 -305l453 1131q-73 43 -193 43q-183 0 -265.5 -102.5 t-82.5 -295.5v-471zM406 125q76 -43 194 -43q185 0 266.5 102.5t81.5 296.5v471q0 206 -90 303z" />
<glyph unicode="&#xd9;" horiz-adv-x="1241" d="M174 438v996h105v-979q0 -184 78 -278.5t264 -94.5t264 94.5t78 278.5v979h104v-996q0 -454 -446 -454q-447 0 -447 454zM455 1907h110l119 -332h-74z" />
<glyph unicode="&#xda;" horiz-adv-x="1241" d="M174 438v996h105v-979q0 -184 78 -278.5t264 -94.5t264 94.5t78 278.5v979h104v-996q0 -454 -446 -454q-447 0 -447 454zM545 1575l119 332h110l-156 -332h-73z" />
<glyph unicode="&#xdb;" horiz-adv-x="1241" d="M174 438v996h105v-979q0 -184 78 -278.5t264 -94.5t264 94.5t78 278.5v979h104v-996q0 -454 -446 -454q-447 0 -447 454zM354 1575l224 332h102l223 -332h-82l-192 233l-193 -233h-82z" />
<glyph unicode="&#xdc;" horiz-adv-x="1241" d="M174 438v996h105v-979q0 -184 78 -278.5t264 -94.5t264 94.5t78 278.5v979h104v-996q0 -454 -446 -454q-447 0 -447 454zM391 1638v144h139v-144h-139zM727 1638v144h139v-144h-139z" />
<glyph unicode="&#xdd;" horiz-adv-x="1120" d="M59 1434h117l381 -762h8l379 762h119l-451 -871v-563h-104v563zM510 1575l119 332h110l-155 -332h-74z" />
<glyph unicode="&#xde;" horiz-adv-x="1128" d="M199 0v1434h104v-228h248q251 0 363 -103t112 -331q0 -217 -111.5 -326.5t-353.5 -109.5h-258v-336h-104zM303 432h260q102 0 173 23.5t110.5 69.5t56.5 105.5t17 141.5q0 84 -17.5 143.5t-58.5 105t-114.5 67.5t-180.5 22h-246v-678z" />
<glyph unicode="&#xdf;" horiz-adv-x="1161" d="M176 0v1174q0 165 101.5 266.5t289.5 101.5q187 0 289 -90t102 -242q0 -115 -42 -178.5t-115 -101.5q110 -34 159.5 -127.5t49.5 -245.5v-145q0 -412 -392 -412h-202v94h202q159 0 225 79.5t66 248.5v123q0 174 -66.5 255t-224.5 81h-131v90h121q119 0 184.5 55t65.5 184 q0 116 -75 178t-216 62q-147 0 -220 -76t-73 -190v-1184h-98z" />
<glyph unicode="&#xe0;" horiz-adv-x="1046" d="M117 297q0 91 38 164t101 120t151 78.5t182 44.5t199 13v86q0 244 -276 244q-56 0 -113.5 -12.5t-95 -26.5t-102.5 -41l-31 80q184 92 342 92q375 0 375 -357v-782h-78l-14 152q-47 -74 -131 -121t-199 -47q-162 0 -255 86.5t-93 226.5zM217 297q0 -106 72.5 -166.5 t193.5 -60.5q107 0 194.5 64t110.5 134v367q-119 0 -217.5 -17.5t-180 -55t-127.5 -105t-46 -160.5zM360 1599h111l119 -331h-74z" />
<glyph unicode="&#xe1;" horiz-adv-x="1046" d="M117 297q0 91 38 164t101 120t151 78.5t182 44.5t199 13v86q0 244 -276 244q-56 0 -113.5 -12.5t-95 -26.5t-102.5 -41l-31 80q184 92 342 92q375 0 375 -357v-782h-78l-14 152q-47 -74 -131 -121t-199 -47q-162 0 -255 86.5t-93 226.5zM217 297q0 -106 72.5 -166.5 t193.5 -60.5q107 0 194.5 64t110.5 134v367q-119 0 -217.5 -17.5t-180 -55t-127.5 -105t-46 -160.5zM449 1268l118 331h111l-156 -331h-73z" />
<glyph unicode="&#xe2;" horiz-adv-x="1046" d="M117 297q0 91 38 164t101 120t151 78.5t182 44.5t199 13v86q0 244 -276 244q-56 0 -113.5 -12.5t-95 -26.5t-102.5 -41l-31 80q184 92 342 92q375 0 375 -357v-782h-78l-14 152q-47 -74 -131 -121t-199 -47q-162 0 -255 86.5t-93 226.5zM217 297q0 -106 72.5 -166.5 t193.5 -60.5q107 0 194.5 64t110.5 134v367q-119 0 -217.5 -17.5t-180 -55t-127.5 -105t-46 -160.5zM252 1268l223 331h103l223 -331h-82l-193 233l-192 -233h-82z" />
<glyph unicode="&#xe3;" horiz-adv-x="1046" d="M117 297q0 91 38 164t101 120t151 78.5t182 44.5t199 13v86q0 244 -276 244q-56 0 -113.5 -12.5t-95 -26.5t-102.5 -41l-31 80q184 92 342 92q375 0 375 -357v-782h-78l-14 152q-47 -74 -131 -121t-199 -47q-162 0 -255 86.5t-93 226.5zM205 1343q65 160 180 160 q39 0 78 -17t66.5 -38t61.5 -38t64 -17q36 0 62 22.5t57 79.5l66 -33q-67 -157 -181 -157q-39 0 -78 17t-66.5 38t-61.5 38t-64 17q-69 0 -117 -98zM217 297q0 -106 72.5 -166.5t193.5 -60.5q107 0 194.5 64t110.5 134v367q-119 0 -217.5 -17.5t-180 -55t-127.5 -105 t-46 -160.5z" />
<glyph unicode="&#xe4;" horiz-adv-x="1046" d="M117 297q0 91 38 164t101 120t151 78.5t182 44.5t199 13v86q0 244 -276 244q-56 0 -113.5 -12.5t-95 -26.5t-102.5 -41l-31 80q184 92 342 92q375 0 375 -357v-782h-78l-14 152q-47 -74 -131 -121t-199 -47q-162 0 -255 86.5t-93 226.5zM217 297q0 -106 72.5 -166.5 t193.5 -60.5q107 0 194.5 64t110.5 134v367q-119 0 -217.5 -17.5t-180 -55t-127.5 -105t-46 -160.5zM297 1331v144h139v-144h-139zM633 1331v144h139v-144h-139z" />
<glyph unicode="&#xe5;" horiz-adv-x="1046" d="M117 297q0 91 38 164t101 120t151 78.5t182 44.5t199 13v86q0 244 -276 244q-56 0 -113.5 -12.5t-95 -26.5t-102.5 -41l-31 80q184 92 342 92q375 0 375 -357v-782h-78l-14 152q-47 -74 -131 -121t-199 -47q-162 0 -255 86.5t-93 226.5zM217 297q0 -106 72.5 -166.5 t193.5 -60.5q107 0 194.5 64t110.5 134v367q-119 0 -217.5 -17.5t-180 -55t-127.5 -105t-46 -160.5zM332 1434q0 91 55 143.5t145 52.5q91 0 146 -52.5t55 -143.5t-55.5 -144t-145.5 -53t-145 53t-55 144zM410 1434q0 -56 32 -88.5t90 -32.5t90.5 32.5t32.5 88.5t-32.5 88 t-90.5 32t-90 -32t-32 -88z" />
<glyph unicode="&#xe6;" horiz-adv-x="1662" d="M117 297q0 91 38 164t101 120t151 78.5t182 44.5t199 13v86q0 244 -276 244q-56 0 -113.5 -12.5t-95 -26.5t-102.5 -41l-31 80q184 92 342 92q251 0 336 -164q92 164 323 164q385 0 385 -430v-187h-669v-162q0 -131 69.5 -207.5t223.5 -76.5q100 0 167.5 23t145.5 73 l41 -76q-158 -112 -354 -112q-267 0 -351 192q-57 -88 -150 -140t-214 -52q-162 0 -255 86.5t-93 226.5zM217 297q0 -107 72.5 -169t193.5 -62q61 0 115 19.5t91.5 51t62.5 65t36 66.5v367q-119 0 -217.5 -17.5t-180 -55t-127.5 -105t-46 -160.5zM887 608h573v90 q0 173 -66.5 261t-222.5 88q-151 0 -216.5 -84t-67.5 -248v-107z" />
<glyph unicode="&#xe7;" horiz-adv-x="913" d="M117 412v297q0 206 95 318t296 112q116 0 192 -45t136 -127l-68 -54q-59 71 -116 102.5t-144 31.5t-145 -25.5t-89.5 -79t-44 -122.5t-12.5 -169v-229q0 -171 66.5 -258.5t224.5 -87.5q90 0 149 28.5t115 98.5l66 -56q-58 -81 -137 -121.5t-191 -41.5l-31 -113q39 8 72 8 q67 0 109 -34.5t42 -110.5q0 -152 -190 -152q-75 0 -156 31l21 63q73 -22 123 -22q61 0 92 17t31 63q0 78 -99 78q-34 0 -75 -13l-43 33l28 156q-161 20 -239 130t-78 294z" />
<glyph unicode="&#xe8;" horiz-adv-x="993" d="M117 393v316q0 204 94.5 317t290.5 113q385 0 385 -430v-187h-670v-141q0 -144 66.5 -224.5t226.5 -80.5q100 0 167.5 23t145.5 73l41 -76q-158 -112 -354 -112q-203 0 -298 107t-95 302zM217 608h574v90q0 173 -66.5 261t-222.5 88q-154 0 -219.5 -88t-65.5 -261v-90z M342 1599h111l118 -331h-73z" />
<glyph unicode="&#xe9;" horiz-adv-x="993" d="M117 393v316q0 204 94.5 317t290.5 113q385 0 385 -430v-187h-670v-141q0 -144 66.5 -224.5t226.5 -80.5q100 0 167.5 23t145.5 73l41 -76q-158 -112 -354 -112q-203 0 -298 107t-95 302zM217 608h574v90q0 173 -66.5 261t-222.5 88q-154 0 -219.5 -88t-65.5 -261v-90z M428 1268l119 331h110l-155 -331h-74z" />
<glyph unicode="&#xea;" horiz-adv-x="993" d="M117 393v316q0 204 94.5 317t290.5 113q385 0 385 -430v-187h-670v-141q0 -144 66.5 -224.5t226.5 -80.5q100 0 167.5 23t145.5 73l41 -76q-158 -112 -354 -112q-203 0 -298 107t-95 302zM217 608h574v90q0 173 -66.5 261t-222.5 88q-154 0 -219.5 -88t-65.5 -261v-90z M242 1268l223 331h102l224 -331h-82l-193 233l-192 -233h-82z" />
<glyph unicode="&#xeb;" horiz-adv-x="993" d="M117 393v316q0 204 94.5 317t290.5 113q385 0 385 -430v-187h-670v-141q0 -144 66.5 -224.5t226.5 -80.5q100 0 167.5 23t145.5 73l41 -76q-158 -112 -354 -112q-203 0 -298 107t-95 302zM217 608h574v90q0 173 -66.5 261t-222.5 88q-154 0 -219.5 -88t-65.5 -261v-90z M272 1331v144h140v-144h-140zM608 1331v144h140v-144h-140z" />
<glyph unicode="&#xec;" horiz-adv-x="452" d="M57 1599h111l119 -331h-74zM178 0v1120h101v-1120h-101z" />
<glyph unicode="&#xed;" horiz-adv-x="452" d="M162 1268l119 331h110l-155 -331h-74zM178 0v1120h101v-1120h-101z" />
<glyph unicode="&#xee;" horiz-adv-x="452" d="M-45 1268l223 331h103l223 -331h-82l-193 233l-192 -233h-82zM178 0v1120h101v-1120h-101z" />
<glyph unicode="&#xef;" horiz-adv-x="452" d="M-6 1331v144h139v-144h-139zM178 0v1120h101v-1120h-101zM330 1331v144h139v-144h-139z" />
<glyph unicode="&#xf0;" horiz-adv-x="1013" d="M117 412v170q0 205 95.5 317.5t295.5 112.5q96 0 174.5 -37.5t116.5 -95.5v141q0 158 -101 246l-168 -166l-61 63l154 152q-72 35 -174 35q-98 0 -201 -41l-31 75q122 56 236 56q139 0 241 -54l127 132l66 -64l-117 -117q66 -60 96.5 -141t30.5 -205v-579 q0 -428 -389 -428q-200 0 -295.5 112t-95.5 316zM217 422q0 -171 66.5 -258.5t224.5 -87.5q86 0 144 25.5t90 78.5t45.5 122t13.5 167v102q0 349 -293 349q-87 0 -145 -25.5t-89.5 -79t-44 -122.5t-12.5 -169v-102z" />
<glyph unicode="&#xf1;" horiz-adv-x="1116" d="M174 0v1120h78l14 -151q25 26 55.5 50.5t78 54t108.5 47.5t125 18q75 0 132 -21t92 -56t57 -87t30 -107t8 -123v-745h-100v762q0 141 -61 209.5t-193 68.5q-163 0 -324 -149v-891h-100zM240 1343q65 160 180 160q39 0 78 -17t66.5 -38t61.5 -38t64 -17q36 0 62 22.5 t57 79.5l65 -33q-67 -157 -180 -157q-39 0 -78 17t-66.5 38t-61.5 38t-64 17q-69 0 -117 -98z" />
<glyph unicode="&#xf2;" horiz-adv-x="1013" d="M117 412v297q0 205 95.5 317.5t295.5 112.5q389 0 389 -430v-297q0 -428 -389 -428q-200 0 -295.5 112t-95.5 316zM217 422q0 -171 66.5 -258.5t224.5 -87.5q86 0 143.5 25.5t89.5 78.5t45 122t13 167v229q0 173 -66.5 261t-224.5 88q-87 0 -145 -25.5t-89.5 -79 t-44 -122.5t-12.5 -169v-229zM342 1599h111l118 -331h-73z" />
<glyph unicode="&#xf3;" horiz-adv-x="1013" d="M117 412v297q0 205 95.5 317.5t295.5 112.5q389 0 389 -430v-297q0 -428 -389 -428q-200 0 -295.5 112t-95.5 316zM217 422q0 -171 66.5 -258.5t224.5 -87.5q86 0 143.5 25.5t89.5 78.5t45 122t13 167v229q0 173 -66.5 261t-224.5 88q-87 0 -145 -25.5t-89.5 -79 t-44 -122.5t-12.5 -169v-229zM424 1268l119 331h110l-155 -331h-74z" />
<glyph unicode="&#xf4;" horiz-adv-x="1013" d="M117 412v297q0 205 95.5 317.5t295.5 112.5q389 0 389 -430v-297q0 -428 -389 -428q-200 0 -295.5 112t-95.5 316zM217 422q0 -171 66.5 -258.5t224.5 -87.5q86 0 143.5 25.5t89.5 78.5t45 122t13 167v229q0 173 -66.5 261t-224.5 88q-87 0 -145 -25.5t-89.5 -79 t-44 -122.5t-12.5 -169v-229zM231 1268l224 331h102l223 -331h-82l-192 233l-193 -233h-82z" />
<glyph unicode="&#xf5;" horiz-adv-x="1015" d="M117 412v297q0 205 95.5 317.5t295.5 112.5q389 0 389 -430v-297q0 -428 -389 -428q-200 0 -295.5 112t-95.5 316zM195 1343q65 160 180 160q39 0 78 -17t66.5 -38t61.5 -38t64 -17q36 0 62 22.5t57 79.5l65 -33q-67 -157 -180 -157q-39 0 -78 17t-66.5 38t-61.5 38 t-64 17q-69 0 -117 -98zM217 422q0 -171 66.5 -258.5t224.5 -87.5q86 0 143.5 25.5t89.5 78.5t45 122t13 167v229q0 173 -66.5 261t-224.5 88q-87 0 -145 -25.5t-89.5 -79t-44 -122.5t-12.5 -169v-229z" />
<glyph unicode="&#xf6;" horiz-adv-x="1015" d="M117 412v297q0 205 95.5 317.5t295.5 112.5q389 0 389 -430v-297q0 -428 -389 -428q-200 0 -295.5 112t-95.5 316zM217 422q0 -171 66.5 -258.5t224.5 -87.5q86 0 143.5 25.5t89.5 78.5t45 122t13 167v229q0 173 -66.5 261t-224.5 88q-87 0 -145 -25.5t-89.5 -79 t-44 -122.5t-12.5 -169v-229zM279 1331v144h139v-144h-139zM614 1331v144h140v-144h-140z" />
<glyph unicode="&#xf7;" horiz-adv-x="960" d="M20 559v92h920v-92h-920zM406 291q0 84 83 84q84 0 84 -84t-84 -84q-83 0 -83 84zM406 920q0 84 83 84q84 0 84 -84t-84 -84q-83 0 -83 84z" />
<glyph unicode="&#xf8;" horiz-adv-x="1013" d="M117 412v297q0 205 95.5 317.5t295.5 112.5q95 0 174 -29l37 90h84l-51 -127q145 -101 145 -364v-297q0 -428 -389 -428q-106 0 -180 30l-35 -88h-84l51 125q-143 103 -143 361zM217 422q0 -192 80 -275l350 875q-58 25 -139 25q-87 0 -145 -25.5t-89.5 -79t-44 -122.5 t-12.5 -169v-229zM362 102q56 -26 146 -26q86 0 143.5 25.5t89.5 78.5t45 122t13 167v229q0 198 -86 281z" />
<glyph unicode="&#xf9;" horiz-adv-x="1107" d="M166 375v745h100v-762q0 -141 61 -209.5t193 -68.5q163 0 324 149v891h100v-1120h-78l-14 152q-25 -26 -55.5 -50.5t-78 -54t-108.5 -47.5t-125 -18q-93 0 -158 30.5t-99 87.5t-48 123t-14 152zM416 1599h110l119 -331h-74z" />
<glyph unicode="&#xfa;" horiz-adv-x="1107" d="M166 375v745h100v-762q0 -141 61 -209.5t193 -68.5q163 0 324 149v891h100v-1120h-78l-14 152q-25 -26 -55.5 -50.5t-78 -54t-108.5 -47.5t-125 -18q-93 0 -158 30.5t-99 87.5t-48 123t-14 152zM487 1268l119 331h111l-156 -331h-74z" />
<glyph unicode="&#xfb;" horiz-adv-x="1107" d="M166 375v745h100v-762q0 -141 61 -209.5t193 -68.5q163 0 324 149v891h100v-1120h-78l-14 152q-25 -26 -55.5 -50.5t-78 -54t-108.5 -47.5t-125 -18q-93 0 -158 30.5t-99 87.5t-48 123t-14 152zM291 1268l223 331h102l224 -331h-82l-193 233l-192 -233h-82z" />
<glyph unicode="&#xfc;" horiz-adv-x="1107" d="M166 375v745h100v-762q0 -141 61 -209.5t193 -68.5q163 0 324 149v891h100v-1120h-78l-14 152q-25 -26 -55.5 -50.5t-78 -54t-108.5 -47.5t-125 -18q-93 0 -158 30.5t-99 87.5t-48 123t-14 152zM324 1331v144h139v-144h-139zM659 1331v144h140v-144h-140z" />
<glyph unicode="&#xfd;" horiz-adv-x="956" d="M55 1120h109l311 -1001h8l308 1001h108l-491 -1534h-101l137 414h-26zM424 1268l119 331h110l-155 -331h-74z" />
<glyph unicode="&#xfe;" horiz-adv-x="1071" d="M174 -414v1985h100v-578q51 58 134.5 102t187.5 44q178 0 268 -108t90 -308v-324q0 -200 -89.5 -307.5t-268.5 -107.5q-106 0 -189 44.5t-133 104.5v-547h-100zM274 221q129 -145 295 -145q151 0 218 83t67 251v303q0 169 -66.5 251.5t-218.5 82.5q-168 0 -295 -146v-680 z" />
<glyph unicode="&#xff;" horiz-adv-x="956" d="M55 1120h109l311 -1001h8l308 1001h108l-491 -1534h-101l137 414h-26zM250 1331v144h139v-144h-139zM586 1331v144h139v-144h-139z" />
<glyph unicode="&#x100;" horiz-adv-x="1175" d="M66 0l477 1434h90l477 -1434h-111l-137 418h-549l-137 -418h-110zM340 514h496l-244 756h-8zM342 1708v88h500v-88h-500z" />
<glyph unicode="&#x101;" horiz-adv-x="1048" d="M117 297q0 91 38 164t101 120t151 78.5t182 44.5t199 13v86q0 244 -276 244q-56 0 -113.5 -12.5t-95 -26.5t-102.5 -41l-31 80q184 92 342 92q375 0 375 -357v-782h-78l-14 152q-47 -74 -131 -121t-199 -47q-162 0 -255 86.5t-93 226.5zM217 297q0 -106 72.5 -166.5 t193.5 -60.5q107 0 194.5 64t110.5 134v367q-119 0 -217.5 -17.5t-180 -55t-127.5 -105t-46 -160.5zM287 1401v88h499v-88h-499z" />
<glyph unicode="&#x102;" horiz-adv-x="1175" d="M66 0l477 1434h90l477 -1434h-111l-137 418h-549l-137 -418h-110zM322 1853v29h79v-29q0 -165 191 -165q190 0 190 165v29h80v-29q0 -66 -22 -115t-60.5 -76t-85 -39.5t-102.5 -12.5t-102.5 12.5t-85 39.5t-60.5 76t-22 115zM340 514h496l-244 756h-8z" />
<glyph unicode="&#x103;" horiz-adv-x="1048" d="M117 297q0 91 38 164t101 120t151 78.5t182 44.5t199 13v86q0 244 -276 244q-56 0 -113.5 -12.5t-95 -26.5t-102.5 -41l-31 80q184 92 342 92q375 0 375 -357v-782h-78l-14 152q-47 -74 -131 -121t-199 -47q-162 0 -255 86.5t-93 226.5zM217 297q0 -106 72.5 -166.5 t193.5 -60.5q107 0 194.5 64t110.5 134v367q-119 0 -217.5 -17.5t-180 -55t-127.5 -105t-46 -160.5zM250 1546v29h80v-29q0 -166 190 -166q191 0 191 166v29h80v-29q0 -66 -22 -115t-61 -76t-85.5 -39.5t-102.5 -12.5t-102.5 12.5t-85 39.5t-60.5 76t-22 115z" />
<glyph unicode="&#x104;" horiz-adv-x="1175" d="M66 0l477 1434h90l477 -1434q-102 -51 -158.5 -116.5t-56.5 -131.5q0 -94 98 -94q51 0 101 20l16 -61q-65 -35 -135 -35q-77 0 -123.5 39t-46.5 117q0 77 57.5 148.5t136.5 113.5l-137 418h-549l-137 -418h-110zM340 514h496l-244 756h-8z" />
<glyph unicode="&#x105;" horiz-adv-x="1046" d="M117 297q0 91 38 164t101 120t151 78.5t182 44.5t199 13v86q0 244 -276 244q-56 0 -113.5 -12.5t-95 -26.5t-102.5 -41l-31 80q184 92 342 92q375 0 375 -357v-782q-102 -51 -158.5 -116.5t-56.5 -131.5q0 -94 98 -94q50 0 100 20l17 -61q-65 -35 -135 -35 q-77 0 -123.5 39t-46.5 117q0 82 67 159.5t158 116.5l-12 138q-47 -74 -131 -121t-199 -47q-162 0 -255 86.5t-93 226.5zM217 297q0 -106 72.5 -166.5t193.5 -60.5q107 0 194.5 64t110.5 134v367q-119 0 -217.5 -17.5t-180 -55t-127.5 -105t-46 -160.5z" />
<glyph unicode="&#x106;" horiz-adv-x="1107" d="M147 465v504q0 226 111.5 353.5t339.5 127.5q70 0 130 -17.5t101.5 -43t77.5 -63.5t58 -71.5t43 -74.5l-84 -47q-66 115 -139 166t-187 51q-183 0 -264.5 -102t-81.5 -296v-473q0 -397 350 -397q115 0 187.5 51t136.5 166l86 -45q-22 -42 -43.5 -74.5t-58 -71t-77.5 -64 t-101 -43t-130 -17.5q-229 0 -342 127.5t-113 353.5zM522 1575l119 332h111l-156 -332h-74z" />
<glyph unicode="&#x107;" horiz-adv-x="913" d="M117 412v297q0 206 95 318t296 112q116 0 192 -45t136 -127l-68 -54q-59 71 -116 102.5t-144 31.5t-145 -25.5t-89.5 -79t-44 -122.5t-12.5 -169v-229q0 -171 66.5 -258.5t224.5 -87.5q90 0 149 28.5t115 98.5l66 -56q-59 -82 -138 -122.5t-192 -40.5q-199 0 -295 112 t-96 316zM442 1268l119 331h111l-156 -331h-74z" />
<glyph unicode="&#x108;" horiz-adv-x="1107" d="M147 465v504q0 226 111.5 353.5t339.5 127.5q70 0 130 -17.5t101.5 -43t77.5 -63.5t58 -71.5t43 -74.5l-84 -47q-66 115 -139 166t-187 51q-183 0 -264.5 -102t-81.5 -296v-473q0 -397 350 -397q115 0 187.5 51t136.5 166l86 -45q-22 -42 -43.5 -74.5t-58 -71t-77.5 -64 t-101 -43t-130 -17.5q-229 0 -342 127.5t-113 353.5zM326 1575l223 332h102l223 -332h-81l-193 233l-192 -233h-82z" />
<glyph unicode="&#x109;" horiz-adv-x="913" d="M117 412v297q0 206 95 318t296 112q116 0 192 -45t136 -127l-68 -54q-59 71 -116 102.5t-144 31.5t-145 -25.5t-89.5 -79t-44 -122.5t-12.5 -169v-229q0 -171 66.5 -258.5t224.5 -87.5q90 0 149 28.5t115 98.5l66 -56q-59 -82 -138 -122.5t-192 -40.5q-199 0 -295 112 t-96 316zM238 1268l223 331h102l223 -331h-81l-193 233l-193 -233h-81z" />
<glyph unicode="&#x10a;" horiz-adv-x="1107" d="M147 465v504q0 226 111.5 353.5t339.5 127.5q70 0 130 -17.5t101.5 -43t77.5 -63.5t58 -71.5t43 -74.5l-84 -47q-66 115 -139 166t-187 51q-183 0 -264.5 -102t-81.5 -296v-473q0 -397 350 -397q115 0 187.5 51t136.5 166l86 -45q-22 -42 -43.5 -74.5t-58 -71t-77.5 -64 t-101 -43t-130 -17.5q-229 0 -342 127.5t-113 353.5zM537 1647v143h135v-143h-135z" />
<glyph unicode="&#x10b;" horiz-adv-x="913" d="M117 412v297q0 206 95 318t296 112q116 0 192 -45t136 -127l-68 -54q-59 71 -116 102.5t-144 31.5t-145 -25.5t-89.5 -79t-44 -122.5t-12.5 -169v-229q0 -171 66.5 -258.5t224.5 -87.5q90 0 149 28.5t115 98.5l66 -56q-59 -82 -138 -122.5t-192 -40.5q-199 0 -295 112 t-96 316zM440 1339v144h135v-144h-135z" />
<glyph unicode="&#x10c;" horiz-adv-x="1107" d="M147 465v504q0 226 111.5 353.5t339.5 127.5q70 0 130 -17.5t101.5 -43t77.5 -63.5t58 -71.5t43 -74.5l-84 -47q-66 115 -139 166t-187 51q-183 0 -264.5 -102t-81.5 -296v-473q0 -397 350 -397q115 0 187.5 51t136.5 166l86 -45q-22 -42 -43.5 -74.5t-58 -71t-77.5 -64 t-101 -43t-130 -17.5q-229 0 -342 127.5t-113 353.5zM332 1907h82l192 -234l193 234h82l-224 -332h-102z" />
<glyph unicode="&#x10d;" horiz-adv-x="913" d="M117 412v297q0 206 95 318t296 112q116 0 192 -45t136 -127l-68 -54q-59 71 -116 102.5t-144 31.5t-145 -25.5t-89.5 -79t-44 -122.5t-12.5 -169v-229q0 -171 66.5 -258.5t224.5 -87.5q90 0 149 28.5t115 98.5l66 -56q-59 -82 -138 -122.5t-192 -40.5q-199 0 -295 112 t-96 316zM229 1599h82l193 -233l192 233h82l-223 -331h-102z" />
<glyph unicode="&#x10e;" horiz-adv-x="1257" d="M199 0v1434h393q534 0 534 -715q0 -719 -534 -719h-393zM287 1907h82l192 -234l193 234h82l-224 -332h-102zM303 96h275q442 0 442 623q0 618 -442 618h-275v-1241z" />
<glyph unicode="&#x10f;" horiz-adv-x="1093" d="M117 399v324q0 200 90 308t268 108q106 0 189 -45t133 -105v547h100v-1536h-78l-18 133q-52 -59 -135.5 -104t-190.5 -45q-179 0 -268.5 107.5t-89.5 307.5zM217 410q0 -169 66.5 -251.5t218.5 -82.5q169 0 295 145v680q-130 146 -295 146q-151 0 -218 -83t-67 -251v-303 zM987 1204l37 332h109l-74 -332h-72z" />
<glyph unicode="&#x110;" horiz-adv-x="1249" d="M70 682v90h129v662h393q534 0 534 -715q0 -719 -534 -719h-393v682h-129zM303 96h275q442 0 442 623q0 618 -442 618h-275v-565h342v-90h-342v-586z" />
<glyph unicode="&#x111;" horiz-adv-x="1089" d="M117 399v324q0 200 90 308t268 108q106 0 189 -45t133 -105v289h-295v90h295v168h100v-168h172v-90h-172v-1278h-78l-18 133q-52 -59 -135.5 -104t-190.5 -45q-179 0 -268.5 107.5t-89.5 307.5zM217 410q0 -169 66.5 -251.5t218.5 -82.5q169 0 295 145v680 q-130 146 -295 146q-151 0 -218 -83t-67 -251v-303z" />
<glyph unicode="&#x112;" horiz-adv-x="1030" d="M199 0v1434h706v-97h-602v-549h563v-96h-563v-596h602v-96h-706zM305 1708v88h500v-88h-500z" />
<glyph unicode="&#x113;" horiz-adv-x="993" d="M117 393v316q0 204 94.5 317t290.5 113q385 0 385 -430v-187h-670v-141q0 -144 66.5 -224.5t226.5 -80.5q100 0 167.5 23t145.5 73l41 -76q-158 -112 -354 -112q-203 0 -298 107t-95 302zM217 608h574v90q0 173 -66.5 261t-222.5 88q-154 0 -219.5 -88t-65.5 -261v-90z M260 1401v88h500v-88h-500z" />
<glyph unicode="&#x114;" horiz-adv-x="1030" d="M199 0v1434h706v-97h-602v-549h563v-96h-563v-596h602v-96h-706zM281 1853v29h79v-29q0 -165 191 -165q190 0 190 165v29h80v-29q0 -66 -22 -115t-60.5 -76t-85 -39.5t-102.5 -12.5t-102.5 12.5t-85 39.5t-60.5 76t-22 115z" />
<glyph unicode="&#x115;" horiz-adv-x="993" d="M117 393v316q0 204 94.5 317t290.5 113q385 0 385 -430v-187h-670v-141q0 -144 66.5 -224.5t226.5 -80.5q100 0 167.5 23t145.5 73l41 -76q-158 -112 -354 -112q-203 0 -298 107t-95 302zM217 608h574v90q0 173 -66.5 261t-222.5 88q-154 0 -219.5 -88t-65.5 -261v-90z M231 1546v29h80v-29q0 -166 191 -166q190 0 190 166v29h80v-29q0 -66 -22 -115t-60.5 -76t-85 -39.5t-102.5 -12.5t-102.5 12.5t-85.5 39.5t-61 76t-22 115z" />
<glyph unicode="&#x116;" horiz-adv-x="1030" d="M199 0v1434h706v-97h-602v-549h563v-96h-563v-596h602v-96h-706zM487 1647v143h136v-143h-136z" />
<glyph unicode="&#x117;" horiz-adv-x="993" d="M117 393v316q0 204 94.5 317t290.5 113q385 0 385 -430v-187h-670v-141q0 -144 66.5 -224.5t226.5 -80.5q100 0 167.5 23t145.5 73l41 -76q-158 -112 -354 -112q-203 0 -298 107t-95 302zM217 608h574v90q0 173 -66.5 261t-222.5 88q-154 0 -219.5 -88t-65.5 -261v-90z M430 1339v144h135v-144h-135z" />
<glyph unicode="&#x118;" horiz-adv-x="1030" d="M199 0v1434h706v-97h-602v-549h563v-96h-563v-596h602v-96q-102 -51 -158.5 -116.5t-56.5 -131.5q0 -94 98 -94q51 0 101 20l16 -61q-65 -35 -135 -35q-77 0 -123.5 39t-46.5 117q0 82 59.5 152t145.5 110h-606z" />
<glyph unicode="&#x119;" horiz-adv-x="993" d="M117 393v316q0 204 94.5 317t290.5 113q385 0 385 -430v-187h-670v-141q0 -144 66.5 -224.5t226.5 -80.5q100 0 167.5 23t145.5 73l41 -76q-311 -182 -311 -344q0 -94 98 -94q51 0 101 20l16 -61q-65 -35 -135 -35q-77 0 -123.5 39t-46.5 117q0 67 41.5 135t109.5 119 q-66 -8 -104 -8q-203 0 -298 107t-95 302zM217 608h574v90q0 173 -66.5 261t-222.5 88q-154 0 -219.5 -88t-65.5 -261v-90z" />
<glyph unicode="&#x11a;" horiz-adv-x="1030" d="M199 0v1434h706v-97h-602v-549h563v-96h-563v-596h602v-96h-706zM281 1907h81l193 -234l193 234h81l-223 -332h-102z" />
<glyph unicode="&#x11b;" horiz-adv-x="993" d="M117 393v316q0 204 94.5 317t290.5 113q385 0 385 -430v-187h-670v-141q0 -144 66.5 -224.5t226.5 -80.5q100 0 167.5 23t145.5 73l41 -76q-158 -112 -354 -112q-203 0 -298 107t-95 302zM217 608h574v90q0 173 -66.5 261t-222.5 88q-154 0 -219.5 -88t-65.5 -261v-90z M225 1599h82l193 -233l192 233h82l-223 -331h-102z" />
<glyph unicode="&#x11c;" horiz-adv-x="1183" d="M147 465v504q0 226 111.5 353.5t339.5 127.5q70 0 130 -17.5t101.5 -43t77.5 -63.5t58 -71.5t43 -74.5l-84 -47q-66 115 -139 166t-187 51q-183 0 -264.5 -102t-81.5 -296v-473q0 -192 81.5 -294.5t264.5 -102.5q136 0 219.5 49.5t120.5 114.5v395h-303v96h401v-501 q-12 -28 -28.5 -55t-52.5 -65t-81 -65.5t-117.5 -47t-158.5 -19.5q-229 0 -340 127t-111 354zM334 1575l223 332h102l224 -332h-82l-193 233l-192 -233h-82z" />
<glyph unicode="&#x11d;" horiz-adv-x="1050" d="M117 399v324q0 200 90 308t268 108q106 0 190 -45t136 -105l18 131h78v-1104q0 -80 -9.5 -142.5t-35 -121t-67 -97.5t-110 -62t-159.5 -23q-105 0 -198 31.5t-148 72.5l41 72q82 -44 145.5 -64t159.5 -20q278 0 281 301v170q-50 -60 -133 -104.5t-189 -44.5 q-179 0 -268.5 107.5t-89.5 307.5zM217 410q0 -168 67 -251t218 -83q166 0 295 145v680q-127 146 -295 146q-152 0 -218.5 -82.5t-66.5 -251.5v-303zM242 1268l223 331h102l224 -331h-82l-193 233l-192 -233h-82z" />
<glyph unicode="&#x11e;" horiz-adv-x="1183" d="M147 465v504q0 226 111.5 353.5t339.5 127.5q70 0 130 -17.5t101.5 -43t77.5 -63.5t58 -71.5t43 -74.5l-84 -47q-66 115 -139 166t-187 51q-183 0 -264.5 -102t-81.5 -296v-473q0 -192 81.5 -294.5t264.5 -102.5q136 0 219.5 49.5t120.5 114.5v395h-303v96h401v-501 q-12 -28 -28.5 -55t-52.5 -65t-81 -65.5t-117.5 -47t-158.5 -19.5q-229 0 -340 127t-111 354zM336 1853v29h80v-29q0 -165 190 -165q191 0 191 165v29h80v-29q0 -66 -22 -115t-61 -76t-85.5 -39.5t-102.5 -12.5t-102.5 12.5t-85 39.5t-60.5 76t-22 115z" />
<glyph unicode="&#x11f;" horiz-adv-x="1050" d="M117 399v324q0 200 90 308t268 108q106 0 190 -45t136 -105l18 131h78v-1104q0 -80 -9.5 -142.5t-35 -121t-67 -97.5t-110 -62t-159.5 -23q-105 0 -198 31.5t-148 72.5l41 72q82 -44 145.5 -64t159.5 -20q278 0 281 301v170q-50 -60 -133 -104.5t-189 -44.5 q-179 0 -268.5 107.5t-89.5 307.5zM217 410q0 -168 67 -251t218 -83q166 0 295 145v680q-127 146 -295 146q-152 0 -218.5 -82.5t-66.5 -251.5v-303zM246 1546v29h80v-29q0 -166 190 -166q191 0 191 166v29h79v-29q0 -66 -22 -115t-60.5 -76t-85 -39.5t-102.5 -12.5 t-102.5 12.5t-85 39.5t-60.5 76t-22 115z" />
<glyph unicode="&#x120;" horiz-adv-x="1183" d="M147 465v504q0 226 111.5 353.5t339.5 127.5q70 0 130 -17.5t101.5 -43t77.5 -63.5t58 -71.5t43 -74.5l-84 -47q-66 115 -139 166t-187 51q-183 0 -264.5 -102t-81.5 -296v-473q0 -192 81.5 -294.5t264.5 -102.5q136 0 219.5 49.5t120.5 114.5v395h-303v96h401v-501 q-12 -28 -28.5 -55t-52.5 -65t-81 -65.5t-117.5 -47t-158.5 -19.5q-229 0 -340 127t-111 354zM528 1647v143h136v-143h-136z" />
<glyph unicode="&#x121;" horiz-adv-x="1050" d="M117 399v324q0 200 90 308t268 108q106 0 190 -45t136 -105l18 131h78v-1104q0 -80 -9.5 -142.5t-35 -121t-67 -97.5t-110 -62t-159.5 -23q-105 0 -198 31.5t-148 72.5l41 72q82 -44 145.5 -64t159.5 -20q278 0 281 301v170q-50 -60 -133 -104.5t-189 -44.5 q-179 0 -268.5 107.5t-89.5 307.5zM217 410q0 -168 67 -251t218 -83q166 0 295 145v680q-127 146 -295 146q-152 0 -218.5 -82.5t-66.5 -251.5v-303zM449 1339v144h135v-144h-135z" />
<glyph unicode="&#x122;" horiz-adv-x="1183" d="M147 465v504q0 226 111.5 353.5t339.5 127.5q70 0 130 -17.5t101.5 -43t77.5 -63.5t58 -71.5t43 -74.5l-84 -47q-66 115 -139 166t-187 51q-183 0 -264.5 -102t-81.5 -296v-473q0 -192 81.5 -294.5t264.5 -102.5q136 0 219.5 49.5t120.5 114.5v395h-303v96h401v-501 q-12 -28 -28.5 -55t-52.5 -65t-81 -65.5t-117.5 -47t-158.5 -19.5q-229 0 -340 127t-111 354zM522 -96h142v-148q0 -61 -18 -110.5t-66 -106.5l-58 41q39 46 53 82t15 94h-68v148z" />
<glyph unicode="&#x123;" horiz-adv-x="1050" d="M117 399v324q0 200 90 308t268 108q106 0 190 -45t136 -105l18 131h78v-1104q0 -80 -9.5 -142.5t-35 -121t-67 -97.5t-110 -62t-159.5 -23q-105 0 -198 31.5t-148 72.5l41 72q82 -44 145.5 -64t159.5 -20q278 0 281 301v170q-50 -60 -133 -104.5t-189 -44.5 q-179 0 -268.5 107.5t-89.5 307.5zM217 410q0 -168 67 -251t218 -83q166 0 295 145v680q-127 146 -295 146q-152 0 -218.5 -82.5t-66.5 -251.5v-303zM451 1233v147q0 61 18 110.5t66 106.5l57 -41q-39 -46 -53 -82t-15 -94h68v-147h-141z" />
<glyph unicode="&#x124;" horiz-adv-x="1304" d="M199 0v1434h104v-639h698v639h105v-1434h-105v698h-698v-698h-104zM375 1575l223 332h102l224 -332h-82l-193 233l-192 -233h-82z" />
<glyph unicode="&#x125;" horiz-adv-x="1122" d="M-41 1645l223 331h103l223 -331h-82l-193 233l-192 -233h-82zM176 0v1536h100v-559q26 26 57.5 50t78 51.5t105.5 44t120 16.5q75 0 132 -21t92.5 -56t57.5 -86.5t30.5 -107t8.5 -123.5v-745h-100v762q0 141 -62 209.5t-194 68.5q-165 0 -326 -149v-891h-100z" />
<glyph unicode="&#x126;" horiz-adv-x="1304" d="M92 1110v88h107v236h104v-236h698v236h105v-236h141v-88h-141v-1110h-105v698h-698v-698h-104v1110h-107zM303 795h698v315h-698v-315z" />
<glyph unicode="&#x127;" horiz-adv-x="1122" d="M49 1278v90h127v168h100v-168h334v-90h-334v-301q26 26 57.5 50t78 51.5t105.5 44t120 16.5q75 0 132 -21t92.5 -56t57.5 -86.5t30.5 -107t8.5 -123.5v-745h-100v762q0 141 -62 209.5t-194 68.5q-165 0 -326 -149v-891h-100v1278h-127z" />
<glyph unicode="&#x128;" horiz-adv-x="501" d="M-51 1651q65 159 180 159q39 0 78 -17t66.5 -38t61.5 -38t64 -17q36 0 62 22.5t57 79.5l66 -33q-67 -157 -181 -157q-39 0 -78 17t-66.5 38t-61.5 38t-64 17q-69 0 -117 -98zM199 0v1434h104v-1434h-104z" />
<glyph unicode="&#x129;" horiz-adv-x="452" d="M-80 1343q65 160 180 160q49 0 97.5 -27.5t92.5 -55t81 -27.5q36 0 61.5 22t56.5 80l66 -33q-67 -157 -180 -157q-49 0 -97.5 27.5t-92.5 55t-81 27.5q-68 0 -116 -98zM178 0v1120h101v-1120h-101z" />
<glyph unicode="&#x12a;" horiz-adv-x="501" d="M14 1708v88h500v-88h-500zM199 0v1434h104v-1434h-104z" />
<glyph unicode="&#x12b;" horiz-adv-x="452" d="M-10 1401v88h499v-88h-499zM178 0v1120h101v-1120h-101z" />
<glyph unicode="&#x12c;" horiz-adv-x="501" d="M-12 1853v29h80v-29q0 -165 190 -165q191 0 191 165v29h79v-29q0 -66 -22 -115t-60.5 -76t-85 -39.5t-102.5 -12.5t-102.5 12.5t-85 39.5t-60.5 76t-22 115zM199 0v1434h104v-1434h-104z" />
<glyph unicode="&#x12d;" horiz-adv-x="456" d="M-33 1546v29h80v-29q0 -166 191 -166q190 0 190 166v29h80v-29q0 -66 -22 -115t-60.5 -76t-85 -39.5t-102.5 -12.5t-102.5 12.5t-85.5 39.5t-61 76t-22 115zM178 0v1120h101v-1120h-101z" />
<glyph unicode="&#x12e;" horiz-adv-x="501" d="M-2 -262q0 83 58 152.5t143 109.5v1434h104v-1434q-102 -51 -158.5 -116.5t-56.5 -131.5q0 -94 98 -94q51 0 101 20l16 -61q-65 -35 -135 -35q-77 0 -123.5 39t-46.5 117z" />
<glyph unicode="&#x12f;" horiz-adv-x="452" d="M-27 -262q0 82 57.5 151.5t147.5 118.5v1112h101v-1120q-102 -51 -159 -116.5t-57 -131.5q0 -94 99 -94q50 0 100 20l17 -61q-65 -35 -136 -35q-77 0 -123.5 39t-46.5 117zM162 1339v144h135v-144h-135z" />
<glyph unicode="&#x130;" horiz-adv-x="501" d="M188 1647v143h136v-143h-136zM199 0v1434h104v-1434h-104z" />
<glyph unicode="&#x131;" horiz-adv-x="452" d="M178 0v1120h101v-1120h-101z" />
<glyph unicode="&#x132;" horiz-adv-x="1245" d="M199 0v1434h104v-1434h-104zM573 2l17 94q61 -14 108 -14q65 0 111 18t71.5 45.5t39.5 76t18 95t4 117.5v1000h105v-979q0 -88 -6.5 -152t-27.5 -127.5t-57.5 -103t-98.5 -64t-148 -24.5q-68 0 -136 18z" />
<glyph unicode="&#x133;" horiz-adv-x="948" d="M162 1339v144h135v-144h-135zM178 0v1120h101v-1120h-101zM360 -393l23 82q70 -19 113 -19q107 0 145.5 57t38.5 167v1226h100v-1206q0 -169 -62 -252.5t-216 -83.5q-82 0 -142 29zM664 1339v144h135v-144h-135z" />
<glyph unicode="&#x134;" horiz-adv-x="743" d="M72 2l16 94q61 -14 109 -14q47 0 83.5 9t62 24t43.5 40.5t28.5 52.5t16.5 66.5t7.5 74.5t1.5 85v1000h105v-979q0 -88 -6.5 -152t-27.5 -127.5t-57.5 -103t-98.5 -64t-148 -24.5q-67 0 -135 18zM236 1575l223 332h102l223 -332h-82l-192 233l-193 -233h-81z" />
<glyph unicode="&#x135;" horiz-adv-x="446" d="M-141 -393l22 82q70 -19 113 -19q107 0 145.5 57t38.5 167v1226h101v-1206q0 -169 -62.5 -252.5t-216.5 -83.5q-81 0 -141 29zM-51 1268l223 331h102l224 -331h-82l-193 233l-192 -233h-82z" />
<glyph unicode="&#x136;" horiz-adv-x="1110" d="M199 0v1434h104v-646h207l395 646h119l-422 -684l430 -750h-121l-395 692h-213v-692h-104zM522 -96h142v-148q0 -61 -18 -110.5t-66 -106.5l-58 41q39 46 53 82t15 94h-68v148z" />
<glyph unicode="&#x137;" horiz-adv-x="978" d="M176 0v1536h100v-887h213l310 471h114l-338 -508l345 -612h-117l-307 561h-220v-561h-100zM453 -96h141v-148q0 -61 -18 -110.5t-66 -106.5l-57 41q38 46 51.5 81.5t15.5 94.5h-67v148z" />
<glyph unicode="&#x138;" horiz-adv-x="978" d="M176 0v1120h100v-471h213l310 471h114l-338 -508l345 -612h-117l-307 561h-220v-561h-100z" />
<glyph unicode="&#x139;" horiz-adv-x="989" d="M199 0v1434h104v-1338h602v-96h-706zM213 1575l119 332h110l-155 -332h-74z" />
<glyph unicode="&#x13a;" horiz-adv-x="442" d="M160 1618l119 332h110l-156 -332h-73zM176 0v1536h100v-1536h-100z" />
<glyph unicode="&#x13b;" horiz-adv-x="989" d="M199 0v1434h104v-1338h602v-96h-706zM496 -96h141v-148q0 -61 -18 -110.5t-66 -106.5l-57 41q38 46 51.5 81.5t15.5 94.5h-67v148z" />
<glyph unicode="&#x13c;" horiz-adv-x="442" d="M158 -96h141v-148q0 -61 -18 -110.5t-66 -106.5l-57 41q38 46 51.5 81.5t15.5 94.5h-67v148zM176 0v1536h100v-1536h-100z" />
<glyph unicode="&#x13d;" horiz-adv-x="989" d="M199 0v1434h104v-1338h602v-96h-706zM612 1102l37 332h109l-74 -332h-72z" />
<glyph unicode="&#x13e;" horiz-adv-x="473" d="M176 0v1536h100v-1536h-100zM365 1204l36 332h109l-74 -332h-71z" />
<glyph unicode="&#x13f;" horiz-adv-x="991" d="M199 0v1434h104v-1338h602v-96h-706zM559 692v154h143v-154h-143z" />
<glyph unicode="&#x140;" horiz-adv-x="778" d="M176 0v1536h100v-1536h-100zM465 694v154h143v-154h-143z" />
<glyph unicode="&#x141;" horiz-adv-x="989" d="M63 625v100l136 59v650h104v-603l397 179v-99l-397 -180v-635h602v-96h-706v684z" />
<glyph unicode="&#x142;" horiz-adv-x="614" d="M90 729v98l148 66v643h100v-598l199 90v-98l-199 -90v-840h-100v795z" />
<glyph unicode="&#x143;" horiz-adv-x="1316" d="M195 0v1434h77l744 -1201h8v1201h98v-1434h-82l-739 1200h-8v-1200h-98zM610 1575l119 332h111l-156 -332h-74z" />
<glyph unicode="&#x144;" horiz-adv-x="1116" d="M174 0v1120h78l14 -151q25 26 55.5 50.5t78 54t108.5 47.5t125 18q75 0 132 -21t92 -56t57 -87t30 -107t8 -123v-745h-100v762q0 141 -61 209.5t-193 68.5q-163 0 -324 -149v-891h-100zM526 1268l119 331h111l-156 -331h-74z" />
<glyph unicode="&#x145;" horiz-adv-x="1316" d="M195 0v1434h77l744 -1201h8v1201h98v-1434h-82l-739 1200h-8v-1200h-98zM592 -96h141v-148q0 -61 -18 -110.5t-66 -106.5l-57 41q38 46 51.5 81.5t15.5 94.5h-67v148z" />
<glyph unicode="&#x146;" horiz-adv-x="1116" d="M174 0v1120h78l14 -151q25 26 55.5 50.5t78 54t108.5 47.5t125 18q75 0 132 -21t92 -56t57 -87t30 -107t8 -123v-745h-100v762q0 141 -61 209.5t-193 68.5q-163 0 -324 -149v-891h-100zM500 -96h141v-148q0 -61 -18 -110.5t-66 -106.5l-57 41q38 46 51.5 81.5t15.5 94.5 h-67v148z" />
<glyph unicode="&#x147;" horiz-adv-x="1316" d="M195 0v1434h77l744 -1201h8v1201h98v-1434h-82l-739 1200h-8v-1200h-98zM401 1907h82l193 -234l192 234h82l-223 -332h-102z" />
<glyph unicode="&#x148;" horiz-adv-x="1136" d="M174 0v1120h78l14 -151q25 26 55.5 50.5t78 54t108.5 47.5t125 18q75 0 132 -21t92 -56t57 -87t30 -107t8 -123v-745h-100v762q0 141 -61 209.5t-193 68.5q-163 0 -324 -149v-891h-100zM305 1599h82l193 -233l192 233h82l-223 -331h-103z" />
<glyph unicode="&#x149;" horiz-adv-x="1116" d="M2 1206q39 46 53 82t15 94h-68v148h141v-148q0 -61 -18 -110.5t-66 -106.5zM174 0v1120h78l14 -151q25 26 55.5 50.5t78 54t108.5 47.5t125 18q75 0 132 -21t92 -56t57 -87t30 -107t8 -123v-745h-100v762q0 141 -61 209.5t-193 68.5q-163 0 -324 -149v-891h-100z" />
<glyph unicode="&#x14a;" horiz-adv-x="1316" d="M195 0v1434h77l746 -1209h8v1209h96v-1434q0 -56 -4 -101.5t-14 -91t-26.5 -80.5t-42.5 -65t-61 -50t-83 -31t-107 -11q-67 0 -135 18l17 95q66 -15 108 -15q65 0 111 18t71.5 45.5t39.5 76t18 95t4 117.5v17l-719 1171h-8v-1208h-96z" />
<glyph unicode="&#x14b;" horiz-adv-x="1116" d="M174 0v1120h78l14 -151q25 26 55.5 50.5t78 54t108.5 47.5t125 18q75 0 132 -21t92 -56t57 -87t30 -107t8 -123v-831q0 -169 -62 -252.5t-216 -83.5q-82 0 -142 29l23 82q70 -19 113 -19q107 0 145.5 57t38.5 167v868q0 141 -61 209.5t-193 68.5q-163 0 -324 -149v-891 h-100z" />
<glyph unicode="&#x14c;" horiz-adv-x="1200" d="M147 465v504q0 225 113 353t340 128q229 0 341 -128t112 -353v-504q0 -225 -112 -353t-341 -128q-227 0 -340 128t-113 353zM252 481q0 -193 82.5 -296t265.5 -103q185 0 266.5 102.5t81.5 296.5v471q0 194 -81.5 296t-266.5 102q-183 0 -265.5 -102.5t-82.5 -295.5v-471 zM354 1708v88h500v-88h-500z" />
<glyph unicode="&#x14d;" horiz-adv-x="1013" d="M117 412v297q0 205 95.5 317.5t295.5 112.5q389 0 389 -430v-297q0 -428 -389 -428q-200 0 -295.5 112t-95.5 316zM217 422q0 -171 66.5 -258.5t224.5 -87.5q86 0 143.5 25.5t89.5 78.5t45 122t13 167v229q0 173 -66.5 261t-224.5 88q-87 0 -145 -25.5t-89.5 -79 t-44 -122.5t-12.5 -169v-229zM258 1401v88h500v-88h-500z" />
<glyph unicode="&#x14e;" horiz-adv-x="1198" d="M147 465v504q0 225 113 353t340 128q229 0 341 -128t112 -353v-504q0 -225 -112 -353t-341 -128q-227 0 -340 128t-113 353zM252 481q0 -193 82.5 -296t265.5 -103q185 0 266.5 102.5t81.5 296.5v471q0 194 -81.5 296t-266.5 102q-183 0 -265.5 -102.5t-82.5 -295.5v-471 zM334 1853v29h80v-29q0 -165 190 -165q191 0 191 165v29h79v-29q0 -66 -22 -115t-60.5 -76t-85 -39.5t-102.5 -12.5t-102.5 12.5t-85 39.5t-60.5 76t-22 115z" />
<glyph unicode="&#x14f;" horiz-adv-x="1013" d="M117 412v297q0 205 95.5 317.5t295.5 112.5q389 0 389 -430v-297q0 -428 -389 -428q-200 0 -295.5 112t-95.5 316zM217 422q0 -171 66.5 -258.5t224.5 -87.5q86 0 143.5 25.5t89.5 78.5t45 122t13 167v229q0 173 -66.5 261t-224.5 88q-87 0 -145 -25.5t-89.5 -79 t-44 -122.5t-12.5 -169v-229zM236 1546v29h79v-29q0 -166 191 -166q190 0 190 166v29h80v-29q0 -66 -22 -115t-60.5 -76t-85 -39.5t-102.5 -12.5t-102.5 12.5t-85 39.5t-60.5 76t-22 115z" />
<glyph unicode="&#x150;" horiz-adv-x="1200" d="M147 465v504q0 225 113 353t340 128q229 0 341 -128t112 -353v-504q0 -225 -112 -353t-341 -128q-227 0 -340 128t-113 353zM252 481q0 -193 82.5 -296t265.5 -103q185 0 266.5 102.5t81.5 296.5v471q0 194 -81.5 296t-266.5 102q-183 0 -265.5 -102.5t-82.5 -295.5v-471 zM467 1575l119 332h110l-155 -332h-74zM696 1575l119 332h111l-156 -332h-74z" />
<glyph unicode="&#x151;" horiz-adv-x="1013" d="M117 412v297q0 205 95.5 317.5t295.5 112.5q389 0 389 -430v-297q0 -428 -389 -428q-200 0 -295.5 112t-95.5 316zM217 422q0 -171 66.5 -258.5t224.5 -87.5q86 0 143.5 25.5t89.5 78.5t45 122t13 167v229q0 173 -66.5 261t-224.5 88q-87 0 -145 -25.5t-89.5 -79 t-44 -122.5t-12.5 -169v-229zM350 1268l119 331h111l-156 -331h-74zM580 1268l118 331h111l-156 -331h-73z" />
<glyph unicode="&#x152;" horiz-adv-x="1779" d="M147 465v504q0 225 113 353t340 128q253 0 348 -178v162h707v-97h-602v-549h563v-96h-563v-596h602v-96h-707v164q-99 -180 -348 -180q-227 0 -340 128t-113 353zM252 481q0 -193 82.5 -296t265.5 -103q185 0 266.5 102.5t81.5 296.5v471q0 194 -81.5 296t-266.5 102 q-183 0 -265.5 -102.5t-82.5 -295.5v-471z" />
<glyph unicode="&#x153;" horiz-adv-x="1675" d="M117 412v297q0 205 95.5 317.5t295.5 112.5q247 0 338 -181q91 181 338 181q385 0 385 -430v-187h-672v-141q0 -144 67.5 -224.5t227.5 -80.5q100 0 167.5 23t145.5 73l41 -76q-158 -112 -354 -112q-267 0 -348 190q-87 -190 -336 -190q-200 0 -295.5 112t-95.5 316z M217 422q0 -171 66.5 -258.5t224.5 -87.5q159 0 225 89t66 267v266q0 173 -66.5 261t-224.5 88q-87 0 -145 -25.5t-89.5 -79t-44 -122.5t-12.5 -169v-229zM897 608h576v90q0 173 -66.5 261t-222.5 88q-152 0 -218.5 -85.5t-68.5 -252.5v-101z" />
<glyph unicode="&#x154;" horiz-adv-x="1169" d="M199 0v1434h358q246 0 358.5 -103t112.5 -317q0 -334 -283 -400l320 -614h-117l-309 594h-336v-594h-104zM303 690h258q195 0 278 81t83 243q0 167 -84 245t-287 78h-248v-647zM549 1575l119 332h110l-155 -332h-74z" />
<glyph unicode="&#x155;" horiz-adv-x="735" d="M174 0v1120h78l14 -180q22 32 52.5 63t74.5 63.5t104 52.5t124 20q40 0 84 -13l-19 -98q-43 12 -86 12q-103 0 -192 -58.5t-134 -129.5v-852h-100zM352 1268l119 331h111l-156 -331h-74z" />
<glyph unicode="&#x156;" horiz-adv-x="1169" d="M199 0v1434h358q246 0 358.5 -103t112.5 -317q0 -334 -283 -400l320 -614h-117l-309 594h-336v-594h-104zM303 690h258q195 0 278 81t83 243q0 167 -84 245t-287 78h-248v-647zM530 -96h142v-148q0 -61 -18 -110.5t-66 -106.5l-58 41q39 46 53 82t15 94h-68v148z" />
<glyph unicode="&#x157;" horiz-adv-x="735" d="M166 -96h141v-148q0 -61 -18 -110.5t-66 -106.5l-57 41q38 46 51.5 81.5t15.5 94.5h-67v148zM174 0v1120h78l14 -180q22 32 52.5 63t74.5 63.5t104 52.5t124 20q40 0 84 -13l-19 -98q-43 12 -86 12q-103 0 -192 -58.5t-134 -129.5v-852h-100z" />
<glyph unicode="&#x158;" horiz-adv-x="1169" d="M199 0v1434h358q246 0 358.5 -103t112.5 -317q0 -334 -283 -400l320 -614h-117l-309 594h-336v-594h-104zM289 1907h82l192 -234l193 234h82l-224 -332h-102zM303 690h258q195 0 278 81t83 243q0 167 -84 245t-287 78h-248v-647z" />
<glyph unicode="&#x159;" horiz-adv-x="735" d="M121 1599h82l192 -233l193 233h82l-224 -331h-102zM174 0v1120h78l14 -180q22 32 52.5 63t74.5 63.5t104 52.5t124 20q40 0 84 -13l-19 -98q-43 12 -86 12q-103 0 -192 -58.5t-134 -129.5v-852h-100z" />
<glyph unicode="&#x15a;" horiz-adv-x="1040" d="M94 117l49 84q196 -117 371 -117q94 0 162 23t105 65t54 92t17 113q0 70 -24.5 123t-66.5 86.5t-96.5 59.5t-114.5 45.5t-119.5 40t-114 49t-96.5 66t-66.5 97t-24.5 137.5q0 82 22 146.5t59 106t89 68t108.5 37.5t120.5 11q199 0 381 -125l-49 -88q-81 55 -158.5 84 t-175.5 29q-297 0 -297 -269q0 -60 25 -105.5t67 -74.5t96 -52t114.5 -43t120.5 -41.5t114 -53.5t96 -73t67 -105.5t25 -147.5q0 -84 -22 -153t-71 -126.5t-137 -89.5t-210 -32q-129 0 -228.5 35.5t-191.5 97.5zM477 1575l119 332h111l-156 -332h-74z" />
<glyph unicode="&#x15b;" horiz-adv-x="872" d="M80 86l41 76q162 -90 307 -90q277 0 277 227q0 55 -20.5 96.5t-55 67.5t-79.5 46t-95 35.5t-99.5 31.5t-94.5 38t-79.5 51.5t-55 76.5t-20.5 108q0 141 89.5 215t250.5 74q173 0 306 -92l-41 -74q-132 78 -262 78q-246 0 -246 -197q0 -52 25.5 -90.5t67.5 -60.5t95.5 -43 t109.5 -36.5t109.5 -41.5t95.5 -58t67.5 -86.5t25.5 -126.5q0 -155 -89 -241t-280 -86q-96 0 -189.5 30.5t-160.5 71.5zM377 1268l119 331h110l-155 -331h-74z" />
<glyph unicode="&#x15c;" horiz-adv-x="1040" d="M94 117l49 84q196 -117 371 -117q94 0 162 23t105 65t54 92t17 113q0 70 -24.5 123t-66.5 86.5t-96.5 59.5t-114.5 45.5t-119.5 40t-114 49t-96.5 66t-66.5 97t-24.5 137.5q0 82 22 146.5t59 106t89 68t108.5 37.5t120.5 11q199 0 381 -125l-49 -88q-81 55 -158.5 84 t-175.5 29q-297 0 -297 -269q0 -60 25 -105.5t67 -74.5t96 -52t114.5 -43t120.5 -41.5t114 -53.5t96 -73t67 -105.5t25 -147.5q0 -84 -22 -153t-71 -126.5t-137 -89.5t-210 -32q-129 0 -228.5 35.5t-191.5 97.5zM258 1575l223 332h103l223 -332h-82l-193 233l-192 -233h-82z " />
<glyph unicode="&#x15d;" horiz-adv-x="872" d="M80 86l41 76q162 -90 307 -90q277 0 277 227q0 55 -20.5 96.5t-55 67.5t-79.5 46t-95 35.5t-99.5 31.5t-94.5 38t-79.5 51.5t-55 76.5t-20.5 108q0 141 89.5 215t250.5 74q173 0 306 -92l-41 -74q-132 78 -262 78q-246 0 -246 -197q0 -52 25.5 -90.5t67.5 -60.5t95.5 -43 t109.5 -36.5t109.5 -41.5t95.5 -58t67.5 -86.5t25.5 -126.5q0 -155 -89 -241t-280 -86q-96 0 -189.5 30.5t-160.5 71.5zM170 1268l223 331h103l223 -331h-82l-193 233l-192 -233h-82z" />
<glyph unicode="&#x15e;" horiz-adv-x="1040" d="M94 117l49 84q196 -117 371 -117q94 0 162 23t105 65t54 92t17 113q0 70 -24.5 123t-66.5 86.5t-96.5 59.5t-114.5 45.5t-119.5 40t-114 49t-96.5 66t-66.5 97t-24.5 137.5q0 82 22 146.5t59 106t89 68t108.5 37.5t120.5 11q199 0 381 -125l-49 -88q-81 55 -158.5 84 t-175.5 29q-297 0 -297 -269q0 -60 25 -105.5t67 -74.5t96 -52t114.5 -43t120.5 -41.5t114 -53.5t96 -73t67 -105.5t25 -147.5q0 -84 -22 -153t-70.5 -126t-136 -89t-207.5 -33l-29 -113q39 8 72 8q67 0 109.5 -34.5t42.5 -110.5q0 -152 -191 -152q-74 0 -155 31l20 63 q73 -22 123 -22q61 0 92 17t31 63q0 78 -98 78q-35 0 -76 -13l-43 33l26 156q-179 14 -348 129z" />
<glyph unicode="&#x15f;" horiz-adv-x="872" d="M80 86l41 76q162 -90 307 -90q277 0 277 227q0 69 -33 117.5t-86 75.5t-116.5 47.5t-127.5 42.5t-117 51.5t-86 84t-33 130.5q0 141 90 216t250 75q173 0 306 -92l-41 -74q-132 78 -262 78q-246 0 -246 -197q0 -59 33 -100.5t85.5 -65.5t116 -44t127 -44.5t116 -57.5 t85.5 -91.5t33 -139.5q0 -151 -85.5 -237t-267.5 -90l-30 -113q39 8 71 8q67 0 109.5 -34.5t42.5 -110.5q0 -152 -190 -152q-75 0 -156 31l20 63q73 -22 123 -22q61 0 92 17t31 63q0 78 -98 78q-35 0 -76 -13l-43 33l29 156q-159 16 -291 98z" />
<glyph unicode="&#x160;" horiz-adv-x="1040" d="M94 117l49 84q196 -117 371 -117q94 0 162 23t105 65t54 92t17 113q0 70 -24.5 123t-66.5 86.5t-96.5 59.5t-114.5 45.5t-119.5 40t-114 49t-96.5 66t-66.5 97t-24.5 137.5q0 82 22 146.5t59 106t89 68t108.5 37.5t120.5 11q199 0 381 -125l-49 -88q-81 55 -158.5 84 t-175.5 29q-297 0 -297 -269q0 -60 25 -105.5t67 -74.5t96 -52t114.5 -43t120.5 -41.5t114 -53.5t96 -73t67 -105.5t25 -147.5q0 -84 -22 -153t-71 -126.5t-137 -89.5t-210 -32q-129 0 -228.5 35.5t-191.5 97.5zM260 1913h82l193 -234l192 234h82l-223 -332h-103z" />
<glyph unicode="&#x161;" horiz-adv-x="872" d="M80 86l41 76q162 -90 307 -90q277 0 277 227q0 55 -20.5 96.5t-55 67.5t-79.5 46t-95 35.5t-99.5 31.5t-94.5 38t-79.5 51.5t-55 76.5t-20.5 108q0 141 89.5 215t250.5 74q173 0 306 -92l-41 -74q-132 78 -262 78q-246 0 -246 -197q0 -52 25.5 -90.5t67.5 -60.5t95.5 -43 t109.5 -36.5t109.5 -41.5t95.5 -58t67.5 -86.5t25.5 -126.5q0 -155 -89 -241t-280 -86q-96 0 -189.5 30.5t-160.5 71.5zM180 1599h82l193 -233l192 233h82l-223 -331h-103z" />
<glyph unicode="&#x162;" horiz-adv-x="1075" d="M84 1337v97h907v-97h-401v-1337h-23l-35 -129q39 8 72 8q67 0 109.5 -34.5t42.5 -110.5q0 -152 -191 -152q-74 0 -155 31l20 63q73 -22 123 -22q61 0 92 17t31 63q0 78 -98 78q-35 0 -76 -13l-43 33l26 168v1337h-401z" />
<glyph unicode="&#x163;" horiz-adv-x="768" d="M59 1032v76l201 12v232l100 14v-246h304v-88h-304v-737q0 -112 38.5 -160.5t140.5 -48.5q55 0 133 20l24 -77q-75 -35 -168 -35q-19 0 -51 4l-35 -127q39 8 72 8q67 0 109.5 -34.5t42.5 -110.5q0 -152 -191 -152q-75 0 -156 31l21 63q73 -22 123 -22q61 0 92 17t31 63 q0 78 -99 78q-34 0 -75 -13l-43 33l34 180q-77 28 -110 104.5t-33 211.5v704h-201z" />
<glyph unicode="&#x164;" horiz-adv-x="1075" d="M84 1337v97h907v-97h-401v-1337h-105v1337h-401zM279 1907h81l193 -234l192 234h82l-223 -332h-102z" />
<glyph unicode="&#x165;" horiz-adv-x="768" d="M59 1032v76l201 12v232l100 14v-246h304v-88h-304v-737q0 -112 38.5 -160.5t140.5 -48.5q55 0 133 20l24 -77q-75 -35 -168 -35q-147 0 -207.5 79t-60.5 255v704h-201zM541 1251l37 332h108l-74 -332h-71z" />
<glyph unicode="&#x166;" horiz-adv-x="1075" d="M84 1337v97h907v-97h-401v-469h276v-88h-276v-780h-105v780h-272v88h272v469h-401z" />
<glyph unicode="&#x167;" horiz-adv-x="768" d="M59 1032v76l201 12v232l100 14v-246h304v-88h-304v-284h281v-89h-281v-364q0 -112 38.5 -160.5t140.5 -48.5q55 0 133 20l24 -77q-75 -35 -168 -35q-147 0 -207.5 79t-60.5 255v331h-184v89h184v284h-201z" />
<glyph unicode="&#x168;" horiz-adv-x="1241" d="M174 438v996h105v-979q0 -184 78 -278.5t264 -94.5t264 94.5t78 278.5v979h104v-996q0 -454 -446 -454q-447 0 -447 454zM336 1651q65 159 180 159q39 0 78 -17t66.5 -38t61.5 -38t64 -17q36 0 62 22.5t57 79.5l66 -33q-67 -157 -180 -157q-49 0 -97.5 27.5t-92.5 55 t-81 27.5q-69 0 -117 -98z" />
<glyph unicode="&#x169;" horiz-adv-x="1110" d="M166 375v745h100v-762q0 -141 61 -209.5t193 -68.5q163 0 324 149v891h100v-1120h-78l-14 152q-25 -26 -55.5 -50.5t-78 -54t-108.5 -47.5t-125 -18q-93 0 -158 30.5t-99 87.5t-48 123t-14 152zM233 1343q65 160 181 160q39 0 78 -17t66.5 -38t61.5 -38t64 -17 q36 0 62 22.5t57 79.5l65 -33q-67 -157 -180 -157q-39 0 -78 17t-66.5 38t-61.5 38t-64 17q-69 0 -117 -98z" />
<glyph unicode="&#x16a;" horiz-adv-x="1241" d="M174 438v996h105v-979q0 -184 78 -278.5t264 -94.5t264 94.5t78 278.5v979h104v-996q0 -454 -446 -454q-447 0 -447 454zM389 1708v88h500v-88h-500z" />
<glyph unicode="&#x16b;" horiz-adv-x="1110" d="M166 375v745h100v-762q0 -141 61 -209.5t193 -68.5q163 0 324 149v891h100v-1120h-78l-14 152q-25 -26 -55.5 -50.5t-78 -54t-108.5 -47.5t-125 -18q-93 0 -158 30.5t-99 87.5t-48 123t-14 152zM291 1401v88h500v-88h-500z" />
<glyph unicode="&#x16c;" horiz-adv-x="1241" d="M174 438v996h105v-979q0 -184 78 -278.5t264 -94.5t264 94.5t78 278.5v979h104v-996q0 -454 -446 -454q-447 0 -447 454zM371 1853v29h80v-29q0 -165 190 -165t190 165v29h80v-29q0 -66 -22 -115t-60.5 -76t-85 -39.5t-102.5 -12.5t-102.5 12.5t-85 39.5t-60.5 76 t-22 115z" />
<glyph unicode="&#x16d;" horiz-adv-x="1110" d="M166 375v745h100v-762q0 -141 61 -209.5t193 -68.5q163 0 324 149v891h100v-1120h-78l-14 152q-25 -26 -55.5 -50.5t-78 -54t-108.5 -47.5t-125 -18q-93 0 -158 30.5t-99 87.5t-48 123t-14 152zM272 1546v29h80v-29q0 -166 191 -166q190 0 190 166v29h80v-29 q0 -66 -22 -115t-60.5 -76t-85 -39.5t-102.5 -12.5t-102.5 12.5t-85.5 39.5t-61 76t-22 115z" />
<glyph unicode="&#x16e;" horiz-adv-x="1241" d="M174 438v996h105v-979q0 -184 78 -278.5t264 -94.5t264 94.5t78 278.5v979h104v-996q0 -454 -446 -454q-447 0 -447 454zM440 1741q0 91 55 143.5t146 52.5t146 -52.5t55 -143.5t-55.5 -144t-145.5 -53t-145.5 53t-55.5 144zM518 1741q0 -56 32.5 -88.5t90.5 -32.5 t90.5 32.5t32.5 88.5t-32.5 88.5t-90.5 32.5t-90.5 -32.5t-32.5 -88.5z" />
<glyph unicode="&#x16f;" horiz-adv-x="1112" d="M166 375v745h100v-762q0 -141 61 -209.5t193 -68.5q163 0 324 149v891h100v-1120h-78l-14 152q-25 -26 -55.5 -50.5t-78 -54t-108.5 -47.5t-125 -18q-93 0 -158 30.5t-99 87.5t-48 123t-14 152zM342 1434q0 91 55 143.5t146 52.5q90 0 145 -52.5t55 -143.5t-55 -144 t-145 -53t-145.5 53t-55.5 144zM420 1434q0 -56 32.5 -88.5t90.5 -32.5t90.5 32.5t32.5 88.5t-32.5 88t-90.5 32t-90.5 -32t-32.5 -88z" />
<glyph unicode="&#x170;" horiz-adv-x="1241" d="M174 438v996h105v-979q0 -184 78 -278.5t264 -94.5t264 94.5t78 278.5v979h104v-996q0 -454 -446 -454q-447 0 -447 454zM457 1575l118 332h111l-156 -332h-73zM686 1575l119 332h110l-155 -332h-74z" />
<glyph unicode="&#x171;" horiz-adv-x="1110" d="M166 375v745h100v-762q0 -141 61 -209.5t193 -68.5q163 0 324 149v891h100v-1120h-78l-14 152q-25 -26 -55.5 -50.5t-78 -54t-108.5 -47.5t-125 -18q-93 0 -158 30.5t-99 87.5t-48 123t-14 152zM387 1268l119 331h110l-155 -331h-74zM616 1268l119 331h111l-156 -331h-74 z" />
<glyph unicode="&#x172;" horiz-adv-x="1241" d="M174 438v996h105v-979q0 -184 78 -278.5t264 -94.5t264 94.5t78 278.5v979h104v-996q0 -264 -170 -387q-223 -161 -223 -299q0 -94 98 -94q50 0 100 20l17 -61q-65 -35 -135 -35q-77 0 -123.5 39t-46.5 117q0 136 147 256q-58 -10 -110 -10q-447 0 -447 454z" />
<glyph unicode="&#x173;" horiz-adv-x="1107" d="M166 375v745h100v-762q0 -141 61 -209.5t193 -68.5q163 0 324 149v891h100v-1120q-102 -51 -158.5 -116.5t-56.5 -131.5q0 -94 98 -94q51 0 101 20l16 -61q-65 -35 -135 -35q-77 0 -123.5 39t-46.5 117q0 83 64 158t161 120l-12 136q-25 -26 -55.5 -50.5t-78 -54 t-108.5 -47.5t-125 -18q-93 0 -158 30.5t-99 87.5t-48 123t-14 152z" />
<glyph unicode="&#x174;" horiz-adv-x="1683" d="M63 1434h113l301 -1297h8l303 1297h107l303 -1297h8l301 1297h113l-350 -1434h-135l-289 1217h-8l-289 -1217h-135zM571 1575l224 332h102l223 -332h-82l-192 233l-193 -233h-82z" />
<glyph unicode="&#x175;" horiz-adv-x="1429" d="M59 1120h103l256 -1005h8l246 1005h86l246 -1005h8l256 1005h102l-301 -1120h-123l-227 903h-8l-228 -903h-123zM432 1268l223 331h103l223 -331h-82l-192 233l-193 -233h-82z" />
<glyph unicode="&#x176;" horiz-adv-x="1120" d="M59 1434h117l381 -762h8l379 762h119l-451 -871v-563h-104v563zM281 1575l223 332h102l223 -332h-81l-193 233l-193 -233h-81z" />
<glyph unicode="&#x177;" horiz-adv-x="956" d="M55 1120h109l311 -1001h8l308 1001h108l-491 -1534h-101l137 414h-26zM207 1268l223 331h102l224 -331h-82l-193 233l-192 -233h-82z" />
<glyph unicode="&#x178;" horiz-adv-x="1120" d="M59 1434h117l381 -762h8l379 762h119l-451 -871v-563h-104v563zM324 1638v144h139v-144h-139zM659 1638v144h140v-144h-140z" />
<glyph unicode="&#x179;" horiz-adv-x="1042" d="M115 0v80l688 1259h-660v95h787v-78l-688 -1262h688v-94h-815zM483 1575l119 332h111l-156 -332h-74z" />
<glyph unicode="&#x17a;" horiz-adv-x="944" d="M98 0v84l625 948h-602v88h721v-78l-623 -950h637v-92h-758zM389 1268l119 331h110l-155 -331h-74z" />
<glyph unicode="&#x17b;" horiz-adv-x="1042" d="M115 0v80l688 1259h-660v95h787v-78l-688 -1262h688v-94h-815zM453 1647v143h135v-143h-135z" />
<glyph unicode="&#x17c;" horiz-adv-x="944" d="M98 0v84l625 948h-602v88h721v-78l-623 -950h637v-92h-758zM391 1339v144h135v-144h-135z" />
<glyph unicode="&#x17d;" horiz-adv-x="1042" d="M115 0v80l688 1259h-660v95h787v-78l-688 -1262h688v-94h-815zM246 1913h82l192 -234l193 234h82l-224 -332h-102z" />
<glyph unicode="&#x17e;" horiz-adv-x="944" d="M98 0v84l625 948h-602v88h721v-78l-623 -950h637v-92h-758zM197 1599h82l192 -233l193 233h81l-223 -331h-102z" />
<glyph unicode="&#x192;" horiz-adv-x="974" d="M-160 -393l27 76q68 -21 133 -21q103 0 155 58t68 165l158 1004h-193l9 74l198 14l37 242q25 162 108 245.5t222 83.5q90 0 147 -32l-28 -80q-55 20 -121 20q-191 0 -225 -227l-41 -252h299l-17 -88h-297l-153 -983q-27 -173 -103 -254.5t-223 -81.5q-87 0 -160 37z" />
<glyph unicode="&#x1e2;" horiz-adv-x="1622" d="M66 0l477 1434h954v-97h-833l182 -549h612v-96h-584l191 -596h434v-96h-500l-137 418h-549l-137 -418h-110zM340 514h496l-244 756h-8zM721 1708v88h500v-88h-500z" />
<glyph unicode="&#x1e3;" horiz-adv-x="1662" d="M117 297q0 91 38 164t101 120t151 78.5t182 44.5t199 13v86q0 244 -276 244q-56 0 -113.5 -12.5t-95 -26.5t-102.5 -41l-31 80q184 92 342 92q251 0 336 -164q92 164 323 164q385 0 385 -430v-187h-669v-162q0 -131 69.5 -207.5t223.5 -76.5q100 0 167.5 23t145.5 73 l41 -76q-158 -112 -354 -112q-267 0 -351 192q-57 -88 -150 -140t-214 -52q-162 0 -255 86.5t-93 226.5zM217 297q0 -107 72.5 -169t193.5 -62q61 0 115 19.5t91.5 51t62.5 65t36 66.5v367q-119 0 -217.5 -17.5t-180 -55t-127.5 -105t-46 -160.5zM592 1401v88h500v-88h-500z M887 608h573v90q0 173 -66.5 261t-222.5 88q-151 0 -216.5 -84t-67.5 -248v-107z" />
<glyph unicode="&#x1fa;" horiz-adv-x="1175" d="M66 0l454 1360q-62 17 -97.5 66t-35.5 122q0 91 55.5 144t145.5 53t145 -53t55 -144q0 -72 -36 -121t-99 -67l457 -1360h-111l-137 418h-549l-137 -418h-110zM340 514h496l-244 756h-8zM465 1548q0 -56 32.5 -88.5t90.5 -32.5t90.5 32.5t32.5 88.5t-32.5 88.5t-90.5 32.5 t-90.5 -32.5t-32.5 -88.5zM559 1806l119 301h110l-155 -301h-74z" />
<glyph unicode="&#x1fb;" horiz-adv-x="1046" d="M117 297q0 91 38 164t101 120t151 78.5t182 44.5t199 13v86q0 244 -276 244q-56 0 -113.5 -12.5t-95 -26.5t-102.5 -41l-31 80q184 92 342 92q375 0 375 -357v-782h-78l-14 152q-47 -74 -131 -121t-199 -47q-162 0 -255 86.5t-93 226.5zM217 297q0 -106 72.5 -166.5 t193.5 -60.5q107 0 194.5 64t110.5 134v367q-119 0 -217.5 -17.5t-180 -55t-127.5 -105t-46 -160.5zM313 1407q0 91 55.5 144t145.5 53q5 0 16.5 -1t16.5 -1l88 247h110l-127 -270q97 -51 97 -172q0 -91 -55.5 -144t-145.5 -53t-145.5 53t-55.5 144zM391 1407 q0 -56 32.5 -88.5t90.5 -32.5t90.5 32.5t32.5 88.5t-32.5 88.5t-90.5 32.5t-90.5 -32.5t-32.5 -88.5z" />
<glyph unicode="&#x1fc;" horiz-adv-x="1622" d="M66 0l477 1434h954v-97h-833l182 -549h612v-96h-584l191 -596h434v-96h-500l-137 418h-549l-137 -418h-110zM340 514h496l-244 756h-8zM866 1575l119 332h111l-156 -332h-74z" />
<glyph unicode="&#x1fd;" horiz-adv-x="1662" d="M117 297q0 91 38 164t101 120t151 78.5t182 44.5t199 13v86q0 244 -276 244q-56 0 -113.5 -12.5t-95 -26.5t-102.5 -41l-31 80q184 92 342 92q251 0 336 -164q92 164 323 164q385 0 385 -430v-187h-669v-162q0 -131 69.5 -207.5t223.5 -76.5q100 0 167.5 23t145.5 73 l41 -76q-158 -112 -354 -112q-267 0 -351 192q-57 -88 -150 -140t-214 -52q-162 0 -255 86.5t-93 226.5zM217 297q0 -107 72.5 -169t193.5 -62q61 0 115 19.5t91.5 51t62.5 65t36 66.5v367q-119 0 -217.5 -17.5t-180 -55t-127.5 -105t-46 -160.5zM778 1268l119 331h111 l-156 -331h-74zM887 608h573v90q0 173 -66.5 261t-222.5 88q-151 0 -216.5 -84t-67.5 -248v-107z" />
<glyph unicode="&#x1fe;" horiz-adv-x="1200" d="M147 465v504q0 225 113 353t340 128q135 0 231 -47l41 104h86l-59 -147q154 -124 154 -391v-504q0 -225 -112 -353t-341 -128q-139 0 -231 47l-41 -105h-86l57 148q-152 123 -152 391zM252 481q0 -204 88 -305l453 1131q-73 43 -193 43q-183 0 -265.5 -102.5 t-82.5 -295.5v-471zM406 125q76 -43 194 -43q185 0 266.5 102.5t81.5 296.5v471q0 206 -90 303zM537 1575l118 332h111l-156 -332h-73z" />
<glyph unicode="&#x1ff;" horiz-adv-x="1013" d="M117 412v297q0 205 95.5 317.5t295.5 112.5q95 0 174 -29l37 90h84l-51 -127q145 -101 145 -364v-297q0 -428 -389 -428q-106 0 -180 30l-35 -88h-84l51 125q-143 103 -143 361zM217 422q0 -192 80 -275l350 875q-58 25 -139 25q-87 0 -145 -25.5t-89.5 -79t-44 -122.5 t-12.5 -169v-229zM362 102q56 -26 146 -26q86 0 143.5 25.5t89.5 78.5t45 122t13 167v229q0 198 -86 281zM442 1268l119 331h111l-156 -331h-74z" />
<glyph unicode="&#x218;" horiz-adv-x="1040" d="M94 117l49 84q196 -117 371 -117q94 0 162 23t105 65t54 92t17 113q0 70 -24.5 123t-66.5 86.5t-96.5 59.5t-114.5 45.5t-119.5 40t-114 49t-96.5 66t-66.5 97t-24.5 137.5q0 82 22 146.5t59 106t89 68t108.5 37.5t120.5 11q199 0 381 -125l-49 -88q-81 55 -158.5 84 t-175.5 29q-297 0 -297 -269q0 -60 25 -105.5t67 -74.5t96 -52t114.5 -43t120.5 -41.5t114 -53.5t96 -73t67 -105.5t25 -147.5q0 -84 -22 -153t-71 -126.5t-137 -89.5t-210 -32q-129 0 -228.5 35.5t-191.5 97.5zM455 -96h141v-148q0 -61 -18 -110.5t-66 -106.5l-57 41 q38 46 51.5 81.5t15.5 94.5h-67v148z" />
<glyph unicode="&#x219;" horiz-adv-x="872" d="M80 86l41 76q162 -90 307 -90q277 0 277 227q0 55 -20.5 96.5t-55 67.5t-79.5 46t-95 35.5t-99.5 31.5t-94.5 38t-79.5 51.5t-55 76.5t-20.5 108q0 141 89.5 215t250.5 74q173 0 306 -92l-41 -74q-132 78 -262 78q-246 0 -246 -197q0 -52 25.5 -90.5t67.5 -60.5t95.5 -43 t109.5 -36.5t109.5 -41.5t95.5 -58t67.5 -86.5t25.5 -126.5q0 -155 -89 -241t-280 -86q-96 0 -189.5 30.5t-160.5 71.5zM367 -96h141v-148q0 -61 -18 -110.5t-66 -106.5l-57 41q38 46 51.5 81.5t15.5 94.5h-67v148z" />
<glyph unicode="&#x21a;" horiz-adv-x="1075" d="M84 1337v97h907v-97h-401v-1337h-105v1337h-401zM465 -96h141v-148q0 -61 -18 -110.5t-66 -106.5l-57 41q38 46 51.5 81.5t15.5 94.5h-67v148z" />
<glyph unicode="&#x21b;" horiz-adv-x="768" d="M59 1032v76l201 12v232l100 14v-246h304v-88h-304v-737q0 -112 38.5 -160.5t140.5 -48.5q55 0 133 20l24 -77q-75 -35 -168 -35q-147 0 -207.5 79t-60.5 255v704h-201zM399 -96h142v-148q0 -61 -18 -110.5t-66 -106.5l-58 41q39 46 53 82t15 94h-68v148z" />
<glyph unicode="&#x237;" horiz-adv-x="446" d="M-141 -393l22 82q70 -19 113 -19q107 0 145.5 57t38.5 167v1226h101v-1206q0 -169 -62.5 -252.5t-216.5 -83.5q-81 0 -141 29z" />
<glyph unicode="&#x2c6;" horiz-adv-x="897" d="M174 1268l223 331h103l223 -331h-82l-192 233l-193 -233h-82z" />
<glyph unicode="&#x2c7;" horiz-adv-x="897" d="M174 1599h82l193 -233l192 233h82l-223 -331h-103z" />
<glyph unicode="&#x2d8;" horiz-adv-x="741" d="M100 1546v29h80v-29q0 -166 191 -166q190 0 190 166v29h80v-29q0 -66 -22 -115t-60.5 -76t-85 -39.5t-102.5 -12.5t-102.5 12.5t-85.5 39.5t-61 76t-22 115z" />
<glyph unicode="&#x2d9;" horiz-adv-x="401" d="M133 1339v144h135v-144h-135z" />
<glyph unicode="&#x2da;" horiz-adv-x="874" d="M236 1434q0 91 55 143.5t145 52.5q91 0 146 -52.5t55 -143.5t-55.5 -144t-145.5 -53t-145 53t-55 144zM313 1434q0 -56 32.5 -88.5t90.5 -32.5t90.5 32.5t32.5 88.5t-32.5 88t-90.5 32t-90.5 -32t-32.5 -88z" />
<glyph unicode="&#x2db;" horiz-adv-x="894" d="M295 -262q0 82 59.5 152t145.5 110h100q-102 -51 -158.5 -116.5t-56.5 -131.5q0 -94 98 -94q51 0 101 20l16 -61q-65 -35 -135 -35q-77 0 -123.5 39t-46.5 117z" />
<glyph unicode="&#x2dc;" horiz-adv-x="784" d="M74 1343q65 160 180 160q39 0 78 -17t66.5 -38t61.5 -38t64 -17q36 0 62 22.5t57 79.5l66 -33q-67 -157 -181 -157q-39 0 -78 17t-66.5 38t-61.5 38t-64 17q-69 0 -117 -98z" />
<glyph unicode="&#x2dd;" horiz-adv-x="798" d="M172 1268l119 331h110l-155 -331h-74zM401 1268l119 331h111l-156 -331h-74z" />
<glyph unicode="&#x1e80;" horiz-adv-x="1683" d="M63 1434h113l301 -1297h8l303 1297h107l303 -1297h8l301 1297h113l-350 -1434h-135l-289 1217h-8l-289 -1217h-135zM666 1907h110l119 -332h-74z" />
<glyph unicode="&#x1e81;" horiz-adv-x="1429" d="M59 1120h103l256 -1005h8l246 1005h86l246 -1005h8l256 1005h102l-301 -1120h-123l-227 903h-8l-228 -903h-123zM516 1599h111l118 -331h-73z" />
<glyph unicode="&#x1e82;" horiz-adv-x="1683" d="M63 1434h113l301 -1297h8l303 1297h107l303 -1297h8l301 1297h113l-350 -1434h-135l-289 1217h-8l-289 -1217h-135zM788 1575l119 332h111l-156 -332h-74z" />
<glyph unicode="&#x1e83;" horiz-adv-x="1429" d="M59 1120h103l256 -1005h8l246 1005h86l246 -1005h8l256 1005h102l-301 -1120h-123l-227 903h-8l-228 -903h-123zM645 1268l119 331h110l-155 -331h-74z" />
<glyph unicode="&#x1e84;" horiz-adv-x="1683" d="M63 1434h113l301 -1297h8l303 1297h107l303 -1297h8l301 1297h113l-350 -1434h-135l-289 1217h-8l-289 -1217h-135zM608 1638v144h140v-144h-140zM944 1638v144h139v-144h-139z" />
<glyph unicode="&#x1e85;" horiz-adv-x="1429" d="M59 1120h103l256 -1005h8l246 1005h86l246 -1005h8l256 1005h102l-301 -1120h-123l-227 903h-8l-228 -903h-123zM467 1331v144h139v-144h-139zM803 1331v144h139v-144h-139z" />
<glyph unicode="&#x1ef2;" horiz-adv-x="1120" d="M59 1434h117l381 -762h8l379 762h119l-451 -871v-563h-104v563zM383 1907h111l118 -332h-73z" />
<glyph unicode="&#x1ef3;" horiz-adv-x="956" d="M55 1120h109l311 -1001h8l308 1001h108l-491 -1534h-101l137 414h-26zM305 1599h111l119 -331h-74z" />
<glyph unicode="&#x2000;" horiz-adv-x="1053" />
<glyph unicode="&#x2001;" horiz-adv-x="2107" />
<glyph unicode="&#x2002;" horiz-adv-x="1053" />
<glyph unicode="&#x2003;" horiz-adv-x="2107" />
<glyph unicode="&#x2004;" horiz-adv-x="702" />
<glyph unicode="&#x2005;" horiz-adv-x="526" />
<glyph unicode="&#x2006;" horiz-adv-x="351" />
<glyph unicode="&#x2007;" horiz-adv-x="351" />
<glyph unicode="&#x2008;" horiz-adv-x="263" />
<glyph unicode="&#x2009;" horiz-adv-x="421" />
<glyph unicode="&#x200a;" horiz-adv-x="117" />
<glyph unicode="&#x2010;" horiz-adv-x="669" d="M82 586v90h504v-90h-504z" />
<glyph unicode="&#x2011;" horiz-adv-x="669" d="M82 586v90h504v-90h-504z" />
<glyph unicode="&#x2012;" horiz-adv-x="669" d="M82 586v90h504v-90h-504z" />
<glyph unicode="&#x2013;" horiz-adv-x="985" d="M82 586v90h821v-90h-821z" />
<glyph unicode="&#x2014;" horiz-adv-x="1626" d="M82 586v90h1462v-90h-1462z" />
<glyph unicode="&#x2018;" horiz-adv-x="399" d="M113 1147v129q0 149 112 283l60 -43q-44 -53 -68 -103t-27 -113h72v-153h-149z" />
<glyph unicode="&#x2019;" horiz-adv-x="399" d="M115 1180q44 52 67.5 102t26.5 113h-72v153h150v-129q0 -146 -113 -282z" />
<glyph unicode="&#x201a;" horiz-adv-x="417" d="M115 -215q44 52 67.5 102t26.5 113h-72v154h150v-129q0 -147 -113 -283z" />
<glyph unicode="&#x201c;" horiz-adv-x="663" d="M113 1147v129q0 149 112 283l60 -43q-44 -53 -68 -103t-27 -113h72v-153h-149zM377 1147v129q0 149 112 283l60 -43q-89 -106 -94 -216h71v-153h-149z" />
<glyph unicode="&#x201d;" horiz-adv-x="663" d="M115 1180q44 52 67.5 102t26.5 113h-72v153h150v-129q0 -146 -113 -282zM379 1180q44 52 67.5 102t26.5 113h-72v153h150v-129q0 -146 -113 -282z" />
<glyph unicode="&#x201e;" horiz-adv-x="704" d="M115 -215q44 52 67.5 102t26.5 113h-72v154h150v-129q0 -147 -113 -283zM379 -215q44 52 67.5 102t26.5 113h-72v154h150v-129q0 -147 -113 -283z" />
<glyph unicode="&#x2020;" horiz-adv-x="702" d="M68 956v103l231 -4l-4 454h113l-5 -454l234 4v-103l-234 5l-8 -1047h-88l-8 1047z" />
<glyph unicode="&#x2021;" horiz-adv-x="702" d="M68 365v102l231 -4v498l-231 -5v103l231 -4l-4 454h113l-5 -454l234 4v-103l-234 5v-498l234 4v-102l-234 4l5 -455h-113l4 455z" />
<glyph unicode="&#x2022;" horiz-adv-x="835" d="M143 625q0 123 76 198.5t199 75.5t198.5 -75.5t75.5 -198.5t-75.5 -199t-198.5 -76t-199 76t-76 199z" />
<glyph unicode="&#x202f;" horiz-adv-x="421" />
<glyph unicode="&#x2030;" horiz-adv-x="2197" d="M111 975v190q0 285 260 285q258 0 258 -285v-190q0 -285 -258 -285q-260 0 -260 285zM201 1004q0 -119 35.5 -173.5t134.5 -54.5q98 0 133 54t35 174v133q0 120 -35 173.5t-133 53.5q-99 0 -134.5 -54.5t-35.5 -172.5v-133zM436 -59l576 1552h100l-575 -1552h-101z M920 268v191q0 284 260 284q258 0 258 -284v-191q0 -284 -258 -284q-260 0 -260 284zM1010 297q0 -118 35.5 -172.5t134.5 -54.5q98 0 133 53.5t35 173.5v133q0 120 -35 173.5t-133 53.5q-99 0 -134.5 -54.5t-35.5 -172.5v-133zM1569 268v191q0 284 260 284q258 0 258 -284 v-191q0 -284 -258 -284q-260 0 -260 284zM1659 297q0 -118 35.5 -172.5t134.5 -54.5q98 0 133 53.5t35 173.5v133q0 120 -35 173.5t-133 53.5q-99 0 -134.5 -54.5t-35.5 -172.5v-133z" />
<glyph unicode="&#x2039;" horiz-adv-x="663" d="M92 575v74l479 359v-90l-352 -306l352 -305v-90z" />
<glyph unicode="&#x203a;" horiz-adv-x="663" d="M92 217v90l352 305l-352 306v90l479 -359v-74z" />
<glyph unicode="&#x2044;" horiz-adv-x="722" d="M43 -51l532 1536h103l-533 -1536h-102z" />
<glyph unicode="&#x205f;" horiz-adv-x="526" />
<glyph unicode="&#x20ac;" horiz-adv-x="1142" d="M41 537v88h106v182h-106v88h106v74q0 226 111.5 353.5t339.5 127.5q191 0 369 -104l-41 -84q-169 88 -328 88q-183 0 -264.5 -102t-81.5 -296v-57h432v-88h-432v-182h432v-88h-432v-58q0 -192 83 -293.5t267 -101.5q159 0 328 88l39 -86q-178 -102 -367 -102 q-229 0 -342 128t-113 353v72h-106z" />
<glyph unicode="&#x2122;" horiz-adv-x="1359" d="M74 1360v74h489v-74h-207v-688h-77v688h-205zM676 672v762h69l236 -512l236 512h69v-762h-74v575h-8l-203 -432h-40l-203 432h-8v-575h-74z" />
<glyph unicode="&#x2190;" horiz-adv-x="1767" d="M150 709l651 624l61 -65l-532 -514h1272v-90h-1272l534 -512l-63 -68z" />
<glyph unicode="&#x2191;" horiz-adv-x="1490" d="M121 801l624 651l625 -651l-67 -64l-512 535v-1272h-91v1272l-514 -533z" />
<glyph unicode="&#x2192;" horiz-adv-x="1767" d="M166 664v90h1272l-533 514l62 65l651 -624l-651 -625l-64 68l535 512h-1272z" />
<glyph unicode="&#x2193;" horiz-adv-x="1490" d="M121 637l65 61l514 -532v1272h91v-1272l512 534l67 -63l-625 -651z" />
<glyph unicode="&#x2212;" horiz-adv-x="960" d="M20 559v92h920v-92h-920z" />
<glyph unicode="&#x2260;" horiz-adv-x="960" d="M20 360v93h369l94 317h-463v92h492l57 189h58l-58 -189h371v-92h-397l-97 -317h494v-93h-522l-56 -188h-57l55 188h-340z" />
<glyph unicode="&#x25fc;" horiz-adv-x="1116" d="M0 0v1116h1116v-1116h-1116z" />
<glyph unicode="&#xf6c3;" horiz-adv-x="536" d="M197 -96h141v-148q0 -61 -18 -110.5t-66 -106.5l-57 41q38 46 51.5 81.5t15.5 94.5h-67v148z" />
<glyph horiz-adv-x="1105" d="M123 504v428q0 110 24.5 201.5t74.5 163.5t134.5 112.5t196.5 40.5q111 0 195.5 -40.5t134.5 -112.5t75 -163.5t25 -201.5v-428q0 -88 -15 -165t-48.5 -143t-83 -112.5t-122 -73t-161.5 -26.5q-112 0 -196 40t-134.5 112t-75 164t-24.5 204zM227 512q0 -240 105 -348 l356 1161q-58 25 -135 25q-326 0 -326 -428v-410zM416 109q61 -25 137 -25q88 0 152.5 32t101.5 91.5t54.5 135t17.5 169.5v410q0 236 -107 346z" />
<glyph d="M129 504v428q0 110 24.5 201.5t74.5 163.5t134.5 112.5t196.5 40.5q111 0 195.5 -40.5t134.5 -112.5t75 -163.5t25 -201.5v-428q0 -88 -15 -165t-48.5 -143t-83 -112.5t-122 -73t-161.5 -26.5q-112 0 -196 40t-134.5 112t-75 164t-24.5 204zM233 512q0 -75 10.5 -137.5 t34.5 -117.5t61 -92.5t92.5 -59t127.5 -21.5q88 0 152.5 32t101.5 91.5t54.5 135t17.5 169.5v410q0 95 -17.5 170.5t-54.5 134.5t-101.5 91t-152.5 32q-326 0 -326 -428v-410z" />
<glyph d="M143 1241l463 193h84v-1338h279v-96h-758v96h375v1227l-410 -166z" />
<glyph d="M160 0v125q0 77 38.5 154.5t99.5 144t135 132.5t148 129.5t135 124.5t99.5 128t38.5 131q0 148 -88 215.5t-238 67.5q-159 0 -319 -111l-49 78q182 131 370 131q196 0 312 -96t116 -279q0 -78 -38 -156t-99 -144t-135 -131t-148 -128t-135 -124t-99 -129.5t-38 -135.5 v-25h692v-102h-798z" />
<glyph d="M135 109l45 75q180 -102 346 -102q103 0 174 26t107.5 73.5t51.5 101.5t15 123q0 137 -83 211.5t-242 74.5h-172v94h172q127 0 203.5 69t76.5 198q0 140 -75 219.5t-232 79.5q-84 0 -152 -23t-159 -74l-45 80q168 115 358 115q203 0 306.5 -104t103.5 -281 q0 -111 -52 -198t-141 -122q107 -31 170.5 -121.5t63.5 -220.5q0 -69 -13 -128t-45.5 -113.5t-82.5 -93t-128 -61.5t-178 -23q-118 0 -223 37t-170 88z" />
<glyph d="M86 336v88l442 1010h105l-434 -1002h501v461h105v-461h227v-96h-227v-336h-105v336h-614z" />
<glyph d="M135 109l45 75q180 -102 346 -102q82 0 145 21.5t101 55.5t61.5 82t32 96t8.5 103q0 154 -85 250t-254 96q-84 0 -150.5 -21.5t-136.5 -64.5l-64 41l41 693h668v-103h-580l-32 -512q111 66 256 66t245.5 -60t146.5 -158.5t46 -226.5q0 -72 -13 -135.5t-45.5 -123.5 t-82 -102.5t-128 -68.5t-178.5 -26q-108 0 -213.5 37t-179.5 88z" />
<glyph d="M123 457v436q0 266 123 411.5t344 145.5q105 0 188 -28.5t164 -78.5l-43 -81q-87 45 -156.5 66.5t-156.5 21.5q-166 0 -262.5 -110t-96.5 -322v-164q53 65 141 113t203 48q207 0 315.5 -125t108.5 -335q0 -216 -109 -343.5t-327 -127.5q-211 0 -323.5 128.5t-112.5 344.5 zM227 457q0 -175 84 -275t248 -100q332 0 332 373q0 173 -84 270.5t-248 97.5q-107 0 -191.5 -51t-140.5 -129v-186z" />
<glyph d="M125 1333v101h868v-80l-577 -1354h-117l582 1333h-756z" />
<glyph d="M102 373q0 143 86 233.5t242 145.5q-47 22 -80 40t-76 49.5t-70 64.5t-46 82t-19 104q0 161 111.5 259.5t308.5 98.5t308.5 -98.5t111.5 -259.5q0 -55 -19 -104t-46 -82t-70 -64.5t-76 -49.5t-80 -40q156 -55 242 -145.5t86 -233.5q0 -186 -120 -287.5t-337 -101.5 t-337 101.5t-120 287.5zM205 373q0 -142 94 -217.5t260 -75.5t260 75.5t94 217.5q0 124 -81.5 202t-272.5 127q-191 -49 -272.5 -127t-81.5 -202zM244 1092q0 -37 11 -71t27 -59t44 -49.5t51.5 -40.5t61 -34t60 -27.5t60.5 -24.5q38 15 60.5 24.5t60 27.5t61 34t51.5 40.5 t44 49.5t27 59t11 71q0 120 -79.5 191t-235.5 71t-235.5 -71t-79.5 -191z" />
<glyph d="M123 979q0 216 109 343.5t327 127.5q211 0 323.5 -128.5t112.5 -344.5v-436q0 -266 -123 -411.5t-344 -145.5q-179 0 -352 106l43 82q87 -45 156.5 -66.5t156.5 -21.5q166 0 262.5 110t96.5 322v164q-53 -65 -141 -113.5t-203 -48.5q-207 0 -315.5 125.5t-108.5 335.5z M227 979q0 -173 84 -271t248 -98q107 0 191.5 51.5t140.5 129.5v186q0 175 -84 275t-248 100q-332 0 -332 -373z" />
<glyph d="M129 504v428q0 110 24.5 201.5t74.5 163.5t134.5 112.5t196.5 40.5q111 0 195.5 -40.5t134.5 -112.5t75 -163.5t25 -201.5v-428q0 -88 -15 -165t-48.5 -143t-83 -112.5t-122 -73t-161.5 -26.5q-112 0 -196 40t-134.5 112t-75 164t-24.5 204zM233 512q0 -240 105 -348 l356 1161q-58 25 -135 25q-326 0 -326 -428v-410zM422 109q61 -25 137 -25q88 0 152.5 32t101.5 91.5t54.5 135t17.5 169.5v410q0 236 -107 346z" />
<glyph d="M125 117l49 84q196 -117 371 -117q94 0 162 23t105 65t54 92t17 113q0 70 -24.5 123t-66.5 86.5t-96.5 59.5t-114.5 45.5t-119.5 40t-114 49t-96.5 66t-66.5 97t-24.5 137.5q0 96 28.5 167t80 112.5t113 62.5t136.5 25v143h82v-143q168 -9 340 -123l-49 -88 q-81 55 -158.5 84t-175.5 29q-297 0 -297 -269q0 -60 25 -105.5t67 -74.5t96 -52t114 -43t120.5 -41.5t114.5 -53.5t96 -73t67 -105.5t25 -147.5q0 -79 -20 -145t-63 -122.5t-120 -90.5t-182 -41v-181h-82v179q-212 7 -393 133z" />
<glyph d="M100 698v68l172 18q-47 167 -47 265q0 106 36 185.5t98.5 124t135.5 66t156 21.5q188 0 357 -103l-41 -81q-90 44 -161.5 65t-152.5 21q-49 0 -92.5 -8t-86.5 -29t-74 -54t-50.5 -87.5t-19.5 -125.5q0 -106 47 -258h471v-88h-449q43 -169 43 -280q0 -104 -44.5 -190.5 t-108.5 -131.5h729v-96h-885v90q87 36 150 120t63 214q0 96 -49 274h-197z" />
<glyph d="M57 1434h115l383 -764h8l381 764h117l-402 -777h289v-92h-338v-145h338v-92h-338v-328h-104v328h-338v92h338v145h-338v92h289z" />
<glyph d="M98 537v88h107v182h-107v88h107v74q0 226 111 353.5t339 127.5q191 0 369 -104l-41 -84q-169 88 -328 88q-183 0 -264.5 -102t-81.5 -296v-57h432v-88h-432v-182h432v-88h-432v-58q0 -192 83 -293.5t267 -101.5q159 0 328 88l39 -86q-178 -102 -367 -102 q-229 0 -341.5 128t-112.5 353v72h-107z" />
<glyph horiz-adv-x="450" d="M152 1204l36 332h109l-74 -332h-71z" />
</font>
</defs>
</svg>
