<?xml version="1.0" encoding="UTF-8" standalone="no"?>
<svg
   xmlns:dc="http://purl.org/dc/elements/1.1/"
   xmlns:cc="http://creativecommons.org/ns#"
   xmlns:rdf="http://www.w3.org/1999/02/22-rdf-syntax-ns#"
   xmlns:svg="http://www.w3.org/2000/svg"
   xmlns="http://www.w3.org/2000/svg"
   xmlns:sodipodi="http://sodipodi.sourceforge.net/DTD/sodipodi-0.dtd"
   xmlns:inkscape="http://www.inkscape.org/namespaces/inkscape"
   version="1.1"
   style="fill:#e96363"
   width="380"
   height="380"
   id="svg8"
   sodipodi:docname="lieu.svg"
   inkscape:version="1.0.1 (0767f8302a, 2020-10-17)">
  <metadata
     id="metadata14">
    <rdf:RDF>
      <cc:Work
         rdf:about="">
        <dc:format>image/svg+xml</dc:format>
        <dc:type
           rdf:resource="http://purl.org/dc/dcmitype/StillImage" />
        <dc:title></dc:title>
      </cc:Work>
    </rdf:RDF>
  </metadata>
  <defs
     id="defs12" />
  <sodipodi:namedview
     pagecolor="#ffffff"
     bordercolor="#666666"
     borderopacity="1"
     objecttolerance="10"
     gridtolerance="10"
     guidetolerance="10"
     inkscape:pageopacity="0"
     inkscape:pageshadow="2"
     inkscape:window-width="1920"
     inkscape:window-height="1080"
     id="namedview10"
     showgrid="true"
     inkscape:zoom="1.255"
     inkscape:cx="82.607259"
     inkscape:cy="156.12191"
     inkscape:window-x="0"
     inkscape:window-y="0"
     inkscape:window-maximized="0"
     inkscape:current-layer="svg8"
     inkscape:document-rotation="0">
    <inkscape:grid
       type="xygrid"
       id="grid832" />
  </sodipodi:namedview>
  <path
     style="fill:none;stroke:#e96363;stroke-width:15px;stroke-linecap:round;stroke-linejoin:round"
     d=""
     id="path2" />
  <path
     style="fill:none;stroke:#e96363;stroke-width:15px;stroke-linecap:round;stroke-linejoin:round"
     d=""
     id="path4" />
  <path
     style="fill:none;stroke:#e96363;stroke-width:81px;stroke-linecap:square;stroke-linejoin:round;stroke-opacity:1"
     d="M 69.999997,170 Q 130,110 190,110 q 0,0 0,0 60,0 120,60 m -120,60 a 60,60 0 0 1 -60,-60 60,60 0 0 1 60,-60 60,60 0 0 1 60,60 60,60 0 0 1 -60,60 m 45,-15 v 0 l 30,30 m -75,-15 v 0 45 m -45,-60 v 0 l -30,30"
     id="path6" />
</svg>
