<?xml version="1.0" encoding="UTF-8"?>
<svg xmlns="http://www.w3.org/2000/svg" width="192.725" height="50">
  <path style="fill:#000;fill-opacity:1;stroke:none" d="M68.844 3.344c-1.807 0-3.608.043-5.406.125-1.799.081-3.6.123-5.407.156-.618.016-1.095.054-1.437.063-.342.008-.602-.009-.782 0-.179.008-.318.03-.374.03h-.094c-.098.017-.171.054-.188.095-.016.04 0 .06 0 .093V4.5a.28.28 0 0 0 .032.125c.024.049.074.063.156.063h.906c.146 0 .429.036.844.093s.865.202 1.312.438c.448.236.846.59 1.188 1.062.342.472.5 1.124.5 1.938V34c0 .716-.165 1.301-.532 1.781-.366.48-1.04.82-1.968 1.032-.082.016-.211.053-.407.093-.195.04-.397.061-.624.094-.228.033-.445.092-.657.125-.042.006-.056-.005-.093 0 .141-.324.286-.663.406-1 .449-1.26.687-2.582.687-3.969 0-.781-.084-1.625-.25-2.562-.166-.938-.488-1.864-.937-2.782a9.868 9.868 0 0 0-1.907-2.625c-.82-.82-1.867-1.496-3.156-2.062-.312-.137-.746-.268-1.312-.375a9.675 9.675 0 0 0-1.782-.156c-.136 0-.26-.01-.406 0-.146.01-.289.043-.406.062h-.094v-.031c0-.059.131-.19.375-.375.244-.186.522-.4.844-.625.322-.225.656-.432.969-.656.312-.225.531-.414.687-.532 1.055-1.054 1.93-2.128 2.594-3.28.664-1.153 1-2.41 1-3.72a6.36 6.36 0 0 0-.625-2.812c-.41-.85-1.01-1.56-1.781-2.156a8.354 8.354 0 0 0-2.813-1.407c-1.113-.322-2.363-.468-3.75-.468-.976 0-1.998.205-3.062.625a12.882 12.882 0 0 0-3.063 1.75 15.5 15.5 0 0 0-2.687 2.625c-.324.401-.606.819-.875 1.25V7.969c0-.733.092-1.334.312-1.782.22-.447.54-.787.907-1.03.366-.245.754-.411 1.218-.5.464-.09.95-.126 1.438-.126.13 0 .187-.058.187-.156v-.469a.281.281 0 0 0-.031-.125c-.024-.049-.075-.062-.156-.062H24.25c-.114 0-.156.057-.156.187v.469c0 .13.057.188.187.188.472.032.985.106 1.563.187a9.43 9.43 0 0 1 1.687.375c.53.18.985.41 1.375.688.39.276.606.609.688 1 .016.113.054.221.062.343.008.122-.001.26.032.407V19.25c0 .163-.014.264-.063.313-.049.048-.15.062-.313.062h-19.25c-.162 0-.263-.014-.312-.063-.049-.048-.063-.15-.063-.312V7.969c0-.733.101-1.334.313-1.782.212-.447.502-.787.844-1.03.342-.245.732-.411 1.187-.5.456-.09.918-.126 1.406-.126.13 0 .188-.058.188-.156v-.469a.28.28 0 0 0-.031-.125c-.025-.049-.075-.062-.156-.062H1.188c-.114 0-.157.057-.157.187v.469c0 .13.058.188.188.188a8.104 8.104 0 0 1 1.5.218c.455.114.862.296 1.187.532.326.236.571.531.75.906.18.374.281.853.282 1.406v26.031c0 .782-.138 1.42-.407 1.875-.268.456-.64.787-1.062 1.032-.423.244-.863.426-1.375.5-.513.073-1.027.093-1.531.093-.082 0-.132.014-.157.063-.024.049-.062.092-.062.125v.593c0 .033.038.077.062.126.025.048.075.062.156.062h13.47c.08 0 .14-.014.155-.063.017-.048 0-.092 0-.124v-.594c0-.033.017-.076 0-.125-.016-.05-.09-.063-.187-.063A8.534 8.534 0 0 1 12.406 37c-.52-.098-1.007-.24-1.406-.469a2.703 2.703 0 0 1-.938-.906c-.244-.374-.375-.853-.374-1.406V22.344c0-.163.013-.264.062-.313.049-.049.15-.093.313-.093h19.25c.162 0 .263.044.312.093.049.05.062.15.063.313V34c0 .716-.224 1.272-.688 1.688-.464.415-1.028.717-1.688.937a9.04 9.04 0 0 1-2.03.438c-.7.065-1.294.093-1.782.093-.081 0-.132.014-.156.063a.28.28 0 0 0-.032.125v.593a.28.28 0 0 0 .032.126c.024.048.075.062.156.062h15.531c.13 0 .188-.057.188-.188v-.593c0-.13-.058-.188-.188-.188-1.09-.032-1.937-.162-2.531-.406-.594-.244-1.02-.548-1.281-.906a3.539 3.539 0 0 1-.563-1 3.226 3.226 0 0 1-.187-1.125V14.78c.232-.418.523-.918.937-1.562.44-.684 1.004-1.346 1.688-2 .683-.655 1.511-1.219 2.468-1.688.958-.468 2.055-.718 3.344-.719.742 0 1.475.145 2.188.438A6.6 6.6 0 0 1 47 10.438a6.027 6.027 0 0 1 1.344 1.718c.342.655.531 1.371.531 2.094 0 1.055-.205 2.02-.625 2.938a11.88 11.88 0 0 1-1.625 2.593c-.664.81-1.43 1.58-2.25 2.313a87.91 87.91 0 0 1-2.438 2.093c-.078.079-.199.208-.374.344-.176.137-.356.26-.532.407-.176.146-.31.279-.437.406s-.188.234-.188.312c0 .157.051.313.188.469.136.156.289.25.406.25.059 0 .086-.035.125-.094.195-.254.46-.492.813-.687a6.674 6.674 0 0 1 1.124-.469c.381-.127.743-.223 1.094-.281.352-.059.64-.094.875-.094.86 0 1.713.178 2.563.5.85.322 1.607.807 2.281 1.5.674.693 1.236 1.615 1.656 2.719.42 1.103.625 2.426.625 3.968 0 1.27-.213 2.547-.593 3.876-.381 1.328-.915 2.552-1.657 3.656a10.352 10.352 0 0 1-2.75 2.781c-1.084.742-2.332 1.14-3.718 1.219-.801 0-1.547-.131-2.25-.375a11.58 11.58 0 0 1-1.97-.875 15.96 15.96 0 0 1-1.75-1.157c-.536-.41-1.019-.773-1.468-1.124-.45-.352-.848-.672-1.219-.907-.37-.234-.695-.343-.968-.343a3.27 3.27 0 0 0-1.688.437c-.498.293-.75.809-.75 1.531.195.684.498 1.262.938 1.75.439.489.988.908 1.593 1.25a9.645 9.645 0 0 0 1.969.844c.713.215 1.434.383 2.156.5.723.117 1.432.18 2.125.219.694.039 1.309.062 1.875.062 1.035 0 2.139-.168 3.282-.5a15.36 15.36 0 0 0 3.343-1.437 18.833 18.833 0 0 0 3.125-2.25 16.294 16.294 0 0 0 2.625-2.938c.34-.49.66-1.004.938-1.531.026.016.053 0 .093 0h15c.082 0 .132-.014.157-.063.024-.048.062-.092.062-.124v-.594c0-.033-.015-.076-.031-.125-.016-.05-.09-.063-.188-.063-.146 0-.32.002-.53-.031-.212-.033-.406-.084-.626-.125-.22-.04-.438-.061-.625-.094-.187-.032-.34-.077-.437-.093a8.187 8.187 0 0 1-1.563-.344c-.431-.147-.794-.327-1.062-.563a1.955 1.955 0 0 1-.563-.843 3.51 3.51 0 0 1-.187-1.157v-11.25c0-.097.015-.155.031-.187a.255.255 0 0 1 .094-.094.465.465 0 0 1 .25-.063h.187l5.781.282a.492.492 0 0 1 .126.093l6.25 9.813c.471.765.934 1.452 1.406 2.063.472.61.979 1.152 1.5 1.624 1.074.96 2.187 1.626 3.375 2 1.188.375 2.491.563 3.875.563.276 0 .463-.044.594-.125.13-.081.218-.256.218-.5 0-.081-.038-.13-.062-.188-.025-.056-.089-.123-.219-.156A10.07 10.07 0 0 1 85.312 36a11.23 11.23 0 0 1-2.25-2.688L75.689 21.25c.83-.374 1.573-.81 2.28-1.281.709-.472 1.332-1.007 1.844-1.625a7.309 7.309 0 0 0 1.22-2.125c.292-.79.437-1.679.437-2.688a9.71 9.71 0 0 0-.813-3.937c-.529-1.205-1.236-2.261-2.156-3.156-.92-.896-2.013-1.588-3.25-2.125a11.86 11.86 0 0 0-3.938-.97h-2.468zm98.531.062c-1.099 0-2.118.03-3.063.063l-7.812.156h-.563c-.097 0-.14.037-.156.094-.016.057-.031.109-.031.125v.687c0 .017.015.037.031.094.017.057.059.094.156.094h1.563c.358 0 .75.058 1.156.156.407.098.792.25 1.125.469.334.22.593.494.813.843.22.35.344.777.344 1.282v26.75c0 .667-.167 1.211-.5 1.593a3.105 3.105 0 0 1-1.22.844 5.083 5.083 0 0 1-1.468.344c-.505.04-.908.063-1.25.063h-.563c-.097 0-.14.036-.156.093-.016.057-.031.078-.031.094v.688c0 .016.015.068.031.124.017.057.059.063.156.063h17.813a20.4 20.4 0 0 0 4.938-.594c1.61-.399 3.16-.947 4.593-1.687a19.063 19.063 0 0 0 3.938-2.719 18.072 18.072 0 0 0 3.094-3.594 17.122 17.122 0 0 0 2.03-4.343c.489-1.571.75-3.243.75-5 0-1.823-.325-3.603-.968-5.344a17.217 17.217 0 0 0-2.656-4.75 16.631 16.631 0 0 0-4.031-3.656 14.777 14.777 0 0 0-5.063-2.094 47.228 47.228 0 0 0-2.563-.469 44.773 44.773 0 0 0-2.25-.281c-.748-.073-1.53-.1-2.343-.125-.814-.025-1.756-.063-2.781-.063h-3.063zm-63.781.313c-.065 0-.094.043-.094.125 0 .081.067.204.156.375.09.17.125.323.125.437 0 .033-.023.061-.031.094l-9.969 28.844c-.276.814-.624 1.442-1.031 1.906-.407.464-.819.827-1.25 1.063-.431.236-.835.395-1.25.468a9.016 9.016 0 0 1-1.094.125c-.13 0-.187.058-.187.188v.593c0 .13.057.188.187.188h12.469c.081 0 .132-.014.156-.063a.28.28 0 0 0 .031-.124v-.594a.28.28 0 0 0-.03-.125c-.025-.05-.076-.063-.157-.063H101c-.374 0-.801-.028-1.281-.093-.48-.066-.95-.19-1.406-.344a4.204 4.204 0 0 1-1.22-.625 1.999 1.999 0 0 1-.718-1c-.033-.082-.031-.154-.031-.219v-.219L100 23.938c0-.017.006-.105.063-.22.056-.113.152-.198.25-.312.097-.114.228-.246.374-.343.147-.098.32-.125.532-.125h8.656c.195 0 .362.027.5.125a1.531 1.531 0 0 1 .531.687c.04.114.078.186.094.219l3.688 10.406c.032.13.062.246.062.344 0 .407-.132.754-.344 1.031a2.278 2.278 0 0 1-.781.656c-.326.171-.695.317-1.094.407-.399.089-.797.146-1.187.187-.39.04-.76.077-1.094.094-.334.016-.571.015-.75.031-.033 0-.091.023-.156.031s-.123 0-.188 0c-.081 0-.132.014-.156.063-.024.049-.063.092-.063.125v.593c0 .033.039.077.063.126.024.048.075.062.156.062h14.938c.081 0 .132-.014.156-.063a.28.28 0 0 0 .031-.124v-.563a.359.359 0 0 0-.031-.156c-.024-.05-.075-.063-.156-.063-.358 0-.735-.057-1.125-.187s-.71-.261-.938-.375c-.52-.212-.926-.435-1.219-.688a3.477 3.477 0 0 1-.718-.843c-.18-.302-.33-.611-.469-.97-.138-.357-.303-.779-.531-1.218L108.75 3.906c-.033-.081-.068-.14-.125-.156-.057-.016-.092-.015-.125-.031h-4.906zm22.187 0a.143.143 0 0 0-.062.062.28.28 0 0 0-.031.125V4.5c0 .016.006.037.03.094.025.057.076.094.157.093h.531c.326 0 .767.044 1.313.125a6.64 6.64 0 0 1 1.594.438c.528.22.992.532 1.375.906.382.375.562.852.562 1.438v25.843c0 .635-.13 1.207-.406 1.72-.277.512-.68.924-1.25 1.25a4.15 4.15 0 0 1-.969.374c-.374.098-.744.162-1.094.219-.35.057-.637.1-.906.125a6.99 6.99 0 0 1-.5.031h-.563c-.097 0-.17.014-.187.063-.016.049-.031.092-.031.125v.593c0 .033.038.077.062.126.025.048.075.062.156.062h24.626c.113 0 .2-.044.28-.125.082-.081.154-.182.22-.313l3.687-7.218c.049-.098.094-.184.094-.282 0-.211-.088-.312-.25-.312a.458.458 0 0 0-.25.063c-.074.048-.138.107-.219.156-.18.146-.38.385-.625.718-.244.334-.535.702-.844 1.125-.309.424-.657.857-1.031 1.313-.374.456-.78.868-1.219 1.25-.44.382-.893.693-1.406.938a3.745 3.745 0 0 1-1.625.374h-9.656c-.326 0-.615-.13-.875-.374-.26-.245-.405-.505-.438-.782V7.594c0-.733.05-1.262.156-1.563.106-.3.345-.495.72-.625a12.127 12.127 0 0 1 1.905-.5 13.71 13.71 0 0 1 2.532-.218h1.062c.082 0 .132-.014.156-.063a.28.28 0 0 0 .032-.125v-.594a.28.28 0 0 0-.031-.125c-.025-.049-.075-.062-.157-.062h-16.531c-.04 0-.067-.012-.094 0zm40.531.844h6.625c2.295 0 4.38.42 6.22 1.25 1.838.83 3.393 1.965 4.687 3.406 1.294 1.44 2.3 3.149 3 5.094.7 1.945 1.031 4.035 1.031 6.28 0 2.556-.391 4.85-1.156 6.876-.765 2.026-1.841 3.74-3.281 5.156-1.441 1.416-3.192 2.501-5.25 3.25-2.06.749-4.396 1.125-7 1.125-.733 0-1.427-.015-2.094-.031a8.204 8.204 0 0 1-1.75-.219c-.497-.122-.887-.302-1.188-.563-.3-.26-.469-.621-.469-1.093V5.219c0-.228.044-.394.125-.5.082-.106.256-.156.5-.157zm-98.875.03c.196-.007.398 0 .626 0 1.204 0 2.333.197 3.374.563 1.042.366 1.923.886 2.688 1.594.765.708 1.373 1.583 1.813 2.625.439 1.042.656 2.228.656 3.563 0 1.285-.137 2.435-.438 3.468a6.226 6.226 0 0 1-1.5 2.625c-.692.716-1.604 1.297-2.719 1.688-1.114.39-2.45.562-4.062.562-.26 0-.544.017-.813 0-.268-.016-.522-.046-.75-.062-.227-.017-.422-.046-.593-.063-.171-.016-.279 0-.344 0-.179-.016-.287-.081-.344-.187a1.132 1.132 0 0 1-.125-.375l-.062-.719V5.094c0-.18.095-.303.25-.344a1.55 1.55 0 0 1 .375-.063c.276-.016.53-.023.75-.03.22-.009.43-.024.625-.032s.398-.023.594-.031zm37.938 4.157c.081 0 .212.217.375.656l3.625 10c.033.082.077.154.094.219a.887.887 0 0 1 .031.219.396.396 0 0 1-.094.25c-.057.073-.164.125-.344.125h-7.218c-.147 0-.233-.037-.281-.094a.32.32 0 0 1-.094-.219c0-.081.015-.168.031-.25.016-.081.03-.168.063-.25L105 9.438c.081-.212.139-.378.188-.5.048-.123.106-.188.187-.188z"></path>
</svg>

