<?xml version="1.0" encoding="UTF-8"?>
<svg
   xmlns="http://www.w3.org/2000/svg"
   version="1.1"
   id="Unarchive"
   x="0px"
   y="0px"
   viewBox="0 0 20 20"
   enable-background="new 0 0 20 20"
   xml:space="preserve">
<path
   fill="#FFFFFF"
   d="M 6.0175781 2 C 6.0175781 2 5.0214844 2 5.0214844 3 L 14.976562 3 C 14.976562 2 13.980469 2 13.980469 2 L 6.0175781 2 z M 4.0273438 4 C 4.0273438 4 3.03125 4 3.03125 5 L 3.03125 6 L 16.96875 6 L 16.96875 5 C 16.96875 4 15.972656 4 15.972656 4 L 4.0273438 4 z M 1.6308594 5.4082031 L 1.0410156 6 C 0.45201563 6.592 0.030578125 6.75 0.26757812 8 C 0.50357812 9.246 1.6464063 16.076 1.8164062 17 C 2.0024062 18.014 3.0332031 18 3.0332031 18 L 16.96875 18 C 16.96875 18 17.998547 18.014 18.185547 17 C 18.355547 16.076 19.497375 9.246 19.734375 8 C 19.969375 6.75 19.547031 6.592 18.957031 6 L 18.369141 5.4082031 L 18.369141 7 L 1.6308594 7 L 1.6308594 5.4082031 z M 10 8.2519531 L 14.482422 12.777344 L 11.792969 12.777344 L 11.792969 16.818359 L 11.783203 16.818359 C 11.69963 16.818358 11.616773 16.818356 11.533203 16.818359 C 11.429339 16.818355 11.326519 16.818331 11.222656 16.818359 C 11.029046 16.818398 10.834235 16.818442 10.640625 16.818359 C 10.592395 16.818359 10.591278 16.823971 10.554688 16.824219 C 10.554621 16.821519 10.554751 16.821059 10.554688 16.818359 C 10.554107 16.794059 10.504559 16.818332 10.480469 16.818359 C 10.476419 16.818364 10.47285 16.818355 10.46875 16.818359 C 10.345403 16.818498 10.222954 16.818348 10.099609 16.818359 C 9.8947287 16.818376 9.6892563 16.818479 9.484375 16.818359 C 9.2749123 16.818238 9.0668848 16.818551 8.8574219 16.818359 C 8.6408668 16.814259 8.4235028 16.818713 8.2070312 16.820312 L 8.2070312 12.775391 L 5.5175781 12.775391 L 10 8.2519531 z " />
</svg>
