<?xml version="1.0" encoding="UTF-8"?>
<svg
   xmlns="http://www.w3.org/2000/svg"
   version="1.1"
   id="Unpin"
   x="0px"
   y="0px"
   viewBox="0 0 20 20"
   enable-background="new 0 0 20 20"
   xml:space="preserve">
<path
   fill="#FFFFFF"
   d="m 3.6171875,0.21875 c -0.00443,0.003148 -0.010452,0.005379 -0.013672,0.009766 -0.00242,0.003291 -0.00162,0.008339 -0.00391,0.0117188 0.00637,-0.007116 0.00948,-0.0124357 0.017578,-0.0214844 z M 11.130859,0.40234375 C 10.073422,0.37633602 9.1890156,0.71528281 8.7285156,1.4257812 8.1945156,2.2497813 8.3504844,3.3920469 9.0214844,4.4980469 L 8.7832031,4.8652344 c 2.777e-4,0.00209 0.00195,0.00153 0.00195,0.00391 10e-8,0.00403 -8.1e-6,0.00554 0,0.00781 l 4.4335969,4.410155 c 0.002,5.97e-5 0.0039,-4.25e-5 0.0059,0 l 0.935547,-1.4414063 c 1.279,0.1630001 2.385969,-0.159422 2.917969,-0.9824219 0.923,-1.4230001 -0.20086,-3.7919688 -2.505859,-5.2929687 -1.153975,-0.75100789 -2.38401,-1.14196102 -3.441448,-1.16796875 z m 1.699219,1.36132815 c 0.406625,0.01 0.879766,0.1607189 1.322266,0.4492187 0.889,0.5769998 1.317844,1.4881564 0.964844,2.0351563 -0.353,0.5470005 -1.358095,0.5222952 -2.246094,-0.054687 C 11.984093,3.616342 11.55125,2.7072031 11.90625,2.1582031 c 0.177,-0.2735 0.517203,-0.4045313 0.923828,-0.3945312 z m -7.4882811,4.5761719 0.00195,0.00195 0.00195,-0.00195 z m 0.00781,0.00977 c -0.0014,4.145e-4 -0.0025,0.00154 -0.00391,0.00195 0.00245,8.38e-5 0.00467,3.737e-4 0.00586,0.00195 0.00182,0.00254 -0.00666,3.274e-4 -0.00977,0 h -0.00195 c -0.4067465,0.1208923 -0.7948301,0.2753641 -1.1328126,0.5 -0.006,0.002 -0.013581,0.00381 -0.017578,0.00781 -0.1149996,0.078 -0.2270312,0.1639063 -0.3320312,0.2539063 -0.017001,0.014 -0.036783,0.027014 -0.050781,0.041016 -0.098,0.084 -0.1864874,0.1774809 -0.2714844,0.2714844 -0.019891,0.0241 -0.047406,0.045313 -0.066406,0.070312 C 3.3628112,7.6190945 3.2656879,7.7468129 3.1796875,7.8828125 1.7956827,10.015807 2.9764998,13.243797 5.8125,15.091797 c 2.8379996,1.847999 6.259625,1.613468 7.640625,-0.519531 0.02187,-0.03394 0.03772,-0.07081 0.05859,-0.105469 L 5.3691406,6.3632812 c -0.00387,0 -0.00277,-0.0032 -0.00586,-0.00391 -0.00738,-0.00168 -0.010693,-0.00559 -0.013672,-0.00977 z m 8.1621091,8.1171872 0.002,0.002 c -2.82e-4,-10e-4 2.9e-4,-0.0028 0,-0.0039 z m -8.738281,0.820312 -2.1035156,3.25 0.2226562,1.0625 L 3.953125,19.373047 6.0566406,16.125 c -0.2240003,-0.12 -0.4451565,-0.248625 -0.6601562,-0.390625 -0.218,-0.141 -0.4270463,-0.291263 -0.6230469,-0.447266 z M 19.496212,16.660908 3.2828321,0.44728484 c -0.1943359,-0.194275 -0.5095215,-0.194275 -0.7038574,0 L 1.8753614,1.1508981 c -0.1943359,0.194397 -0.1943359,0.5094604 0,0.7037964 L 18.088985,18.068379 c 0.194336,0.194275 0.509277,0.194214 0.703857,-1.83e-4 l 0.703369,-0.703614 c 0.194581,-0.194397 0.194581,-0.509277 1e-6,-0.703674 z" /></svg>
